<svg version="1.2" xmlns="http://www.w3.org/2000/svg" viewBox="0 0 315 226" width="1105" height="1280">
	<title>51807-ai</title>
	<style>
		.s0 { fill: #80423a } 
		.s1 { fill: #603122 } 
		.s2 { fill: #8a8a8a } 
		.s3 { fill: #6d6d6d } 
		.s4 { fill: #b05a4f } 
		.s5 { fill: #7b3e2b } 
		.s6 { mix-blend-mode: multiply;fill: #b85c3f } 
		.s7 { fill: #f7faef } 
		.s8 { fill: #bdb6b2 } 
		.s9 { mix-blend-mode: multiply;fill: #dadada } 
		.s10 { mix-blend-mode: multiply;fill: #ededed } 
		.s11 { fill: #cfcfcf } 
		.s12 { mix-blend-mode: multiply;fill: #cfcfcf } 
		.s13 { opacity: .5;mix-blend-mode: screen;fill: #f4edf4 } 
		.s14 { fill: #565656 } 
		.s15 { fill: #2f2f2f } 
		.s16 { fill: #29537c } 
		.s17 { opacity: .6;mix-blend-mode: multiply;fill: #d4d7c0 } 
		.s18 { opacity: .6;mix-blend-mode: multiply;fill: #29537c } 
		.s19 { fill: #a5a5a5 } 
		.s20 { mix-blend-mode: screen;fill: #ffffe0 } 
		.s21 { fill: #888888 } 
		.s22 { fill: #3f3f3f } 
		.s23 { fill: #4f656e } 
		.s24 { fill: #b4ce19 } 
		.s25 { mix-blend-mode: screen;fill: #4f656e } 
	</style>
	<g id="Layer 1">
		<g id="Folder 1">
			<g id="Folder 1 copy 3">
				<g id="Folder 1 copy">
				</g>
			</g>
			<g id="Folder 1 copy">
			</g>
		</g>
		<g id="&lt;Group&gt;">
			<g id="&lt;Group&gt;">
				<g id="&lt;Group&gt;">
					<path id="&lt;Path&gt;" class="s0" d="m117.8 211.9l7.4-2.2-7.3 11.5q-4 2.6-7.5-0.5z"/>
					<path id="&lt;Compound Path&gt;" fill-rule="evenodd" class="s1" d="m114.6 222.6c-2.5 0-4.3-1.6-4.4-1.6-0.1-0.2-0.2-0.4 0-0.5l7.3-8.8q0.1-0.1 0.2-0.1l7.4-2.2c0.1-0.1 0.3 0 0.4 0.1 0 0.1 0.1 0.3 0 0.4l-7.3 11.5q0 0.1-0.1 0.1-1.7 1.1-3.5 1.1zm-3.6-2c0.5 0.4 1.9 1.3 3.6 1.3q1.6 0 3-1l6.8-10.6-6.4 1.9z"/>
				</g>
				<g id="&lt;Group&gt;">
					<path id="&lt;Path&gt;" class="s2" d="m114.6 214.7l7.4-0.9-4.2 5.9q-5.4 2.6-6.8-0.1z"/>
					<path id="&lt;Compound Path&gt;" fill-rule="evenodd" class="s3" d="m113.7 221.2q0 0 0 0c-2.2 0-2.9-1.4-3-1.4q-0.1-0.2 0.1-0.4l3.5-4.9q0.1-0.1 0.3-0.1l7.4-1c0.1 0 0.3 0 0.3 0.2 0.1 0.1 0.1 0.2 0 0.4l-4.2 5.9q-0.1 0.1-0.1 0.1-2.5 1.2-4.3 1.2zm-2.2-1.6c0.2 0.3 0.9 0.9 2.2 0.9q1.7 0 3.9-1.1l3.7-5.2-6.5 0.8z"/>
				</g>
				<g id="&lt;Group&gt;">
					<path id="&lt;Path&gt;" class="s4" d="m110.4 220.7q-40.3-18.7-98.7-17.6-7.8 1.1-6.5-2.4l67.8-57.5 50.4 61.8z"/>
					<path id="&lt;Compound Path&gt;" fill-rule="evenodd" class="s5" d="m110.4 221.1q0 0-0.1-0.1c-0.4-0.2-41-18.6-98.6-17.6 0 0-1.3 0.2-2.7 0.2q-3.2 0-4-1.2-0.5-0.7-0.1-1.8 0-0.1 0.1-0.2l67.7-57.5q0.1-0.1 0.3-0.1 0.1 0 0.2 0.1l50.5 61.9c0.1 0.1 0.1 0.3 0 0.4l-13 15.7q-0.1 0.1-0.3 0.2zm-94-18.4c52.9 0 90.5 16 93.9 17.6l12.6-15.3-50-61.3-67.4 57.2q-0.2 0.7 0.1 1.1c0.4 0.6 1.6 0.9 3.4 0.9 1.4 0 2.6-0.2 2.6-0.2q2.5 0 4.8 0z"/>
				</g>
				<g id="&lt;Group&gt;">
					<path id="&lt;Path&gt;" class="s0" d="m110.4 219.4q-40.3-18.7-98.7-17.7-10.3 1.6-5.1-3.5l66.4-56.4 50.4 61.8z"/>
					<path id="&lt;Compound Path&gt;" fill-rule="evenodd" class="s1" d="m110.4 219.7q0 0-0.1 0c-0.4-0.2-41-18.6-98.6-17.6 0 0-1.6 0.2-3.2 0.2-2.1 0-3.3-0.4-3.7-1.2q-0.4-1.2 1.5-3.1l66.4-56.4q0.1-0.1 0.3-0.1 0.1 0 0.2 0.1l50.5 61.8c0.1 0.2 0.1 0.3 0 0.5l-13 15.7q-0.1 0.1-0.3 0.1zm-94-18.4c52.9 0 90.5 16.1 93.9 17.6l12.6-15.3-50-61.3-66.1 56.2c-1.4 1.4-1.4 2-1.3 2.3 0.2 0.5 1.3 0.8 3 0.8 1.6 0 3.1-0.2 3.1-0.2q2.5-0.1 4.8-0.1z"/>
				</g>
				<path id="&lt;Path&gt;" class="s6" d="m5.1 200.8c-0.1-0.6 0.3-1.4 1.5-2.6l66.4-56.4 50.4 61.8-12.9 15.7q-2-1.2-4.1-2.3c-4.2-2.2-8.5-4.3-12.9-6-10.1-4-20.5-7.5-31.1-10-10.6-2.4-21.3-3.5-32.2-3.3-5.2 0.1-10.7 0-15.9 0.8-3.1 0.5-6.1 1.5-9.2 2.3z"/>
				<g id="&lt;Group&gt;">
					<path id="&lt;Path&gt;" class="s0" d="m167.2 140l101.3 1.1q2.2 0.4 1.6 2l-11.6 76.6q-0.5 1.4-2.4 1.5h-138.2l-0.1-1.5z"/>
					<path id="&lt;Compound Path&gt;" fill-rule="evenodd" class="s1" d="m256.1 221.6h-138.2c-0.2 0-0.4-0.2-0.4-0.4l-0.1-1.5q0-0.1 0.1-0.2l49.4-79.7c0-0.1 0.2-0.2 0.3-0.2l101.3 1.1q1.4 0.3 1.9 1.1c0.3 0.6 0.1 1.2 0.1 1.4l-11.7 76.6c-0.6 1.7-2.6 1.8-2.7 1.8q0 0 0 0zm-137.9-0.8h137.9c0.1 0 1.6-0.1 2-1.2l11.7-76.6q0 0 0 0c0 0 0.2-0.5-0.1-0.8q-0.3-0.6-1.3-0.8l-101-1.1-49.2 79.5z"/>
				</g>
				<g id="&lt;Group&gt;">
					<path id="&lt;Path&gt;" class="s7" d="m111.3 219.7q-57-36.1-104.7-22.5l82.1-68.8q52.3-12.5 82.2 6.1z"/>
					<path id="&lt;Compound Path&gt;" fill-rule="evenodd" class="s8" d="m111.3 220.1q-0.1 0-0.2-0.1c-0.4-0.2-40.8-25.5-81.4-25.5-8.2 0-15.9 1-23 3-0.2 0.1-0.3 0-0.4-0.1-0.1-0.2-0.1-0.4 0.1-0.5l82.1-68.8q0-0.1 0.1-0.1c0.2 0 17.4-4.1 37.5-4.1 18.9 0 34 3.5 44.9 10.3q0.2 0.1 0.2 0.2 0 0.2 0 0.3l-59.7 85.2q-0.1 0.2-0.2 0.2zm-81.6-26.3c39 0 77.7 23.2 81.5 25.4l59.2-84.6c-10.8-6.6-25.7-10-44.3-10-19.3 0-35.9 3.8-37.2 4.1l-80.8 67.7c6.7-1.7 14-2.6 21.6-2.6z"/>
				</g>
				<path id="&lt;Path&gt;" class="s9" d="m111.3 219.7q-52.2-40.1-99.9-26.5l77.3-64.8q52.3-12.5 82.2 6.1z"/>
				<g id="&lt;Group&gt;">
					<path id="&lt;Path&gt;" class="s7" d="m111.7 219.1q-39.4-46-105.1-29l94.9-75.2q37.3-3.5 69.4 19.6z"/>
					<path id="&lt;Compound Path&gt;" fill-rule="evenodd" class="s8" d="m111.7 219.4q-0.2 0-0.3-0.1c-0.2-0.3-28.5-32.6-76.1-32.6-9.4 0-19 1.2-28.6 3.7-0.2 0-0.3 0-0.4-0.2-0.1-0.1-0.1-0.3 0.1-0.4l94.9-75.2q0.1 0 0.2-0.1c0 0 2.1-0.1 5.6-0.1 11 0 39.1 1.9 64 19.8 0.1 0.1 0.2 0.3 0.1 0.5l-59.2 84.6q-0.1 0.1-0.3 0.1 0 0 0 0zm-76.4-33.4c45.2 0 73.2 29 76.4 32.5l58.7-83.9c-24.7-17.6-52.4-19.5-63.3-19.5-3 0-5 0.1-5.4 0.1l-93.6 74.1c9.2-2.2 18.3-3.3 27.2-3.3z"/>
				</g>
				<path id="&lt;Path&gt;" class="s9" d="m111.7 219.1q-33.3-45.3-98.5-34.3l88.3-69.9q37.3-3.5 69.4 19.6z"/>
				<g id="&lt;Group&gt;">
					<path id="&lt;Path&gt;" class="s7" d="m112.4 218.1q-37.1-49.1-105.8-36.3l70.8-63q48.8-12.3 93.5 15.7z"/>
					<path id="&lt;Compound Path&gt;" fill-rule="evenodd" class="s8" d="m112.4 218.5q-0.2 0-0.3-0.2c-0.1-0.1-7.4-9.7-21.3-19.1-12.7-8.8-33.8-19.2-61.8-19.2-7.3 0-14.8 0.7-22.3 2.1-0.2 0-0.4 0-0.4-0.2-0.1-0.1-0.1-0.3 0.1-0.4l70.7-63q0.1 0 0.2-0.1c0.1 0 10.9-2.7 26.7-2.7 17.2 0 42.7 3.2 67 18.5q0.2 0.1 0.2 0.2 0 0.2 0 0.3l-58.5 83.6q-0.1 0.2-0.3 0.2 0 0 0 0zm-83.4-39.2c28.2 0 49.4 10.5 62.3 19.3 12.3 8.4 19.5 17 21.1 18.9l58-82.9c-24.1-15-49.4-18.1-66.4-18.1-15 0-25.4 2.4-26.5 2.6l-69.7 62.1c7.1-1.3 14.3-1.9 21.2-1.9z"/>
				</g>
				<path id="&lt;Path&gt;" class="s9" d="m112.4 218.1q-28.4-49.3-100.2-41.3l65.2-58q48.8-12.3 93.5 15.7z"/>
				<g id="&lt;Group&gt;">
					<path id="&lt;Path&gt;" class="s7" d="m113.2 216.9q-27.7-53.7-105.9-42.5l68.6-64.3q68.4-17.4 95 24.4z"/>
					<path id="&lt;Compound Path&gt;" fill-rule="evenodd" class="s8" d="m113.2 217.2q0 0 0 0-0.2 0-0.3-0.2c0-0.1-5.8-11.1-19.1-21.9-12.2-10-33.6-21.9-65.7-21.9-6.7 0-13.6 0.5-20.7 1.5-0.2 0-0.3 0-0.4-0.2-0.1-0.1 0-0.3 0.1-0.4l68.6-64.3q0 0 0.1-0.1c0.2 0 14.3-3.5 32.1-3.5 20.7 0 48.5 4.8 63.3 28.1 0 0.1 0 0.3 0 0.4l-57.7 82.4q-0.1 0.1-0.3 0.1zm-85.1-44.7c32.3 0 53.8 12 66.2 22.1 11.8 9.6 17.7 19.3 19 21.6l57.1-81.7c-14.6-22.8-42.1-27.6-62.5-27.6-16.9 0-30.6 3.2-31.8 3.5l-67.7 63.5c6.7-1 13.3-1.4 19.7-1.4z"/>
				</g>
				<path id="&lt;Path&gt;" class="s9" d="m113.2 216.9q-22.3-51-101-47.1l63.7-59.7q68.4-17.4 95 24.4z"/>
				<g id="&lt;Group&gt;">
					<path id="&lt;Path&gt;" class="s7" d="m114.2 216.1c0.3 0.6-27.3-59.7-105.9-48.5l66-62.9q70-12 96.6 29.8z"/>
					<path id="&lt;Compound Path&gt;" fill-rule="evenodd" class="s8" d="m114.2 216.5q0 0 0 0-0.2 0-0.3-0.2 0 0 0 0 0 0 0 0 0 0 0 0 0 0 0 0 0 0 0 0 0 0 0 0 0 0 0 0 0 0 0 0c-0.1-0.2-5.9-12.6-19.7-25-12.5-11.3-34.2-24.7-66.9-24.7-6.1 0-12.5 0.5-19 1.4-0.1 0-0.3-0.1-0.3-0.2-0.1-0.1-0.1-0.3 0-0.4l66.1-62.9q0-0.1 0.1-0.1c0.1 0 9.6-1.6 22.6-1.6 44.9 0 65.2 17.1 74.4 31.5 0 0.1 0 0.3 0 0.4l-56.7 81.6q0 0 0 0-0.1 0.2-0.3 0.2zm-86.9-50.6c32.9 0 54.8 13.5 67.4 24.8 12.3 11.1 18.2 22.2 19.5 24.7l56.2-80.9c-9.1-14.2-29.2-31-73.6-31-12.2 0-21.3 1.4-22.3 1.6l-65.2 62c6.2-0.8 12.2-1.2 18-1.2z"/>
				</g>
				<path id="&lt;Path&gt;" class="s10" d="m36.3 166.6c-8.5-0.7-17.8-0.4-28 1l66-62.9q5.7-0.9 14.4-1.4c-12.2 6.2-22.3 16.4-31.9 26-7.3 7.3-14.8 14.3-21.9 21.6-2.4 2.5-5 5.5-5.4 9-0.3 2.8 2.3 4.8 4.5 5.8q1.1 0.5 2.3 0.9z"/>
				<path id="&lt;Path&gt;" class="s10" d="m170.9 134.5l-56.7 81.6c0.2 0.4-10-21.9-35.8-36.8 11-11.7 22-23.6 33.2-35.2 7.7-8.1 15.7-15.9 24-23.4q4.5-4.2 9.1-8.4c10.2 4.7 19.6 11.8 26.2 22.2z"/>
				<g id="&lt;Group&gt;">
					<g id="&lt;Group&gt;">
						<g id="&lt;Group&gt;">
							<path id="&lt;Path&gt;" class="s2" d="m256.1 214.8v4.7l-138.3 0.2v-5z"/>
							<path id="&lt;Compound Path&gt;" fill-rule="evenodd" class="s3" d="m117.8 220.1c-0.2 0-0.4-0.2-0.4-0.4v-5q0-0.1 0.1-0.2 0.1-0.1 0.3-0.2l138.3 0.1c0.2 0 0.3 0.2 0.3 0.4l0.1 4.7c0 0.2-0.2 0.4-0.4 0.4l-138.3 0.2zm0.3-5l0.1 4.3 137.5-0.2v-4.1z"/>
						</g>
						<g id="&lt;Group&gt;">
							<path id="&lt;Path&gt;" class="s11" d="m268.5 134l-12.5 80.7h-138.2l53.1-80.2z"/>
							<path id="&lt;Compound Path&gt;" fill-rule="evenodd" class="s3" d="m256 215.1h-138.2q-0.2 0-0.3-0.2-0.1-0.2 0-0.4l53.1-80.2q0.1-0.1 0.3-0.2l97.6-0.4c0.1-0.1 0.2 0 0.3 0.1q0.1 0.1 0 0.3l-12.5 80.7c0 0.1-0.2 0.3-0.3 0.3zm-137.5-0.8h137.2l12.4-79.9-97 0.5z"/>
						</g>
						<path id="&lt;Path&gt;" class="s12" d="m268.5 134l-94.6 4.7-56.1 76 53.1-80.2z"/>
						<g id="&lt;Group&gt;">
							<path id="&lt;Path&gt;" class="s11" d="m75.9 89.3l68.2-47.7 26.8 92.9-53.1 80.2z"/>
							<path id="&lt;Compound Path&gt;" fill-rule="evenodd" class="s3" d="m117.8 215.1q0 0-0.1 0-0.2-0.1-0.2-0.3l-41.9-125.4c-0.1-0.1 0-0.3 0.1-0.4l68.2-47.7q0.2-0.1 0.3 0 0.2 0.1 0.3 0.2l26.7 92.9q0 0.2 0 0.3l-53.1 80.2q-0.1 0.2-0.3 0.2zm-41.5-125.6l41.6 124.4 52.6-79.5-26.6-92.2z"/>
						</g>
						<path id="&lt;Path&gt;" class="s13" d="m75.9 89.3l68.2-47.7 26.8 92.9-27.8-89z"/>
						<path id="&lt;Path&gt;" class="s12" d="m167.1 133.6l-23-92 26.8 92.9-53.1 80.2z"/>
						<g id="&lt;Group&gt;">
							<path id="&lt;Path&gt;" class="s11" d="m75.9 89.3l-6.7 2.4 72-50.3 2.9 0.2z"/>
							<path id="&lt;Compound Path&gt;" fill-rule="evenodd" class="s3" d="m69.2 92.1q-0.2 0-0.3-0.2c-0.1-0.2 0-0.4 0.1-0.5l72-50.3q0.1-0.1 0.2-0.1l2.9 0.3c0.2 0 0.3 0.1 0.4 0.2 0 0.2-0.1 0.3-0.2 0.4l-68.2 47.7q0 0-0.1 0.1l-6.7 2.3q0 0.1-0.1 0.1zm72.1-50.4l-69.7 48.8 4.1-1.5 67.4-47.1z"/>
						</g>
						<g id="&lt;Group&gt;">
							<path id="&lt;Path&gt;" class="s11" d="m75.9 89.3l41.9 125.4-4.6 2.2-44-125.2z"/>
							<path id="&lt;Compound Path&gt;" fill-rule="evenodd" class="s3" d="m113.2 217.2q0 0-0.1 0-0.1-0.1-0.2-0.2l-44-125.2c-0.1-0.2 0-0.4 0.2-0.4l6.7-2.4q0.1-0.1 0.3 0 0.1 0.1 0.1 0.2l41.9 125.4c0.1 0.2 0 0.3-0.2 0.4l-4.5 2.2q-0.1 0-0.2 0zm-43.5-125.3l43.8 124.5 3.9-1.9-41.7-124.7z"/>
						</g>
						<g id="&lt;Group&gt;">
							<path id="&lt;Path&gt;" class="s14" d="m140.8 51.3l24.1 82.9-47.1 63-33.8-105.5z"/>
							<path id="&lt;Compound Path&gt;" fill-rule="evenodd" class="s15" d="m117.8 197.6q-0.1 0-0.1-0.1-0.2 0-0.3-0.2l-33.8-105.5c0-0.1 0-0.3 0.2-0.4l56.8-40.4q0.1-0.1 0.3 0 0.2 0 0.2 0.2l24.1 82.9q0.1 0.2 0 0.3l-47.2 63q-0.1 0.2-0.2 0.2zm-33.4-105.8l33.5 104.6 46.6-62.3-23.9-82.2z"/>
						</g>
						<path id="&lt;Path&gt;" class="s16" d="m119.3 188.9l45.6-54.7-47.1 63-33.8-105.5z"/>
						<path id="&lt;Path&gt;" class="s17" d="m140.8 51.3l24.1 82.9-25.3-78.6-55.6 36.1z"/>
						<path id="&lt;Path&gt;" class="s18" d="m164.9 134.2l-47.1 63-14.6-45.5c6.4 6.5 15.6 10.3 24.7 8.9 10.2-1.5 18.1-8.3 23.7-16.6 6.3-9.4 7.4-20.1 6.2-31.2q-0.4-3-0.9-6z"/>
						<g id="&lt;Group&gt;">
							<g id="&lt;Group&gt;">
								<path id="&lt;Path&gt;" class="s19" d="m166.1 183.7l-5.2 9.5h-11l5.6-9.5z"/>
								<path id="&lt;Compound Path&gt;" fill-rule="evenodd" class="s3" d="m149.9 193.6q-0.2 0-0.3-0.2-0.1-0.2 0-0.4l5.6-9.5q0.1-0.1 0.3-0.1l10.6-0.1q0.2 0 0.3 0.2 0.1 0.2 0 0.4l-5.2 9.5q-0.1 0.1-0.3 0.2h-11zm5.8-9.5l-5.2 8.8 10.2-0.1 4.8-8.7z"/>
							</g>
							<g id="&lt;Group&gt;">
								<path id="&lt;Path&gt;" class="s19" d="m176.8 183.7l-4.7 9.5h-11.2l5.2-9.5z"/>
								<path id="&lt;Compound Path&gt;" fill-rule="evenodd" class="s3" d="m160.9 193.6q-0.2-0.1-0.3-0.2-0.1-0.2 0-0.4l5.2-9.5q0.1-0.2 0.3-0.2h10.6q0.2 0 0.4 0.2 0.1 0.2 0 0.3l-4.7 9.5q-0.1 0.2-0.3 0.2l-11.2 0.1zm5.4-9.5l-4.8 8.7h10.4l4.3-8.8z"/>
							</g>
							<g id="&lt;Group&gt;">
								<path id="&lt;Path&gt;" class="s19" d="m186.5 183.7l-4.5 9.5h-9.9l4.7-9.5z"/>
								<path id="&lt;Compound Path&gt;" fill-rule="evenodd" class="s3" d="m172.1 193.5q-0.2 0-0.3-0.1-0.1-0.2 0-0.4l4.6-9.5q0.1-0.2 0.3-0.2h9.8q0.2 0 0.3 0.2 0.1 0.1 0 0.3l-4.4 9.5c-0.1 0.1-0.2 0.2-0.3 0.2zm4.8-9.5l-4.3 8.8h9.2l4.1-8.8z"/>
							</g>
							<g id="&lt;Group&gt;">
								<path id="&lt;Path&gt;" class="s19" d="m166.1 183.7h-10.6l5.9-9.9h10.1z"/>
								<path id="&lt;Compound Path&gt;" fill-rule="evenodd" class="s3" d="m155.5 184.1q-0.2 0-0.3-0.2-0.1-0.2 0-0.4l5.9-9.9q0.1-0.2 0.3-0.2h10.1q0.2 0 0.3 0.2 0.1 0.2 0 0.4l-5.4 9.9q-0.1 0.1-0.3 0.2zm6.1-10l-5.5 9.2h9.7l5-9.2z"/>
							</g>
							<g id="&lt;Group&gt;">
								<path id="&lt;Path&gt;" class="s19" d="m175.8 165.9h-9.7l4.9-8.2h9.3z"/>
								<path id="&lt;Compound Path&gt;" fill-rule="evenodd" class="s3" d="m166.1 166.3q-0.2 0-0.3-0.2-0.1-0.2 0-0.3l4.9-8.3q0.1-0.2 0.3-0.2h9.3q0.2 0 0.3 0.2 0.1 0.2 0 0.3l-4.5 8.3q-0.1 0.2-0.3 0.2h-9.7zm5.1-8.3l-4.5 7.6h8.9l4.1-7.6z"/>
							</g>
							<g id="&lt;Group&gt;">
								<path id="&lt;Path&gt;" class="s19" d="m180.3 157.7h-9.3l5-8.3h8.8z"/>
								<path id="&lt;Compound Path&gt;" fill-rule="evenodd" class="s3" d="m171 158q-0.2 0-0.3-0.1-0.1-0.2 0-0.4l5-8.3q0.1-0.1 0.3-0.1h8.8q0.2 0 0.3 0.1 0.1 0.2 0 0.4l-4.5 8.2q-0.1 0.2-0.3 0.2h-9.3zm5.2-8.2l-4.5 7.5h8.4l4.1-7.5z"/>
							</g>
							<g id="&lt;Group&gt;">
								<path id="&lt;Path&gt;" class="s19" d="m220.1 149.4l-2.9 8.2h-9.3l3.4-8.2z"/>
								<path id="&lt;Compound Path&gt;" fill-rule="evenodd" class="s3" d="m207.9 158q-0.1 0-0.3-0.2-0.1-0.1 0-0.3l3.4-8.3c0-0.1 0.2-0.2 0.3-0.2h8.8q0.2 0 0.3 0.1 0.1 0.2 0.1 0.4l-3 8.2c0 0.2-0.1 0.3-0.3 0.3h-9.3zm3.6-8.3l-3 7.6h8.5l2.6-7.6z"/>
							</g>
							<g id="&lt;Group&gt;">
								<path id="&lt;Path&gt;" class="s19" d="m204.6 165.9h9.7l-2.8 7.8h-10.1z"/>
								<path id="&lt;Compound Path&gt;" fill-rule="evenodd" class="s3" d="m201.4 174.1q-0.2 0-0.3-0.2-0.1-0.1-0.1-0.3l3.2-7.8c0.1-0.2 0.2-0.3 0.4-0.3h9.7q0.2 0 0.3 0.2 0.1 0.1 0 0.3l-2.8 7.8c0 0.2-0.2 0.3-0.3 0.3zm3.4-7.9l-2.9 7.2 9.4-0.1 2.5-7.1z"/>
							</g>
							<g id="&lt;Group&gt;">
								<path id="&lt;Path&gt;" class="s19" d="m207.9 157.6h9.3l-2.9 8.3h-9.7z"/>
								<path id="&lt;Compound Path&gt;" fill-rule="evenodd" class="s3" d="m204.6 166.2q-0.2 0-0.3-0.1-0.1-0.2-0.1-0.3l3.4-8.3c0.1-0.1 0.2-0.2 0.3-0.2h9.3q0.2 0 0.3 0.1 0.1 0.2 0 0.3l-2.9 8.3c0 0.1-0.2 0.2-0.3 0.2h-9.7zm3.6-8.2l-3.1 7.5h8.9l2.7-7.5z"/>
							</g>
							<g id="&lt;Group&gt;">
								<path id="&lt;Path&gt;" class="s19" d="m197.3 183.6l-3.8 9.5-11.5 0.1 4.5-9.5z"/>
								<path id="&lt;Compound Path&gt;" fill-rule="evenodd" class="s3" d="m182 193.5q-0.1 0-0.3-0.1-0.1-0.2 0-0.4l4.4-9.5c0.1-0.1 0.2-0.2 0.4-0.2h10.8q0.2 0 0.3 0.1 0.1 0.2 0.1 0.4l-3.9 9.5c-0.1 0.1-0.2 0.2-0.3 0.2h-11.4zm4.6-9.5l-4.1 8.8h10.6l3.6-8.8z"/>
							</g>
							<g id="&lt;Group&gt;">
								<path id="&lt;Path&gt;" class="s19" d="m201.4 173.7h10.1l-3.5 9.9h-10.7z"/>
								<path id="&lt;Compound Path&gt;" fill-rule="evenodd" class="s3" d="m197.3 184q-0.1 0-0.3-0.2-0.1-0.1 0-0.3l4-9.9c0.1-0.1 0.2-0.2 0.4-0.2h10.1q0.2 0 0.3 0.1 0.1 0.2 0 0.3l-3.5 9.9c0 0.2-0.2 0.3-0.3 0.3zm4.2-9.9l-3.7 9.2h9.8l3.3-9.2z"/>
							</g>
							<g id="&lt;Group&gt;">
								<path id="&lt;Path&gt;" class="s19" d="m197.3 183.6h10.7l-3.4 9.5h-11.1z"/>
								<path id="&lt;Compound Path&gt;" fill-rule="evenodd" class="s3" d="m193.5 193.5q-0.2 0-0.3-0.2-0.1-0.1-0.1-0.3l3.9-9.5c0.1-0.1 0.2-0.2 0.3-0.2h10.7q0.1 0 0.3 0.1 0.1 0.2 0 0.3l-3.4 9.5c0 0.2-0.2 0.3-0.3 0.3h-11.1zm4.1-9.5l-3.6 8.8h10.3l3.2-8.8z"/>
							</g>
							<g id="&lt;Group&gt;">
								<path id="&lt;Path&gt;" class="s19" d="m171.5 173.8h-10.1l4.7-7.9h9.7z"/>
								<path id="&lt;Compound Path&gt;" fill-rule="evenodd" class="s3" d="m161.4 174.2q-0.2-0.1-0.3-0.2-0.1-0.2 0-0.4l4.7-7.8q0.1-0.2 0.3-0.2h9.7q0.2 0 0.3 0.2 0.1 0.1 0 0.3l-4.3 7.9q-0.1 0.1-0.3 0.1l-10.1 0.1zm4.9-7.9l-4.2 7.1h9.2l3.9-7.1z"/>
							</g>
							<g id="&lt;Group&gt;">
								<path id="&lt;Path&gt;" class="s19" d="m180.3 157.7l4.5-8.3h8.8l-4.1 8.3z"/>
								<path id="&lt;Compound Path&gt;" fill-rule="evenodd" class="s3" d="m180.3 158q-0.2 0-0.3-0.1-0.1-0.2 0-0.4l4.5-8.3q0.1-0.1 0.3-0.1l8.8-0.1q0.2 0 0.3 0.2 0.1 0.2 0 0.4l-4.1 8.2q-0.1 0.2-0.3 0.2h-9.2zm4.7-8.2l-4.1 7.5h8.4l3.7-7.5z"/>
							</g>
							<g id="&lt;Group&gt;">
								<path id="&lt;Path&gt;" class="s19" d="m185.5 165.9h-9.7l4.5-8.2h9.2z"/>
								<path id="&lt;Compound Path&gt;" fill-rule="evenodd" class="s3" d="m175.8 166.3q-0.2 0-0.3-0.2-0.1-0.2 0-0.3l4.5-8.3q0.1-0.2 0.3-0.2h9.2q0.2 0 0.3 0.2 0.1 0.1 0 0.3l-4 8.3q-0.1 0.2-0.3 0.2h-9.7zm4.7-8.3l-4.1 7.6h8.8l3.7-7.6z"/>
							</g>
							<g id="&lt;Group&gt;">
								<path id="&lt;Path&gt;" class="s19" d="m191.1 173.8l-4.6 9.9h-9.7l4.8-9.9z"/>
								<path id="&lt;Compound Path&gt;" fill-rule="evenodd" class="s3" d="m176.8 184q-0.2 0-0.4-0.1-0.1-0.2 0-0.4l4.9-9.9q0.1-0.2 0.3-0.2h9.5q0.2 0 0.3 0.2 0.1 0.1 0 0.3l-4.6 9.9q-0.1 0.2-0.3 0.2zm5-9.9l-4.5 9.2h8.9l4.3-9.2z"/>
							</g>
							<g id="&lt;Group&gt;">
								<path id="&lt;Path&gt;" class="s19" d="m185.5 165.9l4-8.2 9-0.1-3.8 8.3z"/>
								<path id="&lt;Compound Path&gt;" fill-rule="evenodd" class="s3" d="m185.5 166.3q-0.2 0-0.3-0.2-0.1-0.2-0.1-0.3l4.1-8.3q0.1-0.2 0.3-0.2h9q0.2 0 0.3 0.2 0.1 0.1 0.1 0.3l-3.9 8.3c0 0.1-0.1 0.2-0.3 0.2h-9.2zm4.2-8.3l-3.7 7.6 8.5-0.1 3.5-7.5z"/>
							</g>
							<g id="&lt;Group&gt;">
								<path id="&lt;Path&gt;" class="s19" d="m185.5 165.9h9.2l-3.6 7.9h-9.5z"/>
								<path id="&lt;Compound Path&gt;" fill-rule="evenodd" class="s3" d="m181.6 174.1q-0.2 0-0.3-0.1-0.1-0.2 0-0.4l3.8-7.8q0.1-0.2 0.4-0.2l9.2-0.1q0.2 0.1 0.3 0.2 0.1 0.2 0 0.4l-3.6 7.8c-0.1 0.1-0.2 0.2-0.3 0.2h-9.5zm4.1-7.8l-3.5 7.1h8.6l3.4-7.1z"/>
							</g>
							<g id="&lt;Group&gt;">
								<path id="&lt;Path&gt;" class="s19" d="m181.6 173.8l-4.8 9.9h-10.7l5.4-9.9z"/>
								<path id="&lt;Compound Path&gt;" fill-rule="evenodd" class="s3" d="m166.1 184.1q-0.2-0.1-0.3-0.2-0.1-0.2 0-0.4l5.4-9.9q0.1-0.2 0.3-0.2h10.1q0.2 0 0.3 0.2 0.1 0.1 0 0.3l-4.8 9.9q-0.1 0.2-0.3 0.2zm5.6-9.9l-5 9.2h9.8l4.5-9.2z"/>
							</g>
							<g id="&lt;Group&gt;">
								<path id="&lt;Path&gt;" class="s19" d="m189.5 157.7l4.1-8.3h8.8l-3.9 8.2z"/>
								<path id="&lt;Compound Path&gt;" fill-rule="evenodd" class="s3" d="m189.5 158q-0.2 0-0.3-0.2-0.1-0.1 0-0.3l4-8.3q0.1-0.2 0.4-0.2h8.8q0.2 0 0.3 0.2 0.1 0.2 0 0.3l-3.8 8.3c-0.1 0.1-0.2 0.2-0.4 0.2zm4.3-8.3l-3.7 7.6h8.3l3.5-7.6z"/>
							</g>
							<g id="&lt;Group&gt;">
								<path id="&lt;Path&gt;" class="s19" d="m198.5 157.6l3.9-8.2h8.9l-3.4 8.2z"/>
								<path id="&lt;Compound Path&gt;" fill-rule="evenodd" class="s3" d="m198.5 158q-0.1 0-0.3-0.2-0.1-0.1 0-0.3l3.9-8.3c0-0.1 0.1-0.2 0.3-0.2h8.9q0.2 0 0.3 0.2 0.1 0.1 0 0.3l-3.3 8.3c-0.1 0.1-0.2 0.2-0.4 0.2zm4.1-8.3l-3.5 7.6h8.6l3.1-7.6z"/>
							</g>
							<g id="&lt;Group&gt;">
								<path id="&lt;Path&gt;" class="s19" d="m194.7 165.9h9.9l-3.2 7.8-10.3 0.1z"/>
								<path id="&lt;Compound Path&gt;" fill-rule="evenodd" class="s3" d="m191.1 174.1q-0.2 0-0.3-0.2-0.1-0.1-0.1-0.3l3.7-7.8c0-0.2 0.2-0.3 0.3-0.3h9.9q0.2 0 0.3 0.2 0.1 0.1 0 0.3l-3.2 7.9c0 0.1-0.2 0.2-0.3 0.2zm3.8-7.9l-3.3 7.2h9.5l3-7.2z"/>
							</g>
							<g id="&lt;Group&gt;">
								<path id="&lt;Path&gt;" class="s19" d="m191.1 173.8l10.3-0.1-4.1 9.9-10.8 0.1z"/>
								<path id="&lt;Compound Path&gt;" fill-rule="evenodd" class="s3" d="m186.5 184q-0.2 0-0.3-0.1-0.1-0.2-0.1-0.4l4.6-9.9c0.1-0.1 0.2-0.2 0.4-0.2h10.3q0.2 0 0.3 0.1 0.1 0.2 0 0.4l-4 9.9c-0.1 0.1-0.2 0.2-0.4 0.2zm4.9-9.9l-4.3 9.2h10.1l3.7-9.2z"/>
							</g>
							<g id="&lt;Group&gt;">
								<path id="&lt;Path&gt;" class="s19" d="m198.5 157.6h9.4l-3.3 8.3h-9.9z"/>
								<path id="&lt;Compound Path&gt;" fill-rule="evenodd" class="s3" d="m194.7 166.3q-0.2 0-0.3-0.2-0.1-0.2 0-0.3l3.8-8.3c0.1-0.1 0.2-0.2 0.3-0.2h9.4q0.2 0 0.3 0.1 0.1 0.2 0.1 0.4l-3.4 8.2c-0.1 0.2-0.2 0.2-0.3 0.2zm4-8.2l-3.5 7.5h9.1l3.1-7.5z"/>
							</g>
							<g id="&lt;Group&gt;">
								<path id="&lt;Path&gt;" class="s19" d="m181.6 173.8h-10.1l4.3-7.9h9.7z"/>
								<path id="&lt;Compound Path&gt;" fill-rule="evenodd" class="s3" d="m171.5 174.1q-0.2 0-0.3-0.1-0.1-0.2 0-0.4l4.3-7.8q0.1-0.2 0.3-0.2h9.7q0.2 0 0.3 0.1 0.1 0.2 0 0.4l-3.9 7.8q-0.1 0.2-0.3 0.2h-10.1zm4.5-7.8l-3.9 7.1h9.3l3.5-7.1z"/>
							</g>
							<g id="&lt;Group&gt;">
								<path id="&lt;Path&gt;" class="s19" d="m204.6 193.1l-3.5 10h-11.7l4.1-10z"/>
								<path id="&lt;Compound Path&gt;" fill-rule="evenodd" class="s3" d="m189.4 203.5q-0.2 0-0.3-0.2-0.1-0.1 0-0.3l4-10c0.1-0.1 0.2-0.2 0.4-0.2h11.1q0.2 0 0.3 0.1 0.1 0.2 0 0.3l-3.5 10c-0.1 0.1-0.2 0.2-0.3 0.2l-11.7 0.1q0 0 0 0zm4.3-10l-3.8 9.3 10.9-0.1 3.3-9.2z"/>
							</g>
							<g id="&lt;Group&gt;">
								<path id="&lt;Path&gt;" class="s19" d="m182 193.2l-4.6 10h-10.2l4.9-10z"/>
								<path id="&lt;Compound Path&gt;" fill-rule="evenodd" class="s3" d="m167.2 203.6q-0.2 0-0.3-0.2-0.1-0.2-0.1-0.3l5-10.1q0.1-0.2 0.3-0.2h9.9q0.2 0 0.3 0.2 0.2 0.1 0.1 0.3l-4.7 10c0 0.1-0.2 0.2-0.3 0.2l-10.2 0.1q0 0 0 0zm5.1-10.1l-4.6 9.4 9.5-0.1 4.3-9.3z"/>
							</g>
							<g id="&lt;Group&gt;">
								<path id="&lt;Path&gt;" class="s19" d="m193.5 193.1l-4.1 10-12 0.1 4.6-10z"/>
								<path id="&lt;Compound Path&gt;" fill-rule="evenodd" class="s3" d="m177.4 203.5q-0.2 0-0.3-0.1-0.1-0.2 0-0.4l4.6-10c0.1-0.1 0.2-0.2 0.3-0.2h11.5q0.2 0 0.3 0.1 0.1 0.2 0 0.4l-4.1 9.9c0 0.2-0.1 0.3-0.3 0.3h-12zm4.9-10l-4.3 9.3h11.2l3.7-9.3z"/>
							</g>
							<g id="&lt;Group&gt;">
								<path id="&lt;Path&gt;" class="s19" d="m172.1 193.2l-4.9 10-11.8 0.1 5.5-10.1z"/>
								<path id="&lt;Compound Path&gt;" fill-rule="evenodd" class="s3" d="m155.4 203.6q-0.2 0-0.3-0.2-0.1-0.1-0.1-0.3l5.6-10.1q0.1-0.2 0.3-0.2h11.2q0.2 0 0.3 0.2 0.1 0.2 0 0.3l-4.9 10.1q-0.1 0.2-0.3 0.2h-11.8zm5.7-10l-5.1 9.3h10.9l4.6-9.4z"/>
							</g>
							<g id="&lt;Group&gt;">
								<path id="&lt;Path&gt;" class="s19" d="m149.9 193.2h-8l5.8-9.5h7.8z"/>
								<path id="&lt;Compound Path&gt;" fill-rule="evenodd" class="s3" d="m141.9 193.6q-0.3 0-0.4-0.2-0.1-0.2 0.1-0.4l5.8-9.5q0.1-0.1 0.3-0.1h7.8q0.2 0 0.3 0.1 0.1 0.2 0 0.4l-5.6 9.5q-0.1 0.2-0.3 0.2h-8zm6-9.5l-5.4 8.8h7.2l5.2-8.8z"/>
							</g>
							<g id="&lt;Group&gt;">
								<path id="&lt;Path&gt;" class="s19" d="m160.9 193.2l-5.5 10.1h-11.6l6.1-10.1z"/>
								<path id="&lt;Compound Path&gt;" fill-rule="evenodd" class="s3" d="m143.8 203.7q-0.2 0-0.3-0.2-0.1-0.2 0-0.4l6.1-10.1q0.1-0.1 0.3-0.1l11-0.1q0.2 0 0.3 0.2 0.1 0.2 0 0.4l-5.5 10q-0.1 0.2-0.3 0.2l-11.6 0.1q0 0 0 0zm6.3-10.1l-5.6 9.4 10.6-0.1 5.2-9.3z"/>
							</g>
							<g id="&lt;Group&gt;">
								<path id="&lt;Path&gt;" class="s19" d="m149.9 193.2l-6.1 10.1h-8.2l6.3-10.1z"/>
								<path id="&lt;Compound Path&gt;" fill-rule="evenodd" class="s3" d="m135.6 203.7q-0.2 0-0.3-0.2-0.1-0.2 0-0.3l6.3-10.2q0.1-0.1 0.3-0.1h8q0.2 0 0.3 0.1 0.1 0.2 0 0.4l-6 10.1q-0.2 0.2-0.4 0.2h-8.2q0 0 0 0zm6.5-10.1l-5.9 9.4h7.4l5.6-9.4z"/>
							</g>
							<g id="&lt;Group&gt;">
								<path id="&lt;Path&gt;" class="s19" d="m225.9 157.6l-2.4 8.3-2.3 7.8-2.9 9.9h-10.3l3.5-9.9 2.8-7.8 2.9-8.3z"/>
								<path id="&lt;Compound Path&gt;" fill-rule="evenodd" class="s3" d="m208 184q-0.2 0-0.3-0.2-0.1-0.1-0.1-0.3l9.3-26c0-0.1 0.2-0.2 0.3-0.2l8.7-0.1q0.2 0 0.3 0.2 0.1 0.1 0.1 0.3l-7.7 26c0 0.2-0.2 0.3-0.3 0.3h-10.3zm9.5-26l-9 25.3h9.5l7.4-25.3z"/>
							</g>
							<g id="&lt;Group&gt;">
								<path id="&lt;Path&gt;" class="s19" d="m204.6 193.1h10.9l-2.9 9.9-11.5 0.1z"/>
								<path id="&lt;Compound Path&gt;" fill-rule="evenodd" class="s3" d="m201.1 203.4q-0.2 0-0.3-0.1-0.1-0.2-0.1-0.4l3.6-9.9c0-0.1 0.1-0.2 0.3-0.2h10.9q0.1 0 0.3 0.1 0.1 0.1 0 0.3l-2.9 9.9c0 0.2-0.2 0.3-0.3 0.3h-11.5zm3.7-9.9l-3.2 9.2h10.7l2.7-9.2z"/>
							</g>
							<g id="&lt;Group&gt;">
								<path id="&lt;Path&gt;" class="s19" d="m208 183.6h10.3l-2.8 9.5h-10.9z"/>
								<path id="&lt;Compound Path&gt;" fill-rule="evenodd" class="s3" d="m204.6 193.5q-0.2 0-0.3-0.2-0.1-0.1 0-0.3l3.3-9.5c0.1-0.1 0.2-0.2 0.4-0.2h10.3q0.1 0 0.2 0.1 0.1 0.1 0.1 0.3l-2.8 9.5c0 0.2-0.2 0.3-0.3 0.3h-10.9zm3.6-9.5l-3.1 8.8h10.1l2.6-8.8z"/>
							</g>
							<g id="&lt;Group&gt;">
								<path id="&lt;Path&gt;" class="s19" d="m193.6 149.4l3.5-7.1h8.6l-3.3 7.1z"/>
								<path id="&lt;Compound Path&gt;" fill-rule="evenodd" class="s3" d="m193.6 149.8q-0.2-0.1-0.3-0.2-0.1-0.2-0.1-0.4l3.5-7.1q0.1-0.2 0.4-0.2h8.6q0.2 0 0.3 0.2 0.1 0.1 0 0.3l-3.3 7.1c0 0.2-0.2 0.2-0.3 0.2l-8.8 0.1zm3.7-7.2l-3.2 6.4h8.1l2.9-6.4z"/>
							</g>
							<g id="&lt;Group&gt;">
								<path id="&lt;Path&gt;" class="s19" d="m202.4 149.4l3.3-7.1h8.5l-2.9 7.1z"/>
								<path id="&lt;Compound Path&gt;" fill-rule="evenodd" class="s3" d="m202.4 149.7q-0.2 0-0.3-0.1-0.1-0.2 0-0.4l3.3-7.1c0-0.1 0.1-0.2 0.3-0.2h8.5q0.2 0 0.3 0.2 0.1 0.1 0 0.3l-2.9 7.1c0 0.1-0.2 0.2-0.3 0.2h-8.9zm3.5-7.1l-3 6.4h8.2l2.6-6.4z"/>
							</g>
							<g id="&lt;Group&gt;">
								<path id="&lt;Path&gt;" class="s19" d="m184.8 149.4l3.9-7.2 8.4 0.1-3.5 7.1z"/>
								<path id="&lt;Compound Path&gt;" fill-rule="evenodd" class="s3" d="m184.8 149.8q-0.2 0-0.3-0.2-0.1-0.2 0-0.4l3.9-7.1q0.1-0.2 0.3-0.2h8.4q0.2 0 0.3 0.2 0.1 0.1 0 0.3l-3.5 7.2q-0.1 0.1-0.3 0.2zm4.1-7.2l-3.5 6.4h7.9l3.1-6.4z"/>
							</g>
							<g id="&lt;Group&gt;">
								<path id="&lt;Path&gt;" class="s19" d="m220.1 149.4l8.2-0.1-2.4 8.3h-8.7z"/>
								<path id="&lt;Compound Path&gt;" fill-rule="evenodd" class="s3" d="m217.2 158q-0.2 0-0.3-0.2-0.1-0.1 0-0.3l2.9-8.3c0.1-0.1 0.2-0.2 0.3-0.2h8.2q0.2 0 0.3 0.1 0.1 0.2 0.1 0.3l-2.4 8.3c-0.1 0.2-0.2 0.3-0.4 0.3h-8.7zm3.2-8.3l-2.7 7.6 7.9-0.1 2.3-7.5z"/>
							</g>
							<g id="&lt;Group&gt;">
								<path id="&lt;Path&gt;" class="s19" d="m211.3 149.4l2.9-7.1h8.5l-2.6 7.1z"/>
								<path id="&lt;Compound Path&gt;" fill-rule="evenodd" class="s3" d="m211.3 149.7q-0.2 0-0.3-0.1-0.1-0.2 0-0.4l2.9-7c0-0.2 0.1-0.3 0.3-0.3l8.5 0.1q0.1 0 0.2 0.1 0.1 0.2 0.1 0.3l-2.5 7.1c-0.1 0.1-0.2 0.2-0.4 0.2h-8.8zm3.1-7.1l-2.6 6.4h8.1l2.2-6.3z"/>
							</g>
							<g id="&lt;Group&gt;">
								<path id="&lt;Path&gt;" class="s19" d="m220.1 149.4l2.6-7.1h7.7l-2.1 7z"/>
								<path id="&lt;Compound Path&gt;" fill-rule="evenodd" class="s3" d="m220.1 149.7q-0.1 0-0.2-0.1-0.1-0.2-0.1-0.4l2.5-7c0.1-0.2 0.2-0.2 0.4-0.2h7.7q0.2 0 0.3 0.1 0.1 0.2 0.1 0.3l-2.1 7c-0.1 0.2-0.2 0.3-0.4 0.3h-8.2zm2.8-7l-2.2 6.3h7.4l1.8-6.3z"/>
							</g>
							<g id="&lt;Group&gt;">
								<path id="&lt;Path&gt;" class="s19" d="m155.5 183.7h-7.8l6.2-9.9h7.5z"/>
								<path id="&lt;Compound Path&gt;" fill-rule="evenodd" class="s3" d="m147.7 184.1q-0.2 0-0.3-0.2-0.1-0.2 0-0.4l6.2-9.9q0.1-0.1 0.3-0.1l7.5-0.1q0.2 0 0.3 0.2 0.1 0.2 0 0.4l-5.9 9.9q-0.1 0.2-0.3 0.2zm6.4-9.9l-5.7 9.2 6.9-0.1 5.5-9.2z"/>
							</g>
							<g id="&lt;Group&gt;">
								<path id="&lt;Path&gt;" class="s19" d="m176 149.4l4.3-7.2h8.4l-3.9 7.2z"/>
								<path id="&lt;Compound Path&gt;" fill-rule="evenodd" class="s3" d="m176 149.8q-0.2 0-0.3-0.2-0.1-0.2 0-0.4l4.3-7.2q0.1-0.1 0.3-0.1h8.4q0.2 0 0.3 0.2 0.1 0.1 0.1 0.3l-4 7.2q-0.1 0.2-0.3 0.2zm4.5-7.2l-3.9 6.5 8.1-0.1 3.5-6.4z"/>
							</g>
							<g id="&lt;Group&gt;">
								<path id="&lt;Path&gt;" class="s19" d="m161.4 173.8h-7.5l4.8-7.8 7.4-0.1z"/>
								<path id="&lt;Compound Path&gt;" fill-rule="evenodd" class="s3" d="m153.9 174.2q-0.2 0-0.3-0.2-0.1-0.2 0-0.4l4.8-7.8q0.1-0.2 0.3-0.2h7.4q0.2 0 0.3 0.2 0.1 0.2 0 0.3l-4.7 7.9q-0.1 0.1-0.3 0.2h-7.5zm5-7.9l-4.4 7.2 6.7-0.1 4.3-7.1z"/>
							</g>
							<g id="&lt;Group&gt;">
								<path id="&lt;Path&gt;" class="s19" d="m166.1 165.9l-7.4 0.1 5.2-8.3h7.1z"/>
								<path id="&lt;Compound Path&gt;" fill-rule="evenodd" class="s3" d="m158.7 166.3q-0.2 0-0.3-0.2-0.1-0.1 0-0.3l5.2-8.3q0.1-0.2 0.3-0.2h7.1q0.2 0 0.3 0.2 0.1 0.2 0 0.4l-4.9 8.2q-0.1 0.2-0.3 0.2h-7.4zm5.4-8.2l-4.7 7.5h6.5l4.5-7.6z"/>
							</g>
							<g id="&lt;Group&gt;">
								<path id="&lt;Path&gt;" class="s19" d="m171 157.7h-7.1l5.1-8.3h7z"/>
								<path id="&lt;Compound Path&gt;" fill-rule="evenodd" class="s3" d="m163.9 158.1q-0.2-0.1-0.4-0.2 0-0.2 0.1-0.4l5.1-8.3q0.1-0.1 0.3-0.1h7q0.2 0 0.3 0.1 0.1 0.2 0 0.4l-5 8.3q-0.1 0.1-0.3 0.1l-7.1 0.1zm5.3-8.3l-4.7 7.5h6.3l4.5-7.5z"/>
							</g>
							<g id="&lt;Group&gt;">
								<path id="&lt;Path&gt;" class="s19" d="m176 149.4h-7l4.5-7.2h6.8z"/>
								<path id="&lt;Compound Path&gt;" fill-rule="evenodd" class="s3" d="m169 149.8q-0.2 0-0.3-0.2-0.1-0.2 0-0.4l4.5-7.2q0.1-0.1 0.3-0.1h6.8q0.2 0 0.3 0.1 0.1 0.2 0 0.4l-4.3 7.2q-0.1 0.2-0.3 0.2zm4.6-7.2l-4 6.5h6.1l3.9-6.5z"/>
							</g>
						</g>
						<path id="&lt;Path&gt;" class="s20" d="m140.8 51.3l-54 42.1 31 103.8-33.8-105.5z"/>
					</g>
					<g id="&lt;Group&gt;">
						<path id="&lt;Path&gt;" class="s21" d="m257.4 154.2l-5.9 34.3h-24.6l8.7-34.2z"/>
						<path id="&lt;Compound Path&gt;" fill-rule="evenodd" class="s22" d="m251.5 188.8h-24.6q-0.2 0-0.3-0.1-0.1-0.2-0.1-0.3l8.7-34.2c0.1-0.2 0.2-0.3 0.4-0.3h21.8q0.2 0 0.3 0.1 0.1 0.1 0.1 0.3l-6 34.2c0 0.2-0.2 0.3-0.3 0.3zm-24.2-0.7h23.9l5.8-33.5h-21.1z"/>
					</g>
				</g>
			</g>
			<g id="&lt;Group&gt;">
				<g id="&lt;Group&gt;">
					<path id="&lt;Path&gt;" class="s23" d="m310.5 13.5v81.4c0 5.6-4.5 10.1-10.1 10.1h-76.6l-70.3 30.9 31.7-30.9h-6.1c-5.6 0-10.1-4.5-10.1-10.1v-81.4c0-5.6 4.5-10.1 10.1-10.1h121.3c5.6 0 10.1 4.5 10.1 10.1z"/>
					<g id="&lt;Group&gt;">
						<g id="&lt;Group&gt;">
							<path id="&lt;Compound Path&gt;" fill-rule="evenodd" class="s24" d="m232.5 62.5c-0.1 1.7-2.2 2-3.7 2.1q0 0 0 0c-0.6 0.1-1.2 0.2-1.8 0.3q-1.9 0.2-3.7 0.4-1.7 0.2-3.5 0.4 0 0 0 0c-1.4 0.3-3.9 0.7-4.5-1.1-0.5-1.4 0.4-2.9 1.1-4 1-1.7 2.2-3.3 3.1-5.1 0.5-0.8 0.9-1.8 1-2.8 0.1-0.4 0.1-2 0.1-2.3-0.1-0.7-0.1-1.3-0.2-2q-0.1-0.3-0.1-0.7c-0.2 0-0.3-0.2-0.3-0.4q0-0.2 0.2-0.3 0.2-0.1 0.4-0.2c0.4-0.2 1-0.3 1.3-0.3 0.3-0.1 0.9-0.1 1.3 0.1q0-0.1 0-0.1c0.2 0.1 0.3 0.2 0.5 0.3q0 0.1-0.1 0.3 0 0.1-0.1 0.2 0.1 0.4 0.1 0.7c0.1 0.7 0.3 1.3 0.3 2 0.1 0.3 0.5 1.8 0.7 2.2 0.3 0.9 0.9 1.8 1.6 2.5 1.3 1.5 2.8 2.8 4.2 4.1 1 1 2.2 2.3 2.1 3.7zm-12.1-15.1c0.5 0 1.2-0.1 1.7-0.1 0.3 0 0.7-0.1 1.1-0.3-0.2-0.1-0.8-0.1-0.7-0.2q-0.3 0-0.6 0.1c-0.3 0-0.5 0-0.8 0.1q-0.2 0.1-0.4 0.1c-0.3 0.1-0.3 0.2-0.3 0.3zm11.6 13.9c-0.6-1.7-2.3-2.7-3.5-3.9-1.3-1.1-2.8-2.2-3.6-3.8-0.7-1.1-1.3-3.3-1.3-3.3-0.1-0.7-0.2-1.5-0.3-2.3q0-0.3 0-0.6c-0.5 0.3-1.3 0.4-1.8 0.4-0.2 0-0.6 0.1-0.9 0q0 0.3 0.1 0.5c0.1 0.8 0.2 1.6 0.2 2.3 0.1 0.1 0 2.3-0.4 3.6-0.4 1.6-1.6 3.1-2.5 4.5-0.9 1.4-2.3 2.8-2.5 4.6-0.1 1 0.4 1.8 1.4 2.1 0.9 0.2 1.8 0 2.7 0 1.4-0.2 2.8-0.4 4.3-0.5q1.6-0.2 3.3-0.4c0.7-0.1 1.3-0.2 1.9-0.3 0.7-0.1 1.4-0.2 2-0.5 0.9-0.5 1.2-1.5 0.9-2.4z"/>
							<path id="&lt;Compound Path&gt;" fill-rule="evenodd" class="s24" d="m231.8 61.7q0-0.1 0-0.1 0 0 0 0.1zm0-0.1q-0.1-1.3 0.1 0.2 0.1 1.5-3.1 2.1l-9.7 1.2q-2 0.1-2.8-0.3c-0.8-0.7-0.8-2.7 0.9-4.5q1.7-1.8 3.1-4.6 2.1-0.7 4.9-0.8c0.5 0.6 3.5 3.1 5 4.5q1.5 1.3 1.6 2.2zm-13.9 2.1c-0.3 0-0.4 0.6-0.1 0.5 0.3 0 0.4-0.6 0.1-0.5zm2-2.3c-0.2-0.1-0.3 0-0.3 0.1-0.1 0.1-0.2 0.1-0.3 0.2 0 0.2 0.1 0.3 0.2 0.3 0.2 0.2 0.5 0.1 0.6-0.2 0.1-0.2-0.1-0.4-0.2-0.4zm0.2-3.9c0-0.1-0.2-0.2-0.3-0.1-0.1 0-0.2 0.2-0.2 0.3v0.1c0 0.1 0.2 0.2 0.3 0.1 0.1 0 0.2-0.2 0.2-0.3zm2.5 3.8c-0.1-0.4-0.5 0-0.7 0.1-0.1 0.1-0.2 0.3-0.1 0.5 0 0.1 0.2 0.1 0.3 0.1q0 0 0.1 0c0.1 0.1 0.3 0 0.4-0.1 0.1-0.2 0.1-0.5 0-0.6zm-0.3-4c-0.3 0-0.4 0.6 0 0.5 0.2 0 0.4-0.6 0-0.5zm3.3 1.1c-0.2-0.1-0.3 0-0.4 0.2q-0.1 0.1 0.1 0.3c0.1 0.1 0.2 0 0.3-0.1 0.1-0.1 0.2-0.4 0-0.4zm-0.4-3c-0.3 0.1-0.4 0.6 0 0.6 0.2 0 0.3-0.6 0-0.6zm1.7 4.9c-0.3 0-0.4 0.5-0.1 0.5 0.3 0 0.4-0.6 0.1-0.5zm2.7 0c0.3 0 0.4-0.6 0.1-0.6-0.3 0.1-0.4 0.6-0.1 0.6zm0.4 2q0 0-0.1 0c-0.2 0.2-0.3 0.6 0 0.6q0.3-0.1 0.4-0.4c0-0.1-0.1-0.3-0.3-0.2z"/>
						</g>
						<path id="&lt;Path&gt;" class="s24" d="m226.7 42c-0.2 1.1-1.1 1.7-2.1 1.9q0 0.1 0 0.1c-0.2 0.2-0.5 0.3-0.7 0.3q0 0-0.1 0 0.1 0.4 0 0.8c-0.2 0.5-0.8 0.9-1.4 1q0 0.1-0.1 0.2c-0.1 0.1-0.1 0.1-0.1 0.3 0 0-0.1 0.1-0.1 0q0 0 0 0c-0.2 0-0.2-0.3-0.1-0.5-0.4 0-0.7-0.1-1-0.3q0-0.1 0-0.1c0.4 0.3 1.1 0.2 1.4 0.1q0.2-0.1 0.4-0.3 0.2-0.1 0.3-0.2c0.3-0.2 0.4-0.7 0.3-1q0-0.1 0-0.3c-0.1-0.3-0.2-0.6-0.5-0.8q0 0 0 0c0.2-0.2 0.5 0.1 0.7 0.4q0.1 0.2 0.2 0.4 0.1 0 0.2 0 0.1 0 0.2-0.1c0.1-0.1 0.1 0 0.1-0.1q0-0.3-0.1-0.5c-0.1-0.1-0.2-0.2-0.2-0.4 0-0.1 0.1-0.2 0.2-0.2 0.3 0 0.4 0.3 0.5 0.5q0 0.2 0 0.3c0.5-0.2 1-0.4 1.3-0.8q0.3-0.5 0.2-1 0-0.2-0.1-0.2-0.1 0-0.1 0c-0.2-0.3-0.5-0.3-0.8-0.1q-0.1-0.1 0-0.2c0.6-0.6 0.4-2-0.6-1.8q-0.2 0-0.4 0.1c-0.4 0.1-0.8 0.6-1.1 1q-0.1 0 0-0.1 0.2-0.5 0.5-0.9-0.6-0.6-1-0.1c-0.1 0.2-0.4 0.1-0.3-0.1 0.3-0.7-0.5-1.6-1.2-1.7-0.6-0.1-1.2 0.3-1.4 0.8q-0.1 0.1-0.1 0.1-0.2 0.4-0.3 0.8c-0.1-0.5 0-1 0.2-1.3q-0.4-0.8-0.9 0.2c0 0.1-0.2 0.3-0.3 0.2-0.7-0.9-1.8 0.4-2 1-0.2 0.4-0.2 1.5 0.3 1.9q0.2-0.2 0.6-0.3c-0.7 0.5-1 1.5-0.7 2.1-0.2 0-0.3-0.3-0.4-0.5-0.3 0.4 0.3 1.1 0.7 1.1 0.2 0.1 0.2 0.3 0 0.4-0.6 0.5-0.2 1.4 0.5 1.5 0.4 0.1 0.7 0 1.1-0.1 0.4-0.1 0.7-0.4 1-0.6 0.5-0.2 0.8-0.1 0.9 0.2q0.1-0.2 0.2-0.2c0-0.1 0.1-0.1 0.1 0-0.1 0.3 0 0.7 0.1 1 0.1 0.4 0.4 0.4 0.7 0.6 0.1 0.1 0 0.3-0.1 0.4-0.7 0.1-1-0.7-1-1.4-0.4-0.8-1.2 0.1-1.7 0.3-0.4 0.2-1 0.4-1.4 0.2-0.9-0.3-1.4-1.2-0.9-1.9-0.7-0.4-1-1.7-0.2-2q0.1-0.3 0.3-0.6c-0.2-0.1-0.4-0.4-0.5-0.6-0.2-0.6-0.2-1.2 0.1-1.8 0.3-0.7 1.6-1.9 2.3-1.3 0.1-0.3 0.4-0.5 0.8-0.5 0.3 0 0.5 0.2 0.6 0.4 0.4-0.3 0.8-0.6 1.3-0.6 0.9-0.1 1.8 0.9 1.8 1.8 0.4-0.2 0.9-0.2 1.1 0.4 0.4-0.4 1-0.5 1.7-0.1 0.6 0.4 0.6 1.2 0.3 1.8 0.5 0 0.9 0.4 0.8 1z"/>
					</g>
					<g id="&lt;Group&gt;">
						<g id="&lt;Group&gt;">
							<path id="&lt;Compound Path&gt;" fill-rule="evenodd" class="s24" d="m268.4 46.9c0 5.3-4.3 9.7-9.7 9.7-5.3 0-9.7-4.4-9.7-9.7 0-5.4 4.4-9.7 9.7-9.7 5.4 0 9.7 4.3 9.7 9.7zm-1.5 0c0-4.5-3.7-8.2-8.2-8.2-4.5 0-8.1 3.7-8.1 8.2 0 4.5 3.6 8.1 8.1 8.1 4.5 0 8.2-3.6 8.2-8.1z"/>
							<circle id="&lt;Compound Path&gt;" class="s24" cx="258.7" cy="46.9" r="1.3"/>
						</g>
						<g id="&lt;Group&gt;">
							<path id="&lt;Path&gt;" class="s24" d="m260.1 44.4l1.8-4.3c2.5 1.2 4.3 3.8 4.3 6.8q0 0.1 0 0.2l-4.7-0.7c-0.2-0.9-0.7-1.6-1.4-2z"/>
							<path id="&lt;Path&gt;" class="s24" d="m256 46.6l-4.7 0.7q0-0.2 0-0.4c0-3 1.7-5.5 4.2-6.8l1.8 4.4c-0.8 0.4-1.3 1.2-1.3 2.1z"/>
							<path id="&lt;Path&gt;" class="s24" d="m258.7 54.4c-1.5 0-2.9-0.5-4.1-1.3l2.9-3.9q0.6 0.3 1.2 0.3 0.8 0 1.3-0.3l3.1 3.8c-1.2 0.8-2.7 1.4-4.4 1.4z"/>
						</g>
					</g>
					<g id="&lt;Group&gt;">
						<path id="&lt;Compound Path&gt;" fill-rule="evenodd" class="s24" d="m200.8 14.6c-0.6 3.7-3.5 4.7-7.2 4.8-0.5 2-1 4.2-2 6.3-2.3 5-7 5.8-9.6 5.8-1.1 0-1.9-0.2-1.9-0.2-0.3 0-0.4-0.3-0.4-0.6 0.1-0.2 0.3-0.4 0.6-0.4 0.2 0.1 3.1 0.6 6-0.6q-0.2-0.1-0.2-0.2l-4.6-9.9c-0.1-0.2 0-0.4 0.2-0.5 0.2-0.1 0.4 0 0.5 0.2l4.6 9.8q0 0.2 0 0.3c1.5-0.7 2.9-2 3.9-4.1q0.5-1.2 0.9-2.4 0 0-0.1 0.1-0.1 0-0.1 0c-0.2 0-0.3-0.1-0.4-0.2l-1.3-2.8c-0.1-0.2 0-0.4 0.2-0.5 0.2-0.1 0.4 0 0.5 0.2l1.3 2.8q0 0 0 0 0.5-1.6 0.9-3.1c-1.5 0-3.1-0.2-4.7-0.3q0.2 0 0.3 0.2l2.6 5.4c0.1 0.2 0 0.4-0.2 0.5q-0.1 0.1-0.2 0.1-0.2-0.1-0.3-0.3l-2.6-5.4c-0.1-0.2 0-0.4 0.2-0.5q0.1 0 0.2 0-0.2 0-0.4-0.1c-0.9 0-1.8-0.1-2.7-0.2q-3.1-0.2-5 1.2 0 0 0 0c0.2-0.1 0.4 0 0.5 0.2l4.4 9.4c0.1 0.2 0 0.5-0.2 0.5q-0.1 0.1-0.2 0.1c-0.1 0-0.2-0.1-0.3-0.2l-4.4-9.5c0-0.1 0-0.3 0.1-0.4q-0.1 0.1-0.2 0.2c-2 1.8-2 4.6-2 4.6 0 0.3-0.2 0.5-0.5 0.5-0.3 0-0.5-0.2-0.5-0.5 0-0.2 0-3.3 2.3-5.4q2.2-2 6.1-1.7 1.4 0.1 2.7 0.2c1.9 0.2 3.7 0.4 5.2 0.4q0-0.2 0.1-0.3c1-4.5 1.9-8.4 6-7.7 0.3 0 0.5 0.3 0.4 0.6 0 0.3-0.3 0.4-0.6 0.4q-0.3-0.1-0.6-0.1 0 0.1 0 0.1l1.6 3.1q0 0.1 0 0.1 0-0.1 0.1-0.2c0-0.3 0.3-0.5 0.5-0.4 0.3 0 0.5 0.3 0.5 0.6zm-21 5.4q0 0 0 0 0 0 0 0zm8.1-0.9q0 0 0 0 0 0 0 0zm5.9-0.7q0.5-0.1 1-0.1 0 0-0.1-0.1l-0.5-1.1c-0.1-0.2 0-0.4 0.2-0.5 0.2-0.1 0.4 0 0.5 0.2l0.5 1.1q0.1 0.2 0 0.3 1.2-0.1 2.1-0.5-0.1-0.1-0.1-0.2l-2.1-4.1c-0.6 1.2-1 2.9-1.5 4.9q0 0 0 0.1zm5.9-3.5q-0.1 0.1-0.2 0.1-0.1 0.1-0.1 0.1c-0.2 0-0.3-0.1-0.4-0.2l-1.6-3.2q0-0.2 0-0.3c-0.8 0.1-1.3 0.6-1.8 1.4 0.1 0 0.3 0.1 0.3 0.2l2.1 4.2q0.1 0 0.1 0.1 0.3-0.2 0.6-0.6-0.2 0-0.3-0.2l-2.1-4.1c-0.1-0.2 0-0.4 0.2-0.5 0.2-0.1 0.4-0.1 0.5 0.1l2.1 4.2q0 0 0 0.1 0.4-0.6 0.6-1.4z"/>
						<path id="&lt;Path&gt;" class="s24" d="m180 30l-2.4-5.4c-0.1-0.2 0-0.4 0.2-0.5 0.2-0.1 0.4 0 0.5 0.2l2.4 5.3c0.1 0.2 0 0.5-0.2 0.5q0 0.1-0.1 0.1c-0.2 0-0.3-0.1-0.4-0.2z"/>
						<path id="&lt;Path&gt;" class="s24" d="m182 30.2l-3.6-7.8c-0.1-0.2 0-0.4 0.2-0.5 0.2-0.1 0.4 0 0.5 0.1l3.6 7.8c0.1 0.2 0 0.5-0.2 0.6q0 0-0.1 0c-0.2 0-0.3-0.1-0.4-0.2z"/>
						<path id="&lt;Path&gt;" class="s24" d="m184 19l4.3 8.9c0.1 0.2 0 0.4-0.2 0.5q-0.1 0-0.2 0c-0.1 0-0.3-0.1-0.3-0.2l-4.3-8.9c-0.1-0.1 0-0.4 0.2-0.5 0.2 0 0.4 0 0.5 0.2z"/>
						<path id="&lt;Path&gt;" class="s24" d="m188.9 26.8l-3.5-7.2c0-0.2 0-0.4 0.2-0.5 0.2-0.1 0.4 0 0.5 0.2l3.5 7.2c0 0.2 0 0.4-0.2 0.5q-0.1 0.1-0.2 0.1c-0.1 0-0.3-0.1-0.3-0.3z"/>
						<path id="&lt;Path&gt;" class="s24" d="m194.8 15.4c-0.1-0.2-0.1-0.4 0.1-0.5 0.2-0.1 0.5-0.1 0.5 0.1l1.2 2.3c0.1 0.2 0 0.5-0.2 0.6q0 0-0.1 0c-0.2 0-0.3-0.1-0.4-0.2z"/>
					</g>
					<path id="&lt;Compound Path&gt;" fill-rule="evenodd" class="s24" d="m225.1 93c-0.1 1.1-0.9 1.9-2.1 2.3-0.7 0.2-1.9 0.2-2.6-0.2 0.9-0.4 1.7-1.2 1.6-1.8 0.1-0.2 0-0.5-0.1-0.5q-0.2 0-0.5 0.1-0.5 0.1-1 0.3 0 0.1 0 0.1c0.2-0.5 0.3-1.1 0.2-1.5q0-0.2 0-0.3c0-0.5-0.2-1-0.4-1.5-0.1-0.3-0.2-0.7-0.4-1q0 0.4-0.2 0.7 0 0 0 0.1c-0.2 0.4-0.6 0.8-1.1 1.2q0-0.1 0.1-0.3c0.2-0.7 0.2-1.5-0.2-2.3q-0.3-0.7-0.8-1.3-0.1-0.1-0.2-0.1c0.1 0.6-0.3 1.4-0.6 1.9q-0.2 0.4-0.5 0.7-0.2 0.3-0.5 0.6 0 0 0 0-0.1-0.2-0.2-0.4-0.1-0.1-0.2-0.2c-0.1-0.3-0.4-0.4-0.6-0.7-0.1 0.7-0.5 1.2-0.9 1.8q0 0 0 0.1c-0.3 0.3-0.6 0.6-0.6 1.1q0 0.4 0.1 0.7 0 0 0 0.1 0 0 0 0 0.1 0.1 0.2 0.2-0.3-0.1-0.6-0.3-0.3-0.4-0.5-0.8c0-0.2-0.1-0.5-0.1-0.8-0.3 0.6-0.5 1.2-0.5 1.9-0.1 0.5 0 1.2 0.1 1.7 0.1 0.5 0.4 1 0.7 1.4q-0.1 0-0.1 0 0 0-0.1 0c-0.3 0-0.7-0.2-1-0.3q-0.2 0-0.4-0.1-0.6-0.2-1.1-0.6c-0.6-0.5-1-1.4-1.2-2.2q-0.2-0.8 0.2-1.7c0.3-1 1.1-1.8 1.6-2.7 0.5-0.7 0.8-1.6 0.6-2.3q0 0 0 0.1 0.4 0.1 0.7 0.3 0.3 0.1 0.5 0.4 0.1-0.2 0.2-0.3c0-0.1 1-1.5 1.1-2q0.3-0.8 0.2-1.6 0.3 0.2 0.6 0.4 0.1 0.2 0.3 0.4 0.2-0.8 0.7-1.5c1.4-2.4 3.6-4 6-5.3-0.8 0.6-1.5 1.4-1.8 2.2-0.4 0.5-0.6 1-0.6 1.6-0.1 0.8 0.2 1.4 0.6 2q0.2 0.3 0.5 0.6c0.4-0.8 1.1-1.3 1.8-1.7q-0.2 0.4-0.3 0.8-0.1 0.2 0 0.4 0 0.1 0 0.1c0 0.5 0.2 1 0.4 1.4 0.5 0.7 1 1.4 1.3 2.1 0.2 0.5 0.3 1 0.4 1.6q0.5-0.4 1.1-0.7-0.2 0.2-0.3 0.6c-0.3 1.1 0.3 2.4 0.5 3.5zm-13.5-6.1c0-0.1 0 0 0 0 0.2 0.7-0.3 1.6-0.8 2.1-0.4 0.5-0.9 1-1.3 1.5-0.8 1-0.6 2.3 0 3.4 0 0.1 0.1 0 0.1-0.1-0.3-0.8-0.6-1.6-0.3-2.5 0.3-0.6 0.8-1.1 1.3-1.6 0.6-0.6 1.7-1.9 1-2.8zm1 3.5c-0.6 0.6-1.1 1.3-1.3 2.2-0.2 0.9 0.1 1.7 0.6 2.4 0 0.1 0.1 0 0.1 0-0.5-0.8-0.6-1.6-0.5-2.6 0.2-0.8 0.7-1.4 1.1-2 0.1 0 0-0.1 0 0zm1-4.4c0.2-0.2 0.4-0.5 0.5-0.8 0.2-0.5 0.3-1.2 0-1.7 0 0-0.1 0-0.1 0 0.4 1.4-0.7 2.3-1.2 3.4 0 0.1 0 0.1 0.1 0 0.2-0.3 0.5-0.6 0.7-0.9zm1 2.3c0-0.1-0.1-0.1-0.1 0-0.1 0.7-0.4 1.3-0.8 1.8-0.2 0.3-0.4 0.5-0.5 0.9 0 0 0.1 0 0.1 0 0.2-0.5 0.7-0.9 0.9-1.4 0.2-0.4 0.4-0.9 0.4-1.3zm2.6-1.9c-0.1 0-0.1 0-0.1 0 0.1 0.6-0.2 1.3-0.4 1.9 0 0 0 0 0.1 0 0.4-0.5 0.5-1.3 0.4-1.9zm2.7-8.2c0 0 0-0.1 0-0.1-1.1 0.7-2.1 1.5-2.9 2.5-0.7 0.9-1.4 1.9-1.4 3.1 0 0.1 0.2 0.1 0.2 0 0.1-0.5 0.2-1.1 0.5-1.6q0.5-0.8 1-1.5c0.7-0.9 1.6-1.8 2.6-2.4zm1.1 13.7c0-0.7-0.1-1.3-0.4-1.9q-0.1-0.3-0.3-0.6c-0.2-0.3-0.3-0.6-0.5-0.9 0 0 0 0 0 0.1 0.1 0.2 0.2 0.5 0.3 0.7 0.2 0.3 0.3 0.5 0.4 0.8 0.2 0.6 0.3 1.2 0.4 1.8 0 0 0.1 0 0.1 0z"/>
					<path id="&lt;Compound Path&gt;" fill-rule="evenodd" class="s24" d="m255.8 75.6q0 0 0 0 0 2.2-1.7 4.7 0 0 0 0l-7.2 6.7q0 0 0 0 0 0.1 0 0.1-0.1 0-0.1 0 0 0-0.1 0 0 0 0-0.1 0 0 0 0 0 0 0 0-1.5-1.4-2.9-2.7-0.1-0.1-0.1-0.2v-3q0-0.1 0.1-0.1c0-0.1 0.3-0.2 0.8-0.5l5.6-4.7q0.8-0.9 1.3-2.1-0.1-0.1-0.1-0.2c-0.7-1.1-1.8-1.7-3.2-1.7-1.2 0-2.4 0.4-3.7 1.3l-6.7 5q0 0.1-0.1 0.1c-0.1 0-0.2-0.1-0.2-0.2q-0.5-0.4-1-0.9-0.4-0.3-0.8-0.6-0.1-0.1 0-0.1v-3.2q0 0 0.1-0.1l6.7-4.9q4.5-3.9 9-1.9 4 1.7 4.3 5.4c0.1 0.9 0.2 2.2 0 3.9zm-0.2-1.9q-0.2 0.8-0.6 1.7-0.2 0.6-0.4 1.1-0.3 0.8-0.5 1.6c-0.3 0.8-0.5 1.7-0.8 2.6l0.5-0.5c0.2-1.1 0.6-2.3 0.9-3.3q0.3-0.8 0.5-1.6c0.2-0.3 0.2-0.6 0.4-0.9q0-0.4 0-0.7zm-3.4 8q0.9-2.3 1.8-4.5l-0.3 0.3c-0.3 0.5-0.4 1.1-0.7 1.7-0.4 1-1 2.1-1.5 3.1zm0.7-0.6c0.4-0.9 0.6-1.9 0.9-2.8q0 0.1-0.1 0.1-0.4 1-0.8 2.1c-0.1 0.3-0.3 0.6-0.4 1zm-1.6 1.5c0.5-1.2 1.1-2.3 1.6-3.5q0.1-0.5 0.3-1 0 0 0 0c-0.4 0.7-0.8 1.5-1.2 2.2q-0.6 1.1-1.1 2.1-0.3 0.5-0.5 1zm-4.3 4l0.7-0.7q0.9-1.9 1.9-3.7 0-0.2 0-0.4-0.6 0.8-1 1.7-0.6 1-1.1 2.1c-0.2 0.3-0.3 0.6-0.5 0.8zm0-0.4c0.2-0.4 0.4-0.9 0.6-1.4q0.5-1 1-1.9 0.4-0.7 0.9-1.5l-0.7 0.7q-0.4 0.6-0.8 1.3-0.5 0.9-1 2zm0-1.4c0.2-0.6 0.5-1.1 0.8-1.6q0.1-0.3 0.3-0.5l-0.3 0.2q-0.1 0.2-0.2 0.4-0.3 0.5-0.6 1zm0.2-1.3l-0.2 0.2v0.3q0.1-0.3 0.2-0.5zm2.6-2q0 0.2 0 0.3 0.4-0.7 0.8-1.5l-0.2 0.2q-0.3 0.5-0.6 1zm1.7-8.5c0.1-0.1 0.2-0.3 0.3-0.4q0.1-0.1 0.1-0.1 0-0.2 0-0.4c-0.2 0.2-0.4 0.5-0.7 0.7q0.1 0.1 0.3 0.2zm-0.7-0.7c0.2-0.1 0.3-0.4 0.5-0.6q0.2-0.2 0.5-0.5 0-0.1 0.1-0.1-0.1-0.2-0.2-0.4 0 0.1 0 0.1c-0.4 0.4-0.8 0.9-1.2 1.3q0.1 0.1 0.3 0.2zm-0.4-0.3q0.5-0.7 1.1-1.3 0.1-0.1 0.1-0.2 0-0.1-0.1-0.2 0 0 0-0.1-0.1 0.1-0.2 0.2-0.4 0.5-0.8 0.9c-0.2 0.2-0.4 0.4-0.5 0.5q0.2 0.1 0.4 0.2zm-0.6-0.2c0.2-0.2 0.4-0.4 0.5-0.6q0.4-0.4 0.7-0.8 0.2-0.2 0.3-0.3-0.1-0.2-0.2-0.3-0.2 0.3-0.5 0.6c-0.3 0.3-0.7 0.6-1 1q-0.1 0.1-0.2 0.2 0.2 0.1 0.4 0.2zm-0.6-0.2c0.3-0.3 0.5-0.6 0.7-0.8q0.5-0.5 1-1 0-0.1 0.1-0.2-0.1-0.1-0.3-0.2c-0.2 0.3-0.5 0.6-0.8 0.9-0.3 0.4-0.7 0.8-1.1 1.2q0.2 0 0.4 0.1zm-0.6-0.1c0.6-0.8 1.2-1.6 1.9-2.3q-0.1 0-0.1 0c-0.7 0.8-1.3 1.6-2.1 2.3q0.2 0 0.3 0zm-0.5 0c0.5-0.6 1-1.3 1.5-1.9q0.2-0.3 0.5-0.6 0 0-0.1-0.1-0.4 0.6-0.9 1.1c-0.4 0.4-0.8 1.1-1.2 1.5q0.1 0 0.2 0zm-0.5 0c0.6-0.6 1-1.3 1.5-1.9q0.3-0.4 0.6-0.8 0 0-0.1 0-0.5 0.5-0.9 1c-0.4 0.5-0.8 1.3-1.3 1.7q0.1 0 0.2 0zm-0.5 0.1c0.6-0.6 1.1-1.5 1.6-2.1q0.3-0.4 0.6-0.8-0.1 0-0.2-0.1c-0.3 0.4-0.7 0.8-1 1.2-0.5 0.6-0.9 1.3-1.4 1.9q0.2-0.1 0.4-0.1zm-0.7 0.2c0.7-1.1 1.5-2.2 2.3-3.2q-0.1 0-0.4 0-0.4 0.5-0.8 1.1-0.5 0.7-1 1.4c0 0.1-0.4 0.6-0.6 0.9q0.3-0.1 0.5-0.2zm-0.7 0.3c0.7-0.9 1.2-1.9 1.8-2.7q0.2-0.4 0.5-0.8-0.1 0-0.1 0c-0.4 0.4-0.7 0.8-1 1.3-0.6 0.8-1.1 1.6-1.6 2.4q0.2-0.1 0.4-0.2zm5.8 1q0.1 0.1 0.2 0.2 0-0.2 0.1-0.4-0.1 0.1-0.3 0.2zm-1.7 9.6q0.6-1 1.2-2.1 0.4-0.6 0.7-1.3l-0.1 0.1c-0.6 1-1.2 1.9-1.8 2.9q0 0.2 0 0.4zm-5.8-9.6c0.8-1.5 1.8-3 2.9-4.3q-0.2 0-0.3 0c-0.4 0.6-0.9 1.2-1.3 1.8-0.7 1-1.3 2-1.9 3zm-1.1 0.8q0.9-1.6 1.9-3.2 0.6-0.8 1.2-1.7-0.2 0.1-0.5 0.2c-1.1 1.8-2.2 3.5-3.3 5.2zm-1 0.7q1.1-1.7 2.2-3.4 0.5-0.9 1.1-1.7-0.1 0-0.2 0c-0.6 0.9-1.2 1.8-1.8 2.6q-0.6 1-1.3 2c-0.2 0.3-0.4 0.7-0.6 1zm-1.9 1.2c0.1-0.2 0.2-0.4 0.4-0.6q0-0.1 0-0.3c-0.2 0.4-0.5 0.7-0.7 1-0.1 0.2-0.3 0.4-0.4 0.6l0.4-0.3q0.2-0.2 0.3-0.4zm-1.9 1.6c0.8-1.2 1.5-2.5 2.2-3.7q0-0.3 0-0.6-0.6 1.1-1.2 2.1c-0.5 0.8-1.1 1.6-1.3 2.4zm-0.4 0.3c-0.1-0.7 0.7-1.7 1.1-2.3 0.4-0.7 0.8-1.5 1.2-2.2h-0.1c-0.3 0.5-0.7 1-1 1.6q-0.6 1-1.2 2.1v0.8zm0-1.1q0.7-1.5 1.6-3l-0.3 0.3q-0.6 1.1-1.3 2.1zm0-0.8q0.3-0.6 0.7-1.3 0.1-0.1 0.1-0.3l-0.1 0.2q-0.2 0.2-0.3 0.4c-0.1 0.2-0.2 0.5-0.4 0.7q0 0 0 0zm0.3-1.1q0-0.1 0-0.1l-0.3 0.2v0.5c0.1-0.2 0.2-0.4 0.3-0.6zm3.5-2.6q-0.2 0.3-0.4 0.6c-0.1 0.3-0.3 0.5-0.5 0.7q0.1 0.1 0 0.1 0 0.1-0.1 0.3 0 0.2 0.1 0.5c0.3-0.6 0.5-1.2 0.9-1.8q0.2-0.3 0.4-0.8zm-0.4 0.4l-0.5 0.3q0 0.3 0 0.5c0.1-0.2 0.3-0.4 0.3-0.6q0.1-0.1 0.2-0.2zm-2.6 4.7l0.4-0.3c0.1-0.3 0.4-0.6 0.5-0.8 0.3-0.5 0.7-1 1-1.4q0-0.3 0-0.5c-0.2 0.5-0.6 0.9-0.8 1.3-0.4 0.6-0.7 1.2-1.1 1.7zm2.1-2.2c0.3-0.7 0.9-1.5 1.3-2.1q0.6-0.9 1.1-1.9l-0.5 0.4q-0.5 0.9-1 1.7c-0.3 0.4-0.5 1-0.9 1.5q0 0 0 0 0 0 0 0 0 0.2 0 0.4zm-1.9-3.4q0.6 0.5 1.2 1c0.2 0.1 0.4-0.2 0.2-0.2q-0.6-0.5-1.3-1c-0.1-0.1-0.2 0.1-0.1 0.2zm-1.2 3.3q-0.8-0.7-1.5-1.3l-0.1 2.8q0.4 0.3 0.7 0.6 0.4 0.4 0.9 0.7zm0.6-1.2c0.1-0.1 0.1-0.3 0.1-0.5 0-0.2 0-0.4 0.2-0.6q0.1-0.1 0.3-0.1 0.5 0 0.1 0.4c-0.2 0-0.3 0.2-0.2 0.2 0.3 0.1 0.7 0 0.7-0.4 0.1-0.3-0.3-0.5-0.6-0.5-0.4 0-0.7 0.4-0.8 0.7 0 0.2 0.2 0.8-0.2 0.8-0.2 0.1-0.3 0-0.4-0.1-0.1 0-0.3-0.4-0.2-0.3 0.2 0 0.3-0.3 0.2-0.3-0.3-0.1-0.5 0.1-0.5 0.3 0 0.4 0.2 0.6 0.5 0.7 0.3 0.1 0.7 0 0.8-0.3zm2.3 2.2q0-0.1 0-0.2-0.1 0.2-0.2 0.3 0 0.1-0.1 0.1zm0.3-0.2l0.2-0.2c0.5-0.5 0.8-1.2 1.2-1.9q0.5-0.7 1-1.5c0.4-0.7 0.9-1.4 1.4-2.1q0 0-0.1 0.1l-0.8 0.5c-0.3 0.7-0.8 1.4-1.2 2-0.6 0.9-1.2 1.8-1.7 2.8q0 0 0 0 0 0.1 0 0.3zm4.3-3.1c0.4-0.9 1-1.6 1.5-2.4q0.4-0.7 0.9-1.4-0.1 0-0.2 0c-0.4 0.6-0.8 1.1-1.2 1.7-0.6 0.8-1.2 1.7-1.8 2.6l0.1-0.1q0.3-0.2 0.7-0.4zm6.1 0.2q0.4-0.4 0.8-0.8 0-0.2-0.1-0.4-0.1 0.1-0.2 0.2c-0.2 0.2-0.5 0.4-0.7 0.7q0 0.1-0.1 0.1 0.2 0.1 0.3 0.2zm-4.2 6.5q0.1 0 0.1 0.1 0 0 0 0c0.7 0.6 1.4 1.1 2.1 1.7q0-0.1 0-0.1c0.1 0 0.1 0 0.2 0 0 0 0.1-0.1 0-0.2-0.7-0.6-1.5-1.1-2.2-1.8-0.1-0.1-0.3 0.2-0.2 0.3zm-0.3 4.6q-1.3-1.2-2.6-2.5v2.9q1.3 1.2 2.6 2.4zm1.3-2.8c0.1-0.1 0-0.3-0.2-0.2q-0.6 0.7-1.3 1.2c0.1-0.6 0.4-1.2 0.4-1.9 0 0-0.1-0.1-0.1-0.1-0.7 0.3-1 0.8-1.6 1.1-0.1 0.1-0.1 0.4 0.1 0.3 0.5-0.3 0.8-0.8 1.3-1 0 0.6-0.3 1.2-0.4 1.9 0 0.1 0.1 0.2 0.1 0.1 0.6-0.4 1.2-0.9 1.7-1.4zm1.6 2.4q0-0.3 0-0.6c-0.6 0.9-1 1.9-1.5 2.9l0.7-0.7q0.4-0.8 0.8-1.6zm0 0.9q0-0.3 0-0.5-0.3 0.5-0.5 1zm0.2-0.3l0.3-0.2c0.3-0.6 0.5-1.1 0.7-1.6q0.5-1.1 1.1-2.1 0.4-0.9 1-1.7l-0.6 0.5q-0.5 1-1.1 1.9-0.7 1.2-1.4 2.5 0 0.3 0 0.7zm5-5.2c0-0.5 0.2-0.9 0.4-1.3q0.2-0.7 0.4-1.4 0 0 0 0 0-0.3 0-0.5 0 0 0 0 0-0.3 0.1-0.7c-0.2 0.3-0.3 0.7-0.3 1q-0.3 0.8-0.5 1.6-0.5 1.3-0.8 2.6 0.4-0.7 0.7-1.3zm0.3-0.7q0.1-0.2 0.1-0.4 0 0.2-0.1 0.4z"/>
					<g id="&lt;Group&gt;">
						<g id="&lt;Group&gt;">
							<path id="&lt;Path&gt;" class="s24" d="m188.2 43c1-1.5 2.6-2.6 4.6-3q0.1-0.1 0.1-0.1-1.1 0.8-2 2-0.3 0-0.5 0.1-1.2 0.4-2.2 1z"/>
							<path id="&lt;Path&gt;" class="s24" d="m190.7 42.1q-0.4 0.5-0.6 1-0.4 0.8-0.7 1.6 0 0 0 0-1.3 0.5-2.5 1.2 0 0-0.1 0.1 0.4-1.5 1.1-2.6 1.1-0.7 2.3-1.1 0.2-0.1 0.5-0.2z"/>
							<path id="&lt;Path&gt;" class="s24" d="m189.4 44.9q-0.3 1.2-0.3 2.5-0.5 0.2-1.1 0.4c-0.4 0.2-0.8 0.4-1.3 0.6q-0.1-1.1 0.1-2.2 0.9-0.6 2-1 0.3-0.2 0.6-0.3z"/>
							<path id="&lt;Path&gt;" class="s24" d="m188.1 52.1q-0.9-1.2-1.2-2.8-0.1-0.3-0.2-0.7c0.7-0.4 1.4-0.6 2-0.9q0.2 0 0.4-0.1 0.1 0.9 0.3 1.9 0.1 0.6 0.3 1.1c-0.7 0.4-1.2 0.9-1.6 1.5z"/>
							<path id="&lt;Path&gt;" class="s24" d="m188.2 52.2q0-0.1 0.1-0.2c0.4-0.5 0.9-0.9 1.5-1.2 0.4 1.2 1 2.2 1.9 3.1q-0.4 0.3-0.8 0.6c-1-0.5-2-1.3-2.7-2.3z"/>
							<path id="&lt;Path&gt;" class="s24" d="m193.8 55.4q-1.4-0.2-2.7-0.8 0.3-0.3 0.7-0.6 0.3 0.3 0.6 0.6 0.7 0.5 1.4 0.8z"/>
							<path id="&lt;Path&gt;" class="s24" d="m191.1 41.8q1-1.2 2.3-1.9-0.3 0.7-0.5 1.6-0.9 0.1-1.8 0.3z"/>
							<path id="&lt;Path&gt;" class="s24" d="m192.8 41.7q-0.3 1.1-0.4 2.3-1.4 0.2-2.7 0.6 0.1-0.7 0.4-1.3 0.4-0.7 0.8-1.2 0.9-0.3 1.9-0.4z"/>
							<path id="&lt;Path&gt;" class="s24" d="m192.3 44.2q-0.1 1.2 0 2.4-1.5 0.3-3 0.7 0-1.2 0.3-2.5 1.3-0.4 2.7-0.6z"/>
							<path id="&lt;Path&gt;" class="s24" d="m189.9 50.6q-0.2-0.6-0.3-1.1-0.2-1-0.3-2 1.5-0.4 3-0.7 0 0.6 0.1 1.3 0.1 0.7 0.3 1.4-1.5 0.4-2.8 1.1z"/>
							<path id="&lt;Path&gt;" class="s24" d="m191.9 53.8c-0.9-0.9-1.5-1.9-1.9-3.1q0 0 0 0c0.8-0.4 1.8-0.8 2.7-1q0.4 1.6 1 3.2 0 0 0 0c-0.6 0.2-1.3 0.5-1.8 0.9z"/>
							<path id="&lt;Path&gt;" class="s24" d="m193.8 53.1c0.3 0.8 0.7 1.6 1.2 2.3q-0.2 0-0.4 0-1.1-0.3-2-1-0.3-0.2-0.6-0.5 0.1-0.1 0.2-0.1 0.8-0.4 1.6-0.7z"/>
							<path id="&lt;Path&gt;" class="s24" d="m192.8 49.5q-0.1-0.6-0.2-1.1-0.1-0.8-0.1-1.6 0.2 0 0.5-0.1 2-0.2 4-0.1 0.1 1 0.2 2 0.1 0.3 0.1 0.6-1.7-0.1-3.4 0.1-0.5 0.1-1.1 0.2z"/>
							<path id="&lt;Path&gt;" class="s24" d="m193.9 52.9q-0.7-1.6-1-3.2 0.6-0.1 1.2-0.2 1.6-0.2 3.2 0c0.1 0.9 0.1 1.8 0 2.8q-1.1 0-2.2 0.2-0.6 0.1-1.2 0.4z"/>
							<path id="&lt;Path&gt;" class="s24" d="m197.2 52.5q0 0.4-0.1 0.8-0.2 0.8-0.6 1.7-0.4 0.2-0.9 0.3-0.2 0.1-0.4 0.1c-0.5-0.7-0.9-1.5-1.3-2.4q0.7-0.2 1.3-0.3 1-0.2 2-0.2z"/>
							<path id="&lt;Path&gt;" class="s24" d="m193 41.4q0.2-0.7 0.5-1.5 0.8 0.7 1.4 1.4-0.9 0-1.9 0.1z"/>
							<path id="&lt;Path&gt;" class="s24" d="m195 41.5q0.8 1.1 1.2 2.3-0.9 0-1.8 0-0.9 0-1.9 0.1 0.2-1.1 0.5-2.2 0.9-0.2 1.9-0.2 0.1 0 0.1 0z"/>
							<path id="&lt;Path&gt;" class="s24" d="m196.3 44q0.4 1.2 0.6 2.4-2.2-0.1-4.4 0.2-0.1-1.2 0-2.5 0.8-0.1 1.6-0.1 1.1-0.1 2.2 0z"/>
							<path id="&lt;Path&gt;" class="s24" d="m197.5 49.3q0-0.2 0-0.4-0.1-1.1-0.3-2.3 1.2 0.1 2.4 0.3 0.1 0.1 0.3 0.1 0.1 0.3 0.1 0.6 0.2 1.1 0 2.2-0.5-0.2-1.1-0.3-0.7-0.2-1.4-0.2z"/>
							<path id="&lt;Path&gt;" class="s24" d="m199.1 52.6c-0.6 0.9-1.4 1.7-2.3 2.2q0.1-0.4 0.3-0.8 0.2-0.8 0.3-1.5 0.1 0 0.2 0c0.4 0 1 0 1.5 0.1z"/>
							<path id="&lt;Path&gt;" class="s24" d="m197.4 52.3q0.2-1.4 0.1-2.8 0.7 0.1 1.3 0.2 0.6 0.1 1.2 0.3-0.2 1.3-0.8 2.4c-0.5-0.1-0.9-0.1-1.3-0.1q-0.2 0-0.5 0z"/>
							<path id="&lt;Path&gt;" class="s24" d="m199.1 44.6q0.5 1 0.8 2.2-0.3-0.1-0.5-0.1-1.1-0.2-2.3-0.3-0.2-1.2-0.6-2.3 1.3 0.1 2.6 0.5z"/>
							<path id="&lt;Path&gt;" class="s24" d="m196.5 41.4q-0.7-0.1-1.4-0.1-0.4-0.6-1-1.2 0 0 0 0 1.3 0.5 2.4 1.3z"/>
							<path id="&lt;Path&gt;" class="s24" d="m198 42.8q0.6 0.7 1 1.5-1.3-0.3-2.6-0.5-0.4-1.2-1.1-2.2 0.7 0 1.5 0 0.6 0.6 1.2 1.2z"/>
							<path id="&lt;Path&gt;" class="s24" d="m200 42.1q-1.5-0.5-3.1-0.7c-0.9-0.6-1.8-1.2-2.9-1.6q0 0 0 0 0 0 0 0 0 0-0.1 0c2.3-0.2 4.6 0.7 6.1 2.3z"/>
							<path id="&lt;Path&gt;" class="s24" d="m200.3 42.4c0.8 0.9 1.4 2 1.7 3.2q-1.3-0.8-2.8-1.2-0.3-0.8-0.8-1.4-0.5-0.7-1.2-1.3 1.6 0.2 3.1 0.7z"/>
							<path id="&lt;Path&gt;" class="s24" d="m202.1 45.9q0.2 0.8 0.2 1.6c-0.7-0.3-1.5-0.5-2.2-0.7q-0.3-1.1-0.7-2.2 1.4 0.5 2.7 1.3z"/>
							<path id="&lt;Path&gt;" class="s24" d="m200.2 52.9c-0.9 1-2.1 1.7-3.4 2.2 1-0.6 1.9-1.5 2.5-2.5q0.5 0.1 0.9 0.3z"/>
							<path id="&lt;Path&gt;" class="s24" d="m201.7 50.7q-0.5 1.1-1.3 2-0.5-0.2-1-0.3 0.5-1.1 0.8-2.4 0.5 0.2 1 0.4 0.2 0.1 0.5 0.3z"/>
							<path id="&lt;Path&gt;" class="s24" d="m200.2 49.8q0.1-0.9 0.1-1.8-0.1-0.5-0.2-1 1.2 0.3 2.2 0.7 0 1.5-0.5 2.8-0.4-0.2-0.7-0.3-0.4-0.2-0.9-0.4z"/>
						</g>
						<g id="&lt;Group&gt;">
							<path id="&lt;Path&gt;" class="s24" d="m204.3 45.3c1 4.3-1 8.6-4.6 10.8l1.3 2.3-1.5 0.8-1.3-2.3q-0.7 0.3-1.6 0.5-0.1 0-0.2 0c-0.1-0.4-0.2-0.8-0.3-1.2q0.1 0 0.3 0c4.7-1.1 7.7-5.8 6.7-10.6-1.1-4.6-5.4-7.5-9.9-6.8q-0.1-0.7-0.1-1.3c5.1-0.7 10 2.7 11.2 7.8z"/>
							<path id="&lt;Path&gt;" class="s24" d="m205.8 56.3c0.1 0.3-2.2 1.8-5.1 3.4-3 1.7-5.4 2.8-5.5 2.6-0.2-0.2 2.1-1.7 5-3.4 3-1.6 5.4-2.8 5.6-2.6z"/>
						</g>
					</g>
					<g id="&lt;Group&gt;">
						<g id="&lt;Group&gt;">
							<g id="&lt;Group&gt;">
								<path id="&lt;Path&gt;" class="s24" d="m293.9 22.7q0.1 0.2 0.1 0.5v13q0 1.2-1.6 1.2c-1.1 0-1.5-0.8-1.5-1.2v-13q0-0.3 0.1-0.5h0.2q-0.2 0.2-0.2 0.4v12.8c0 0.4 0.4 1.2 1.4 1.2q1.4 0 1.4-1.2v-12.8q0-0.2-0.1-0.4z"/>
								<path id="&lt;Path&gt;" class="s24" d="m294.3 22.7c0 0.1-0.1 0.2-0.3 0.2h-3.2c-0.2 0-0.3-0.1-0.3-0.2 0-0.2 0.1-0.3 0.3-0.3h3.2c0.2 0 0.3 0.1 0.3 0.3z"/>
							</g>
							<g id="&lt;Group&gt;">
								<path id="&lt;Path&gt;" class="s24" d="m298.1 22.7q0.2 0.2 0.2 0.5v13q0 1.2-1.6 1.2c-1.2 0-1.6-0.8-1.6-1.2v-13q0-0.3 0.1-0.5h0.2q-0.1 0.2-0.1 0.4v12.8c0 0.4 0.4 1.2 1.4 1.2q1.4 0 1.4-1.2v-12.8q-0.1-0.2-0.2-0.4z"/>
								<path id="&lt;Path&gt;" class="s24" d="m298.5 22.7c0 0.1-0.1 0.2-0.2 0.2h-3.3c-0.1 0-0.2-0.1-0.2-0.2 0-0.2 0.1-0.3 0.2-0.3h3.3c0.1 0 0.2 0.1 0.2 0.3z"/>
							</g>
							<g id="&lt;Group&gt;">
								<path id="&lt;Path&gt;" class="s24" d="m302.6 22.7q0.2 0.2 0.2 0.5v13q0 1.2-1.6 1.2c-1.2 0-1.6-0.8-1.6-1.2v-13q0-0.3 0.1-0.5h0.2q-0.1 0.2-0.1 0.4v12.8c0 0.4 0.4 1.2 1.4 1.2q1.3 0 1.3-1.2v-12.8q0-0.2-0.1-0.4z"/>
								<path id="&lt;Path&gt;" class="s24" d="m303 22.7c0 0.1-0.1 0.2-0.2 0.2h-3.3c-0.1 0-0.2-0.1-0.2-0.2 0-0.2 0.1-0.3 0.2-0.3h3.3c0.1 0 0.2 0.1 0.2 0.3z"/>
							</g>
							<g id="&lt;Group&gt;">
								<path id="&lt;Compound Path&gt;" fill-rule="evenodd" class="s24" d="m291.2 27.1h2.4v8.7q0 1.1-1.2 1.1c-0.8 0-1.2-0.7-1.2-1.1zm0.4 0.7c0 0.1 0 0.2 0.1 0.2h0.6c0 0 0.1-0.1 0.1-0.2 0-0.1-0.1-0.1-0.1-0.1h-0.6c-0.1 0-0.1 0-0.1 0.1zm0 4c0 0.1 0 0.1 0.1 0.1h0.6c0 0 0.1 0 0.1-0.1 0-0.1-0.1-0.2-0.1-0.2h-0.6c-0.1 0-0.1 0.1-0.1 0.2zm0 4.1c0 0.1 0 0.2 0.1 0.2h0.6c0 0 0.1-0.1 0.1-0.2 0 0-0.1-0.1-0.1-0.1h-0.6c-0.1 0-0.1 0.1-0.1 0.1z"/>
								<path id="&lt;Compound Path&gt;" fill-rule="evenodd" class="s24" d="m295.5 27.1h2.3v8.7q0 1.1-1.1 1.1c-0.9 0-1.2-0.7-1.2-1.1zm0.3 0.7c0 0.1 0.1 0.2 0.1 0.2h0.6c0.1 0 0.1-0.1 0.1-0.2 0-0.1 0-0.1-0.1-0.1h-0.6c0 0-0.1 0-0.1 0.1zm0 4c0 0.1 0.1 0.1 0.1 0.1h0.6c0.1 0 0.1 0 0.1-0.1 0-0.1 0-0.2-0.1-0.2h-0.6c0 0-0.1 0.1-0.1 0.2zm0 4.1c0 0.1 0.1 0.2 0.1 0.2h0.6c0.1 0 0.1-0.1 0.1-0.2 0 0 0-0.1-0.1-0.1h-0.6c0 0-0.1 0.1-0.1 0.1z"/>
								<path id="&lt;Compound Path&gt;" fill-rule="evenodd" class="s24" d="m302.3 27.1v8.7q0 1.1-1.2 1.1c-0.8 0-1.1-0.7-1.1-1.1v-8.7zm-1.2 8.8c0-0.1-0.1-0.1-0.2-0.1h-0.5c-0.1 0-0.2 0-0.2 0.1 0 0.1 0.1 0.2 0.2 0.2h0.5c0.1 0 0.2-0.1 0.2-0.2zm0-4.1c0-0.1-0.1-0.2-0.2-0.2h-0.5c-0.1 0-0.2 0.1-0.2 0.2 0 0 0.1 0.1 0.2 0.1h0.5c0.1 0 0.2-0.1 0.2-0.1zm0-4c0-0.1-0.1-0.2-0.2-0.2h-0.5c-0.1 0-0.2 0.1-0.2 0.2 0 0.1 0.1 0.2 0.2 0.2h0.5c0.1 0 0.2-0.1 0.2-0.2z"/>
							</g>
						</g>
						<path id="&lt;Path&gt;" class="s24" d="m304.9 25.7c0 0.3-0.1 0.4-0.3 0.4h-15.9c-0.2 0-0.3-0.1-0.3-0.4 0-0.2 0.1-0.3 0.3-0.3h15.9c0.2 0 0.3 0.1 0.3 0.3z"/>
						<path id="&lt;Path&gt;" class="s24" d="m304.9 34.8c0 0.2-0.1 0.4-0.3 0.4h-15.9c-0.2 0-0.3-0.2-0.3-0.4 0-0.2 0.1-0.4 0.3-0.4h15.9c0.2 0 0.3 0.2 0.3 0.4z"/>
						<path id="&lt;Path&gt;" class="s24" d="m304.9 38.4c0 0.2-0.1 0.3-0.3 0.3h-15.9c-0.2 0-0.3-0.1-0.3-0.3 0-0.3 0.1-0.4 0.3-0.4h15.9c0.2 0 0.3 0.1 0.3 0.4z"/>
						<path id="&lt;Path&gt;" class="s24" d="m290.2 37.8c0 0.3-0.3 0.6-0.6 0.6-0.3 0-0.5-0.3-0.5-0.6v-11.7c0-0.3 0.2-0.5 0.5-0.5 0.3 0 0.6 0.2 0.6 0.5z"/>
						<path id="&lt;Path&gt;" class="s24" d="m304.4 37.8c0 0.3-0.2 0.6-0.5 0.6-0.3 0-0.5-0.3-0.5-0.6v-11.7c0-0.3 0.2-0.5 0.5-0.5 0.3 0 0.5 0.2 0.5 0.5z"/>
					</g>
					<g id="&lt;Group&gt;">
						<g id="&lt;Group&gt;">
							<path id="&lt;Path&gt;" class="s24" d="m292.3 89.7c0 5.2-4.5 9.5-10 9.5-2.4 0-4.6-0.8-6.4-2.2q0.2-0.1 0.4-0.3c1.6 1.2 3.7 2 6 2 5.2 0 9.5-4.1 9.5-9.1 0-4.2-3-7.7-7.1-8.7-0.2-0.1-0.3-0.1-0.5-0.2q0.1-0.1 0-7.2 0-0.2 0-0.3h-4.2q-0.1 0.1-0.1 0.3v6.5q0 0 0 0v0.8q-0.2 0.1-0.3 0.1c-2.4 0.7-4.4 2.2-5.6 4.2q-0.2 0-0.5-0.1c1.3-2.2 3.5-3.8 6.1-4.5v-7q0-0.2 0.1-0.3h-0.2c-0.2 0-0.4-0.2-0.4-0.4 0-0.2 0.2-0.4 0.4-0.4h5c0.3 0 0.4 0.2 0.4 0.4 0 0.2-0.1 0.4-0.4 0.4q0 0.1 0 0.3v6.9c4.5 1 7.8 4.8 7.8 9.3z"/>
							<path id="&lt;Compound Path&gt;" fill-rule="evenodd" class="s24" d="m291.4 89.6c0 4.8-4.1 8.7-9.1 8.7-2.2 0-4.2-0.8-5.8-2 0.4-0.4 0.7-0.8 0.8-1.2 1-1.6 1.1-3.8 0.5-5.7h13.6q0 0.1 0 0.2zm-12.7 5.2c-0.2 0-0.3 0.4-0.1 0.4 0.2 0 0.3-0.4 0.1-0.4zm1.4 1.7c-0.1 0.1-0.2 0.1-0.2 0.3-0.1 0.1 0 0.2 0.1 0.1q0.1 0 0.2-0.1 0 0 0 0c0.2-0.2 0.1-0.5-0.1-0.3zm0.2-4.3c-0.2 0-0.3 0.4 0 0.4 0.1 0 0.3-0.4 0-0.4zm2.7 0.8c-0.2 0-0.3 0.4-0.1 0.4 0.2 0 0.3-0.4 0.1-0.4zm2.3 2c-0.2-0.1-0.4 0-0.5 0.3-0.1 0.1-0.1 0.3 0 0.4 0.2 0.2 0.4 0.2 0.5 0.1 0.2-0.2 0.3-0.8 0-0.8zm1.4-2.9c0-0.1 0-0.2-0.1-0.2q-0.1 0-0.1 0c-0.1-0.1-0.2 0-0.3 0.1q-0.1 0.1-0.1 0.2c0 0.1 0 0.2 0.1 0.2q0.1 0.1 0.2 0c0.1 0.1 0.2 0 0.2-0.1q0.1-0.1 0.1-0.2zm0.8 2q0-0.2-0.2-0.2c-0.2 0-0.3 0.3-0.1 0.4 0 0.1 0.3 0 0.3-0.2zm1.9-2.3c-0.2 0-0.3 0.4-0.1 0.4 0.2 0 0.3-0.4 0.1-0.4z"/>
						</g>
						<g id="&lt;Group&gt;">
							<path id="&lt;Compound Path&gt;" fill-rule="evenodd" class="s24" d="m277.8 91.7c0 4-3.4 7.3-7.7 7.3-4.3 0-7.7-3.3-7.7-7.3 0-3.4 2.4-6.2 5.7-7.1v-5.3q0-0.2 0-0.3h-0.1c-0.2 0-0.3-0.1-0.3-0.3 0-0.1 0.1-0.3 0.3-0.3h3.9c0.1 0 0.3 0.2 0.3 0.3 0 0.2-0.2 0.3-0.3 0.3h-0.1q0.1 0.1 0.1 0.3v5.3c3.4 0.7 5.9 3.6 5.9 7.1zm-0.3 0c0-3.3-2.4-6-5.5-6.8-0.2 0-0.2 0-0.4-0.1q0-0.1 0-5.5 0-0.2 0-0.3h-3.3q0 0.1 0 0.3v5q0 0 0 0v0.6q-0.1 0-0.3 0.1c-3 0.8-5.3 3.5-5.3 6.7 0 3.8 3.3 7 7.4 7 4.1 0 7.4-3.2 7.4-7z"/>
							<path id="&lt;Path&gt;" class="s24" d="m277.2 91.5q0 0.1 0 0.1c0 3.7-3.2 6.7-7.1 6.7-3.9 0-7.1-3-7.1-6.7q0 0 0-0.1z"/>
						</g>
					</g>
					<g id="&lt;Group&gt;">
						<path id="&lt;Compound Path&gt;" fill-rule="evenodd" class="s24" d="m197.5 79.8c0 5.8-4.7 10.6-10.6 10.6-3.9 0-7.2-2.1-9.1-5.2q-0.1-0.1-0.1-0.2 0 0 0 0c-0.8-1.5-1.3-3.3-1.3-5.2 0-5.8 4.7-10.6 10.5-10.6 5.9 0 10.6 4.8 10.6 10.6zm-2.1 5.5q0 0-0.1-0.1c-0.4-0.4-0.9-0.1-1.1-0.7-0.2-0.7-0.4-1-0.7-1.6-0.5-0.9-0.2-1.5 0.5-2.1 0.9-0.7 0.6-1.6 0.3-2.6-0.2-0.4-0.8-0.8-0.8-1.4 0-0.2-0.1-0.5 0.2-0.7 0.8-0.7 1.7-1.1 1.5-2.3q0-0.1 0-0.1c-0.7-1.1-1.7-2-2.9-2.7q0 0.1-0.1 0.1c-0.7 0.2-0.1 1.9-1.4 1.7-1.2-0.2-3-2.2-4-0.8-0.7 1.1-1.3 1.2-2.4 0.6-0.5-0.2-0.9-2.6-1.6-2.3q0 0 0 0-1.5 0.7-2.6 1.7 0 0 0 0.1c-0.6 1.4 2.2 2.7 3.3 3.1 0.4 0.1 1.6 0.5 1.6 1.2 0 0.9-0.6 1.7-0.6 2.7 0 0.5-0.3 0.8-0.7 0.9-0.4 0.1-0.9-0.1-1.3-0.1-1.8 0.1-0.8 0.5-1.2 1-0.3 0.4-0.9 1-1.4 0.9-2.1-0.3-0.4 1-0.6 1.9-0.1 0.7-1 0.5-1.2 1q0.6 1 1.3 1.8 0-0.1 0.1-0.1c0.2 0 0.2 0.2 0.1 0.3 1.8 1.9 4.4 3.1 7.3 3.1 1.7 0 3.3-0.4 4.7-1.1q-0.1-0.1-0.3-0.2c-0.2-0.2-0.4-0.5-0.2-0.8 0.1-0.3 0.3-0.4 0.5-0.6 0.3-0.2 0.8-0.8 1.2-0.5 0.2 0.1 0.3 0.4 0.2 0.7q0 0.2-0.1 0.5 1.5-1 2.5-2.5z"/>
						<path id="&lt;Path&gt;" class="s24" d="m181.4 86.4c-0.2 0-0.4-0.1-0.3-0.3q0 0 0-0.1 0.1-0.1 0.3-0.1 0.1-0.1 0.2 0c0.1 0.2 0 0.5-0.2 0.5z"/>
						<path id="&lt;Path&gt;" class="s24" d="m179.5 85.6c-0.2 0-0.3 0.4-0.1 0.4 0.2 0 0.3-0.4 0.1-0.4z"/>
						<path id="&lt;Path&gt;" class="s24" d="m180.5 84.3q0.1 0.1 0 0.2c-0.1 0.1-0.3 0.2-0.4 0.1q-0.1-0.2 0-0.4c0-0.1 0.1-0.3 0.3-0.2 0.1 0 0.2 0.2 0.1 0.3z"/>
						<path id="&lt;Path&gt;" class="s24" d="m181.2 82.2c-0.1 0-0.2 0.2-0.1 0.2 0.1 0 0.2-0.2 0.1-0.2z"/>
						<path id="&lt;Path&gt;" class="s24" d="m193.5 80.2q0 0 0 0 0 0.1-0.1 0.1 0 0-0.1 0c0 0 0-0.1 0-0.1q0 0 0 0c0.1-0.2 0.3-0.2 0.2 0z"/>
						<path id="&lt;Path&gt;" class="s24" d="m193.6 78.5c0 0.1-0.2 0.2-0.3 0.2-0.2 0-0.3-0.1-0.2-0.3 0-0.1 0.1-0.2 0.3-0.2 0.2 0 0.2 0.1 0.2 0.3z"/>
						<path id="&lt;Path&gt;" class="s24" d="m192.1 76.4c-0.2 0-0.3 0.4-0.1 0.4 0.2 0 0.3-0.4 0.1-0.4z"/>
						<path id="&lt;Path&gt;" class="s24" d="m192.8 75.2c-0.2 0-0.3 0.4-0.1 0.4 0.2 0 0.3-0.4 0.1-0.4z"/>
					</g>
					<g id="&lt;Group&gt;">
						<path id="&lt;Compound Path&gt;" fill-rule="evenodd" class="s24" d="m280.8 18.2c-0.1 0.7-0.1 2.6-1.2 2.4q-0.1 0-0.1 0-0.2 0.1-0.4 0.1c-1.1 4.1-4.8 7.1-9.1 7.1-5.2 0-9.4-4.2-9.4-9.4 0-2.5 1-4.8 2.6-6.5q0-0.5-0.2-0.9c0-0.1-0.2-0.3-0.3-0.5-0.1-0.5 0.4-1 0.7-1.2 0.5-0.3 1-0.7 1.5-0.9 0.3-0.1 0.8-0.2 1.1-0.1q0 0 0 0 0 0 0 0 0 0 0 0 0.1 0 0.1 0c0.5 0.3 0.9 0.8 1.4 1q0.1 0 0.2 0 1.1-0.2 2.3-0.2c3.8 0 7.1 2.2 8.5 5.5q0.3 0 0.6-0.1c1.7-0.6 1.7 2.8 1.7 3.7zm-17.7-8c0.6 0 1.1-0.3 1.6-0.6 0.2-0.2 0.5-0.3 0.7-0.5 0.1-0.1 0.5-0.6 0-0.5-0.6 0.2-1.1 0.5-1.5 0.8-0.2 0.1-1.1 0.6-0.8 0.8zm15.8 10q-0.1-0.2-0.2-0.3-0.3 0-0.7 0.1c-0.3 0.1-0.5 0.3-0.7 0.4-0.1 0-0.1-0.1-0.1-0.1 0.3-0.1 0.5-0.3 0.8-0.4 0.2-0.1 0.4-0.2 0.6-0.2-0.1-0.4-0.2-0.7-0.3-0.9-0.2-1.2-0.2-2.3 0.2-3.5q0 0 0-0.1-0.1-0.2-0.1-0.4-0.3 0.1-0.6 0.1c-1 0-2.2-0.1-3-0.8 0 0 0-0.1 0 0 1 0.8 2.3 0.7 3.5 0.6-1.5-3.1-4.6-5.3-8.3-5.3q-0.9 0-1.7 0.2 0.4 0.1 0.8 0.1c-0.7 0-1.5-0.1-2.1-0.5q-0.5-0.3-0.9-0.6c-0.2 0.5-1.1 1-1.4 1.2-0.5 0.3-0.9 0.6-1.4 0.6-0.3 0-0.2 0.1-0.3 0.1q0.3 0.4 0.4 0.8c0.1 1-0.1 1.9-0.6 2.6q-0.1 0 0-0.1c0.3-0.4 0.4-1 0.5-1.5-1.6 1.6-2.5 3.7-2.5 6.1 0 4.9 4.1 8.9 9.2 8.9 4.1 0 7.7-2.7 8.8-6.5-1.3 0.4-2.6 1-3.2 2.3-0.1 0.1-0.2 0.1-0.2 0 0.3-0.8 1-1.4 1.7-1.9 0.6-0.4 1.1-0.5 1.7-0.6q0.1-0.2 0.1-0.4zm0.3-5.5q-0.2 0.2-0.4 0.4-0.2 0.3-0.2 0.5 0 0.1-0.1 0.2 0 0.1 0 0.1 0 0 0 0.1c-0.1 0.9 0 2.1 0.2 2.6 0 0 0.1 0.4 0.3 0.8q0.2 0.3 0.3 0.5c0.3 0.4 0.6 0.6 0.8 0.1q0.1-0.4 0.2-0.8c0.1-0.9 0.4-4.7-1.1-4.5zm-0.5 3.9q0 0 0 0 0 0 0 0z"/>
						<path id="&lt;Compound Path&gt;" fill-rule="evenodd" class="s24" d="m268.1 25.2c-0.5 0-0.8 0-1.2 0.2-0.2 0.1-0.4 0.3-0.6 0.3-0.3 0.3-1 0.1-1.3 0q-0.1-0.1-0.1-0.1c-0.6-0.2-1-0.7-1.4-1.2-0.2-0.3-0.7-0.8-0.7-1.2-0.1-0.8 0-1.4-0.6-2.1 0-0.1 0.1-0.2 0.2-0.1 0.3 0.3 0.5 0.6 0.6 1q0 0.1 0 0.2 0.1 0.2 0.1 0.3 0 0.1 0 0.1 0.1 0 0.2-0.1 0.1 0 0.2 0.1 0-0.1 0-0.2 0-0.1 0.1-0.3c0-0.1 0.1-0.1 0.1 0q-0.1 0.2-0.1 0.4 0.1 0.1 0.1 0.1c0.3 0.1 0.7 0.5 0.9 0.7q0.3 0.2 0.7 0.5c0.1 0 0.2-0.1 0.3-0.2 0 0 0.1 0 0 0.1q0 0.1-0.2 0.2 0.2 0.2 0.3 0.3 0 0 0.1 0c0 0 0.1 0 0 0.1q0 0 0 0c0.3 0.3 0.5 0.7 0.6 1q0 0 0 0.1c0.1-0.1 0.3-0.2 0.5-0.3 0.4-0.1 0.8-0.1 1.2-0.1 0.1 0 0 0.2 0 0.2zm-2.1-0.1c-0.3-0.4-0.7-0.8-1.1-1.1-0.3-0.3-1.5-1.5-1.8-0.9q0 0 0 0c0.3 0.7 0.7 1.3 1.3 1.8 0.3 0.2 0.6 0.5 0.9 0.6q0.1 0 0.1 0.1 0.2 0 0.4 0c0.3 0 0.4-0.2 0.2-0.5z"/>
						<path id="&lt;Path&gt;" class="s24" d="m277.7 17.4c-0.5 0.1-1.1 0-1.7 0 0 0 0-0.1 0.1-0.1 0.5 0 1 0 1.6 0 0.1-0.1 0.1 0.1 0 0.1z"/>
						<path id="&lt;Path&gt;" class="s24" d="m277.4 16.8q-0.2 0.1-0.4 0c-0.1 0-0.1-0.1 0-0.1q0.2 0 0.4 0c0.1 0 0.1 0.1 0 0.1z"/>
						<path id="&lt;Path&gt;" class="s24" d="m264.6 12.2c0 0.1-0.1 0.1-0.1 0.1-0.1-0.3-0.1-0.7-0.2-1-0.1-0.2-0.2-0.5-0.4-0.8 0 0 0.1-0.1 0.2-0.1 0.4 0.6 0.4 1.2 0.5 1.8z"/>
						<path id="&lt;Path&gt;" class="s24" d="m265 11.6c-0.2-0.2-0.3-0.4-0.3-0.6-0.1 0 0-0.1 0 0q0.1 0.1 0.2 0.2 0.1 0.2 0.1 0.3c0.1 0 0 0.1 0 0.1z"/>
						<path id="&lt;Compound Path&gt;" fill-rule="evenodd" class="s24" d="m273.2 17c-0.3 0-0.5 0.2-0.7 0.3q-0.1 0-0.2 0.1c0.1 0.8-0.3 2-1 2.4-0.4 0.2-0.9 0.2-1.3 0.2 0 0.3-0.1 0.6 0 1 0 0.3 0.1 0.6 0.2 0.8 0.1 0.1 0 0.2-0.1 0.2-0.2-0.3-0.3-0.8-0.4-1.2-0.1-0.3 0-0.6 0.1-0.9-0.3-0.1-0.6-0.3-0.8-0.6q-0.2 0.2-0.3 0.3-0.2 0.2-0.4 0.4c-0.1 0-0.1 0-0.1-0.1 0.2-0.1 0.4-0.3 0.5-0.4q0.1-0.1 0.2-0.2-0.1-0.2-0.1-0.4-0.2-0.5-0.1-0.9c0.1-0.7 0.4-1.3 1-1.7q0 0 0 0c0.7-0.5 1.5-0.5 2.1-0.1q0-0.1 0.1-0.2 0.2-0.3 0.4-0.5c0 0 0.1 0 0 0.1q-0.2 0.2-0.3 0.5-0.1 0.1-0.1 0.2 0.3 0.3 0.4 0.8 0 0 0 0.1 0.1-0.1 0.1-0.1c0.3-0.1 0.5-0.2 0.8-0.2 0.1 0 0 0.1 0 0.1zm-1.7 2.2c-0.3 0.3-0.7 0.6-1.1 0.6q-0.2 0-0.5-0.1c0.4 0.1 0.8 0.1 1.1-0.1q0.3-0.1 0.5-0.4zm0.4-1.6c0-1.1-0.9-1.7-1.8-1.3-0.4 0.3-0.7 0.6-0.9 1.1-0.3 0.6-0.3 1-0.1 1.5 0.3 0.4 0.7 0.7 1.2 0.7 0.7 0 1.2-0.4 1.5-1q0.2-0.5 0.1-1z"/>
						<path id="&lt;Path&gt;" class="s24" d="m263.4 18.4c-0.4 0.2-0.6-0.2-0.7-0.5-0.1-0.3-0.3-1.7 0.3-1.7 0 0 0 0.1 0 0.1-0.4 0.1-0.2 1-0.2 1.2 0.1 0.2 0.4 0.9 0.6 0.4q0-0.1 0.1-0.3c0-0.1 0.2-0.1 0.2 0 0 0.3-0.1 0.6-0.3 0.8z"/>
						<path id="&lt;Compound Path&gt;" class="s24" d="m273 24.3c-0.2 0.2-0.7 0.6-1 0.2q-0.1-0.1 0-0.3c0-0.4 0.4-0.6 0.8-0.6 0.1 0 0.4 0 0.4 0.2 0 0.2-0.1 0.4-0.2 0.5z"/>
						<path id="&lt;Compound Path&gt;" fill-rule="evenodd" class="s24" d="m274.9 12.1c-0.1 0-0.3-0.3-0.3-0.3q-0.2-0.3-0.4-0.5c-0.1 0.1-0.5 0.1-0.6 0.1-0.4-0.1-0.8-0.3-1.2-0.5q0-0.1-0.1-0.1-0.1 0.1-0.2 0.1c0 0 0 0 0-0.1q0.1 0 0.1-0.1-0.1 0-0.1-0.1c-0.4 0.2-0.8 0.5-1.2 0.5 0 0 0 0 0 0 0.2-0.1 0.5-0.2 0.7-0.3 0.1-0.1 0.3-0.2 0.4-0.3q-0.1-0.1-0.1-0.2 0-0.2 0-0.3c-0.5 0.1-1.1 0.4-1.6 0.1-0.1 0 0-0.1 0-0.1 0.5 0.3 1.2 0 1.7-0.1 0.2-0.2 0.6-0.2 0.8 0 0.5 0.1 1.1 0.5 1.5 0.9q0 0 0 0 0 0 0 0.1 0.1 0 0.1 0.1c0.1 0.2 0.1 0.5 0.3 0.7q0.1 0.1 0.2 0.3 0 0.1 0 0.1zm-0.8-1.2q-0.1-0.1-0.3-0.2-0.2-0.2-0.5-0.4-0.4-0.2-0.8-0.3c-0.2 0-0.4 0.1-0.2 0.4q0.2 0.2 0.4 0.3c0.3 0.2 0.7 0.5 1.1 0.5q0.2 0 0.3-0.3z"/>
						<path id="&lt;Path&gt;" class="s24" d="m272.9 12.5c0 0.1-0.2 0.1-0.2 0q0 0 0-0.1c-0.1 0 0-0.1 0-0.1 0.1-0.2 0.3-0.1 0.2 0.2z"/>
						<path id="&lt;Path&gt;" class="s24" d="m273.1 12.5c-0.1 0-0.1 0.1 0 0.1 0.1 0 0.2-0.1 0-0.1z"/>
						<path id="&lt;Path&gt;" class="s24" d="m275.4 13.3c-0.2 0.2-0.3-0.4 0-0.4q0 0 0 0 0.1 0 0.1 0c0.2 0.1 0.1 0.4-0.1 0.4z"/>
						<path id="&lt;Path&gt;" class="s24" d="m276 12.8c-0.1 0-0.2 0.3 0 0.3 0.1 0 0.2-0.3 0-0.3z"/>
						<path id="&lt;Path&gt;" class="s24" d="m262.5 19.6c-0.1 0.1-0.1 0-0.1-0.1q0 0 0 0c0-0.1 0.1-0.2 0.1-0.1 0.1 0 0.1 0.2 0 0.2z"/>
						<path id="&lt;Path&gt;" class="s24" d="m262.8 19.3c-0.1 0-0.1 0.1 0 0.1 0 0 0-0.1 0-0.1z"/>
						<path id="&lt;Path&gt;" class="s24" d="m262.6 20.1q-0.1 0.1-0.1 0.1 0 0 0 0-0.1 0.1-0.2 0 0 0 0 0 0-0.2 0.1-0.3c0.1 0 0.2 0.1 0.2 0.2z"/>
						<path id="&lt;Path&gt;" class="s24" d="m262.5 14.6c0 0.1-0.3 0.5-0.4 0.3q-0.1-0.1-0.1-0.2 0-0.1 0.1-0.2c0-0.1 0.2-0.2 0.3-0.2 0.1 0.1 0.1 0.2 0.1 0.3z"/>
						<path id="&lt;Path&gt;" class="s24" d="m262.8 14.6q0 0 0 0.1c-0.1 0-0.2 0-0.2-0.1q0 0 0.1 0 0 0 0 0c0-0.1 0.1-0.1 0.1 0z"/>
						<path id="&lt;Path&gt;" class="s24" d="m261.7 16.3q-0.1 0-0.1-0.1 0 0 0 0 0-0.1 0-0.1 0 0 0 0 0.1 0 0.1 0c0 0.1 0 0.1 0 0.2z"/>
						<path id="&lt;Path&gt;" class="s24" d="m274.7 22.4c0 0.2-0.3 0.5-0.5 0.4-0.1-0.1-0.1-0.2 0-0.3q0 0 0 0 0-0.2 0.2-0.3c0.2 0 0.3 0 0.3 0.2z"/>
						<path id="&lt;Path&gt;" class="s24" d="m274.9 22.4q0 0 0 0c-0.1 0-0.1-0.2 0-0.2q0 0 0.1 0c0.1-0.1 0.1 0.2-0.1 0.2z"/>
						<path id="&lt;Path&gt;" class="s24" d="m275.1 22.9q0 0 0 0-0.1 0-0.1 0 0-0.1 0-0.1 0 0 0-0.1c0.1 0 0.2 0.1 0.1 0.2z"/>
					</g>
					<g id="&lt;Group&gt;">
						<g id="&lt;Group&gt;">
							<path id="&lt;Path&gt;" class="s24" d="m278 59.2l-0.2 0.4-0.8-0.3 0.3-0.4z"/>
							<path id="&lt;Path&gt;" class="s24" d="m279 59.5l-0.3 0.4-0.7-0.3 0.2-0.4z"/>
							<path id="&lt;Path&gt;" class="s24" d="m277.1 58.8l-0.3 0.4-0.7-0.3 0.2-0.4z"/>
							<path id="&lt;Path&gt;" class="s24" d="m276.2 58.3l-0.4-0.2 0.5-0.7 0.4 0.2z"/>
							<path id="&lt;Path&gt;" class="s24" d="m277.4 56.5l-0.4-0.2 0.5-0.8 0.5 0.1z"/>
							<path id="&lt;Path&gt;" class="s24" d="m278.1 55.5l-0.5-0.2 0.5-0.7 0.5 0.2z"/>
							<path id="&lt;Path&gt;" class="s24" d="m276.8 57.4l-0.4-0.2 0.5-0.7 0.4 0.1z"/>
							<path id="&lt;Path&gt;" class="s24" d="m280 59.9l-0.3 0.4-0.8-0.3 0.3-0.4z"/>
							<path id="&lt;Path&gt;" class="s24" d="m276.4 58.4l0.5-0.8 0.8 0.3-0.5 0.8z"/>
							<path id="&lt;Path&gt;" class="s24" d="m284.8 61.7l-0.3 0.4-0.8-0.3 0.3-0.4z"/>
							<path id="&lt;Path&gt;" class="s24" d="m277 57.5l0.5-0.8 0.8 0.3-0.5 0.8z"/>
							<path id="&lt;Path&gt;" class="s24" d="m283.8 61.3l-0.3 0.4-0.8-0.3 0.3-0.4z"/>
							<path id="&lt;Path&gt;" class="s24" d="m281.9 60.6l-0.3 0.4-0.8-0.3 0.3-0.4z"/>
							<path id="&lt;Path&gt;" class="s24" d="m280.9 60.2l-0.2 0.4-0.8-0.3 0.2-0.3z"/>
							<path id="&lt;Path&gt;" class="s24" d="m282.8 61l-0.2 0.4-0.8-0.3 0.2-0.4z"/>
							<path id="&lt;Path&gt;" class="s24" d="m281.8 55.3l-0.3 0.4-0.7-0.3 0.2-0.4z"/>
							<path id="&lt;Path&gt;" class="s24" d="m278.7 54.6l-0.5-0.1 0.3-0.5 0.4 0.2z"/>
							<path id="&lt;Path&gt;" class="s24" d="m280.9 54.9l-0.3 0.4-0.8-0.2 0.3-0.5z"/>
							<path id="&lt;Path&gt;" class="s24" d="m279.9 54.6l-0.3 0.4-0.8-0.3 0.3-0.4z"/>
							<path id="&lt;Path&gt;" class="s24" d="m277.6 56.6l0.6-0.9 0.8 0.3-0.6 0.8z"/>
							<path id="&lt;Path&gt;" class="s24" d="m276.1 58.5l-0.2 0.3-0.5-0.1 0.3-0.4z"/>
							<path id="&lt;Path&gt;" class="s24" d="m282.2 60.5l0.4-0.7 0.8 0.3-0.5 0.7z"/>
							<path id="&lt;Path&gt;" class="s24" d="m283.1 58.8l-0.5 0.8-0.8-0.3 0.5-0.8z"/>
							<path id="&lt;Path&gt;" class="s24" d="m283.9 59.5l-0.3 0.4-0.8-0.3 0.5-0.8q0.3 0.4 0.6 0.7z"/>
							<path id="&lt;Path&gt;" class="s24" d="m281.2 60.2l0.5-0.8 0.8 0.3-0.5 0.8z"/>
							<path id="&lt;Path&gt;" class="s24" d="m279.5 55.1l-0.4 0.7-0.8-0.3 0.4-0.6z"/>
							<path id="&lt;Path&gt;" class="s24" d="m283.1 60.9l0.5-0.8 0.8 0.3-0.5 0.8z"/>
							<path id="&lt;Path&gt;" class="s24" d="m284.5 60.2l-0.8-0.3 0.3-0.3q0.3 0.3 0.5 0.6z"/>
							<path id="&lt;Path&gt;" class="s24" d="m281.2 58.1l-0.5 0.7-0.8-0.3 0.5-0.7z"/>
							<path id="&lt;Path&gt;" class="s24" d="m280.9 56.7l-0.6 0.9-0.8-0.3 0.6-0.9z"/>
							<path id="&lt;Path&gt;" class="s24" d="m278.3 59.1l0.5-0.8 0.8 0.3-0.5 0.8z"/>
							<path id="&lt;Path&gt;" class="s24" d="m278.9 58.2l0.5-0.8 0.8 0.3-0.5 0.8z"/>
							<path id="&lt;Path&gt;" class="s24" d="m280.5 55.5l-0.5 0.7-0.8-0.3 0.5-0.7z"/>
							<path id="&lt;Path&gt;" class="s24" d="m279.9 56.4l-0.6 0.8-0.7-0.3 0.5-0.8z"/>
							<path id="&lt;Path&gt;" class="s24" d="m277.4 58.7l0.5-0.7 0.7 0.3-0.4 0.7z"/>
							<path id="&lt;Path&gt;" class="s24" d="m282.1 58.4l-0.5 0.8-0.8-0.3 0.5-0.8z"/>
							<path id="&lt;Path&gt;" class="s24" d="m279.2 57.4l-0.5 0.7-0.7-0.3 0.5-0.7z"/>
							<path id="&lt;Path&gt;" class="s24" d="m280.2 59.8l0.5-0.7 0.8 0.3-0.5 0.7z"/>
							<path id="&lt;Path&gt;" class="s24" d="m281.8 57.1l-0.5 0.8-0.8-0.3 0.5-0.8z"/>
							<path id="&lt;Path&gt;" class="s24" d="m281.4 55.9l-0.4 0.7-0.8-0.3 0.4-0.7z"/>
							<path id="&lt;Path&gt;" class="s24" d="m279.3 59.4l0.5-0.7 0.8 0.3-0.5 0.7z"/>
							<path id="&lt;Path&gt;" class="s24" d="m289.2 63.1l0.3-0.4 1 0.3-0.3 0.5z"/>
							<path id="&lt;Path&gt;" class="s24" d="m290.4 63.6l0.3-0.5 1 0.4-0.3 0.4z"/>
							<path id="&lt;Path&gt;" class="s24" d="m288.1 62.7l0.3-0.5 0.9 0.4-0.3 0.4z"/>
							<path id="&lt;Path&gt;" class="s24" d="m287.7 61.7l0.6-0.9 0.6 0.2-0.6 0.9z"/>
							<path id="&lt;Path&gt;" class="s24" d="m289.2 59.5l0.7-1.1 0.6 0.2-0.7 1.1z"/>
							<path id="&lt;Path&gt;" class="s24" d="m291.1 57.6l-0.5 0.8-0.6-0.2 0.6-0.8z"/>
							<path id="&lt;Path&gt;" class="s24" d="m288.4 60.6l0.7-0.9 0.5 0.2-0.6 0.9z"/>
							<path id="&lt;Path&gt;" class="s24" d="m291.6 64l0.3-0.5 1 0.4-0.3 0.5z"/>
							<path id="&lt;Path&gt;" class="s24" d="m288.5 62l0.6-0.9 1 0.4-0.6 0.9z"/>
							<path id="&lt;Path&gt;" class="s24" d="m298.5 66.6l-1-0.3 0.3-0.5 1 0.3z"/>
							<path id="&lt;Path&gt;" class="s24" d="m289.2 60.9l0.6-0.9 1 0.3-0.6 1z"/>
							<path id="&lt;Path&gt;" class="s24" d="m297.6 65.7l-0.3 0.5-1-0.4 0.3-0.5z"/>
							<path id="&lt;Path&gt;" class="s24" d="m295.2 64.8l-0.3 0.5-0.9-0.4 0.3-0.5z"/>
							<path id="&lt;Compound Path&gt;" fill-rule="evenodd" class="s24" d="m293.1 64.7c-1.6 1.1-3.5 1-4.4 0l-3.5-3.7-0.3 0.5-0.8-0.3 0.5-0.7 0.3 0.1-2-2.1-0.5-0.2 0.1-0.2-0.1-0.1-0.2 0.3-0.8-0.3 0.6-0.8q-0.1-0.2-0.1-0.3l-0.8-0.3 0.5-0.7 0.4 0.2q0-0.1 0-0.2l-0.3-0.1 0.3-0.5 0.2 0.1q0.2-0.5 0.6-0.9-0.4-0.3-0.6-0.8c-0.4-0.9-0.1-2 0.7-2.9 0.3-0.7 0.5-1.5 1-2.1q-0.1 0-0.1 0 0-0.1 0-0.1-0.1-0.1-0.1-0.2c0-0.1 0.1-0.1 0.1-0.1q0.1 0.1 0.1 0.2 0.1 0.1 0.1 0.1 1 0.4 1.9 0.7c1.3-0.1 2.4 0.4 2.9 1.4 0.4 0.9 0.1 2-0.7 2.9q0.1 0 0.1 0.1l2.9 3 0.5 0.2-0.3 0.5-0.6-0.2 0.3-0.4q0 0-0.1 0l-1.3-1.4c0.4 1.5-1.2 2.8-2.4 3.5q0 0 0 0c0.7-0.4 1.4-1 1.8-1.8 0.4-0.6 0.5-1.1 0.5-1.8l-1-1c0.4 1.1-0.3 2.7-1.8 3.6-1.2 0.8-2.5 1-3.5 0.6l1 1q0 0 0.1 0.1c0.1 0.1 0.5 0.1 0.7 0q-0.4-0.4-0.8-0.8c0-0.1 0-0.1 0.1 0q0.4 0.4 0.8 0.8 0 0 0 0c0.4 0 0.8-0.2 1.1-0.3 0.1 0 0.1 0 0.1 0-0.4 0.2-0.8 0.3-1.1 0.4 0.7 0.6 1.4 1.3 2.1 2 0 0-0.1 0.1-0.1 0.1-0.6-0.5-1.1-1.1-1.6-1.6q-0.3-0.3-0.5-0.5-0.2 0-0.3 0c-0.1 0.1-0.3 0.1-0.4 0l4 4.2c0.1 0.3 0.3 0.5 0.5 0.7q0.1 0.1 0.2 0.2c0.9 0.8 2.6 0.8 4-0.1q0-0.1 0.1-0.1l-0.4-0.1 0.3-0.5 1 0.4-0.4 0.4-0.5-0.2q0 0.1-0.1 0.1zm-7-15.3q0.3 0.1 0.6 0.3 0.8 0.3 1.7 0.6 0 0 0 0c-0.5-0.6-1.4-0.9-2.3-0.9zm-1.5 0.3q0.2 0.3 0.4 0.6 0.4-0.2 0.8-0.3c0 0 0.1 0.1 0 0.1q-0.4 0.1-0.8 0.3 0.4 0.5 0.7 1.1 0.5 0.9 1 1.8c0.7-0.5 1.8-1.4 1.3-2.3 0 0 0 0 0.1 0 0.5 0.9-0.5 1.9-1.3 2.5q0.2 0.4 0.5 0.7c1.3-0.8 1.9-2.3 1.4-3.4q-0.1-0.1-0.2-0.3 0 0 0 0c-0.1 0-0.4-0.1-0.5-0.2q-0.3-0.1-0.6-0.2-0.6-0.2-1.2-0.5-0.2-0.1-0.5-0.2-0.5 0.1-1.1 0.3zm-0.6-0.9q0.3 0.4 0.6 0.9 0.5-0.2 1-0.3-0.8-0.3-1.6-0.6zm0.4 0.9q0 0 0 0-0.2-0.3-0.4-0.7 0 0.3 0.1 0.5 0 0.2 0 0.4 0.1-0.1 0.3-0.2zm-1.2 0.8q0.4-0.3 0.8-0.6c0-0.2-0.1-0.3-0.1-0.5q0-0.3 0-0.6-0.3 0.9-0.7 1.7zm-1 2.6c0.1-0.7 0.4-1.4 0.6-2.1-0.4 0.7-0.7 1.4-0.6 2.1zm4.4 1.5q0.3-0.1 0.6-0.3-0.3-0.4-0.5-0.8 0 0 0 0c-1 0.6-2.2 1.1-3.3 0.6-0.1 0-0.1 0 0 0 1.1 0.2 2.2 0 3.2-0.7q0 0 0 0-0.6-1-1.2-2.1-0.2-0.4-0.5-0.9c-0.8 0.4-1.4 1-1.6 1.7 0 0.1-0.1 0.1-0.1 0 0.1-0.8 0.8-1.4 1.6-1.7q-0.2-0.3-0.3-0.6-0.1 0-0.1 0-0.1 0.1-0.3 0.2 0 0 0 0-0.5 0.3-1 0.7-0.1 0.2-0.1 0.5c-0.3 0.7-0.6 1.5-0.7 2.3q0.1 0.1 0.1 0.1c0.6 1.4 2.5 1.8 4.2 1z"/>
							<path id="&lt;Path&gt;" class="s24" d="m296.4 65.2l-0.3 0.5-1-0.3 0.4-0.5z"/>
							<path id="&lt;Path&gt;" class="s24" d="m293.9 58.4l0.3-0.6 1 0.4-0.4 0.5z"/>
							<path id="&lt;Path&gt;" class="s24" d="m301 61l0.3-0.5 0.9 0.3-0.3 0.6z"/>
							<path id="&lt;Path&gt;" class="s24" d="m298.6 60.2l0.4-0.6 0.9 0.4-0.3 0.5z"/>
							<path id="&lt;Path&gt;" class="s24" d="m299.8 60.6l0.3-0.6 1 0.4-0.4 0.6z"/>
							<path id="&lt;Path&gt;" class="s24" d="m300.8 61.2l0.9 0.4-0.6 0.9-0.9-0.3z"/>
							<path id="&lt;Path&gt;" class="s24" d="m298.6 64.7l0.9 0.3-0.5 1-1-0.4z"/>
							<path id="&lt;Path&gt;" class="s24" d="m299.3 63.5l1 0.4-0.6 0.9-1-0.3z"/>
							<path id="&lt;Path&gt;" class="s24" d="m300.1 62.4l0.9 0.3-0.6 1-0.9-0.4z"/>
							<path id="&lt;Path&gt;" class="s24" d="m297.4 59.7l0.4-0.5 0.9 0.3-0.3 0.6z"/>
							<path id="&lt;Path&gt;" class="s24" d="m292.7 57.9l0.3-0.5 1 0.4-0.4 0.5z"/>
							<path id="&lt;Path&gt;" class="s24" d="m291.5 57.5l0.3-0.5 1 0.3-0.3 0.5z"/>
							<path id="&lt;Path&gt;" class="s24" d="m291.6 59.1l-0.7 1-0.9-0.3 0.7-1.1z"/>
							<path id="&lt;Path&gt;" class="s24" d="m296.2 59.3l0.4-0.6 0.9 0.4-0.3 0.5z"/>
							<path id="&lt;Path&gt;" class="s24" d="m295 58.8l0.4-0.5 1 0.3-0.4 0.6z"/>
							<path id="&lt;Path&gt;" class="s24" d="m287.3 62.4l0.3-0.5 0.5 0.2-0.3 0.5z"/>
							<path id="&lt;Path&gt;" class="s24" d="m298.2 60.3l-0.6 0.9-0.9-0.4 0.6-0.9z"/>
							<path id="&lt;Path&gt;" class="s24" d="m296.3 60.9l-0.6 1-1-0.3 0.7-1.1z"/>
							<path id="&lt;Path&gt;" class="s24" d="m295.6 64.7l0.6-0.9 1 0.3-0.6 1z"/>
							<path id="&lt;Path&gt;" class="s24" d="m295.1 63.1l0.7-0.9 0.9 0.3-0.6 1z"/>
							<path id="&lt;Path&gt;" class="s24" d="m297.1 59.8l-0.6 0.9-1-0.3 0.6-0.9z"/>
							<path id="&lt;Path&gt;" class="s24" d="m296.3 63.6l0.7-1 0.9 0.4-0.6 0.9z"/>
							<path id="&lt;Path&gt;" class="s24" d="m294.4 64.2l0.6-0.9 1 0.4-0.6 0.9z"/>
							<path id="&lt;Path&gt;" class="s24" d="m297.5 61.4l-0.6 1-1-0.4 0.7-1z"/>
							<path id="&lt;Path&gt;" class="s24" d="m300.6 61.2l-0.6 0.9-1-0.4 0.6-0.9z"/>
							<path id="&lt;Path&gt;" class="s24" d="m292.3 58l-0.5 0.9-1-0.4 0.6-0.8z"/>
							<path id="&lt;Path&gt;" class="s24" d="m299.9 62.3l-0.7 0.9-0.9-0.3 0.6-1z"/>
							<path id="&lt;Path&gt;" class="s24" d="m296.8 65.1l0.6-0.9 0.9 0.4-0.6 0.9z"/>
							<path id="&lt;Path&gt;" class="s24" d="m299.4 60.7l-0.6 0.9-0.9-0.3 0.6-1z"/>
							<path id="&lt;Path&gt;" class="s24" d="m297.5 64l0.6-0.9 1 0.3-0.6 1z"/>
							<path id="&lt;Path&gt;" class="s24" d="m297.1 62.4l0.6-0.9 1 0.3-0.7 1z"/>
							<path id="&lt;Path&gt;" class="s24" d="m292.8 62.2l0.6-0.9 1 0.4-0.7 0.9z"/>
							<path id="&lt;Path&gt;" class="s24" d="m294 60l-0.7 1-1-0.3 0.7-1.1z"/>
							<path id="&lt;Path&gt;" class="s24" d="m290.9 62.9l0.6-0.9 0.9 0.4-0.6 0.9z"/>
							<path id="&lt;Path&gt;" class="s24" d="m291.6 61.8l0.6-0.9 1 0.3-0.6 1z"/>
							<path id="&lt;Path&gt;" class="s24" d="m293.5 58.5l-0.6 0.9-0.9-0.4 0.5-0.9z"/>
							<path id="&lt;Path&gt;" class="s24" d="m292.8 59.6l-0.7 1-0.9-0.4 0.6-1z"/>
							<path id="&lt;Path&gt;" class="s24" d="m289.7 62.5l0.6-0.9 0.9 0.3-0.6 0.9z"/>
							<path id="&lt;Path&gt;" class="s24" d="m294.9 63l-0.9-0.3 0.6-1 0.9 0.4z"/>
							<path id="&lt;Path&gt;" class="s24" d="m292 60.8l-0.6 0.9-1-0.3 0.6-1z"/>
							<path id="&lt;Path&gt;" class="s24" d="m295.9 59.4l-0.6 0.9-1-0.4 0.6-0.9z"/>
							<path id="&lt;Path&gt;" class="s24" d="m294.2 64.2l-1-0.4 0.6-0.9 1 0.3z"/>
							<path id="&lt;Path&gt;" class="s24" d="m295.2 60.5l-0.7 1-1-0.4 0.7-1z"/>
							<path id="&lt;Path&gt;" class="s24" d="m294.7 58.9l-0.6 0.9-0.9-0.4 0.5-0.8z"/>
							<path id="&lt;Path&gt;" class="s24" d="m292 63.4l0.6-1 1 0.4-0.6 0.9z"/>
						</g>
						<path id="&lt;Path&gt;" class="s24" d="m286.2 58.5c0-0.1-0.2-0.1-0.1 0 0 0.1 0.2 0 0.1 0z"/>
						<path id="&lt;Path&gt;" class="s24" d="m286.6 59q-0.1 0-0.1-0.1 0 0 0 0c0 0 0-0.1 0-0.1 0.1 0 0.2 0.1 0.1 0.1q0 0.1 0 0.1z"/>
						<path id="&lt;Path&gt;" class="s24" d="m287 59.5c0 0 0 0 0-0.1 0.1 0 0.1 0 0.1 0.1q0 0 0 0c0.1 0 0 0.1-0.1 0z"/>
						<path id="&lt;Path&gt;" class="s24" d="m287.8 60.1c-0.1-0.1-0.2 0-0.2 0 0.1 0.1 0.2 0.1 0.2 0z"/>
						<path id="&lt;Path&gt;" class="s24" d="m288.2 60.7c0-0.1-0.1 0-0.1 0 0 0.1 0.2 0.1 0.1 0z"/>
						<path id="&lt;Path&gt;" class="s24" d="m291.1 64c0-0.1-0.2 0-0.2 0.1 0.1 0.1 0.3 0.1 0.2-0.1z"/>
						<path id="&lt;Path&gt;" class="s24" d="m291.8 64.7c0 0-0.2 0-0.1 0.1 0 0 0.1 0 0.1-0.1z"/>
					</g>
					<g id="&lt;Group&gt;">
						<path id="&lt;Compound Path&gt;" fill-rule="evenodd" class="s24" d="m240.4 21.3c2.5 3 3.5 5.8 2.3 7.4-0.5 0.8-1.6 1.3-3.1 1.3-1 0-2.1-0.2-3.4-0.6-1 3-2.6 4.9-4.3 4.9-1.9 0-3.5-2.1-4.5-5.4q-1.8 0.5-3.3 0.5c-1.8 0-3-0.5-3.6-1.5-0.8-1.3-0.3-3.3 1.3-5.5q0.7-0.9 1.5-1.7-0.8-0.9-1.3-1.9c-1.5-2.3-1.9-4.3-1-5.5 0.6-0.8 1.7-1.3 3.1-1.3 1 0 2.2 0.2 3.4 0.6 1-3 2.6-4.9 4.4-4.9 1.8 0 3.5 2.1 4.5 5.4q1.8-0.5 3.2-0.5c1.8 0 3.1 0.5 3.7 1.5 0.8 1.3 0.3 3.3-1.4 5.5q-0.6 0.9-1.5 1.7zm-3.9-7.7c0.4 1.3 0.7 2.9 0.8 4.6q1.6 1.3 2.8 2.7 0.8-0.8 1.4-1.6c1.5-2 2-3.8 1.3-4.9-0.6-1.1-2-1.3-3.2-1.3q-1.4 0-3.1 0.5zm0.3 10.2q0.1-1.4 0.1-2.8 0-1.3-0.1-2.5-0.9-0.9-2-1.6-1.4-1-2.7-1.7-1.4 0.6-2.8 1.5-1.2 0.7-2.3 1.5-0.2 1.4-0.2 2.8 0 1.3 0.1 2.6 1 0.8 2.1 1.5 1.3 1 2.7 1.7 1.4-0.6 2.8-1.5 1.2-0.7 2.3-1.5zm-2.1 2q-1.2 0.7-2.5 1.3 1.9 1 3.7 1.6c0.3-1.2 0.6-2.7 0.8-4.2q-0.9 0.6-2 1.3zm-6-0.3q-0.9-0.6-1.7-1.2 0.2 2.2 0.8 4 1.6-0.5 3.3-1.2-1.2-0.7-2.4-1.6zm-2.4-4.5q0-1.2 0.1-2.4-1.3 1-2.4 2.1 1.1 1.2 2.4 2.4-0.1-1-0.1-2.1zm2.7-4.8q1.3-0.7 2.5-1.3-1.9-1-3.6-1.6c-0.4 1.2-0.7 2.7-0.9 4.2q1-0.6 2-1.3zm6.1 0.3q0.8 0.6 1.6 1.2-0.2-2.2-0.7-4-1.6 0.4-3.3 1.2 1.2 0.7 2.4 1.6zm2.3 4.5q0 1.2-0.1 2.4 1.4-1 2.4-2.1-1-1.2-2.3-2.4 0 1 0 2.1zm-9.4-8.2c1.3 0.4 2.7 1 4.1 1.8q1.9-0.9 3.7-1.4c-0.9-3-2.3-5-3.9-5-1.5 0-2.9 1.8-3.9 4.6zm-5.6 5.8q0.5 0.8 1.3 1.7 1.2-1.2 2.8-2.4c0.1-1.7 0.4-3.4 0.9-4.8-1.2-0.4-2.3-0.6-3.3-0.6-1.3 0-2.2 0.4-2.7 1.1-0.7 1-0.4 2.8 1 5zm4.8 9.8c-0.3-1.3-0.6-2.9-0.8-4.6q-1.5-1.3-2.8-2.7-0.8 0.8-1.4 1.6c-1.5 2-2 3.8-1.3 4.9 0.6 1.1 2.1 1.3 3.2 1.3q1.4 0 3.1-0.5zm8.5 0.8c-1.3-0.4-2.7-1-4.1-1.8q-1.9 0.9-3.7 1.4c0.9 3 2.4 5 4 5 1.5 0 2.9-1.8 3.8-4.6zm4.4-7.5q-1.3 1.2-2.8 2.4c-0.2 1.7-0.5 3.4-0.9 4.8 1.2 0.4 2.3 0.6 3.2 0.6 1.3 0 2.2-0.4 2.7-1.1 1-1.4 0-4-2.2-6.7z"/>
						<circle id="&lt;Path&gt;" class="s24" cx="230.7" cy="22.2" r="1.7"/>
						<path id="&lt;Path&gt;" class="s24" d="m233.2 19.3q0 0.1 0 0.1c-0.6 0-1.2 0.2-1.6 0.7 0 0.1-0.2 0.2-0.3 0.5-0.3-0.2-0.6-0.3-1-0.2-0.3-0.3-0.4-0.6-0.4-1.1 0-0.9 0.7-1.6 1.6-1.6 0.9 0 1.7 0.7 1.7 1.6z"/>
						<path id="&lt;Path&gt;" class="s24" d="m234.8 21.2c0 0.9-0.7 1.6-1.6 1.6q-0.4 0-0.7-0.1 0-0.3 0-0.6c-0.1-0.6-0.4-1.3-0.9-1.5 0.2-0.6 0.8-1.1 1.6-1.1 0.9 0 1.6 0.8 1.6 1.7z"/>
					</g>
				</g>
				<path id="&lt;Path&gt;" class="s25" d="m218.2 100.1c0 1-0.8 1.8-1.8 1.8h-4.6c-1 0-1.8-0.8-1.8-1.8 0-1 0.8-1.8 1.8-1.8h4.6c1 0 1.8 0.8 1.8 1.8z"/>
				<path id="&lt;Path&gt;" class="s25" d="m174.6 57.7v-32.3q-2.3-18.1 16.5-18.1h88.9q7.1-0.3 6.2 2.2-0.2 2.2-4.8 2.4h-87.6q-13-1.8-14.6 11.9l-1.6 39.5q-0.3 1.8-1.2 2.5c-0.9 0.6-1.8-0.3-1.8-8.1z"/>
				<path id="&lt;Path&gt;" class="s25" d="m306 57.1v28.1q2 15.7-14.4 15.7l-66.5 0.6q-3.5-0.1-2.8-2.3-0.1-1.1 5.3-1.3l61.7-1q11.3 1.6 12.6-10.4l1.5-34.3q0.3-1.6 1-2.1c0.8-0.6 1.6 0.2 1.6 7z"/>
			</g>
		</g>
	</g>
</svg>