<svg version="1.2" xmlns="http://www.w3.org/2000/svg" viewBox="0 0 600 550" width="600" height="550">
	<title>Sandy_Bus-22_Single-01-ai</title>
	<defs>
		<clipPath clipPathUnits="userSpaceOnUse" id="cp1">
			<path d="m247.66 151.23q-0.69 2.93-3.13 4.61-2.44 1.69-5.69 1.49 0.69-2.92 3.13-4.6 2.43-1.69 5.69-1.5z"/>
		</clipPath>
		<clipPath clipPathUnits="userSpaceOnUse" id="cp2">
			<path d="m224.42 156.21q2.8-1.54 5.8-1.07 3.01 0.46 5.1 2.77-2.8 1.55-5.81 1.08-3.01-0.47-5.09-2.78z"/>
		</clipPath>
	</defs>
	<style>
		.s0 { fill: #ffffff } 
		.s1 { fill: #f2e6dc } 
		.s2 { fill: #e6d0be } 
		.s3 { fill: #efbc73 } 
		.s4 { fill: #363e44 } 
		.s5 { fill: #e2a18d } 
		.s6 { fill: #9e9569 } 
		.s7 { fill: #40484c } 
		.s8 { fill: #776e42 } 
		.s9 { fill: #d87355 } 
		.s10 { fill: #8b865c } 
		.s11 { fill: #d3bba3 } 
	</style>
	<g id="Background">
		<path id="&lt;Path&gt;" class="s0" d="m0 0h600v550h-600z"/>
	</g>
	<g id="Illustration">
		<g id="Digital marketing strategy 1 ">
			<path id="&lt;Path&gt;" class="s1" d="m519.6 275c0 111.2-98.3 201.3-219.6 201.3-121.3 0-219.6-90.1-219.6-201.3 0-111.2 98.3-201.3 219.6-201.3 121.3 0 219.6 90.1 219.6 201.3z"/>
			<g id="&lt;Group&gt;">
				<g id="&lt;Group&gt;">
					<g id="&lt;Group&gt;">
						<path id="&lt;Path&gt;" class="s2" d="m82 187.2h361.7v251.3h-361.7z"/>
						<path id="&lt;Path&gt;" class="s1" d="m93.4 197.6h339v210.3h-339z"/>
						<ellipse id="&lt;Path&gt;" class="s0" cx="262.9" cy="422" rx="6.8" ry="6.2"/>
					</g>
					<path id="&lt;Path&gt;" class="s2" d="m518 445.3c0 14.4-12.8 26-28.5 26h-379c-15.7 0-28.5-11.6-28.5-26z"/>
					<path id="&lt;Path&gt;" class="s1" d="m177.2 468.8c-12.5 0-22.7-9.3-22.7-20.8 0-0.1 0.1-0.2 0.2-0.2 0.2 0 0.3 0.1 0.3 0.2 0 11.2 10 20.4 22.2 20.4 0.2 0 0.3 0.1 0.3 0.2 0 0.1-0.1 0.2-0.3 0.2z"/>
					<path id="&lt;Path&gt;" class="s1" d="m376.5 451.4c0 6.1-5.5 11.1-12.1 11.1h-42.5c-6.7 0-12.1-5-12.1-11.1z"/>
				</g>
				<g id="&lt;Group&gt;">
					<path id="&lt;Path&gt;" class="s3" d="m109.6 162.1h220.4v202h-220.4z"/>
					<g id="&lt;Group&gt;">
						<path id="&lt;Path&gt;" class="s4" d="m134.8 364.1c3.2-16.6 6.5-30.4 9.7-39.3 14.4-40.1 26.4-52.1 38.5-67.6q39.2 6.5 78.3 13.1c4.4 10.6 7.6 22.6 11.8 35.3 5.3 16.2 7.3 36.7 7.4 58.5z"/>
						<path id="&lt;Path&gt;" class="s4" d="m233.6 137.2c6.5-1.6 17.5-1.9 21.8 3.5 6.1 7.8-5.3 16.7 1.1 25.4 4.8 6.5 12.8 6.5 17.5 12.9 5.4 7.4 0.1 23-10.1 28.7-16.4 9.1-52-4.2-57.4-28-4-18 9.9-38.3 27.1-42.5z"/>
						<g id="&lt;Group&gt;">
							<path id="&lt;Path&gt;" class="s5" d="m307.9 224.9c44.9 51.5 27.4 53.4 17.7 59.9-7.8 5.4-33.6-13.6-52.1-35.2-18.5-21.7-25.8-44.7-16.3-51.6 9.5-6.8 32 5.4 50.7 26.9z"/>
							<g id="&lt;Group&gt;">
								<path id="&lt;Path&gt;" class="s5" d="m370.8 189.9c-0.4 1.7-0.7 2.9-0.7 3.4-1 5.7-4.3 15.8-7.4 27.5-7.3 27.3-11.9 39.2-18 51.8-2.4 4.9-9.2 13-22.2 13.1-4.2-11-9.6-23.9-13.8-35 6.3-15.5 20.3-50.7 21.7-54.3 0.9-2.1 2.8-6.9 5.2-12.4 6.9-1.7 13.9-2 21 0q3.8 1.1 7.3 2.6-0.2 0.6-0.3 1c0 0 0.2-0.4 0.5-1q3.5 1.5 6.7 3.3z"/>
							</g>
							<path id="&lt;Path&gt;" class="s5" d="m171.1 237.2c-15.3 9.8-57 39.6-68.1 25.6-13.3-16.9 30.9-45.6 45.5-56.4q11.3 15.4 22.6 30.8z"/>
							<path id="&lt;Path&gt;" class="s0" d="m135.5 212.1c5.3-4.6 45.5-37.5 100.2-29.3 31.6 4.7 52.4 20.8 60.9 28.3q-9.7 11.2-19.5 22.3 5 23.4 10 46.7c-24.8-0.2-104.9-2.4-130.1-3.2 4.5-13.2 9-20.2 13.5-33.4q-5.2 4-10.5 8c-8-12.3-17.4-27.8-24.5-39.4z"/>
							<g id="&lt;Group&gt;">
								<path id="&lt;Path&gt;" class="s6" d="m170.3 331.5l-49.3-45.2 62.9-57.6 49.3 45.2z"/>
								<g id="&lt;Group&gt;">
									<path id="&lt;Path&gt;" class="s4" d="m206.4 269.5q-0.1 0-0.2-0.1l-19.2-17.6c-0.1-0.1-0.1-0.2 0-0.3 0.1-0.1 0.2-0.1 0.3 0l19.2 17.6c0.1 0.1 0.1 0.2 0 0.3q0 0.1-0.1 0.1z"/>
									<path id="&lt;Path&gt;" class="s4" d="m197.5 277.6q-0.1 0-0.1-0.1l-19.2-17.6c-0.1-0.1-0.1-0.2 0-0.3 0-0.1 0.2-0.1 0.3 0l19.2 17.6c0.1 0.1 0.1 0.2 0 0.3q-0.1 0.1-0.2 0.1z"/>
									<path id="&lt;Path&gt;" class="s4" d="m199.7 271.5q-0.1 0-0.1-0.1l-14.8-13.5c-0.1-0.1-0.1-0.2 0-0.3 0.1-0.1 0.2-0.1 0.3 0l14.8 13.5c0.1 0.1 0.1 0.2 0 0.3q-0.1 0.1-0.2 0.1z"/>
								</g>
							</g>
							<g id="&lt;Group&gt;">
								<path id="&lt;Path&gt;" class="s5" d="m139.7 249.8c14.1 10.3 48.7 33.1 51.9 35.5 6.2 4.4 19.5 13.4 17.1 17.8-0.8 1.4-2.6 2.4-4.7 2.5 0.6 2-0.1 4.1-1.8 5.4-2.2 1.6-4.9 0.9-5.1 0.8 0.7 1.5 0.6 3.2-0.4 4.3-1.3 1.6-4.1 2.1-6.4 0.8-0.1 0.4-0.3 2.1-1.7 3.2-1.6 1.3-4.1 1.6-6.3 0.6-5.4-3.9-15-8.7-26-15.1-26-15-36.9-22.7-48-32-4.3-3.6-10.6-12.1-6.6-23.5 12.8-0.1 25.3-0.2 38-0.3z"/>
								<path id="&lt;Path&gt;" class="s4" d="m145.1 253.9q-0.1 0-0.2-0.1c-3.5-2.5-5.8-4.2-7-5.1-0.1 0-0.2-0.2-0.1-0.3 0.1-0.1 0.3-0.1 0.4 0 1.2 0.9 3.5 2.5 7 5.1 0.1 0 0.2 0.2 0.1 0.3q-0.1 0.1-0.2 0.1z"/>
								<g id="&lt;Group&gt;">
									<path id="&lt;Path&gt;" class="s4" d="m198.6 298.9q-0.1 0-0.2-0.1c-0.1-0.1-0.1-0.2 0-0.3l2.3-2.3c0.1-0.1 0.2-0.1 0.3-0.1 0.1 0.1 0.1 0.3 0 0.4l-2.2 2.3q-0.1 0.1-0.2 0.1z"/>
									<path id="&lt;Path&gt;" class="s4" d="m192.8 304.8q-0.1 0-0.2-0.1c-0.1 0-0.1-0.2 0-0.3l2.3-2.3c0.1-0.1 0.2-0.1 0.3 0 0.1 0.1 0.1 0.2 0.1 0.3l-2.3 2.3q-0.1 0.1-0.2 0.1z"/>
									<path id="&lt;Path&gt;" class="s4" d="m187 310.9q-0.1 0-0.2-0.1c-0.1 0-0.1-0.2 0-0.3l2.3-2.3c0.1-0.1 0.2-0.1 0.3 0 0.1 0.1 0.1 0.2 0 0.3l-2.2 2.3q-0.1 0.1-0.2 0.1z"/>
									<path id="&lt;Path&gt;" class="s4" d="m181.6 316.3q-0.1 0-0.2 0c-0.1-0.1-0.1-0.2 0-0.3l2.3-2.4c0.1-0.1 0.2-0.1 0.3 0 0.1 0.1 0.1 0.2 0.1 0.3l-2.3 2.4q-0.1 0-0.2 0z"/>
								</g>
							</g>
							<g id="&lt;Group&gt;">
								<g id="&lt;Group&gt;">
									<g id="&lt;Group&gt;">
										<path id="&lt;Path&gt;" class="s7" d="m368.3 196.2c-3.1 3.8-9 4.6-13.2 1.7l-33.9-23 11.3-13.9 33.9 23.1c4.1 2.8 5 8.2 1.9 12.1z"/>
										<path id="&lt;Path&gt;" class="s4" d="m417.9 110.5c4.9 7.6 2.2 17.5-6.1 22-8.3 4.5-19 2-24-5.6-4.9-7.6-2.2-17.4 6.1-22 8.3-4.5 19-2 24 5.6z"/>
										<path id="&lt;Path&gt;" class="s6" d="m382.3 87.1l41.1 63.3-84.7 20.6-16.6-25.5z"/>
										<path id="&lt;Path&gt;" class="s8" d="m304.3 155.3l17.8-9.8 16.6 25.5-17.9 9.7z"/>
										<g id="&lt;Group&gt;">
											<path id="&lt;Path&gt;" class="s6" d="m333.4 169l-12.7 6.9-2.9-4.5 12.7-6.9z"/>
											<path id="&lt;Path&gt;" class="s6" d="m329 162.1l-12.8 6.9-2.9-4.5 12.7-6.9z"/>
											<path id="&lt;Path&gt;" class="s6" d="m324.5 155.2l-12.8 6.9-2.9-4.5 12.8-6.9z"/>
										</g>
									</g>
									<g id="&lt;Group&gt;">
										<path id="&lt;Path&gt;" class="s3" d="m413 98.3q0 0-0.1 0c-0.1 0-0.2-0.2-0.1-0.3l3.6-11.5q0-0.1 0.1-0.1 0.1-0.1 0.2 0l9.1 4.9 8.1-12.7c0.1-0.1 0.2-0.2 0.4-0.1 0.1 0.1 0.1 0.2 0 0.3l-8.2 12.9c-0.1 0.1-0.2 0.1-0.4 0l-8.9-4.8-3.6 11.2c0 0.1-0.1 0.2-0.2 0.2z"/>
										<path id="&lt;Path&gt;" class="s3" d="m437.1 121.1q0 0-0.1 0-0.1-0.1-0.1-0.2l-1.2-6.9-10 1.7c-0.1 0-0.3-0.1-0.3-0.2 0-0.1 0.1-0.2 0.2-0.2l10.2-1.8q0.1 0 0.2 0 0.1 0.1 0.1 0.2l1.2 6.9 13.6-4.2c0.1 0 0.2 0 0.3 0.1 0 0.2-0.1 0.3-0.2 0.3l-13.8 4.3q0 0-0.1 0z"/>
										<path id="&lt;Path&gt;" class="s3" d="m440 104.1q-0.1 0-0.1 0-0.1 0-0.1-0.1l-4.9-5.9-6.2 4.2c-0.1 0.1-0.2 0-0.3-0.1-0.1-0.1-0.1-0.2 0-0.3l6.4-4.3c0.1-0.1 0.3 0 0.3 0.1l4.9 5.9 9.4-8.1c0.1-0.1 0.3 0 0.4 0 0 0.1 0 0.3-0.1 0.4l-9.6 8.1q0 0.1-0.1 0.1z"/>
									</g>
								</g>
								<g id="&lt;Group&gt;">
									<path id="&lt;Path&gt;" class="s5" d="m348.1 180.4c-1.5-1-1.9-2.9-0.8-4.3l3.9-5.2c1.1-1.4 3.2-1.7 4.8-0.7 1.5 1 1.9 2.9 0.8 4.3l-3.9 5.2c-1.1 1.4-3.2 1.7-4.8 0.7z"/>
									<path id="&lt;Path&gt;" class="s5" d="m350.8 180.6l6.2-8.2c1.3-1.6 3.8-2 5.6-0.9 1.7 1.2 2.2 3.4 0.9 5.1l-6.3 8.2c-1.2 1.6-3.7 2-5.5 0.9-1.8-1.2-2.2-3.5-0.9-5.1z"/>
									<path id="&lt;Path&gt;" class="s5" d="m357 184.6l6.2-8.2c1.3-1.7 3.8-2.1 5.5-0.9 1.8 1.2 2.3 3.4 1 5.1l-6.3 8.2c-1.2 1.6-3.7 2-5.5 0.8-1.8-1.1-2.2-3.4-0.9-5z"/>
									<path id="&lt;Path&gt;" class="s5" d="m362.9 188.9l5.1-6.7c1.1-1.4 3.3-1.8 4.8-0.7 1.6 1 2 3 0.9 4.4l-5.1 6.7c-1.1 1.4-3.3 1.8-4.9 0.8-1.6-1-1.9-3-0.8-4.5z"/>
								</g>
								<path id="&lt;Path&gt;" class="s5" d="m338.3 188.5c-1.9-0.1-3.2-1.6-3.1-3.3l0.6-6.3c0.1-1.7 1.8-3 3.6-2.9 1.9 0.2 3.3 1.7 3.1 3.4l1.9 11.1c-0.2 1.7-4.2-1.8-6.1-2z"/>
							</g>
						</g>
						<g id="&lt;Group&gt;">
							<path id="&lt;Path&gt;" class="s5" d="m244.4 188.7c0 3.9-8.5 7.1-19 7.1-10.4 0-18.9-3.2-18.9-7.1 0-3.9 8.3-9 18.8-9 5.7 0 11.5 1.9 14.4 3.6 2.7 1.7 4.7 3.6 4.7 5.4z"/>
							<path id="&lt;Path&gt;" class="s5" d="m214.6 149.9h20.2v38h-20.2z"/>
							<path id="&lt;Path&gt;" class="s5" d="m229.4 143.4c0.6-0.1 6.4-1 10.3 2.4 2.8 2.6 3.4 6 3.5 12 0.1 7-1 11.3-3 12.8-3.3 2.4-14.1-1.7-18.6-7.5-3.2-4.2-3.3-9.9-0.7-14.5 2.6-4.6 8.1-5.2 8.5-5.2z"/>
							<g id="&lt;Group&gt;">
								<path id="&lt;Path&gt;" class="s0" d="m247.7 151.2q-0.5 2-2.1 3.7-0.2-0.2-0.3-0.5c-0.2-0.2-0.4-0.4-0.5-0.6-0.3-0.6-0.5-1.3-0.7-1.9q0 0 0 0c0-0.1-0.1-0.1-0.1-0.2q1.9-0.6 3.7-0.5z"/>
								<g id="&lt;Clip Group&gt;" clip-path="url(#cp1)">
									<path id="&lt;Path&gt;" class="s4" d="m245.6 154.4c0.2 2-1.5 3.7-3.6 3.9-2.2 0.2-4.2-1.4-4.3-3.4-0.2-2 1.4-3.7 3.6-3.9 2.2-0.2 4.1 1.3 4.3 3.4z"/>
								</g>
							</g>
							<g id="&lt;Group&gt;">
								<path id="&lt;Path&gt;" class="s0" d="m231.1 155.3q2.5 0.8 4.2 2.6-1.5 0.8-3.5 1.1c-0.5-0.6-0.7-1.2-0.8-1.9 0-0.6-0.1-1.2 0.1-1.8z"/>
								<g id="&lt;Clip Group&gt;" clip-path="url(#cp2)">
									<path id="&lt;Path&gt;" class="s4" d="m225.1 155.2c1.5-1.5 4-1.6 5.6-0.2 1.7 1.3 1.8 3.6 0.3 5.1-1.5 1.5-4 1.6-5.6 0.3-1.7-1.4-1.8-3.7-0.3-5.2z"/>
								</g>
							</g>
							<path id="&lt;Path&gt;" class="s4" d="m239.7 161.2q-0.1 0-0.1 0c-0.2-0.1-0.2-0.2-0.1-0.3q0.2-0.5 0.1-0.8c0-0.2-0.2-0.4-0.5-0.6-0.2-0.1-0.5-0.3-0.7-0.6q-0.5-0.5-0.7-1.3c0-0.1 0-0.2 0.2-0.2 0.1 0 0.2 0 0.3 0.1q0.2 0.7 0.6 1.1c0.2 0.3 0.4 0.5 0.6 0.6 0.3 0.2 0.6 0.4 0.7 0.8q0.1 0.5-0.2 1.1-0.1 0.1-0.2 0.1z"/>
							<path id="&lt;Path&gt;" class="s4" d="m237.3 165.2c-0.6 0.8-1.8 1-2.7 0.4-0.9-0.6-1.1-1.7-0.5-2.5 0.7-0.8 0.8 0.5 1.6 1 0.9 0.6 2.2 0.3 1.6 1.1z"/>
							<path id="&lt;Path&gt;" class="s4" d="m245 136.3q-5.2 18.1-24.2 20.3 5.7 14.9 0.4 21.8c-6.1 7.9-17.6 4.8-23.3 14.8-3.5 6 4.1 18.9-4.6 26.5-10.1 8.9-30.5 1.5-39.4-5.9-8.6-7.1-13-23.1-4.9-30.4 6.7-6.2 21.8-3.7 27.6-8.2 7.9-6 1.7-13.3 7.2-22.3 5.6-9.1 19.4-8.3 23.2-10.6 3-1.8 7-11 17.8-12.5q11.3-1.5 20.2 6.5z"/>
							<path id="&lt;Path&gt;" class="s4" d="m233.8 171q0 0-0.1 0c-4.5-1.4-8.4-4.1-8.4-4.1-0.1-0.1-0.1-0.3-0.1-0.4 0.1 0 0.3-0.1 0.4 0 0 0 3.8 2.7 8.3 4 0.1 0.1 0.2 0.2 0.1 0.3q0 0.2-0.2 0.2z"/>
						</g>
					</g>
				</g>
				<g id="&lt;Group&gt;">
					<g id="&lt;Group&gt;">
						<path id="&lt;Path&gt;" class="s0" d="m247.3 408.1c-0.1 0-0.2-0.1-0.2-0.2v-83.8l-39.9 32v51.8c0 0.1-0.1 0.2-0.2 0.2-0.1 0-0.3-0.1-0.3-0.2v-51.9q0-0.1 0.1-0.2l40.3-32.3q0.2-0.1 0.3-0.1 0.1 0.1 0.1 0.2v84.3c0 0.1-0.1 0.2-0.2 0.2z"/>
						<path id="&lt;Path&gt;" class="s0" d="m301.6 408.1c-0.2 0-0.3-0.1-0.3-0.2v-97h-39.8v97c0 0.1-0.1 0.2-0.3 0.2-0.1 0-0.2-0.1-0.2-0.2v-97.2c0-0.2 0.1-0.3 0.2-0.3h40.4c0.1 0 0.2 0.1 0.2 0.3v97.2c0 0.1-0.1 0.2-0.2 0.2z"/>
						<path id="&lt;Path&gt;" class="s0" d="m355.8 408.1c-0.1 0-0.2-0.1-0.2-0.2v-72.2h-39.9v72.2c0 0.1-0.1 0.2-0.2 0.2-0.1 0-0.2-0.1-0.2-0.2v-72.4c0-0.1 0.1-0.2 0.2-0.2h40.3c0.1 0 0.3 0.1 0.3 0.2v72.4c0 0.1-0.2 0.2-0.3 0.2z"/>
						<path id="&lt;Path&gt;" class="s0" d="m410.1 408.1c-0.2 0-0.3-0.1-0.3-0.2v-126.3l-39.8 31.6v94.7c0 0.1-0.1 0.2-0.3 0.2-0.1 0-0.2-0.1-0.2-0.2v-94.8q0-0.1 0.1-0.2l40.3-31.9q0.1-0.1 0.3-0.1 0.1 0.1 0.1 0.2v126.8c0 0.1-0.1 0.2-0.2 0.2z"/>
					</g>
					<g id="&lt;Group&gt;">
						<path id="&lt;Path&gt;" class="s9" d="m479.3 232.9l-142.1 130.3-56.5-51.8-106.1 97.3h-30.4l136.5-125.2 56.5 51.8 126.9-116.3z"/>
						<path id="&lt;Path&gt;" class="s9" d="m482.1 251.7l-36-33 54.1-16.5z"/>
					</g>
				</g>
			</g>
			<g id="&lt;Group&gt;">
				<g id="&lt;Group&gt;">
					<path id="&lt;Compound Path&gt;" fill-rule="evenodd" class="s1" d="m396.5 368.7c-6.3-14-6.2-29.4 0.2-43.4 6.3-13.9 18.2-24.8 33.5-30.5 15.3-5.8 32.1-5.7 47.3 0.1 15.2 5.8 27.1 16.7 33.4 30.7 6.2 14 6.2 29.4-0.2 43.4-6.3 14-18.2 24.8-33.5 30.6-15.3 5.7-32.1 5.7-47.3-0.1-15.3-5.9-27.1-16.8-33.4-30.8zm96.3-36.3c-8.9-19.7-33.6-29.2-55.2-21.1-21.6 8.1-31.9 30.8-23 50.6 8.8 19.8 33.6 29.3 55.2 21.1 21.5-8.1 31.9-30.8 23-50.6z"/>
					<path id="&lt;Compound Path&gt;" fill-rule="evenodd" class="s0" d="m398.8 367.9c-6.1-13.5-6-28.3 0.1-41.7 6.1-13.4 17.6-23.8 32.2-29.4 14.7-5.5 30.8-5.4 45.5 0.2 14.6 5.6 26 16 32 29.5 6 13.4 6 28.2-0.1 41.6-6.1 13.5-17.6 23.9-32.2 29.4-14.7 5.5-30.8 5.5-45.5-0.1-14.6-5.6-26-16.1-32-29.5zm96.3-36.3c-9.4-20.9-35.6-30.9-58.4-22.4-22.8 8.6-33.8 32.6-24.4 53.6 9.4 20.9 35.6 30.9 58.4 22.3 22.8-8.6 33.7-32.6 24.4-53.5z"/>
					<g id="&lt;Group&gt;">
						<path id="&lt;Path&gt;" class="s9" d="m512.4 339c1.6 9.8 0.3 19.8-3.9 29.1-5.7 12.5-15.9 22.3-29 28.1l-5.6-12.5c17.1-7.9 26.6-24.9 24.1-41.9z"/>
						<path id="&lt;Path&gt;" class="s10" d="m472.9 398.7c-13.7 4.3-28.5 3.9-42.1-1.3-14.6-5.6-26-16.1-32-29.5-6.1-13.5-6-28.3 0.1-41.7q0.2-0.5 0.5-0.9l13 6.1c-4.4 9.7-4.8 20.9-0.1 31.4 8.9 19.9 33.1 29.9 55.1 23.4z"/>
						<path id="&lt;Path&gt;" class="s3" d="m488.1 302.8c9.1 5.9 16.2 14 20.5 23.7q1.4 3 2.3 6.1l-14.3 2.9q-0.7-2-1.5-3.9c-3.2-7.2-8.4-13.1-14.8-17.4z"/>
						<path id="&lt;Path&gt;" class="s11" d="m482.1 299.4l-7.8 11.4c-11.3-5.4-25-6.3-37.6-1.6-9.1 3.5-16.3 9.3-21 16.4l-13.1-6.1c6.5-10.2 16.4-18.1 28.5-22.7 14.7-5.5 30.8-5.4 45.5 0.2q2.8 1 5.5 2.4z"/>
					</g>
				</g>
				<g id="&lt;Group&gt;">
					<path id="&lt;Compound Path&gt;" fill-rule="evenodd" class="s10" d="m453.6 360.5c-2.7 0-5.4-0.7-7.8-2-3.3-2-5.6-4.9-6.5-8.5-0.9-3.5-0.2-7.1 1.9-10.2 2-3 5.3-5.1 9.1-6 8-1.6 15.9 2.9 17.7 10.2 1.8 7.2-3.1 14.5-11 16.2q-1.7 0.3-3.4 0.3zm0.1-26.6q-1.6 0-3.3 0.4c-3.7 0.8-6.8 2.8-8.8 5.8-2.1 2.9-2.7 6.4-1.8 9.8 0.8 3.4 3.1 6.3 6.3 8.2 3.2 1.8 7 2.4 10.8 1.6 7.6-1.6 12.4-8.6 10.6-15.6-1.5-6.1-7.4-10.2-13.8-10.2z"/>
				</g>
			</g>
			<g id="&lt;Group&gt;">
				<path id="&lt;Path&gt;" class="s11" d="m157.8 119.1c-0.1 18.9-17 34.2-37.6 34-20.7-0.1-37.3-15.5-37.2-34.4 0.1-19 17-34.2 37.6-34.1 20.7 0.1 37.3 15.5 37.2 34.5z"/>
				<path id="&lt;Compound Path&gt;" fill-rule="evenodd" class="s0" d="m125.8 153.4q-0.1 0-0.2 0c-10.1-0.1-19.5-3.7-26.6-10.3-7-6.5-10.9-15.2-10.8-24.4 0-9.3 4-17.9 11.2-24.4 7.1-6.4 16.4-9.9 26.4-9.9q0.1 0 0.2 0c20.8 0.1 37.6 15.6 37.5 34.7-0.2 18.9-17 34.3-37.7 34.3zm0-68.6c-9.8 0-19.1 3.5-26.1 9.8-7.1 6.4-11 15-11 24.1-0.1 9.1 3.7 17.6 10.7 24.1 7 6.5 16.3 10.1 26.2 10.1q0.1 0 0.2 0c20.4 0 37.1-15.1 37.2-33.8 0.1-18.8-16.5-34.2-37-34.3q-0.1 0-0.2 0z"/>
				<path id="&lt;Path&gt;" class="s0" d="m125.9 102.4c-10.4 0-20.6-1.6-29.6-4.6l0.2-0.4c8.9 3 19 4.6 29.4 4.6 10.2 0 20.3-1.6 29.2-4.5l0.1 0.4c-8.8 3-19 4.5-29.3 4.5z"/>
				<path id="&lt;Path&gt;" class="s0" d="m96.2 139.9l-0.2-0.5c9-3.1 19.3-4.7 29.9-4.7 10.5 0 20.8 1.6 29.8 4.7l-0.2 0.4c-9-3.1-19.2-4.7-29.6-4.7-10.5 0-20.8 1.7-29.7 4.8z"/>
				<path id="&lt;Compound Path&gt;" fill-rule="evenodd" class="s0" d="m125.8 153.4c-10.9 0-19.6-15.5-19.6-34.5 0-19.1 8.7-34.5 19.6-34.5 10.9 0 19.7 15.4 19.7 34.5 0 19-8.8 34.5-19.7 34.5zm19.2-34.5c0-18.9-8.6-34.1-19.2-34.1-10.6 0-19.2 15.2-19.2 34.1 0 18.8 8.6 34 19.2 34 10.6 0 19.2-15.2 19.2-34z"/>
				<path id="&lt;Path&gt;" class="s0" d="m125.6 84.6h0.5v68.5h-0.5z"/>
				<path id="&lt;Path&gt;" class="s0" d="m163.2 119.1l-74.8-0.5v-0.4l74.8 0.5z"/>
			</g>
		</g>
	</g>
</svg>