<svg version="1.2" xmlns="http://www.w3.org/2000/svg" viewBox="0 0 1440 325" width="1440" height="325">
	<title>19197471-ai</title>
	<defs>
		<linearGradient id="g1" x1="1335.8" y1="288.4" x2="862.4" y2="288.4" gradientUnits="userSpaceOnUse">
			<stop offset="0" stop-color="#b37cff"/>
			<stop offset="1" stop-color="#f895e7"/>
		</linearGradient>
		<linearGradient id="g2" x1="881.4" y1="285.3" x2="1336.4" y2="285.3" gradientUnits="userSpaceOnUse">
			<stop offset="0" stop-color="#b37cff"/>
			<stop offset="1" stop-color="#f895e7"/>
		</linearGradient>
		<linearGradient id="g3" x1="952.4" y1="237" x2="937.7" y2="178" gradientUnits="userSpaceOnUse">
			<stop offset="0" stop-color="#b37cff"/>
			<stop offset="1" stop-color="#f895e7"/>
		</linearGradient>
		<linearGradient id="g4" x1="882.2" y1="188.7" x2="985.8" y2="370.8" gradientUnits="userSpaceOnUse">
			<stop offset="0" stop-color="#a737d5"/>
			<stop offset="1" stop-color="#ef497a"/>
		</linearGradient>
		<linearGradient id="g5" x1="1248.8" y1="237" x2="1263.6" y2="178" gradientUnits="userSpaceOnUse">
			<stop offset="0" stop-color="#b37cff"/>
			<stop offset="1" stop-color="#f895e7"/>
		</linearGradient>
		<linearGradient id="g6" x1="1319" y1="188.7" x2="1215.5" y2="370.8" gradientUnits="userSpaceOnUse">
			<stop offset="0" stop-color="#a737d5"/>
			<stop offset="1" stop-color="#ef497a"/>
		</linearGradient>
		<linearGradient id="g7" x1="1226.1" y1="95.8" x2="1238.1" y2="379.6" gradientUnits="userSpaceOnUse">
			<stop offset="0" stop-color="#fdf53f"/>
			<stop offset="1" stop-color="#d93c65"/>
		</linearGradient>
		<linearGradient id="g8" x1="1223.6" y1="34.7" x2="1235.1" y2="307.7" gradientUnits="userSpaceOnUse">
			<stop offset="0" stop-color="#fdf53f"/>
			<stop offset="1" stop-color="#d93c65"/>
		</linearGradient>
		<linearGradient id="g9" x1="1144.6" y1="159.9" x2="1243.9" y2="260.2" gradientUnits="userSpaceOnUse">
			<stop offset="0" stop-color="#cb236d"/>
			<stop offset="1" stop-color="#4c246d"/>
		</linearGradient>
		<linearGradient id="g10" x1="1171.6" y1="259.6" x2="1185.3" y2="259.6" gradientUnits="userSpaceOnUse">
			<stop offset="0" stop-color="#f9b776"/>
			<stop offset="1" stop-color="#f47960"/>
		</linearGradient>
		<linearGradient id="g11" x1="1162.3" y1="106.1" x2="1164" y2="121.1" gradientUnits="userSpaceOnUse">
			<stop offset="0" stop-color="#cb236d"/>
			<stop offset="1" stop-color="#4c246d"/>
		</linearGradient>
		<linearGradient id="g12" x1="1155.3" y1="260.6" x2="1184.4" y2="260.6" gradientUnits="userSpaceOnUse">
			<stop offset="0" stop-color="#f9b776"/>
			<stop offset="1" stop-color="#f47960"/>
		</linearGradient>
		<linearGradient id="g13" x1="1201.6" y1="253.9" x2="1217.1" y2="284.1" gradientUnits="userSpaceOnUse">
			<stop offset="0" stop-color="#2b3582"/>
			<stop offset="1" stop-color="#150e42"/>
		</linearGradient>
		<linearGradient id="g14" x1="1143.3" y1="121" x2="1144.8" y2="134.9" gradientUnits="userSpaceOnUse">
			<stop offset="0" stop-color="#cb236d"/>
			<stop offset="1" stop-color="#4c246d"/>
		</linearGradient>
		<linearGradient id="g15" x1="1198.7" y1="233.7" x2="1212.8" y2="264.4" gradientUnits="userSpaceOnUse">
			<stop offset="0" stop-color="#52f0c0"/>
			<stop offset="1" stop-color="#9f71fb"/>
		</linearGradient>
		<linearGradient id="g16" x1="1184.7" y1="240.2" x2="1183.4" y2="231.9" gradientUnits="userSpaceOnUse">
			<stop offset="0" stop-color="#f9b776"/>
			<stop offset="1" stop-color="#f47960"/>
		</linearGradient>
		<linearGradient id="g17" x1="1186" y1="219" x2="1196.2" y2="225.9" gradientUnits="userSpaceOnUse">
			<stop offset="0" stop-color="#f9b776"/>
			<stop offset="1" stop-color="#f47960"/>
		</linearGradient>
		<linearGradient id="g18" x1="1140.8" y1="167" x2="1234.5" y2="261.6" gradientUnits="userSpaceOnUse">
			<stop offset="0" stop-color="#cb236d"/>
			<stop offset="1" stop-color="#4c246d"/>
		</linearGradient>
		<linearGradient id="g19" x1="1185" y1="222.5" x2="1194.6" y2="229" gradientUnits="userSpaceOnUse">
			<stop offset="0" stop-color="#f9b776"/>
			<stop offset="1" stop-color="#f47960"/>
		</linearGradient>
		<linearGradient id="g20" x1="1196.2" y1="251.7" x2="1223.4" y2="251.7" gradientUnits="userSpaceOnUse">
			<stop offset="0" stop-color="#f9b776"/>
			<stop offset="1" stop-color="#f47960"/>
		</linearGradient>
		<linearGradient id="g21" x1="1188.1" y1="291.8" x2="1192.3" y2="265.4" gradientUnits="userSpaceOnUse">
			<stop offset="0" stop-color="#53d8ff"/>
			<stop offset="1" stop-color="#3840f7"/>
		</linearGradient>
		<linearGradient id="g22" x1="1184.2" y1="290.1" x2="1188" y2="266" gradientUnits="userSpaceOnUse">
			<stop offset="0" stop-color="#53d8ff"/>
			<stop offset="1" stop-color="#3840f7"/>
		</linearGradient>
		<linearGradient id="g23" x1="1178.6" y1="289.3" x2="1182.4" y2="265.1" gradientUnits="userSpaceOnUse">
			<stop offset="0" stop-color="#53d8ff"/>
			<stop offset="1" stop-color="#3840f7"/>
		</linearGradient>
		<linearGradient id="g24" x1="1197.6" y1="256.5" x2="1182.2" y2="261.6" gradientUnits="userSpaceOnUse">
			<stop offset="0" stop-color="#2b3582"/>
			<stop offset="1" stop-color="#150e42"/>
		</linearGradient>
		<linearGradient id="g25" x1="1186.1" y1="253.4" x2="1174.9" y2="265.2" gradientUnits="userSpaceOnUse">
			<stop offset="0" stop-color="#2b3582"/>
			<stop offset="1" stop-color="#150e42"/>
		</linearGradient>
		<linearGradient id="g26" x1="1132.1" y1="256.9" x2="1223.1" y2="256.9" gradientUnits="userSpaceOnUse">
			<stop offset="0" stop-color="#9cfffb"/>
			<stop offset="1" stop-color="#9bfffa"/>
		</linearGradient>
		<linearGradient id="g27" x1="1137.4" y1="258.4" x2="1155.2" y2="258.4" gradientUnits="userSpaceOnUse">
			<stop offset="0" stop-color="#9cfffb"/>
			<stop offset="1" stop-color="#9bfffa"/>
		</linearGradient>
		<linearGradient id="g28" x1="1139.5" y1="258.4" x2="1157.2" y2="258.4" gradientUnits="userSpaceOnUse">
			<stop offset="0" stop-color="#9cfffb"/>
			<stop offset="1" stop-color="#9bfffa"/>
		</linearGradient>
		<linearGradient id="g29" x1="1202" y1="258.4" x2="1219.8" y2="258.4" gradientUnits="userSpaceOnUse">
			<stop offset="0" stop-color="#9cfffb"/>
			<stop offset="1" stop-color="#9bfffa"/>
		</linearGradient>
		<linearGradient id="g30" x1="1204.1" y1="258.4" x2="1221.9" y2="258.4" gradientUnits="userSpaceOnUse">
			<stop offset="0" stop-color="#9cfffb"/>
			<stop offset="1" stop-color="#9bfffa"/>
		</linearGradient>
		<clipPath clipPathUnits="userSpaceOnUse" id="cp1">
			<path d="m990.97 64.43h219.6v94.75l-111.07 61.19-117.78-65.04z"/>
		</clipPath>
		<linearGradient id="g31" x1="1169.1" y1="154.7" x2="1059.2" y2="305.3" gradientUnits="userSpaceOnUse">
			<stop offset="0" stop-color="#53d8ff"/>
			<stop offset="1" stop-color="#3840f7"/>
		</linearGradient>
		<linearGradient id="g32" x1="1155.1" y1="74.8" x2="1134.7" y2="288.4" gradientUnits="userSpaceOnUse">
			<stop offset="0" stop-color="#53d8ff"/>
			<stop offset="1" stop-color="#3840f7"/>
		</linearGradient>
		<linearGradient id="g33" x1="1279.2" y1="157.6" x2="1279.8" y2="157.6" gradientUnits="userSpaceOnUse">
			<stop offset="0" stop-color="#9cfffb"/>
			<stop offset="1" stop-color="#9bfffa"/>
		</linearGradient>
		<linearGradient id="g34" x1="1279.4" y1="161.7" x2="1279.9" y2="161.7" gradientUnits="userSpaceOnUse">
			<stop offset="0" stop-color="#9cfffb"/>
			<stop offset="1" stop-color="#9bfffa"/>
		</linearGradient>
		<linearGradient id="g35" x1="1279.2" y1="165.8" x2="1279.8" y2="165.8" gradientUnits="userSpaceOnUse">
			<stop offset="0" stop-color="#9cfffb"/>
			<stop offset="1" stop-color="#9bfffa"/>
		</linearGradient>
		<linearGradient id="g36" x1="1278.5" y1="169.9" x2="1279.3" y2="169.9" gradientUnits="userSpaceOnUse">
			<stop offset="0" stop-color="#9cfffb"/>
			<stop offset="1" stop-color="#9bfffa"/>
		</linearGradient>
		<linearGradient id="g37" x1="1277.5" y1="174" x2="1278.4" y2="174" gradientUnits="userSpaceOnUse">
			<stop offset="0" stop-color="#9cfffb"/>
			<stop offset="1" stop-color="#9bfffa"/>
		</linearGradient>
		<linearGradient id="g38" x1="1276.2" y1="177.9" x2="1277.2" y2="177.9" gradientUnits="userSpaceOnUse">
			<stop offset="0" stop-color="#9cfffb"/>
			<stop offset="1" stop-color="#9bfffa"/>
		</linearGradient>
		<linearGradient id="g39" x1="1274.5" y1="181.8" x2="1275.7" y2="181.8" gradientUnits="userSpaceOnUse">
			<stop offset="0" stop-color="#9cfffb"/>
			<stop offset="1" stop-color="#9bfffa"/>
		</linearGradient>
		<linearGradient id="g40" x1="1272.5" y1="185.5" x2="1273.9" y2="185.5" gradientUnits="userSpaceOnUse">
			<stop offset="0" stop-color="#9cfffb"/>
			<stop offset="1" stop-color="#9bfffa"/>
		</linearGradient>
		<linearGradient id="g41" x1="1270.3" y1="189.1" x2="1271.7" y2="189.1" gradientUnits="userSpaceOnUse">
			<stop offset="0" stop-color="#9cfffb"/>
			<stop offset="1" stop-color="#9bfffa"/>
		</linearGradient>
		<linearGradient id="g42" x1="1267.7" y1="192.6" x2="1269.3" y2="192.6" gradientUnits="userSpaceOnUse">
			<stop offset="0" stop-color="#9cfffb"/>
			<stop offset="1" stop-color="#9bfffa"/>
		</linearGradient>
		<linearGradient id="g43" x1="1264.9" y1="195.8" x2="1266.6" y2="195.8" gradientUnits="userSpaceOnUse">
			<stop offset="0" stop-color="#9cfffb"/>
			<stop offset="1" stop-color="#9bfffa"/>
		</linearGradient>
		<linearGradient id="g44" x1="1261.8" y1="198.9" x2="1263.6" y2="198.9" gradientUnits="userSpaceOnUse">
			<stop offset="0" stop-color="#9cfffb"/>
			<stop offset="1" stop-color="#9bfffa"/>
		</linearGradient>
		<linearGradient id="g45" x1="1258.4" y1="201.8" x2="1260.4" y2="201.8" gradientUnits="userSpaceOnUse">
			<stop offset="0" stop-color="#9cfffb"/>
			<stop offset="1" stop-color="#9bfffa"/>
		</linearGradient>
		<linearGradient id="g46" x1="1254.9" y1="204.4" x2="1256.9" y2="204.4" gradientUnits="userSpaceOnUse">
			<stop offset="0" stop-color="#9cfffb"/>
			<stop offset="1" stop-color="#9bfffa"/>
		</linearGradient>
		<linearGradient id="g47" x1="1251.1" y1="206.7" x2="1253.2" y2="206.7" gradientUnits="userSpaceOnUse">
			<stop offset="0" stop-color="#9cfffb"/>
			<stop offset="1" stop-color="#9bfffa"/>
		</linearGradient>
		<linearGradient id="g48" x1="1247.1" y1="208.8" x2="1249.3" y2="208.8" gradientUnits="userSpaceOnUse">
			<stop offset="0" stop-color="#9cfffb"/>
			<stop offset="1" stop-color="#9bfffa"/>
		</linearGradient>
		<linearGradient id="g49" x1="1243" y1="210.5" x2="1245.2" y2="210.5" gradientUnits="userSpaceOnUse">
			<stop offset="0" stop-color="#9cfffb"/>
			<stop offset="1" stop-color="#9bfffa"/>
		</linearGradient>
		<linearGradient id="g50" x1="1238.7" y1="212" x2="1241" y2="212" gradientUnits="userSpaceOnUse">
			<stop offset="0" stop-color="#9cfffb"/>
			<stop offset="1" stop-color="#9bfffa"/>
		</linearGradient>
		<linearGradient id="g51" x1="1234.3" y1="213.1" x2="1236.7" y2="213.1" gradientUnits="userSpaceOnUse">
			<stop offset="0" stop-color="#9cfffb"/>
			<stop offset="1" stop-color="#9bfffa"/>
		</linearGradient>
		<linearGradient id="g52" x1="1229.8" y1="213.9" x2="1232.3" y2="213.9" gradientUnits="userSpaceOnUse">
			<stop offset="0" stop-color="#9cfffb"/>
			<stop offset="1" stop-color="#9bfffa"/>
		</linearGradient>
		<linearGradient id="g53" x1="1225.3" y1="214.3" x2="1227.8" y2="214.3" gradientUnits="userSpaceOnUse">
			<stop offset="0" stop-color="#9cfffb"/>
			<stop offset="1" stop-color="#9bfffa"/>
		</linearGradient>
		<linearGradient id="g54" x1="1220.7" y1="214.5" x2="1223.4" y2="214.5" gradientUnits="userSpaceOnUse">
			<stop offset="0" stop-color="#9cfffb"/>
			<stop offset="1" stop-color="#9bfffa"/>
		</linearGradient>
		<linearGradient id="g55" x1="1216.2" y1="214.4" x2="1218.9" y2="214.4" gradientUnits="userSpaceOnUse">
			<stop offset="0" stop-color="#9cfffb"/>
			<stop offset="1" stop-color="#9bfffa"/>
		</linearGradient>
		<linearGradient id="g56" x1="1211.7" y1="214" x2="1214.4" y2="214" gradientUnits="userSpaceOnUse">
			<stop offset="0" stop-color="#9cfffb"/>
			<stop offset="1" stop-color="#9bfffa"/>
		</linearGradient>
		<linearGradient id="g57" x1="1207.3" y1="213.4" x2="1209.9" y2="213.4" gradientUnits="userSpaceOnUse">
			<stop offset="0" stop-color="#9cfffb"/>
			<stop offset="1" stop-color="#9bfffa"/>
		</linearGradient>
		<linearGradient id="g58" x1="1202.9" y1="212.5" x2="1205.4" y2="212.5" gradientUnits="userSpaceOnUse">
			<stop offset="0" stop-color="#9cfffb"/>
			<stop offset="1" stop-color="#9bfffa"/>
		</linearGradient>
		<linearGradient id="g59" x1="1198.5" y1="211.5" x2="1201.1" y2="211.5" gradientUnits="userSpaceOnUse">
			<stop offset="0" stop-color="#9cfffb"/>
			<stop offset="1" stop-color="#9bfffa"/>
		</linearGradient>
		<linearGradient id="g60" x1="1194.2" y1="210.2" x2="1196.7" y2="210.2" gradientUnits="userSpaceOnUse">
			<stop offset="0" stop-color="#9cfffb"/>
			<stop offset="1" stop-color="#9bfffa"/>
		</linearGradient>
		<linearGradient id="g61" x1="1190" y1="208.7" x2="1192.5" y2="208.7" gradientUnits="userSpaceOnUse">
			<stop offset="0" stop-color="#9cfffb"/>
			<stop offset="1" stop-color="#9bfffa"/>
		</linearGradient>
		<linearGradient id="g62" x1="1185.8" y1="207.1" x2="1188.3" y2="207.1" gradientUnits="userSpaceOnUse">
			<stop offset="0" stop-color="#9cfffb"/>
			<stop offset="1" stop-color="#9bfffa"/>
		</linearGradient>
		<linearGradient id="g63" x1="1181.7" y1="205.2" x2="1184.3" y2="205.2" gradientUnits="userSpaceOnUse">
			<stop offset="0" stop-color="#9cfffb"/>
			<stop offset="1" stop-color="#9bfffa"/>
		</linearGradient>
		<linearGradient id="g64" x1="1177.8" y1="203.2" x2="1180.3" y2="203.2" gradientUnits="userSpaceOnUse">
			<stop offset="0" stop-color="#9cfffb"/>
			<stop offset="1" stop-color="#9bfffa"/>
		</linearGradient>
		<linearGradient id="g65" x1="1173.9" y1="201.1" x2="1176.4" y2="201.1" gradientUnits="userSpaceOnUse">
			<stop offset="0" stop-color="#9cfffb"/>
			<stop offset="1" stop-color="#9bfffa"/>
		</linearGradient>
		<linearGradient id="g66" x1="1170.1" y1="198.8" x2="1172.6" y2="198.8" gradientUnits="userSpaceOnUse">
			<stop offset="0" stop-color="#9cfffb"/>
			<stop offset="1" stop-color="#9bfffa"/>
		</linearGradient>
		<linearGradient id="g67" x1="1166.4" y1="196.4" x2="1168.9" y2="196.4" gradientUnits="userSpaceOnUse">
			<stop offset="0" stop-color="#9cfffb"/>
			<stop offset="1" stop-color="#9bfffa"/>
		</linearGradient>
		<linearGradient id="g68" x1="1162.8" y1="193.9" x2="1165.3" y2="193.9" gradientUnits="userSpaceOnUse">
			<stop offset="0" stop-color="#9cfffb"/>
			<stop offset="1" stop-color="#9bfffa"/>
		</linearGradient>
		<linearGradient id="g69" x1="1159.3" y1="191.3" x2="1161.7" y2="191.3" gradientUnits="userSpaceOnUse">
			<stop offset="0" stop-color="#9cfffb"/>
			<stop offset="1" stop-color="#9bfffa"/>
		</linearGradient>
		<linearGradient id="g70" x1="1155.8" y1="188.7" x2="1158.3" y2="188.7" gradientUnits="userSpaceOnUse">
			<stop offset="0" stop-color="#9cfffb"/>
			<stop offset="1" stop-color="#9bfffa"/>
		</linearGradient>
		<linearGradient id="g71" x1="1152.5" y1="185.9" x2="1154.9" y2="185.9" gradientUnits="userSpaceOnUse">
			<stop offset="0" stop-color="#9cfffb"/>
			<stop offset="1" stop-color="#9bfffa"/>
		</linearGradient>
		<linearGradient id="g72" x1="1149.1" y1="183.1" x2="1151.6" y2="183.1" gradientUnits="userSpaceOnUse">
			<stop offset="0" stop-color="#9cfffb"/>
			<stop offset="1" stop-color="#9bfffa"/>
		</linearGradient>
		<linearGradient id="g73" x1="1145.9" y1="180.2" x2="1148.3" y2="180.2" gradientUnits="userSpaceOnUse">
			<stop offset="0" stop-color="#9cfffb"/>
			<stop offset="1" stop-color="#9bfffa"/>
		</linearGradient>
		<linearGradient id="g74" x1="1142.7" y1="177.3" x2="1145.1" y2="177.3" gradientUnits="userSpaceOnUse">
			<stop offset="0" stop-color="#9cfffb"/>
			<stop offset="1" stop-color="#9bfffa"/>
		</linearGradient>
		<linearGradient id="g75" x1="1139.5" y1="174.4" x2="1141.9" y2="174.4" gradientUnits="userSpaceOnUse">
			<stop offset="0" stop-color="#9cfffb"/>
			<stop offset="1" stop-color="#9bfffa"/>
		</linearGradient>
		<linearGradient id="g76" x1="1136.4" y1="171.4" x2="1138.8" y2="171.4" gradientUnits="userSpaceOnUse">
			<stop offset="0" stop-color="#9cfffb"/>
			<stop offset="1" stop-color="#9bfffa"/>
		</linearGradient>
		<linearGradient id="g77" x1="1133.3" y1="168.4" x2="1135.7" y2="168.4" gradientUnits="userSpaceOnUse">
			<stop offset="0" stop-color="#9cfffb"/>
			<stop offset="1" stop-color="#9bfffa"/>
		</linearGradient>
		<linearGradient id="g78" x1="1130.2" y1="165.3" x2="1132.6" y2="165.3" gradientUnits="userSpaceOnUse">
			<stop offset="0" stop-color="#9cfffb"/>
			<stop offset="1" stop-color="#9bfffa"/>
		</linearGradient>
		<linearGradient id="g79" x1="1127.1" y1="162.3" x2="1129.5" y2="162.3" gradientUnits="userSpaceOnUse">
			<stop offset="0" stop-color="#9cfffb"/>
			<stop offset="1" stop-color="#9bfffa"/>
		</linearGradient>
		<linearGradient id="g80" x1="1124" y1="159.3" x2="1126.4" y2="159.3" gradientUnits="userSpaceOnUse">
			<stop offset="0" stop-color="#9cfffb"/>
			<stop offset="1" stop-color="#9bfffa"/>
		</linearGradient>
		<linearGradient id="g81" x1="1120.9" y1="156.3" x2="1123.4" y2="156.3" gradientUnits="userSpaceOnUse">
			<stop offset="0" stop-color="#9cfffb"/>
			<stop offset="1" stop-color="#9bfffa"/>
		</linearGradient>
		<linearGradient id="g82" x1="1117.8" y1="153.2" x2="1120.3" y2="153.2" gradientUnits="userSpaceOnUse">
			<stop offset="0" stop-color="#9cfffb"/>
			<stop offset="1" stop-color="#9bfffa"/>
		</linearGradient>
		<linearGradient id="g83" x1="1114.7" y1="150.3" x2="1117.2" y2="150.3" gradientUnits="userSpaceOnUse">
			<stop offset="0" stop-color="#9cfffb"/>
			<stop offset="1" stop-color="#9bfffa"/>
		</linearGradient>
		<linearGradient id="g84" x1="1111.5" y1="147.3" x2="1114" y2="147.3" gradientUnits="userSpaceOnUse">
			<stop offset="0" stop-color="#9cfffb"/>
			<stop offset="1" stop-color="#9bfffa"/>
		</linearGradient>
		<linearGradient id="g85" x1="1108.3" y1="144.4" x2="1110.9" y2="144.4" gradientUnits="userSpaceOnUse">
			<stop offset="0" stop-color="#9cfffb"/>
			<stop offset="1" stop-color="#9bfffa"/>
		</linearGradient>
		<linearGradient id="g86" x1="1105.1" y1="141.5" x2="1107.6" y2="141.5" gradientUnits="userSpaceOnUse">
			<stop offset="0" stop-color="#9cfffb"/>
			<stop offset="1" stop-color="#9bfffa"/>
		</linearGradient>
		<linearGradient id="g87" x1="1101.8" y1="138.7" x2="1104.3" y2="138.7" gradientUnits="userSpaceOnUse">
			<stop offset="0" stop-color="#9cfffb"/>
			<stop offset="1" stop-color="#9bfffa"/>
		</linearGradient>
		<linearGradient id="g88" x1="1098.4" y1="135.9" x2="1101" y2="135.9" gradientUnits="userSpaceOnUse">
			<stop offset="0" stop-color="#9cfffb"/>
			<stop offset="1" stop-color="#9bfffa"/>
		</linearGradient>
		<linearGradient id="g89" x1="1095" y1="133.3" x2="1097.6" y2="133.3" gradientUnits="userSpaceOnUse">
			<stop offset="0" stop-color="#9cfffb"/>
			<stop offset="1" stop-color="#9bfffa"/>
		</linearGradient>
		<linearGradient id="g90" x1="1091.5" y1="130.7" x2="1094.1" y2="130.7" gradientUnits="userSpaceOnUse">
			<stop offset="0" stop-color="#9cfffb"/>
			<stop offset="1" stop-color="#9bfffa"/>
		</linearGradient>
		<linearGradient id="g91" x1="1087.9" y1="128.2" x2="1090.5" y2="128.2" gradientUnits="userSpaceOnUse">
			<stop offset="0" stop-color="#9cfffb"/>
			<stop offset="1" stop-color="#9bfffa"/>
		</linearGradient>
		<linearGradient id="g92" x1="1084.2" y1="125.8" x2="1086.8" y2="125.8" gradientUnits="userSpaceOnUse">
			<stop offset="0" stop-color="#9cfffb"/>
			<stop offset="1" stop-color="#9bfffa"/>
		</linearGradient>
		<linearGradient id="g93" x1="1080.5" y1="123.5" x2="1083.1" y2="123.5" gradientUnits="userSpaceOnUse">
			<stop offset="0" stop-color="#9cfffb"/>
			<stop offset="1" stop-color="#9bfffa"/>
		</linearGradient>
		<linearGradient id="g94" x1="1076.6" y1="121.3" x2="1079.3" y2="121.3" gradientUnits="userSpaceOnUse">
			<stop offset="0" stop-color="#9cfffb"/>
			<stop offset="1" stop-color="#9bfffa"/>
		</linearGradient>
		<linearGradient id="g95" x1="1072.7" y1="119.3" x2="1075.3" y2="119.3" gradientUnits="userSpaceOnUse">
			<stop offset="0" stop-color="#9cfffb"/>
			<stop offset="1" stop-color="#9bfffa"/>
		</linearGradient>
		<linearGradient id="g96" x1="1068.7" y1="117.4" x2="1071.3" y2="117.4" gradientUnits="userSpaceOnUse">
			<stop offset="0" stop-color="#9cfffb"/>
			<stop offset="1" stop-color="#9bfffa"/>
		</linearGradient>
		<linearGradient id="g97" x1="1064.6" y1="115.7" x2="1067.3" y2="115.7" gradientUnits="userSpaceOnUse">
			<stop offset="0" stop-color="#9cfffb"/>
			<stop offset="1" stop-color="#9bfffa"/>
		</linearGradient>
		<linearGradient id="g98" x1="1060.4" y1="114.1" x2="1063.1" y2="114.1" gradientUnits="userSpaceOnUse">
			<stop offset="0" stop-color="#9cfffb"/>
			<stop offset="1" stop-color="#9bfffa"/>
		</linearGradient>
		<linearGradient id="g99" x1="1056.2" y1="112.6" x2="1058.9" y2="112.6" gradientUnits="userSpaceOnUse">
			<stop offset="0" stop-color="#9cfffb"/>
			<stop offset="1" stop-color="#9bfffa"/>
		</linearGradient>
		<linearGradient id="g100" x1="1052" y1="111.3" x2="1054.7" y2="111.3" gradientUnits="userSpaceOnUse">
			<stop offset="0" stop-color="#9cfffb"/>
			<stop offset="1" stop-color="#9bfffa"/>
		</linearGradient>
		<linearGradient id="g101" x1="1047.6" y1="110.1" x2="1050.4" y2="110.1" gradientUnits="userSpaceOnUse">
			<stop offset="0" stop-color="#9cfffb"/>
			<stop offset="1" stop-color="#9bfffa"/>
		</linearGradient>
		<linearGradient id="g102" x1="1043.3" y1="109" x2="1046" y2="109" gradientUnits="userSpaceOnUse">
			<stop offset="0" stop-color="#9cfffb"/>
			<stop offset="1" stop-color="#9bfffa"/>
		</linearGradient>
		<linearGradient id="g103" x1="1038.9" y1="108.1" x2="1041.7" y2="108.1" gradientUnits="userSpaceOnUse">
			<stop offset="0" stop-color="#9cfffb"/>
			<stop offset="1" stop-color="#9bfffa"/>
		</linearGradient>
		<linearGradient id="g104" x1="1034.4" y1="107.3" x2="1037.2" y2="107.3" gradientUnits="userSpaceOnUse">
			<stop offset="0" stop-color="#9cfffb"/>
			<stop offset="1" stop-color="#9bfffa"/>
		</linearGradient>
		<linearGradient id="g105" x1="1029.9" y1="106.6" x2="1032.8" y2="106.6" gradientUnits="userSpaceOnUse">
			<stop offset="0" stop-color="#9cfffb"/>
			<stop offset="1" stop-color="#9bfffa"/>
		</linearGradient>
		<linearGradient id="g106" x1="1025.5" y1="106.1" x2="1028.3" y2="106.1" gradientUnits="userSpaceOnUse">
			<stop offset="0" stop-color="#9cfffb"/>
			<stop offset="1" stop-color="#9bfffa"/>
		</linearGradient>
		<linearGradient id="g107" x1="1020.9" y1="105.8" x2="1023.8" y2="105.8" gradientUnits="userSpaceOnUse">
			<stop offset="0" stop-color="#9cfffb"/>
			<stop offset="1" stop-color="#9bfffa"/>
		</linearGradient>
		<linearGradient id="g108" x1="1016.4" y1="105.6" x2="1019.3" y2="105.6" gradientUnits="userSpaceOnUse">
			<stop offset="0" stop-color="#9cfffb"/>
			<stop offset="1" stop-color="#9bfffa"/>
		</linearGradient>
		<linearGradient id="g109" x1="1011.9" y1="105.5" x2="1014.8" y2="105.5" gradientUnits="userSpaceOnUse">
			<stop offset="0" stop-color="#9cfffb"/>
			<stop offset="1" stop-color="#9bfffa"/>
		</linearGradient>
		<linearGradient id="g110" x1="1007.4" y1="105.6" x2="1010.3" y2="105.6" gradientUnits="userSpaceOnUse">
			<stop offset="0" stop-color="#9cfffb"/>
			<stop offset="1" stop-color="#9bfffa"/>
		</linearGradient>
		<linearGradient id="g111" x1="1002.9" y1="105.8" x2="1005.8" y2="105.8" gradientUnits="userSpaceOnUse">
			<stop offset="0" stop-color="#9cfffb"/>
			<stop offset="1" stop-color="#9bfffa"/>
		</linearGradient>
		<linearGradient id="g112" x1="998.4" y1="106.1" x2="1001.3" y2="106.1" gradientUnits="userSpaceOnUse">
			<stop offset="0" stop-color="#9cfffb"/>
			<stop offset="1" stop-color="#9bfffa"/>
		</linearGradient>
		<linearGradient id="g113" x1="994" y1="106.6" x2="996.8" y2="106.6" gradientUnits="userSpaceOnUse">
			<stop offset="0" stop-color="#9cfffb"/>
			<stop offset="1" stop-color="#9bfffa"/>
		</linearGradient>
		<linearGradient id="g114" x1="989.5" y1="107.3" x2="992.3" y2="107.3" gradientUnits="userSpaceOnUse">
			<stop offset="0" stop-color="#9cfffb"/>
			<stop offset="1" stop-color="#9bfffa"/>
		</linearGradient>
		<linearGradient id="g115" x1="985.1" y1="108.1" x2="987.8" y2="108.1" gradientUnits="userSpaceOnUse">
			<stop offset="0" stop-color="#9cfffb"/>
			<stop offset="1" stop-color="#9bfffa"/>
		</linearGradient>
		<linearGradient id="g116" x1="980.8" y1="109.1" x2="983.5" y2="109.1" gradientUnits="userSpaceOnUse">
			<stop offset="0" stop-color="#9cfffb"/>
			<stop offset="1" stop-color="#9bfffa"/>
		</linearGradient>
		<linearGradient id="g117" x1="976.5" y1="110.4" x2="979.1" y2="110.4" gradientUnits="userSpaceOnUse">
			<stop offset="0" stop-color="#9cfffb"/>
			<stop offset="1" stop-color="#9bfffa"/>
		</linearGradient>
		<linearGradient id="g118" x1="972.3" y1="111.8" x2="974.9" y2="111.8" gradientUnits="userSpaceOnUse">
			<stop offset="0" stop-color="#9cfffb"/>
			<stop offset="1" stop-color="#9bfffa"/>
		</linearGradient>
		<linearGradient id="g119" x1="968.2" y1="113.4" x2="970.7" y2="113.4" gradientUnits="userSpaceOnUse">
			<stop offset="0" stop-color="#9cfffb"/>
			<stop offset="1" stop-color="#9bfffa"/>
		</linearGradient>
		<linearGradient id="g120" x1="964.2" y1="115.2" x2="966.6" y2="115.2" gradientUnits="userSpaceOnUse">
			<stop offset="0" stop-color="#9cfffb"/>
			<stop offset="1" stop-color="#9bfffa"/>
		</linearGradient>
		<linearGradient id="g121" x1="960.3" y1="117.3" x2="962.7" y2="117.3" gradientUnits="userSpaceOnUse">
			<stop offset="0" stop-color="#9cfffb"/>
			<stop offset="1" stop-color="#9bfffa"/>
		</linearGradient>
		<linearGradient id="g122" x1="956.7" y1="119.7" x2="959" y2="119.7" gradientUnits="userSpaceOnUse">
			<stop offset="0" stop-color="#9cfffb"/>
			<stop offset="1" stop-color="#9bfffa"/>
		</linearGradient>
		<linearGradient id="g123" x1="953.2" y1="122.3" x2="955.5" y2="122.3" gradientUnits="userSpaceOnUse">
			<stop offset="0" stop-color="#9cfffb"/>
			<stop offset="1" stop-color="#9bfffa"/>
		</linearGradient>
		<linearGradient id="g124" x1="950.1" y1="125.1" x2="952.2" y2="125.1" gradientUnits="userSpaceOnUse">
			<stop offset="0" stop-color="#9cfffb"/>
			<stop offset="1" stop-color="#9bfffa"/>
		</linearGradient>
		<linearGradient id="g125" x1="947.2" y1="128.3" x2="949.2" y2="128.3" gradientUnits="userSpaceOnUse">
			<stop offset="0" stop-color="#9cfffb"/>
			<stop offset="1" stop-color="#9bfffa"/>
		</linearGradient>
		<linearGradient id="g126" x1="944.7" y1="131.6" x2="946.6" y2="131.6" gradientUnits="userSpaceOnUse">
			<stop offset="0" stop-color="#9cfffb"/>
			<stop offset="1" stop-color="#9bfffa"/>
		</linearGradient>
		<linearGradient id="g127" x1="942.6" y1="135.2" x2="944.3" y2="135.2" gradientUnits="userSpaceOnUse">
			<stop offset="0" stop-color="#9cfffb"/>
			<stop offset="1" stop-color="#9bfffa"/>
		</linearGradient>
		<linearGradient id="g128" x1="940.8" y1="139" x2="942.5" y2="139" gradientUnits="userSpaceOnUse">
			<stop offset="0" stop-color="#9cfffb"/>
			<stop offset="1" stop-color="#9bfffa"/>
		</linearGradient>
		<linearGradient id="g129" x1="939.5" y1="142.9" x2="941" y2="142.9" gradientUnits="userSpaceOnUse">
			<stop offset="0" stop-color="#9cfffb"/>
			<stop offset="1" stop-color="#9bfffa"/>
		</linearGradient>
		<linearGradient id="g130" x1="938.5" y1="146.9" x2="939.9" y2="146.9" gradientUnits="userSpaceOnUse">
			<stop offset="0" stop-color="#9cfffb"/>
			<stop offset="1" stop-color="#9bfffa"/>
		</linearGradient>
		<linearGradient id="g131" x1="937.9" y1="151" x2="939.2" y2="151" gradientUnits="userSpaceOnUse">
			<stop offset="0" stop-color="#9cfffb"/>
			<stop offset="1" stop-color="#9bfffa"/>
		</linearGradient>
		<linearGradient id="g132" x1="937.7" y1="155.1" x2="938.9" y2="155.1" gradientUnits="userSpaceOnUse">
			<stop offset="0" stop-color="#9cfffb"/>
			<stop offset="1" stop-color="#9bfffa"/>
		</linearGradient>
		<linearGradient id="g133" x1="937.8" y1="159.3" x2="939" y2="159.3" gradientUnits="userSpaceOnUse">
			<stop offset="0" stop-color="#9cfffb"/>
			<stop offset="1" stop-color="#9bfffa"/>
		</linearGradient>
		<linearGradient id="g134" x1="938.3" y1="163.4" x2="939.6" y2="163.4" gradientUnits="userSpaceOnUse">
			<stop offset="0" stop-color="#9cfffb"/>
			<stop offset="1" stop-color="#9bfffa"/>
		</linearGradient>
		<linearGradient id="g135" x1="939.1" y1="167.5" x2="940.5" y2="167.5" gradientUnits="userSpaceOnUse">
			<stop offset="0" stop-color="#9cfffb"/>
			<stop offset="1" stop-color="#9bfffa"/>
		</linearGradient>
		<linearGradient id="g136" x1="940.3" y1="171.5" x2="941.8" y2="171.5" gradientUnits="userSpaceOnUse">
			<stop offset="0" stop-color="#9cfffb"/>
			<stop offset="1" stop-color="#9bfffa"/>
		</linearGradient>
		<linearGradient id="g137" x1="941.9" y1="175.3" x2="943.5" y2="175.3" gradientUnits="userSpaceOnUse">
			<stop offset="0" stop-color="#9cfffb"/>
			<stop offset="1" stop-color="#9bfffa"/>
		</linearGradient>
		<linearGradient id="g138" x1="943.9" y1="179.1" x2="945.5" y2="179.1" gradientUnits="userSpaceOnUse">
			<stop offset="0" stop-color="#9cfffb"/>
			<stop offset="1" stop-color="#9bfffa"/>
		</linearGradient>
		<linearGradient id="g139" x1="946.2" y1="182.6" x2="947.9" y2="182.6" gradientUnits="userSpaceOnUse">
			<stop offset="0" stop-color="#9cfffb"/>
			<stop offset="1" stop-color="#9bfffa"/>
		</linearGradient>
		<linearGradient id="g140" x1="948.9" y1="185.9" x2="950.7" y2="185.9" gradientUnits="userSpaceOnUse">
			<stop offset="0" stop-color="#9cfffb"/>
			<stop offset="1" stop-color="#9bfffa"/>
		</linearGradient>
		<linearGradient id="g141" x1="952" y1="189" x2="953.9" y2="189" gradientUnits="userSpaceOnUse">
			<stop offset="0" stop-color="#9cfffb"/>
			<stop offset="1" stop-color="#9bfffa"/>
		</linearGradient>
		<linearGradient id="g142" x1="955.4" y1="191.8" x2="957.3" y2="191.8" gradientUnits="userSpaceOnUse">
			<stop offset="0" stop-color="#9cfffb"/>
			<stop offset="1" stop-color="#9bfffa"/>
		</linearGradient>
		<linearGradient id="g143" x1="959.1" y1="194.2" x2="961" y2="194.2" gradientUnits="userSpaceOnUse">
			<stop offset="0" stop-color="#9cfffb"/>
			<stop offset="1" stop-color="#9bfffa"/>
		</linearGradient>
		<linearGradient id="g144" x1="963" y1="196.3" x2="965" y2="196.3" gradientUnits="userSpaceOnUse">
			<stop offset="0" stop-color="#9cfffb"/>
			<stop offset="1" stop-color="#9bfffa"/>
		</linearGradient>
		<linearGradient id="g145" x1="967.1" y1="198.1" x2="969.1" y2="198.1" gradientUnits="userSpaceOnUse">
			<stop offset="0" stop-color="#9cfffb"/>
			<stop offset="1" stop-color="#9bfffa"/>
		</linearGradient>
		<linearGradient id="g146" x1="971.4" y1="199.5" x2="973.4" y2="199.5" gradientUnits="userSpaceOnUse">
			<stop offset="0" stop-color="#9cfffb"/>
			<stop offset="1" stop-color="#9bfffa"/>
		</linearGradient>
		<linearGradient id="g147" x1="975.7" y1="200.6" x2="977.8" y2="200.6" gradientUnits="userSpaceOnUse">
			<stop offset="0" stop-color="#9cfffb"/>
			<stop offset="1" stop-color="#9bfffa"/>
		</linearGradient>
		<linearGradient id="g148" x1="980.2" y1="201.4" x2="982.2" y2="201.4" gradientUnits="userSpaceOnUse">
			<stop offset="0" stop-color="#9cfffb"/>
			<stop offset="1" stop-color="#9bfffa"/>
		</linearGradient>
		<linearGradient id="g149" x1="984.7" y1="201.8" x2="986.7" y2="201.8" gradientUnits="userSpaceOnUse">
			<stop offset="0" stop-color="#9cfffb"/>
			<stop offset="1" stop-color="#9bfffa"/>
		</linearGradient>
		<linearGradient id="g150" x1="989.2" y1="201.8" x2="991.2" y2="201.8" gradientUnits="userSpaceOnUse">
			<stop offset="0" stop-color="#9cfffb"/>
			<stop offset="1" stop-color="#9bfffa"/>
		</linearGradient>
		<linearGradient id="g151" x1="993.7" y1="201.4" x2="995.7" y2="201.4" gradientUnits="userSpaceOnUse">
			<stop offset="0" stop-color="#9cfffb"/>
			<stop offset="1" stop-color="#9bfffa"/>
		</linearGradient>
		<linearGradient id="g152" x1="998.2" y1="200.7" x2="1000.1" y2="200.7" gradientUnits="userSpaceOnUse">
			<stop offset="0" stop-color="#9cfffb"/>
			<stop offset="1" stop-color="#9bfffa"/>
		</linearGradient>
		<linearGradient id="g153" x1="1002.6" y1="199.5" x2="1004.4" y2="199.5" gradientUnits="userSpaceOnUse">
			<stop offset="0" stop-color="#9cfffb"/>
			<stop offset="1" stop-color="#9bfffa"/>
		</linearGradient>
		<linearGradient id="g154" x1="1006.9" y1="198.1" x2="1008.6" y2="198.1" gradientUnits="userSpaceOnUse">
			<stop offset="0" stop-color="#9cfffb"/>
			<stop offset="1" stop-color="#9bfffa"/>
		</linearGradient>
		<linearGradient id="g155" x1="1011" y1="196.2" x2="1012.6" y2="196.2" gradientUnits="userSpaceOnUse">
			<stop offset="0" stop-color="#9cfffb"/>
			<stop offset="1" stop-color="#9bfffa"/>
		</linearGradient>
		<linearGradient id="g156" x1="1014.9" y1="194.2" x2="1016.2" y2="194.2" gradientUnits="userSpaceOnUse">
			<stop offset="0" stop-color="#9cfffb"/>
			<stop offset="1" stop-color="#9bfffa"/>
		</linearGradient>
		<linearGradient id="g157" x1="1257.5" y1="162.3" x2="1283.9" y2="272.7" gradientUnits="userSpaceOnUse">
			<stop offset="0" stop-color="#53d8ff"/>
			<stop offset="1" stop-color="#3840f7"/>
		</linearGradient>
		<linearGradient id="g158" x1="1279.3" y1="315.9" x2="1279.7" y2="302.7" gradientUnits="userSpaceOnUse">
			<stop offset="0" stop-color="#7c27dd"/>
			<stop offset="1" stop-color="#2b41d9"/>
		</linearGradient>
		<linearGradient id="g159" x1="1299.3" y1="286.1" x2="1276.8" y2="303.7" gradientUnits="userSpaceOnUse">
			<stop offset="0" stop-color="#53d8ff"/>
			<stop offset="1" stop-color="#3840f7"/>
		</linearGradient>
		<linearGradient id="g160" x1="1281" y1="282.6" x2="1282.5" y2="295.7" gradientUnits="userSpaceOnUse">
			<stop offset="0" stop-color="#f9b776"/>
			<stop offset="1" stop-color="#f47960"/>
		</linearGradient>
		<linearGradient id="g161" x1="1253.8" y1="291.7" x2="1280.6" y2="312.8" gradientUnits="userSpaceOnUse">
			<stop offset="0" stop-color="#53d8ff"/>
			<stop offset="1" stop-color="#3840f7"/>
		</linearGradient>
		<linearGradient id="g162" x1="1270" y1="324.3" x2="1269.6" y2="310.9" gradientUnits="userSpaceOnUse">
			<stop offset="0" stop-color="#7c27dd"/>
			<stop offset="1" stop-color="#2b41d9"/>
		</linearGradient>
		<linearGradient id="g163" x1="1263.8" y1="284.3" x2="1265.2" y2="296.5" gradientUnits="userSpaceOnUse">
			<stop offset="0" stop-color="#f9b776"/>
			<stop offset="1" stop-color="#f47960"/>
		</linearGradient>
		<linearGradient id="g164" x1="1287.2" y1="283.3" x2="1285.5" y2="230.2" gradientUnits="userSpaceOnUse">
			<stop offset="0" stop-color="#2c759e"/>
			<stop offset="1" stop-color="#051042"/>
		</linearGradient>
		<linearGradient id="g165" x1="1281.1" y1="160.6" x2="1306.3" y2="265.9" gradientUnits="userSpaceOnUse">
			<stop offset="0" stop-color="#53d8ff"/>
			<stop offset="1" stop-color="#3840f7"/>
		</linearGradient>
		<linearGradient id="g166" x1="1282" y1="191.3" x2="1274.6" y2="191.3" gradientUnits="userSpaceOnUse">
			<stop offset="0" stop-color="#f9b776"/>
			<stop offset="1" stop-color="#f47960"/>
		</linearGradient>
		<linearGradient id="g167" x1="1286.7" y1="153.1" x2="1313.3" y2="264.6" gradientUnits="userSpaceOnUse">
			<stop offset="0" stop-color="#53d8ff"/>
			<stop offset="1" stop-color="#3840f7"/>
		</linearGradient>
		<linearGradient id="g168" x1="1279.6" y1="235.9" x2="1289.2" y2="244.1" gradientUnits="userSpaceOnUse">
			<stop offset="0" stop-color="#f9b776"/>
			<stop offset="1" stop-color="#f47960"/>
		</linearGradient>
		<linearGradient id="g169" x1="1256.5" y1="204.1" x2="1250" y2="208.9" gradientUnits="userSpaceOnUse">
			<stop offset="0" stop-color="#2b3582"/>
			<stop offset="1" stop-color="#150e42"/>
		</linearGradient>
		<linearGradient id="g170" x1="1247.7" y1="197.2" x2="1248" y2="202.9" gradientUnits="userSpaceOnUse">
			<stop offset="0" stop-color="#f9b776"/>
			<stop offset="1" stop-color="#f47960"/>
		</linearGradient>
		<linearGradient id="g171" x1="1269.1" y1="192.9" x2="1276.7" y2="207.2" gradientUnits="userSpaceOnUse">
			<stop offset="0" stop-color="#f9b776"/>
			<stop offset="1" stop-color="#f47960"/>
		</linearGradient>
		<linearGradient id="g172" x1="1282.4" y1="186.1" x2="1269.4" y2="184" gradientUnits="userSpaceOnUse">
			<stop offset="0" stop-color="#2b3582"/>
			<stop offset="1" stop-color="#150e42"/>
		</linearGradient>
		<linearGradient id="g173" x1="1288" y1="199.9" x2="1282.6" y2="192.2" gradientUnits="userSpaceOnUse">
			<stop offset="0" stop-color="#f9b776"/>
			<stop offset="1" stop-color="#f47960"/>
		</linearGradient>
		<linearGradient id="g174" x1="1217.9" y1="258.3" x2="1209.9" y2="297.6" gradientUnits="userSpaceOnUse">
			<stop offset="0" stop-color="#53d8ff"/>
			<stop offset="1" stop-color="#3840f7"/>
		</linearGradient>
		<linearGradient id="g175" x1="1143.1" y1="196.3" x2="1159.5" y2="220.5" gradientUnits="userSpaceOnUse">
			<stop offset="0" stop-color="#53d8ff"/>
			<stop offset="1" stop-color="#3840f7"/>
		</linearGradient>
		<linearGradient id="g176" x1="1199.1" y1="187.8" x2="1199.9" y2="204.6" gradientUnits="userSpaceOnUse">
			<stop offset="0" stop-color="#53d8ff"/>
			<stop offset="1" stop-color="#3840f7"/>
		</linearGradient>
		<linearGradient id="g177" x1="1015.5" y1="198" x2="952" y2="196.6" gradientUnits="userSpaceOnUse">
			<stop offset="0" stop-color="#2b3582"/>
			<stop offset="1" stop-color="#150e42"/>
		</linearGradient>
		<linearGradient id="g178" x1="933.3" y1="238.9" x2="1055.6" y2="402.7" gradientUnits="userSpaceOnUse">
			<stop offset="0" stop-color="#53d8ff"/>
			<stop offset="1" stop-color="#3840f7"/>
		</linearGradient>
		<linearGradient id="g179" x1="1003.1" y1="202.6" x2="1004" y2="266.3" gradientUnits="userSpaceOnUse">
			<stop offset="0" stop-color="#53d8ff"/>
			<stop offset="1" stop-color="#3840f7"/>
		</linearGradient>
		<linearGradient id="g180" x1="941.2" y1="288.3" x2="904.6" y2="328.1" gradientUnits="userSpaceOnUse">
			<stop offset="0" stop-color="#2b3582"/>
			<stop offset="1" stop-color="#150e42"/>
		</linearGradient>
		<linearGradient id="g181" x1="924.2" y1="284.5" x2="927.8" y2="284.5" gradientUnits="userSpaceOnUse">
			<stop offset="0" stop-color="#f9b776"/>
			<stop offset="1" stop-color="#f47960"/>
		</linearGradient>
		<linearGradient id="g182" x1="906.5" y1="282.1" x2="912.9" y2="244.7" gradientUnits="userSpaceOnUse">
			<stop offset="0" stop-color="#2b3582"/>
			<stop offset="1" stop-color="#150e42"/>
		</linearGradient>
		<linearGradient id="g183" x1="929.5" y1="278.3" x2="892.5" y2="318.6" gradientUnits="userSpaceOnUse">
			<stop offset="0" stop-color="#2b3582"/>
			<stop offset="1" stop-color="#150e42"/>
		</linearGradient>
		<linearGradient id="g184" x1="911.3" y1="283.8" x2="914.4" y2="283.8" gradientUnits="userSpaceOnUse">
			<stop offset="0" stop-color="#f9b776"/>
			<stop offset="1" stop-color="#f47960"/>
		</linearGradient>
		<linearGradient id="g185" x1="903" y1="280.8" x2="910.2" y2="238.6" gradientUnits="userSpaceOnUse">
			<stop offset="0" stop-color="#2b3582"/>
			<stop offset="1" stop-color="#150e42"/>
		</linearGradient>
		<linearGradient id="g186" x1="893.9" y1="218.5" x2="948.5" y2="179.2" gradientUnits="userSpaceOnUse">
			<stop offset="0" stop-color="#fdf53f"/>
			<stop offset="1" stop-color="#d93c65"/>
		</linearGradient>
		<linearGradient id="g187" x1="939" y1="190.4" x2="957.4" y2="190.4" gradientUnits="userSpaceOnUse">
			<stop offset="0" stop-color="#f9b776"/>
			<stop offset="1" stop-color="#f47960"/>
		</linearGradient>
		<linearGradient id="g188" x1="950.8" y1="196.2" x2="940" y2="220.8" gradientUnits="userSpaceOnUse">
			<stop offset="0" stop-color="#f9b776"/>
			<stop offset="1" stop-color="#f47960"/>
		</linearGradient>
		<linearGradient id="g189" x1="955.9" y1="188.6" x2="960.8" y2="181.1" gradientUnits="userSpaceOnUse">
			<stop offset="0" stop-color="#f9b776"/>
			<stop offset="1" stop-color="#f47960"/>
		</linearGradient>
		<linearGradient id="g190" x1="891.9" y1="218.9" x2="948.5" y2="178.2" gradientUnits="userSpaceOnUse">
			<stop offset="0" stop-color="#fdf53f"/>
			<stop offset="1" stop-color="#d93c65"/>
		</linearGradient>
		<linearGradient id="g191" x1="916.7" y1="196.8" x2="925.9" y2="196.8" gradientUnits="userSpaceOnUse">
			<stop offset="0" stop-color="#f9b776"/>
			<stop offset="1" stop-color="#f47960"/>
		</linearGradient>
		<linearGradient id="g192" x1="924.9" y1="200.5" x2="915.1" y2="194.5" gradientUnits="userSpaceOnUse">
			<stop offset="0" stop-color="#f9b776"/>
			<stop offset="1" stop-color="#f47960"/>
		</linearGradient>
		<linearGradient id="g193" x1="905" y1="-552" x2="904.7" y2="-585.9" gradientUnits="userSpaceOnUse">
			<stop offset="0" stop-color="#2b3582"/>
			<stop offset="1" stop-color="#150e42"/>
		</linearGradient>
		<linearGradient id="g194" x1="924.3" y1="199.6" x2="915.6" y2="194.4" gradientUnits="userSpaceOnUse">
			<stop offset="0" stop-color="#f9b776"/>
			<stop offset="1" stop-color="#f47960"/>
		</linearGradient>
		<linearGradient id="g195" x1="910.2" y1="243.4" x2="896.1" y2="232.1" gradientUnits="userSpaceOnUse">
			<stop offset="0" stop-color="#f9b776"/>
			<stop offset="1" stop-color="#f47960"/>
		</linearGradient>
		<linearGradient id="g196" x1="919.4" y1="236.1" x2="912.9" y2="241" gradientUnits="userSpaceOnUse">
			<stop offset="0" stop-color="#2b3582"/>
			<stop offset="1" stop-color="#150e42"/>
		</linearGradient>
		<linearGradient id="g197" x1="914.2" y1="233.4" x2="911.1" y2="235.7" gradientUnits="userSpaceOnUse">
			<stop offset="0" stop-color="#f9b776"/>
			<stop offset="1" stop-color="#f47960"/>
		</linearGradient>
	</defs>
	<style>
		.s0 { fill: #ffffff } 
		.s1 { opacity: .3;fill: url(#g1) } 
		.s2 { opacity: .5;fill: url(#g2) } 
		.s3 { fill: url(#g3) } 
		.s4 { fill: url(#g4) } 
		.s5 { fill: #f0f0f0 } 
		.s6 { fill: url(#g5) } 
		.s7 { fill: url(#g6) } 
		.s8 { fill: url(#g7) } 
		.s9 { fill: url(#g8) } 
		.s10 { fill: url(#g9) } 
		.s11 { fill: url(#g10) } 
		.s12 { fill: url(#g11) } 
		.s13 { fill: url(#g12) } 
		.s14 { fill: url(#g13) } 
		.s15 { fill: url(#g14) } 
		.s16 { fill: url(#g15) } 
		.s17 { fill: url(#g16) } 
		.s18 { fill: url(#g17) } 
		.s19 { fill: url(#g18) } 
		.s20 { fill: url(#g19) } 
		.s21 { fill: url(#g20) } 
		.s22 { fill: url(#g21) } 
		.s23 { fill: url(#g22) } 
		.s24 { fill: url(#g23) } 
		.s25 { fill: url(#g24) } 
		.s26 { fill: url(#g25) } 
		.s27 { fill: url(#g26) } 
		.s28 { fill: url(#g27) } 
		.s29 { fill: url(#g28) } 
		.s30 { fill: url(#g29) } 
		.s31 { fill: url(#g30) } 
		.s32 { fill: url(#g31) } 
		.s33 { fill: url(#g32) } 
		.s34 { fill: url(#g33) } 
		.s35 { fill: url(#g34) } 
		.s36 { fill: url(#g35) } 
		.s37 { fill: url(#g36) } 
		.s38 { fill: url(#g37) } 
		.s39 { fill: url(#g38) } 
		.s40 { fill: url(#g39) } 
		.s41 { fill: url(#g40) } 
		.s42 { fill: url(#g41) } 
		.s43 { fill: url(#g42) } 
		.s44 { fill: url(#g43) } 
		.s45 { fill: url(#g44) } 
		.s46 { fill: url(#g45) } 
		.s47 { fill: url(#g46) } 
		.s48 { fill: url(#g47) } 
		.s49 { fill: url(#g48) } 
		.s50 { fill: url(#g49) } 
		.s51 { fill: url(#g50) } 
		.s52 { fill: url(#g51) } 
		.s53 { fill: url(#g52) } 
		.s54 { fill: url(#g53) } 
		.s55 { fill: url(#g54) } 
		.s56 { fill: url(#g55) } 
		.s57 { fill: url(#g56) } 
		.s58 { fill: url(#g57) } 
		.s59 { fill: url(#g58) } 
		.s60 { fill: url(#g59) } 
		.s61 { fill: url(#g60) } 
		.s62 { fill: url(#g61) } 
		.s63 { fill: url(#g62) } 
		.s64 { fill: url(#g63) } 
		.s65 { fill: url(#g64) } 
		.s66 { fill: url(#g65) } 
		.s67 { fill: url(#g66) } 
		.s68 { fill: url(#g67) } 
		.s69 { fill: url(#g68) } 
		.s70 { fill: url(#g69) } 
		.s71 { fill: url(#g70) } 
		.s72 { fill: url(#g71) } 
		.s73 { fill: url(#g72) } 
		.s74 { fill: url(#g73) } 
		.s75 { fill: url(#g74) } 
		.s76 { fill: url(#g75) } 
		.s77 { fill: url(#g76) } 
		.s78 { fill: url(#g77) } 
		.s79 { fill: url(#g78) } 
		.s80 { fill: url(#g79) } 
		.s81 { fill: url(#g80) } 
		.s82 { fill: url(#g81) } 
		.s83 { fill: url(#g82) } 
		.s84 { fill: url(#g83) } 
		.s85 { fill: url(#g84) } 
		.s86 { fill: url(#g85) } 
		.s87 { fill: url(#g86) } 
		.s88 { fill: url(#g87) } 
		.s89 { fill: url(#g88) } 
		.s90 { fill: url(#g89) } 
		.s91 { fill: url(#g90) } 
		.s92 { fill: url(#g91) } 
		.s93 { fill: url(#g92) } 
		.s94 { fill: url(#g93) } 
		.s95 { fill: url(#g94) } 
		.s96 { fill: url(#g95) } 
		.s97 { fill: url(#g96) } 
		.s98 { fill: url(#g97) } 
		.s99 { fill: url(#g98) } 
		.s100 { fill: url(#g99) } 
		.s101 { fill: url(#g100) } 
		.s102 { fill: url(#g101) } 
		.s103 { fill: url(#g102) } 
		.s104 { fill: url(#g103) } 
		.s105 { fill: url(#g104) } 
		.s106 { fill: url(#g105) } 
		.s107 { fill: url(#g106) } 
		.s108 { fill: url(#g107) } 
		.s109 { fill: url(#g108) } 
		.s110 { fill: url(#g109) } 
		.s111 { fill: url(#g110) } 
		.s112 { fill: url(#g111) } 
		.s113 { fill: url(#g112) } 
		.s114 { fill: url(#g113) } 
		.s115 { fill: url(#g114) } 
		.s116 { fill: url(#g115) } 
		.s117 { fill: url(#g116) } 
		.s118 { fill: url(#g117) } 
		.s119 { fill: url(#g118) } 
		.s120 { fill: url(#g119) } 
		.s121 { fill: url(#g120) } 
		.s122 { fill: url(#g121) } 
		.s123 { fill: url(#g122) } 
		.s124 { fill: url(#g123) } 
		.s125 { fill: url(#g124) } 
		.s126 { fill: url(#g125) } 
		.s127 { fill: url(#g126) } 
		.s128 { fill: url(#g127) } 
		.s129 { fill: url(#g128) } 
		.s130 { fill: url(#g129) } 
		.s131 { fill: url(#g130) } 
		.s132 { fill: url(#g131) } 
		.s133 { fill: url(#g132) } 
		.s134 { fill: url(#g133) } 
		.s135 { fill: url(#g134) } 
		.s136 { fill: url(#g135) } 
		.s137 { fill: url(#g136) } 
		.s138 { fill: url(#g137) } 
		.s139 { fill: url(#g138) } 
		.s140 { fill: url(#g139) } 
		.s141 { fill: url(#g140) } 
		.s142 { fill: url(#g141) } 
		.s143 { fill: url(#g142) } 
		.s144 { fill: url(#g143) } 
		.s145 { fill: url(#g144) } 
		.s146 { fill: url(#g145) } 
		.s147 { fill: url(#g146) } 
		.s148 { fill: url(#g147) } 
		.s149 { fill: url(#g148) } 
		.s150 { fill: url(#g149) } 
		.s151 { fill: url(#g150) } 
		.s152 { fill: url(#g151) } 
		.s153 { fill: url(#g152) } 
		.s154 { fill: url(#g153) } 
		.s155 { fill: url(#g154) } 
		.s156 { fill: url(#g155) } 
		.s157 { fill: url(#g156) } 
		.s158 { fill: url(#g157) } 
		.s159 { fill: url(#g158) } 
		.s160 { fill: url(#g159) } 
		.s161 { fill: url(#g160) } 
		.s162 { fill: url(#g161) } 
		.s163 { fill: url(#g162) } 
		.s164 { fill: url(#g163) } 
		.s165 { fill: url(#g164) } 
		.s166 { fill: url(#g165) } 
		.s167 { fill: url(#g166) } 
		.s168 { fill: url(#g167) } 
		.s169 { fill: url(#g168) } 
		.s170 { fill: url(#g169) } 
		.s171 { fill: url(#g170) } 
		.s172 { fill: url(#g171) } 
		.s173 { fill: url(#g172) } 
		.s174 { fill: url(#g173) } 
		.s175 { fill: url(#g174) } 
		.s176 { fill: url(#g175) } 
		.s177 { fill: url(#g176) } 
		.s178 { opacity: .6;fill: #ffffff } 
		.s179 { fill: url(#g177) } 
		.s180 { fill: url(#g178) } 
		.s181 { opacity: .5;fill: #ffffff } 
		.s182 { fill: url(#g179) } 
		.s183 { fill: url(#g180) } 
		.s184 { fill: url(#g181) } 
		.s185 { fill: url(#g182) } 
		.s186 { fill: url(#g183) } 
		.s187 { fill: url(#g184) } 
		.s188 { fill: url(#g185) } 
		.s189 { fill: url(#g186) } 
		.s190 { fill: url(#g187) } 
		.s191 { fill: url(#g188) } 
		.s192 { fill: url(#g189) } 
		.s193 { fill: url(#g190) } 
		.s194 { fill: url(#g191) } 
		.s195 { fill: url(#g192) } 
		.s196 { fill: url(#g193) } 
		.s197 { fill: url(#g194) } 
		.s198 { fill: url(#g195) } 
		.s199 { fill: url(#g196) } 
		.s200 { fill: url(#g197) } 
	</style>
	<g id="Background">
		<path id="&lt;Path&gt;" class="s0" d="m0-113h1440v567h-1440z"/>
	</g>
	<g id="Illustration">
		<g id="&lt;Group&gt;">
			<g id="&lt;Group&gt;">
				<path id="&lt;Path&gt;" class="s1" d="m861.1 139.5c-1.5-18.2 11.6-36.4 23.7-50.2 12.5-14.2 31.3-20.6 51.2-17 19.3 3.5 37.8 14.6 58.1 9.1 19.1-5.3 27.4-23.1 44.5-31.1 18.3-8.6 43.2-9.8 63.4-7.2 44.8 5.5 72.5 45.4 121.2 33.4 17.3-4.2 33.9-13.1 52.4-12.2 17.7 1 33.2 11 44.7 22.3 10.9 10.7 19.3 23.9 17 38.8-3.5 23.5-30.9 37.3-29.4 62.4 1.1 19 13.4 36.8 8.8 56.1-7.3 31.1-43.8 37-74.2 31.6-27.8-5-54.8-15.6-83.6-15-28.1 0.5-54.8 9.5-81.4 16.4-38.5 9.9-78.3 12.2-118.2 10.6-23.6-0.9-56-7-63.7-29.7-9-26.1 11.4-54.4-8.2-78.6-6.8-8.3-15.5-15.9-21.1-24.8-2.8-4.5-4.7-9.4-5.2-14.9z"/>
				<path id="&lt;Path&gt;" class="s2" d="m1332.6 146c-5.3 9.3-13.8 17.1-20.3 25.8-18.8 25.2 0.8 54.6-7.8 81.7-7.5 23.6-38.6 30-61.3 30.9-38.3 1.6-76.6-0.8-113.5-11.1-25.7-7.1-51.3-16.5-78.3-17-27.7-0.6-53.6 10.4-80.3 15.6-29.3 5.7-64.3-0.5-71.4-32.9-4.4-20.1 7.4-38.5 8.5-58.3 1.5-26.1-24.9-40.5-28.3-64.9-2.1-15.4 5.9-29.2 16.4-40.4 11-11.7 25.9-22.1 42.9-23.1 17.9-1 33.8 8.3 50.4 12.7 46.8 12.4 73.4-29 116.5-34.8 19.4-2.6 43.3-1.4 60.9 7.6 16.4 8.3 24.4 26.8 42.8 32.2 19.4 5.8 37.3-5.7 55.8-9.4 19.1-3.8 37.2 3 49.2 17.7 11.6 14.4 24.2 33.2 22.8 52.2-0.5 5.7-2.4 10.8-5 15.5z"/>
			</g>
			<g id="&lt;Group&gt;">
				<g id="&lt;Group&gt;">
					<path id="&lt;Path&gt;" class="s3" d="m988.3 282.1c-11.9 2.1-27.1-9.7-32-22.7-5-13.3 4.2-18.9 4.1-37.3 0-21-12-24.2-19.9-52.5-1.8-6.4-12.1-43.4 0.7-50.3 11.8-6.4 45 12 50.8 35.5 4.2 16.8-8.6 23.8-3.7 43.4 4.3 17.1 15.6 17.4 19.9 33.9 5.3 20.1-4.3 47.1-19.9 50z"/>
					<path id="&lt;Path&gt;" class="s0" d="m986.4 287c3.2-22.5-3.1-57.2-8.9-82.5-6.2-27.3-13.4-49.6-13.4-49.9l1-0.2c0 0.2 7.2 22.5 13.5 49.9 5.8 25.3 12 60.2 8.8 82.9z"/>
				</g>
				<g id="&lt;Group&gt;">
					<path id="&lt;Path&gt;" class="s4" d="m919.7 248.5c0-9.5 10.8-14 8.5-23.8-1.9-8.5-10.7-8.9-16.5-18-8.8-14-3.4-37.3 7-40.4 9.9-3 26.9 11.6 34 27 8.3 18.1 0.5 32.1 11.1 39.5 8.3 5.8 16.9-0.1 22.8 5.5 8.9 8.3 3.6 33.8-12 41.2-20.6 9.9-55-13.9-54.9-31z"/>
					<path id="&lt;Path&gt;" class="s0" d="m965.6 285.7c-20.8-39.1-26.8-84.5-26.9-84.9 0-0.3 0.2-0.6 0.6-0.7 0.3 0 0.6 0.2 0.7 0.6 0 0.4 6.1 45.6 26.7 84.5 0.2 0.3 0.1 0.7-0.2 0.8q-0.2 0.1-0.3 0.1c-0.3 0-0.5-0.1-0.6-0.4z"/>
					<path id="&lt;Path&gt;" class="s5" d="m923.5 212.3c-11.9-14.1-12.7-24.6-11.2-31 1.6-6.9 5.9-10.4 6.1-10.6 0.2-0.1 0.3-0.1 0.5 0 0.1 0.2 0.1 0.3-0.1 0.4 0 0.1-4.4 3.6-5.9 10.3-2.6 11.3 4.6 22.9 11.1 30.5 0.1 0.1 0.1 0.3 0 0.4q-0.1 0.1-0.2 0.1-0.2 0-0.3-0.1z"/>
					<path id="&lt;Path&gt;" class="s5" d="m975.8 276.1c-0.1-0.1-0.2-0.3-0.1-0.4 9.9-13.2 13.3-23.4 10.1-30.2-2.7-5.9-9.8-7.1-9.9-7.1-0.1 0-0.2-0.1-0.2-0.3 0-0.1 0.2-0.2 0.3-0.2 0.1 0 7.5 1.2 10.4 7.4 3.3 7-0.1 17.3-10.2 30.7q-0.1 0.1-0.2 0.1-0.1 0-0.2 0z"/>
				</g>
			</g>
			<g id="&lt;Group&gt;">
				<g id="&lt;Group&gt;">
					<path id="&lt;Path&gt;" class="s6" d="m1193.1 232.1c4.3-16.5 15.6-16.8 19.9-33.9 4.9-19.6-8-26.6-3.8-43.4 5.8-23.5 39-41.9 50.8-35.5 12.8 6.9 2.5 43.9 0.7 50.3-7.9 28.3-19.8 31.5-19.9 52.5-0.1 18.4 9.1 24 4.1 37.3-4.9 13-20 24.8-31.9 22.7-15.6-2.9-25.2-29.9-19.9-50z"/>
					<path id="&lt;Path&gt;" class="s0" d="m1213.8 287.2c-3.2-22.7 3.1-57.6 8.9-82.9 6.3-27.4 13.4-49.7 13.5-49.9l1 0.2c-0.1 0.3-7.2 22.6-13.5 49.9-5.8 25.3-12 60-8.8 82.5z"/>
				</g>
				<g id="&lt;Group&gt;">
					<path id="&lt;Path&gt;" class="s7" d="m1226.7 279.5c-15.6-7.4-21-32.9-12.1-41.2 6-5.6 14.6 0.3 22.9-5.5 10.5-7.4 2.7-21.4 11.1-39.5 7-15.4 24-30 33.9-27 10.4 3.1 15.9 26.4 7 40.4-5.8 9.1-14.6 9.5-16.5 18-2.2 9.8 8.5 14.3 8.6 23.8 0.1 17.1-34.3 40.9-54.9 31z"/>
					<path id="&lt;Path&gt;" class="s0" d="m1235.1 286.1q-0.2 0-0.3-0.1c-0.3-0.1-0.5-0.5-0.3-0.8 20.7-38.9 26.7-84.1 26.8-84.5 0-0.4 0.3-0.6 0.7-0.6 0.3 0.1 0.6 0.4 0.5 0.7 0 0.4-6.1 45.8-26.9 84.9-0.1 0.3-0.3 0.4-0.5 0.4z"/>
					<path id="&lt;Path&gt;" class="s5" d="m1277.5 212.4q-0.1 0-0.2-0.1c-0.2-0.1-0.2-0.3-0.1-0.4 6.5-7.6 13.8-19.2 11.2-30.5-1.6-6.7-5.9-10.2-6-10.3-0.1-0.1-0.1-0.2 0-0.4 0.1-0.1 0.3-0.1 0.4 0 0.2 0.2 4.6 3.7 6.2 10.6 1.4 6.4 0.7 16.9-11.3 31q-0.1 0.1-0.2 0.1z"/>
					<path id="&lt;Path&gt;" class="s5" d="m1225.3 276.1q-0.2 0-0.3-0.1c-10-13.4-13.4-23.7-10.2-30.7 3-6.2 10.3-7.4 10.4-7.4 0.2 0 0.3 0.1 0.4 0.2 0 0.2-0.1 0.3-0.3 0.3-0.1 0-7.1 1.2-9.9 7.1-3.2 6.8 0.2 17 10.1 30.2 0.1 0.1 0.1 0.3-0.1 0.4q-0.1 0-0.1 0z"/>
				</g>
			</g>
			<g id="&lt;Group&gt;">
				<path id="&lt;Path&gt;" class="s8" d="m1227.6 149.4v119.3c0 8.8-8.4 15.9-18.8 15.9h-218.9c-10.4 0-18.8-7.1-18.8-15.9v-119.3z"/>
				<path id="&lt;Path&gt;" class="s9" d="m1227.9 149.5l-64.3 35.4-64.3 35.5-64.2-35.4-64.3-35.5 64.3-35.6 55.6-30.8c5.4-3 11.9-3 17.3 0l55.6 30.8z"/>
				<g id="&lt;Group&gt;" style="mix-blend-mode: soft-light">
					<g id="&lt;Group&gt;">
						<path id="&lt;Path&gt;" class="s0" d="m976.1 279.4q-0.2 0-0.3-0.1c-0.2-0.1-0.2-0.4 0-0.5l80.1-82.5c0.2-0.2 0.5-0.2 0.7-0.1 0.1 0.2 0.2 0.4 0 0.6l-80.2 82.5q-0.1 0.1-0.3 0.1z"/>
					</g>
					<g id="&lt;Group&gt;">
						<path id="&lt;Path&gt;" class="s0" d="m1222.6 279.4q-0.2 0-0.3-0.1l-80.2-82.5c-0.2-0.2-0.2-0.4 0-0.6 0.2-0.1 0.5-0.1 0.7 0.1l80.1 82.5c0.2 0.1 0.2 0.4 0 0.5q-0.1 0.1-0.3 0.1z"/>
					</g>
				</g>
			</g>
			<g id="&lt;Group&gt;">
				<g id="&lt;Group&gt;">
					<g id="&lt;Group&gt;">
						<path id="&lt;Path&gt;" class="s10" d="m1183.9 223.1q-2.6-2.9 1-4.7c3.5-1.8 9.2 0.1 9.9 3.9 0.7 3.8 4.3 1.6 5.8 0.8 1.6-0.9 6-2 7.1 2.3 0.4 1.8-0.2 3.9 0.7 5.5 1.1 2.2 4.7 1.7 6.7 2.5 2.6 1.1 4 3.2 2.6 5.7-2.1 3.8-6.2 6.2-3.9 9.5 2.2 3.3-6.7 10.7-9.8 3.8-3-6.8-7.8-5.7-11.6-6.1-3.8-0.4-5.8-3.5-4.7-6.6 1-3-0.4-4.9-1.8-6.2-1.4-1.3-6.2-6.9-2-10.4z"/>
						<g id="&lt;Group&gt;">
							<path id="&lt;Path&gt;" class="s11" d="m1185.3 268.1l-7 0.3q2.4 2.4 2.3 5.8l0.2 7.7c0 1 0.6 1.8 1.6 2l1.2 0.4-2.9 7.2h-4.3l1.7-1.5 0.9-3.8c0.1-0.6 0-1.1-0.3-1.6-5.2-8.9-6.8-18-7.2-20.8-0.1-0.5 0.2-1.1 0.7-1.4q3.3-2 6.1-2.4z"/>
							<path id="&lt;Path&gt;" class="s12" d="m1176.9 290.9q2.1 0.6 3.2-0.1 1.2-0.7 2.3-6.9 1.9-0.1 2.2 0.5 0 2.7-3.3 7.9c-2.4 1-7 0.4-6.6-0.1q0.6-0.7 2.2-1.3z"/>
							<path id="&lt;Path&gt;" class="s13" d="m1184.4 268.5q0-0.1-7.5-0.8 0.2 2.1-0.5 4.9-0.8 2.9-11.8 15.3l1.2 3.3q-5.3 1.7-10.5 0.6l7.1-3.9q6.7-20.8 10.8-24.5l7.5-2.4z"/>
							<path id="&lt;Path&gt;" class="s14" d="m1201.2 256.4q4.3 5.9 4.6 8.5c0.4 2.7-1.2 3.8-5.7 4q-4.5 0.2-16.6 0.1l-10.2-8q7.5-2.4 9.4-3.1 2-0.7 18.5-1.5z"/>
							<path id="&lt;Path&gt;" class="s15" d="m1165.4 290.1q1.2 1.1 0.4 2.3-9.9 1.6-12.5 0.9 0.5-1.2 3.5-2.5l-0.2 0.2c-0.3 0.2-0.1 0.6 0.3 0.6 1.9-0.1 6-0.5 8.5-1.5z"/>
						</g>
						<path id="&lt;Path&gt;" class="s16" d="m1189.5 255.6q-5-4.3-7.5-7.2c-1.3-1.6-1.7-3.6-1.1-5.5 1.1-3.5 3.1-7.1 3.3-7.7q0.3-0.8 5.9-0.8 11.1 6.6 15.4 17.7l-4.9 1.4q-2.8-4.5-5.7-7.3 4.9 6 5.1 8.4z"/>
						<path id="&lt;Path&gt;" class="s17" d="m1187.4 229.7l2.5 4.8c-1.5 0.9-4.6 0.7-4.7 0.6-0.1 0-1.6-4.5-1.7-4.7z"/>
						<path id="&lt;Path&gt;" class="s18" d="m1189.6 228.9c-2.7 2.2-5.2 2.3-6.9 2-1.7-0.2-3-1.8-1.2-5.3q1.8-3.5 4.4-4.5c3.5-1.2 6.4 5.5 3.7 7.8z"/>
						<path id="&lt;Path&gt;" class="s19" d="m1187.8 227q2-5.1-2.9-5.2l-1.2 0.8q-1.8-2.9 1.2-4.2c2.9-1.4 7.4-0.2 8.7 3.5 1.2 3.7 0.5 6.1-1.6 7.8q-2.1 1.8-3-0.2 1.1-1.6 0.7-2.5-0.5-0.9-1.6 0.2z"/>
						<path id="&lt;Path&gt;" class="s20" d="m1188.4 227.6q1-2.7 2.3-1.6c1.4 1-1.1 2.4-2 2.9z"/>
						<path id="&lt;Path&gt;" class="s21" d="m1179.3 256l3.7-3.3 5.1 2q5.1 0.7 8 0 2.9-0.7 2.9-0.7l6.5-1.9 1 2.7c0.3 0.6 0 1.4-0.6 1.8-0.6 0.4-1.2 0.8-1.6 0.9q-0.9 0.4-21.3-0.2z"/>
					</g>
					<g id="&lt;Group&gt;" style="mix-blend-mode: soft-light">
						<path id="&lt;Path&gt;" class="s0" d="m1206.1 227.3h-0.2q0.2-1.9-0.7-2.6c-1.3-0.9-3.8-0.2-6.1 0.4-1.2 0.4-2.3 0.7-3 0.7q-0.9 0.1-1.4-0.4c-0.6-0.6-0.6-1.5-0.6-1.5h0.2c0 0-0.1 0.9 0.5 1.4q0.5 0.4 1.3 0.4c0.7-0.1 1.8-0.4 2.9-0.7 2.3-0.7 5-1.4 6.3-0.4q1 0.7 0.8 2.7z"/>
					</g>
					<g id="&lt;Group&gt;" style="mix-blend-mode: soft-light">
						<path id="&lt;Path&gt;" class="s0" d="m1211.5 246.5c-0.4-1.5 0.7-2.8 2-4.3 0.9-1.1 1.9-2.4 2.5-3.8q0.4-1.1-0.2-2c-1.2-1.7-5.1-2.3-5.2-2.3v-0.1c0.2 0 4.1 0.5 5.4 2.3q0.6 1 0.2 2.1c-0.6 1.5-1.7 2.8-2.6 3.8-1.3 1.5-2.3 2.8-1.9 4.3z"/>
					</g>
				</g>
				<g id="&lt;Group&gt;">
					<path id="&lt;Path&gt;" class="s22" d="m1191.7 272.8h1.9v19.2h-1.9z"/>
					<path id="&lt;Path&gt;" class="s23" d="m1201.2 292.4h-17c0-0.7 0.5-1.2 1.2-1.2h14.5c0.7 0 1.3 0.5 1.3 1.2z"/>
					<rect id="&lt;Path&gt;" class="s24" x="1182.3" y="268.5" width="21.4" height="5.5" rx="9.6"></rect>
				</g>
				<g id="&lt;Group&gt;">
					<path id="&lt;Path&gt;" class="s25" d="m1193.2 257.5q0 0 0 0h-21.4c-0.5 0-0.9-0.4-0.9-0.9 0-0.5 0.4-0.9 0.9-0.9h21.4c0.5 0 1 0.4 1 0.9 0 0.5-0.5 0.9-1 0.9z"/>
					<path id="&lt;Path&gt;" class="s26" d="m1152.6 239.7h17.8c1.3 0 2.5 0.7 3.1 1.8l8.2 16h-22.1c-0.8 0-1.6-0.5-1.9-1.2l-6.4-14.8c-0.4-0.8 0.3-1.8 1.3-1.8z"/>
				</g>
				<g id="&lt;Group&gt;">
					<path id="&lt;Path&gt;" class="s27" d="m1222.6 260.3c-0.1 0.4-0.5 0.7-1 0.7h-87.2c-0.6 0-1-0.3-1.3-0.7l-0.9-1.8c-0.2-0.2-0.2-0.5 0-0.8 0.2-0.2 0.5-0.4 0.9-0.4h89.1c0.3 0 0.5 0.1 0.7 0.3 0.2 0.2 0.3 0.4 0.2 0.6z"/>
					<g id="&lt;Group&gt;">
						<path id="&lt;Path&gt;" class="s28" d="m1138.1 296q-0.2 0-0.3-0.1c-0.4-0.1-0.6-0.6-0.4-0.9l16.4-35.7c0.1-0.4 0.6-0.6 1-0.4 0.4 0.1 0.6 0.6 0.4 0.9l-16.4 35.7c-0.1 0.3-0.4 0.5-0.7 0.5z"/>
						<path id="&lt;Path&gt;" class="s29" d="m1156.6 296c-0.3 0-0.6-0.2-0.8-0.5l-16.4-35.7c-0.1-0.3 0.1-0.8 0.4-0.9 0.4-0.2 0.9 0 1.1 0.4l16.4 35.7c0.2 0.3 0 0.8-0.4 0.9q-0.2 0.1-0.3 0.1z"/>
						<path id="&lt;Path&gt;" class="s30" d="m1202.7 296q-0.2 0-0.3-0.1c-0.4-0.1-0.6-0.6-0.4-0.9l16.4-35.7c0.2-0.4 0.6-0.6 1-0.4 0.4 0.1 0.6 0.6 0.4 0.9l-16.4 35.7c-0.1 0.3-0.4 0.5-0.7 0.5z"/>
						<path id="&lt;Path&gt;" class="s31" d="m1221.2 296c-0.3 0-0.6-0.2-0.7-0.5l-16.4-35.7c-0.2-0.3 0-0.8 0.4-0.9 0.4-0.2 0.8 0 1 0.4l16.4 35.7c0.2 0.3 0 0.8-0.4 0.9q-0.2 0.1-0.3 0.1z"/>
					</g>
				</g>
			</g>
			<g id="&lt;Clip Group&gt;" clip-path="url(#cp1)">
				<g id="&lt;Group&gt;">
					<g id="&lt;Group&gt;">
						<path id="&lt;Path&gt;" class="s0" d="m1204.9 115.7v114.8h-211.1v-133.4c0-2.8 2.6-5.4 5.8-5.4h179.5z"/>
						<path id="&lt;Path&gt;" class="s32" d="m1204.8 115.7l-23.6 0.2c-0.6 0-1.1-0.3-1.5-0.7-0.5-0.4-0.5-0.9-0.5-1.5v-21.8z"/>
					</g>
					<g id="&lt;Group&gt;">
						<path id="&lt;Compound Path&gt;" fill-rule="evenodd" class="s33" d="m1145.9 162.4q0 7.5-2.6 13.7-2.6 6.2-7.4 9.8-4.8 3.5-11.2 3.5-4.2 0-7.4-1.8-3.3-1.9-4.7-4.9h-0.9q-6.2 6.7-15.7 6.7-10.1 0-15.9-5.5-5.9-5.6-5.9-15.2 0-11 7.7-17.8 7.6-6.7 20-6.7 4.9 0 10.8 0.8 5.9 0.9 9.7 2.1l-1.3 25.5q0 7.3 4.3 7.3 3.7 0 5.9-4.9 2.1-4.9 2.1-12.8 0-8.4-3.8-14.8-3.8-6.5-10.8-9.8-6.9-3.4-15.8-3.4-11.5 0-20 4.3-8.5 4.3-13.1 12.5-4.5 8.2-4.5 18.9 0 14.4 8.4 22.1 8.4 7.7 24.4 7.7 6.1 0 13.3-1.2 7.3-1.3 14.3-3.6v10q-12.2 4.7-27.1 4.7-21.7 0-33.8-10.4-12.2-10.4-12.2-29 0-12.9 6.2-23.4 6.2-10.5 17.7-16.5 11.4-6 26.3-6 12.5 0 22.4 4.7 9.9 4.7 15.3 13.4 5.3 8.6 5.3 20zm-58.4 6.5q0 11 9.8 11 5.1 0 7.8-3.3 2.7-3.3 3.3-10.8l0.7-11.5q-2.9-0.6-6.6-0.6-7.1 0-11.1 4.1-3.9 4-3.9 11.1z"/>
					</g>
				</g>
			</g>
			<g id="&lt;Group&gt;">
				<g id="&lt;Group&gt;">
					<path id="&lt;Compound Path&gt;" fill-rule="evenodd" class="s0" d="m1232.7 115.6c-0.2-20.3 17.6-37 39.7-37.2 8.2-0.1 16 2.1 22.8 6.2l2.3-2.1c0.3-0.3 0.7-0.4 1.1-0.3 0.4 0.1 0.7 0.4 0.8 0.8l4 13.2c0.1 0.4 0 0.8-0.3 1.1-0.3 0.3-0.7 0.4-1.1 0.3l-14.6-3.5c-0.4-0.1-0.7-0.4-0.8-0.8-0.1-0.3 0-0.7 0.3-1l2.6-2.4c-5.1-2.8-11-4.3-17-4.2-17.8 0.2-32 13.5-31.8 29.7 0.2 16.3 14.8 29.3 32.5 29.1 8.5-0.1 16.4-3.2 22.4-8.7 6-5.5 9.4-12.8 9.5-20.5 0-0.5 0.4-1.2 1.1-1.2h5.6c0.4 0 0.6 0.2 0.8 0.4h0.1c0.2 0.2 0.3 0.7 0.3 0.9-0.1 9.7-4.2 18.8-11.7 25.6-7.5 6.9-17.4 10.7-28 10.9-22.1 0.2-40.3-16.1-40.6-36.3zm69.9-19.1q0 0 0 0l-4-13.3q0-0.2-0.2-0.2-0.2-0.1-0.3 0.1l-2.8 2.5-0.3-0.1c-6.7-4.2-14.5-6.4-22.6-6.3-21.6 0.2-39.1 16.5-38.8 36.4 0.2 19.8 18.1 35.7 39.7 35.5 10.4-0.1 20.1-3.9 27.4-10.6 7.3-6.8 11.4-15.7 11.4-25.1 0.1-0.1 0-0.3-0.1-0.3v-0.1c-0.1 0-0.1-0.1-0.2-0.1h-5.6c-0.1 0-0.3 0.2-0.3 0.4-0.1 8-3.5 15.4-9.6 21.1-6.2 5.6-14.4 8.8-23.1 8.9-18.2 0.2-33.2-13.2-33.4-29.8-0.2-16.7 14.5-30.4 32.7-30.6 6.3-0.1 12.5 1.5 17.9 4.6l0.5 0.3-3.4 3.1q-0.1 0.1 0 0.2 0 0.2 0.2 0.2l14.5 3.5q0.2 0 0.3-0.1 0.1-0.1 0.1-0.2z"/>
				</g>
				<g id="&lt;Group&gt;">
					<path id="&lt;Compound Path&gt;" class="s0" d="m1260.6 122.4h-11.6v-2.3l4.2-3.8q1.8-1.7 2.4-2.4 0.6-0.7 0.8-1.2 0.3-0.6 0.3-1.2 0-0.9-0.6-1.4-0.5-0.4-1.5-0.4-0.9 0-1.8 0.4-0.9 0.4-1.9 1.1l-1.9-2q1.2-1 2-1.4 0.8-0.4 1.8-0.6 0.9-0.2 2.1-0.2 1.5 0 2.7 0.5 1.2 0.5 1.9 1.5 0.6 0.9 0.6 2.1 0 1.1-0.4 2-0.4 0.9-1.2 1.8-0.9 1-3 2.8l-2.1 1.8v0.2h7.2z"/>
					<path id="&lt;Compound Path&gt;" fill-rule="evenodd" class="s0" d="m1274.2 119.2h-2v3.2h-3.4v-3.2h-7.1v-2.2l7.3-9.8h3.2v9.5h2zm-5.4-2.4v-2.6q0-0.7 0.1-1.9 0-1.2 0-1.4-0.5 0.9-1.1 1.7l-3 4.2z"/>
					<path id="&lt;Compound Path&gt;" class="s0" d="m1284 107.2l-6.1 15.2h-3.2l6.2-15.2z"/>
					<path id="&lt;Compound Path&gt;" class="s0" d="m1286.7 122.4l6.2-12.5h-8.1v-2.7h11.8v2.1l-6.2 13.1z"/>
				</g>
			</g>
			<g id="&lt;Group&gt;">
				<path id="&lt;Path&gt;" class="s34" d="m1279.2 158.2c0-0.1 0.1-0.2 0.2-0.2 0.1 0 0.2 0.1 0.3 0.2l0.1 1.3c0 0.1-0.1 0.2-0.2 0.2-0.2 0-0.3-0.1-0.3-0.2l-0.1-1.2z"/>
				<path id="&lt;Path&gt;" class="s35" d="m1279.4 162.4c0-0.2 0.1-0.3 0.3-0.3 0.1 0 0.2 0.1 0.2 0.3v1.2c0 0.1-0.1 0.2-0.2 0.2-0.2 0-0.3-0.1-0.3-0.2v-1.2z"/>
				<path id="&lt;Path&gt;" class="s36" d="m1279.3 166.5c0-0.2 0.1-0.3 0.3-0.3 0.1 0 0.2 0.2 0.2 0.3l-0.1 1.2c0 0.2-0.1 0.3-0.3 0.3-0.1 0-0.3-0.2-0.2-0.3l0.1-1.2z"/>
				<path id="&lt;Path&gt;" class="s37" d="m1278.7 170.5c0.1-0.1 0.2-0.2 0.4-0.2 0.1 0 0.3 0.2 0.2 0.3l-0.2 1.3c0 0.1-0.2 0.2-0.3 0.2-0.2 0-0.3-0.2-0.3-0.3l0.2-1.3z"/>
				<path id="&lt;Path&gt;" class="s38" d="m1277.9 174.6c0-0.2 0.2-0.3 0.3-0.2 0.2 0 0.3 0.2 0.3 0.3l-0.4 1.2c0 0.2-0.2 0.3-0.4 0.2-0.1 0-0.2-0.2-0.2-0.3l0.4-1.2z"/>
				<path id="&lt;Path&gt;" class="s39" d="m1276.6 178.5c0.1-0.1 0.3-0.2 0.4-0.2 0.2 0.1 0.3 0.3 0.3 0.4l-0.5 1.2c0 0.2-0.2 0.3-0.4 0.2-0.2-0.1-0.3-0.2-0.2-0.4l0.4-1.2z"/>
				<path id="&lt;Path&gt;" class="s40" d="m1275.1 182.4c0-0.2 0.2-0.3 0.4-0.2 0.2 0.1 0.3 0.3 0.2 0.4l-0.5 1.2c-0.1 0.2-0.3 0.2-0.5 0.2-0.2-0.1-0.3-0.3-0.2-0.5l0.5-1.1z"/>
				<path id="&lt;Path&gt;" class="s41" d="m1273.2 186.1c0.1-0.2 0.3-0.2 0.5-0.2 0.2 0.1 0.3 0.3 0.2 0.5l-0.7 1.1c-0.1 0.2-0.3 0.3-0.5 0.2-0.2-0.1-0.3-0.3-0.2-0.5l0.7-1.1z"/>
				<path id="&lt;Path&gt;" class="s42" d="m1271 189.7c0.1-0.2 0.4-0.2 0.6-0.1 0.2 0.1 0.2 0.3 0.1 0.5l-0.7 1c-0.1 0.2-0.4 0.3-0.6 0.2-0.2-0.1-0.2-0.4-0.1-0.6l0.7-1z"/>
				<path id="&lt;Path&gt;" class="s43" d="m1268.5 193.1c0.2-0.2 0.4-0.2 0.6-0.1 0.2 0.1 0.3 0.4 0.1 0.6l-0.8 1c-0.1 0.2-0.4 0.2-0.6 0.1-0.2-0.1-0.2-0.4-0.1-0.6l0.8-1z"/>
				<path id="&lt;Path&gt;" class="s44" d="m1265.8 196.4c0.2-0.2 0.5-0.2 0.6-0.1 0.2 0.2 0.3 0.4 0.1 0.6l-0.9 1c-0.1 0.1-0.4 0.2-0.6 0-0.2-0.1-0.2-0.4-0.1-0.6l0.9-0.9z"/>
				<path id="&lt;Path&gt;" class="s45" d="m1262.8 199.4c0.2-0.2 0.5-0.2 0.7 0 0.2 0.2 0.2 0.5 0 0.6l-1 0.9c-0.1 0.2-0.5 0.2-0.6 0-0.2-0.1-0.2-0.4 0-0.6l0.9-0.9z"/>
				<path id="&lt;Path&gt;" class="s46" d="m1259.6 202.2c0.2-0.1 0.5-0.1 0.7 0.1 0.2 0.2 0.1 0.5-0.1 0.6l-1 0.9c-0.2 0.1-0.5 0.1-0.7-0.1-0.2-0.2-0.2-0.5 0-0.6h0.1l1-0.8z"/>
				<path id="&lt;Path&gt;" class="s47" d="m1256.1 204.8c0.2-0.1 0.6-0.1 0.7 0.1 0.2 0.2 0.2 0.5-0.1 0.7l-1.1 0.8c-0.2 0.1-0.5 0.1-0.7-0.1-0.2-0.3-0.1-0.6 0.1-0.7l1.1-0.8z"/>
				<path id="&lt;Path&gt;" class="s48" d="m1252.4 207.2c0.3-0.2 0.6-0.1 0.8 0.1 0.1 0.3 0.1 0.6-0.2 0.7l-1.1 0.7c-0.3 0.1-0.6 0-0.8-0.2-0.2-0.2-0.1-0.5 0.2-0.7l1.1-0.6z"/>
				<path id="&lt;Path&gt;" class="s49" d="m1248.6 209.2c0.2-0.1 0.6 0 0.7 0.2 0.2 0.3 0 0.6-0.2 0.7l-1.2 0.6c-0.3 0.1-0.7 0-0.8-0.2-0.1-0.3 0-0.6 0.2-0.7h0.1l1.2-0.6z"/>
				<path id="&lt;Path&gt;" class="s50" d="m1244.5 210.9c0.3-0.1 0.7 0.1 0.8 0.3 0.1 0.3-0.1 0.6-0.3 0.7l-1.3 0.5c-0.3 0.1-0.7 0-0.8-0.3-0.1-0.3 0.1-0.6 0.4-0.7l1.2-0.5z"/>
				<path id="&lt;Path&gt;" class="s51" d="m1240.3 212.3c0.3 0 0.7 0.1 0.8 0.4 0.1 0.3-0.1 0.6-0.4 0.7l-1.3 0.3c-0.3 0.1-0.7 0-0.8-0.3-0.1-0.3 0.1-0.6 0.4-0.7l1.3-0.4z"/>
				<path id="&lt;Path&gt;" class="s52" d="m1236 213.4c0.3 0 0.7 0.2 0.7 0.5 0.1 0.2-0.1 0.5-0.4 0.6l-1.3 0.3c-0.4 0.1-0.7-0.1-0.8-0.4 0-0.3 0.2-0.6 0.5-0.7l1.3-0.3z"/>
				<path id="&lt;Path&gt;" class="s53" d="m1231.6 214.2c0.4 0 0.7 0.2 0.7 0.5 0.1 0.3-0.1 0.6-0.5 0.6l-1.3 0.2c-0.4 0.1-0.7-0.1-0.7-0.4-0.1-0.3 0.1-0.6 0.5-0.7l1.3-0.2z"/>
				<path id="&lt;Path&gt;" class="s54" d="m1227.2 214.7c0.3 0 0.6 0.2 0.7 0.6 0 0.3-0.3 0.5-0.6 0.6l-1.4 0.1c-0.3 0-0.6-0.2-0.6-0.6-0.1-0.3 0.2-0.5 0.5-0.6h0.1l1.3-0.1z"/>
				<path id="&lt;Path&gt;" class="s55" d="m1222.7 214.9c0.4 0 0.7 0.3 0.7 0.6 0 0.3-0.3 0.6-0.7 0.6h-1.3c-0.4 0-0.7-0.2-0.7-0.6 0-0.3 0.3-0.5 0.7-0.5l1.3-0.1z"/>
				<path id="&lt;Path&gt;" class="s56" d="m1218.3 214.9c0.3 0 0.6 0.3 0.6 0.6 0 0.3-0.3 0.6-0.7 0.6l-1.4-0.1c-0.3 0-0.6-0.3-0.6-0.6 0-0.4 0.3-0.6 0.7-0.6l1.3 0.1z"/>
				<path id="&lt;Path&gt;" class="s57" d="m1213.8 214.6c0.4 0 0.6 0.3 0.6 0.6-0.1 0.4-0.4 0.6-0.8 0.6l-1.3-0.2c-0.4 0-0.6-0.3-0.6-0.6 0-0.4 0.4-0.6 0.7-0.6h0.1l1.3 0.2z"/>
				<path id="&lt;Path&gt;" class="s58" d="m1209.4 214c0.3 0.1 0.6 0.4 0.5 0.7 0 0.4-0.4 0.6-0.8 0.5l-1.3-0.2c-0.4 0-0.6-0.4-0.6-0.7 0.1-0.3 0.4-0.6 0.8-0.5l1.4 0.2z"/>
				<path id="&lt;Path&gt;" class="s59" d="m1205 213.2c0.3 0.1 0.6 0.4 0.5 0.8-0.1 0.3-0.5 0.5-0.8 0.4l-1.4-0.2c-0.3-0.1-0.6-0.5-0.5-0.8 0.1-0.3 0.5-0.5 0.8-0.5h0.1l1.3 0.3z"/>
				<path id="&lt;Path&gt;" class="s60" d="m1200.6 212.2c0.4 0.1 0.6 0.5 0.5 0.8-0.1 0.3-0.5 0.5-0.9 0.4l-1.3-0.3c-0.4-0.1-0.6-0.5-0.5-0.8 0.1-0.3 0.5-0.5 0.9-0.4l1.3 0.3z"/>
				<path id="&lt;Path&gt;" class="s61" d="m1196.3 211c0.4 0.1 0.6 0.5 0.5 0.8-0.1 0.4-0.5 0.6-0.9 0.4l-1.3-0.4c-0.4-0.1-0.6-0.5-0.5-0.8 0.2-0.3 0.6-0.5 1-0.4l1.2 0.4z"/>
				<path id="&lt;Path&gt;" class="s62" d="m1192.1 209.6c0.4 0.1 0.6 0.5 0.4 0.9-0.1 0.3-0.5 0.5-0.9 0.3l-1.3-0.4c-0.4-0.2-0.5-0.6-0.4-0.9 0.2-0.3 0.6-0.5 1-0.4l1.2 0.5z"/>
				<path id="&lt;Path&gt;" class="s63" d="m1188 208c0.4 0.2 0.5 0.6 0.4 0.9-0.2 0.3-0.6 0.5-1 0.3l-1.3-0.5c-0.3-0.1-0.5-0.5-0.3-0.9 0.1-0.3 0.6-0.5 1-0.3l1.2 0.5z"/>
				<path id="&lt;Path&gt;" class="s64" d="m1184 206.2c0.3 0.2 0.5 0.6 0.3 1-0.2 0.3-0.7 0.4-1 0.3l-1.2-0.6c-0.4-0.2-0.6-0.6-0.4-0.9 0.2-0.4 0.7-0.5 1-0.3h0.1l1.2 0.5z"/>
				<path id="&lt;Path&gt;" class="s65" d="m1180 204.3c0.4 0.2 0.5 0.6 0.3 1-0.2 0.3-0.7 0.4-1 0.2l-1.2-0.6c-0.4-0.2-0.5-0.6-0.3-1 0.2-0.3 0.7-0.4 1-0.2l1.2 0.6z"/>
				<path id="&lt;Path&gt;" class="s66" d="m1176.1 202.2c0.4 0.2 0.5 0.7 0.3 1-0.2 0.3-0.7 0.4-1.1 0.2l-1.1-0.6c-0.4-0.3-0.5-0.7-0.3-1 0.3-0.3 0.7-0.4 1.1-0.2l1.1 0.6z"/>
				<path id="&lt;Path&gt;" class="s67" d="m1172.4 200c0.3 0.2 0.4 0.7 0.2 1-0.3 0.3-0.7 0.4-1.1 0.2l-1.1-0.7c-0.4-0.2-0.5-0.7-0.2-1 0.2-0.3 0.7-0.4 1-0.2l1.2 0.7z"/>
				<path id="&lt;Path&gt;" class="s68" d="m1168.7 197.7c0.3 0.2 0.4 0.6 0.1 1-0.2 0.3-0.7 0.3-1 0.1l-1.1-0.7c-0.4-0.2-0.5-0.7-0.2-1 0.2-0.3 0.7-0.4 1.1-0.2l1.1 0.8z"/>
				<path id="&lt;Path&gt;" class="s69" d="m1165.1 195.2c0.3 0.3 0.4 0.7 0.1 1-0.3 0.3-0.7 0.4-1.1 0.1l-1.1-0.7c-0.3-0.3-0.4-0.7-0.1-1 0.3-0.3 0.7-0.4 1.1-0.1l1.1 0.7z"/>
				<path id="&lt;Path&gt;" class="s70" d="m1161.5 192.7c0.4 0.2 0.4 0.7 0.2 1-0.3 0.3-0.8 0.3-1.2 0.1l-1-0.8c-0.3-0.3-0.4-0.7-0.1-1 0.3-0.3 0.8-0.4 1.1-0.1l1 0.8z"/>
				<path id="&lt;Path&gt;" class="s71" d="m1158.1 190c0.3 0.3 0.4 0.7 0.1 1-0.3 0.3-0.8 0.4-1.1 0.1l-1.1-0.8c-0.3-0.3-0.3-0.7-0.1-1 0.3-0.3 0.8-0.3 1.2-0.1l1 0.8z"/>
				<path id="&lt;Path&gt;" class="s72" d="m1154.7 187.3c0.3 0.3 0.4 0.7 0.1 1-0.3 0.3-0.8 0.4-1.2 0.1l-1-0.8c-0.3-0.3-0.3-0.8 0-1.1 0.3-0.3 0.8-0.3 1.1 0l1 0.8z"/>
				<path id="&lt;Path&gt;" class="s73" d="m1151.4 184.5c0.3 0.3 0.3 0.8 0 1.1-0.3 0.3-0.8 0.3-1.1 0l-1-0.9c-0.3-0.2-0.3-0.7 0-1 0.3-0.3 0.8-0.3 1.1 0l1 0.8z"/>
				<path id="&lt;Path&gt;" class="s74" d="m1148.1 181.7c0.4 0.3 0.4 0.7 0.1 1-0.4 0.3-0.9 0.3-1.2 0l-1-0.8c-0.3-0.3-0.3-0.8 0-1.1 0.3-0.3 0.8-0.3 1.2 0l0.9 0.9z"/>
				<path id="&lt;Path&gt;" class="s75" d="m1144.9 178.8c0.3 0.3 0.3 0.7 0 1-0.3 0.3-0.8 0.3-1.1 0l-1-0.8c-0.3-0.3-0.3-0.8 0-1.1 0.3-0.3 0.9-0.3 1.2 0l0.9 0.9z"/>
				<path id="&lt;Path&gt;" class="s76" d="m1141.8 175.9c0.3 0.2 0.3 0.7-0.1 1-0.3 0.3-0.8 0.3-1.1 0l-0.9-0.9c-0.4-0.3-0.4-0.8 0-1.1 0.3-0.2 0.8-0.2 1.1 0.1l1 0.9z"/>
				<path id="&lt;Path&gt;" class="s77" d="m1138.6 173.9c-0.3 0.3-0.8 0.3-1.1 0l-1-0.9c-0.3-0.3-0.3-0.8 0-1 0.4-0.3 0.9-0.3 1.2 0l0.9 0.9c0.3 0.3 0.3 0.8 0 1z"/>
				<path id="&lt;Path&gt;" class="s78" d="m1135.5 170.9c-0.3 0.3-0.9 0.3-1.2 0l-0.9-0.9c-0.3-0.3-0.3-0.8 0-1.1 0.4-0.2 0.9-0.2 1.2 0.1l0.9 0.9c0.3 0.3 0.3 0.8 0 1z"/>
				<path id="&lt;Path&gt;" class="s79" d="m1132.4 167.9c-0.3 0.3-0.8 0.3-1.2 0l-0.9-0.9c-0.3-0.3-0.3-0.8 0.1-1.1 0.3-0.3 0.8-0.2 1.1 0.1l0.9 0.9c0.4 0.3 0.3 0.8 0 1z"/>
				<path id="&lt;Path&gt;" class="s80" d="m1129.3 164.9c-0.3 0.3-0.8 0.3-1.1 0l-1-0.9c-0.3-0.3-0.3-0.8 0.1-1.1 0.3-0.3 0.8-0.3 1.2 0l0.9 0.9c0.3 0.3 0.3 0.8-0.1 1.1z"/>
				<path id="&lt;Path&gt;" class="s81" d="m1126.3 161.9c-0.4 0.3-0.9 0.3-1.2-0.1l-0.9-0.9c-0.4-0.3-0.3-0.8 0-1 0.3-0.3 0.9-0.3 1.2 0l0.9 0.9c0.3 0.3 0.3 0.8 0 1.1z"/>
				<path id="&lt;Path&gt;" class="s82" d="m1123.2 158.9c-0.3 0.2-0.9 0.2-1.2-0.1l-0.9-0.9c-0.3-0.3-0.3-0.8 0-1.1 0.4-0.3 0.9-0.2 1.2 0.1l0.9 0.9c0.3 0.3 0.3 0.8 0 1.1z"/>
				<path id="&lt;Path&gt;" class="s83" d="m1120.1 155.8c-0.3 0.3-0.9 0.3-1.2 0l-0.9-0.9c-0.3-0.3-0.3-0.8 0-1.1 0.4-0.3 0.9-0.3 1.2 0.1l0.9 0.9c0.4 0.3 0.3 0.8 0 1z"/>
				<path id="&lt;Path&gt;" class="s84" d="m1117 152.9c-0.3 0.3-0.9 0.2-1.2-0.1l-0.9-0.9c-0.4-0.3-0.4-0.8 0-1.1 0.3-0.3 0.9-0.2 1.2 0.1l0.9 0.9c0.3 0.3 0.3 0.8 0 1.1z"/>
				<path id="&lt;Path&gt;" class="s85" d="m1113.9 149.9c-0.4 0.3-0.9 0.3-1.2 0l-1-0.9c-0.3-0.3-0.3-0.8 0-1.1 0.4-0.3 0.9-0.3 1.2 0l1 0.9c0.3 0.3 0.3 0.8 0 1.1z"/>
				<path id="&lt;Path&gt;" class="s86" d="m1110.7 147c-0.3 0.3-0.9 0.3-1.2 0l-1-0.9c-0.3-0.3-0.3-0.8 0-1.1 0.3-0.3 0.9-0.3 1.2 0l1 0.8c0.3 0.4 0.3 0.8 0 1.2z"/>
				<path id="&lt;Path&gt;" class="s87" d="m1107.5 144.1c-0.4 0.3-0.9 0.3-1.2 0l-1-0.9c-0.4-0.3-0.4-0.8-0.1-1.1 0.4-0.3 0.9-0.3 1.3 0l0.9 0.8c0.4 0.3 0.4 0.8 0.1 1.2z"/>
				<path id="&lt;Path&gt;" class="s88" d="m1104.2 140.1c0.3 0.3 0.3 0.8 0 1.1-0.3 0.3-0.9 0.4-1.2 0.1l-1-0.9c-0.4-0.3-0.4-0.8-0.1-1.1 0.4-0.3 0.9-0.3 1.2 0l1 0.8z"/>
				<path id="&lt;Path&gt;" class="s89" d="m1100.8 137.3c0.3 0.3 0.4 0.8 0.1 1.1-0.4 0.3-0.9 0.4-1.2 0.1l-1.1-0.8c-0.3-0.3-0.4-0.8 0-1.1 0.3-0.4 0.8-0.4 1.2-0.1l1 0.8z"/>
				<path id="&lt;Path&gt;" class="s90" d="m1097.4 134.6c0.3 0.3 0.4 0.8 0.1 1.1-0.3 0.3-0.9 0.4-1.2 0.1l-1.1-0.8c-0.3-0.3-0.4-0.8-0.1-1.1 0.3-0.3 0.8-0.4 1.2-0.1l1.1 0.8z"/>
				<path id="&lt;Path&gt;" class="s91" d="m1093.8 132c0.4 0.2 0.5 0.7 0.2 1.1-0.3 0.3-0.8 0.4-1.2 0.1l-1.1-0.8c-0.3-0.2-0.4-0.7-0.1-1.1 0.3-0.3 0.8-0.4 1.2-0.1l1 0.8z"/>
				<path id="&lt;Path&gt;" class="s92" d="m1090.3 129.4c0.3 0.3 0.4 0.8 0.1 1.1-0.3 0.4-0.8 0.4-1.2 0.2l-1-0.8c-0.4-0.2-0.5-0.7-0.2-1.1 0.3-0.3 0.8-0.4 1.2-0.1l1.1 0.7z"/>
				<path id="&lt;Path&gt;" class="s93" d="m1086.6 127c0.4 0.2 0.5 0.7 0.2 1.1-0.3 0.3-0.8 0.4-1.2 0.2v-0.1l-1.1-0.7c-0.4-0.2-0.5-0.7-0.2-1 0.3-0.4 0.8-0.5 1.2-0.2l1.1 0.7z"/>
				<path id="&lt;Path&gt;" class="s94" d="m1082.8 124.7c0.4 0.2 0.5 0.7 0.3 1-0.3 0.4-0.8 0.5-1.2 0.2l-1.1-0.6c-0.4-0.3-0.5-0.7-0.3-1.1 0.3-0.3 0.8-0.4 1.2-0.2l1.1 0.7z"/>
				<path id="&lt;Path&gt;" class="s95" d="m1079 122.5c0.4 0.2 0.5 0.6 0.3 1-0.3 0.4-0.8 0.5-1.2 0.3l-1.2-0.7c-0.4-0.2-0.5-0.7-0.3-1 0.3-0.4 0.8-0.5 1.2-0.3l1.2 0.7z"/>
				<path id="&lt;Path&gt;" class="s96" d="m1075 120.4c0.4 0.2 0.6 0.6 0.4 1-0.3 0.4-0.8 0.5-1.2 0.3l-1.2-0.6c-0.4-0.2-0.5-0.6-0.3-1 0.2-0.4 0.7-0.5 1.1-0.3l1.2 0.6z"/>
				<path id="&lt;Path&gt;" class="s97" d="m1071 118.4c0.4 0.2 0.6 0.7 0.4 1.1-0.2 0.3-0.7 0.5-1.1 0.3h-0.1l-1.2-0.6c-0.4-0.1-0.5-0.6-0.3-1 0.2-0.3 0.7-0.5 1.1-0.3l1.2 0.5z"/>
				<path id="&lt;Path&gt;" class="s98" d="m1066.9 116.6c0.4 0.2 0.6 0.7 0.4 1-0.2 0.4-0.7 0.6-1.1 0.4l-1.2-0.5c-0.4-0.2-0.6-0.6-0.4-1 0.2-0.4 0.6-0.5 1.1-0.4l1.2 0.5z"/>
				<path id="&lt;Path&gt;" class="s99" d="m1062.7 115c0.5 0.1 0.7 0.6 0.5 1-0.2 0.3-0.7 0.5-1.1 0.4l-1.2-0.5c-0.5-0.2-0.7-0.6-0.5-1 0.2-0.4 0.7-0.6 1.1-0.4l1.2 0.5z"/>
				<path id="&lt;Path&gt;" class="s100" d="m1058.5 113.4c0.4 0.2 0.7 0.6 0.5 1-0.2 0.4-0.6 0.6-1.1 0.4l-1.2-0.4c-0.5-0.1-0.7-0.6-0.5-1 0.1-0.3 0.6-0.5 1-0.4l1.3 0.4z"/>
				<path id="&lt;Path&gt;" class="s101" d="m1054.2 112c0.5 0.2 0.7 0.6 0.5 1-0.1 0.4-0.6 0.6-1 0.5l-1.3-0.4c-0.4-0.2-0.6-0.6-0.5-1 0.1-0.4 0.6-0.6 1-0.4l1.3 0.3z"/>
				<path id="&lt;Path&gt;" class="s102" d="m1049.9 110.8c0.4 0.1 0.7 0.5 0.5 0.9-0.1 0.4-0.5 0.6-1 0.5l-1.3-0.3c-0.4-0.1-0.6-0.6-0.5-0.9 0.1-0.4 0.6-0.7 1-0.6l1.3 0.4z"/>
				<path id="&lt;Path&gt;" class="s103" d="m1045.5 109.7c0.4 0.1 0.7 0.5 0.6 0.9-0.1 0.4-0.6 0.6-1 0.5l-1.3-0.3c-0.4-0.1-0.7-0.5-0.6-0.9 0.1-0.4 0.6-0.6 1-0.5l1.3 0.3z"/>
				<path id="&lt;Path&gt;" class="s104" d="m1041.1 108.7c0.4 0.1 0.7 0.5 0.6 0.9-0.1 0.4-0.5 0.6-0.9 0.6l-0.1-0.1-1.3-0.2c-0.4-0.1-0.7-0.5-0.6-0.9 0.1-0.4 0.5-0.6 1-0.6l1.3 0.3z"/>
				<path id="&lt;Path&gt;" class="s105" d="m1036.6 107.9c0.5 0.1 0.8 0.4 0.7 0.8-0.1 0.4-0.5 0.7-0.9 0.6h-0.1l-1.3-0.2c-0.4-0.1-0.7-0.4-0.6-0.8 0-0.4 0.5-0.7 0.9-0.6l1.3 0.2z"/>
				<path id="&lt;Path&gt;" class="s106" d="m1032.2 107.2c0.4 0.1 0.7 0.4 0.6 0.8 0 0.4-0.4 0.7-0.9 0.6l-1.3-0.1c-0.5-0.1-0.8-0.5-0.7-0.9 0.1-0.4 0.5-0.6 0.9-0.6l1.4 0.2z"/>
				<path id="&lt;Path&gt;" class="s107" d="m1027.6 106.7c0.5 0 0.8 0.4 0.8 0.8-0.1 0.4-0.5 0.6-0.9 0.6l-1.4-0.1c-0.4-0.1-0.7-0.4-0.7-0.8 0.1-0.4 0.5-0.7 0.9-0.7l1.3 0.2z"/>
				<path id="&lt;Path&gt;" class="s108" d="m1023.1 106.3c0.5 0 0.8 0.3 0.8 0.7-0.1 0.4-0.5 0.7-0.9 0.7l-1.3-0.1h-0.1c-0.4 0-0.7-0.4-0.7-0.8 0-0.4 0.4-0.7 0.9-0.6l1.3 0.1z"/>
				<path id="&lt;Path&gt;" class="s109" d="m1018.6 106c0.4 0 0.8 0.4 0.7 0.8 0 0.4-0.3 0.7-0.8 0.7l-1.3-0.1c-0.5 0-0.8-0.3-0.8-0.7 0-0.4 0.4-0.7 0.8-0.7h1.4z"/>
				<path id="&lt;Path&gt;" class="s110" d="m1014 105.9c0.5 0 0.8 0.3 0.8 0.7 0 0.4-0.3 0.8-0.8 0.8h-1.3c-0.5 0-0.8-0.4-0.8-0.8 0-0.4 0.3-0.7 0.8-0.7h1.3z"/>
				<path id="&lt;Path&gt;" class="s111" d="m1009.5 106c0.4 0 0.8 0.3 0.8 0.7 0 0.4-0.3 0.7-0.7 0.7h-0.1-1.3c-0.4 0.1-0.8-0.3-0.8-0.6 0-0.4 0.3-0.8 0.7-0.8h1.4z"/>
				<path id="&lt;Path&gt;" class="s112" d="m1005 106.2c0.4-0.1 0.8 0.2 0.8 0.6 0 0.4-0.3 0.8-0.7 0.8l-1.4 0.1c-0.4 0-0.8-0.3-0.8-0.7-0.1-0.4 0.3-0.7 0.7-0.7l1.4-0.1z"/>
				<path id="&lt;Path&gt;" class="s113" d="m1000.4 106.5c0.5 0 0.8 0.3 0.9 0.6 0 0.4-0.3 0.8-0.7 0.8l-1.3 0.2h-0.1c-0.4 0-0.8-0.3-0.8-0.7-0.1-0.4 0.3-0.7 0.7-0.7l1.3-0.2z"/>
				<path id="&lt;Path&gt;" class="s114" d="m995.9 107c0.4 0 0.8 0.2 0.9 0.6 0.1 0.4-0.2 0.8-0.7 0.8l-1.3 0.2c-0.4 0.1-0.8-0.2-0.9-0.6 0-0.4 0.2-0.7 0.7-0.8l1.3-0.2z"/>
				<path id="&lt;Path&gt;" class="s115" d="m991.4 107.7c0.4-0.1 0.9 0.2 0.9 0.5 0.1 0.4-0.2 0.8-0.6 0.9l-1.3 0.2c-0.4 0.1-0.8-0.2-0.9-0.6-0.1-0.3 0.2-0.7 0.6-0.8l1.3-0.2z"/>
				<path id="&lt;Path&gt;" class="s116" d="m987 108.5c0.4-0.1 0.8 0.2 0.9 0.5 0.1 0.4-0.2 0.8-0.6 0.9l-1.3 0.3c-0.4 0.1-0.8-0.2-0.9-0.6-0.1-0.3 0.1-0.7 0.5-0.8l1.4-0.3z"/>
				<path id="&lt;Path&gt;" class="s117" d="m982.6 109.5c0.4-0.1 0.8 0.1 0.9 0.5 0.1 0.4-0.1 0.8-0.5 0.9l-1.3 0.3c-0.4 0.1-0.9-0.1-1-0.5-0.1-0.3 0.1-0.7 0.5-0.8l1.4-0.4z"/>
				<path id="&lt;Path&gt;" class="s118" d="m978.2 110.8c0.4-0.2 0.8 0 1 0.4 0.1 0.3-0.1 0.7-0.5 0.9l-1.3 0.4c-0.4 0.1-0.8-0.1-1-0.5-0.1-0.3 0.1-0.7 0.5-0.8l1.3-0.4z"/>
				<path id="&lt;Path&gt;" class="s119" d="m973.9 112.2c0.4-0.2 0.8 0 1 0.4 0.1 0.3 0 0.7-0.4 0.8l-1.3 0.5c-0.4 0.1-0.8 0-1-0.4-0.1-0.3 0.1-0.7 0.5-0.9l1.2-0.4z"/>
				<path id="&lt;Path&gt;" class="s120" d="m969.7 113.8c0.4-0.1 0.8 0 1 0.3 0.2 0.4 0 0.8-0.3 0.9h-0.1l-1.2 0.6c-0.3 0.1-0.8 0-1-0.4-0.1-0.3 0-0.7 0.4-0.9l1.2-0.5z"/>
				<path id="&lt;Path&gt;" class="s121" d="m965.7 115.7c0.3-0.2 0.7-0.1 0.9 0.2 0.2 0.4 0.1 0.8-0.2 0.9l-0.1 0.1-1.1 0.5c-0.4 0.2-0.8 0.1-1-0.2-0.2-0.3-0.1-0.7 0.3-0.9l1.1-0.6z"/>
				<path id="&lt;Path&gt;" class="s122" d="m961.7 117.8c0.3-0.2 0.8-0.1 1 0.2 0.2 0.3 0.1 0.7-0.2 0.9l-1.1 0.7h-0.1c-0.3 0.2-0.7 0.1-0.9-0.2-0.3-0.3-0.2-0.7 0.2-0.9l1.1-0.7z"/>
				<path id="&lt;Path&gt;" class="s123" d="m958 120.2c0.3-0.2 0.7-0.2 0.9 0.1 0.3 0.3 0.2 0.7-0.1 0.9l-1.1 0.8c-0.3 0.2-0.7 0.1-1-0.2-0.2-0.2-0.1-0.6 0.2-0.9l1.1-0.7z"/>
				<path id="&lt;Path&gt;" class="s124" d="m954.4 122.8c0.3-0.2 0.7-0.2 1 0.1 0.2 0.2 0.2 0.6-0.1 0.9l-1 0.8c-0.3 0.2-0.7 0.2-1 0-0.2-0.3-0.2-0.7 0.1-0.9l1-0.9z"/>
				<path id="&lt;Path&gt;" class="s125" d="m951.1 125.7c0.3-0.2 0.7-0.3 1 0 0.3 0.2 0.3 0.6 0 0.9l-0.9 0.9c-0.3 0.2-0.7 0.3-1 0-0.3-0.2-0.3-0.6 0-0.9l0.9-0.9z"/>
				<path id="&lt;Path&gt;" class="s126" d="m948.1 128.9c0.2-0.3 0.7-0.3 0.9-0.1 0.3 0.2 0.4 0.6 0.2 0.8l-0.9 1c-0.2 0.3-0.6 0.3-0.9 0.1-0.3-0.2-0.4-0.6-0.1-0.8l0.8-1z"/>
				<path id="&lt;Path&gt;" class="s127" d="m945.4 132.3c0.2-0.3 0.6-0.4 1-0.2 0.3 0.2 0.4 0.5 0.2 0.8l-0.7 1.1h-0.1c-0.1 0.3-0.6 0.4-0.9 0.2-0.3-0.2-0.4-0.6-0.2-0.8l0.7-1.1z"/>
				<path id="&lt;Path&gt;" class="s128" d="m943.2 135.9c0.1-0.3 0.5-0.4 0.8-0.2 0.4 0.1 0.5 0.5 0.3 0.8l-0.6 1.1c-0.1 0.3-0.5 0.4-0.8 0.3-0.4-0.2-0.5-0.6-0.3-0.8l0.6-1.2z"/>
				<path id="&lt;Path&gt;" class="s129" d="m941.3 139.7c0.1-0.3 0.5-0.4 0.8-0.3 0.4 0.1 0.5 0.5 0.4 0.8l-0.5 1.1c-0.1 0.3-0.5 0.5-0.8 0.4-0.4-0.1-0.5-0.5-0.4-0.8l0.5-1.2z"/>
				<path id="&lt;Path&gt;" class="s130" d="m939.8 143.7c0.1-0.3 0.5-0.5 0.8-0.4 0.3 0.1 0.5 0.4 0.4 0.7l-0.3 1.2c-0.1 0.3-0.5 0.5-0.8 0.4-0.4-0.1-0.6-0.4-0.5-0.7l0.4-1.2z"/>
				<path id="&lt;Path&gt;" class="s131" d="m938.7 147.8c0.1-0.4 0.4-0.6 0.8-0.5 0.3 0.1 0.5 0.4 0.5 0.7h-0.1l-0.2 1.2c-0.1 0.3-0.4 0.5-0.7 0.5-0.4-0.1-0.6-0.4-0.5-0.7l0.2-1.2z"/>
				<path id="&lt;Path&gt;" class="s132" d="m938 151.9c0.1-0.3 0.4-0.5 0.7-0.5 0.3 0 0.6 0.3 0.6 0.6h-0.1l-0.1 1.2v0.1c0 0.3-0.3 0.5-0.7 0.5-0.3-0.1-0.5-0.4-0.5-0.7l0.1-1.2z"/>
				<path id="&lt;Path&gt;" class="s133" d="m937.7 156.1c0-0.3 0.3-0.6 0.6-0.6 0.4 0 0.6 0.3 0.6 0.6v1.2c0 0.3-0.3 0.6-0.6 0.6-0.3 0-0.6-0.3-0.6-0.6v-1.2z"/>
				<path id="&lt;Path&gt;" class="s134" d="m937.8 160.2c0-0.3 0.2-0.5 0.5-0.5 0.4-0.1 0.7 0.2 0.7 0.5l0.1 1.2c0 0.3-0.3 0.6-0.6 0.6-0.3 0-0.6-0.2-0.6-0.5l-0.1-1.3z"/>
				<path id="&lt;Path&gt;" class="s135" d="m938.2 164.4c0-0.3 0.2-0.6 0.5-0.6 0.4-0.1 0.7 0.1 0.7 0.4l0.2 1.3c0.1 0.3-0.2 0.5-0.5 0.6-0.3 0-0.6-0.2-0.6-0.5l-0.3-1.2z"/>
				<path id="&lt;Path&gt;" class="s136" d="m939.1 168.5c-0.1-0.3 0.1-0.6 0.4-0.6 0.3-0.1 0.6 0.1 0.7 0.4l0.3 1.2c0.1 0.2-0.1 0.5-0.4 0.6-0.3 0.1-0.6-0.1-0.7-0.4l-0.3-1.2z"/>
				<path id="&lt;Path&gt;" class="s137" d="m940.3 172.5c-0.1-0.3 0.1-0.5 0.4-0.6 0.3-0.1 0.6 0 0.7 0.3l0.4 1.2c0.1 0.2 0 0.5-0.3 0.6-0.3 0.1-0.7 0-0.8-0.3l-0.4-1.2z"/>
				<path id="&lt;Path&gt;" class="s138" d="m941.9 176.4c-0.1-0.2 0-0.5 0.3-0.6 0.3-0.2 0.6 0 0.7 0.2l0.6 1.2c0.1 0.2 0 0.5-0.3 0.6-0.3 0.1-0.6 0-0.7-0.2l-0.6-1.2z"/>
				<path id="&lt;Path&gt;" class="s139" d="m943.9 180.2c-0.2-0.3-0.1-0.6 0.2-0.7 0.3-0.1 0.6 0 0.7 0.2h0.1l0.6 1.1c0.2 0.2 0.1 0.5-0.2 0.7-0.3 0.1-0.6 0-0.7-0.2l-0.7-1.1z"/>
				<path id="&lt;Path&gt;" class="s140" d="m946.3 183.8c-0.2-0.3-0.1-0.6 0.1-0.7 0.2-0.2 0.6-0.1 0.7 0.1l0.8 1c0.2 0.3 0.1 0.6-0.1 0.7-0.3 0.2-0.6 0.1-0.7-0.1l-0.8-1z"/>
				<path id="&lt;Path&gt;" class="s141" d="m949 187.1c-0.2-0.2-0.1-0.5 0.1-0.7 0.2-0.1 0.5-0.1 0.7 0.1l0.9 0.9c0.2 0.2 0.1 0.5-0.1 0.7-0.2 0.2-0.5 0.1-0.7-0.1l-0.9-0.9z"/>
				<path id="&lt;Path&gt;" class="s142" d="m952.1 190.2c-0.2-0.2-0.2-0.5 0-0.7 0.2-0.2 0.5-0.2 0.7 0l1 0.9c0.2 0.1 0.2 0.4 0 0.6-0.2 0.2-0.5 0.2-0.7 0l-1-0.8z"/>
				<path id="&lt;Path&gt;" class="s143" d="m955.5 192.9c-0.2-0.1-0.2-0.4 0-0.6 0.1-0.2 0.4-0.2 0.6-0.1l1.1 0.8c0.2 0.1 0.3 0.4 0.1 0.6-0.2 0.2-0.5 0.2-0.7 0.1l-1.1-0.8z"/>
				<path id="&lt;Path&gt;" class="s144" d="m959.3 195.4c-0.3-0.2-0.3-0.4-0.2-0.6 0.1-0.2 0.4-0.3 0.6-0.2h0.1l1.1 0.7c0.2 0.1 0.3 0.4 0.1 0.6-0.1 0.2-0.4 0.2-0.6 0.1l-1.1-0.6z"/>
				<path id="&lt;Path&gt;" class="s145" d="m963.2 197.5c-0.2-0.2-0.3-0.4-0.2-0.6 0.1-0.2 0.4-0.3 0.6-0.2l1.2 0.6c0.2 0.1 0.3 0.3 0.2 0.5-0.1 0.2-0.4 0.3-0.6 0.2l-1.2-0.5z"/>
				<path id="&lt;Path&gt;" class="s146" d="m967.3 199.2c-0.2-0.1-0.3-0.3-0.2-0.5 0.1-0.2 0.3-0.3 0.5-0.2l1.3 0.5c0.2 0 0.3 0.3 0.2 0.5 0 0.2-0.3 0.2-0.5 0.2l-1.3-0.5z"/>
				<path id="&lt;Path&gt;" class="s147" d="m971.6 200.6c-0.2 0-0.3-0.2-0.3-0.4 0.1-0.2 0.3-0.4 0.5-0.3l1.3 0.4c0.3 0 0.4 0.2 0.3 0.4-0.1 0.2-0.3 0.3-0.5 0.3l-1.3-0.4z"/>
				<path id="&lt;Path&gt;" class="s148" d="m976 201.7c-0.2 0-0.3-0.2-0.3-0.4 0-0.2 0.3-0.3 0.5-0.3l1.3 0.3c0.2 0 0.3 0.2 0.3 0.4-0.1 0.2-0.3 0.3-0.5 0.2l-1.3-0.2z"/>
				<path id="&lt;Path&gt;" class="s149" d="m980.5 202.4c-0.2 0-0.4-0.2-0.3-0.4 0-0.1 0.2-0.3 0.4-0.3l1.3 0.2c0.2 0 0.4 0.2 0.3 0.4 0 0.2-0.2 0.3-0.4 0.3l-1.3-0.2z"/>
				<path id="&lt;Path&gt;" class="s150" d="m985 202.8c-0.2 0-0.3-0.2-0.3-0.3 0-0.2 0.1-0.4 0.3-0.3h1.4c0.2 0 0.3 0.2 0.3 0.3 0 0.2-0.1 0.4-0.3 0.3h-1.4z"/>
				<path id="&lt;Path&gt;" class="s151" d="m989.5 202.8c-0.1 0-0.3-0.1-0.3-0.3 0-0.1 0.1-0.3 0.3-0.3h1.4c0.2 0 0.3 0.1 0.3 0.3 0 0.1-0.1 0.3-0.3 0.3h-1.4z"/>
				<path id="&lt;Path&gt;" class="s152" d="m994.1 202.5c-0.2 0-0.4-0.1-0.4-0.2 0-0.2 0.1-0.3 0.3-0.4l1.3-0.1h0.1c0.1 0 0.3 0.1 0.3 0.2 0 0.2-0.1 0.3-0.3 0.3l-1.3 0.2z"/>
				<path id="&lt;Path&gt;" class="s153" d="m998.6 201.8c-0.2 0.1-0.4 0-0.4-0.2 0-0.1 0.1-0.3 0.2-0.3l1.4-0.3c0.1 0 0.3 0.1 0.3 0.2 0.1 0.2 0 0.3-0.2 0.4l-1.3 0.2z"/>
				<path id="&lt;Path&gt;" class="s154" d="m1003 200.8c-0.2 0-0.3 0-0.4-0.2 0-0.1 0-0.3 0.2-0.3l1.3-0.4c0.1 0 0.3 0.1 0.3 0.2 0.1 0.1 0 0.3-0.1 0.3l-1.3 0.4z"/>
				<path id="&lt;Path&gt;" class="s155" d="m1007.2 199.4c-0.1 0-0.3 0-0.3-0.1-0.1-0.2 0-0.3 0.1-0.4l1.3-0.4c0.1-0.1 0.3 0 0.3 0.1 0.1 0.1 0 0.2-0.1 0.3l-1.3 0.5z"/>
				<path id="&lt;Path&gt;" class="s156" d="m1011.3 197.6c-0.1 0.1-0.2 0-0.3-0.1-0.1-0.1 0-0.2 0.1-0.3l1.2-0.6c0.1 0 0.3 0 0.3 0.1 0.1 0.1 0 0.2-0.1 0.3l-1.2 0.6z"/>
				<path id="&lt;Path&gt;" class="s157" d="m1015.2 195.5c-0.1 0-0.2 0-0.3-0.1-0.1-0.1 0-0.2 0.1-0.3l0.8-0.5c0.2-0.1 0.3-0.1 0.4 0 0 0.1 0 0.2-0.1 0.3l-0.9 0.6z"/>
			</g>
			<g id="&lt;Group&gt;">
				<g id="&lt;Group&gt;">
					<path id="&lt;Compound Path&gt;" fill-rule="evenodd" class="s0" d="m951.4 126.8c-0.6 0-1.1-0.3-1.3-0.8l-1.9-5q-4.1-0.9-7.6-2.8l-5.2 2.3c-0.6 0.3-1.2 0.2-1.6-0.2l-5.4-4.8c-0.4-0.4-0.5-1-0.3-1.5l2.5-4.8q-2.1-3.2-3.2-6.8l-5.5-1.7c-0.5-0.2-0.9-0.7-0.9-1.2l-0.1-6.9c0-0.5 0.4-1 1-1.2l5.4-1.8q1-3.7 3.1-6.9l-2.6-4.8c-0.2-0.5-0.1-1 0.3-1.4l5.3-4.9c0.4-0.4 1-0.5 1.5-0.3l5.3 2.3q3.5-2 7.5-2.9l1.8-5.1c0.2-0.5 0.8-0.8 1.3-0.8l7.6-0.1q0 0 0 0c0.6 0 1.1 0.4 1.3 0.9l1.9 5q4 0.9 7.6 2.8l5.2-2.4c0.5-0.2 1.2-0.1 1.6 0.2l5.4 4.9c0.4 0.4 0.5 0.9 0.2 1.4l-2.5 4.8q2.2 3.3 3.2 6.9l5.5 1.7c0.6 0.2 1 0.6 1 1.2v6.9c0 0.5-0.3 1-0.9 1.2l-5.5 1.7q-0.9 3.7-3 7l2.6 4.7c0.2 0.5 0.1 1.1-0.3 1.5l-5.3 4.9c-0.4 0.4-1 0.5-1.6 0.2l-5.2-2.2q-3.5 1.9-7.5 2.9l-1.9 5c-0.2 0.5-0.7 0.9-1.3 0.9h-7.5q0 0 0 0zm-10.8-10.4l0.5 0.2c2.4 1.4 5.1 2.4 7.9 2.9l0.5 0.1 2.1 5.6h7.1l2-5.7 0.5-0.1c2.8-0.6 5.4-1.6 7.9-3l0.4-0.3 5.9 2.6 4.9-4.6-2.9-5.3 0.2-0.4c1.5-2.2 2.6-4.7 3.3-7.2l0.1-0.5 6.1-2-0.1-6.4-6.1-1.9-0.1-0.4c-0.7-2.5-1.8-5-3.4-7.2l-0.2-0.4 2.8-5.4-5-4.5-5.9 2.7-0.4-0.2c-2.4-1.4-5.1-2.4-7.9-3l-0.5-0.1-2.2-5.6-7 0.1-2.1 5.6-0.4 0.1c-2.8 0.6-5.5 1.7-7.9 3.1l-0.4 0.2-5.9-2.6-4.9 4.6 2.9 5.4-0.3 0.3c-1.5 2.3-2.6 4.7-3.2 7.3l-0.1 0.4-6.1 2v6.4l6.2 1.9 0.1 0.4c0.7 2.6 1.8 5 3.4 7.3l0.2 0.3-2.8 5.4 5 4.5zm14.2-3.1c-5.1 0-9.8-1.7-13.4-5-3.6-3.2-5.6-7.6-5.7-12.2 0-4.7 1.9-9.1 5.5-12.4 3.6-3.3 8.3-5.1 13.4-5.2q2.1 0 4 0.4c0.5 0.1 0.8 0.5 0.7 0.9-0.1 0.5-0.5 0.7-1 0.6q-1.8-0.3-3.7-0.3c-4.6 0.1-8.9 1.7-12.2 4.7-3.2 3.1-5 7-4.9 11.3 0 4.2 1.8 8.2 5.1 11.1 3.3 3 7.7 4.6 12.3 4.6 4.6-0.1 9-1.8 12.2-4.8 3.2-3 5-7 5-11.2-0.1-2.9-0.9-5.7-2.6-8.1-0.2-0.4-0.1-0.9 0.3-1.1 0.4-0.2 1-0.1 1.2 0.3 1.8 2.7 2.8 5.7 2.8 8.9 0 4.6-1.9 9-5.5 12.3-3.5 3.4-8.3 5.2-13.4 5.2q-0.1 0-0.1 0zm-6.4-41.9z"/>
					<path id="&lt;Compound Path&gt;" fill-rule="evenodd" class="s0" d="m954.9 102.7c-1.3 0-2.7-0.3-3.8-1-1.8-0.9-3-2.4-3.5-4.2-0.5-1.8-0.2-3.6 0.8-5.2 1-1.6 2.6-2.7 4.6-3.2 4-1 8.1 1.2 9.2 4.9 0.5 1.8 0.2 3.7-0.8 5.3-1 1.6-2.7 2.7-4.6 3.2q-1 0.2-1.9 0.2zm-1.5-12.1c-1.5 0.4-2.7 1.3-3.5 2.5-0.8 1.2-1 2.6-0.6 4 0.4 1.4 1.3 2.5 2.7 3.3 1.3 0.7 2.9 0.9 4.4 0.5 1.5-0.3 2.7-1.2 3.5-2.4 0.8-1.3 1-2.7 0.6-4.1-0.8-2.8-4-4.5-7.1-3.8z"/>
				</g>
				<g id="&lt;Group&gt;">
					<path id="&lt;Compound Path&gt;" fill-rule="evenodd" class="s0" d="m922 152.7c-0.2 0-0.5-0.1-0.7-0.3l-1.6-2q-1.8 0.1-3.7-0.3l-1.9 1.7c-0.3 0.2-0.7 0.2-1.1 0.1l-3.2-1.6c-0.3-0.1-0.5-0.5-0.4-0.8l0.3-2.4q-1.4-1.2-2.4-2.6l-2.6-0.1c-0.4 0-0.7-0.3-0.8-0.6l-1.1-3.2c-0.1-0.3 0-0.7 0.3-0.9l2.1-1.4q0-1.7 0.4-3.4l-1.9-1.8c-0.2-0.3-0.3-0.6-0.1-0.9l1.7-3c0.2-0.3 0.5-0.5 0.9-0.4l2.7 0.4q1.2-1.3 2.8-2.2l0.1-2.5c0-0.3 0.3-0.6 0.6-0.7l3.5-1c0.4-0.1 0.8 0 1 0.3l1.6 1.9q1.9-0.1 3.7 0.3l1.9-1.6c0.3-0.3 0.7-0.3 1.1-0.2l3.2 1.6c0.3 0.1 0.5 0.5 0.5 0.8l-0.4 2.4q1.4 1.2 2.4 2.7h2.6c0.4 0 0.7 0.3 0.9 0.6l1 3.2c0.1 0.3 0 0.7-0.3 0.9l-2.1 1.4q0.1 1.8-0.4 3.4l1.9 1.8c0.2 0.3 0.3 0.7 0.1 1l-1.7 2.9c-0.2 0.3-0.5 0.5-0.9 0.4l-2.6-0.3q-1.3 1.2-2.9 2.2l-0.1 2.4c0 0.3-0.3 0.7-0.6 0.8l-3.5 0.9q-0.1 0.1-0.3 0.1zm-1.6-3.5l1.8 2.2 2.9-0.8 0.1-2.8 0.3-0.2q1.8-0.9 3.1-2.4l0.2-0.2 3.1 0.4 1.4-2.5-2.1-2 0.1-0.3q0.5-1.9 0.3-3.7v-0.3l2.5-1.7-0.9-2.7-3.1-0.1-0.2-0.2q-1-1.7-2.6-2.9l-0.2-0.2 0.4-2.8-2.7-1.3-2.2 1.9h-0.4q-2-0.5-4-0.4l-0.4 0.1-1.8-2.3-2.9 0.8-0.1 2.8-0.3 0.2q-1.8 1-3.1 2.4l-0.2 0.2-3.1-0.4-1.4 2.5 2.1 2-0.1 0.3q-0.5 1.9-0.3 3.7v0.4l-2.5 1.6 0.9 2.7 3.1 0.1 0.2 0.3q1 1.6 2.6 2.8l0.2 0.2-0.4 2.8 2.7 1.3 2.2-1.9h0.4q2 0.5 4 0.4zm-1.3-2.8c-4 0-7.7-2.4-8.9-6-1.6-4.6 1.2-9.4 6.1-10.8q1-0.3 2-0.4c0.3 0 0.6 0.3 0.7 0.6 0 0.3-0.3 0.6-0.6 0.6q-0.9 0.1-1.7 0.3c-4.3 1.3-6.6 5.4-5.3 9.3 1.3 3.9 5.9 6.1 10.1 4.9 4.3-1.3 6.7-5.4 5.3-9.3-0.4-1.3-1.2-2.4-2.3-3.3-0.3-0.2-0.3-0.6-0.1-0.9 0.3-0.2 0.7-0.2 1 0 1.2 1 2.2 2.3 2.7 3.8 1.5 4.6-1.2 9.4-6.2 10.8q-1.4 0.4-2.8 0.4zm2.9 5.1q0 0 0 0zm-8.3-0.6q0 0 0 0zm-3.2-1.6q0 0 0 0zm23-6.1q0 0 0 0zm-0.3-11.2q0 0 0 0zm-27.1-2q0 0 0 0zm21.7-3.8q0 0 0 0zm-14.6-1.6q0 0 0 0zm-0.7 0zm3.8-0.7q0 0 0 0z"/>
				</g>
			</g>
			<g id="&lt;Group&gt;">
				<path id="&lt;Path&gt;" class="s158" d="m1268.4 213.9c-0.7 4.1-3.9 8.3-6 10.7-1.3 1.5-3.5 2.3-5.6 2q-11.2-1.5-9.7-20.7h3.9q4 18.6 5.6 10.9 1.7-7.7 6.7-12.1 4.5 2.9 5.1 9.2z"/>
				<path id="&lt;Path&gt;" class="s159" d="m1280.6 293.9q-0.1 0-0.1-0.1c-0.1-0.8 0.5-2.2 1.6-5.2l1.9-0.2q3.8 1.8 4.7 5.2 0.1 0.1 0.1 0.2c-3.6 0.3-6.7 0.2-8.2 0.1z"/>
				<path id="&lt;Path&gt;" class="s160" d="m1288.8 293.8c0 0.3-0.3 0.5-0.6 0.6-1.4 0.1-4.9 0.5-7.1 0.1-0.2-0.1-0.5-0.3-0.5-0.6 1.5 0.1 4.6 0.2 8.2-0.1z"/>
				<path id="&lt;Path&gt;" class="s161" d="m1285.5 285.8l-0.8 3.6c-0.1 0.2-0.3 0.4-0.6 0.4-0.3 0.1-0.8 0.1-1.2 0-0.4 0-0.7-0.4-0.7-0.8l0.6-3.2z"/>
				<path id="&lt;Path&gt;" class="s162" d="m1264.8 293.9c2-0.1 3-0.3 3.6-0.5q0 0.3 0 0.6c-0.1 0.2-0.2 0.3-0.4 0.3h-10.9c-0.3 0-0.5-0.4-0.4-0.7 1.5 0.1 5.1 0.4 8.1 0.3z"/>
				<path id="&lt;Path&gt;" class="s163" d="m1256.7 293.6q0.1 0 0.1-0.1c0.9-1.2 3.4-3.6 8.2-4.7h2.3q1 1.6 1.1 4.6c-0.6 0.2-1.6 0.4-3.6 0.5-3 0.1-6.6-0.2-8.1-0.3z"/>
				<path id="&lt;Path&gt;" class="s164" d="m1267.7 285.5c0 0.2-0.3 2.6-0.4 3.5-0.1 0.3-0.2 0.4-0.4 0.4-0.4 0.1-1.1 0.1-1.6 0-0.3 0-0.6-0.3-0.6-0.6v-3.8z"/>
				<path id="&lt;Path&gt;" class="s165" d="m1283.9 239q3.7 30 1.7 48.9-2.5 0-3.7-0.4-3.9-29.4-5.1-37.9c-0.1-0.3-0.5-0.3-0.6 0-1.6 7.1-7.6 34.9-8.3 37.5q-2.1 0.8-3.7 0 3.3-40.2 5.8-47.4z"/>
				<path id="&lt;Path&gt;" class="s166" d="m1289.7 215.6q-2.1 3-5.8 23.4-4.5 2.2-13.9 0.7-2.5-7.1-5.8-23.3l-0.8-11.7q12.3-3 27.9-0.7 0.5 3.7-1.6 11.6z"/>
				<path id="&lt;Path&gt;" class="s167" d="m1280.4 191.7l1.6 11.6q-4.3 1.8-7.4-0.1l0.7-6.8z"/>
				<path id="&lt;Path&gt;" class="s168" d="m1291.3 204q24.3 24-4.3 33.3v-1.9q10.7-8.3 2.5-19.6 1-10.7 1.8-11.8z"/>
				<path id="&lt;Path&gt;" class="s169" d="m1287.2 237.1c-1.2 0.3-4.1-0.4-5.3 0q-1.2 0.3-2.1-1.2 0-1.1 1.7-1.8 1.6-0.8 5.3 1.5 0.8 0 0.4 1.5z"/>
				<g id="&lt;Group&gt;">
					<path id="&lt;Path&gt;" class="s170" d="m1246.8 193.7l5.2 1.6c0.7 0.2 1.1 0.8 1.2 1.5l-0.3 8c0.1 1.2-1.1 2.3-2.1 2l-4.2-1.3c-0.4-0.1-0.7-0.5-0.7-0.9l-0.1-10c0-0.5 0.5-1 1-0.9z"/>
				</g>
				<path id="&lt;Path&gt;" class="s171" d="m1245.8 204q-1.6-4.8-0.8-5.6c0.8-0.8 2.5-3.1 2.6-1.2 0.1 1.8 1.1 9.6-1.8 6.8z"/>
				<g id="&lt;Group&gt;">
					<path id="&lt;Path&gt;" class="s172" d="m1277.9 189l0.4 8.9-5.7 1.1q-1.8-9.1-1.8-9.3 0.4-2.3 7.1-0.7z"/>
					<path id="&lt;Path&gt;" class="s173" d="m1273.4 190.1c-1.4 0.7-4.1 1.3-4.8-0.2-0.6-1.6-0.3-4.1 2.2-4.5 1.4-0.2 2.1 0.5 2.5 1.1 0.2 0.4 0.7 0.5 1.1 0.4 0.2-0.1 0.4-0.1 0.5 0 0.3 0.1 0.8 0.1 1-0.2 0.6-0.5 1.7-1.1 3.1-0.5 1.4 0.5 1.3 1.5 1 2.2-0.1 0.4 0.1 0.9 0.5 1 1.7 0.6 1.4 1.8 1.2 2.4q-0.2 0.3-0.5 0.4c-0.6 0.2-1.8 0.8-1.9 1.7-0.2 1-0.1 4.4 0 5.7 0 0.2-0.2 0.5-0.5 0.6-1.6 0.9-3.7 1.5-4.8 1.8-0.4 0.1-0.9-0.1-1-0.5-0.6-1.5-1-3.2-1.2-4.1 0-0.4 0.2-0.8 0.7-0.8 0.8-0.2 1.8 0.1 3 0.4 1.3 0.4 1.6-0.8 1.7-1.2q0-0.1 0-0.2l-0.6-4.6c0-0.2-0.1-0.4-0.4-0.5-0.6-0.4-1.8-0.9-2.8-0.4z"/>
					<path id="&lt;Path&gt;" class="s174" d="m1279.2 195.4q-0.7-2.5 0.4-3.1c1-0.7 2.6-0.3 2.2 1.6q-0.4 2.4-2.6 1.5z"/>
				</g>
				<path id="&lt;Path&gt;" class="s0" d="m1268.1 188.3q0 0 0 0c-1-1.8 1.2-3.3 1.2-3.3q0.1 0 0.1 0 0.1 0.1 0 0.2c0 0-2 1.3-1.2 3q0.1 0.1 0 0.1 0 0-0.1 0z"/>
			</g>
			<g id="&lt;Group&gt;">
				<g id="&lt;Group&gt;">
					<path id="&lt;Path&gt;" class="s175" d="m1228.3 194v16.4c0 1.4-0.8 2.4-2 2.4h-65.4c-0.9 0-1.7 0.8-2 1.9l-1.1 5.7c-0.2 0.8-1.1 0.8-1.3 0.1l-1.5-4.8c-0.3-1-1-1.6-1.9-1.6h-2.8c-1.1 0-2-1.1-2-2.4v-16.9c0-1.4 0.9-2.4 2-2.5l76-0.8c1.1 0 2 1.1 2 2.5z"/>
					<g id="&lt;Group&gt;">
						<ellipse id="&lt;Path&gt;" class="s176" cx="1158.5" cy="202.3" rx="8" ry="7.5"/>
						<g id="&lt;Group&gt;">
							<path id="&lt;Path&gt;" class="s0" d="m1161.4 199.2c0 1.4-1.2 2.9-2.7 2.9-1.5 0-2.7-1.5-2.7-2.9 0-1.3 1.2-2.3 2.7-2.3 1.5 0 2.7 1 2.7 2.3z"/>
							<path id="&lt;Path&gt;" class="s0" d="m1153.8 206.2l-0.2-0.9c-0.3-0.7 0.2-1.5 1-1.8 2.8-0.8 5.5-0.9 8.2 0 0.8 0.2 1.2 1 1 1.8l-0.4 1c-0.2 0.6-0.8 1-1.5 1h-6.5c-0.8 0-1.4-0.5-1.6-1.1z"/>
						</g>
					</g>
					<g id="&lt;Group&gt;">
						<path id="&lt;Path&gt;" class="s0" d="m1222.1 204.3c0 0.7-0.7 1.4-1.6 1.4h-47.8c-0.9 0-1.7-0.7-1.7-1.4 0-0.8 0.8-1.5 1.7-1.5h47.8c0.9 0 1.6 0.7 1.6 1.5z"/>
						<path id="&lt;Path&gt;" class="s0" d="m1199.5 208.8c0 0.7-0.7 1.3-1.5 1.3h-25c-0.8 0-1.4-0.6-1.4-1.3 0-0.7 0.6-1.3 1.4-1.3h25c0.8 0 1.5 0.6 1.5 1.3z"/>
						<path id="&lt;Path&gt;" class="s0" d="m1222.1 208.8c0 0.7-0.6 1.3-1.4 1.3h-18.1c-0.8 0-1.4-0.6-1.4-1.3 0-0.7 0.6-1.3 1.4-1.3h18.1c0.8 0 1.4 0.6 1.4 1.3z"/>
					</g>
					<rect id="&lt;Path&gt;" class="s177" x="1170.9" y="195.4" width="28.1" height="3.8" rx="9.1"></rect>
				</g>
			</g>
			<g id="&lt;Group&gt;">
				<path id="&lt;Path&gt;" class="s178" d="m1087.2 64.2c0.9 1.2 1.3 2.8 2.2 3.9 1.8 2 7.6 2.3 10.1 2.8 1.9 0.4 3.9 0.7 5.3 2.4 4.6 5.4-6 5.6-8.5 5.5-16.8-0.2-51 3.5-51-1.6 0-5 3.8 0.6 8.8-6.8 4-6.1 11.4-1.4 16.7-3.8 3.1-1.3 4.9-4.7 8.2-5.6 3-0.8 6.1 0.3 8.1 3q0.1 0.1 0.1 0.2z"/>
				<path id="&lt;Path&gt;" class="s178" d="m1149 53.7c0.5 0.7 0.7 1.6 1.3 2.3 1.1 1.2 4.6 1.4 6 1.7 1.2 0.2 2.4 0.4 3.2 1.4 2.8 3.3-3.6 3.4-5.1 3.4-10.1-0.2-30.6 2-30.6-1 0-3 2.3 0.3 5.2-4.1 2.5-3.6 6.9-0.9 10.1-2.3 1.8-0.8 2.9-2.8 4.9-3.3 1.8-0.5 3.7 0.2 4.9 1.8q0 0 0.1 0.1z"/>
			</g>
			<g id="&lt;Group&gt;">
				<g id="&lt;Group&gt;">
					<path id="&lt;Path&gt;" class="s179" d="m1014.4 202.8c0 14.5-0.2 64.3-1.1 82-0.1 1.9-1.5 3.3-3.3 3.4-8.6 0.1-40.4 0.2-54.5-0.7-2.9-0.2-5.2-2.8-5.2-5.9 0.1-15.2 0.5-57.9 2.5-77.4 0.2-2.3 2-4.2 4.2-4.3 9.4-0.9 41.3-2.7 53.5-1.6 2.2 0.2 3.9 2.2 3.9 4.5z"/>
					<path id="&lt;Path&gt;" class="s180" d="m1010.4 207.2c0.2 11.7 0.7 50.5-0.1 64.8-0.1 2.1-1.7 3.8-3.7 3.9-8 0.3-35.5 0.9-47.3-0.4-2.2-0.2-3.8-2.1-3.9-4.4-0.3-11.9-1.1-48-0.3-62.2 0.1-2.3 1.8-4.1 3.9-4.3 8.7-0.6 38-2 48-1.2 1.9 0.1 3.4 1.8 3.4 3.8z"/>
					<g id="&lt;Group&gt;" style="opacity: .3">
						<path id="&lt;Path&gt;" class="s0" d="m1007.2 210.6c0.2 10.3 0.7 44.7 0 57.4-0.2 1.9-1.6 3.3-3.3 3.4-7.1 0.3-31.5 0.8-42-0.3-1.8-0.2-3.3-1.9-3.3-3.9-0.3-10.5-1.1-42.6-0.4-55.1 0.2-2 1.7-3.6 3.5-3.8 7.8-0.5 33.7-1.8 42.6-1.1 1.6 0.1 2.9 1.6 2.9 3.4z"/>
					</g>
					<path id="&lt;Path&gt;" class="s181" d="m993.1 200.5c-0.1 0.4-0.4 0.8-0.8 0.8-2.1 0.1-7.8 0.3-10.4 0.4-0.5 0-0.9-0.5-0.8-1v-0.1c0.1-0.4 0.4-0.6 0.8-0.7 1.7-0.1 7-0.5 10.4-0.3 0.4 0.1 0.8 0.4 0.8 0.9z"/>
				</g>
				<g id="&lt;Group&gt;">
					<ellipse id="&lt;Path&gt;" class="s182" cx="982.8" cy="239.7" rx="20.3" ry="18.5"/>
					<path id="&lt;Path&gt;" class="s0" d="m994.6 247.5q-0.5 0.6-1.3 1.1c-3.3 1.9-9.7 0.7-15.3-3.2-5.7-3.9-8.7-9.1-7.6-12.6q0.2-0.8 0.7-1.4c0.7-0.9 1.8-1.4 2.9-1.4 1.1 0 2.2 0.5 2.9 1.3l1 1.1c0.9 1 0.9 2.5 0 3.6l-1.1 1.4q-0.1 0-0.1 0 0 0 0 0.1c0.6 1.7 1.9 3.4 3.9 4.7 2.1 1.5 4.4 2.2 6.5 2.1l1.2-1.6c0.8-0.9 2.1-1.2 3.3-0.8l1.5 0.5c1 0.4 1.8 1.2 2.1 2.2 0.3 1 0.1 2-0.6 2.9z"/>
				</g>
				<g id="&lt;Group&gt;">
					<path id="&lt;Path&gt;" class="s0" d="m958.6 284.9c-3.4 0-6.2-2.5-6.2-5.6v-9.7c0-0.1 0.1-0.2 0.2-0.2 0.1 0 0.2 0.1 0.2 0.2v9.7c0 2.9 2.6 5.2 5.8 5.2 0.1 0 0.2 0.1 0.2 0.2 0 0.1-0.1 0.2-0.2 0.2z"/>
				</g>
			</g>
			<g id="&lt;Group&gt;">
				<g id="&lt;Group&gt;">
					<path id="&lt;Path&gt;" class="s183" d="m926.5 286.8l11.1 4.7q0.4 0.1 0.6 0.5c0.1 0.4-0.1 0.7-0.5 0.7-2.4 0.1-9.1-0.1-12.2-0.2-0.9-0.1-1.6-0.8-1.6-1.7q0.2-2.1 0.7-4.3z"/>
					<path id="&lt;Path&gt;" class="s184" d="m927 284.8l0.8 2.9q-1.3 1-3.2 0.1l-0.4-2.5z"/>
					<path id="&lt;Path&gt;" class="s185" d="m924.5 236.4c-0.2 0.7-0.8 33.9 3.1 48.7 0 0.3-0.1 0.5-0.4 0.6-0.6 0.2-1.7 0.6-3.1 0.6-0.4 0-0.8-0.2-1-0.6-1.1-3.5-6.4-20.8-7.1-37.3q-0.7-18.4 0-0.6l0.5-11.4z"/>
					<path id="&lt;Path&gt;" class="s186" d="m914.3 287.8c1.4 1.3 1.8 3.1 2 4.2 0 0.5-0.4 1-1 1-1.3 0-2.9-0.2-3.9-0.2-0.6-0.1-1-0.6-0.9-1.1q0.7-2.9 1.3-4z"/>
					<path id="&lt;Path&gt;" class="s187" d="m914 284.2l0.4 4.2q-1.6 0.4-2.4-0.2l-0.7-3.9z"/>
					<path id="&lt;Path&gt;" class="s188" d="m924.8 235.6l-0.4 6-5.8 3.7c-0.4 0.3-0.8 0.8-0.9 1.3-3 9.9-2.7 34.9-2.8 39-0.1 0.3-0.3 0.6-0.6 0.6-1 0.3-1.9 0.2-2.5 0.1-0.3 0-0.6-0.3-0.7-0.6-1.3-5-5.1-30.8-2-48.3z"/>
					<g id="&lt;Group&gt;">
						<path id="&lt;Path&gt;" class="s189" d="m939 202.8c0.5 2 1.6 5.2 4 7.7-3.1 1.7-6.9 2.9-11.6 3.4q-5.7 17.8-6.9 24.1-8.3 2.9-15.7 1.1-2.3-17.4 0.5-32.6 10.5-2.4 20-2.2c3 0 6.4-0.5 9.7-1.5z"/>
						<path id="&lt;Path&gt;" class="s190" d="m943 210.5c-2.4-2.5-3.5-5.7-4-7.7 7.6-2.1 14.9-6.5 16.3-11.9q1.2-0.5 2.1 0.6-1.9 12.6-14.4 19z"/>
					</g>
					<g id="&lt;Group&gt;">
						<path id="&lt;Path&gt;" class="s191" d="m957.2 191.7c0.1 0.3-1.1 0.7-1.7-0.4-0.1-0.6-0.4-3-0.1-3.4q2-2.4 5.7-5.5 0.7 0.6 0.1 1.2l-1.8 1.7c0.4 0.6 0.9 1.2 1.1 1.9 0.2 0.6 0 1.2-0.3 1.8-0.3 0.5-0.7 1.2-1.1 1.7q-0.8 1-1.9 1z"/>
						<path id="&lt;Path&gt;" class="s192" d="m958.8 187.4q-0.4 0.6-0.9 3.1l-1.5-1.5 0.6-1.3 1.6-1.3c0.4 0.2 0.6 0.5 0.2 1z"/>
					</g>
					<path id="&lt;Path&gt;" class="s193" d="m906.5 221c-3-1.4-5.8-1.8-7.5-1.9q1.5-7 10.3-12.6l3.7 8.5q-5.2 3.2-6.5 6z"/>
					<path id="&lt;Path&gt;" class="s194" d="m925.9 197.2l-1 6.9c-0.1 0.4-0.3 0.8-0.7 1-3.6 2.1-6.6 0.9-7.4 0.5-0.1-0.1-0.2-0.3-0.1-0.4l3-8z"/>
					<g id="&lt;Group&gt;">
						<path id="&lt;Path&gt;" class="s195" d="m926.3 189.8q3.3 5.7 2.9 8c-0.4 2.3-4.6 2.2-8.2 0.3l-2.5-6.2z"/>
						<path id="&lt;Path&gt;" class="s196" d="m920.7 195.3c-0.1 0-0.1 0.1-0.1 0.2l0.9 2.5c0.1 0.2 0 0.4-0.2 0.4-2.2-0.3-4.2-2.2-4.7-2.6q-0.1-0.1-0.2-0.1c-0.5 0.1-2.3 0.2-2.4-1.3-0.1-1.1 0.6-1.5 1.1-1.6 0.1-0.1 0.2-0.3 0.1-0.4-0.4-0.4-0.9-1.2-0.2-2.6 0.9-1.8 2.7-1.6 3.5-1.5 0.1 0 0.3-0.1 0.3-0.3 0-0.5 0.1-1.5 1.6-2.1 1.7-0.7 2.8 0.4 3.3 1 0.1 0.1 0.3 0.1 0.4 0 2.7-3.3 4.4 0.8 3.7 2.4-0.6 1.6-3.8 2.3-5.9 2.8q-2.1 0.5-1.5 0.8c0.2 0.7 0.7 1.4 0.9 1.8 0.1 0.1 0 0.3-0.1 0.4z"/>
						<path id="&lt;Path&gt;" class="s197" d="m922.3 196.5c-1.1 0.5-3.4-0.1-3.3-1.3q0.2-1.3 2.6 0.2z"/>
					</g>
					<path id="&lt;Path&gt;" class="s198" d="m906.5 221q-4.1 7.4 3.4 11.1l-2.1 1.5q-14.8-1.8-8.7-14.5 3-1.5 7.4 1.9z"/>
				</g>
				<g id="&lt;Group&gt;">
					<g id="&lt;Group&gt;">
						<path id="&lt;Path&gt;" class="s199" d="m909.7 225.8l5.2 1.6c0.7 0.2 1.1 0.7 1.2 1.5l-0.3 8c0.1 1.2-1.1 2.3-2.1 2l-4.2-1.3c-0.4-0.1-0.7-0.5-0.7-1l-0.1-9.9c0-0.6 0.5-1.1 1-0.9z"/>
					</g>
					<path id="&lt;Path&gt;" class="s200" d="m908.4 235.2c-0.2-0.1-1.1-1.8-0.9-3.9 0.3-2.2-0.2-3.2 0.9-3.1 1.1 0.1 2 0.2 1.9 1.3-0.1 1.1 0.2 7.9-1.9 5.7z"/>
				</g>
			</g>
		</g>
	</g>
</svg>