<svg version="1.2" xmlns="http://www.w3.org/2000/svg" viewBox="0 0 1440 550" width="1440" height="550">
	<title>93993-ai</title>
	<defs>
		<clipPath clipPathUnits="userSpaceOnUse" id="cp1">
			<path d="m440 59h945v597.59h-945z"/>
		</clipPath>
	</defs>
	<style>
		.s0 { fill: #f1f1f1 } 
		.s1 { fill: #e5e5e3 } 
		.s2 { fill: #e8aca6 } 
		.s3 { fill: #ffe67d } 
		.s4 { fill: #c7e598 } 
		.s5 { fill: #000000 } 
	</style>
	<g id="Background">
		<g id="&lt;Clip Group&gt;">
			<g id="&lt;Group&gt;">
				<g id="&lt;Group&gt;">
					<path id="&lt;Path&gt;" class="s0" d="m0-139.9h1440v829h-1440z"/>
				</g>
				<g id="&lt;Group&gt;">
					<g id="&lt;Group&gt;">
						<path id="&lt;Path&gt;" class="s1" d="m0-94.3h1440v2.3h-1440z"/>
					</g>
					<g id="&lt;Group&gt;">
						<path id="&lt;Path&gt;" class="s1" d="m0-22.2h1440v2.3h-1440z"/>
					</g>
					<g id="&lt;Group&gt;">
						<path id="&lt;Path&gt;" class="s1" d="m0 49.9h1440v2.3h-1440z"/>
					</g>
					<g id="&lt;Group&gt;">
						<path id="&lt;Path&gt;" class="s1" d="m0 122h1440v2.3h-1440z"/>
					</g>
					<g id="&lt;Group&gt;">
						<path id="&lt;Path&gt;" class="s1" d="m0 194.1h1440v2.3h-1440z"/>
					</g>
					<g id="&lt;Group&gt;">
						<path id="&lt;Path&gt;" class="s1" d="m0 266.2h1440v2.3h-1440z"/>
					</g>
					<g id="&lt;Group&gt;">
						<path id="&lt;Path&gt;" class="s1" d="m0 338.3h1440v2.3h-1440z"/>
					</g>
					<g id="&lt;Group&gt;">
						<path id="&lt;Path&gt;" class="s1" d="m0 410.4h1440v2.3h-1440z"/>
					</g>
					<g id="&lt;Group&gt;">
						<path id="&lt;Path&gt;" class="s1" d="m0 482.5h1440v2.3h-1440z"/>
					</g>
					<g id="&lt;Group&gt;">
						<path id="&lt;Path&gt;" class="s1" d="m0 554.6h1440v2.3h-1440z"/>
					</g>
					<g id="&lt;Group&gt;">
						<path id="&lt;Path&gt;" class="s1" d="m0 626.7h1440v2.3h-1440z"/>
					</g>
				</g>
			</g>
		</g>
	</g>
	<g id="Object">
		<path id="&lt;Compound Path&gt;" class="s2" d="m1265.9 374c-20.9-0.1-38.8-9.5-52.3-25.6-27.5-32.6-46.6-78.9-26-120.2 10.7-21.4 28.6-39.1 46.9-53.5 7.7-6.1 15.9-11.4 24.3-16.4 9.1-5.3 10.1-8.9 22.6-9.7 3.5-0.2 8.3-0.2 13.5-0.1 7.3 0 13.8 3.3 21.8 7.6 9.2 4.9 17.4 11.7 24.3 19.5 15.1 17.3 24.3 39.4 27.3 62.3 5.9 43.6-10.6 88.4-45 115.2-16.4 12.8-36.6 21-57.4 20.9z"/>
		<path id="&lt;Compound Path&gt;" class="s3" d="m991.3 332.4c-2.3-21.7 0.1-44.7 11.1-63.6 10.7-18.4 27.5-27 45.9-28.8 9.2-0.8 18.4-0.4 27.6 0.1 9.3 0.6 19.1 1.5 27.2 7 3.2 2.1 5.8 4.8 8 7.9 12.3 10.9 22.8 25.2 28.5 42.1 6.1 17.8 6 37.7-0.8 55.9-7.1 19.1-20.1 35-35 46.4-15.4 11.9-33.9 20.1-52.2 19.5-39-1.4-56.1-47.8-60.3-86.5z"/>
		<path id="&lt;Compound Path&gt;" class="s4" d="m745.7 423.5c2.3-16 8.6-31.8 20.8-42.7 11.8-10.6 26.5-12.8 41-9.8 7.4 1.6 14.4 4.1 21.4 6.6 7.2 2.6 14.6 5.6 19.8 11.4 2 2.2 3.5 4.7 4.6 7.5 7.5 10.7 12.9 23.3 14.1 36.7 1.3 14.2-2.7 28.3-11.4 39.7-9.1 11.9-22.3 20.2-36 24.9-14.2 4.8-30.1 6.4-44.2 1.6-29.9-10.1-34.3-47.2-30.1-75.9z"/>
	</g>
	<g id="Object">
		<g id="&lt;Clip Group&gt;" clip-path="url(#cp1)">
			<g id="&lt;Group&gt;">
				<g id="&lt;Group&gt;">
					<g id="&lt;Group&gt;">
						<g id="&lt;Group&gt;">
							<g id="&lt;Group&gt;">
								<path id="&lt;Path&gt;" class="s5" d="m897.8 382.4c6.1-16.8-22.6-17.4-32.1-20.3-10.6-3.2-20.6-8.4-29-15.6-18.4-15.7-25.1-40.4-25.5-63.9-0.7-41.5 19.8-82.6 55.8-103.7 35.1-20.5 80.2-20.8 113.7 3.1 15.8 11.2 28.4 26.7 35.9 44.6 8.9 21.3 8.6 44.2 4.5 66.6-3.9 21.9-11.3 44.9-28.7 59.8-7.6 6.5-16.4 10.8-26.2 12.4-6.4 1.1-13.5 1.2-19.3 4.5-5.5 3.1-9.7 9.4-7.1 15.8 0.8 1.9-2.3 2.8-3.1 0.9-3.3-8.2 2.6-16.6 9.9-20.1 5.6-2.7 11.8-3.1 17.8-4 6.4-1 12.4-2.9 18-6.2 23-13.6 31.7-41.1 36-66.1 4-23.5 3.2-47.4-7.8-68.9-9-17.7-23.4-32.7-40.6-42.3-37.1-20.8-85.1-13.6-117 13.8-32.5 28.1-45.9 75.8-34.8 117.2 6.1 22.7 21.9 39.5 43.7 47.5 9.3 3.3 19.6 3.3 28.6 7 7.4 3.1 13.3 10.6 10.4 18.8-0.7 1.9-3.8 1.1-3.1-0.9z"/>
							</g>
						</g>
						<g id="&lt;Group&gt;">
							<g id="&lt;Group&gt;">
								<path id="&lt;Path&gt;" class="s5" d="m899.8 383.7c6 2.2 12.3 3 18.7 2.9 3.2-0.1 6.3-0.3 9.5-0.6 2.1-0.3 7.6-0.1 8.8-1.6 1.3-1.6 3.6 0.7 2.3 2.3-1.5 1.8-4.2 1.6-6.4 1.9-3.8 0.5-7.6 0.9-11.3 1.1-7.7 0.4-15.2-0.2-22.5-2.9-1.9-0.7-1.1-3.8 0.9-3.1z"/>
							</g>
						</g>
						<g id="&lt;Group&gt;">
							<g id="&lt;Group&gt;">
								<path id="&lt;Path&gt;" class="s5" d="m899.9 384c-2 7.2-2.3 14.8-0.2 22.1 1.1 4.2 2.6 7.3 7.1 8 3.9 0.7 7.9 1 11.9 1.1 3.8 0.1 7.6 0 11.4-0.5 5-0.6 7-3.4 8-8.2 1.6-7.6 1.4-15.3-0.3-22.9-0.4-2 2.7-2.9 3.1-0.9 2 9.1 2.9 20.8-1.1 29.5-3.5 7.4-14.4 6.4-21.1 6.2-7.1-0.1-17.4 0.7-20.6-7-3.8-8.9-3.8-19.1-1.3-28.3 0.6-2 3.7-1.2 3.1 0.9z"/>
							</g>
						</g>
						<g id="&lt;Group&gt;">
							<g id="&lt;Group&gt;">
								<path id="&lt;Path&gt;" class="s5" d="m898.2 394.1c13.8 3 27.2 3 41-0.1 2.1-0.4 2.9 2.7 0.9 3.1-14.4 3.2-28.4 3.2-42.8 0.1-2-0.5-1.1-3.6 0.9-3.1z"/>
							</g>
						</g>
						<g id="&lt;Group&gt;">
							<g id="&lt;Group&gt;">
								<path id="&lt;Path&gt;" class="s5" d="m898.2 404.1c13.6 3.7 28 5.6 41.2-0.6 1.8-0.9 3.4 1.9 1.6 2.8-14 6.6-29.1 4.9-43.6 0.9-2-0.5-1.1-3.7 0.8-3.1z"/>
							</g>
						</g>
						<g id="&lt;Group&gt;">
							<g id="&lt;Group&gt;">
								<path id="&lt;Path&gt;" class="s5" d="m909.5 418.3c1.6 5.4 3 18.1 10.2 18 9.3-0.1 9.9-12.5 10.7-19.5 0.3-2 3.5-2 3.2 0-1.1 8.9-1.6 20.7-12.2 22.5-3.8 0.6-7.7 0.2-9.7-3.5-2.7-4.9-3.7-11.3-5.3-16.6-0.6-2 2.5-2.9 3.1-0.9z"/>
							</g>
						</g>
						<g id="&lt;Group&gt;">
							<g id="&lt;Group&gt;">
								<path id="&lt;Path&gt;" class="s5" d="m911 386c-2.8-24.1-8.1-47.8-15.6-70.8-1.6-5.1-3.1-10.4-5.4-15.2-2.3-4.5-11.2-12.8-15.6-5.1-3.8 6.8 5.2 11.9 10.3 13.1 5 1 10.5 1.4 15.6 1 5.6-0.5 11.2-2.3 15.3-6.4 3.8-3.8 6.6-10 3.1-14.8-4.2-5.8-10.3 0.5-10.2 5.7 0 2.7 1.1 5.4 2.6 7.5 2.4 3.6 6.3 6 10.3 7.4 7.1 2.4 21.9 4.2 26.7-3.3 1.8-3-0.1-8-3.8-8.1-1.4 0-3.1 0.6-4.2 1.3-2.4 1.7-3.6 4.5-4.3 7.2-1.3 4.8-1.4 10.1-1.9 15.1q-3.2 33.4-6.4 66.8c-0.2 2.1-3.4 2.1-3.2 0q3.1-32.9 6.3-65.8c0.7-7.4 0.2-17.7 5.3-23.7 3.1-3.7 9.1-5.6 13.3-2.7 3.7 2.7 3.9 7.8 1.6 11.5-3.1 5.1-9.6 6.3-15 6.6-10.9 0.7-24.4-2.6-29.1-13.6-2-4.6-2.1-10.6 1.6-14.5 3.2-3.3 8.7-4.1 12.2-0.9 9.4 8.7-2.2 22.4-10.6 25.8-7.1 2.9-15.2 2.6-22.7 1.5-5.4-0.7-11.5-2.4-14.6-7.3-6.9-10.7 5.5-20 14.9-12.7 4.9 3.8 6.8 10.4 8.8 16q4.5 13.2 8.1 26.6c4.6 17 7.8 34.3 9.8 51.8 0.3 2.1-2.9 2.1-3.2 0z"/>
							</g>
						</g>
					</g>
					<g id="&lt;Group&gt;">
						<g id="&lt;Group&gt;">
							<path id="&lt;Path&gt;" class="s5" d="m921.4 438.7c-5.3 16.8-10.7 33.8-12.4 51.4-0.8 8.1-1.2 16.7 0.4 24.7 1.6 7.8 8.5 18.8 18 14 9.2-4.6 1.6-16.5-6.3-16.9-8-0.3-14.1 5.8-17.6 12.4-7.2 13.6-8.2 29.6-5.9 44.6 1.8 11.9-0.3 22.6-7.8 32.2-5.3 6.8-14.9 11.9-22.3 4.9-6.4-5.9-2.7-15.4 5.7-16.3 9.3-1.1 17.4 8.9 22.1 15.8 5.9 8.6 8.3 20.2 10.4 30.4 1.8 8.2 1.8 16.5 1.8 24.8 0 2.1-3.2 2.1-3.2 0 0-10.4-0.5-20.1-3.2-30.2-3.5-13.3-7.9-28.3-20.7-35.9-4.4-2.6-14.5-2.2-13 5.6 1 4.7 7 6.8 11.1 5.6 6.3-1.7 10.5-8.4 13.2-14 6.9-14.1 0.3-29.3 1.9-44.3 1.3-11.4 4.7-25.3 13.5-33.3 6.4-5.9 17.7-8.2 24.1-1 5.1 5.8 4.5 15.9-3.3 18.9-8.2 3.1-16.3-2.6-19.6-10-5.1-11.5-3.5-26.5-1.7-38.5 2.2-15.6 6.9-30.8 11.7-45.8 0.7-2 3.7-1.1 3.1 0.9z"/>
						</g>
					</g>
				</g>
				<g id="&lt;Group&gt;">
					<g id="&lt;Group&gt;">
						<g id="&lt;Group&gt;">
							<g id="&lt;Group&gt;">
								<path id="&lt;Path&gt;" class="s5" d="m1144.8 508.8c-25.3-3.3-43.7-32.9-41.7-57.4 1.8-23 17.3-46.2 36.7-58 20.5-12.5 47.1-12.4 66.2 2.6 19.8 15.7 33.7 40.2 29.3 66.1-4 23.8-22.8 42.6-46.1 47.5-2 0.4-2.8-2.7-0.8-3.1 24.9-5.3 43.7-26.8 44.5-52.7 0.8-23.1-14.2-46-33.1-58.3-19.4-12.6-44.9-9.5-63 3.8-17 12.4-31.2 35.3-30.6 56.9 0.5 21 16.5 46.5 38.6 49.4 2 0.2 2 3.5 0 3.2z"/>
							</g>
						</g>
						<g id="&lt;Group&gt;">
							<g id="&lt;Group&gt;">
								<path id="&lt;Path&gt;" class="s5" d="m1147.2 507.8c1.6 5.1 2.6 10.2 2.6 15.6q-1.6-0.2-3.2-0.4c1.2-6.4 14-6.5 18.8-6.5 6.4 0.1 14.6 0.8 20.2 3.9 2.4 1.3 3.3 2.6 3.2 5.3 0 4.6-6 5.8-9.8 6.6-6.4 1.5-13.1 1.3-19.4-0.1-5.3-1.1-11.4-2.5-13-8.4-0.5-2 2.6-2.8 3.1-0.8 1.5 5.8 12.5 6.7 17.2 7 4.6 0.3 9.2 0 13.5-1.4 2.6-0.8 7.6-2.5 4-5.3-1.9-1.4-5.2-1.8-7.5-2.2-3.9-0.8-8.1-1.4-12.1-1.3-3.1 0-14.3 0.1-15.1 4-0.4 1.9-3.2 1.4-3.1-0.4 0-5.1-1-9.9-2.5-14.8-0.6-2 2.5-2.8 3.1-0.8z"/>
							</g>
						</g>
						<g id="&lt;Group&gt;">
							<g id="&lt;Group&gt;">
								<path id="&lt;Path&gt;" class="s5" d="m1186.3 523.7c0.1-5 0.4-10.1 0.5-15.1 0-2.1 3.2-2.1 3.2 0-0.1 5-0.4 10.1-0.5 15.1-0.1 2.1-3.3 2.1-3.2 0z"/>
							</g>
						</g>
						<g id="&lt;Group&gt;">
							<g id="&lt;Group&gt;">
								<path id="&lt;Path&gt;" class="s5" d="m1150.2 525.4c1.5 4.6 0.9 9 6.4 11.2 3.9 1.5 8 1.9 12.1 2 3.8 0 8.5 0 12.2-1 6.8-1.8 6.2-7.9 5.2-13.4-0.4-2 2.7-2.9 3.1-0.9 0.9 5 1.8 10.8-2.1 14.7-3.6 3.7-10.1 3.5-14.9 3.7-6.2 0.3-12.8-0.1-18.6-2.9-6.3-3-4.6-6.7-6.5-12.6-0.7-1.9 2.4-2.8 3.1-0.8z"/>
							</g>
						</g>
						<g id="&lt;Group&gt;">
							<g id="&lt;Group&gt;">
								<path id="&lt;Path&gt;" class="s5" d="m1153.5 536.2c-0.4 7.8 8.6 14.6 15.7 16.1 8.1 1.8 15.4-9.6 16.5-16.3 0.3-2 3.4-1.2 3.1 0.9-1.3 8.1-9.7 19.9-19 18.8-4.8-0.6-10.3-4.1-13.9-7.3-3.7-3.1-5.9-7.3-5.6-12.2 0.1-2.1 3.3-2.1 3.2 0z"/>
							</g>
						</g>
						<g id="&lt;Group&gt;">
							<g id="&lt;Group&gt;">
								<path id="&lt;Path&gt;" class="s5" d="m1165.7 523.1q-2.2-27.6-4.5-55.2c-0.2-2.1 3-2.1 3.2 0q2.3 27.6 4.5 55.2c0.2 2.1-3 2.1-3.2 0z"/>
							</g>
						</g>
						<g id="&lt;Group&gt;">
							<g id="&lt;Group&gt;">
								<path id="&lt;Path&gt;" class="s5" d="m1161.8 467.7c-8.1 2.1-20.8 5.4-24.7-4.9-2.4-6.3 2.6-14.5 9.6-10.5q-1.2 0.9-2.4 1.8c-1.2-7.2 2.3-15.5 9.8-17.7 7.3-2.1 15.1 3 16.5 10.4q-1.3-0.4-2.6-0.7c7.9-9.7 22-2.3 20 9.6q-1.1-0.9-2.3-1.8c5.4-3.2 12.7 5.1 8.5 9.8-2.5 2.8-9.2 2.3-12.5 2.7-6.8 0.7-13.5 1.2-20.3 1.3-2.1 0.1-2.1-3.2 0-3.2 5.4-0.1 10.8-0.4 16.3-0.9q4-0.4 8.1-0.9 2.3-0.3 4.7-0.6 3.9-3.8-3.2-5.5c-1.3 0.8-2.6-0.4-2.4-1.8 1.6-9.1-9.1-13.2-14.7-6.5-0.7 1-2.4 0.5-2.7-0.7-1.1-5.6-6.8-9.8-12.6-8.1-5.7 1.8-8.4 8.2-7.5 13.8 0.2 1.3-1 2.5-2.3 1.8q-8.3 1.7-4.4 7.8 0.8 1 1.6 2c2.2 2 4.7 1.8 7.3 1.6 3.9-0.2 7.6-1 11.4-1.9 2-0.6 2.8 2.6 0.8 3.1z"/>
							</g>
						</g>
					</g>
					<g id="&lt;Group&gt;">
						<g id="&lt;Group&gt;">
							<path id="&lt;Path&gt;" class="s5" d="m1176.5 554q3.8 26.8 7.6 53.5c2.5 17.7 4.9 35.4 4.8 53.2 0 2.1-3.2 2.1-3.2 0 0.1-18.3-2.4-36.3-5-54.4q-3.6-25.7-7.2-51.4c-0.3-2.1 2.8-3 3-0.9z"/>
						</g>
					</g>
				</g>
				<g id="&lt;Group&gt;">
					<g id="&lt;Group&gt;">
						<g id="&lt;Group&gt;">
							<g id="&lt;Group&gt;">
								<path id="&lt;Path&gt;" class="s5" d="m1243.2 396.9c2.4-15.3-10.6-26.4-22-33.9-10.1-6.7-19.9-13.1-27.6-22.8-7-8.8-12.1-18.9-16.4-29.3-4.9-12.1-8.7-24.8-9.2-38-0.8-22.6 10.8-44.7 22.7-63.1 11.7-18 27-34 46-44 36.2-19.1 78.5-9.8 109.3 15.5 15.7 12.8 29.6 30.2 34.6 50.3 5.5 22 1.9 47.5-5.7 68.6-7.1 20-20.3 36.6-36.8 49.6-7.8 6.2-16.2 11.5-24.9 16.3-10.4 5.7-25.3 14.3-20.8 28.7 0.7 2-2.4 2.8-3 0.9-3.1-9.7 2.2-18.8 9.7-24.7 8.8-6.9 19.5-11.2 28.7-17.6 20.2-13.8 36.7-32.4 44.7-55.9 7.4-21.8 10.9-48.4 3.4-70.6-6.8-20.1-22.6-37.3-39.8-49.1-16.4-11.4-35.9-18.7-56-19.2-21.8-0.6-42.4 7.9-59.3 21.6-16.9 13.9-29.5 32.5-39.1 52.1-5.3 10.9-9.8 22.4-10.4 34.6-0.7 12.7 2.4 25.1 6.6 36.9 7.9 21.7 19.5 39.9 38.9 52.5 14.5 9.4 32.6 21.4 29.5 41.5-0.3 2-3.4 1.1-3.1-0.9z"/>
							</g>
						</g>
						<g id="&lt;Group&gt;">
							<g id="&lt;Group&gt;">
								<path id="&lt;Path&gt;" class="s5" d="m1244.9 396.6c8.6 1.6 17.8 0.2 26.5-0.4 6.9-0.4 16.1-2.6 22.7-0.1 3.7 1.4 6.5 5.1 5.3 9.2-1.5 4.8-6.9 7.1-11.1 8.6-7.1 2.5-14.5 3.6-21.9 4.4-6.7 0.7-13.8 2-20.1-1.5-4.3-2.4-8.4-6.9-8.8-12-0.4-4.2 2.1-7.9 6.3-8.6 2-0.3 2.9 2.8 0.8 3.1-10.1 1.8 0.3 13.4 4.6 15.3 4.6 2 9.5 1.2 14.4 0.8 9.1-0.9 20-1.8 28.1-6.4 3.2-1.8 8.7-6.5 0.9-10-2.5-1.2-6.2-0.4-8.8-0.3q-7.2 0.4-14.4 0.9c-8.4 0.5-17 1.6-25.4 0.1-2-0.3-1.1-3.4 0.9-3.1z"/>
							</g>
						</g>
						<g id="&lt;Group&gt;">
							<g id="&lt;Group&gt;">
								<path id="&lt;Path&gt;" class="s5" d="m1245.9 414c-0.5 1.5-1 3-1.3 4.5-0.5 3-0.6 3.7 1.1 6.4 1.8 2.7 1.9 2.8 4.8 2.9 1.1 0 2.1-0.1 3.2-0.2q8-0.5 16-1.4c5.8-0.7 11.9-1.3 17.6-2.9 2.8-0.8 6.4-2.1 8-4.8 1.5-2.6 1.3-6.3-1.5-7.9-1.8-1-0.1-3.8 1.6-2.8 4.7 2.7 5.2 9.1 2 13.3-4.9 6.3-15.4 6.7-22.5 7.7-5.4 0.7-10.8 1.3-16.2 1.7-4.1 0.3-8.9 1.3-12.9-0.2-7.1-2.7-4.9-11.6-3-17.2 0.7-1.9 3.8-1.1 3.1 0.9z"/>
							</g>
						</g>
						<g id="&lt;Group&gt;">
							<g id="&lt;Group&gt;">
								<path id="&lt;Path&gt;" class="s5" d="m1254.9 428.6c2 2.5 3.7 5.1 5 8.2 1 2.6 0.8 4.7 4.5 5.4 1.5 0.3 3.6 0 5.1-0.1 4.2-0.1 11.2 0.4 14.4-2.4 3.7-3.3 3.1-10 2.7-14.6-0.2-2.1 3-2.1 3.2 0 0.4 4.7 0.9 13.6-2.9 17.3-2.6 2.6-8.3 2.3-11.8 2.6-4.2 0.4-10.9 1.8-14.7-0.7-1.3-0.9-1.9-2.2-2.6-3.7-1.6-3.6-2.7-6.6-5.2-9.7-1.3-1.6 0.9-3.9 2.3-2.3z"/>
							</g>
						</g>
						<g id="&lt;Group&gt;">
							<g id="&lt;Group&gt;">
								<path id="&lt;Path&gt;" class="s5" d="m1256.8 396.1c-1.7-29.7-3.5-59.7-11.7-88.4-1.9-6.4-3.8-13.3-7.3-19.1-1.6-2.8-3.9-5.8-6.8-7.4-3.1-1.6-6.2-2.1-7.8 1-0.9 1.9-0.7 3.6 0.5 5.3 6.2 8.9 21.6 9.1 30.2 4.9 4.2-2.1 13.5-9.8 7.3-14.3-3.3-2.5-4.7 1.5-4.7 4.4 0 4 3 8 6.1 10.1 6 4.2 14.7 3.3 18.8-3.1 1.1-1.6 3-6.8 1.7-8.8-1.4-1.9-4.1-1.1-5.3 0.2-2.6 3.2-1.7 6.5 0.3 9.5 4.6 7 13.9 7.5 21.2 5.6 2.7-0.6 5.6-1.5 8-2.9 0.9-0.5 10.9-8.4 3.8-10-6.8-1.5-11.9 8.8-14.4 13.4-3.2 5.9-5.9 12.1-8.1 18.5-8.8 25.5-9.7 52.8-10.5 79.5-0.1 2.1-3.3 2.1-3.2 0 0.8-26.7 1.7-54 10.3-79.5 3.4-10.2 8-22.3 15.3-30.3 3.5-3.8 14.3-8.4 16.2-0.6 1.5 6.2-6.4 11.4-11.1 13.3-8.4 3.3-18.8 4.6-26.5-1.3-5.3-4-8.6-11.9-3.5-17.4 4-4.4 9.8-4.2 10.8 2.4 2.2 16.2-18.6 22.4-28.5 11.6-3.7-4-6.6-11.4-3.3-16.6 2.5-4.2 9.2-2.8 10.9 1.4 2.7 6.3-1.8 12.4-6.8 15.8-6.5 4.5-14.8 5.9-22.5 4.4-5.4-1-13.6-4.4-16-9.9-2.7-6 0.9-11.5 7.4-11 8 0.7 13 9.2 15.8 15.8 4.4 10.7 7.2 22.3 9.4 33.6 4.5 23 5.9 46.5 7.2 69.9 0.2 2.1-3.1 2.1-3.2 0z"/>
							</g>
						</g>
					</g>
					<g id="&lt;Group&gt;">
						<g id="&lt;Group&gt;">
							<path id="&lt;Path&gt;" class="s5" d="m1273.2 445.6q-1 31.3-2 62.5c-0.3 8.7-0.9 17.3-0.7 26 0.2 8.5 1.4 18.5 7.8 24.8 3.6 3.5 9.8 5.7 14 1.8 3.3-3.2 3.6-8.9-0.1-11.8-3.3-2.5-8.3-2.8-11.9-0.8-3.6 2-5.1 6.1-5.8 9.9-1.5 8.6-1.6 17.7-2.2 26.4-0.6 8.8-1.1 17.6-1.9 26.4-1.5 17-3.9 33.9-8.7 50.3-0.6 2-3.7 1.2-3.1-0.8 7.7-26.3 9-53.7 10.9-80.9 0.8-12.2-0.4-39.8 19.4-35.5 13.9 3.1 10.5 23.5-3.4 22.1-8-0.8-13.3-8.2-15.7-15.3-3.3-9.9-2.5-20.7-2.2-30.9q1.2-37.1 2.4-74.2c0-2 3.2-2 3.2 0z"/>
						</g>
					</g>
				</g>
				<g id="&lt;Group&gt;">
					<g id="&lt;Group&gt;">
						<g id="&lt;Group&gt;">
							<g id="&lt;Group&gt;">
								<path id="&lt;Path&gt;" class="s5" d="m786.8 506.5c-9.4-3.5-18.2-7.5-25.4-14.6-6.7-6.7-11.3-14.9-14.9-23.5-7-16.9-5.9-35.1 2.5-51.2 15.8-30.3 52.1-49.4 85.8-43.7 29.8 5.1 57 29.6 61 60.6 3.9 29.7-13.6 60.1-41.5 70.7-3.4 1.3-7 2.5-10.1 4.5-1.8 1.2-3.5 2.7-4.5 4.7-1.4 2.6-0.5 5.3-1.3 8-1.6 6.1-9.7 5.4-14.5 5.6-6.9 0.4-17.8 2.7-23.9-1.7-2.7-2-3.7-5-4.4-8.3-1.2-5.8-3.2-8.8-8.8-11.1-1.9-0.8-1.1-3.9 0.8-3.1 6.8 2.8 9.5 6.2 11.1 13.4 0.7 3.3 1.8 6.3 5.5 7.5 1.9 0.7 4.2 0.5 6.2 0.5 5.5 0 11.1-0.2 16.6-0.6 1.8-0.1 4.5 0.2 6.1-0.7 2.7-1.5 2.1-4.8 2.5-7.2 0.5-2.6 1.6-4.9 3.3-6.7 4.1-4.5 10.3-6.2 15.7-8.4 27.1-10.6 43.3-42.3 37.4-70.8-6.1-29.4-33.7-51.7-62.9-54.4-32.7-3-67.8 17.8-80.1 48.7-6 15.2-4.9 30.8 1.8 45.5 3.3 7.4 7.6 14.4 13.4 20 6.7 6.4 14.9 10 23.4 13.2 1.9 0.7 1.1 3.8-0.8 3.1z"/>
							</g>
						</g>
						<g id="&lt;Group&gt;">
							<g id="&lt;Group&gt;">
								<path id="&lt;Path&gt;" class="s5" d="m802.7 526.1c-5.3 5.6 7.5 5.9 8.6 5.9q3.5 0.2 7.1 0.2 3.5 0 7-0.2 2-0.1 4-0.3 4.9 0.3 4.6-5.5c-1.8-0.9-0.2-3.7 1.6-2.8 3.5 1.7 3.9 5.6 1.5 8.4-3.6 4.3-11.8 3.6-16.7 3.6q-6.6 0.1-13.1-0.4c-2.4-0.2-5-0.2-6.9-1.8-3.2-2.7-2.5-6.7 0.1-9.4 1.4-1.5 3.7 0.8 2.2 2.3z"/>
							</g>
						</g>
						<g id="&lt;Group&gt;">
							<g id="&lt;Group&gt;">
								<path id="&lt;Path&gt;" class="s5" d="m803.8 534.2c-2 2.5-1.5 5.4 1.2 6.8 1.5 0.7 3.7 0.5 5.4 0.5 2.7 0 5.5-0.1 8.3-0.4 3.6-0.3 7.3-0.9 10.9-1.5 1-0.2 3.7-0.2 4.4-0.8 1.4-1.2 0.5-3.9-0.3-5-1.3-1.6 1.5-3.3 2.7-1.6 9 12.1-13.9 12-20.9 12.4-4.3 0.2-12 1.2-15.5-2.4-3.2-3.3-0.7-7.4 1.5-10.3 1.3-1.6 3.5 0.7 2.3 2.3z"/>
							</g>
						</g>
						<g id="&lt;Group&gt;">
							<g id="&lt;Group&gt;">
								<path id="&lt;Path&gt;" class="s5" d="m808.7 544.3c0.8 3.1 1.4 8.7 3.9 10.8 2.2 1.9 5.7 1.3 8.6 1.2 1.7-0.1 3.5-0.3 5.2-0.6q1.7-0.2 3.3-0.3 0.2-1 0.4-2c1.4-2.7 1-8 1.1-11.2 0.1-2.1 3.3-2.1 3.2 0-0.1 3.7 0.3 11.8-2 15-1.6 2.2-7 2-9.4 2.2-3.4 0.3-10.4 1.4-13.2-0.9-1-0.8-1.2-2.6-1.5-3.7-0.9-3.2-1.8-6.4-2.7-9.6-0.5-2 2.6-2.9 3.1-0.9z"/>
							</g>
						</g>
						<g id="&lt;Group&gt;">
							<g id="&lt;Group&gt;">
								<path id="&lt;Path&gt;" class="s5" d="m812.6 525.8q-10.3-35.1-16.8-71.2c-0.2-1.2 1.1-2.7 2.3-1.8 4.5 3.1 8.7 6.5 12.7 10.3q-1.2 0.1-2.5 0.3c2.2-3.9 3.7-8 4.8-12.4 0.3-1.4 2.2-1.4 2.9-0.3q1.8 2.6 3.5 5.1c0.6 0.9 1.5 3 2.3 3.5 2.8 1.5 6.2-4 7.8-5.7 1-1.1 2.6-0.1 2.7 1.2 2.1 23.8-9 46.6-6.2 70.5 0.2 2.1-3 2.1-3.2 0-2.8-23.9 8.3-46.7 6.2-70.5q1.4 0.5 2.7 1.1c-1.9 2.1-6.3 9.2-9.7 8.3-1.4-0.4-2.2-2.1-3-3.3q-2.9-4.3-5.9-8.6 1.5-0.2 3-0.4c-1.1 4.7-2.8 8.9-5.1 13.1-0.5 1-1.8 1-2.5 0.3-3.8-3.5-7.8-6.7-12.1-9.7q1.2-0.9 2.4-1.8 6.5 36 16.8 71.2c0.5 2-2.6 2.8-3.1 0.8z"/>
							</g>
						</g>
						<g id="&lt;Group&gt;">
							<g id="&lt;Group&gt;">
								<path id="&lt;Path&gt;" class="s5" d="m859.3 400.2c12.6 7 21.4 19.3 23.8 33.7 0.3 2-2.8 2.9-3.1 0.8-2.3-13.6-10.4-25.1-22.4-31.7-1.8-1-0.2-3.8 1.7-2.8z"/>
							</g>
						</g>
					</g>
					<g id="&lt;Group&gt;">
						<g id="&lt;Group&gt;">
							<path id="&lt;Path&gt;" class="s5" d="m821.6 557.8c-4.1 34.4 6.6 68.5 3 102.9-0.2 2.1-3.4 2.1-3.2 0 3.6-34.4-7.1-68.5-3-102.9 0.3-2.1 3.5-2.1 3.2 0z"/>
						</g>
					</g>
				</g>
				<g id="&lt;Group&gt;">
					<g id="&lt;Group&gt;">
						<g id="&lt;Group&gt;">
							<g id="&lt;Group&gt;">
								<path id="&lt;Path&gt;" class="s5" d="m1060 468.8c-10.6-0.1-26 2.4-35-4.9-3-2.5-4.6-5.4-4.6-9.3-0.1-6.4 0.5-12.9 0.7-19.4 0.2-7.4 0.4-13.9-5.4-19.4-3.9-3.8-8.7-6.6-12.9-10.1-8.9-7.5-16.3-16.9-21.5-27.4-19.2-38-7.6-85.5 25.6-111.5 32.6-25.4 84.7-29.8 113.7 3.3 27.6 31.7 29.1 82.6 6 117.2-5.5 8.3-12.5 15.7-20.4 21.7-4.4 3.3-9.2 6.2-14.2 8.6-4.2 2-9.1 3-13.2 5.4-6.3 3.7-2.9 15.5-2.4 21.6 0.4 5.2 1.4 11.2 0.1 16.4-2 8.1-9.6 8-16.5 7.8-2.1 0-2.1-3.3 0-3.2 6.3 0.1 13 0.6 13.8-7.6 0.5-6.1-0.5-12.6-1-18.6-0.4-4.5-2-10.3-0.1-14.6 1.6-3.4 5.1-5 8.3-6.3 21.5-8.1 38.8-22.5 49-43.5 17-35.3 11.5-84-19.3-110.1-33-27.9-86.2-15.1-113.2 15.1-28.1 31.5-30.1 80.2-2.9 112.9 6 7.2 13.3 12.3 20.5 18.1 7 5.6 9.5 11.4 9.3 20.3-0.1 5.9-0.2 11.9-0.5 17.8-0.2 5.1-1 9.4 3.8 12.8 4.3 3.1 10.7 3.3 15.8 3.6 5.5 0.2 11 0 16.5 0.1 2.1 0 2.1 3.2 0 3.2z"/>
							</g>
						</g>
						<g id="&lt;Group&gt;">
							<g id="&lt;Group&gt;">
								<path id="&lt;Path&gt;" class="s5" d="m1022.7 425.9c16.8-2.6 33.7-1.9 50.3 2.2 2 0.5 1.1 3.6-0.9 3.1-15.9-3.9-32.3-4.7-48.5-2.2-2.1 0.3-2.9-2.8-0.9-3.1z"/>
							</g>
						</g>
						<g id="&lt;Group&gt;">
							<g id="&lt;Group&gt;">
								<path id="&lt;Path&gt;" class="s5" d="m1023.1 436.9q25.6 2.5 51.4 2.4c2 0 2 3.2 0 3.2q-25.8 0.1-51.4-2.4c-2-0.2-2-3.4 0-3.2z"/>
							</g>
						</g>
						<g id="&lt;Group&gt;">
							<g id="&lt;Group&gt;">
								<path id="&lt;Path&gt;" class="s5" d="m1024.4 449.1q25.4 1.9 50.9 1.1c2 0 2 3.2 0 3.3q-25.5 0.7-50.9-1.2c-2-0.1-2-3.4 0-3.2z"/>
							</g>
						</g>
						<g id="&lt;Group&gt;">
							<g id="&lt;Group&gt;">
								<path id="&lt;Path&gt;" class="s5" d="m1037.1 466.8c0.8 2.6 0.9 5.3 1.6 7.8 1.3 4.6 5.1 4.4 8.9 4.5 3.5 0.2 7 0.8 10.1-0.8 3.7-1.9 3.6-6.6 4.2-10.4 0.3-2.1 3.3-1.2 3 0.9-0.5 4.1-0.8 10.2-4.8 12.7-3.5 2.1-8.7 1-12.5 0.9-3.5-0.2-7.6 0.2-10.1-2.9-2.7-3.2-2.3-8-3.5-11.8-0.6-2 2.5-2.8 3.1-0.9z"/>
							</g>
						</g>
						<g id="&lt;Group&gt;">
							<g id="&lt;Group&gt;">
								<path id="&lt;Path&gt;" class="s5" d="m1041.8 425.2c6.3-17.2 11.8-34.8 18-52.1 3.2-8.7 6.6-17.5 8.3-26.6 0.9-4.7 2.8-15.8-5.9-14.2-5.7 1.1-7.4 8.2-8.5 12.9-0.3 1.4-2.2 1.5-2.9 0.4-2.3-3.5-4.4-9.5-8.9-10.5-8.7-1.9-3.6 10.9-2.2 14.3 3.2 8.1 6.7 15.9 9.6 24.1 6 17 10.3 34.6 13.1 52.4 0.3 2-2.8 2.9-3.1 0.9-4-25.8-11.6-50.3-21.8-74.3-2.1-5.1-7.9-17-0.2-20.3 8.2-3.4 12.8 6.4 16.2 11.8q-1.4 0.1-2.9 0.3c1.7-6.9 6.5-18.7 16-14.9 8.3 3.3 5.3 15.4 3.8 21.8-3.1 12.8-8.4 25.1-12.6 37.5-4.3 12.5-8.4 25-12.9 37.4-0.7 1.9-3.8 1.1-3.1-0.9z"/>
							</g>
						</g>
					</g>
					<g id="&lt;Group&gt;">
						<g id="&lt;Group&gt;">
							<path id="&lt;Path&gt;" class="s5" d="m1050.2 482.5c-4.5 16.6-6.6 33.6-5.9 50.8 0.6 17.5 5.2 33.6 8.9 50.6 2.8 12.7 4.4 26.1 3.6 39-0.8 12.7-3.5 25.2-5.1 37.8-0.3 2-3.5 2.1-3.2 0 1.7-13 4.5-25.9 5.2-39 0.7-14.3-1.5-29-5-42.8-4-16.1-7.4-31.9-7.7-48.6-0.3-16.4 1.8-32.8 6.1-48.6 0.6-2 3.7-1.2 3.1 0.8z"/>
						</g>
					</g>
				</g>
				<g id="&lt;Group&gt;">
					<g id="&lt;Group&gt;">
						<g id="&lt;Group&gt;">
							<g id="&lt;Group&gt;">
								<path id="&lt;Path&gt;" class="s5" d="m657.4 584.9c-0.9-16.4-16.5-21.4-25.5-32.6-7.2-8.8-11.3-20-11.6-31.5-0.3-12 3.3-23.7 8.7-34.3 5.1-10.2 11.6-20.2 21.6-26 18.5-10.9 48.2-12 66 1 17.9 13.1 26.5 38.3 20.1 59.7-3.3 10.8-9.9 20.2-17.3 28.4-4.5 5-9.3 9.7-14.3 14.2-2.7 2.4-7 5.1-7.5 9-0.4 2.9 1 6.3 1.9 9 0.6 2-2.5 2.8-3.1 0.8-1.3-3.9-3.2-9.1-1.3-13.2 2.4-4.9 8.6-8.6 12.5-12.3 9.2-8.7 18.1-18.4 23.4-30.1 10.3-22.3 2.2-51.7-19-64.7-10.2-6.2-23.1-7.4-34.8-6.3-12.5 1.2-25.4 5-34.1 14.6-15.4 16.9-24.8 44.4-16.3 66.5 2.1 5.7 5.4 11 9.5 15.4 3.8 4.2 8.3 7.1 12.7 10.5 6.8 5.5 11.2 13.1 11.6 21.9 0.2 2-3 2-3.2 0z"/>
							</g>
						</g>
						<g id="&lt;Group&gt;">
							<g id="&lt;Group&gt;">
								<path id="&lt;Path&gt;" class="s5" d="m660.3 587.7c-2.9 1.2 4.5 3.1 4.5 3.1 1.3 0.2 2.5 0.3 3.7 0.4 3.5 0.4 7.1 0.7 10.6 0.7 6.1-0.1 12.5-0.3 18.4-1.8 1-0.2 3-0.4 3.7-1.2 3.6-3.8-3.1-4.3-5.3-4.2-3.7 0.1-7.4 0.5-11.1 0.8-8.1 0.5-16.5 0.5-24.5 2.2-2 0.4-2.8-2.7-0.8-3.1 6.9-1.5 14.2-1.6 21.3-2.1 6.2-0.4 14.3-2.4 20.5-0.8 2.7 0.7 5.7 3 5.1 6.2-0.5 2.8-3.8 4.1-6.2 4.9-10.6 3.3-22.8 2.6-33.6 1.5-3.2-0.4-7.8-0.6-10-3.4-2.4-3.1 0.1-5.2 2.9-6.3 1.9-0.8 2.7 2.3 0.8 3.1z"/>
							</g>
						</g>
						<g id="&lt;Group&gt;">
							<g id="&lt;Group&gt;">
								<path id="&lt;Path&gt;" class="s5" d="m660.8 593.6q-2.3 0.4-1.8 3 2 0.6 4.2 0.6 3.9 0.4 7.9 0.6 7.8 0.3 15.6 0.1c3.7-0.1 7.3-0.2 11-0.4 1.6-0.1 3.2-0.1 4.8-0.5 3.6-1 2.2-4-0.5-5.7-1.7-1.1-0.1-3.9 1.6-2.8 3.5 2.2 7.4 6.9 2.9 10.2-4.2 3.2-12.1 2.2-17 2.3-5.8 0.3-11.6 0.3-17.4 0-4.4-0.2-9.8 0.2-14-1.3-6-2-3.5-6.9 1.1-8.9 1.8-0.8 3.5 2 1.6 2.8z"/>
							</g>
						</g>
						<g id="&lt;Group&gt;">
							<g id="&lt;Group&gt;">
								<path id="&lt;Path&gt;" class="s5" d="m661.1 600.4c-3.7 3.2 6.8 3.9 7.2 3.9q2.1 0.1 4.2 0.2c4 0 8-0.3 12-0.5 4.1-0.3 8.2-0.1 12.2-0.2 1.4-0.1 2.7-0.1 4-0.2q1.8-0.1 3.6-0.5 3-0.2 2.2-4.3c-1.8-1-0.2-3.8 1.6-2.8 4.1 2.5 3.7 7-0.5 9.4-5.7 3.2-15 1.5-21.2 1.7-7.7 0.3-16.6 1.9-24.3-0.1-4.4-1.2-7.2-5.4-3.3-8.9 1.6-1.4 3.9 0.9 2.3 2.3z"/>
							</g>
						</g>
						<g id="&lt;Group&gt;">
							<g id="&lt;Group&gt;">
								<path id="&lt;Path&gt;" class="s5" d="m663.6 607.5q0.3 6.2 4.8 5.2 1.1 0 2.1 0 3.2-0.1 6.3-0.2c3.9-0.2 7.7-0.4 11.5-0.5 3.8-0.2 7.7-0.4 11.5-0.5 1.9 0 4.8 0.3 6.6-0.4 2-0.9 3.7-3.8 0.8-5.2-1.9-0.9-0.3-3.7 1.6-2.8 3.3 1.6 5.2 6.7 2.1 9.4-1.7 1.6-4.6 2-6.9 2.2-5.5 0.6-11.2 0.3-16.7 0.5-5.6 0.3-11.2 0.6-16.8 0.7-3 0.1-6.3 0.4-9-1.3-3.5-2.2-3.5-8.1 0.5-9.9 1.8-0.8 3.5 2 1.6 2.8z"/>
							</g>
						</g>
						<g id="&lt;Group&gt;">
							<g id="&lt;Group&gt;">
								<path id="&lt;Path&gt;" class="s5" d="m671.5 583.6c-1.5-15.4-4.7-31.7-11.2-45.8-0.7-1.5-2-4.3-3.6-5-2.8-1.2-6.8 1.3-4 5 2.3 3 8 3.9 11.4 3.8 3.8-0.1 7.7-1.5 10.4-4.2 1.7-1.8 5.4-8.5 0.6-9.3-5-0.8-3 3.9-2 5.5 1.4 2.1 3.9 3.5 6.2 4.3 2.9 0.9 6.2 0.8 9.2 0.8 2.9 0 9.2 0 7.5-5-2.7-8.2-8.6 1.6-9.4 4.7-1.8 6.8-1.7 14.5-2.1 21.5q-0.7 11.8-0.7 23.5c0 2.1-3.2 2.1-3.2 0 0-14.2 0-29 2.4-43.1 1-6 7.7-18.8 14.7-10.2 4.2 5.1 1.5 10.5-4.4 11.5-7.4 1.4-18.4 0.7-22.9-6.3-3.3-5.2-0.8-12 6.2-10.3 6.5 1.6 3.7 10.8 0.6 14.2-5.6 6.2-15.6 7.2-22.9 3.5-3.1-1.5-7-4.4-6.1-8.4 0.5-2.4 2.9-4.9 5.4-5.4 8.1-1.4 11.3 11.5 13.1 16.9 4.2 12.2 6.8 24.9 8 37.8 0.2 2.1-3 2.1-3.2 0z"/>
							</g>
						</g>
					</g>
					<g id="&lt;Group&gt;">
						<g id="&lt;Group&gt;">
							<path id="&lt;Path&gt;" class="s5" d="m684.3 613.5c-0.6 5.2-0.4 10.3 1.1 15.4 1.1 3.5 2.8 6.9 3.3 10.6 1.1 8.2-3.5 15.5-7.6 22-1.1 1.8-3.9 0.2-2.8-1.6 5.2-8.1 9.2-15.7 5.7-25.3-2.5-7.1-3.9-13.6-2.9-21.1 0.3-2 3.5-2 3.2 0z"/>
						</g>
					</g>
				</g>
			</g>
		</g>
	</g>
</svg>