<svg version="1.2" xmlns="http://www.w3.org/2000/svg" viewBox="0 0 1440 550" width="1440" height="550">
	<title>5064264-ai</title>
	<style>
		.s0 { fill: #ffffff } 
		.s1 { fill: #f5f5f5 } 
		.s2 { fill: #e0e0e0 } 
		.s3 { fill: none;stroke: #fbfbfb;stroke-width: .4 } 
		.s4 { fill: #263238 } 
		.s5 { fill: #455a64 } 
		.s6 { fill: #ff725e } 
		.s7 { fill: #000000 } 
		.s8 { fill: #ffbe9d } 
		.s9 { fill: #eb996e } 
	</style>
	<path id="Layer 1" class="s0" d="m-760-618h3143v2185h-3143z"/>
	<g id="Background Complete">
		<g id="&lt;Group&gt;">
			<g id="&lt;Group&gt;">
				<g id="&lt;Group&gt;">
					<g id="&lt;Group&gt;">
						<g id="&lt;Group&gt;">
							<g id="&lt;Group&gt;">
								<g id="&lt;Group&gt;">
									<g id="&lt;Group&gt;">
										<path id="&lt;Path&gt;" class="s1" d="m838.1 407v36.9h-59.4-53.9v-36.9z"/>
									</g>
								</g>
							</g>
						</g>
					</g>
				</g>
				<g id="&lt;Group&gt;">
					<g id="&lt;Group&gt;">
						<g id="&lt;Group&gt;">
							<g id="&lt;Group&gt;">
								<g id="&lt;Group&gt;">
									<g id="&lt;Group&gt;">
										<path id="&lt;Path&gt;" class="s2" d="m778.7 396.7h63.4v10.3h-122.1v-10.3z"/>
									</g>
								</g>
							</g>
						</g>
					</g>
				</g>
				<g id="&lt;Group&gt;">
					<g id="&lt;Group&gt;">
						<g id="&lt;Group&gt;">
							<g id="&lt;Group&gt;">
								<g id="&lt;Group&gt;">
									<g id="&lt;Group&gt;">
										<path id="&lt;Path&gt;" class="s2" d="m778.7 406.1v-9.4h63.4v10.3h-4v36.9h-57.1z"/>
									</g>
								</g>
							</g>
						</g>
					</g>
				</g>
				<g id="&lt;Group&gt;">
					<g id="&lt;Group&gt;">
						<g id="&lt;Group&gt;">
							<g id="&lt;Group&gt;">
								<g id="&lt;Group&gt;">
									<g id="&lt;Group&gt;">
										<path id="&lt;Path&gt;" class="s2" d="m740.6 413h23v5.5h-23z"/>
									</g>
								</g>
							</g>
						</g>
					</g>
				</g>
				<g id="&lt;Group&gt;">
					<g id="&lt;Group&gt;">
						<g id="&lt;Group&gt;">
							<g id="&lt;Group&gt;">
								<g id="&lt;Group&gt;">
									<g id="&lt;Group&gt;">
										<path id="&lt;Path&gt;" class="s0" d="m737.6 425.5h29.6v11.7h-29.6z"/>
									</g>
								</g>
							</g>
						</g>
					</g>
				</g>
			</g>
		</g>
		<g id="&lt;Group&gt;">
			<g id="&lt;Group&gt;">
				<g id="&lt;Group&gt;">
					<g id="&lt;Group&gt;">
						<g id="&lt;Group&gt;">
							<g id="&lt;Group&gt;">
								<g id="&lt;Group&gt;">
									<g id="&lt;Group&gt;">
										<path id="&lt;Path&gt;" class="s1" d="m855.5 359.9v36.9h-59.4-53.9v-36.9z"/>
									</g>
								</g>
							</g>
						</g>
					</g>
				</g>
				<g id="&lt;Group&gt;">
					<g id="&lt;Group&gt;">
						<g id="&lt;Group&gt;">
							<g id="&lt;Group&gt;">
								<g id="&lt;Group&gt;">
									<g id="&lt;Group&gt;">
										<path id="&lt;Path&gt;" class="s2" d="m796.1 349.6h63.4v10.3h-122.1v-10.3z"/>
									</g>
								</g>
							</g>
						</g>
					</g>
				</g>
				<g id="&lt;Group&gt;">
					<g id="&lt;Group&gt;">
						<g id="&lt;Group&gt;">
							<g id="&lt;Group&gt;">
								<g id="&lt;Group&gt;">
									<g id="&lt;Group&gt;">
										<path id="&lt;Path&gt;" class="s2" d="m796.1 359v-9.4h63.4v10.3h-4v36.9h-57z"/>
									</g>
								</g>
							</g>
						</g>
					</g>
				</g>
				<g id="&lt;Group&gt;">
					<g id="&lt;Group&gt;">
						<g id="&lt;Group&gt;">
							<g id="&lt;Group&gt;">
								<g id="&lt;Group&gt;">
									<g id="&lt;Group&gt;">
										<path id="&lt;Path&gt;" class="s2" d="m758 365.9h23v5.5h-23z"/>
									</g>
								</g>
							</g>
						</g>
					</g>
				</g>
				<g id="&lt;Group&gt;">
					<g id="&lt;Group&gt;">
						<g id="&lt;Group&gt;">
							<g id="&lt;Group&gt;">
								<g id="&lt;Group&gt;">
									<g id="&lt;Group&gt;">
										<path id="&lt;Path&gt;" class="s0" d="m755.1 378.4h29.5v11.7h-29.5z"/>
									</g>
								</g>
							</g>
						</g>
					</g>
				</g>
			</g>
		</g>
		<g id="&lt;Group&gt;">
			<g id="&lt;Group&gt;">
				<g id="&lt;Group&gt;">
					<path id="&lt;Path&gt;" class="s2" d="m728 79.2h83.9v121.6h-83.9z"/>
				</g>
			</g>
			<g id="&lt;Group&gt;">
				<g id="&lt;Group&gt;">
					<path id="&lt;Path&gt;" class="s1" d="m723.8 79.2h83.9v121.6h-83.9z"/>
				</g>
			</g>
			<g id="&lt;Group&gt;">
				<g id="&lt;Group&gt;">
					<g id="&lt;Group&gt;">
						<path id="&lt;Path&gt;" class="s0" d="m734.2 92.4h63.1v95.3h-63.1z"/>
					</g>
				</g>
				<g id="&lt;Group&gt;">
					<g id="&lt;Group&gt;">
						<g id="&lt;Group&gt;">
							<path id="&lt;Path&gt;" class="s2" d="m797.3 187.7q-0.1-0.2-0.1-0.5 0-0.5 0-1.4 0-1.8 0-5.2c0-4.6 0-11.2-0.1-19.6 0-16.8 0-40.6-0.1-68.6l0.3 0.2c-19.3 0-40.7 0-63.1 0l0.2-0.2c0 35.9 0 69.1 0 95.3l-0.2-0.2c19.2 0 34.9 0 45.9 0.1 5.5 0 9.8 0 12.7 0q2.2 0 3.3 0 0.8 0 1.2 0.1-0.4 0-1.2 0-1.1 0-3.3 0c-2.9 0-7.1 0-12.6 0-11 0.1-26.8 0.1-46 0.1h-0.2v-0.1c0-26.2 0-59.4 0-95.3v-0.3h0.2c22.4 0.1 43.8 0.1 63.1 0.1h0.2v0.2c-0.1 28-0.1 51.9-0.1 68.7-0.1 8.4-0.1 15-0.1 19.6q0 3.4 0 5.2 0 0.9 0 1.3 0 0.3 0 0.5z"/>
						</g>
					</g>
				</g>
			</g>
			<g id="&lt;Group&gt;">
				<g id="&lt;Group&gt;">
					<g id="&lt;Group&gt;">
						<path id="&lt;Path&gt;" class="s3" d=""/>
					</g>
				</g>
			</g>
			<g id="&lt;Group&gt;">
				<g id="&lt;Group&gt;">
					<g id="&lt;Group&gt;">
						<path id="&lt;Path&gt;" class="s2" d="m807.9 79.2c0.1 0-0.5 0.9-1.5 2.2-1 1.3-2.3 3-3.9 5-1.6 1.9-3.1 3.6-4.2 4.8-1.1 1.2-1.8 1.9-1.8 1.9-0.1-0.1 0.6-0.9 1.6-2.1 1.1-1.4 2.5-3.1 4-4.9 1.6-1.9 2.9-3.6 4.1-4.9 1-1.3 1.7-2 1.7-2z"/>
					</g>
				</g>
			</g>
			<g id="&lt;Group&gt;">
				<g id="&lt;Group&gt;">
					<g id="&lt;Group&gt;">
						<path id="&lt;Path&gt;" class="s0" d="m797.6 187.3c3.1 5 6.8 9.7 11 13.8"/>
					</g>
				</g>
				<g id="&lt;Group&gt;">
					<g id="&lt;Group&gt;">
						<g id="&lt;Group&gt;">
							<path id="&lt;Path&gt;" class="s2" d="m808.6 201.1c-0.1 0-0.8-0.6-1.9-1.7-1.2-1.2-2.7-2.8-4.2-4.7-1.5-1.9-2.8-3.7-3.6-5.1-0.9-1.3-1.4-2.2-1.3-2.3 0 0 0.6 0.8 1.5 2.1 0.9 1.3 2.2 3.1 3.8 5 1.5 1.9 2.9 3.6 4 4.7 1.1 1.2 1.7 2 1.7 2z"/>
						</g>
					</g>
				</g>
			</g>
			<g id="&lt;Group&gt;">
				<g id="&lt;Group&gt;">
					<g id="&lt;Group&gt;">
						<path id="&lt;Path&gt;" class="s0" d="m723.8 200.7q5.5-6.7 10.9-13.5"/>
					</g>
				</g>
				<g id="&lt;Group&gt;">
					<g id="&lt;Group&gt;">
						<g id="&lt;Group&gt;">
							<path id="&lt;Path&gt;" class="s2" d="m734.7 187.2c0.1 0.1-2.2 3.2-5.3 6.9-3 3.7-5.5 6.7-5.6 6.6-0.1 0 2.2-3.1 5.3-6.9 3-3.7 5.5-6.7 5.6-6.6z"/>
						</g>
					</g>
				</g>
			</g>
			<g id="&lt;Group&gt;">
				<g id="&lt;Group&gt;">
					<g id="&lt;Group&gt;">
						<path id="&lt;Path&gt;" class="s2" d="m723.8 79.2c0.1-0.1 2.5 2.8 5.3 6.4 2.9 3.6 5.1 6.6 5 6.6-0.1 0.1-2.5-2.7-5.4-6.3-2.8-3.6-5-6.6-4.9-6.7z"/>
					</g>
				</g>
			</g>
			<g id="&lt;Group&gt;">
				<g id="&lt;Group&gt;">
					<path id="&lt;Path&gt;" class="s2" d="m756.5 111.7h21.1v60h-21.1z"/>
				</g>
			</g>
		</g>
		<g id="&lt;Group&gt;">
			<g id="&lt;Group&gt;">
				<g id="&lt;Group&gt;">
					<g id="&lt;Group&gt;">
						<g id="&lt;Group&gt;">
							<path id="&lt;Path&gt;" class="s1" d="m1264.6 431c-1.9-1.7-6.4-7.1-3-13.4 1.3-2.3 4-3.4 6.4-4.4 2.4-1 4.9-1.9 6.9-3.6 3.7-3.2 4.8-8.5 7.3-12.8 2.8-4.9 8.2-8.5 13.8-8.3 6.5 0.3 11.9 5.6 14.3 11.6 2.5 6 2.5 12.7 2.6 19.2 0 3.6-0.1 7.7-2.8 10.1-2.4 2.2-6.1 2.3-9.4 2.2q-17.6-0.6-35.3-1.1"/>
						</g>
					</g>
				</g>
			</g>
			<g id="&lt;Group&gt;">
				<g id="&lt;Group&gt;">
					<g id="&lt;Group&gt;">
						<g id="&lt;Group&gt;">
							<g id="&lt;Group&gt;">
								<path id="&lt;Compound Path&gt;" fill-rule="evenodd" class="s2" d="m1332.1 334.4l-3.2 27.2h0.1l-0.4 2.8-8.1 68.7c-0.5 5.1-4.5 9-9.3 9.8q-1.2 0.2-2.3 0.2c0 0-41.4 0-41.4 0h-0.5q0 0 0 0-0.9-0.1-1.9-0.3c-0.3 0-0.5-0.1-0.8-0.2q-0.2 0-0.3-0.1c-4.1-1.1-7.2-4.5-8-8.8l-16.7-99.8h92.9zm-15 34.2h-11l-1 28.9h9.5zm-1.5 29h8.2l3.4-29h-9.1zm-12.5 32.1l0.8-25.1h-13.7l0.6 25.1zm-25.2 0h12l-0.6-25.1h-13.3zm-2.9-25.2h-13.2c1.5 9.5 2.9 18.4 3.9 25.2h11.2zm14.1-7l-0.6-28.9h-15.3l2.2 28.9zm15.1 0l0.9-28.9h-15.7l0.6 28.9zm1.2-35.9l0.9-26.8h-17.6l0.6 26.8zm-17.7-26.8h-17.1l2.1 26.8h15.6zm-18 0h-18.9c0.3 1.6 1 5.6 2.7 16.5 0.5 3.1 1.1 6.6 1.7 10.3h16.6zm-13.5 33.8c1.1 6.4 2.1 13.2 3.2 20.1q0.7 4.4 1.4 8.8h13.7l-2.2-28.9zm-1 0h-9.2l4.8 28.9h9c-1.6-10-3.1-20-4.6-28.9zm-3.2 35.9l4.2 25.1h8.6c-1.2-7.8-2.5-16.4-3.9-25.1zm59.8 25.1l2.2-25.1h-9.2l-0.8 25.1zm5.8-68l2.3-26.8h-12.8l-0.9 26.8zm-77.3-26.8l4.5 26.8h9.3c-2.3-14.3-4-24.8-4.4-26.8zm82.6 69.7h-8l-2.1 25.1h7.2zm8.1-69.6h-10.2l-2.3 26.8h9.4z"/>
							</g>
						</g>
					</g>
				</g>
			</g>
		</g>
		<g id="&lt;Group&gt;">
			<g id="&lt;Group&gt;">
				<g id="&lt;Group&gt;">
					<path id="&lt;Path&gt;" class="s2" d="m1334.3 85.7v81.7h-117.3l-4.3-81.1z"/>
				</g>
			</g>
			<g id="&lt;Group&gt;">
				<g id="&lt;Group&gt;">
					<path id="&lt;Path&gt;" class="s0" d="m1212.7 86.3h117.3v80.9h-117.3z"/>
				</g>
				<g id="&lt;Group&gt;">
					<path id="&lt;Compound Path&gt;" fill-rule="evenodd" class="s2" d="m1212.2 85.7h118.4v82.1h-118.4zm1.1 80.9h116.2v-79.8h-116.2z"/>
				</g>
			</g>
			<g id="&lt;Group&gt;">
				<g id="&lt;Group&gt;">
					<g id="&lt;Group&gt;">
						<path id="&lt;Path&gt;" class="s0" d="m1225.4 96.3h91.9v60.9h-91.9z"/>
					</g>
				</g>
				<g id="&lt;Group&gt;">
					<g id="&lt;Group&gt;">
						<g id="&lt;Group&gt;">
							<path id="&lt;Path&gt;" class="s2" d="m1317.3 96.3q-0.1 0.1-0.4 0.1-0.5 0-1.3 0-1.8 0-5.1 0c-4.4 0-10.8 0-18.9 0.1-16.2 0-39.2 0.1-66.2 0.1l0.3-0.3c0 18.6 0 39.2 0 60.9l-0.3-0.3c34.7 0 66.7 0 91.9 0l-0.2 0.3c0-18.5 0.1-33.7 0.1-44.3 0-5.3 0.1-9.4 0.1-12.2q0-2.1 0-3.2 0-0.8 0-1.2 0 0.4 0 1.1 0.1 1.1 0.1 3.2c0 2.8 0 6.9 0 12.2 0.1 10.6 0.1 25.8 0.2 44.4v0.2h-0.3c-25.2 0-57.2 0-91.9 0.1h-0.3v-0.3c0-21.7 0.1-42.3 0.1-60.9v-0.2h0.2c27.1 0 50.1 0.1 66.4 0.1 8 0 14.4 0.1 18.8 0.1q3.3 0 5 0 0.8 0 1.3 0 0.3 0 0.4 0z"/>
						</g>
					</g>
				</g>
			</g>
			<g id="&lt;Group&gt;">
				<g id="&lt;Group&gt;">
					<g id="&lt;Group&gt;">
						<path id="&lt;Path&gt;" class="s2" d="m1212.7 86.1c0.1-0.1 0.8 0.4 2 1.3 1.2 0.8 2.9 2.1 4.6 3.5 1.8 1.4 3.4 2.7 4.5 3.7 1 1 1.7 1.7 1.6 1.7-0.1 0.2-2.9-2.2-6.4-5-3.5-2.8-6.4-5.1-6.3-5.2z"/>
					</g>
				</g>
			</g>
			<g id="&lt;Group&gt;">
				<g id="&lt;Group&gt;">
					<g id="&lt;Group&gt;">
						<path id="&lt;Path&gt;" class="s2" d="m1330 86.3c0.1 0.1-2.6 2.5-6.1 5.2-3.6 2.8-6.5 5-6.6 4.8-0.1-0.1 2.7-2.4 6.2-5.2 3.5-2.8 6.4-4.9 6.5-4.8z"/>
					</g>
				</g>
			</g>
			<g id="&lt;Group&gt;">
				<g id="&lt;Group&gt;">
					<g id="&lt;Group&gt;">
						<path id="&lt;Path&gt;" class="s0" d="m1329.9 167.2q-6.5-5.3-13-10.6"/>
					</g>
				</g>
				<g id="&lt;Group&gt;">
					<g id="&lt;Group&gt;">
						<g id="&lt;Group&gt;">
							<path id="&lt;Path&gt;" class="s2" d="m1316.9 156.6c0.1-0.1 3.1 2.2 6.7 5.1 3.6 2.9 6.4 5.4 6.3 5.5-0.1 0.2-3.1-2.1-6.7-5-3.6-3-6.4-5.4-6.3-5.6z"/>
						</g>
					</g>
				</g>
			</g>
			<g id="&lt;Group&gt;">
				<g id="&lt;Group&gt;">
					<g id="&lt;Group&gt;">
						<path id="&lt;Path&gt;" class="s2" d="m1212.7 167.2c-0.1-0.1 2.7-2.4 6.1-5.2 3.5-2.7 6.4-4.9 6.5-4.7 0.1 0.1-2.6 2.4-6.1 5.2-3.5 2.7-6.4 4.8-6.5 4.7z"/>
					</g>
				</g>
			</g>
			<g id="&lt;Group&gt;">
				<g id="&lt;Group&gt;">
					<path id="&lt;Path&gt;" class="s2" d="m1244.1 115.3h57.8v20.4h-57.8z"/>
				</g>
			</g>
		</g>
	</g>
	<g id="Floor">
		<g id="&lt;Group&gt;">
			<g id="&lt;Group&gt;">
				<path id="&lt;Path&gt;" class="s4" d="m1332.2 443.9c0 0.1-135.3 0.2-302.1 0.2-167 0-302.2-0.1-302.2-0.2 0-0.1 135.2-0.2 302.2-0.2 166.8 0 302.1 0.1 302.1 0.2z"/>
			</g>
		</g>
	</g>
	<g id="Device">
		<g id="&lt;Group&gt;">
			<g id="&lt;Group&gt;">
				<g id="&lt;Group&gt;">
					<g id="&lt;Group&gt;">
						<g id="&lt;Group&gt;">
							<g id="&lt;Group&gt;">
								<g id="&lt;Group&gt;">
									<g id="&lt;Group&gt;">
										<g id="&lt;Group&gt;">
											<path id="&lt;Path&gt;" class="s5" d="m1253.1 440.7h-444.8c-7.2 0-13.1-5.9-13.1-13.1v-291.4c0-3.8 3.2-6.9 7-6.9h457.9c3.3 0 6.1 2.7 6.1 6v292.3c0 7.2-5.9 13.1-13.1 13.1z"/>
										</g>
									</g>
								</g>
							</g>
						</g>
					</g>
				</g>
				<g id="&lt;Group&gt;">
					<g id="&lt;Group&gt;">
						<g id="&lt;Group&gt;">
							<g id="&lt;Group&gt;">
								<g id="&lt;Group&gt;">
									<g id="&lt;Group&gt;">
										<g id="&lt;Group&gt;">
											<path id="&lt;Path&gt;" class="s5" d="m1273.4 444.9h-485.5c-6.8 0-12.4-5.5-12.4-12.3v-14.9h510.3v14.9c0 6.8-5.6 12.3-12.4 12.3z"/>
										</g>
									</g>
								</g>
							</g>
						</g>
					</g>
				</g>
				<g id="&lt;Group&gt;">
					<g id="&lt;Group&gt;">
						<g id="&lt;Group&gt;">
							<g id="&lt;Group&gt;">
								<g id="&lt;Group&gt;">
									<g id="&lt;Group&gt;">
										<g id="&lt;Group&gt;">
											<path id="&lt;Path&gt;" class="s1" d="m807.9 141.6h444.3v263h-444.3z"/>
										</g>
									</g>
								</g>
							</g>
						</g>
					</g>
				</g>
				<g id="&lt;Group&gt;">
					<g id="&lt;Group&gt;">
						<g id="&lt;Group&gt;">
							<g id="&lt;Group&gt;">
								<g id="&lt;Group&gt;">
									<g id="&lt;Group&gt;">
										<g id="&lt;Group&gt;">
											<path id="&lt;Path&gt;" class="s4" d="m1085.6 417.7l-5.9 10h-89.1l-6.3-10z"/>
										</g>
									</g>
								</g>
							</g>
						</g>
					</g>
				</g>
			</g>
			<g id="&lt;Group&gt;">
				<g id="&lt;Group&gt;">
					<g id="&lt;Group&gt;">
						<g id="&lt;Group&gt;">
							<g id="&lt;Group&gt;">
								<g id="&lt;Group&gt;">
									<g id="&lt;Group&gt;">
										<path id="&lt;Path&gt;" class="s4" d="m795.3 417.6h470.9v1.5h-470.9z"/>
									</g>
								</g>
							</g>
						</g>
					</g>
				</g>
			</g>
		</g>
	</g>
	<g id="Certification">
		<g id="&lt;Group&gt;">
			<g id="&lt;Group&gt;">
				<path id="&lt;Path&gt;" class="s2" d="m933.7 129.3h-48.9v-17.3c0-12.1 9.8-22.4 22-22.4l26.9 0.4z"/>
			</g>
			<g id="&lt;Group&gt;">
				<g id="&lt;Group&gt;">
					<path id="&lt;Path&gt;" class="s0" d="m1128 89.1c13.3-0.1 24.1 10.7 24.1 24v292.7h-218.5q0-246.1 0-282.4 0-36.4-27.9-33.8z"/>
				</g>
				<g id="&lt;Group&gt;">
					<g id="&lt;Group&gt;">
						<path id="&lt;Path&gt;" class="s4" d="m905.7 89.6c1.3 0 61.8-0.2 161.7-0.6q18.7 0 39.1-0.1 10.2 0 20.9 0c3.5-0.1 7.2 0.5 10.5 2 3.3 1.5 6.3 3.8 8.7 6.6 2.4 2.8 4.1 6.2 5 9.9 0.3 0.9 0.3 1.8 0.5 2.8 0.1 0.9 0.1 1.8 0.2 2.8q0 2.8 0 5.7 0 11.3 0 23.1 0 23.4 0 48.2c0 66 0 138.6 0 214.7q0 0.6 0 1.1v0.3h-0.2c-77.8-0.1-151.7-0.1-218.5-0.1h-0.3v-0.2c0.1-97.8 0.1-180.8 0.1-239.4 0-14.7 0.1-27.8 0.1-39.2 0-2.9 0-5.6-0.2-8.3-0.1-2.6-0.6-5.1-1-7.5q-0.9-3.6-2.2-6.6-1.4-3-3.1-5.4c-2.4-3.2-5.2-5.4-7.9-6.8-2.7-1.4-5.2-2.1-7.2-2.5-2-0.4-3.6-0.5-4.6-0.5q-1-0.1-1.6 0 0.6-0.1 1.6-0.1c1 0 2.6 0.1 4.6 0.5 2.1 0.4 4.6 1.1 7.2 2.5 2.7 1.4 5.6 3.6 8 6.8q1.8 2.4 3.2 5.4 1.3 3.1 2.1 6.7c0.5 2.3 1 4.9 1.1 7.5 0.2 2.7 0.2 5.4 0.2 8.3 0 11.4 0 24.5 0 39.2 0 58.6 0 141.6 0.1 239.4l-0.2-0.2c66.8 0 140.7 0 218.5 0l-0.3 0.2q0-0.5 0-1.1c0.1-76.1 0.1-148.7 0.1-214.7q0-24.8 0-48.2 0-11.8 0-23.1c-0.1-3.8 0.3-7.6-0.7-11.2-0.9-3.6-2.6-7-4.9-9.8-2.4-2.7-5.3-4.9-8.6-6.4-3.3-1.5-6.8-2.1-10.3-2q-10.7 0-20.9 0-20.5 0-39.2 0.1c-99.8 0.1-160.3 0.2-161.6 0.2z"/>
					</g>
				</g>
			</g>
			<g id="&lt;Group&gt;">
				<g id="&lt;Group&gt;">
					<path id="&lt;Path&gt;" class="s4" d="m1027.1 175.3c0 0.1-13.3 0.2-29.7 0.2-16.4 0-29.7-0.1-29.7-0.2 0-0.1 13.3-0.2 29.7-0.2 16.4 0 29.7 0.1 29.7 0.2z"/>
				</g>
			</g>
			<g id="&lt;Group&gt;">
				<g id="&lt;Group&gt;">
					<path id="&lt;Path&gt;" class="s4" d="m1040.4 182.4c0 0.1-16.3 0.2-36.3 0.2-20.1 0-36.4-0.1-36.4-0.2 0-0.1 16.3-0.2 36.4-0.2 20 0 36.3 0.1 36.3 0.2z"/>
				</g>
			</g>
			<g id="&lt;Group&gt;">
				<g id="&lt;Group&gt;">
					<path id="&lt;Path&gt;" class="s4" d="m1045.2 210.3c0 0.2-16.8 0.3-37.5 0.3-20.8 0-37.6-0.1-37.6-0.3 0-0.1 16.8-0.2 37.6-0.2 20.7 0 37.5 0.1 37.5 0.2z"/>
				</g>
			</g>
			<g id="&lt;Group&gt;">
				<g id="&lt;Group&gt;">
					<path id="&lt;Path&gt;" class="s4" d="m1094.2 237.6c0 0.1-28.1 0.2-62.7 0.2-34.7 0-62.8-0.1-62.8-0.2 0-0.2 28.1-0.3 62.8-0.3 34.6 0 62.7 0.1 62.7 0.3z"/>
				</g>
			</g>
			<g id="&lt;Group&gt;">
				<g id="&lt;Group&gt;">
					<path id="&lt;Path&gt;" class="s4" d="m1094.2 245.7c0 0.1-28.1 0.2-62.7 0.2-34.7 0-62.8-0.1-62.8-0.2 0-0.1 28.1-0.3 62.8-0.3 34.6 0 62.7 0.2 62.7 0.3z"/>
				</g>
			</g>
			<g id="&lt;Group&gt;">
				<g id="&lt;Group&gt;">
					<path id="&lt;Path&gt;" class="s4" d="m1094.2 253.8c0 0.1-28.1 0.2-62.7 0.2-34.7 0-62.8-0.1-62.8-0.2 0-0.1 28.1-0.2 62.8-0.2 34.6 0 62.7 0.1 62.7 0.2z"/>
				</g>
			</g>
			<g id="&lt;Group&gt;">
				<g id="&lt;Group&gt;">
					<path id="&lt;Path&gt;" class="s4" d="m1094.2 261.9c0 0.2-28.1 0.3-62.7 0.3-34.7 0-62.8-0.1-62.8-0.3 0-0.1 28.1-0.2 62.8-0.2 34.6 0 62.7 0.1 62.7 0.2z"/>
				</g>
			</g>
			<g id="&lt;Group&gt;">
				<g id="&lt;Group&gt;">
					<path id="&lt;Path&gt;" class="s4" d="m1094.2 270.1c0 0.1-28.1 0.2-62.7 0.2-34.7 0-62.8-0.1-62.8-0.2 0-0.2 28.1-0.3 62.8-0.3 34.6 0 62.7 0.1 62.7 0.3z"/>
				</g>
			</g>
			<g id="&lt;Group&gt;">
				<g id="&lt;Group&gt;">
					<path id="&lt;Path&gt;" class="s4" d="m1016.3 278.2c0 0.1-10.6 0.2-23.8 0.2-13.1 0-23.8-0.1-23.8-0.2 0-0.1 10.7-0.2 23.8-0.2 13.2 0 23.8 0.1 23.8 0.2z"/>
				</g>
			</g>
			<g id="&lt;Group&gt;">
				<g id="&lt;Group&gt;">
					<path id="&lt;Path&gt;" class="s6" d="m1144.2 244.7l-20.9 55.9c-0.5 1.2-2.1 1.2-2.5 0l-5.8-17.4c-0.2-0.8-1.1-1.1-1.8-0.8l-17.2 7.6c-1.1 0.5-2.2-0.6-1.7-1.7l22.3-51.9z"/>
				</g>
				<g id="&lt;Group&gt;">
					<path id="&lt;Path&gt;" class="s6" d="m1173.2 236.4l14.1 58c0.3 1.2-1.1 2.1-2.1 1.4l-14.6-11.2c-0.6-0.4-1.5-0.3-1.9 0.4l-9.9 15.9c-0.7 1-2.2 0.7-2.4-0.4l-10.7-55.4z"/>
				</g>
				<g id="&lt;Group&gt;" style="opacity: .3">
					<path id="&lt;Path&gt;" class="s7" d="m1144.2 244.7l-20.9 55.9c-0.5 1.2-2.1 1.2-2.5 0l-5.8-17.4c-0.2-0.8-1.1-1.1-1.8-0.8l-17.2 7.6c-1.1 0.5-2.2-0.6-1.7-1.7l22.3-51.9z"/>
				</g>
				<g id="&lt;Group&gt;" style="opacity: .3">
					<path id="&lt;Path&gt;" class="s7" d="m1173.2 236.4l14.1 58c0.3 1.2-1.1 2.1-2.1 1.4l-14.6-11.2c-0.6-0.4-1.5-0.3-1.9 0.4l-9.9 15.9c-0.7 1-2.2 0.7-2.4-0.4l-10.7-55.4z"/>
				</g>
				<g id="&lt;Group&gt;">
					<path id="&lt;Path&gt;" class="s6" d="m1146.8 145.5l7.3-5.3 5.7 7 8.5-3.4 3.8 8.2 9-1.1 1.7 8.9 9 1.1-0.6 9.1 8.5 3.3-2.9 8.6 7.4 5.3-4.9 7.6 5.8 7-6.7 6.2 4 8.2-8 4.3 1.7 9-8.8 2.2-0.5 9h-9.1l-2.8 8.7-8.8-2.4-4.8 7.7-7.9-4.4-6.6 6.3-6.6-6.3-8 4.4-4.8-7.7-8.8 2.4-2.8-8.7h-9l-0.6-9-8.8-2.2 1.8-9-8-4.3 3.9-8.2-6.7-6.2 5.9-7-4.9-7.6 7.3-5.3-2.8-8.6 8.5-3.3-0.7-9.1 9.1-1.1 1.6-8.9 9 1.1 3.9-8.2 8.4 3.4 5.7-7z"/>
				</g>
				<g id="&lt;Group&gt;">
					<circle id="&lt;Path&gt;" class="s0" cx="1146.8" cy="198.4" r="41.2"/>
				</g>
				<g id="&lt;Group&gt;">
					<path id="&lt;Path&gt;" class="s6" d="m1155.7 188.6l11.1 1.6c1.8 0.3 2.5 2.5 1.2 3.8l-8 7.8c-0.5 0.5-0.7 1.2-0.6 2l1.9 11c0.3 1.8-1.6 3.1-3.3 2.3l-9.8-5.2c-0.7-0.4-1.5-0.4-2.1 0l-9.9 5.2c-1.6 0.8-3.5-0.6-3.2-2.4l1.9-11c0.1-0.7-0.1-1.4-0.6-1.9l-8-7.8c-1.3-1.3-0.6-3.5 1.2-3.8l11.1-1.6c0.7-0.1 1.3-0.6 1.6-1.2l5-10c0.8-1.7 3.1-1.7 4 0l4.9 10c0.3 0.7 0.9 1.1 1.6 1.2z"/>
				</g>
			</g>
			<g id="&lt;Group&gt;">
				<path id="&lt;Compound Path&gt;" class="s4" d="m988.5 133.3c0-3 2.3-5.1 5.4-5.1 1.8 0 3.3 0.7 4.2 1.9l-1.8 1.6c-0.6-0.8-1.3-1.2-2.3-1.2-1.6 0-2.7 1.1-2.7 2.8 0 1.7 1.1 2.8 2.7 2.8 1 0 1.7-0.4 2.3-1.1l1.8 1.5c-0.9 1.2-2.4 1.9-4.2 1.9-3.1 0-5.4-2.1-5.4-5.1z"/>
				<path id="&lt;Compound Path&gt;" class="s4" d="m1007.2 136.1v2.1h-7.9v-9.8h7.7v2.2h-4.9v1.6h4.3v2.1h-4.3v1.8z"/>
				<path id="&lt;Compound Path&gt;" fill-rule="evenodd" class="s4" d="m1013 135.6h-1.5v2.6h-2.8v-9.8h4.5c2.6 0 4.3 1.4 4.3 3.6 0 1.5-0.7 2.5-1.9 3.1l2.1 3.1h-3zm0.1-5h-1.6v2.9h1.6c1.1 0 1.7-0.6 1.7-1.5 0-0.9-0.6-1.4-1.7-1.4z"/>
				<path id="&lt;Compound Path&gt;" class="s4" d="m1021 130.6h-3v-2.2h8.7v2.2h-3v7.6h-2.7z"/>
				<path id="&lt;Compound Path&gt;" class="s4" d="m1027.8 128.4h2.7v9.8h-2.7z"/>
				<path id="&lt;Compound Path&gt;" class="s4" d="m1035.2 130.6v2.1h4.4v2.1h-4.4v3.4h-2.7v-9.8h7.6v2.2z"/>
				<path id="&lt;Compound Path&gt;" class="s4" d="m1041.4 128.4h2.8v9.8h-2.8z"/>
				<path id="&lt;Compound Path&gt;" class="s4" d="m1045.7 133.3c0-3 2.2-5.1 5.3-5.1 1.8 0 3.3 0.7 4.2 1.9l-1.7 1.6c-0.6-0.8-1.4-1.2-2.3-1.2-1.6 0-2.7 1.1-2.7 2.8 0 1.7 1.1 2.8 2.7 2.8 0.9 0 1.7-0.4 2.3-1.1l1.7 1.5c-0.9 1.2-2.4 1.9-4.2 1.9-3.1 0-5.3-2.1-5.3-5.1z"/>
				<path id="&lt;Compound Path&gt;" fill-rule="evenodd" class="s4" d="m1062.9 136.3h-4.2l-0.7 1.9h-2.9l4.3-9.8h2.8l4.3 9.8h-2.9zm-0.8-2l-1.2-3.2-1.3 3.2z"/>
				<path id="&lt;Compound Path&gt;" class="s4" d="m1068.9 130.6h-3v-2.2h8.7v2.2h-3v7.6h-2.7z"/>
				<path id="&lt;Compound Path&gt;" class="s4" d="m1075.6 128.4h2.8v9.8h-2.8z"/>
				<path id="&lt;Compound Path&gt;" fill-rule="evenodd" class="s4" d="m1085.3 138.4c-3 0-5.4-2.3-5.4-5.1 0-2.8 2.4-5.1 5.4-5.1 3 0 5.4 2.3 5.4 5.1 0 2.8-2.4 5.1-5.4 5.1zm2.6-5.1c0-1.5-1.1-2.8-2.6-2.8-1.5 0-2.6 1.3-2.6 2.8 0 1.6 1.1 2.8 2.6 2.8 1.5 0 2.6-1.2 2.6-2.8z"/>
				<path id="&lt;Compound Path&gt;" class="s4" d="m1101.5 128.4v9.8h-2.3l-4.3-5.2v5.2h-2.7v-9.8h2.3l4.3 5.2v-5.2z"/>
			</g>
			<g id="&lt;Group&gt;">
				<g id="&lt;Group&gt;">
					<path id="&lt;Path&gt;" class="s4" d="m1112.6 312.5c0 0.1-12.5 0.2-27.9 0.2-15.3 0-27.8-0.1-27.8-0.2 0-0.1 12.5-0.2 27.8-0.2 15.4 0 27.9 0.1 27.9 0.2z"/>
				</g>
			</g>
			<g id="&lt;Group&gt;">
				<g id="&lt;Group&gt;">
					<path id="&lt;Path&gt;" class="s4" d="m1112.6 320.3c0 0.2-12.5 0.3-27.9 0.3-15.3 0-27.8-0.1-27.8-0.3 0-0.1 12.5-0.2 27.8-0.2 15.4 0 27.9 0.1 27.9 0.2z"/>
				</g>
			</g>
			<g id="&lt;Group&gt;">
				<g id="&lt;Group&gt;">
					<g id="&lt;Group&gt;">
						<path id="&lt;Path&gt;" class="s6" d="m1108.9 354.4q-0.1 0-0.1-0.4 0-0.4-0.1-1.1 0-0.4 0-0.8-0.1-0.5-0.2-1c-0.1-0.8-0.2-1.6-0.5-2.5-0.4-1.9-1.3-4.1-2.7-6.4-1.4-2.3-3.4-4.8-6.1-6.8-2.7-2-6.1-3.8-10-4.5-4-0.6-8.4-0.5-12.6 1.1-1.1 0.3-2.1 0.9-3.1 1.4-1 0.6-2 1.1-2.9 1.8-1 0.7-1.9 1.5-2.8 2.3-0.8 0.9-1.6 1.8-2.3 2.8-1.4 2-2.7 4.2-3.4 6.6-0.8 2.4-1.2 4.9-1.2 7.5 0 2.6 0.4 5.2 1.2 7.6 0.7 2.4 2 4.6 3.4 6.6 0.7 1 1.5 1.8 2.3 2.7 0.9 0.8 1.8 1.7 2.8 2.3 0.9 0.8 1.9 1.3 2.9 1.9 1 0.5 2 1 3.1 1.4 4.2 1.6 8.6 1.7 12.6 1 3.9-0.7 7.3-2.4 10-4.4 2.8-2.1 4.7-4.5 6.1-6.8 1.4-2.3 2.3-4.5 2.7-6.4 0.3-0.9 0.4-1.8 0.5-2.5q0.1-0.5 0.2-1 0-0.5 0-0.8 0.1-0.8 0.1-1.2 0-0.4 0.1-0.4 0 0 0 0.4-0.1 0.4-0.1 1.2 0 0.4 0 0.8-0.1 0.5-0.1 1c-0.1 0.8-0.2 1.6-0.5 2.5-0.4 1.9-1.3 4.1-2.6 6.5-1.4 2.4-3.4 4.8-6.2 6.9-2.7 2.1-6.2 3.9-10.2 4.6-4 0.7-8.5 0.6-12.7-1-1.1-0.4-2.2-0.9-3.2-1.4-1-0.6-2.1-1.2-3-1.9-1-0.7-1.9-1.5-2.8-2.4-0.8-0.9-1.7-1.7-2.4-2.8-1.4-2-2.7-4.2-3.5-6.7-0.7-2.4-1.2-5-1.2-7.7 0-2.6 0.5-5.2 1.2-7.7 0.8-2.4 2.1-4.6 3.5-6.7 0.7-1 1.6-1.9 2.4-2.8 0.9-0.8 1.8-1.6 2.8-2.3 0.9-0.8 2-1.3 3-1.9 1-0.5 2.1-1.1 3.2-1.4 4.2-1.6 8.7-1.7 12.7-1 4 0.7 7.5 2.5 10.2 4.5 2.8 2.1 4.8 4.6 6.2 7 1.3 2.3 2.2 4.5 2.6 6.4 0.3 0.9 0.4 1.8 0.5 2.5q0 0.6 0.1 1 0 0.5 0 0.9 0 0.7 0.1 1.1 0 0.4 0 0.4z"/>
					</g>
				</g>
				<g id="&lt;Group&gt;">
					<circle id="&lt;Path&gt;" class="s6" cx="1084.7" cy="354.4" r="15.5"/>
				</g>
			</g>
			<g id="&lt;Group&gt;">
				<g id="&lt;Group&gt;">
					<path id="&lt;Path&gt;" class="s4" d="m1119.2 341.1q-0.2 0.1-0.6 0.4-0.7 0.3-2 1c-1.7 0.9-4.2 2.2-7.4 3.9-3.3 1.6-7.2 3.7-11.8 6-1.1 0.6-2.4 1.1-3.8 1.3-1.4 0.1-2.9-0.3-4.1-1.3-0.5-0.5-1-1.1-1.2-1.9-0.2-0.8 0-1.7 0.5-2.3 0.6-0.6 1.4-1 2.2-1 0.8-0.1 1.8 0.3 2.1 1.2 0.1 2.5-0.8 5.1-2.6 7.1-1.7 2-4.3 3.5-7.1 3.6-2.9 0.2-5.9-0.8-8-2.9-1.1-1-2.1-2.3-2.3-3.9-0.2-0.7-0.1-1.6 0.3-2.3 0.3-0.7 0.9-1.3 1.7-1.6 0.8-0.4 1.7-0.2 2.4 0.3 0.7 0.5 1.1 1.2 1.4 2 0.2 0.8 0.3 1.6 0.3 2.4q0.1 0.6 0 1.2 0 0.6-0.1 1.2c-0.6 3.2-2.4 6.2-5.1 8.3-2.5 2.1-6.1 3.3-9.5 2.7-3.4-0.5-6.6-2.5-8.7-5.3-1.2-1.6-2.2-3.4-2.5-5.4-0.4-1.9-0.4-4 0.4-5.8 0.4-1 1.1-1.8 1.9-2.3 0.9-0.5 1.9-0.8 3-0.6 1 0.2 1.8 1 2.3 1.8 0.4 0.9 0.7 1.8 0.9 2.8 0.9 3.6 0.6 7.5-0.7 10.9-1.2 3.4-3.6 6.4-6.6 8.1-2.9 1.8-6.4 2.6-9.7 2.2-1.7-0.2-3.2-0.7-4.6-1.5-1.4-0.8-2.6-1.9-3.6-3.1-2-2.4-3-5.4-3-8.2 0-1.5 0.3-2.9 0.9-4.2 0.5-1.2 1.4-2.4 2.8-2.8 0.6-0.2 1.3-0.3 2-0.1 0.6 0.2 1.1 0.6 1.6 1 0.9 0.9 1.5 2 1.9 3.1 0.4 1.1 0.6 2.3 0.6 3.4q0 0.8 0 1.6 0 0.8-0.1 1.6c-0.4 4.2-1.7 7.6-3 10.1-1.4 2.6-2.9 4.4-3.9 5.5q-0.8 0.8-1.2 1.2-0.3 0.3-0.4 0.4 0.1-0.1 0.4-0.4 0.4-0.4 1.1-1.3c1.1-1.1 2.5-2.9 3.8-5.5 1.3-2.5 2.6-5.9 2.9-10q0.1-0.8 0.1-1.6 0.1-0.8 0-1.6c0-1.1-0.2-2.2-0.6-3.3-0.4-1.1-0.9-2.1-1.8-3-0.4-0.4-1-0.7-1.5-0.9-0.6-0.1-1.2-0.1-1.8 0.1-1.2 0.4-2.1 1.5-2.6 2.7-0.5 1.2-0.8 2.6-0.8 4-0.1 2.8 1 5.7 2.9 8 0.9 1.1 2.1 2.2 3.5 2.9 1.3 0.8 2.8 1.3 4.4 1.5 3.2 0.3 6.6-0.4 9.5-2.1 2.9-1.8 5.2-4.6 6.4-7.9 1.3-3.4 1.5-7.1 0.7-10.7-0.3-0.9-0.5-1.8-0.9-2.6-0.5-0.8-1.2-1.4-2-1.6-0.9-0.2-1.8 0-2.6 0.5-0.8 0.4-1.4 1.2-1.8 2-0.7 1.8-0.7 3.8-0.4 5.6 0.4 1.9 1.3 3.7 2.4 5.2 2.1 2.7 5.2 4.7 8.5 5.2 3.3 0.5 6.6-0.6 9.2-2.7 2.5-2 4.3-4.9 4.8-8q0.1-0.5 0.2-1.1 0-0.6 0-1.2c0-0.8-0.1-1.5-0.3-2.2-0.3-0.8-0.7-1.4-1.2-1.9-0.6-0.4-1.4-0.5-2-0.2-0.7 0.2-1.2 0.8-1.5 1.4-0.4 0.6-0.4 1.4-0.3 2.1 0.2 1.4 1.1 2.6 2.2 3.6 2 2 4.9 2.9 7.6 2.8 2.8-0.1 5.3-1.5 6.9-3.5 1.7-1.9 2.6-4.4 2.6-6.8v0.1c-0.3-0.7-1-1.1-1.8-1-0.7 0.1-1.4 0.4-1.9 0.9-0.5 0.6-0.6 1.3-0.4 2 0.1 0.7 0.5 1.3 1 1.8 1.1 0.9 2.5 1.3 3.9 1.2 1.3-0.2 2.5-0.7 3.7-1.2 4.6-2.4 8.5-4.4 11.8-6 3.2-1.7 5.7-2.9 7.5-3.8q1.2-0.7 1.9-1 0.5-0.2 0.7-0.3z"/>
				</g>
			</g>
			<g id="&lt;Group&gt;">
				<g id="&lt;Group&gt;">
					<path id="&lt;Path&gt;" class="s2" d="m1038.6 119.1c0 0.1-19.1 0.2-42.5 0.2-23.5 0-42.6-0.1-42.6-0.2 0-0.2 19.1-0.3 42.6-0.3 23.4 0 42.5 0.1 42.5 0.3z"/>
				</g>
			</g>
			<g id="&lt;Group&gt;">
				<g id="&lt;Group&gt;">
					<path id="&lt;Path&gt;" class="s2" d="m1052.8 119.1c0 0.1-1.4 0.2-3 0.2-1.6 0-2.9-0.1-2.9-0.2 0-0.2 1.3-0.3 2.9-0.3 1.6 0 3 0.1 3 0.3z"/>
				</g>
			</g>
			<g id="&lt;Group&gt;">
				<g id="&lt;Group&gt;">
					<path id="&lt;Path&gt;" class="s2" d="m1137.4 119.1c0 0.1-17.4 0.2-38.8 0.2-21.4 0-38.8-0.1-38.8-0.2 0-0.2 17.4-0.3 38.8-0.3 21.4 0 38.8 0.1 38.8 0.3z"/>
				</g>
			</g>
			<g id="&lt;Group&gt;">
				<g id="&lt;Group&gt;">
					<path id="&lt;Path&gt;" class="s2" d="m1038.6 142.7c0 0.2-19.1 0.3-42.5 0.3-23.5 0-42.6-0.1-42.6-0.3 0-0.1 19.1-0.2 42.6-0.2 23.4 0 42.5 0.1 42.5 0.2z"/>
				</g>
			</g>
			<g id="&lt;Group&gt;">
				<g id="&lt;Group&gt;">
					<path id="&lt;Path&gt;" class="s2" d="m1052.8 142.7c0 0.2-1.4 0.3-3 0.3-1.6 0-2.9-0.1-2.9-0.3 0-0.1 1.3-0.2 2.9-0.2 1.6 0 3 0.1 3 0.2z"/>
				</g>
			</g>
			<g id="&lt;Group&gt;">
				<g id="&lt;Group&gt;">
					<path id="&lt;Path&gt;" class="s2" d="m1137.4 142.7c0 0.2-17.4 0.3-38.8 0.3-21.4 0-38.8-0.1-38.8-0.3 0-0.1 17.4-0.2 38.8-0.2 21.4 0 38.8 0.1 38.8 0.2z"/>
				</g>
			</g>
		</g>
	</g>
	<g id="Plant">
		<g id="&lt;Group&gt;">
			<g id="&lt;Group&gt;">
				<g id="&lt;Group&gt;">
					<path id="&lt;Path&gt;" class="s4" d="m1306.7 231.1q-10.7 43.9-58.7 33.9 13.9-44.6 58.7-33.9z"/>
				</g>
				<g id="&lt;Group&gt;">
					<path id="&lt;Path&gt;" class="s4" d="m1283.5 297.6q-22 32.9-58.5 10.2 24.9-32.4 58.5-10.2z"/>
				</g>
				<g id="&lt;Group&gt;">
					<path id="&lt;Path&gt;" class="s4" d="m1248.4 347.8q-32.2 27.3-63-6.6 34.9-26 63 6.6z"/>
				</g>
				<g id="&lt;Group&gt;">
					<path id="&lt;Path&gt;" class="s4" d="m1214.3 241.5q35.7 17.1 18.4 56.4-35.6-20-18.4-56.4z"/>
				</g>
				<g id="&lt;Group&gt;">
					<path id="&lt;Path&gt;" class="s4" d="m1206.6 288.8q17.8 24-8.7 44.7-16.7-25.9 8.7-44.7z"/>
				</g>
				<g id="&lt;Group&gt;">
					<path id="&lt;Path&gt;" class="s4" d="m1289.1 179.7q4.1 35.6-34.4 41.3-1.9-36.9 34.4-41.3z"/>
				</g>
				<g id="&lt;Group&gt;">
					<path id="&lt;Path&gt;" class="s4" d="m1233.9 143.6q31.1 13 17.6 49.5-31.2-15.6-17.6-49.5z"/>
				</g>
				<g id="&lt;Group&gt;">
					<path id="&lt;Path&gt;" class="s4" d="m1215.1 195.7q41.2 4.7 37.6 49.5-42.1-7.5-37.6-49.5z"/>
				</g>
				<g id="&lt;Group&gt;">
					<g id="&lt;Group&gt;">
						<path id="&lt;Path&gt;" class="s4" d="m1156.5 352.2q0.2 0 0.5-0.1 0.6-0.2 1.6-0.4c1.3-0.4 3.3-0.9 5.9-1.7 5.1-1.6 12.3-4.2 20.7-8.7 8.4-4.5 17.8-11.1 26.9-19.7 4.5-4.4 9-9.3 13.3-14.6q1.5-2.1 3.1-4.2 0.7-1 1.5-2.1c0.5-0.7 1-1.4 1.5-2.2q1.4-2.2 2.9-4.5 1.3-2.3 2.7-4.7 0.6-1.1 1.3-2.3 0.6-1.2 1.2-2.4c0.8-1.6 1.6-3.2 2.4-4.8q1-2.5 2-4.9c0.4-0.8 0.7-1.6 1-2.4q0.5-1.2 0.9-2.4 0.9-2.4 1.7-4.8 0.7-2.4 1.4-4.8 0.4-1.2 0.7-2.3c0.3-0.8 0.4-1.6 0.6-2.4q0.6-2.3 1.1-4.6c2.7-12.3 3.3-23.7 3.1-33.2-0.3-9.6-1.6-17.2-2.5-22.4-0.6-2.6-1.1-4.6-1.4-6q-0.2-1-0.4-1.6 0-0.3-0.1-0.5 0.1 0.2 0.2 0.5 0.1 0.6 0.4 1.6c0.3 1.3 0.8 3.3 1.4 5.9 1 5.3 2.4 12.9 2.7 22.4 0.3 9.6-0.3 21-3 33.4q-0.5 2.3-1.1 4.6c-0.2 0.8-0.3 1.6-0.6 2.4q-0.3 1.2-0.6 2.4-0.7 2.3-1.5 4.8-0.8 2.3-1.7 4.8-0.4 1.2-0.9 2.4c-0.3 0.8-0.6 1.6-1 2.4q-1 2.4-2 4.9c-0.8 1.6-1.6 3.2-2.4 4.8q-0.6 1.2-1.2 2.4-0.6 1.2-1.3 2.4-1.4 2.3-2.7 4.7-1.5 2.2-2.9 4.5c-0.5 0.7-1 1.5-1.5 2.2q-0.8 1-1.6 2.1-1.5 2.1-3.1 4.2c-4.2 5.3-8.7 10.2-13.3 14.6-9.2 8.7-18.6 15.2-27 19.7-8.5 4.5-15.8 7.1-20.9 8.6-2.5 0.8-4.5 1.2-5.9 1.5q-1 0.3-1.6 0.4-0.3 0.1-0.5 0.1z"/>
					</g>
				</g>
			</g>
			<g id="&lt;Group&gt;">
				<g id="&lt;Group&gt;">
					<path id="&lt;Path&gt;" class="s5" d="m1202.7 308.2c0.1 0 0 0.4 0 1-0.1 0.6-0.2 1.6-0.3 2.7-0.3 2.3-0.7 5.5-1.4 8.9-0.7 3.5-1.4 6.6-2.1 8.8-0.3 1.2-0.5 2.1-0.7 2.7-0.2 0.6-0.3 0.9-0.4 0.9 0 0 0.1-0.3 0.2-1q0.3-1.1 0.6-2.6c0.5-2.3 1.2-5.4 1.9-8.8 0.7-3.5 1.2-6.6 1.6-8.9q0.2-1.6 0.4-2.7c0.1-0.7 0.2-1 0.2-1z"/>
				</g>
			</g>
			<g id="&lt;Group&gt;">
				<g id="&lt;Group&gt;">
					<path id="&lt;Path&gt;" class="s5" d="m1211.5 343.9c0 0-0.4 0-1-0.1q-1.1-0.2-2.8-0.4c-2.3-0.4-5.4-0.8-9-1.2-3.5-0.4-6.7-0.7-9-0.9q-1.7-0.2-2.8-0.3c-0.6 0-1-0.1-1-0.1 0-0.1 0.4-0.1 1-0.1 0.7 0 1.6 0.1 2.8 0.1 2.3 0.1 5.5 0.4 9.1 0.8 3.5 0.4 6.7 0.9 9 1.4 1.1 0.2 2.1 0.4 2.7 0.5 0.6 0.1 1 0.2 1 0.3z"/>
				</g>
			</g>
			<g id="&lt;Group&gt;">
				<g id="&lt;Group&gt;">
					<path id="&lt;Path&gt;" class="s5" d="m1254.9 300.3c0 0-0.5 0.1-1.2 0.3q-1.3 0.2-3.3 0.6c-2.7 0.5-6.5 1.3-10.7 2.3-4.2 1-7.9 2.1-10.6 2.9q-1.9 0.5-3.2 0.9c-0.7 0.2-1.2 0.3-1.2 0.3 0-0.1 0.4-0.2 1.2-0.5 0.7-0.3 1.8-0.6 3.1-1.1 2.7-0.8 6.4-1.9 10.6-2.9 4.2-1 8-1.8 10.7-2.2 1.4-0.3 2.6-0.4 3.3-0.5 0.8-0.1 1.2-0.2 1.3-0.1z"/>
				</g>
			</g>
			<g id="&lt;Group&gt;">
				<g id="&lt;Group&gt;">
					<path id="&lt;Path&gt;" class="s5" d="m1223.4 266.6c0 0 0.2 0.4 0.7 1.1 0.4 0.7 1 1.8 1.7 3.1 1.4 2.7 3.1 6.5 4.4 11 1.3 4.4 1.9 8.6 2.1 11.6 0.2 1.5 0.2 2.7 0.2 3.6 0 0.8 0 1.3 0 1.3-0.1 0-0.1-0.5-0.2-1.3 0-0.9-0.1-2.1-0.3-3.6-0.3-3-1-7.1-2.3-11.5-1.2-4.4-2.8-8.2-4.2-11-0.6-1.3-1.2-2.4-1.6-3.1-0.4-0.8-0.6-1.2-0.5-1.2z"/>
				</g>
			</g>
			<g id="&lt;Group&gt;">
				<g id="&lt;Group&gt;">
					<path id="&lt;Path&gt;" class="s5" d="m1271.2 246.1c0 0-0.4 0.2-1 0.7q-1.1 0.6-2.6 1.7c-2.3 1.4-5.3 3.6-8.4 6.1-3.2 2.6-5.9 5.1-7.8 6.9q-1.3 1.4-2.2 2.3c-0.5 0.5-0.8 0.8-0.8 0.7-0.1 0 0.2-0.3 0.7-0.9 0.5-0.5 1.2-1.3 2.1-2.3 1.9-1.9 4.5-4.5 7.7-7.1 3.2-2.5 6.2-4.6 8.5-6 1.1-0.7 2.1-1.3 2.7-1.6 0.7-0.4 1-0.5 1.1-0.5z"/>
				</g>
			</g>
			<g id="&lt;Group&gt;">
				<g id="&lt;Group&gt;">
					<path id="&lt;Path&gt;" class="s5" d="m1226.2 213.6q0-0.1 0.3 0.2 0.4 0.3 0.9 0.8c0.8 0.7 1.9 1.8 3.2 3.1 2.7 2.7 6.3 6.4 10.1 10.8 3.7 4.4 6.9 8.6 9.1 11.6 1.1 1.6 1.9 2.8 2.5 3.7q0.4 0.6 0.7 1.1 0.2 0.3 0.2 0.3-0.1 0-0.3-0.3-0.3-0.4-0.8-1-1-1.3-2.6-3.6c-2.3-3-5.4-7.1-9.2-11.5-3.7-4.4-7.3-8.2-9.9-10.9q-1.9-1.9-3.1-3.1-0.5-0.6-0.9-0.9-0.3-0.3-0.2-0.3z"/>
				</g>
			</g>
			<g id="&lt;Group&gt;">
				<g id="&lt;Group&gt;">
					<path id="&lt;Path&gt;" class="s5" d="m1275.8 191.3c0 0-0.3 0.4-0.9 1.1q-1 1.1-2.5 2.9c-2.1 2.5-4.9 6.1-7.8 10.1-2.9 4.1-5.3 7.9-7 10.6q-1.2 2.1-2 3.4c-0.5 0.8-0.7 1.2-0.8 1.2 0-0.1 0.2-0.5 0.6-1.3 0.5-0.8 1.1-2 1.9-3.4 1.6-2.9 4-6.7 6.9-10.8 2.9-4 5.8-7.5 8-10 1-1.2 1.9-2.2 2.6-2.9 0.6-0.6 1-1 1-0.9z"/>
				</g>
			</g>
			<g id="&lt;Group&gt;">
				<g id="&lt;Group&gt;">
					<path id="&lt;Path&gt;" class="s5" d="m1238.5 157.4c0.1 0 0.3 0.5 0.7 1.3 0.4 0.9 0.9 2.1 1.6 3.7 1.3 3.1 3 7.4 4.8 12.2 1.8 4.8 3.2 9.1 4.3 12.3 0.5 1.6 0.9 2.9 1.1 3.8 0.3 0.9 0.4 1.4 0.4 1.4-0.1 0.1-0.2-0.4-0.6-1.3q-0.5-1.5-1.3-3.8c-1.1-3.1-2.6-7.5-4.4-12.3-1.7-4.8-3.4-9.1-4.6-12.2q-0.9-2.3-1.5-3.7c-0.3-0.9-0.5-1.3-0.5-1.4z"/>
				</g>
			</g>
		</g>
		<g id="&lt;Group&gt;">
			<g id="&lt;Group&gt;">
				<g id="&lt;Group&gt;">
					<path id="&lt;Path&gt;" class="s4" d="m767.8 221.3q10.2 41.5 55.5 32-13.1-42.1-55.5-32z"/>
				</g>
				<g id="&lt;Group&gt;">
					<path id="&lt;Path&gt;" class="s4" d="m789.7 284.2q20.9 31 55.3 9.6-23.5-30.6-55.3-9.6z"/>
				</g>
				<g id="&lt;Group&gt;">
					<path id="&lt;Path&gt;" class="s4" d="m822.9 331.6q30.4 25.8 59.6-6.2-33-24.6-59.6 6.2z"/>
				</g>
				<g id="&lt;Group&gt;">
					<path id="&lt;Path&gt;" class="s4" d="m855.1 231.1q-33.7 16.2-17.3 53.3 33.6-18.8 17.3-53.3z"/>
				</g>
				<g id="&lt;Group&gt;">
					<path id="&lt;Path&gt;" class="s4" d="m862.5 275.9q-16.9 22.7 8.2 42.2 15.7-24.5-8.2-42.2z"/>
				</g>
				<g id="&lt;Group&gt;">
					<path id="&lt;Path&gt;" class="s4" d="m784.5 172.7q-3.9 33.7 32.5 39.1 1.7-34.9-32.5-39.1z"/>
				</g>
				<g id="&lt;Group&gt;">
					<path id="&lt;Path&gt;" class="s4" d="m836.6 138.7q-29.4 12.2-16.6 46.7 29.5-14.7 16.6-46.7z"/>
				</g>
				<g id="&lt;Group&gt;">
					<path id="&lt;Path&gt;" class="s4" d="m854.4 187.8q-39 4.5-35.5 46.9 39.7-7.2 35.5-46.9z"/>
				</g>
				<g id="&lt;Group&gt;">
					<g id="&lt;Group&gt;">
						<path id="&lt;Path&gt;" class="s4" d="m918.3 338.7q-0.2-0.1-0.5-0.1-0.6-0.2-1.6-0.4c-1.3-0.3-3.3-0.7-5.8-1.5-5.1-1.4-12.4-3.7-20.9-7.8-4.3-2-8.8-4.5-13.5-7.4-4.7-2.9-9.5-6.4-14.3-10.4-4.7-4-9.5-8.6-13.9-13.7q-1.7-1.9-3.3-3.9c-1.1-1.4-2.1-2.8-3.1-4.2q-0.8-1.1-1.6-2.1-0.7-1.1-1.4-2.2c-1-1.5-2-3-2.9-4.5-1.8-3.2-3.7-6.2-5.1-9.4-1.7-3.1-2.9-6.3-4.3-9.4-2.4-6.4-4.4-12.6-5.8-18.7-2.8-12.1-3.7-23.4-3.4-32.8 0.2-9.4 1.5-17 2.4-22.1 0.6-2.6 1.1-4.6 1.5-5.9q0.2-1 0.3-1.6 0.1-0.3 0.2-0.5 0 0.2-0.1 0.5-0.1 0.6-0.4 1.6c-0.2 1.3-0.8 3.3-1.3 5.9-0.9 5.2-2.1 12.7-2.3 22.1-0.2 9.4 0.7 20.6 3.5 32.7 1.4 6.1 3.4 12.3 5.9 18.6 1.3 3.1 2.6 6.3 4.2 9.4 1.5 3.2 3.3 6.2 5.1 9.3 0.9 1.5 1.9 3 2.8 4.5q0.8 1.1 1.5 2.2 0.8 1.1 1.5 2.1c1.1 1.4 2.1 2.8 3.2 4.2q1.6 2 3.2 3.9c4.5 5.1 9.2 9.7 13.9 13.7 4.8 3.9 9.5 7.4 14.2 10.4 4.7 2.9 9.2 5.4 13.5 7.4 8.4 4.1 15.7 6.5 20.7 7.9 2.5 0.8 4.5 1.3 5.9 1.6q1 0.3 1.5 0.4 0.3 0.1 0.5 0.2z"/>
					</g>
				</g>
			</g>
			<g id="&lt;Group&gt;">
				<g id="&lt;Group&gt;">
					<path id="&lt;Path&gt;" class="s5" d="m866.1 294.2c0 0 0.1 0.3 0.2 0.9q0.2 1.1 0.4 2.5c0.4 2.2 0.9 5.2 1.5 8.4 0.6 3.3 1.3 6.2 1.8 8.4q0.3 1.4 0.6 2.5c0.1 0.6 0.1 0.9 0.1 0.9 0 0-0.1-0.3-0.3-0.9-0.2-0.6-0.4-1.4-0.7-2.5-0.6-2.1-1.3-5-2-8.3-0.6-3.3-1-6.2-1.3-8.4-0.1-1.1-0.2-2-0.3-2.6 0-0.6 0-0.9 0-0.9z"/>
				</g>
			</g>
			<g id="&lt;Group&gt;">
				<g id="&lt;Group&gt;">
					<path id="&lt;Path&gt;" class="s5" d="m857.8 327.9c0-0.1 0.3-0.1 0.9-0.3 0.6-0.1 1.5-0.3 2.6-0.5 2.2-0.4 5.2-0.9 8.5-1.3 3.4-0.4 6.4-0.6 8.6-0.7 1.1-0.1 2-0.1 2.6-0.1 0.7 0 1 0 1 0 0 0.1-0.3 0.1-0.9 0.2q-1.1 0.1-2.6 0.2c-2.2 0.2-5.3 0.5-8.6 0.9-3.3 0.4-6.4 0.8-8.5 1.1q-1.6 0.2-2.6 0.4c-0.6 0.1-1 0.1-1 0.1z"/>
				</g>
			</g>
			<g id="&lt;Group&gt;">
				<g id="&lt;Group&gt;">
					<path id="&lt;Path&gt;" class="s5" d="m816.8 286.7c0-0.1 0.5 0 1.2 0.1 0.7 0.1 1.8 0.2 3.1 0.4 2.6 0.5 6.2 1.2 10.2 2.1 3.9 1 7.4 2 10 2.8 1.2 0.4 2.2 0.8 2.9 1 0.7 0.3 1.1 0.4 1.1 0.5 0 0-0.4-0.1-1.1-0.3q-1.2-0.3-3-0.9c-2.6-0.7-6.1-1.7-10-2.6-4-1-7.6-1.7-10.2-2.2q-1.8-0.4-3-0.6c-0.8-0.2-1.2-0.3-1.2-0.3z"/>
				</g>
			</g>
			<g id="&lt;Group&gt;">
				<g id="&lt;Group&gt;">
					<path id="&lt;Path&gt;" class="s5" d="m846.6 254.8c0 0.1-0.2 0.5-0.5 1.2-0.4 0.7-0.9 1.7-1.6 3-1.2 2.5-2.7 6.2-3.9 10.3-1.2 4.2-1.9 8.1-2.2 10.9-0.1 1.4-0.2 2.6-0.3 3.4 0 0.8-0.1 1.2-0.1 1.2 0 0-0.1-0.4-0.1-1.2 0-0.8 0.1-2 0.2-3.4 0.2-2.9 0.8-6.8 2-11 1.2-4.2 2.8-7.8 4.1-10.4 0.7-1.2 1.3-2.3 1.7-2.9 0.4-0.7 0.7-1.1 0.7-1.1z"/>
				</g>
			</g>
			<g id="&lt;Group&gt;">
				<g id="&lt;Group&gt;">
					<path id="&lt;Path&gt;" class="s5" d="m801.4 235.5c0.1-0.1 0.4 0.1 1 0.5 0.6 0.3 1.5 0.8 2.6 1.5 2.2 1.3 5 3.3 8 5.7 3 2.4 5.6 4.8 7.3 6.6 0.9 1 1.5 1.7 2 2.3 0.5 0.5 0.7 0.8 0.7 0.8 0 0-0.3-0.2-0.8-0.7q-0.9-0.9-2.1-2.1c-1.8-1.8-4.4-4.1-7.4-6.6-2.9-2.4-5.8-4.4-7.9-5.8q-1.5-0.9-2.5-1.6c-0.6-0.4-0.9-0.6-0.9-0.6z"/>
				</g>
			</g>
			<g id="&lt;Group&gt;">
				<g id="&lt;Group&gt;">
					<path id="&lt;Path&gt;" class="s5" d="m844 204.7c0 0.1-0.4 0.5-1.1 1.2q-1.1 1.1-3 3c-2.4 2.5-5.8 6.1-9.3 10.3-3.5 4.1-6.6 8-8.7 10.9q-1.5 2-2.5 3.3c-0.6 0.9-0.9 1.3-1 1.3 0-0.1 0.3-0.5 0.9-1.4 0.5-0.8 1.3-2 2.3-3.4 2.1-3 5.1-6.9 8.6-11 3.6-4.2 7-7.7 9.5-10.2 1.3-1.3 2.3-2.3 3.1-3 0.7-0.6 1.1-1 1.2-1z"/>
				</g>
			</g>
			<g id="&lt;Group&gt;">
				<g id="&lt;Group&gt;">
					<path id="&lt;Path&gt;" class="s5" d="m797.1 183.7c0-0.1 0.3 0.3 0.9 0.9 0.6 0.6 1.5 1.5 2.5 2.7 2 2.3 4.8 5.6 7.5 9.5 2.8 3.8 5 7.4 6.5 10.1 0.8 1.4 1.4 2.5 1.8 3.2 0.4 0.8 0.6 1.2 0.6 1.3-0.1 0-0.3-0.4-0.8-1.2q-0.7-1.2-1.8-3.1c-1.6-2.6-3.9-6.2-6.7-10.1-2.7-3.8-5.4-7.1-7.4-9.5q-1.4-1.7-2.3-2.8c-0.6-0.6-0.9-1-0.8-1z"/>
				</g>
			</g>
			<g id="&lt;Group&gt;">
				<g id="&lt;Group&gt;">
					<path id="&lt;Path&gt;" class="s5" d="m832.3 151.7c0 0-0.2 0.5-0.5 1.3q-0.5 1.4-1.3 3.5c-1.2 2.9-2.8 7-4.5 11.5-1.6 4.6-3.1 8.7-4.1 11.7q-0.8 2.1-1.3 3.5c-0.3 0.9-0.4 1.3-0.5 1.3 0 0 0.1-0.5 0.4-1.3 0.2-0.9 0.6-2.1 1.1-3.6 0.9-3 2.3-7.2 4-11.7 1.7-4.6 3.3-8.6 4.5-11.5 0.7-1.5 1.2-2.7 1.5-3.5 0.4-0.8 0.6-1.2 0.7-1.2z"/>
				</g>
			</g>
		</g>
	</g>
	<g id="Character">
		<g id="&lt;Group&gt;">
			<g id="&lt;Group&gt;">
				<g id="&lt;Group&gt;">
					<g id="&lt;Group&gt;">
						<g id="&lt;Group&gt;">
							<g id="&lt;Group&gt;">
								<path id="&lt;Path&gt;" class="s4" d="m918.3 194.1c6.5 0.8 7.5 7.6 9.9 13.2 2.5 5.6 7.1 10.7 10.7 15.7 1.9 2.7 4.5 5.1 5.1 8.2 0.8 3.4-0.8 6.8-1.5 10.2-0.7 3.3-0.2 7.5 3.1 9-0.7 0.8-1.9 1.3-3 1.2 0 1.6-1.5 2.9-3.1 3.4-1.7 0.4-3.4 0.2-5-0.1 0.4 1-0.5 2.3-1.7 2.7-1.2 0.4-2.4 0.2-3.6 0-1.2-0.3-2.4-0.6-3.6-0.3-2.7 0.6-4.3 3.6-7 4-3.7 0.5-6.4-4.2-10-3.4-1.7 0.4-2.9 1.9-4.3 2.9-1.4 1-3.8 0.8-4.5-0.7-1.9 2.5-5 4.9-8.2 5.5 0.5-1.1 0.3-2.4-0.6-3.2-1.7 1.4-3.8 2.4-6.1 2.7 1.4-1.3 2.2-3.1 2.1-4.9-1.5 1.2-3.6 1.6-5.4 1.2 3.3-1.9 3.6-6.3 2.5-9.6-1.2-3.3-3.4-6.2-3.9-9.7-0.5-3.7 4-8.5 3.1-12.2-1.3-5.7-1.2-9.2-1-14.5 0.2-3.5 1.7-6.6 3.2-9.8 2-4.2 4.6-7.2 8.8-9.5 3.4-2 8.5-3.8 12.5-3.9 7.1-0.1 10-0.3 15.6 3.4"/>
							</g>
						</g>
					</g>
				</g>
			</g>
			<g id="&lt;Group&gt;">
				<g id="&lt;Group&gt;">
					<g id="&lt;Group&gt;">
						<g id="&lt;Group&gt;">
							<g id="&lt;Group&gt;">
								<g id="&lt;Group&gt;">
									<g id="&lt;Group&gt;">
										<g id="&lt;Group&gt;">
											<g id="&lt;Group&gt;">
												<g id="&lt;Group&gt;">
													<g id="&lt;Group&gt;">
														<g id="&lt;Group&gt;">
															<g id="&lt;Group&gt;">
																<g id="&lt;Group&gt;">
																	<path id="&lt;Path&gt;" class="s4" d="m896.4 240.5c-2.2-4.6-4.4-9.2-5.8-14.1-1.4-4.9-2-10.1-0.8-15.1 0.1-0.8 1.8-5.9 2.5-5.9 0.6 0-0.2 4.7 0.1 5.1 3.3 4.2 4.7 9.5 5 14.8 0.3 5.2-0.2 10-1 15.2z"/>
																</g>
															</g>
														</g>
													</g>
												</g>
											</g>
										</g>
									</g>
								</g>
								<g id="&lt;Group&gt;">
									<g id="&lt;Group&gt;">
										<g id="&lt;Group&gt;">
											<g id="&lt;Group&gt;">
												<g id="&lt;Group&gt;">
													<g id="&lt;Group&gt;">
														<g id="&lt;Group&gt;">
															<g id="&lt;Group&gt;">
																<g id="&lt;Group&gt;">
																	<g id="&lt;Group&gt;">
																		<path id="&lt;Path&gt;" class="s8" d="m927.4 283.7c-7.8 0.8-26.7-7.4-27.8-15.2l-6.3-47.2c-2.1-12.6 3.4-24.3 16.1-26.1l1.2-0.1c11.8-0.9 22.5 7.4 24.4 19.2 1.7 10.9 3.5 23 3.9 28.9q0.9 12.2-11.2 15.1c0 0 0.3 2.9 0.8 6.4 0.9 8.1-0.3 16.9-1.1 19z"/>
																	</g>
																</g>
															</g>
														</g>
													</g>
												</g>
											</g>
										</g>
									</g>
								</g>
								<g id="&lt;Group&gt;">
									<g id="&lt;Group&gt;">
										<g id="&lt;Group&gt;">
											<g id="&lt;Group&gt;">
												<g id="&lt;Group&gt;">
													<g id="&lt;Group&gt;">
														<g id="&lt;Group&gt;">
															<g id="&lt;Group&gt;">
																<g id="&lt;Group&gt;">
																	<g id="&lt;Group&gt;">
																		<g id="&lt;Group&gt;">
																			<path id="&lt;Path&gt;" class="s9" d="m928.1 261.7q-12.1 2.1-16.7-6.8 8.6 4.5 16.3 3.4z"/>
																		</g>
																	</g>
																</g>
															</g>
														</g>
													</g>
												</g>
											</g>
										</g>
									</g>
								</g>
								<g id="&lt;Group&gt;">
									<g id="&lt;Group&gt;">
										<g id="&lt;Group&gt;">
											<g id="&lt;Group&gt;">
												<g id="&lt;Group&gt;">
													<g id="&lt;Group&gt;">
														<g id="&lt;Group&gt;">
															<g id="&lt;Group&gt;">
																<g id="&lt;Group&gt;">
																	<g id="&lt;Group&gt;">
																		<g id="&lt;Group&gt;">
																			<g id="&lt;Group&gt;">
																				<g id="&lt;Group&gt;">
																					<g id="&lt;Group&gt;">
																						<g id="&lt;Group&gt;">
																							<g id="&lt;Group&gt;">
																								<g id="&lt;Group&gt;">
																									<ellipse id="&lt;Path&gt;" class="s4" cx="928.7" cy="225.1" rx="1.7" ry="1.7"/>
																								</g>
																							</g>
																						</g>
																					</g>
																				</g>
																			</g>
																		</g>
																	</g>
																</g>
															</g>
														</g>
													</g>
												</g>
											</g>
										</g>
									</g>
								</g>
								<g id="&lt;Group&gt;">
									<g id="&lt;Group&gt;">
										<g id="&lt;Group&gt;">
											<g id="&lt;Group&gt;">
												<g id="&lt;Group&gt;">
													<g id="&lt;Group&gt;">
														<g id="&lt;Group&gt;">
															<g id="&lt;Group&gt;">
																<g id="&lt;Group&gt;">
																	<g id="&lt;Group&gt;">
																		<g id="&lt;Group&gt;">
																			<g id="&lt;Group&gt;">
																				<g id="&lt;Group&gt;">
																					<g id="&lt;Group&gt;">
																						<g id="&lt;Group&gt;">
																							<g id="&lt;Group&gt;">
																								<g id="&lt;Group&gt;">
																									<g id="&lt;Group&gt;">
																										<path id="&lt;Path&gt;" class="s4" d="m932.8 219.9c-0.2 0.2-1.6-0.7-3.5-0.5-1.9 0.1-3.2 1.2-3.4 1-0.1-0.1 0.1-0.5 0.7-1 0.5-0.5 1.5-1 2.7-1.1 1.1-0.1 2.1 0.3 2.7 0.7 0.7 0.4 0.9 0.8 0.8 0.9z"/>
																									</g>
																								</g>
																							</g>
																						</g>
																					</g>
																				</g>
																			</g>
																		</g>
																	</g>
																</g>
															</g>
														</g>
													</g>
												</g>
											</g>
										</g>
									</g>
								</g>
								<g id="&lt;Group&gt;">
									<g id="&lt;Group&gt;">
										<g id="&lt;Group&gt;">
											<g id="&lt;Group&gt;">
												<g id="&lt;Group&gt;">
													<g id="&lt;Group&gt;">
														<g id="&lt;Group&gt;">
															<g id="&lt;Group&gt;">
																<g id="&lt;Group&gt;">
																	<g id="&lt;Group&gt;">
																		<g id="&lt;Group&gt;">
																			<g id="&lt;Group&gt;">
																				<g id="&lt;Group&gt;">
																					<g id="&lt;Group&gt;">
																						<g id="&lt;Group&gt;">
																							<g id="&lt;Group&gt;">
																								<g id="&lt;Group&gt;">
																									<ellipse id="&lt;Path&gt;" class="s4" cx="911" cy="226.5" rx="1.7" ry="1.7"/>
																								</g>
																							</g>
																						</g>
																					</g>
																				</g>
																			</g>
																		</g>
																	</g>
																</g>
															</g>
														</g>
													</g>
												</g>
											</g>
										</g>
									</g>
								</g>
								<g id="&lt;Group&gt;">
									<g id="&lt;Group&gt;">
										<g id="&lt;Group&gt;">
											<g id="&lt;Group&gt;">
												<g id="&lt;Group&gt;">
													<g id="&lt;Group&gt;">
														<g id="&lt;Group&gt;">
															<g id="&lt;Group&gt;">
																<g id="&lt;Group&gt;">
																	<g id="&lt;Group&gt;">
																		<g id="&lt;Group&gt;">
																			<g id="&lt;Group&gt;">
																				<g id="&lt;Group&gt;">
																					<g id="&lt;Group&gt;">
																						<g id="&lt;Group&gt;">
																							<g id="&lt;Group&gt;">
																								<g id="&lt;Group&gt;">
																									<g id="&lt;Group&gt;">
																										<path id="&lt;Path&gt;" class="s4" d="m914.4 221.8c-0.2 0.2-1.6-0.6-3.5-0.5-1.8 0.1-3.1 1.2-3.4 1-0.1-0.1 0.1-0.5 0.7-1 0.5-0.5 1.5-1 2.7-1.1 1.1-0.1 2.2 0.3 2.8 0.7 0.6 0.4 0.8 0.8 0.7 0.9z"/>
																									</g>
																								</g>
																							</g>
																						</g>
																					</g>
																				</g>
																			</g>
																		</g>
																	</g>
																</g>
															</g>
														</g>
													</g>
												</g>
											</g>
										</g>
									</g>
								</g>
								<g id="&lt;Group&gt;">
									<g id="&lt;Group&gt;">
										<g id="&lt;Group&gt;">
											<g id="&lt;Group&gt;">
												<g id="&lt;Group&gt;">
													<g id="&lt;Group&gt;">
														<g id="&lt;Group&gt;">
															<g id="&lt;Group&gt;">
																<g id="&lt;Group&gt;">
																	<g id="&lt;Group&gt;">
																		<g id="&lt;Group&gt;">
																			<g id="&lt;Group&gt;">
																				<g id="&lt;Group&gt;">
																					<g id="&lt;Group&gt;">
																						<g id="&lt;Group&gt;">
																							<g id="&lt;Group&gt;">
																								<g id="&lt;Group&gt;">
																									<path id="&lt;Path&gt;" class="s4" d="m922.3 235.7c0-0.1 1.1-0.4 3-0.8 0.5-0.1 0.9-0.2 1-0.6 0.1-0.3-0.2-0.8-0.4-1.4q-0.9-1.7-1.8-3.5c-2.3-5.1-4.1-9.2-3.9-9.3 0.2-0.1 2.3 3.9 4.7 8.9q0.9 1.9 1.6 3.6c0.3 0.5 0.6 1.1 0.4 1.9-0.1 0.3-0.4 0.6-0.7 0.7-0.3 0.2-0.6 0.2-0.8 0.2-1.9 0.3-3.1 0.4-3.1 0.3z"/>
																								</g>
																							</g>
																						</g>
																					</g>
																				</g>
																			</g>
																		</g>
																	</g>
																</g>
															</g>
														</g>
													</g>
												</g>
											</g>
										</g>
									</g>
								</g>
								<g id="&lt;Group&gt;">
									<g id="&lt;Group&gt;">
										<g id="&lt;Group&gt;">
											<g id="&lt;Group&gt;">
												<g id="&lt;Group&gt;">
													<g id="&lt;Group&gt;">
														<g id="&lt;Group&gt;">
															<g id="&lt;Group&gt;">
																<g id="&lt;Group&gt;">
																	<g id="&lt;Group&gt;">
																		<g id="&lt;Group&gt;">
																			<g id="&lt;Group&gt;">
																				<g id="&lt;Group&gt;">
																					<path id="&lt;Path&gt;" class="s4" d="m913.7 214.8c-0.2 0.5-2.1 0.1-4.3 0.2-2.2 0.1-4.1 0.7-4.3 0.2-0.1-0.2 0.2-0.7 0.9-1.2 0.8-0.4 2-0.8 3.3-0.9 1.3 0 2.5 0.3 3.3 0.6 0.8 0.4 1.2 0.8 1.1 1.1z"/>
																				</g>
																			</g>
																		</g>
																	</g>
																</g>
															</g>
														</g>
													</g>
												</g>
											</g>
										</g>
									</g>
								</g>
								<g id="&lt;Group&gt;">
									<g id="&lt;Group&gt;">
										<g id="&lt;Group&gt;">
											<g id="&lt;Group&gt;">
												<g id="&lt;Group&gt;">
													<g id="&lt;Group&gt;">
														<g id="&lt;Group&gt;">
															<g id="&lt;Group&gt;">
																<g id="&lt;Group&gt;">
																	<g id="&lt;Group&gt;">
																		<g id="&lt;Group&gt;">
																			<g id="&lt;Group&gt;">
																				<g id="&lt;Group&gt;">
																					<path id="&lt;Path&gt;" class="s4" d="m932 215.5c-0.4 0.5-1.9 0.2-3.8 0.3-1.8 0.1-3.3 0.6-3.7 0.2-0.2-0.2 0-0.6 0.6-1.1 0.7-0.5 1.8-0.9 3-1 1.3-0.1 2.4 0.2 3.1 0.6 0.7 0.4 0.9 0.8 0.8 1z"/>
																				</g>
																			</g>
																		</g>
																	</g>
																</g>
															</g>
														</g>
													</g>
												</g>
											</g>
										</g>
									</g>
								</g>
								<g id="&lt;Group&gt;">
									<g id="&lt;Group&gt;">
										<g id="&lt;Group&gt;">
											<g id="&lt;Group&gt;">
												<g id="&lt;Group&gt;">
													<g id="&lt;Group&gt;">
														<g id="&lt;Group&gt;">
															<g id="&lt;Group&gt;">
																<g id="&lt;Group&gt;">
																	<path id="&lt;Path&gt;" class="s8" d="m896.4 242.3c0 0.2-8.1 2.9-9.1-5.5-0.9-8.3 7.5-6.6 7.7-6.5q1.4 11.7 1.4 12z"/>
																</g>
															</g>
														</g>
													</g>
												</g>
											</g>
										</g>
									</g>
								</g>
								<g id="&lt;Group&gt;">
									<g id="&lt;Group&gt;">
										<g id="&lt;Group&gt;">
											<g id="&lt;Group&gt;">
												<g id="&lt;Group&gt;">
													<g id="&lt;Group&gt;">
														<g id="&lt;Group&gt;">
															<g id="&lt;Group&gt;">
																<g id="&lt;Group&gt;">
																	<g id="&lt;Group&gt;">
																		<path id="&lt;Path&gt;" class="s9" d="m893.3 239.8c-0.2 0.3-0.7 0.5-1.3 0.4-1.2-0.2-2.3-1.7-2.5-3.4-0.1-0.8 0-1.6 0.2-2.3 0.2-0.7 0.8-1.4 1.4-1.5 0.3-0.1 0.6 0 0.8 0.1 0.2 0.2 0.4 0.3 0.4 0.5 0.1 0.3 0 0.5 0 0.5-0.1 0-0.1-0.2-0.2-0.4-0.1-0.2-0.5-0.4-0.9-0.3-0.4 0.1-0.8 0.6-1 1.2-0.2 0.7-0.2 1.4-0.1 2.2 0.2 1.5 1.1 2.8 2 3 0.4 0.1 0.8 0 1.1-0.1 0.2-0.2 0.3-0.3 0.3-0.3 0.1 0 0 0.2-0.2 0.4z"/>
																	</g>
																</g>
															</g>
														</g>
													</g>
												</g>
											</g>
										</g>
									</g>
								</g>
								<g id="&lt;Group&gt;">
									<g id="&lt;Group&gt;">
										<g id="&lt;Group&gt;">
											<g id="&lt;Group&gt;">
												<g id="&lt;Group&gt;">
													<g id="&lt;Group&gt;">
														<g id="&lt;Group&gt;">
															<g id="&lt;Group&gt;">
																<g id="&lt;Group&gt;">
																	<path id="&lt;Path&gt;" class="s4" d="m926 199.6q-0.5 1.6-3.2 4.2c-1.9 1.9-10.2 0.3-15.1-0.7-3.1-0.7-6.3 0.3-8.5 2.6q-0.4 0.5-0.6 0.8c-0.7 1.3-0.5 2.9 0 4.2 0.5 1.4 1.3 2.6 1.9 4 1 2.4 1.2 5.2 1.4 7.8 0.3 3.8 0.6 7.7-0.8 11.2-0.7 1.6-2.4 3.4-4.1 1.9-0.7-0.6-1.1-1.5-1.2-2.4-0.2-2.6-2.6-3.4-3.9-5.1-1.2-1.4-1.6-3.2-1.8-5-0.9-5.7-0.6-11.8 1.6-17.2 2.2-5.4 6.5-8.7 11.8-10.9 4.5-1.9 12.3-1.4 17.6 0.2 3.5 1.1 8.1 5 6.8 5.9z"/>
																</g>
															</g>
														</g>
													</g>
												</g>
											</g>
										</g>
									</g>
								</g>
							</g>
						</g>
						<g id="&lt;Group&gt;">
							<g id="&lt;Group&gt;">
								<g id="&lt;Group&gt;">
									<g id="&lt;Group&gt;">
										<g id="&lt;Group&gt;">
											<g id="&lt;Group&gt;">
												<g id="&lt;Group&gt;">
													<g id="&lt;Group&gt;">
														<g id="&lt;Group&gt;">
															<path id="&lt;Path&gt;" class="s4" d="m919.7 240c0.8 0.6 1.7 1 2.3 1.3 0.7 0.3 1 0.5 1 0.6 0 0.1-0.5 0.1-1.2 0-0.7-0.2-1.6-0.5-2.6-1.1-0.9-0.7-1.6-1.6-1.8-2.3-0.2-0.7-0.2-1.2-0.1-1.2 0.3-0.1 0.7 1.6 2.4 2.7z"/>
														</g>
													</g>
												</g>
											</g>
										</g>
									</g>
								</g>
							</g>
						</g>
					</g>
					<g id="&lt;Group&gt;">
						<g id="&lt;Group&gt;">
							<g id="&lt;Group&gt;">
								<g id="&lt;Group&gt;">
									<g id="&lt;Group&gt;">
										<g id="&lt;Group&gt;">
											<path id="&lt;Path&gt;" class="s6" d="m895.3 231.4q0.1 0.2 0.2 0.5-0.1-0.2-0.2-0.5z"/>
										</g>
									</g>
								</g>
							</g>
						</g>
						<g id="&lt;Group&gt;">
							<g id="&lt;Group&gt;">
								<g id="&lt;Group&gt;">
									<g id="&lt;Group&gt;">
										<g id="&lt;Group&gt;">
											<path id="&lt;Compound Path&gt;" class="s5" d="m895.3 197.5q6.9-5.7 18.3-3.6c-31.6 3.9-20.1 33.4-18.3 37.5q-1.5-3.1-2.9-1.3-11.1-24.2 2.9-32.6z"/>
										</g>
									</g>
								</g>
							</g>
						</g>
					</g>
				</g>
				<g id="&lt;Group&gt;">
					<g id="&lt;Group&gt;">
						<g id="&lt;Group&gt;">
							<path id="&lt;Path&gt;" class="s4" d="m956.6 378.9q3.1 8.8 3.3 9.7 0.2 1 0 21.5l-18.6 25c-10.1 0.9-83.7-9.1-99.8-19.9-16.6-11-15.8-26.3-10.4-34.9 5.1-8.4 16.4-9.1 22-8.9q5.7 0.3 26.3 8.9l73.6-1z"/>
						</g>
					</g>
					<g id="&lt;Group&gt;">
						<g id="&lt;Group&gt;">
							<g id="&lt;Group&gt;">
								<g id="&lt;Group&gt;">
									<g id="&lt;Group&gt;">
										<g id="&lt;Group&gt;">
											<g id="&lt;Group&gt;">
												<g id="&lt;Group&gt;">
													<g id="&lt;Group&gt;">
														<g id="&lt;Group&gt;">
															<g id="&lt;Group&gt;">
																<g id="&lt;Group&gt;">
																	<g id="&lt;Group&gt;">
																		<g id="&lt;Group&gt;">
																			<g id="&lt;Group&gt;">
																				<path id="&lt;Path&gt;" class="s6" d="m917.5 437.6l-24.8 8.1q-0.1 27.9-4.6 29.8l-17.3-47.5 38.1-14.2z"/>
																			</g>
																		</g>
																	</g>
																</g>
															</g>
														</g>
													</g>
												</g>
											</g>
										</g>
									</g>
								</g>
							</g>
							<g id="&lt;Group&gt;" style="opacity: .6">
								<g id="&lt;Group&gt;">
									<g id="&lt;Group&gt;">
										<g id="&lt;Group&gt;">
											<g id="&lt;Group&gt;">
												<g id="&lt;Group&gt;">
													<g id="&lt;Group&gt;">
														<g id="&lt;Group&gt;">
															<g id="&lt;Group&gt;">
																<g id="&lt;Group&gt;">
																	<g id="&lt;Group&gt;">
																		<g id="&lt;Group&gt;">
																			<g id="&lt;Group&gt;">
																				<g id="&lt;Group&gt;">
																					<path id="&lt;Path&gt;" class="s0" d="m889.3 430.1c0.7 0.6 0.5 2.2-0.3 2.8-0.8 0.7-2.3 0.3-2.9-0.5-0.5-0.9-0.3-2.2 0.6-2.7 0.8-0.6 2.1-0.3 2.7 0.5"/>
																				</g>
																			</g>
																		</g>
																	</g>
																</g>
															</g>
														</g>
													</g>
												</g>
											</g>
										</g>
									</g>
								</g>
							</g>
							<g id="&lt;Group&gt;">
								<g id="&lt;Group&gt;">
									<g id="&lt;Group&gt;">
										<g id="&lt;Group&gt;">
											<g id="&lt;Group&gt;">
												<g id="&lt;Group&gt;">
													<g id="&lt;Group&gt;">
														<g id="&lt;Group&gt;">
															<g id="&lt;Group&gt;">
																<g id="&lt;Group&gt;">
																	<g id="&lt;Group&gt;">
																		<g id="&lt;Group&gt;">
																			<g id="&lt;Group&gt;">
																				<path id="&lt;Path&gt;" class="s4" d="m870.8 428l3.8-1.4 15.3 46.2q-0.2 2.4-1.8 2.7z"/>
																			</g>
																		</g>
																	</g>
																</g>
															</g>
														</g>
													</g>
												</g>
											</g>
										</g>
									</g>
								</g>
							</g>
							<g id="&lt;Group&gt;">
								<g id="&lt;Group&gt;">
									<g id="&lt;Group&gt;">
										<g id="&lt;Group&gt;">
											<g id="&lt;Group&gt;">
												<g id="&lt;Group&gt;">
													<g id="&lt;Group&gt;">
														<g id="&lt;Group&gt;">
															<g id="&lt;Group&gt;">
																<g id="&lt;Group&gt;">
																	<g id="&lt;Group&gt;">
																		<g id="&lt;Group&gt;">
																			<g id="&lt;Group&gt;">
																				<g id="&lt;Group&gt;">
																					<path id="&lt;Path&gt;" class="s4" d="m893.2 446.4c-0.2 0-0.7-1.1-1.9-2-1.1-0.9-2.4-1.1-2.3-1.3-0.1-0.3 1.4-0.4 2.8 0.7 1.4 1 1.7 2.5 1.4 2.6z"/>
																				</g>
																			</g>
																		</g>
																	</g>
																</g>
															</g>
														</g>
													</g>
												</g>
											</g>
										</g>
									</g>
								</g>
							</g>
							<g id="&lt;Group&gt;">
								<g id="&lt;Group&gt;">
									<g id="&lt;Group&gt;">
										<g id="&lt;Group&gt;">
											<g id="&lt;Group&gt;">
												<g id="&lt;Group&gt;">
													<g id="&lt;Group&gt;">
														<g id="&lt;Group&gt;">
															<g id="&lt;Group&gt;">
																<g id="&lt;Group&gt;">
																	<g id="&lt;Group&gt;">
																		<g id="&lt;Group&gt;">
																			<g id="&lt;Group&gt;">
																				<g id="&lt;Group&gt;">
																					<path id="&lt;Path&gt;" class="s4" d="m893 452.1c-0.2 0.1-1-0.7-2.2-1.2-1.3-0.4-2.4-0.2-2.5-0.5-0.1-0.2 1.2-0.8 2.7-0.3 1.6 0.6 2.2 1.9 2 2z"/>
																				</g>
																			</g>
																		</g>
																	</g>
																</g>
															</g>
														</g>
													</g>
												</g>
											</g>
										</g>
									</g>
								</g>
							</g>
							<g id="&lt;Group&gt;">
								<g id="&lt;Group&gt;">
									<g id="&lt;Group&gt;">
										<g id="&lt;Group&gt;">
											<g id="&lt;Group&gt;">
												<g id="&lt;Group&gt;">
													<g id="&lt;Group&gt;">
														<g id="&lt;Group&gt;">
															<g id="&lt;Group&gt;">
																<g id="&lt;Group&gt;">
																	<g id="&lt;Group&gt;">
																		<g id="&lt;Group&gt;">
																			<g id="&lt;Group&gt;">
																				<g id="&lt;Group&gt;">
																					<path id="&lt;Path&gt;" class="s4" d="m888.1 457.1c-0.2-0.2 0.9-0.9 2.4-0.8 1.5 0.1 2.4 1 2.2 1.2-0.1 0.2-1.1-0.3-2.3-0.3-1.2-0.2-2.2 0.1-2.3-0.1z"/>
																				</g>
																			</g>
																		</g>
																	</g>
																</g>
															</g>
														</g>
													</g>
												</g>
											</g>
										</g>
									</g>
								</g>
							</g>
							<g id="&lt;Group&gt;">
								<g id="&lt;Group&gt;">
									<g id="&lt;Group&gt;">
										<g id="&lt;Group&gt;">
											<g id="&lt;Group&gt;">
												<g id="&lt;Group&gt;">
													<g id="&lt;Group&gt;">
														<g id="&lt;Group&gt;">
															<g id="&lt;Group&gt;">
																<g id="&lt;Group&gt;">
																	<g id="&lt;Group&gt;">
																		<g id="&lt;Group&gt;">
																			<g id="&lt;Group&gt;">
																				<g id="&lt;Group&gt;">
																					<path id="&lt;Path&gt;" class="s4" d="m898.7 443.9c-0.3 0-0.3-1.2-0.9-2.5-0.5-1.3-1.4-2.1-1.2-2.3 0.1-0.2 1.3 0.5 2 2 0.7 1.5 0.3 2.8 0.1 2.8z"/>
																				</g>
																			</g>
																		</g>
																	</g>
																</g>
															</g>
														</g>
													</g>
												</g>
											</g>
										</g>
									</g>
								</g>
							</g>
							<g id="&lt;Group&gt;">
								<g id="&lt;Group&gt;">
									<g id="&lt;Group&gt;">
										<g id="&lt;Group&gt;">
											<g id="&lt;Group&gt;">
												<g id="&lt;Group&gt;">
													<g id="&lt;Group&gt;">
														<g id="&lt;Group&gt;">
															<g id="&lt;Group&gt;">
																<g id="&lt;Group&gt;">
																	<g id="&lt;Group&gt;">
																		<g id="&lt;Group&gt;">
																			<g id="&lt;Group&gt;">
																				<g id="&lt;Group&gt;">
																					<path id="&lt;Path&gt;" class="s4" d="m903.9 440.7c-0.1 0-0.6-0.8-0.8-2.4-0.2-0.8-0.3-1.7-0.2-2.8q0.1-0.7 0.2-1.6c0.1-0.3 0.1-0.6 0.3-0.9 0.2-0.4 0.7-0.7 1.2-0.6 0.5 0.1 0.8 0.5 0.9 0.9 0.2 0.3 0.2 0.6 0.2 0.9q0.1 0.9 0.1 1.7c-0.1 1-0.4 1.9-0.7 2.7-0.6 1.5-1.3 2.1-1.4 2.1-0.1-0.1 0.4-0.9 0.9-2.3 0.2-0.7 0.3-1.6 0.4-2.6q0-0.7-0.1-1.5c-0.1-0.6-0.2-1-0.5-1-0.1-0.1-0.1 0-0.2 0.1-0.1 0.2-0.2 0.4-0.2 0.7q-0.2 0.8-0.3 1.5c-0.1 1-0.1 1.9 0 2.6 0.1 1.5 0.3 2.5 0.2 2.5z"/>
																				</g>
																			</g>
																		</g>
																	</g>
																</g>
															</g>
														</g>
													</g>
												</g>
											</g>
										</g>
									</g>
								</g>
							</g>
							<g id="&lt;Group&gt;">
								<g id="&lt;Group&gt;">
									<g id="&lt;Group&gt;">
										<g id="&lt;Group&gt;">
											<g id="&lt;Group&gt;">
												<g id="&lt;Group&gt;">
													<g id="&lt;Group&gt;">
														<g id="&lt;Group&gt;">
															<g id="&lt;Group&gt;">
																<g id="&lt;Group&gt;">
																	<g id="&lt;Group&gt;">
																		<g id="&lt;Group&gt;">
																			<g id="&lt;Group&gt;">
																				<g id="&lt;Group&gt;">
																					<path id="&lt;Path&gt;" class="s4" d="m903.5 440.5c-0.1-0.1 0.6-0.8 2-1.5 0.8-0.3 1.7-0.5 2.8-0.6q0.8 0 1.6 0.1c0.6 0.1 1.4 0.2 1.8 1.1 0.2 0.4 0 1-0.3 1.2-0.3 0.3-0.5 0.4-0.8 0.6q-0.8 0.4-1.6 0.6c-1.1 0.2-2.1 0.1-2.8-0.2-1.6-0.4-2.2-1.3-2.2-1.3 0.1-0.2 0.9 0.5 2.3 0.8 0.7 0.1 1.6 0.1 2.5-0.1q0.7-0.2 1.4-0.6c0.5-0.2 0.8-0.6 0.7-0.7-0.1-0.3-0.6-0.5-1.1-0.6q-0.8-0.1-1.5-0.1c-1 0-1.8 0.2-2.6 0.4-1.4 0.5-2.2 1-2.2 0.9z"/>
																				</g>
																			</g>
																		</g>
																	</g>
																</g>
															</g>
														</g>
													</g>
												</g>
											</g>
										</g>
									</g>
								</g>
							</g>
						</g>
					</g>
					<g id="&lt;Group&gt;">
						<g id="&lt;Group&gt;">
							<g id="&lt;Group&gt;">
								<g id="&lt;Group&gt;">
									<g id="&lt;Group&gt;">
										<g id="&lt;Group&gt;">
											<g id="&lt;Group&gt;">
												<g id="&lt;Group&gt;">
													<g id="&lt;Group&gt;">
														<g id="&lt;Group&gt;">
															<g id="&lt;Group&gt;">
																<g id="&lt;Group&gt;">
																	<g id="&lt;Group&gt;">
																		<g id="&lt;Group&gt;">
																			<g id="&lt;Group&gt;">
																				<path id="&lt;Path&gt;" class="s6" d="m940.4 408l36.9 17.1-21.1 46q-4.3-2.3-2.2-30.1l-24.1-10z"/>
																			</g>
																		</g>
																	</g>
																</g>
															</g>
														</g>
													</g>
												</g>
											</g>
										</g>
									</g>
								</g>
							</g>
							<g id="&lt;Group&gt;" style="opacity: .6">
								<g id="&lt;Group&gt;">
									<g id="&lt;Group&gt;">
										<g id="&lt;Group&gt;">
											<g id="&lt;Group&gt;">
												<g id="&lt;Group&gt;">
													<g id="&lt;Group&gt;">
														<g id="&lt;Group&gt;">
															<g id="&lt;Group&gt;">
																<g id="&lt;Group&gt;">
																	<g id="&lt;Group&gt;">
																		<g id="&lt;Group&gt;">
																			<g id="&lt;Group&gt;">
																				<g id="&lt;Group&gt;">
																					<path id="&lt;Path&gt;" class="s0" d="m958.5 425.8c0.7-0.7 1.9-0.9 2.8-0.3 0.8 0.6 0.9 1.9 0.3 2.7-0.6 0.8-2.2 1.1-2.9 0.4-0.7-0.8-0.9-2.3-0.1-2.9"/>
																				</g>
																			</g>
																		</g>
																	</g>
																</g>
															</g>
														</g>
													</g>
												</g>
											</g>
										</g>
									</g>
								</g>
							</g>
							<g id="&lt;Group&gt;">
								<g id="&lt;Group&gt;">
									<g id="&lt;Group&gt;">
										<g id="&lt;Group&gt;">
											<g id="&lt;Group&gt;">
												<g id="&lt;Group&gt;">
													<g id="&lt;Group&gt;">
														<g id="&lt;Group&gt;">
															<g id="&lt;Group&gt;">
																<g id="&lt;Group&gt;">
																	<g id="&lt;Group&gt;">
																		<g id="&lt;Group&gt;">
																			<g id="&lt;Group&gt;">
																				<path id="&lt;Path&gt;" class="s4" d="m956.2 471.1q-1.6-0.4-1.5-2.9l18.8-44.8 3.8 1.7z"/>
																			</g>
																		</g>
																	</g>
																</g>
															</g>
														</g>
													</g>
												</g>
											</g>
										</g>
									</g>
								</g>
							</g>
							<g id="&lt;Group&gt;">
								<g id="&lt;Group&gt;">
									<g id="&lt;Group&gt;">
										<g id="&lt;Group&gt;">
											<g id="&lt;Group&gt;">
												<g id="&lt;Group&gt;">
													<g id="&lt;Group&gt;">
														<g id="&lt;Group&gt;">
															<g id="&lt;Group&gt;">
																<g id="&lt;Group&gt;">
																	<g id="&lt;Group&gt;">
																		<g id="&lt;Group&gt;">
																			<g id="&lt;Group&gt;">
																				<g id="&lt;Group&gt;">
																					<path id="&lt;Path&gt;" class="s4" d="m955 439.1c1.5-0.9 3-0.6 2.9-0.4 0 0.2-1.2 0.4-2.4 1.2-1.2 0.7-1.9 1.8-2.1 1.7-0.2 0 0.1-1.5 1.6-2.5z"/>
																				</g>
																			</g>
																		</g>
																	</g>
																</g>
															</g>
														</g>
													</g>
												</g>
											</g>
										</g>
									</g>
								</g>
							</g>
							<g id="&lt;Group&gt;">
								<g id="&lt;Group&gt;">
									<g id="&lt;Group&gt;">
										<g id="&lt;Group&gt;">
											<g id="&lt;Group&gt;">
												<g id="&lt;Group&gt;">
													<g id="&lt;Group&gt;">
														<g id="&lt;Group&gt;">
															<g id="&lt;Group&gt;">
																<g id="&lt;Group&gt;">
																	<g id="&lt;Group&gt;">
																		<g id="&lt;Group&gt;">
																			<g id="&lt;Group&gt;">
																				<g id="&lt;Group&gt;">
																					<path id="&lt;Path&gt;" class="s4" d="m955.3 445.5c1.6-0.4 2.9 0.4 2.7 0.6-0.1 0.2-1.2-0.1-2.5 0.3-1.3 0.3-2.1 1.1-2.3 1-0.2-0.1 0.5-1.4 2.1-1.9z"/>
																				</g>
																			</g>
																		</g>
																	</g>
																</g>
															</g>
														</g>
													</g>
												</g>
											</g>
										</g>
									</g>
								</g>
							</g>
							<g id="&lt;Group&gt;">
								<g id="&lt;Group&gt;">
									<g id="&lt;Group&gt;">
										<g id="&lt;Group&gt;">
											<g id="&lt;Group&gt;">
												<g id="&lt;Group&gt;">
													<g id="&lt;Group&gt;">
														<g id="&lt;Group&gt;">
															<g id="&lt;Group&gt;">
																<g id="&lt;Group&gt;">
																	<g id="&lt;Group&gt;">
																		<g id="&lt;Group&gt;">
																			<g id="&lt;Group&gt;">
																				<g id="&lt;Group&gt;">
																					<path id="&lt;Path&gt;" class="s4" d="m955.4 452.6c-1.2 0-2.2 0.4-2.3 0.2-0.2-0.2 0.8-1.1 2.3-1.1 1.5 0 2.5 0.9 2.3 1-0.1 0.3-1.1-0.1-2.3-0.1z"/>
																				</g>
																			</g>
																		</g>
																	</g>
																</g>
															</g>
														</g>
													</g>
												</g>
											</g>
										</g>
									</g>
								</g>
							</g>
							<g id="&lt;Group&gt;">
								<g id="&lt;Group&gt;">
									<g id="&lt;Group&gt;">
										<g id="&lt;Group&gt;">
											<g id="&lt;Group&gt;">
												<g id="&lt;Group&gt;">
													<g id="&lt;Group&gt;">
														<g id="&lt;Group&gt;">
															<g id="&lt;Group&gt;">
																<g id="&lt;Group&gt;">
																	<g id="&lt;Group&gt;">
																		<g id="&lt;Group&gt;">
																			<g id="&lt;Group&gt;">
																				<g id="&lt;Group&gt;">
																					<path id="&lt;Path&gt;" class="s4" d="m948.5 435.9c0.8-1.4 2-2 2.1-1.8 0.2 0.2-0.7 1-1.3 2.2-0.7 1.3-0.9 2.4-1.1 2.4-0.2 0.1-0.5-1.3 0.3-2.8z"/>
																				</g>
																			</g>
																		</g>
																	</g>
																</g>
															</g>
														</g>
													</g>
												</g>
											</g>
										</g>
									</g>
								</g>
							</g>
							<g id="&lt;Group&gt;">
								<g id="&lt;Group&gt;">
									<g id="&lt;Group&gt;">
										<g id="&lt;Group&gt;">
											<g id="&lt;Group&gt;">
												<g id="&lt;Group&gt;">
													<g id="&lt;Group&gt;">
														<g id="&lt;Group&gt;">
															<g id="&lt;Group&gt;">
																<g id="&lt;Group&gt;">
																	<g id="&lt;Group&gt;">
																		<g id="&lt;Group&gt;">
																			<g id="&lt;Group&gt;">
																				<g id="&lt;Group&gt;">
																					<path id="&lt;Path&gt;" class="s4" d="m943.7 432.7c0.1-0.7 0.2-1.6 0.1-2.6q0-0.8-0.1-1.6c0-0.2-0.1-0.5-0.2-0.6-0.1-0.2-0.1-0.2-0.2-0.2-0.3 0-0.5 0.4-0.6 1q-0.1 0.7-0.2 1.5c0 1 0.1 1.8 0.3 2.6 0.3 1.4 0.7 2.3 0.6 2.3 0 0.1-0.7-0.7-1.2-2.2-0.3-0.7-0.4-1.7-0.4-2.7q0-0.8 0.1-1.7c0.1-0.3 0.1-0.6 0.3-0.9 0.2-0.3 0.5-0.7 1-0.8 0.5-0.1 1 0.3 1.1 0.7 0.2 0.3 0.2 0.7 0.2 0.9q0.1 0.9 0.1 1.7c0 1-0.1 2-0.3 2.7-0.4 1.6-1 2.4-1.1 2.3-0.1 0 0.2-0.9 0.5-2.4z"/>
																				</g>
																			</g>
																		</g>
																	</g>
																</g>
															</g>
														</g>
													</g>
												</g>
											</g>
										</g>
									</g>
								</g>
							</g>
							<g id="&lt;Group&gt;">
								<g id="&lt;Group&gt;">
									<g id="&lt;Group&gt;">
										<g id="&lt;Group&gt;">
											<g id="&lt;Group&gt;">
												<g id="&lt;Group&gt;">
													<g id="&lt;Group&gt;">
														<g id="&lt;Group&gt;">
															<g id="&lt;Group&gt;">
																<g id="&lt;Group&gt;">
																	<g id="&lt;Group&gt;">
																		<g id="&lt;Group&gt;">
																			<g id="&lt;Group&gt;">
																				<g id="&lt;Group&gt;">
																					<path id="&lt;Path&gt;" class="s4" d="m941.5 433.9c-0.7-0.3-1.6-0.5-2.5-0.6q-0.8-0.1-1.5 0c-0.5 0-1.1 0.2-1.2 0.5-0.1 0.1 0.2 0.5 0.7 0.8q0.6 0.4 1.3 0.6c0.9 0.3 1.8 0.4 2.5 0.3 1.4-0.2 2.2-0.7 2.3-0.6 0.1 0-0.6 0.8-2.2 1.2-0.8 0.2-1.8 0.2-2.9-0.1q-0.7-0.2-1.5-0.7c-0.2-0.2-0.5-0.3-0.7-0.6-0.3-0.3-0.5-0.8-0.2-1.3 0.5-0.8 1.2-0.9 1.8-0.9q0.9-0.1 1.7 0c1 0.2 1.9 0.5 2.6 0.9 1.4 0.7 2.1 1.5 2 1.6-0.1 0.1-0.8-0.5-2.2-1.1z"/>
																				</g>
																			</g>
																		</g>
																	</g>
																</g>
															</g>
														</g>
													</g>
												</g>
											</g>
										</g>
									</g>
								</g>
							</g>
						</g>
					</g>
					<g id="&lt;Group&gt;">
						<g id="&lt;Group&gt;">
							<path id="&lt;Path&gt;" class="s4" d="m956.6 378.9q31.8-11.9 43.5-10.3c6.5 0.8 16.8 5.8 17.5 14.2 0.8 8.4-1.2 19.6-12.5 25.1-11.3 5.4-56.5 25.7-67.2 28.8q-10.7 3.1-37.5 10.4l-10.1-28.9q55.4-19.2 58.3-21.4 3-2.1 10.4-5z"/>
						</g>
					</g>
					<g id="&lt;Group&gt;">
						<g id="&lt;Group&gt;">
							<g id="&lt;Group&gt;">
								<path id="&lt;Path&gt;" class="s5" d="m846.3 382.7q0.3 0 0.7-0.2 0.8-0.3 2.4-0.7c1.1-0.3 2.5-0.6 4-0.8 1.6-0.2 3.4-0.2 5.4 0 2 0.1 4.2 0.5 6.4 1.2 1.2 0.3 2.3 0.7 3.5 1.3q1.6 0.8 3.4 1.6c4.8 2.3 10.1 4.6 15.7 6.8 11.3 4.6 22.2 6.8 29.9 8.6 3.9 0.9 7 1.6 9.2 2.2q1.6 0.4 2.5 0.6 0.4 0.1 0.6 0.2 0.2 0.1 0.2 0.1 0 0-0.2-0.1-0.3 0-0.7-0.1-0.9-0.2-2.5-0.6c-2.1-0.5-5.3-1.2-9.2-2.1-7.7-1.7-18.6-3.9-29.9-8.4-5.7-2.3-11-4.6-15.7-6.9q-1.8-0.8-3.5-1.7c-1.1-0.5-2.2-0.9-3.3-1.3-2.3-0.6-4.4-1-6.4-1.2-2-0.1-3.8-0.1-5.3 0-1.6 0.2-2.9 0.5-4 0.7q-1.7 0.4-2.5 0.7-0.4 0.1-0.6 0.2-0.3 0-0.3 0 0 0 0.2-0.1z"/>
							</g>
						</g>
					</g>
					<g id="&lt;Group&gt;">
						<g id="&lt;Group&gt;">
							<g id="&lt;Group&gt;">
								<path id="&lt;Path&gt;" class="s5" d="m848.5 378.4q0.6-0.1 1.8-0.3c1.6-0.2 3.7-0.4 6.2-0.3 2.4 0.2 4.5 0.6 6 0.9q1.2 0.3 1.8 0.6 0.7 0.2 0.7 0.2c0 0.1-1-0.2-2.5-0.5-1.5-0.4-3.7-0.7-6.1-0.8-2.3-0.1-4.5 0-6.1 0.2-1.5 0.1-2.5 0.3-2.5 0.2q0 0 0.7-0.2z"/>
							</g>
						</g>
					</g>
					<g id="&lt;Group&gt;">
						<g id="&lt;Group&gt;">
							<g id="&lt;Group&gt;">
								<path id="&lt;Path&gt;" class="s5" d="m970.6 386.8q0.6-0.5 1.7-1.3c1.5-1 3.7-2.2 6.3-3.1 2.6-0.9 5.1-1.4 6.9-1.5q1.3-0.2 2.1-0.1 0.8 0 0.8 0c0 0.1-1.1 0.1-2.9 0.3-1.8 0.2-4.2 0.7-6.8 1.6-2.6 0.9-4.7 2.1-6.3 3-1.5 1-2.4 1.6-2.4 1.6q0 0 0.6-0.5z"/>
							</g>
						</g>
					</g>
					<g id="&lt;Group&gt;">
						<g id="&lt;Group&gt;">
							<g id="&lt;Group&gt;">
								<path id="&lt;Path&gt;" class="s5" d="m953.8 430.6q-0.2 0.1-0.7 0.3c-0.6 0.3-1.6 0.7-2.8 1.2-2.5 1-6.1 2.4-10.8 4-9.4 3.1-22.9 7.1-39 11.2h-0.2v-0.1c-3-8.4-6.3-17.6-9.9-27.3v-0.2h0.1c3.9-1.6 8-3.3 12.2-5 26.8-11 51-20.9 67.4-27.6h-0.1c2.8-2.9 5.3-5.4 7.7-7.5 2.4-2 4.6-3.6 6.5-4.8 1.8-1.1 3.4-1.9 4.4-2.4q0.8-0.3 1.2-0.5 0.2-0.1 0.4-0.2-0.1 0.1-0.4 0.2-0.4 0.2-1.2 0.6c-1 0.5-2.5 1.2-4.4 2.4-1.8 1.2-4 2.8-6.4 4.8-2.3 2.1-4.9 4.7-7.6 7.6-16.4 6.7-40.5 16.7-67.4 27.7-4.1 1.7-8.2 3.4-12.1 5l0.1-0.2c3.5 9.7 6.8 18.9 9.8 27.3l-0.2-0.1c16.2-4.1 29.7-8 39-11.1 4.7-1.5 8.4-2.9 10.9-3.9 1.2-0.4 2.1-0.9 2.8-1.1q0.4-0.2 0.7-0.3 0.2-0.1 0.2-0.1 0 0-0.2 0.1z"/>
							</g>
						</g>
					</g>
				</g>
				<g id="&lt;Group&gt;">
					<g id="&lt;Group&gt;">
						<g id="&lt;Group&gt;">
							<path id="&lt;Path&gt;" class="s6" d="m882.7 330.9l-1.6 15.9 16.4 23.6-4.9 12.6-17.3-5.6q-12.2-4.2-16.3-7.3c-4-3.2-6.9-10.1-5.5-19.7 1.3-9.5 9.9-57.6 11-61.3q1.8-6.2 11-11.5z"/>
						</g>
					</g>
					<g id="&lt;Group&gt;">
						<g id="&lt;Group&gt;">
							<path id="&lt;Path&gt;" class="s6" d="m893.5 269.3l5.7-4.2q7.4 7.6 16 6.7 8.5-0.9 13.6-7.4l25.4 5.1c1.7 0.4 4.8 1.5 7.8 5.7q3.4 4.8 19.1 25.8h11.1c3 0 5.8 1.7 7.2 4.4 1.9 3.6 4.1 8.4 3.9 10.4-0.3 3.3 0.3 12.6-4.2 15.5-1.4 0.9-6.5 3.6-10.5 3.4-5.9-0.3-12.7-3.3-16.6-6-3.3-2.4-11-10.4-14-13.5l-1.9 66.9-66.8-2-13.8-102.5q17.3-8.3 18-8.3z"/>
						</g>
					</g>
					<g id="&lt;Group&gt;">
						<g id="&lt;Group&gt;">
							<g id="&lt;Group&gt;">
								<ellipse id="&lt;Path&gt;" class="s4" cx="958" cy="305.7" rx=".3" ry="18.5"/>
							</g>
						</g>
					</g>
					<g id="&lt;Group&gt;">
						<g id="&lt;Group&gt;">
							<g id="&lt;Group&gt;">
								<path id="&lt;Path&gt;" class="s4" d="m867.8 341.2c0.3 0.1 0.7 0.1 1.2 0.2 1 0.1 2.5 0.5 4.2 1.2 1.7 0.7 3.7 1.8 5.6 3.3 2 1.5 3.9 3.3 5.9 5.4 1.9 2 3.6 4.1 5.2 5.9 1.7 1.8 3.2 3.4 4.5 4.7 1.4 1.2 2.5 2.2 3.4 2.8 0.4 0.3 0.7 0.5 0.9 0.7q0.3 0.2 0.3 0.2 0 0-0.3-0.2c-0.2-0.1-0.6-0.3-1-0.6-0.9-0.6-2.1-1.5-3.4-2.8-1.4-1.2-3-2.8-4.6-4.6-1.6-1.8-3.4-3.8-5.3-5.9-1.9-2.1-3.9-3.9-5.8-5.4-1.9-1.4-3.8-2.6-5.5-3.3-1.7-0.7-3.1-1.1-4.1-1.3-1-0.2-1.6-0.3-1.6-0.3q0 0 0.4 0z"/>
							</g>
						</g>
					</g>
					<g id="&lt;Group&gt;">
						<g id="&lt;Group&gt;">
							<g id="&lt;Group&gt;">
								<path id="&lt;Path&gt;" class="s4" d="m866.6 336.7q0.7 0.1 2 0.4c1.6 0.4 3.8 1.2 6 2.5 2.2 1.3 3.9 2.8 5 4.1q0.8 0.9 1.2 1.5 0.5 0.6 0.4 0.6c0 0.1-0.6-0.8-1.8-2-1.1-1.2-2.8-2.7-5-4-2.2-1.2-4.3-2-5.9-2.5-1.6-0.4-2.6-0.6-2.6-0.6q0-0.1 0.7 0z"/>
							</g>
						</g>
					</g>
					<g id="&lt;Group&gt;" style="opacity: .3">
						<g id="&lt;Group&gt;">
							<g id="&lt;Group&gt;">
								<path id="&lt;Path&gt;" class="s7" d="m990.2 325c-3.6 0.9-7.8-4.2-11-7.4-1.7-1.6-3.4-3.4-4-5.6-0.5-1.9-0.2-3.9 0.5-5.7 0.8-1.8 1.3-3 2.4-4.6-0.3 2.7-1 6.9-0.1 10.4 0.8 2.9 2.6 5.2 4.5 7.3 2.1 2.3 4.5 4.7 7.7 5.6z"/>
							</g>
						</g>
					</g>
					<g id="&lt;Group&gt;">
						<g id="&lt;Group&gt;">
							<g id="&lt;Group&gt;">
								<path id="&lt;Path&gt;" class="s4" d="m974.8 321.3q-0.2-0.4-0.3-1c-0.1-0.4-0.3-0.8-0.3-1.3-0.3-1-0.4-2.1-0.5-3.4 0-1.3 0.1-2.8 0.3-4.2 0.2-1.5 0.6-2.9 1.1-4.1 0.4-1.3 0.9-2.3 1.4-3.2 0.2-0.4 0.5-0.8 0.7-1.1q0.3-0.5 0.6-0.8 0.5-0.7 0.5-0.7c0.1 0.1-0.7 1-1.6 2.7-0.4 0.9-0.9 2-1.3 3.2-0.4 1.2-0.8 2.5-1.1 4-0.2 1.5-0.2 2.9-0.2 4.2 0 1.3 0.1 2.4 0.3 3.4 0.3 1.9 0.7 3 0.7 3q-0.1 0-0.3-0.7z"/>
							</g>
						</g>
					</g>
					<g id="&lt;Group&gt;">
						<g id="&lt;Group&gt;">
							<g id="&lt;Group&gt;">
								<path id="&lt;Path&gt;" class="s4" d="m927.8 268c0.8 0.7 1.3 1.6 1.2 1.6-0.1 0.1-0.6-0.7-1.5-1.4-0.8-0.7-1.6-1.2-1.5-1.3 0 0 0.9 0.3 1.8 1.1z"/>
							</g>
						</g>
					</g>
					<g id="&lt;Group&gt;">
						<g id="&lt;Group&gt;">
							<g id="&lt;Group&gt;">
								<path id="&lt;Path&gt;" class="s4" d="m920.5 272.7c0.6 1.1 0.6 2.1 0.5 2.1-0.1 0.1-0.3-0.9-0.8-2-0.6-1-1.2-1.8-1.2-1.8 0.1-0.1 0.9 0.6 1.5 1.7z"/>
							</g>
						</g>
					</g>
					<g id="&lt;Group&gt;">
						<g id="&lt;Group&gt;">
							<g id="&lt;Group&gt;">
								<path id="&lt;Path&gt;" class="s4" d="m907.6 273.1c0.4-1.2 0.9-2 1-1.9 0.1 0-0.3 0.9-0.7 2-0.4 1.1-0.7 2-0.8 2-0.1-0.1 0.1-1 0.5-2.1z"/>
							</g>
						</g>
					</g>
					<g id="&lt;Group&gt;">
						<g id="&lt;Group&gt;">
							<g id="&lt;Group&gt;">
								<path id="&lt;Path&gt;" class="s4" d="m900.3 269c0.8-1.3 1.8-2 1.9-1.9 0 0.1-0.9 0.8-1.6 2.1-0.8 1.2-1 2.4-1.1 2.3-0.1 0 0-1.2 0.8-2.5z"/>
							</g>
						</g>
					</g>
					<g id="&lt;Group&gt;">
						<g id="&lt;Group&gt;">
							<g id="&lt;Group&gt;">
								<path id="&lt;Path&gt;" class="s4" d="m880.3 313.5c1.5 11.3 2.7 20.4 2.6 20.4-0.1 0-1.4-9.1-2.9-20.3-1.5-11.3-2.6-20.4-2.5-20.4 0.1 0 1.4 9.1 2.8 20.3z"/>
							</g>
						</g>
					</g>
				</g>
				<g id="&lt;Group&gt;">
					<g id="&lt;Group&gt;">
						<g id="&lt;Group&gt;">
							<path id="&lt;Path&gt;" class="s4" d="m978.3 311.4c0.2 1 0.7 2.2 1.3 3.5 0.7 1.2 1.5 2.6 2.5 3.9 1 1.3 2.1 2.4 3.1 3.3 1.2 0.9 2.2 1.6 3.2 2 2 0.9 3.4 0.9 3.3 1q0 0.1-0.9 0-0.2-0.1-0.5-0.1-0.3-0.1-0.6-0.2-0.3-0.1-0.7-0.2-0.3-0.1-0.7-0.3c-1-0.3-2.1-1.1-3.3-1.9-1.1-0.9-2.2-2.1-3.2-3.4-1-1.3-1.8-2.7-2.5-4-0.6-1.3-1-2.5-1.3-3.6q-0.1-0.4-0.2-0.7 0-0.4-0.1-0.7-0.1-0.6-0.1-1.1-0.1-0.9 0-0.9c0 0 0.1 1.3 0.7 3.4z"/>
						</g>
					</g>
				</g>
				<g id="&lt;Group&gt;">
					<g id="&lt;Group&gt;">
						<g id="&lt;Group&gt;" style="opacity: .3">
							<g id="&lt;Group&gt;">
								<g id="&lt;Group&gt;">
									<path id="&lt;Path&gt;" class="s7" d="m879.6 384.3c-2.8-1.3-3.4-5-3.7-8.1q-1.3-13.8-2.6-27.6c-0.4-4.3-0.6-9.2 2.5-12.3 2.8-2.8 7.2-3 11.1-3 24.5 0.1 46 0.8 70.5 0.9l-1.3 42.7z"/>
								</g>
							</g>
						</g>
						<g id="&lt;Group&gt;">
							<g id="&lt;Group&gt;">
								<g id="&lt;Group&gt;">
									<path id="&lt;Path&gt;" class="s2" d="m967.9 340.8l-2.6 49.6c-0.1 1.9-1.7 3.4-3.6 3.4l-79 0.1c-1.9 0-3.5-1.5-3.6-3.4l-3-48.7c-0.1-2.1 1.3-4.7 3.4-4.8h84.7c2.1 0 3.8 1.7 3.7 3.8z"/>
								</g>
							</g>
							<g id="&lt;Group&gt;">
								<g id="&lt;Group&gt;">
									<g id="&lt;Group&gt;">
										<path id="&lt;Path&gt;" class="s4" d="m967.9 340.1c-0.1-0.5-0.3-1.2-1-1.9-0.3-0.4-0.7-0.7-1.3-0.9-0.5-0.2-1.2-0.3-1.9-0.2q-2.1 0-4.8 0c-7.2 0-17.7 0-30.6 0-12.9 0-28.3 0.1-45.3 0.1q-1.6 0-3.3 0c-1-0.1-2 0.6-2.5 1.4-0.6 0.9-1 2-1 3q0.1 1.7 0.2 3.4 0.4 6.7 0.9 13.6c0.5 9.3 1.1 18.9 1.8 28.7l0.1 1.9c0 0.6 0 1.2 0.1 1.8 0.2 1.1 1.1 2.1 2.2 2.5 0.5 0.2 1.1 0.3 1.7 0.3h1.8q1.8-0.1 3.6-0.1 7.2 0 14.2 0c9.3 0 18.3 0 26.8 0 8.6 0 16.7 0 24.3 0q2.8 0 5.6 0 0.7 0 1.3 0c0.5-0.1 1 0 1.4-0.1 0.8-0.1 1.6-0.5 2.2-1.2 0.5-0.6 0.8-1.5 0.8-2.3q0.1-1.3 0.1-2.6 0.2-2.5 0.3-4.9c0.7-12.9 1.3-23.4 1.7-30.6 0.2-3.6 0.3-6.4 0.4-8.3q0.1-1.4 0.2-2.2 0-0.4 0-0.7 0 0.3 0 0.7 0 0.8-0.1 2.2c-0.1 1.9-0.2 4.7-0.4 8.3-0.4 7.2-0.9 17.7-1.6 30.6q-0.1 2.4-0.2 4.9-0.1 1.3-0.1 2.6c0 0.9-0.3 1.8-0.9 2.5-0.6 0.7-1.5 1.2-2.4 1.3-0.5 0-0.9 0-1.4 0q-0.6 0-1.3 0-2.8 0-5.6 0c-7.6 0.1-15.7 0.1-24.3 0.1-8.5 0-17.5 0-26.8 0.1q-7 0-14.2 0-1.8 0-3.6 0h-1.8c-0.6 0-1.3 0-1.8-0.3-1.2-0.4-2.2-1.5-2.4-2.7-0.1-0.7-0.1-1.3-0.2-1.9l-0.1-1.8c-0.6-9.9-1.2-19.5-1.8-28.8q-0.4-6.9-0.8-13.6-0.1-1.7-0.2-3.3c0-1.2 0.4-2.3 1-3.2 0.3-0.5 0.7-0.9 1.2-1.2 0.5-0.3 1.1-0.5 1.6-0.4q1.6 0 3.2 0c17.1 0 32.5 0 45.4 0 12.9 0 23.4 0 30.6 0.1q2.7 0 4.8 0c0.7 0 1.4 0 1.9 0.2 0.6 0.3 1 0.6 1.4 0.9 0.6 0.7 0.8 1.5 0.9 2q0 0.3 0 0.5 0 0.1 0 0.2c0 0 0-0.2 0-0.7z"/>
									</g>
								</g>
							</g>
						</g>
					</g>
					<g id="&lt;Group&gt;">
						<g id="&lt;Group&gt;">
							<g id="&lt;Group&gt;">
								<circle id="&lt;Path&gt;" class="s0" cx="921.4" cy="365" r="4.7"/>
							</g>
						</g>
						<g id="&lt;Group&gt;">
							<g id="&lt;Group&gt;">
								<g id="&lt;Group&gt;">
									<path id="&lt;Path&gt;" class="s4" d="m916.7 364.7q0-0.3 0.1-0.9c0.2-0.7 0.6-1.8 1.7-2.6 0.6-0.4 1.2-0.8 2-0.9 0.8-0.2 1.7-0.2 2.5 0.2 0.9 0.3 1.7 0.8 2.3 1.6 0.6 0.8 0.9 1.8 0.9 2.9 0 1-0.3 2-0.9 2.8-0.6 0.8-1.4 1.4-2.3 1.7-0.8 0.3-1.7 0.3-2.5 0.2-0.8-0.2-1.4-0.5-2-0.9-1.1-0.9-1.5-1.9-1.7-2.7q-0.1-0.5-0.1-0.8 0-0.3 0.1-0.3c0 0 0 0.4 0.2 1.1 0.2 0.7 0.6 1.7 1.7 2.5 0.5 0.4 1.1 0.7 1.9 0.8 0.7 0.1 1.5 0.1 2.3-0.2 0.8-0.3 1.6-0.8 2.1-1.6 0.6-0.7 0.9-1.6 0.9-2.6 0-1-0.3-1.9-0.9-2.7-0.5-0.7-1.3-1.3-2.1-1.5-0.8-0.3-1.6-0.4-2.3-0.2-0.8 0.1-1.4 0.4-1.9 0.8-1.1 0.8-1.5 1.8-1.7 2.5-0.2 0.7-0.2 1.1-0.2 1.1q-0.1 0-0.1-0.3z"/>
								</g>
							</g>
						</g>
					</g>
					<g id="&lt;Group&gt;">
						<g id="&lt;Group&gt;">
							<g id="&lt;Group&gt;">
								<path id="&lt;Path&gt;" class="s4" d="m964.7 364.9c-0.4 10.3-0.7 18.6-0.8 18.6-0.1 0 0.1-8.3 0.5-18.6 0.4-10.3 0.8-18.6 0.9-18.6 0.1 0-0.2 8.3-0.6 18.6z"/>
							</g>
						</g>
					</g>
				</g>
				<g id="&lt;Group&gt;">
					<g id="&lt;Group&gt;">
						<g id="&lt;Group&gt;">
							<path id="&lt;Path&gt;" class="s8" d="m973.8 281.6l-2.6-5.6q-2.7-11-1.7-14.3 1-3.2 5.9-12.4l15.4 4q2.3 5.7 2.1 8.6-0.1 2.8-5.5 11.5 2.1 7.8 1.6 8.2-7.3 6.2-15.2 0z"/>
						</g>
					</g>
					<g id="&lt;Group&gt;">
						<g id="&lt;Group&gt;">
							<g id="&lt;Group&gt;">
								<path id="&lt;Path&gt;" class="s8" d="m987.4 273.4l-16.3-0.9q-2.3-5.3-1.8-9.2c0.2-1.6 2.7-7.4 4-9.9q1.3-2.6 4-7.2 1.6-6.7 2.6-10.6c1-3.9 1.5-4.8 2.3-5 2.3-0.6 3.2 1.5 2.8 3.8q-0.1 0.6-1.5 12.6 2.2-1.3 4.3 0.1 1.7 1.2 1.3 3.9 1.1-0.5 2.3 0.2 1.1 0.8 0.8 2.7 1-0.4 2.3 0.4c2.2 1.3 1 3.5 0 5.8q-0.9 2.3-1.6 3.5-0.6 1.1-5.5 9.8z"/>
							</g>
						</g>
						<g id="&lt;Group&gt;">
							<g id="&lt;Group&gt;">
								<g id="&lt;Group&gt;">
									<path id="&lt;Path&gt;" class="s9" d="m990.8 256.3q-0.5 0.9-1.2 2c-0.2 0.4-0.5 0.8-0.7 1.2-0.1 0.4-0.2 0.9-0.1 1.4 0.1 0.4 0.4 0.8 0.8 0.9 0.4 0.2 0.8 0.1 1.2-0.1 0.8-0.4 1.4-0.9 2-1.3 1-0.7 1.7-1.2 1.7-1.2q0 0-0.4 0.4-0.4 0.4-1.2 1-0.4 0.4-0.9 0.7c-0.3 0.2-0.7 0.5-1.1 0.7-0.4 0.2-0.9 0.3-1.4 0.2-0.6-0.2-1-0.7-1.1-1.3-0.1-0.5 0-1.1 0.2-1.5 0.2-0.5 0.5-0.9 0.7-1.2q0.7-1.1 1.3-2c0.8-1.1 1.2-1.8 1.3-1.8 0 0.1-0.4 0.8-1.1 1.9z"/>
								</g>
							</g>
						</g>
						<g id="&lt;Group&gt;">
							<g id="&lt;Group&gt;">
								<g id="&lt;Group&gt;">
									<path id="&lt;Path&gt;" class="s9" d="m978 253.4c-0.3-1.4-0.8-2.4-0.7-2.5 0.1 0 0.7 1 1 2.4 0.4 1.4 0.3 2.6 0.2 2.6-0.1 0-0.2-1.2-0.5-2.5z"/>
								</g>
							</g>
						</g>
						<g id="&lt;Group&gt;">
							<g id="&lt;Group&gt;">
								<g id="&lt;Group&gt;">
									<path id="&lt;Path&gt;" class="s8" d="m972 259.4c1.5-1.5 3.4-2.4 5.5-2.9 2-0.4 4.1-0.4 6.2-0.2 1.7 0.1 3.6 0.6 4.3 2 0.8 1.6-0.1 3.5-1.6 4.4-1.5 0.9-3.3 0.9-5 0.8-1.7-0.2-3.5-0.5-5.2-0.2"/>
								</g>
							</g>
							<g id="&lt;Group&gt;">
								<g id="&lt;Group&gt;">
									<g id="&lt;Group&gt;">
										<path id="&lt;Path&gt;" class="s9" d="m976.6 263.2q0.3-0.1 0.9-0.1c0.9 0 2.1 0.1 3.6 0.2 0.7 0.1 1.5 0.1 2.4 0.1 0.8-0.1 1.7-0.2 2.6-0.7 0.8-0.4 1.5-1.2 1.9-2.2 0.1-0.5 0.2-1 0.1-1.5-0.2-0.5-0.4-1-0.8-1.4-0.8-0.7-2-0.9-3-1.1q-1.6-0.2-3.1-0.2c-1.9 0-3.7 0.2-5.1 0.7-1.4 0.5-2.4 1.1-3.1 1.6-0.6 0.4-1 0.8-1 0.8q0-0.1 0.2-0.3 0.3-0.2 0.7-0.6c0.7-0.6 1.7-1.2 3.2-1.7 1.4-0.5 3.2-0.8 5.2-0.8q1.4 0 3.1 0.2c1 0.1 2.2 0.4 3.1 1.2 0.4 0.4 0.8 0.9 0.9 1.5 0.1 0.6 0.1 1.2-0.1 1.7-0.4 1.1-1.2 1.9-2.1 2.4-0.9 0.5-1.8 0.6-2.7 0.7-0.9 0-1.7 0-2.5-0.1-1.5-0.2-2.6-0.4-3.5-0.4-0.8 0-1.3 0.1-1.3 0.1q0 0 0.4-0.1z"/>
									</g>
								</g>
							</g>
						</g>
						<g id="&lt;Group&gt;">
							<g id="&lt;Group&gt;">
								<g id="&lt;Group&gt;">
									<path id="&lt;Path&gt;" class="s8" d="m991.8 254.6c-1.8 2.6-3.3 5.5-4.7 8.3-0.4 0.8-0.9 1.6-1.7 2.1-0.6 0.4-2.1-0.3-2.8-0.5l4.7-10.8"/>
								</g>
							</g>
							<g id="&lt;Group&gt;">
								<g id="&lt;Group&gt;">
									<g id="&lt;Group&gt;">
										<path id="&lt;Path&gt;" class="s9" d="m987 254.6q-0.4 0.9-0.9 2.3c-0.9 1.9-2 4.6-3.4 7.6l-0.1-0.2c0.6 0.2 1.1 0.4 1.7 0.5 0.4 0.1 0.9 0.2 1.2 0 0.3-0.3 0.6-0.6 0.8-0.9 0.5-0.8 0.8-1.5 1.2-2.2 0.8-1.5 1.5-2.7 2.1-3.8 0.6-1 1.2-1.9 1.5-2.4 0.4-0.6 0.6-0.9 0.7-0.9 0 0-0.2 0.4-0.6 0.9-0.3 0.6-0.8 1.5-1.4 2.5-0.6 1.1-1.2 2.4-2 3.8-0.4 0.7-0.7 1.5-1.2 2.2-0.2 0.4-0.6 0.8-1 1.1 0 0-0.2 0.1-0.3 0.1q-0.2 0.1-0.4 0.1-0.4 0-0.7-0.1c-0.6-0.2-1.2-0.4-1.7-0.6h-0.1v-0.2c1.4-3 2.6-5.7 3.4-7.6q0.7-1.4 1.1-2.3 0.4-0.8 0.4-0.8 0 0-0.3 0.9z"/>
									</g>
								</g>
							</g>
						</g>
						<g id="&lt;Group&gt;">
							<g id="&lt;Group&gt;">
								<g id="&lt;Group&gt;">
									<path id="&lt;Path&gt;" class="s8" d="m988.6 250.5q-2.3 5.7-4.6 11.4c-0.3 0.8-0.6 1.7-1.2 2.3-0.6 0.7-1.4 1.2-2.3 1-1.2-0.2-1.9-1.4-2-2.6-0.1-1.2 0.4-2.4 0.8-3.5q2.1-5.2 3.3-10.7"/>
								</g>
							</g>
							<g id="&lt;Group&gt;">
								<g id="&lt;Group&gt;">
									<g id="&lt;Group&gt;">
										<path id="&lt;Path&gt;" class="s9" d="m982.6 248.8q-0.1 0.4-0.2 1c-0.2 0.9-0.5 2.2-1 3.8-0.5 1.5-1 3.4-1.8 5.4-0.4 1-0.9 2-0.9 3.1q-0.1 0.9 0.3 1.7c0.2 0.5 0.6 0.9 1.2 1.2 0.5 0.2 1.1 0.1 1.6-0.2 0.5-0.2 0.9-0.7 1.2-1.1 0.6-1 1-2.1 1.4-3.1 0.8-1.9 1.5-3.7 2.1-5.2q0.9-2.3 1.5-3.6 0.3-0.6 0.4-0.9 0.2-0.4 0.2-0.4 0 0-0.1 0.4-0.2 0.4-0.4 1-0.5 1.3-1.3 3.5c-0.6 1.6-1.3 3.4-2.1 5.4-0.4 0.9-0.8 2-1.4 3.1-0.3 0.5-0.8 0.9-1.3 1.2-0.6 0.3-1.3 0.4-2 0.2-0.6-0.3-1-0.8-1.3-1.4-0.3-0.5-0.4-1.2-0.4-1.8 0.1-1.2 0.6-2.3 1-3.2 0.8-2 1.4-3.9 1.9-5.4 0.5-1.6 0.8-2.8 1-3.7q0.2-0.6 0.3-1 0.1-0.4 0.1-0.4 0 0.1 0 0.4z"/>
									</g>
								</g>
							</g>
						</g>
					</g>
					<g id="&lt;Group&gt;">
						<path id="&lt;Path&gt;" class="s8" d="m992.5 324.6c-4.6 2.6-13.3-8.2-14.4-12.2q-1.1-4 0-10.7l-7.1-26.5 17.2 2.1q10.4 30.7 10.9 32.2c0.4 1.5-2.1 12.5-6.6 15.1z"/>
					</g>
					<g id="&lt;Group&gt;">
						<g id="&lt;Group&gt;">
							<g id="&lt;Group&gt;">
								<path id="&lt;Path&gt;" class="s9" d="m980.9 270.9c1.3-1.2 1.7-2.7 1.8-2.6 0 0 0 0.4-0.2 0.9-0.2 0.6-0.7 1.3-1.4 2-0.7 0.6-1.5 1-2 1.2-0.6 0.2-1 0.1-1 0.1-0.1-0.1 1.5-0.3 2.8-1.6z"/>
							</g>
						</g>
					</g>
				</g>
			</g>
		</g>
	</g>
</svg>