<svg version="1.2" xmlns="http://www.w3.org/2000/svg" viewBox="0 0 1440 330" width="1440" height="330">
	<title>5112781-ai</title>
	<defs>
		<clipPath clipPathUnits="userSpaceOnUse" id="cp1">
			<path d="m882.83 136.62c63 37.98 48.19 110.56 4.71 142.31-43.48 31.76-129.34 23.63-212.71 23.63-83.36 0-136.48-14.85-158.98-73.24-22.5-58.39-4.6-99.41 34.11-138.26 38.72-38.86 65.74-76.43 141.91-71.65 105.3 6.6 153.86 94.85 190.96 117.21z"/>
		</clipPath>
	</defs>
	<style>
		tspan { white-space:pre } 
		.s0 { fill: #fffcf5 } 
		.s1 { fill: #fff2db } 
		.s2 { fill: #ffbc45 } 
		.s3 { fill: #ffe4b5 } 
		.s4 { fill: #31241c } 
		.s5 { fill: #c97440 } 
		.s6 { fill: #ab5d2d } 
		.s7 { fill: #1a191f } 
		.s8 { fill: #1f0e03 } 
		.s9 { fill: #5f7e91 } 
		.s10 { fill: #49687a } 
		.s11 { fill: none;stroke: #1f0e03 } 
		.s12 { fill: #f5cdb3 } 
		.t13 { font-size: 22px;fill: #c97440;font-weight: 700;font-family: "Raleway-Bold", "Raleway" } 
		.t14 { font-size: 23px;fill: #c97440;font-weight: 700;font-family: "Raleway-Bold", "Raleway" } 
		.t15 { font-size: 32px;fill: #c97440;font-weight: 700;font-family: "Raleway-Bold", "Raleway" } 
	</style>
	<g id="background">
		<path id="&lt;Path&gt;" class="s0" d="m0-110h1440v550h-1440z"/>
	</g>
	<g id="objects">
		<g id="&lt;Group&gt;">
			<path id="&lt;Path&gt;" class="s1" d="m882.8 136.6c63 38 48.2 110.6 4.7 142.3-43.4 31.8-129.3 23.7-212.7 23.7-83.3 0-136.5-14.9-158.9-73.3-22.5-58.4-4.6-99.4 34.1-138.2 38.7-38.9 65.7-76.5 141.9-71.7 105.3 6.6 153.8 94.9 190.9 117.2z"/>
			<g id="&lt;Clip Group&gt;" clip-path="url(#cp1)">
				<g id="&lt;Group&gt;">
					<g id="&lt;Group&gt;">
						<path id="&lt;Path&gt;" class="s2" d="m569.1 290.3c-1.1-14.2-7.2-27.3-11.2-40.8-1.3-4.6-2.4-9.3-2.9-14-0.5-4.1-0.6-8.9 1.6-12.6 1.8-2.7 5.2-5.1 8.4-2.9 3 2.1 4.5 6.1 5.8 9.5 3.5 9.1 4.6 18.8 4.7 28.5 0.1 8.6-0.6 17.2 0.1 25.8q-0.4 0-0.7 0c-0.1-7.3 0.2-14.7 1-21.9 0.5-4.7 1.3-9.4 2.3-14.1q0.8-3.8 1.9-7.5 0.5-1.8 1-3.6c0.2-0.6 1.1-1.4 1.5-2 0.9-1.5 1.6-2 3.4-2.2 1.5-0.2 3.1-0.1 4.4 0.6 1.8 1.2 2.4 2.7 3 4.7 0.6 2.3 1 4.6 1 6.9 0.5 10.6-3.4 20.6-6.9 30.3-2.3 6.5-5.6 12.6-8.3 19-0.2 0.4-0.8 0.3-0.7-0.2q0.7-1.5 1.3-2.9 2.2-5.1 4.6-10.1c1.9-4.1 3.3-8.4 4.8-12.7 3.5-10.1 6.7-21.4 2.9-31.9-1-2.8-4.2-3.6-6.8-2.9-1.8 0.5-3.4 3.1-3.9 4.8-1.4 4.8-2.6 9.6-3.5 14.5-1.8 10.3-2.4 20.7-2.3 31.2 0 0.4-0.7 0.4-0.7 0-0.7-7.5-0.1-15-0.1-22.4 0-9.9-0.6-20-3.8-29.4-0.9-2.5-1.9-5-3.1-7.3-1-1.8-2.3-4.1-4.4-4.7-6.2-1.6-8.2 7.2-8.1 11.6 0.2 10.1 3.8 20 7 29.4 3.3 9.6 6.6 19.2 7.4 29.3 0 0.4-0.7 0.4-0.7 0z"/>
					</g>
					<g id="&lt;Group&gt;">
						<path id="&lt;Path&gt;" class="s2" d="m569 290.2c-0.1-1.9-0.3-3.8-0.7-5.6q0.3-0.1 0.7-0.1c0.1 1.9 0.3 3.7 0.6 5.6 0.1 0.4-0.6 0.6-0.6 0.2-0.4-1.9-0.6-3.9-0.7-5.8-0.1-0.4 0.6-0.5 0.6-0.1 0.5 1.9 0.7 3.8 0.8 5.8 0.1 0.4-0.6 0.4-0.7 0z"/>
					</g>
					<g id="&lt;Group&gt;">
						<path id="&lt;Path&gt;" class="s2" d="m559.5 290.6c-2.3-6.2-6.8-11.1-11.3-15.9-5.6-5.9-11.3-12.2-13.4-20.3-0.8-2.8-1.2-7 1.6-8.9 2.3-1.5 5.1-0.6 7.3 0.6 6.7 3.7 11.7 10.5 15.6 16.9 5.1 8.2 8.8 17.2 10.3 26.8 0.1 0.4-0.6 0.6-0.7 0.2q-0.6-3.8-1.6-7.4c-2.8-9.8-7.6-19-14.1-26.9-2.3-2.9-4.7-5.7-7.8-7.7-2.4-1.6-7.2-4.4-9.4-1-2.6 3.9-0.1 9.5 1.8 13.3 2 3.9 4.8 7.3 7.7 10.5 5.5 6.1 11.7 11.8 14.7 19.6 0.1 0.5-0.5 0.6-0.7 0.2z"/>
					</g>
					<g id="&lt;Group&gt;">
						<path id="&lt;Path&gt;" class="s2" d="m588.1 238.1c-2.5 3.9-3.3 8.5-3.8 13-0.3 4.3-0.7 8.5-1.5 12.7-0.9 4.5-2.4 8.7-3.2 13.1q-1.3 7.1-3 14.1c-0.1 0.4-0.7 0.2-0.6-0.2 1.1-4.9 2.1-9.8 3-14.7 0.9-4.7 2.5-9.1 3.4-13.8 1.4-8.1 0.5-17.3 5.1-24.5 0.3-0.4 0.9-0.1 0.6 0.3z"/>
					</g>
					<g id="&lt;Group&gt;">
						<path id="&lt;Path&gt;" class="s2" d="m562 227.2c0.4 5.9 2.5 11.5 3.8 17.2 1.2 5.5 2.3 11 3.4 16.6q1.7 8.7 3.4 17.3c1.1 5.2 1.9 10.5 1.9 15.8 0 0.4-0.7 0.4-0.7 0 0-5.9-1-11.8-2.2-17.5-1.2-5.6-2.2-11.2-3.3-16.8-1.2-5.7-2.3-11.5-3.7-17.2-1.2-5.1-3-10.1-3.3-15.4 0-0.4 0.7-0.4 0.7 0z"/>
					</g>
					<g id="&lt;Group&gt;">
						<path id="&lt;Path&gt;" class="s2" d="m544.4 255.9c5.5 5.2 10 11.3 14 17.6 2.1 3.3 4.1 6.7 6 10.1 1.8 3.3 2.8 6.8 4.1 10.2 0.1 0.5-0.5 0.6-0.7 0.2-1.5-3.8-2.6-7.6-4.7-11.1-1.8-3.2-3.6-6.5-5.6-9.5-4-6.1-8.3-12-13.6-17-0.3-0.3 0.2-0.8 0.5-0.5z"/>
					</g>
					<g id="&lt;Group&gt;">
						<path id="&lt;Path&gt;" class="s2" d="m545.3 265.2c4.3 2.9 8.9 5.2 13 8.4 0.4 0.3-0.1 0.8-0.5 0.5-4-3.2-8.7-5.4-12.9-8.3-0.4-0.2 0-0.8 0.4-0.6z"/>
					</g>
					<g id="&lt;Group&gt;">
						<path id="&lt;Path&gt;" class="s2" d="m557.2 264.9c1.5 2 2.4 4.5 3.3 6.8 1.1 3.1 1.9 6.3 2.7 9.5 0.1 0.5-0.6 0.7-0.7 0.2-0.7-3-1.5-6.1-2.5-9-0.9-2.4-1.8-5.1-3.4-7.1-0.3-0.4 0.3-0.7 0.6-0.4z"/>
					</g>
					<g id="&lt;Group&gt;">
						<path id="&lt;Path&gt;" class="s2" d="m580.3 257.1c0.3 3 1.7 5.7 1.8 8.7 0 0.4-0.7 0.4-0.7 0-0.1-3-1.5-5.7-1.8-8.7 0-0.4 0.7-0.4 0.7 0z"/>
					</g>
					<g id="&lt;Group&gt;">
						<path id="&lt;Path&gt;" class="s2" d="m566.6 232.7c-0.9 3-0.8 6.3-1.2 9.4 0 0.5-0.7 0.5-0.7 0 0.4-3.1 0.3-6.5 1.3-9.6 0.1-0.4 0.8-0.2 0.6 0.2z"/>
					</g>
					<g id="&lt;Group&gt;">
						<path id="&lt;Path&gt;" class="s2" d="m561 244.9c1.8 2.5 3.4 5.2 5.1 7.7 1.2 1.8 2.1 3.3 2.5 5.4 0.1 0.4-0.5 0.6-0.6 0.2-0.6-2.4-1.8-4.3-3.2-6.3-1.6-2.1-2.9-4.4-4.4-6.6-0.3-0.4 0.4-0.7 0.6-0.4z"/>
					</g>
					<g id="&lt;Group&gt;">
						<path id="&lt;Path&gt;" class="s2" d="m572.3 253.9c-0.7 4.3-1.4 8.5-1.8 12.8 0 0.5-0.7 0.5-0.7 0 0.4-4.3 1.1-8.6 1.8-12.9 0.1-0.5 0.8-0.3 0.7 0.1z"/>
					</g>
					<g id="&lt;Group&gt;">
						<path id="&lt;Path&gt;" class="s2" d="m590.8 242.8c-1.8 4.6-4.7 8.6-6.8 13.1-0.2 0.4-0.8 0-0.6-0.4 2-4.4 5-8.3 6.7-12.9 0.2-0.4 0.8-0.2 0.7 0.2z"/>
					</g>
				</g>
				<g id="&lt;Group&gt;">
					<g id="&lt;Group&gt;">
						<path id="&lt;Path&gt;" class="s2" d="m839.2 301.4c-1.7-3.9-3.9-7.4-7.1-10.2-1.6-1.5-3.5-2.7-5.1-4.2-1.4-1.4-2.7-2.9-3.7-4.6-2.6-4-5.3-8-7.3-12.3-1.9-4.1-2.1-8.4-1.8-12.9 0-0.3 0.3-0.4 0.5-0.3 1.6 0.7 2.8 1.8 4 2.9 1.7 1.4 3.5 2.5 5.2 3.8 2.9 2.2 5.7 5 7.9 8 2.5 3.3 4.3 7 6 10.8 1.4 3.2 2.5 7 4.6 9.8q-0.3 0.2-0.6 0.3c-2.6-7.4-3.7-15.5-3.2-23.4 0.4-6.2 0.8-13.2 4-18.7 0.2-0.2 0.5-0.2 0.6 0 0.9 1.7 1 3.4 1.4 5.2 0.4 1.9 1.1 3.7 1.7 5.6 1.6 4.2 2.5 8.7 3.3 13.2 0.8 4.1 1 8.1 0.3 12.3-0.6 4.3-1.8 8.6-2.7 12.9q-0.3-0.1-0.6-0.3c1.6-3.3 3.2-6.8 4.4-10.4 1-2.9 1.7-5.9 3.1-8.7 2-4.1 5-7.1 9.1-8.8 5.5-2.3 16.3-4.2 17.7 4.1 0 0.3-0.3 0.5-0.6 0.4-9.3-4-15.1 7.6-19.4 13.6-2.7 3.7-5.8 7-8.5 10.6-1.3 1.8-4.5 4.2-6.8 4-0.5-0.1-0.5-0.8 0-0.7 1.7 0.1 4.1-1.6 5.4-2.7 1.4-1.3 2.4-3 3.6-4.5 3-3.6 5.8-7.3 8.4-11.2 3.9-5.8 10-13 17.7-9.7q-0.3 0.2-0.5 0.4c-1.4-8.3-13.1-5.7-18.2-3-4.3 2.2-7 6.3-8.5 10.8-1 2.9-1.8 5.8-2.9 8.6q-1.6 3.9-3.4 7.6c-0.2 0.4-0.7 0.1-0.7-0.3 0.9-4.1 2-8.1 2.7-12.3 0.7-4.5 0.5-8.7-0.4-13.2-0.8-4.2-1.6-8.5-3.1-12.5-0.7-1.9-1.4-3.7-1.8-5.6-0.3-1.7-0.5-3.4-1.3-5q0.3 0 0.6 0c-1.6 2.8-2.4 6.1-2.9 9.4-0.5 3.3-1 6.7-1.1 10.1-0.2 7.5 0.8 15 3.3 22 0.1 0.4-0.4 0.6-0.7 0.3-2-2.7-3.1-6.2-4.4-9.3-1.5-3.6-3.2-7.2-5.4-10.4-2.5-3.3-5.5-6.6-8.9-9.1-1.5-1-3.1-1.9-4.4-3.1-1.4-1.2-2.6-2.5-4.3-3.2q0.2-0.2 0.5-0.3c-0.2 2.5-0.3 5.1 0.1 7.6 0.5 2.6 1.5 4.9 2.8 7.1 2.1 3.9 4.3 7.9 7 11.4 2.6 3.7 6.5 5.8 9.5 9.1 2.4 2.6 4.2 5.6 5.6 8.9 0.1 0.4-0.6 0.5-0.7 0.1z"/>
					</g>
					<g id="&lt;Group&gt;">
						<path id="&lt;Path&gt;" class="s2" d="m834.5 302c-2-3.2-3.6-6.6-5.7-9.7-2.1-3.2-4.8-6.7-8.6-8-9.2-3.1-17.2 3.7-22.8 10.2q-0.1-0.3-0.3-0.6c6.1-1.8 13.3-2.2 19.3 0.4 3.1 1.3 5.4 3.8 7.7 6.3 1 1.1 2 2.1 2.8 3.2 0.9 1.2 2 2.9 3.5 3.3 0.4 0.1 0.3 0.7-0.2 0.6-2.3-0.5-3.4-3.2-4.9-4.8-2.3-2.4-4.5-5.3-7.4-7-6-3.6-14.1-3.2-20.6-1.3-0.4 0.1-0.6-0.3-0.3-0.6 3-3.6 6.4-7.2 10.7-9.2 3.7-1.8 8.6-2.7 12.7-1.1 7.6 2.9 10.7 11.6 14.7 18 0.2 0.4-0.4 0.7-0.6 0.3z"/>
					</g>
					<g id="&lt;Group&gt;">
						<path id="&lt;Path&gt;" class="s2" d="m825.1 270.9c3 6.3 8.6 10.8 12.1 16.7 1.7 3 3.6 6.1 4.8 9.4 1.1 3.2 0.5 6.6 0.5 9.9 0 0.4-0.7 0.4-0.7 0 0-3.9 0.6-7.6-1.1-11.2-1.4-3-2.9-6-4.7-8.7-3.6-5.4-8.7-9.8-11.5-15.7-0.2-0.4 0.4-0.8 0.6-0.4z"/>
					</g>
					<g id="&lt;Group&gt;">
						<path id="&lt;Path&gt;" class="s2" d="m815.2 288.7c4.8 2.5 9.9 5.2 13.3 9.5 1.2 1.6 2.4 3.1 3.5 4.7 0.3 0.4 2.2 3.4 2.8 3.4 0.4-0.1 0.4 0.6 0 0.7-0.8 0-1.9-1.8-2.2-2.3-1.3-1.7-2.6-3.4-3.9-5-3.6-4.8-8.6-7.7-13.8-10.4-0.4-0.2 0-0.8 0.3-0.6z"/>
					</g>
					<g id="&lt;Group&gt;">
						<path id="&lt;Path&gt;" class="s2" d="m844.6 270.1c0.1 3.5 1.2 6.8 1.4 10.3 0.1 3.6-0.3 7-0.7 10.5-0.7 6.5-0.5 13.1-2.3 19.5-0.1 0.4-0.7 0.3-0.7-0.1q0-0.4 0-0.8c0-0.5 0.7-0.5 0.7 0q0 0.4 0 0.8-0.3-0.1-0.7-0.1c1.9-6.6 1.4-13.3 2.4-20 0.5-3.6 0.9-7.4 0.5-11-0.4-3.1-1.2-6.1-1.3-9.1 0-0.5 0.7-0.5 0.7 0z"/>
					</g>
					<g id="&lt;Group&gt;">
						<path id="&lt;Path&gt;" class="s2" d="m867 275.1c-5.9 3.7-9.9 10.4-13.1 16.5-2.6 4.7-5.3 10.1-10.5 12.4-0.4 0.2-0.8-0.4-0.4-0.6 5.9-2.6 8.4-9 11.4-14.2 3-5.5 6.9-11.3 12.3-14.7 0.4-0.2 0.7 0.4 0.3 0.6z"/>
					</g>
				</g>
			</g>
		</g>
		<g id="&lt;Group&gt;">
			<g id="&lt;Group&gt;">
				<path id="&lt;Path&gt;" class="s2" d="m721 159.6c0 3.7-3 6.7-6.8 6.7-3.7 0-6.7-3-6.7-6.7v-4.7c0-3.7 3-6.7 6.7-6.7 3.8 0 6.8 3 6.8 6.7z"/>
				<path id="&lt;Compound Path&gt;" fill-rule="evenodd" class="s2" d="m772.7 260.4q-0.2 2.5-0.2 2.5l-95.7-0.6-4.3-15.7c9.2-3.3 21.2-3.1 24.7-18.2 3.5-15 11.4-31.1 18.2-35.3 6.8-4.1 25.2-11.3 44.8-2.4 19.6 8.8 27.6 33.4 29.5 42.5 1.8 9 8 25.8-17 27.2zm-54.4-0.6c-0.2-0.6-0.4-5.6-2.2-15-3.5-0.4-20.5 12.4-24.3 12.4 1 7.7 26.7 3.2 26.5 2.6z"/>
				<path id="&lt;Path&gt;" class="s3" d="m747.1 196.4c-8 19.8-4.1 54.4-2.2 67q-10.1 0.5-16.8 0c-8.7-23.8-3.6-60-2.3-65.9q13.3-1 21.3-1.1z"/>
				<path id="&lt;Path&gt;" class="s3" d="m753.8 188c-2 10.3-11.6 16.6-19 9.6-1 2.3-6.8 6-9.9 1.5-3.1-4.6-1.5-11.9 5.3-12.4 11.9-1.8 23.6 0.5 23.6 1.3z"/>
				<path id="&lt;Path&gt;" class="s2" d="m749.6 149.4c-0.3-6.8-7.4-19.9-24.1-19.2q-11.9 0.9-13.4 12.2-0.4 1.3-2.5 4c-0.6-5.3 2.7-19.3 17.7-19.7 17-0.4 25 12.8 25.4 22.3q-1.4 2.2-3.1 0.4z"/>
				<path id="&lt;Path&gt;" class="s4" d="m734.2 183.1q-7.9 2-25.8 4.5c-3-6-1.3-12.7 2.6-19.8 2.8-5.1 2-7.9-0.9-14.4-2.9-6.5 0.6-13 6.3-16.9q10.9-0.8 17.8 46.6z"/>
				<path id="&lt;Path&gt;" class="s5" d="m743 169.1q4.4 13.3 4.8 19c0.4 5.2-16.7 8.6-17.9 3.2q-1.3-6.5-3.2-17.4"/>
				<path id="&lt;Path&gt;" class="s6" d="m731.8 181.7q-1.9 0.1-3.8-0.2-0.7-4.3-1.3-7.6l16.3-4.8 1.4 5.6c-2.8 4-7.3 6.8-12.6 7z"/>
				<path id="&lt;Path&gt;" class="s5" d="m713.8 145.6c-0.4-8.9 6.5-16.5 15.4-16.8 8.9-0.4 16.4 6.4 16.8 15.3l0.8 17.1c0.4 8.9-6.5 16.4-15.4 16.8-8.9 0.4-16.4-6.5-16.8-15.4z"/>
				<g id="&lt;Group&gt;">
					<path id="&lt;Path&gt;" class="s4" d="m735.1 146.2c-1.5-0.9-3.7-1.4-5.4-0.5-0.8 0.4-1.5-0.8-0.7-1.2 2.1-1.1 4.8-0.6 6.8 0.5 0.8 0.4 0.1 1.6-0.7 1.2z"/>
				</g>
				<g id="&lt;Group&gt;">
					<path id="&lt;Path&gt;" class="s4" d="m715.4 146.2c1.4-1.2 3.2-1.7 5-1.3 0.9 0.2 0.5 1.5-0.4 1.3-1.3-0.2-2.6 0.1-3.6 1-0.6 0.6-1.6-0.3-1-1z"/>
				</g>
				<g id="&lt;Group&gt;">
					<path id="&lt;Path&gt;" class="s4" d="m726 159.6q-0.2 0-0.3-0.1l-3.2-2.8q-0.2-0.1-0.2-0.4 0.1-0.3 0.3-0.4l3.2-1.8c0.2-0.1 0.5 0 0.7 0.2 0.1 0.3 0 0.6-0.2 0.7l-2.5 1.4 2.6 2.3c0.2 0.2 0.2 0.5 0 0.8q-0.2 0.1-0.4 0.1z"/>
				</g>
				<g id="&lt;Group&gt;">
					<path id="&lt;Path&gt;" class="s4" d="m727.2 164.1c-0.9 0-1.7-0.2-2.4-0.7-0.2-0.1-0.3-0.5-0.1-0.7 0.2-0.2 0.5-0.3 0.7-0.1 0.9 0.6 2.4 0.6 3.4 0 0.7-0.3 1.4-1 1.3-2.4 0-0.3 0.2-0.6 0.5-0.6 0.3 0 0.6 0.2 0.6 0.5 0 1.5-0.6 2.8-1.8 3.4-0.7 0.4-1.5 0.6-2.2 0.6z"/>
				</g>
				<path id="&lt;Path&gt;" class="s7" d="m730.7 151.3c1-0.4 2.1 0.1 2.5 1.1 0.4 1.1-0.1 2.2-1.1 2.6-1.1 0.4-2.2-0.2-2.6-1.2-0.3-1 0.2-2.1 1.2-2.5z"/>
				<path id="&lt;Path&gt;" class="s7" d="m719 152c1-0.4 2.1 0.1 2.5 1.1 0.4 1.1-0.1 2.2-1.2 2.6-1 0.4-2.1-0.2-2.5-1.2-0.4-1 0.1-2.1 1.2-2.5z"/>
				<g id="&lt;Group&gt;">
					<path id="&lt;Path&gt;" class="s7" d="m718.3 154.1q-0.1 0-0.2-0.1l-1.9-1.2c-0.2-0.1-0.3-0.4-0.2-0.6 0.2-0.2 0.4-0.3 0.7-0.2l1.9 1.2c0.2 0.1 0.2 0.4 0.1 0.6q-0.1 0.3-0.4 0.3z"/>
				</g>
				<g id="&lt;Group&gt;">
					<path id="&lt;Path&gt;" class="s7" d="m732.2 153.4q-0.2 0-0.4-0.2c-0.1-0.2-0.1-0.5 0.1-0.7l2-1.3c0.2-0.2 0.5-0.1 0.7 0.1 0.1 0.2 0.1 0.5-0.1 0.6l-2 1.4q-0.2 0.1-0.3 0.1z"/>
				</g>
				<path id="&lt;Path&gt;" class="s4" d="m771.2 181.6c-9.2 1.5-19.4 2.4-28.4 3.4q-3.8-6.1-1.1-12.4c2.8-6.4 1.4-9.3-0.7-13.5-3-5.8 4.8-9.9-2.8-19.6-3.7-4.9-13.6-8.3-23.2-1.7 8.7-21.2 31.9-11.8 36.4-1.4 2.9 6.8 8.7 6.7 9.9 11.5 1.4 5.5-1.9 9 0.8 14.8 2.7 5.8 9.1 3.3 9.1 18.9z"/>
				<path id="&lt;Path&gt;" class="s5" d="m727.1 242.6q2.7 7.4 1.8 11.7c-6.8-2.4-14.4-0.8-17.6 0.9-3.1 1.8-8.1 2.5-9.1 1-3.8 1.5-6.5 0.6-4.6-0.3-2.9 1-5.3-1.2-1.1-1.5-1.7-0.7-0.2-1.5 6.8-5.2 7.1-3.7 10.1-6.1 17.9-6.7z"/>
				<path id="&lt;Path&gt;" class="s2" d="m726.2 242.6c4.2-1 16.1-1.9 23.1-1.5q0.4 5.5-2.6 16.6l-18.7-4.1q0.9-5.9-1.8-11z"/>
				<g id="&lt;Group&gt;">
					<path id="&lt;Path&gt;" class="s8" d="m725.7 242c8.6-1.3 17.4-1.2 26.1-1.5 2.4-0.1 4.9-0.1 7.3-0.4 1.7-0.3 3.5-0.7 5.2-0.7 3.6-0.1 7.6 0.6 10.9 1.6 0.5 0.1 0.3 0.8-0.1 0.7-3.7-1.1-8.2-1.9-12.1-1.5-4 0.4-7.9 0.9-11.9 1-8.4 0.3-16.9 0.2-25.2 1.5-0.5 0-0.7-0.7-0.2-0.7z"/>
				</g>
				<g id="&lt;Group&gt;">
					<path id="&lt;Path&gt;" class="s8" d="m763.8 221q1.2 8.8 1.2 17.7c0 0.5-0.7 0.5-0.7 0q0-8.8-1.2-17.5c0-0.4 0.6-0.6 0.7-0.2z"/>
				</g>
				<g id="&lt;Group&gt;">
					<path id="&lt;Path&gt;" class="s8" d="m727.4 253.2c2.3 0 4.3 0.9 6.5 1.5q3.8 1.2 7.6 2.3c5.6 1.7 11.5 2.9 17.4 3.3 9.8 0.8 22.1 0.7 29.6-6.7 0.3-0.3 0.8 0.2 0.5 0.5-7.1 7.1-18.6 7.6-28.1 7-6-0.3-12-1.3-17.7-2.9-2.9-0.8-5.7-1.7-8.5-2.5-2.4-0.7-4.8-1.8-7.3-1.8-0.4 0.1-0.4-0.6 0-0.7z"/>
				</g>
				<g id="&lt;Group&gt;">
					<path id="&lt;Path&gt;" class="s8" d="m714.1 214.2c-0.7 2.4-0.4 5.2-0.3 7.7 0.1 2.4 0.3 4.9 0.4 7.3 0.1 2.5 0.2 4.9 0.4 7.3 0.2 2.2 1.1 4.3 1.2 6.5 0 0.5-0.7 0.5-0.7 0-0.1-2.4-1.1-4.7-1.2-7.2-0.3-2.6-0.3-5.2-0.5-7.9-0.1-2.7-0.3-5.3-0.4-8 0-2-0.2-4 0.5-5.9 0.1-0.4 0.8-0.2 0.6 0.2z"/>
				</g>
				<g id="&lt;Group&gt;">
					<path id="&lt;Path&gt;" class="s8" d="m724.7 190.3c-0.9 3.1-2 7.7 1.5 9.8 3.1 1.9 6.1-0.5 8.4-2.6 0.1-0.1 0.4-0.2 0.5 0 5.5 6.9 15.2 0.7 17.4-6 0.2-0.5 0.8-0.3 0.7 0.2-2.1 6.2-10.5 12.6-16.9 8-0.8-0.6-1.2-1.7-2.1-1-0.8 0.8-1.8 1.6-2.8 2.1-1.5 0.7-3.3 1.1-4.9 0.3-4.3-2.2-3.5-7.1-2.4-11 0.1-0.4 0.7-0.3 0.6 0.2z"/>
				</g>
				<g id="&lt;Group&gt;">
					<path id="&lt;Path&gt;" class="s8" d="m701.7 256.1c2.8-0.4 4.8-2.5 7.2-3.7 2.2-1.1 4.6-1.9 6.9-2.9 0.4-0.1 0.6 0.6 0.2 0.7-2.8 1.2-5.7 2.1-8.2 3.7-1.9 1.2-3.7 2.5-5.9 2.9-0.4 0.1-0.6-0.6-0.2-0.7z"/>
				</g>
				<g id="&lt;Group&gt;">
					<path id="&lt;Path&gt;" class="s8" d="m696.6 256.2c5.6-2.4 10.8-5.7 16.6-7.8 0.4-0.1 0.6 0.6 0.1 0.7-5.7 2-10.8 5.3-16.4 7.7-0.4 0.2-0.7-0.4-0.3-0.6z"/>
				</g>
				<g id="&lt;Group&gt;">
					<path id="&lt;Path&gt;" class="s8" d="m695.3 254.5c2.2-1.3 4.7-1.9 7-3.1 2.2-1.2 4.5-2.4 6.8-3.5 0.4-0.2 0.7 0.5 0.3 0.6-2.3 1.1-4.5 2.3-6.7 3.5-2.3 1.2-4.8 1.8-7 3.1-0.4 0.3-0.8-0.3-0.4-0.6z"/>
				</g>
				<g id="&lt;Group&gt;">
					<path id="&lt;Path&gt;" class="s8" d="m732.6 203.3c0.1 0.5 0.9 0.5 1.2 0.1 0.5-0.5-0.8-0.9-1.1-0.5-0.2 0.4-0.9 0-0.6-0.3 0.4-0.6 1.3-0.7 1.9-0.4 0.5 0.3 0.8 1 0.5 1.5-0.5 0.9-2.3 1-2.5-0.3-0.1-0.4 0.6-0.6 0.6-0.1z"/>
				</g>
				<g id="&lt;Group&gt;">
					<path id="&lt;Path&gt;" class="s8" d="m731.7 208.8c-0.1 0.5 0.7 0.4 0.9 0.2 0.2-0.1 0.5-0.5 0.2-0.6-0.2-0.1-0.6 0-0.8 0-0.5 0.2-0.6-0.5-0.2-0.6 0.5-0.2 1.2-0.3 1.6 0.2 0.4 0.5 0.1 1.2-0.3 1.5-0.8 0.7-2.2 0.4-2.1-0.9 0.1-0.4 0.8-0.2 0.7 0.2z"/>
				</g>
				<g id="&lt;Group&gt;">
					<path id="&lt;Path&gt;" class="s8" d="m731.3 215.3c0 0.4 1 0 1-0.4 0-0.4-0.8-0.7-0.9-0.2-0.1 0.4-0.7 0.2-0.7-0.2 0.2-1.4 2.5-0.7 2.2 0.6-0.2 1.1-2.2 1.6-2.3 0.2 0-0.4 0.7-0.4 0.7 0z"/>
				</g>
				<g id="&lt;Group&gt;">
					<path id="&lt;Path&gt;" class="s8" d="m717.7 253.6c-0.1 1 0 2.1 0.4 3 0.2 0.4-0.5 0.6-0.7 0.2-0.4-1-0.5-2.2-0.4-3.2 0-0.4 0.7-0.5 0.7 0z"/>
				</g>
				<g id="&lt;Group&gt;">
					<path id="&lt;Path&gt;" class="s8" d="m726.1 242.2c1.5 1 1.7 2.9 2.1 4.5 0.5 2.2 0.9 4.5-0.1 6.6-0.2 0.4-0.8 0-0.6-0.4 0.9-1.8 0.5-4.1 0-6-0.4-1.4-0.5-3.2-1.8-4.1-0.3-0.3 0-0.9 0.4-0.6z"/>
				</g>
				<g id="&lt;Group&gt;">
					<path id="&lt;Path&gt;" class="s8" d="m709.5 163.8c-1 7.5 10.9 7.3 15.5 7 0.5 0 0.5 0.7 0 0.7-5.2 0.3-17.2 0.3-16.1-7.9 0-0.4 0.7-0.2 0.6 0.2z"/>
				</g>
				<ellipse id="&lt;Path&gt;" class="s2" cx="726.5" cy="171.1" rx="2.6" ry="2.1"/>
				<path id="&lt;Path&gt;" class="s2" d="m752.7 149q-1.4 2.2-3.1 0.4c-0.3-6.8-7.4-19.9-24.1-19.2-6.3 0.5-9.7 3.9-11.5 7-0.7-0.4-1.6-0.6-2.4-0.7 2.4-4.9 7.2-9.6 15.7-9.8 17-0.4 25 12.8 25.4 22.3z"/>
				<path id="&lt;Path&gt;" class="s2" d="m758.1 159.6c0 3.7-3 6.7-6.7 6.7-3.8 0-6.8-3-6.8-6.7v-4.7c0-3.7 3-6.7 6.8-6.7 3.7 0 6.7 3 6.7 6.7z"/>
				<g id="&lt;Group&gt;">
					<path id="&lt;Path&gt;" class="s8" d="m757.2 158.9c-0.2 3.4-4 6.2-7.3 4.1-2.5-1.7-2.5-4.5-2.3-7.2 0.1-3.5 4-6.3 7.2-4.2 2.7 1.7 2.4 4.5 2.4 7.3 0 0.4-0.7 0.4-0.7 0 0-1.4 0.3-3.2-0.2-4.5-1.6-4.1-8-3.3-8 1.4 0 1.3-0.3 3.1 0.2 4.4 1.7 4.2 7.8 3.2 8-1.3 0-0.5 0.7-0.5 0.7 0z"/>
				</g>
			</g>
			<g id="&lt;Group&gt;">
				<path id="&lt;Path&gt;" class="s9" d="m677.6 256.8c3.9 0 51.3 0 53.8 0 2.5 0 3 4.9-1.1 4.9q-4.1 0-123.4 0c-3.7-7.4-20.3-52.8-22-57.1-1.6-4.2-0.1-9.2 6.6-9.2 6.7 0 42.4 0 47.3 0 5 0 10.5 0.8 13.9 8.4q3.5 7.6 24.9 53z"/>
				<path id="&lt;Path&gt;" class="s10" d="m731.4 261.6q-0.2 0-0.4 0.1-0.3 0-0.7 0c-0.4 0-2 0-4.4 0-8 0-25.5 0-44.8 0q-3.7-0.1-6-0.1l-1.9-4.8q-21.4-45.4-24.9-53c-3.4-7.6-8.9-8.4-13.9-8.4 2.1 0 3.6 0 4.4 0 5 0 10.5 0.8 13.9 8.4 3 6.5 19.1 40.6 23.7 50.3 0.5 1.2 0.9 1.9 1.1 2.4q0 0.1 0.1 0.2 0 0 0 0.1c3.2 0 37 0 49.4 0 2.4 0 4 0 4.4 0 2 0 2.8 3.3 0.7 4.5q-0.1 0-0.1 0-0.2 0.1-0.4 0.2-0.1 0-0.2 0.1z"/>
				<path id="&lt;Path&gt;" class="s11" d="m632.9 229.3c1.4 3.3-0.2 6-3.6 6-3.3 0-7.1-2.7-8.5-6-1.3-3.4 0.3-6.1 3.6-6.1 3.3 0 7.2 2.7 8.5 6.1z"/>
			</g>
			<g id="&lt;Group&gt;">
				<path id="&lt;Path&gt;" class="s12" d="m794.5 302.7c-36.9 1.8-77 2.3-115.7 1.8-28.3-0.4-57-3.7-78.3-8.2v-30.7h194z"/>
				<path id="&lt;Path&gt;" class="s5" d="m802.6 264.8c0 1.8-1.5 3.3-3.4 3.3h-203.5c-1.8 0-3.3-1.5-3.3-3.3 0-1.8 1.5-3.3 3.3-3.3h203.5c1.9 0 3.4 1.5 3.4 3.3z"/>
			</g>
		</g>
		<g id="&lt;Group&gt;">
			<path id="&lt;Path&gt;" class="s2" d="m560.3 131.1c-4.6-4.4-4.6-8 0-8 4.6 0 12.1 0 16.7 0 4.6 0 8.4 3.6 8.4 8 0 4.3 0 11.5 0.1 15.9 0 4.3-3.8 4.3-8.4 0-4.6-4.4-12.2-11.6-16.8-15.9z"/>
			<rect id="&lt;Path&gt;" class="s2" x="534.8" y="42.4" width="152.3" height="89.1" rx="38.4"></rect>
			<text id="HELP!
" style="transform: matrix(.7,0,0,.7,602.365,70.269)" >
				<tspan x="0" y="0" class="t13">HELP!
</tspan>
			</text>
			<path id="&lt;Path&gt;" class="s1" d="m604 77.4h68.7v4.5h-68.7z"/>
			<path id="&lt;Path&gt;" class="s1" d="m604 88.3h59.3v4.4h-59.3z"/>
			<path id="&lt;Path&gt;" class="s1" d="m604 99.1h39.3v4.5h-39.3z"/>
			<path id="&lt;Path&gt;" class="s1" d="m604 110h63.6v4.5h-63.6z"/>
			<g id="&lt;Group&gt;">
				<path id="&lt;Path&gt;" class="s4" d="m571.4 120.5c-7.4 0-14.1-3-18.8-7.7 2-5.1 8.7-8.3 12.7-8.7h12.2c3.7 0 10.8 3.6 12.8 8.7-4.8 4.7-11.5 7.7-18.9 7.7z"/>
				<path id="&lt;Path&gt;" class="s5" d="m579.4 95.9q-0.5 8.6-0.8 13.6c-0.5 4.3-14.7 3.2-14.1-0.8q0.8-5.4 1.9-15"/>
				<path id="&lt;Path&gt;" class="s6" d="m565.9 98.1l0.5-4.4 13 2.2q-0.2 2.6-0.3 5.9-1.4 0.5-2.9 0.6c-4.1 0.3-7.8-1.4-10.3-4.3z"/>
				<path id="&lt;Path&gt;" class="s5" d="m587.7 86.1c0.5 6.8-4.7 12.8-11.5 13.4-6.9 0.5-12.9-4.7-13.4-11.6l-1-13.1c-0.5-6.9 4.6-12.9 11.5-13.4 6.9-0.5 12.9 4.6 13.4 11.5z"/>
				<g id="&lt;Group&gt;">
					<path id="&lt;Path&gt;" class="s4" d="m570.3 74.8c1.4-0.3 2.6-0.8 3.4-2 0.5-0.7 1.7 0 1.2 0.7-1.1 1.5-2.5 2.3-4.2 2.6-0.9 0.2-1.3-1.1-0.4-1.3z"/>
				</g>
				<g id="&lt;Group&gt;">
					<path id="&lt;Path&gt;" class="s4" d="m584.4 74.7c-1.3-0.2-2.2-1-2.8-2.1-0.5-0.8 0.7-1.5 1.2-0.7 0.4 0.9 1 1.3 2 1.5 0.9 0.2 0.5 1.5-0.4 1.3z"/>
				</g>
				<g id="&lt;Group&gt;">
					<path id="&lt;Path&gt;" class="s4" d="m578.6 85q-0.2 0-0.4-0.2c-0.2-0.2-0.2-0.5 0-0.7l1.6-1.9-1.9-0.8c-0.2-0.1-0.4-0.4-0.3-0.7 0.2-0.2 0.5-0.4 0.7-0.2l2.6 1q0.3 0.1 0.3 0.4 0.1 0.3-0.1 0.5l-2.1 2.4q-0.2 0.2-0.4 0.2z"/>
				</g>
				<g id="&lt;Group&gt;">
					<path id="&lt;Path&gt;" class="s4" d="m575.4 90.3q-0.2 0-0.4-0.3c-0.2-0.2-0.1-0.5 0.1-0.7q3.1-2.2 5.5-1.7c0.3 0 0.5 0.3 0.4 0.6 0 0.3-0.3 0.5-0.6 0.4q-1.9-0.4-4.7 1.6-0.1 0.1-0.3 0.1z"/>
				</g>
				<path id="&lt;Path&gt;" class="s7" d="m575.4 80.7c-0.2 0.8-1.1 1.3-1.9 1.1-0.8-0.2-1.3-1-1.1-1.8 0.2-0.8 1-1.3 1.9-1.1 0.8 0.2 1.3 1 1.1 1.8z"/>
				<path id="&lt;Path&gt;" class="s7" d="m584.4 80.2c-0.2 0.8-1 1.3-1.8 1.1-0.8-0.2-1.3-1.1-1.1-1.9 0.2-0.8 1-1.3 1.8-1.1 0.8 0.2 1.3 1 1.1 1.9z"/>
				<path id="&lt;Path&gt;" class="s5" d="m565.2 84.6c0.6 2.5-0.9 4.9-3.4 5.5-2.4 0.6-4.8-0.9-5.4-3.3l-0.4-1.4c-0.6-2.5 0.9-4.9 3.4-5.5 2.4-0.6 4.8 0.9 5.4 3.3z"/>
				<path id="&lt;Path&gt;" class="s4" d="m558.3 80.3c-1-3-6.2-15.3 1.5-15.7 0.5-4.9 7.2-7.4 15.6-9.1 8.5-1.6 13.7 2.3 13.1 6.3-0.7 3.9-5.8 5.3-9.9 4.2-1.2 4.2-6.9 2.8-8.1 1.9-0.9 4.2-5.6 5.2-5.1 8.1 0.5 2.8 0.8 5.8 0.9 6.3 0.1 0.6-2.4 1.8-2.9 0.6-0.5-1.2-2.6-3.3-5.1-2.6z"/>
			</g>
			<g id="&lt;Group&gt;">
				<path id="&lt;Path&gt;" class="s8" d="m581.8 147.1c3.6 0.7 1.3-16.1 1.3-18.3 0-0.1 0.1-0.3 0.3-0.3q7.3 0.1 14.6 0.1c15.7 0 31.5-0.1 47.3-0.4 4.9 0 9.9-0.3 14.9-0.5 5-0.2 10.9-0.7 15-4 5.3-4.4 7.3-11.7 8.1-18.3 0-0.5 0.7-0.5 0.7 0-1 8.9-4.5 19.1-14.2 21.7-5 1.3-10.2 1.3-15.4 1.5-4.8 0.2-9.6 0.4-14.4 0.4-7.9 0-15.7 0.2-23.6 0.2q-16.5 0.2-33 0 0.2-0.2 0.4-0.4c0 2.7 2.9 20-2.2 19-0.4-0.1-0.2-0.8 0.2-0.7z"/>
			</g>
			<g id="&lt;Group&gt;">
				<path id="&lt;Path&gt;" class="s8" d="m684.3 75.4c0 8.7 0.4 17.4-0.2 26.1 0 0.5-0.7 0.5-0.7 0 0.6-8.7 0.2-17.4 0.2-26.1 0-0.4 0.7-0.4 0.7 0z"/>
			</g>
		</g>
		<g id="&lt;Group&gt;">
			<rect id="&lt;Path&gt;" class="s2" x="797.4" y="124.4" width="157.9" height="92.4" rx="39.8"></rect>
			<path id="&lt;Path&gt;" class="s2" d="m828.9 232.8c-4.8 4.5-8.7 4.5-8.7 0 0-4.6 0.1-12 0.1-16.5 0-4.5 3.9-8.2 8.7-8.2 4.7 0 12.5 0 17.3 0 4.8 0 4.8 3.7 0 8.2-4.8 4.5-12.6 11.9-17.4 16.5z"/>
			<text id="THANKS!
" style="transform: matrix(.7,0,0,.7,817.815,155.213)" >
				<tspan x="0" y="0" class="t14">THANKS!
</tspan>
			</text>
			<path id="&lt;Path&gt;" class="s1" d="m815.9 162.6h71.3v4.6h-71.3z"/>
			<path id="&lt;Path&gt;" class="s1" d="m815.9 173.9h61.6v4.6h-61.6z"/>
			<path id="&lt;Path&gt;" class="s1" d="m815.9 185.1h40.9v4.7h-40.9z"/>
			<g id="&lt;Group&gt;">
				<path id="&lt;Path&gt;" class="s4" d="m903.6 199.1c2.1-5.3 9.4-9.1 13.2-9h12.7c4.1 0.4 11.1 3.7 13.2 9-5 4.9-11.9 8-19.6 8-7.6 0-14.6-3.1-19.5-8z"/>
				<g id="&lt;Group&gt;">
					<path id="&lt;Path&gt;" class="s5" d="m928.3 179.3q1.2 9.9 2.1 15.6c0.6 4.1-14.2 5.3-14.7 0.8q-0.4-5.3-0.8-14.2"/>
					<path id="&lt;Path&gt;" class="s6" d="m918.2 188.3q-1.6-0.1-3-0.6-0.2-3.4-0.3-6.2l13.4-2.2 0.6 4.5c-2.6 3-6.5 4.8-10.7 4.5z"/>
					<path id="&lt;Path&gt;" class="s5" d="m907.3 157.7c0.5-7.1 6.7-12.5 13.9-11.9 7.1 0.5 12.4 6.7 11.9 13.9l-1 13.6c-0.5 7.1-6.8 12.5-13.9 11.9-7.1-0.5-12.5-6.7-11.9-13.8z"/>
					<g id="&lt;Group&gt;">
						<path id="&lt;Path&gt;" class="s4" d="m922.8 160.5c-0.5-1-1.5-1.5-2.6-1.4-0.9 0.1-0.9-1.3 0-1.4 1.5-0.2 3.1 0.8 3.8 2.1 0.4 0.8-0.8 1.5-1.2 0.7z"/>
					</g>
					<g id="&lt;Group&gt;">
						<path id="&lt;Path&gt;" class="s4" d="m909 158.4c0.9-0.9 2.5-1.5 3.9-1.2 0.9 0.2 0.5 1.6-0.4 1.4-0.8-0.2-2 0.2-2.6 0.8-0.6 0.7-1.6-0.3-0.9-1z"/>
					</g>
					<g id="&lt;Group&gt;">
						<path id="&lt;Path&gt;" class="s4" d="m915.7 170.2q-0.2 0-0.4-0.2l-2.2-2.5q-0.2-0.2-0.1-0.4 0-0.3 0.3-0.4l2.7-1.1c0.2-0.1 0.6 0 0.7 0.3 0.1 0.2 0 0.5-0.3 0.6l-2 0.9 1.7 1.9c0.2 0.3 0.2 0.6 0 0.8q-0.2 0.1-0.4 0.1z"/>
					</g>
					<g id="&lt;Group&gt;">
						<path id="&lt;Compound Path&gt;" fill-rule="evenodd" class="s4" d="m915.5 177.4q0 0 0 0c-1.4 0-2.4-1.5-2.9-4.7q-0.1-0.2 0.1-0.4 0.2-0.2 0.4-0.2c0.9 0.2 2.1 0.3 3.7 0.3q1.2 0 2.8-0.1c0.1 0 0.3 0.1 0.4 0.2 0.1 0.2 0.1 0.4 0 0.6-1.7 2.9-3.2 4.3-4.5 4.3zm-1.8-4.1c0.5 1.9 1.1 3 1.8 3 0.5 0 1.5-0.4 3.1-2.9-1.9 0.1-3.3 0.1-4.9-0.1z"/>
					</g>
					<path id="&lt;Path&gt;" class="s7" d="m920.2 163.9c0.8-0.2 1.7 0.3 1.9 1.2 0.2 0.8-0.3 1.7-1.1 1.9-0.9 0.2-1.7-0.3-2-1.2-0.2-0.8 0.4-1.7 1.2-1.9z"/>
					<path id="&lt;Path&gt;" class="s7" d="m910.8 163.3c0.8-0.2 1.7 0.4 1.9 1.2 0.2 0.8-0.3 1.7-1.2 1.9-0.8 0.2-1.7-0.3-1.9-1.2-0.2-0.8 0.3-1.6 1.2-1.9z"/>
				</g>
				<path id="&lt;Path&gt;" class="s5" d="m930 168.4c0.6-2.5 3.1-4 5.6-3.4 2.6 0.6 4.1 3.1 3.5 5.7l-0.4 1.4c-0.6 2.5-3.1 4.1-5.6 3.5-2.6-0.7-4.1-3.2-3.5-5.7z"/>
				<path id="&lt;Path&gt;" class="s4" d="m931.4 168.1c-0.5 1.2-3.1 0-2.9-0.6 0.1-0.6 0.3-3.6 0.9-6.6 0.5-3-4.3-4-5.3-8.3-1.3 0.9-7.1 2.4-8.4-2.1-4.2 1.3-9.6-0.2-10.2-4.3-0.7-4.1 4.7-8.2 13.5-6.5 8.7 1.7 15.7 4.4 16.2 9.4 8 0.4 2.6 13.2 1.5 16.3-2.5-0.7-4.7 1.5-5.3 2.7z"/>
			</g>
			<g id="&lt;Group&gt;">
				<path id="&lt;Path&gt;" class="s8" d="m927.1 214c10-0.4 20.7-6.7 22.8-17 0.1-0.5 0.8-0.3 0.7 0.1-2.2 10.7-13.2 17.2-23.5 17.6-0.4 0-0.4-0.7 0-0.7z"/>
			</g>
			<g id="&lt;Group&gt;">
				<path id="&lt;Path&gt;" class="s8" d="m918.6 214.1q2.8 0.1 5.6 0.1c0.5 0 0.5 0.7 0 0.7q-2.8 0-5.6-0.1c-0.4-0.1-0.4-0.8 0-0.7z"/>
			</g>
			<g id="&lt;Group&gt;">
				<path id="&lt;Path&gt;" class="s8" d="m828.3 229.7c3.6-3.3 7.4-6.6 10.8-10.2 1.4-1.4 2.7-3.4 4.4-4.5 2.8-1.7 7.2-1.1 10.3-1.1 4.6 0 9.2-0.3 13.8-0.3 5.1 0 10.2 0.2 15.4 0.4 9.7 0.5 19.5 1 29.2 0 0.5-0.1 0.5 0.6 0 0.7-9.5 0.9-19 0.5-28.6 0-4.9-0.2-9.8-0.4-14.7-0.4-4.6 0-9.1 0.2-13.7 0.3-2.5 0-5.1 0-7.6 0.1-1.3 0.1-2.6 0.2-3.7 0.9-1.9 1.3-3.2 3.3-4.8 4.9-3.3 3.4-6.8 6.5-10.3 9.7-0.4 0.3-0.9-0.2-0.5-0.5z"/>
			</g>
		</g>
		<g id="&lt;Group&gt;">
			<rect id="&lt;Path&gt;" class="s12" x="732.8" y="60.5" width="164.8" height="42.7" rx="20.8"></rect>
			<g id="&lt;Group&gt;">
				<g id="&lt;Group&gt;">
					<path id="&lt;Path&gt;" class="s5" d="m755.5 70.7c0.5-1 1.3-1 1.8 0l1.6 3.3c0.6 1.1 1.9 2.1 3.1 2.2l3.6 0.6c1.1 0.1 1.4 0.9 0.6 1.7l-2.7 2.6c-0.8 0.8-1.3 2.4-1.1 3.5l0.6 3.7c0.2 1.1-0.5 1.6-1.5 1.1l-3.3-1.8c-1-0.5-2.6-0.5-3.7 0l-3.2 1.8c-1.1 0.5-1.7 0-1.5-1.1l0.6-3.7c0.2-1.1-0.3-2.7-1.2-3.5l-2.6-2.6c-0.8-0.8-0.6-1.6 0.6-1.7l3.6-0.6c1.2-0.1 2.5-1.1 3-2.2z"/>
				</g>
				<g id="&lt;Group&gt;">
					<path id="&lt;Path&gt;" class="s5" d="m784.6 70.7c0.5-1 1.4-1 1.9 0l1.6 3.3c0.5 1.1 1.9 2.1 3 2.2l3.6 0.6c1.2 0.1 1.5 0.9 0.6 1.7l-2.6 2.6c-0.8 0.8-1.4 2.4-1.2 3.5l0.7 3.7c0.2 1.1-0.5 1.6-1.5 1.1l-3.3-1.8c-1-0.5-2.7-0.5-3.7 0l-3.3 1.8c-1 0.5-1.7 0-1.5-1.1l0.6-3.7c0.2-1.1-0.3-2.7-1.1-3.5l-2.6-2.6c-0.9-0.8-0.6-1.6 0.5-1.7l3.7-0.6c1.1-0.1 2.5-1.1 3-2.2z"/>
				</g>
				<g id="&lt;Group&gt;">
					<path id="&lt;Path&gt;" class="s5" d="m813.8 70.7c0.5-1 1.3-1 1.8 0l1.6 3.3c0.6 1.1 1.9 2.1 3.1 2.2l3.6 0.6c1.1 0.1 1.4 0.9 0.6 1.7l-2.7 2.6c-0.8 0.8-1.3 2.4-1.1 3.5l0.6 3.7c0.2 1.1-0.5 1.6-1.5 1.1l-3.3-1.8c-1-0.5-2.6-0.5-3.7 0l-3.2 1.8c-1.1 0.5-1.7 0-1.5-1.1l0.6-3.7c0.2-1.1-0.3-2.7-1.2-3.5l-2.6-2.6c-0.8-0.8-0.6-1.6 0.6-1.7l3.6-0.6c1.2-0.1 2.5-1.1 3-2.2z"/>
				</g>
				<g id="&lt;Group&gt;">
					<path id="&lt;Path&gt;" class="s5" d="m842.9 70.7c0.5-1 1.4-1 1.9 0l1.6 3.3c0.5 1.1 1.9 2.1 3 2.2l3.7 0.6c1.1 0.1 1.4 0.9 0.5 1.7l-2.6 2.6c-0.8 0.8-1.4 2.4-1.2 3.5l0.7 3.7c0.2 1.1-0.5 1.6-1.5 1.1l-3.3-1.8c-1-0.5-2.7-0.5-3.7 0l-3.3 1.8c-1 0.5-1.7 0-1.5-1.1l0.6-3.7c0.2-1.1-0.3-2.7-1.1-3.5l-2.6-2.6c-0.9-0.8-0.6-1.6 0.5-1.7l3.7-0.6c1.1-0.1 2.5-1.1 3-2.2z"/>
				</g>
				<g id="&lt;Group&gt;">
					<path id="&lt;Path&gt;" class="s5" d="m872.1 70.7c0.5-1 1.3-1 1.8 0l1.6 3.3c0.6 1.1 1.9 2.1 3.1 2.2l3.6 0.6c1.1 0.1 1.4 0.9 0.6 1.7l-2.7 2.6c-0.8 0.8-1.3 2.4-1.1 3.5l0.6 3.7c0.2 1.1-0.5 1.6-1.5 1.1l-3.3-1.8c-1-0.5-2.6-0.5-3.7 0l-3.2 1.8c-1.1 0.5-1.7 0-1.5-1.1l0.6-3.7c0.2-1.1-0.3-2.7-1.2-3.5l-2.6-2.6c-0.8-0.8-0.6-1.6 0.6-1.7l3.6-0.6c1.2-0.1 2.5-1.1 3-2.2z"/>
				</g>
			</g>
			<g id="&lt;Group&gt;">
				<path id="&lt;Path&gt;" class="s8" d="m805.7 100.4c2.3 0 4.6-0.2 6.9-0.2 0.5-0.1 0.5 0.6 0 0.7-2.3 0-4.6 0.2-6.9 0.2-0.4 0-0.4-0.7 0-0.7z"/>
			</g>
			<g id="&lt;Group&gt;">
				<path id="&lt;Path&gt;" class="s8" d="m815.8 100.2c7.8-0.2 15.5 0.1 23.3 0 7.8-0.1 15.4-0.9 23.2-0.8 3.8 0.1 7.7 0.3 11.6 0.4 3.3 0 6.6 0.3 9.9 0 2.2-0.2 4.7-0.6 6.3-2.2 1.8-1.7 2.4-4.1 2.6-6.6 0-0.4 0.7-0.4 0.7 0-0.4 4.4-2.3 8.1-6.9 9.1-2.8 0.6-5.6 0.5-8.5 0.4-4.1 0-8.2-0.2-12.3-0.3-4.3-0.1-8.6-0.2-12.9 0-4.1 0.2-8.2 0.6-12.3 0.7-8.2 0.1-16.5-0.2-24.7 0-0.4 0-0.4-0.7 0-0.7z"/>
			</g>
		</g>
		<g id="&lt;Group&gt;">
			<rect id="&lt;Path&gt;" class="s12" x="485" y="161.9" width="86.7" height="46.1" rx="20.8"></rect>
			<text id="24/7
" style="transform: matrix(.7,0,0,.7,501.364,191.52)" >
				<tspan x="0" y="0" class="t15">24/7
</tspan>
			</text>
			<g id="&lt;Group&gt;">
				<path id="&lt;Path&gt;" class="s8" d="m534.8 204.8c9.9-2.4 21 2.5 30-3.6 0.4-0.3 0.7 0.3 0.4 0.6-9.1 6.1-20.3 1.2-30.2 3.7-0.5 0.1-0.7-0.6-0.2-0.7z"/>
			</g>
			<g id="&lt;Group&gt;">
				<path id="&lt;Path&gt;" class="s8" d="m569.2 179.6c0.2 2.3 0.3 4.5 0.6 6.8 0.2 1.5 0.2 3 0.1 4.6-0.2 2.9-0.6 5.9-2.3 8.4-0.3 0.3-0.9 0-0.6-0.4 1.9-2.8 2.2-6.4 2.2-9.7 0-1.7-0.2-3.4-0.5-5.2-0.2-1.5-0.1-3-0.2-4.5-0.1-0.4 0.6-0.4 0.7 0z"/>
			</g>
		</g>
	</g>
</svg>