<svg version="1.2" xmlns="http://www.w3.org/2000/svg" viewBox="0 0 1440 550" width="1440" height="550">
	<title>5471-ai</title>
	<style>
		.s0 { fill: #ffffff } 
		.s1 { fill: #e2b897 } 
		.s2 { fill: #f8bd8c } 
		.s3 { fill: #31185e } 
		.s4 { fill: #2a1656 } 
		.s5 { fill: #1d1647 } 
		.s6 { fill: #eab186 } 
		.s7 { fill: #1a1a1a } 
		.s8 { fill: #fcfcfc } 
		.s9 { fill: #666b6d } 
		.s10 { fill: #c5a2fd } 
		.s11 { fill: #f2b588 } 
		.s12 { fill: #1b191b } 
		.s13 { fill: #000000 } 
		.s14 { fill: #9e4aff } 
		.s15 { fill: #2c2a30 } 
		.s16 { fill: #755faa } 
		.s17 { fill: #ff7c90 } 
		.s18 { fill: #b08174 } 
		.s19 { fill: #0b0635 } 
		.s20 { fill: #ccdde7 } 
		.s21 { fill: #dc4070 } 
		.s22 { fill: #080305 } 
		.s23 { fill: #231347 } 
		.s24 { fill: #ababab } 
		.s25 { fill: #190444 } 
		.s26 { fill: #8e8d8e } 
		.s27 { fill: #d1d1d3 } 
		.s28 { fill: #999999 } 
		.s29 { fill: #333333 } 
	</style>
	<path id="&lt;Path&gt;" class="s0" d="m0 0h1440v550h-1440z"/>
	<g id="Layer 1">
		<g id="&lt;Group&gt;">
			<path id="&lt;Path&gt;" class="s1" d="m716.7 473.8h-115.7l2-56.8 0.1-1.7v-0.4l95.1-4.3 13.7-0.6 0.4 5.3 1.7 23.2v0.1l0.7 8.4q0 0 0 0l0.2 3.7z"/>
			<path id="&lt;Path&gt;" class="s1" d="m661.5 473.8h-60.6l1.1-57.7 0.1-1.2 1 0.4 11.1 3.8 27.5 9.5q0 0 0.1 0l18.2 6.2z"/>
			<path id="&lt;Path&gt;" class="s2" d="m673.4 265.3l-33.2 3.9-0.9-22.3v-1.6l-0.1-2.9 27.2-3.2 1.8-0.2 1.4 7.4z"/>
			<path id="&lt;Path&gt;" class="s3" d="m678.1 256.4l44.6 16.3q-9.1 50-7.3 59.1c1.8 9.2-0.2 10.8 0 14.6 0.2 3.7-1.3 27.9-0.2 38.2q1.1 10.2-2.7 30.6-29 4.9-33.9 4c-4.8-1-26.9-2.4-37.6-1.3-10.8 1.1-30.2 2.2-36.1 0-5.9-2.1-2.7-5.4-2.7-13.4 0-8.1-3.2-33.9 1.6-49.5q4.9-15.6-13.9-61.4 4.3-9.1 5.3-12.3 1.1-3.3 39.8-19.4z"/>
			<g id="&lt;Group&gt;">
				<path id="&lt;Path&gt;" class="s4" d="m655.3 260l-5.6 18.7-24.6-12.4 6-6.3z"/>
				<path id="&lt;Compound Path&gt;" fill-rule="evenodd" class="s5" d="m650 279.3l-25.6-12.9 6.5-6.8h25zm-24.2-13.2l23.6 11.9 5.3-17.6h-23.4z"/>
			</g>
			<g id="&lt;Group&gt;">
				<path id="&lt;Path&gt;" class="s4" d="m679.4 251.7l6.7 7.2-28.1 19.8-7.5-18.7z"/>
				<path id="&lt;Compound Path&gt;" fill-rule="evenodd" class="s5" d="m657.8 279.4l-7.9-19.7 29.6-8.5 7.2 7.8zm-6.7-19.1l7.1 17.8 27.2-19.2-6.2-6.6z"/>
			</g>
			<g id="&lt;Group&gt;">
				<path id="&lt;Path&gt;" class="s3" d="m609 273.3q16.6 6.4 15.1 71.3l60.2-13.8 7.4 30.5q-66.1 28.7-83.3 28.2c-17.2-0.5-28.3-78.8-24.7-87.3 3.5-8.6 4.5-20.9 24.7-28.5z"/>
			</g>
			<path id="&lt;Path&gt;" class="s2" d="m687.5 332.3l15.6-5.8-3.9 23.5-12.1 0.6-2.7-16.6z"/>
			<path id="&lt;Path&gt;" class="s2" d="m639.1 342.1l-12.7 2.9-0.5-3.1-0.8-5.1 0.8 0.3z"/>
			<path id="&lt;Path&gt;" class="s3" d="m721.5 272.2c6 1.9 9 9.7 13.5 19.6 4.5 9.9 12.4 87.8-4.5 93.4q-16.9 5.7-102.4-15.1l7.4-31.1 63.2 8.5 9.9-70.8q7-6.3 12.9-4.5z"/>
			<path id="&lt;Path&gt;" class="s6" d="m669.6 246.4c-1.3 3.1-3.6 5.9-7.2 7.2-7.9 2.8-17.8-3.1-23.1-6.7v-1.6q0.7 0.1 1.5 0.2c3.5 0.3 8.7 0.2 15.3-1.4 4.6-1.2 8-3.1 10.3-4.9l1.8-0.2z"/>
			<path id="&lt;Path&gt;" class="s2" d="m673.5 210.1c1.4 18.3-7.2 34-20.7 35.1-13.5 1-25.5-13-27-31.3-1.4-18.4 8.3-34.1 21.8-35.1 13.4-1.1 24.4 12.9 25.9 31.3z"/>
			<path id="&lt;Path&gt;" class="s7" d="m655.1 250.3c-12.9 1.9-25.5-11.4-28.3-29.7q-0.3-2.7-0.4-5.2c3 17.7 15.4 30.6 28.1 28.7 11.6-1.7 19.4-15.3 18.8-31.3q0.1 0.4 0.2 0.9c2.7 18.3-5.5 34.7-18.4 36.6z"/>
			<path id="&lt;Path&gt;" class="s7" d="m654 164.2c2.3-2.2 14.8-0.7 17.4 1.8 2.6 2.4 0 5.2-0.7 6.2-0.6 1.1 1.5 3.6 3.1 5.2 1.6 1.7 1.8 3.1 1.3 4.5-0.4 1.5 0.3 16.1 0 19.6q-0.2 3.5-2.8 2.9l-1-3.8q-3.7-11.1-8.1-14.9c-4.3-3.8-10.6-3.2-13.7-2.7-3 0.5-6.9 4.1-10.3 2.1q-3.4-1.9-3.3-15.6c7-11.4 15.7-3.2 18.1-5.3z"/>
			<path id="&lt;Path&gt;" class="s7" d="m637.6 168.1q2.7 14.7 2.7 15c0 0.3-0.5 2.4-2.7 3.5-2.2 1.1-6 3.7-8.2 6.4q-2.2 2.7-2.4 17.9-0.5 2.4-2.5 3.3c-2 0.9-4.2-1.3-4.2-2.5 0.1-1.2-1.5-4.4-2.3-8.3-0.8-3.9-4.3-10.5-1.4-14.4q3-3.9 4.5-6.3 0.2-10.8 12.5-12.1z"/>
			<path id="&lt;Path&gt;" class="s2" d="m630.9 216.7c1.7 3.4 1 7.2-1.4 8.4-2.5 1.2-5.8-0.6-7.5-4.1-1.7-3.5-1.1-7.3 1.4-8.4 2.4-1.2 5.8 0.6 7.5 4.1z"/>
			<path id="&lt;Path&gt;" class="s2" d="m678.4 211.9c-0.5 3.9-3 6.7-5.7 6.4-2.7-0.3-4.6-3.7-4.1-7.5 0.4-3.8 3-6.7 5.7-6.4 2.7 0.3 4.5 3.7 4.1 7.5z"/>
			<path id="&lt;Path&gt;" class="s7" d="m641.5 205c-1.7 0.1-3.5 0.3-5.1 0.7-1.7 0.3-3.4 0.8-4.6 1.6h-0.1c-0.6 0.4-1.5 0.2-1.9-0.4-0.4-0.7-0.2-1.5 0.4-1.9 1.8-1.2 3.7-1.8 5.5-2.2 1.9-0.5 3.7-0.7 5.6-0.9 0.8-0.1 1.6 0.5 1.7 1.4 0 0.8-0.6 1.6-1.4 1.7q-0.1 0-0.1 0z"/>
			<path id="&lt;Path&gt;" class="s7" d="m640 211.7c0.2 1.3-0.5 2.5-1.6 2.7-1.2 0.1-2.2-0.8-2.4-2.1-0.2-1.4 0.5-2.6 1.6-2.8 1.2-0.1 2.2 0.8 2.4 2.2z"/>
			<path id="&lt;Path&gt;" class="s7" d="m655.6 203.3q0 0 0 0c-0.9 0.1-1.7-0.5-1.8-1.3-0.1-0.9 0.5-1.7 1.4-1.8 1.9-0.2 3.7-0.4 5.6-0.4 1.9 0.1 3.8 0.2 5.8 0.9 0.7 0.3 1.1 1.1 0.9 1.8-0.3 0.7-1.1 1.1-1.8 0.9l-0.1-0.1c-1.4-0.4-3.1-0.5-4.8-0.5-1.7 0-3.5 0.2-5.1 0.5z"/>
			<path id="&lt;Path&gt;" class="s7" d="m660.4 206.9c1.2-0.1 2.2 0.9 2.3 2.2 0.1 1.4-0.7 2.5-1.9 2.6-1.1 0.1-2.1-0.9-2.2-2.2-0.1-1.4 0.7-2.6 1.8-2.6z"/>
			<path id="&lt;Path&gt;" class="s7" d="m643.1 241.9c0.7 0.5 3.2-0.1 4-0.3 1.3-0.2 2.9-0.8 3.7-1.9 1-1.4 0.6-3.4 0.4-4.9 0-0.5 0.1-1.7-0.3-2q3.6-0.6 3.6-0.6c-0.3 0.1 0.6 5.1 0.8 5.5 0.4 1.1 1.5 1.7 2.6 2 1.1 0.3 2.3 0.3 3.5 0.2 0.3 0 3-0.3 3.1-0.6-0.1 0.3-0.2 0.5-0.4 0.7-1.8 1.8-3.8 3.5-5.8 5.1q-9.5 0.8-9.8 0.6c-0.3-0.3-5.4-3.8-5.4-3.8z"/>
			<path id="&lt;Path&gt;" class="s8" d="m660.8 228.7c-1.2 2.2-3.9 4.1-7.2 4.7-4.4 0.9-8.6-0.6-10.2-3.4q0-0.1 0.1-0.1 0.8-0.7 1.8-1.3l13-1.5c1 0.2 1.9 0.6 2.5 1.6z"/>
			<g id="&lt;Group&gt;">
				<path id="&lt;Path&gt;" class="s7" d="m642.3 243.7c-0.3-2.7-1.1-11.4 0-14v-0.1l0.4-0.5c0.8-0.6 1.4-1 2.1-1.4 2.1-1.2 4.7-2 7.5-2.1q2.4-0.1 4.6 0.2h0.4q0.6 0.1 1.2 0.2c1.1 0.3 2.4 0.7 3.2 2.2 0.9 1.5 1.3 3.2 1.7 4.8q0.1 0.6 0.3 1.2c0.6 2.5 0.8 4.6 0.6 6.6l-2.1-0.2c0.1-1.8 0-3.7-0.6-5.9q-0.2-0.6-0.3-1.3c-0.4-1.5-0.7-2.9-1.4-4.1-0.4-0.6-0.9-1-1.8-1.2q-0.5-0.1-1.1-0.1l-0.3-0.1q-2.1-0.2-4.3-0.1c-2.5 0.1-4.8 0.7-6.6 1.8q-0.8 0.4-1.5 1c-0.6 1-0.4 7.4 0.1 12.9z"/>
			</g>
			<g id="&lt;Group&gt;">
				<path id="&lt;Path&gt;" class="s7" d="m648.4 221.1q-0.1-0.1-0.2-0.2c-0.1-0.1-0.1-0.3 0.1-0.4l2.3-1.2c0.7-0.4 1.1-1.1 1-1.8l-1.1-8.2c-0.1-0.1 0.1-0.3 0.2-0.3 0.2 0 0.3 0.1 0.3 0.2l1.2 8.2c0.2 0.9-0.4 1.9-1.3 2.4l-2.3 1.2q-0.1 0.1-0.2 0.1z"/>
			</g>
			<g id="&lt;Group&gt;">
				<path id="&lt;Compound Path&gt;" class="s9" d="m661.6 463c-0.3 0-0.5-0.2-0.6-0.5-0.2-9.8-0.8-25.5-1.4-27.2-2.2-1.3-12.7-4.6-18-6.2-0.4-0.1-0.5-0.4-0.4-0.7 0-0.3 0.4-0.5 0.7-0.4 0.6 0.2 15.9 4.7 18.4 6.3 0.4 0.3 0.9 0.6 1.5 14.6 0.3 6.7 0.4 13.5 0.4 13.5 0 0.4-0.2 0.6-0.6 0.6q0 0 0 0z"/>
			</g>
			<g id="&lt;Group&gt;">
				<path id="&lt;Path&gt;" class="s5" d="m625.7 345.6q-0.2 0-0.4-0.1-0.2-0.2-0.2-0.5c-0.1-1.7-2.5-29.6-2.5-29.9 0-0.3 0.2-0.6 0.5-0.6 0.4-0.1 0.7 0.2 0.7 0.5 0.1 1.1 2.1 24.5 2.4 29.2 3.3-0.8 17.4-4.6 23.1-5.7 0.3-0.1 0.6 0.1 0.7 0.4 0 0.4-0.2 0.7-0.5 0.7-6.3 1.3-23.5 5.9-23.7 6q-0.1 0-0.1 0z"/>
			</g>
			<g id="&lt;Group&gt;">
				<path id="&lt;Path&gt;" class="s5" d="m610.3 388.9c-1.9 0-3.6-0.2-5-0.7-8.4-2.7-14.2-25.4-14.4-26.3-0.1-0.3 0.1-0.6 0.4-0.7 0.3-0.1 0.7 0.1 0.7 0.4 0.1 0.2 5.9 23 13.7 25.5 7.9 2.6 27-4.1 27.2-4.2 0.3-0.1 0.6 0 0.8 0.3 0.1 0.3-0.1 0.7-0.4 0.8-0.7 0.2-13.8 4.9-23 4.9z"/>
			</g>
			<g id="&lt;Group&gt;">
				<path id="&lt;Path&gt;" class="s5" d="m656.3 375.6c-0.2 0-0.4-0.1-0.5-0.3-0.2-0.3-0.1-0.7 0.2-0.8l17.9-9c0.3-0.1 0.6 0 0.8 0.3 0.1 0.3 0 0.7-0.3 0.8l-17.8 8.9q-0.2 0.1-0.3 0.1z"/>
			</g>
			<g id="&lt;Group&gt;">
				<path id="&lt;Path&gt;" class="s5" d="m698.1 347.8q0 0-0.1 0c-0.3-0.1-0.5-0.4-0.4-0.7l4.9-30.8c0-0.3 0.3-0.5 0.7-0.5 0.3 0.1 0.5 0.4 0.4 0.7l-4.9 30.8c0 0.3-0.3 0.5-0.6 0.5z"/>
			</g>
			<g id="&lt;Group&gt;">
				<path id="&lt;Path&gt;" class="s5" d="m706.8 385.8q0 0-0.1 0l-29.6-4.6c-0.3-0.1-0.5-0.4-0.5-0.7 0.1-0.3 0.4-0.5 0.7-0.5l29.6 4.6c0.3 0.1 0.5 0.4 0.5 0.7-0.1 0.3-0.3 0.5-0.6 0.5z"/>
			</g>
		</g>
		<g id="&lt;Group&gt;">
			<g id="&lt;Group&gt;">
				<path id="&lt;Path&gt;" class="s2" d="m876.8 209.4l0.7 20.5-16.4 8.2-11.5-13.4 5.3-19.5z"/>
			</g>
			<g id="&lt;Group&gt;">
				<path id="&lt;Path&gt;" class="s3" d="m913.7 377.1v96.7h-49.1v-94.2l45.8-2.3z"/>
			</g>
			<g id="&lt;Group&gt;">
				<path id="&lt;Path&gt;" class="s3" d="m880.6 381.6l-1.7 4.7-1.7 4.5-5.5 15.4-7.1 19.5-11.3 48.1h-44.3q0 0.1 0 0.2l-6.1 0.1 0.1-0.3 2.4-19.7 0.4-2.9 0.9-7.7 0.9-7.2 0.7-5.5 3.2-25.6 0.8-6.9 2.1-16.7z"/>
			</g>
			<g id="&lt;Group&gt;">
				<path id="&lt;Path&gt;" class="s10" d="m840.6 247.7c1.7 5.6-4.5 26.6-3.6 32.6q0.8 6-17.6 49.7-5.7 12.3-3.7 17.5 0.7 1.7 1.6 3.1c2 3.3 4.8 5.5 7 8 2.9 3.2 5.7 22.7 6.1 29.4 0.4 6.8-9.8 13.6-11.4 13.6-1.6 0-13.9-7.2-18-11.6q-4.1-4.3-23.2-23.4-6.6-27.5-6.6-28.6c0-1.2 3.7-34.2 5.7-44.2 2.1-9.9 11.9-21.8 11.5-24.6-0.4-2.8 5.3-6.8 7.7-11.2 2.5-4.3 9.4-11.9 20-17q10.7-5.2 34.8-19.9-11.9 21-10.3 26.6z"/>
			</g>
			<g id="&lt;Group&gt;">
				<path id="&lt;Path&gt;" class="s10" d="m915.8 274.7q4.1 56.1 3.7 65.6c-0.4 9.6-2.4 15.1 0 25.9 2.4 10.7 1.2 13.9 0 17.9q-1.3 3.9-16.8 3.5l-72.7-4.2-27.3-39.5 35.5-110.5 12.7-12.3q14.4 12.3 26.5 4.9 33.5 18.9 38.2 22.5 4.7 3.6 0.2 26.2z"/>
			</g>
			<g id="&lt;Group&gt;">
				<path id="&lt;Path&gt;" class="s10" d="m916.1 250q11.7 11.6 11.4 19.3c-0.3 7.7 3 36.3 2.4 44.5-0.5 8.2 0.9 8.5 1.9 14.6 1.1 6.1 5.6 18.3 6 31.8 0.4 13.5 6.4 23.3 2.3 30q-4.1 6.8-7.2 8.8-1-10.3-2.8-11.3-1.9-1.1-10.6-3.6l-9.7-107.1z"/>
			</g>
			<g id="&lt;Group&gt;">
				<path id="&lt;Path&gt;" class="s6" d="m866.4 211.2q8.3 0 11.1-4.6-0.3 14.6-8.2 15.4c-9.2 1-18.2-16.9-17-14.1q4.8 3.3 14.1 3.3z"/>
			</g>
			<g id="&lt;Group&gt;">
				<path id="&lt;Path&gt;" class="s11" d="m893.8 184.7c-0.2 3.9-2.8 7-5.8 6.8-3-0.1-5.2-3.5-5-7.4 0.2-3.9 2.8-7 5.8-6.8 3 0.1 5.3 3.5 5 7.4z"/>
			</g>
			<g id="&lt;Group&gt;">
				<path id="&lt;Path&gt;" class="s11" d="m850.3 182.3c-0.2 3.9-2.8 7-5.8 6.8-3-0.1-5.3-3.5-5.1-7.4 0.3-3.9 2.9-7 5.9-6.8 3 0.1 5.2 3.5 5 7.4z"/>
			</g>
			<g id="&lt;Group&gt;">
				<path id="&lt;Path&gt;" class="s2" d="m891.4 184.5c-2.9 16.8-12.6 31.1-25.9 30.4-13.4-0.7-20.5-13.2-22.6-33-1.8-17.4 12.6-31.1 26-30.4 13.4 0.7 25.4 15.7 22.5 33z"/>
			</g>
			<g id="&lt;Group&gt;">
				<path id="&lt;Path&gt;" class="s3" d="m857.1 157.8c-1.6 0.7-2.3 1.2-4.3 2.7-2.1 1.4-5 5.3-5.6 6.8q-0.6 1.5-4.2 8.2-0.9-2.2-2-3.1c-2.3-1.9-4-8.2-3.8-11.2 0.3-2.6 1.9-5.4 2.9-7.8 1.1-2.9 2.3-5.9 4.4-8 3.3-3.2 7.9-3.9 11.8-5.6 2.4-1.1 4.3-3 6.4-4.6 1.6-1.3 3.6-2.4 5.6-2.2 2 0.3 3.6 1.7 5.3 2.8 4.6 3.1 8-1.9 12.6-1.1 2.8 0.6 4.5 3.6 5.8 6.3 2.3 4.9 5 7.9 8.6 11.7 2.8 2.9 0.1 6.3-1.5 10-1.2 2.7-3.4 4.1-2.6 7.5 1 4.2 0.8 4.7-2.3 7.4-0.6 0.4-1.1 0.9-1.7 1.2-2.3-3-2.6-7.8-4.9-11.1 0 0-4.5 0.4-7-1.2-1.3-0.9-2.5-2-4.1-2.1-3.4-0.2-7.1 1.4-10.7 1.3-0.9-0.1-1.9-0.1-2.8-0.6-1.3-0.7-2-2.1-2.3-3.6-0.1-0.5 0-2.3 0-3.4-0.1-2-2.5-0.8-3.6-0.3z"/>
			</g>
			<g id="&lt;Group&gt;">
				<circle id="&lt;Path&gt;" class="s12" cx="854.1" cy="181.1" r="2.1"/>
			</g>
			<g id="&lt;Group&gt;">
				<circle id="&lt;Path&gt;" class="s12" cx="879.3" cy="182.4" r="2.1"/>
			</g>
			<g id="&lt;Group&gt;">
				<g id="&lt;Group&gt;">
					<path id="&lt;Path&gt;" class="s3" d="m849.1 175.1c-0.6 0-1.1-0.3-1.3-0.9-0.3-0.7 0-1.5 0.7-1.8 6.8-2.8 12-0.1 12.2 0 0.7 0.4 0.9 1.2 0.6 1.9-0.4 0.7-1.3 0.9-1.9 0.6-0.2-0.1-4.3-2.2-9.8 0.1q-0.3 0.1-0.5 0.1z"/>
				</g>
			</g>
			<g id="&lt;Group&gt;">
				<g id="&lt;Group&gt;">
					<path id="&lt;Path&gt;" class="s3" d="m874.7 176c-0.6 0-1.1-0.4-1.3-0.9-0.2-0.8 0.2-1.6 0.9-1.8 7-2.4 11.9 0.6 12.1 0.7 0.7 0.4 0.9 1.3 0.5 2-0.4 0.6-1.3 0.8-2 0.4-0.2-0.1-4.1-2.4-9.7-0.5q-0.3 0.1-0.5 0.1z"/>
				</g>
			</g>
			<g id="&lt;Group&gt;">
				<path id="&lt;Compound Path&gt;" fill-rule="evenodd" class="s12" d="m892.2 178.6q0 0 0 0.1 0 0.2-0.1 0.4-0.1 0.3-0.3 0.5-0.2 0.3-0.6 0.4-0.2 0.1-0.6 0.4c-0.6 0.6-0.7 1.2-1.3 1.4q-0.1 0.1-0.1 0.1c0 1.4-0.3 3.7-1 5.4-0.7 1.5-1.6 2.5-2.8 3.1q-0.9 0.4-1.9 0.7c-1.1 0.2-2.4 0.3-3.6 0.2-1.3-0.1-2.6-0.3-3.6-0.7-2.4-0.8-4-2.7-4.6-5.3-0.6-2.2-0.7-4.4-0.5-5.8q0 0-0.1 0c-0.2 0-0.4-0.1-0.5-0.2 0-0.1 0-0.1 0-0.1-0.2-0.3-1.1-1.1-2.9-1.2-1.8-0.1-2.7 0.6-3 0.8q0 0.1-0.1 0.1-0.2 0.3-0.5 0.2c0 1.3-0.3 3.5-1.1 5.8-0.9 2.5-2.7 4.2-5.1 4.7-1.1 0.3-2.4 0.4-3.7 0.3-1.2 0-2.5-0.3-3.6-0.6q-1.6-0.5-2.6-1.5c-0.7-0.7-1.2-1.6-1.6-2.8-0.5-1.7-0.5-4.1-0.4-5.4q0-0.1-0.1-0.1c-0.6-0.3-0.8-0.9-1.3-1.6q-0.3-0.4-0.6-0.5c-0.5-0.2-0.8-0.7-0.8-1.3q0 0 0-0.1 0-0.5 0.3-0.8 0.3-0.4 0.7-0.5 0.8-0.2 2.3-0.4 0.5 0 1.3-0.1c1.3-0.1 3.2-0.2 5.3-0.2 1.5 0.1 2.9 0.1 4.4 0.2 1.2 0.1 2.4 0.3 3.4 0.5q0.1 0.1 0.3 0.1c4.1 0.9 4.1 1.9 4.1 2.4-0.1 0 0 0.1 0.1 0.1 0.7-0.4 1.6-0.5 2.4-0.5 0.8 0.1 1.6 0.3 2.4 0.7 0 0 0.1 0 0.1-0.1 0-0.4 0.1-1.3 3.5-1.8q0.4 0 0.8-0.1 1.4-0.1 2.9-0.1c1.9-0.1 3.9 0.1 5.7 0.3 1.3 0.1 2.5 0.3 3.5 0.5 1.1 0.1 1.9 0.3 2.5 0.4q1.3 0.3 2.1 0.6 0.2 0.1 0.3 0.2 0 0 0 0 0.1 0.1 0.2 0.2 0.3 0.3 0.4 0.8 0 0 0 0 0 0.1 0 0.2zm-28.7-0.1q0 0 0-0.1c-0.6-1.1-2-2-5.6-2.9-3.7-0.8-7.5-0.4-9.3 0.4q-0.2 0.1-0.4 0.3c-1 0.7-1.5 2.2-1.7 2.9v0.1c-0.1 1.2-0.2 3.8 0.4 5.7 0.3 1 0.8 1.9 1.4 2.5q1 0.9 2.5 1.4c2.1 0.7 4.9 0.9 7 0.4 2.2-0.6 3.9-2.2 4.7-4.5 0.9-2.6 1.3-5.2 1-6.2zm25.2 2.9c-0.1-0.9-0.5-2.7-1.7-3.4q-0.2-0.1-0.4-0.2c-1.8-0.9-5.3-1.6-8.8-1.2-3.7 0.4-5.2 1.2-5.9 2.3q0 0 0 0.1c-0.4 0.9-0.3 3.6 0.3 6.2 0.6 2.5 2.1 4.2 4.2 5 2 0.7 4.8 0.9 7 0.4q0.9-0.2 1.6-0.5c1.2-0.6 2.1-1.5 2.7-3 0.8-1.8 1-4.5 1-5.7z"/>
			</g>
			<g id="&lt;Group&gt;">
				<path id="&lt;Path&gt;" class="s13" d="m865.6 203.3c-2.6 0-4.4-1.2-4.4-1.3-0.1 0-0.1-0.2-0.1-0.3 0.1-0.1 0.2-0.1 0.3 0 0.2 0.1 4.5 2.9 9.5-0.7 0.1 0 0.2 0 0.3 0.1 0 0.1 0 0.2-0.1 0.3-2 1.4-3.9 1.9-5.5 1.9z"/>
			</g>
			<g id="&lt;Group&gt;">
				<path id="&lt;Path&gt;" class="s13" d="m866.2 195.2q-0.1 0-0.1-0.1c-0.1 0-1.1-0.7-1.2-1.5-0.1-0.7 0.2-4.4 0.3-4.6 0-0.1 0.1-0.2 0.2-0.2 0.1 0.1 0.2 0.2 0.2 0.3-0.1 1.3-0.3 3.9-0.3 4.5 0.1 0.5 0.7 1 1 1.2 0.1 0 0.1 0.2 0.1 0.3q-0.1 0.1-0.2 0.1z"/>
			</g>
			<g id="&lt;Group&gt;">
				<path id="&lt;Path&gt;" class="s14" d="m813.4 304.7q-0.1 0.1-0.2 0c-0.3-0.1-0.4-0.5-0.3-0.8 0.6-1.3 6-17.4 6.1-18.6 0-0.3 0.3-0.6 0.6-0.5 0.3 0 0.6 0.3 0.6 0.6-0.2 1.5-5.7 17.8-6.2 19-0.1 0.2-0.3 0.3-0.6 0.3z"/>
			</g>
			<g id="&lt;Group&gt;">
				<path id="&lt;Path&gt;" class="s14" d="m869.4 229.1c-2.3 0-5.1-0.4-8.3-1.6-0.4-0.1-6.4-3.2-7.6-3.8-0.3-0.1-0.4-0.5-0.3-0.8 0.2-0.3 0.5-0.4 0.8-0.2 2.7 1.3 7.1 3.6 7.5 3.7 10.4 3.8 15.4-0.7 15.5-0.8 0.2-0.2 0.6-0.2 0.8 0 0.2 0.3 0.2 0.6 0 0.9-0.2 0.1-2.9 2.6-8.4 2.6z"/>
			</g>
			<g id="&lt;Group&gt;">
				<path id="&lt;Path&gt;" class="s14" d="m864.6 426.3q-0.1 0-0.2 0c-0.3-0.1-0.4-0.5-0.3-0.8l7-19.5c0.2-0.3 0.5-0.5 0.8-0.3 0.3 0.1 0.5 0.4 0.3 0.7l-7 19.5c-0.1 0.3-0.3 0.4-0.6 0.4z"/>
			</g>
		</g>
		<g id="&lt;Group&gt;">
			<g id="&lt;Group&gt;">
				<g id="&lt;Group&gt;">
					<g id="&lt;Group&gt;">
						<path id="&lt;Path&gt;" class="s2" d="m1069.9 242.8l-35.1 0.6 2.5-28.7h29.5z"/>
					</g>
					<g id="&lt;Group&gt;">
						<path id="&lt;Path&gt;" class="s7" d="m1077.1 193.3c0 18.8-11.3 34-25.3 34-13.9 0-25.2-15.2-25.2-34 0-7.8-1.9-19.7 1.4-25.5 4.6-8 15.7-8.5 23.8-8.5 8.1 0 17.7-1.9 22.3 6.1 3.4 5.8 3 20.1 3 27.9z"/>
					</g>
					<g id="&lt;Group&gt;">
						<path id="&lt;Path&gt;" class="s7" d="m1079.7 184.8l-52.6 1.7q-4.4-6.7-5.2-15c-0.8-8.2-5.2-12-1.8-19.6 3.3-7.7 4.7-5.1 8.5-10 3.8-4.9 7.2-0.8 12.5-3.7 5.2-2.9 9-1.1 11.2-1.1 7.1 0 7.7 0.9 9 0.9 7.3 0 7.4 2.2 11.9 3.5 4.4 1.2 2.1 2.5 6.2 6.8q4.2 4.4 1.5 30.7z"/>
					</g>
					<g id="&lt;Group&gt;">
						<path id="&lt;Path&gt;" class="s2" d="m1077.1 187.8c0 18.7-11.3 34-25.3 34-13.9 0-25.2-15.3-25.2-34 0-7.8-1.9-19.7 1.4-25.5 4.6-8 15.7-8.5 23.8-8.5 8.1 0 17.7-1.9 22.3 6.1 3.4 5.8 3 20 3 27.9z"/>
					</g>
					<g id="&lt;Group&gt;">
						<path id="&lt;Path&gt;" class="s2" d="m1031.7 189.7c0.4 4-1.5 7.4-4 7.6-2.6 0.2-4.9-2.9-5.2-6.8-0.4-4 1.4-7.4 4-7.6 2.6-0.3 4.9 2.8 5.2 6.8z"/>
					</g>
					<g id="&lt;Group&gt;">
						<path id="&lt;Path&gt;" class="s2" d="m1077.1 182.9c2.6 0.4 4.2 3.9 3.6 7.9-0.6 3.9-3.1 6.8-5.7 6.4-2.5-0.3-4.1-3.8-3.5-7.8 0.6-4 3.1-6.9 5.6-6.5z"/>
					</g>
					<g id="&lt;Group&gt;">
						<path id="&lt;Path&gt;" class="s7" d="m1046.3 172.8c-0.1 1.1-0.9 1.9-2 1.9-0.5 0-1 0-1.5 0.1q-0.8 0-1.6 0-1.5 0.1-3 0.2-1.5 0.2-3 0.5-1.5 0.2-2.9 0.6c-0.7 0.2-1.4-0.2-1.6-0.9-0.2-0.5 0-1.1 0.5-1.4 1-0.7 2.1-1.2 3.2-1.5q1.6-0.6 3.2-0.9 1.7-0.3 3.4-0.5 0.8-0.1 1.6-0.1c0.6 0 1.1 0 1.7 0 1.1 0 2 0.9 2 2z"/>
					</g>
					<g id="&lt;Group&gt;">
						<path id="&lt;Path&gt;" class="s7" d="m1071.1 175.6c-0.3 0.5-0.9 0.7-1.5 0.5h-0.1q-1.4-0.4-2.8-0.6-1.5-0.3-3-0.5-1.5-0.1-3-0.2-0.8 0-1.6 0c-0.5-0.1-1-0.1-1.5-0.1-1.1 0-2-0.9-2-2 0-1 0.9-1.9 2-1.9 0.6 0 1.1 0 1.7 0q0.8 0 1.6 0.1 1.7 0.2 3.3 0.5 1.7 0.3 3.3 0.9c1.1 0.3 2.2 0.8 3.2 1.5 0.6 0.4 0.8 1.2 0.4 1.8z"/>
					</g>
					<g id="&lt;Group&gt;">
						<ellipse id="&lt;Path&gt;" class="s7" cx="1039.1" cy="184.2" rx="1.8" ry="2.3"/>
					</g>
					<g id="&lt;Group&gt;">
						<ellipse id="&lt;Path&gt;" class="s7" cx="1063.1" cy="184.2" rx="1.8" ry="2.3"/>
					</g>
					<g id="&lt;Group&gt;">
						<path id="&lt;Path&gt;" class="s15" d="m1051.9 198.1q0 0 0 0c-0.3 0-2.7-0.2-3.2-0.9q-0.2-0.3-0.1-0.6c0.3-1 1.5-8.1 1.5-8.2 0.1 0 0.1-0.1 0.2-0.1 0.1 0 0.1 0.1 0.1 0.2 0 0.3-1.2 7.1-1.5 8.2q-0.1 0.2 0 0.3c0.4 0.6 2.3 0.8 3 0.8 0.1 0 0.1 0.1 0.1 0.1 0 0.1-0.1 0.2-0.1 0.2z"/>
					</g>
					<g id="&lt;Group&gt;">
						<path id="&lt;Path&gt;" class="s7" d="m1062.1 146c6.6-3.4 14.2 8.6 15.3 14.2 1.1 5.5-2.3 7.5-5.5 3.4-3.2-4.1-5.4-2.8-9.8-3.4-4.5-0.7-3.4-3.5-6.7-1.3-3.4 2.1-7.7 2.5-10.2-0.2-2.5-2.7-5.5 3.3-10.8 4.7q-5.2 1.4-10.9-6.7 31.9-7.3 38.6-10.7z"/>
					</g>
					<g id="&lt;Group&gt;">
						<path id="&lt;Compound Path&gt;" fill-rule="evenodd" class="s7" d="m1078.3 176.5l-0.2 3.7q-0.5-0.1-1 0.3-0.1 0-0.2 0.1-0.2 0.2-0.4 0.7c-0.1 0.4-0.2 0.9-0.4 1.6q-0.2 0.9-0.5 2c-0.5 2-1.2 4.3-2.2 5.6-0.5 0.6-1.2 1.2-2 1.5-2.3 1.2-5.5 1.3-7.9 1.2-4.2-0.2-6.9-2.1-8.1-5.3q-0.5-1.2-0.8-2.3c-0.7-2.1-1.3-3.8-1.8-4.4-0.4-0.5-0.9-0.5-1.2-0.5-0.4 0-0.8 0-1.2 0.5-0.6 0.7-1.1 2.4-1.9 4.6q-0.3 1-0.7 2.1c-1.2 3.2-4 5.1-8.2 5.3-2.3 0.1-5.6 0-7.9-1.2q-1.2-0.5-2-1.5c-0.7-1-1.3-2.5-1.7-4.1-0.4-1.2-0.7-2.5-1-3.5-0.1-0.7-0.2-1.3-0.3-1.6q-0.2-0.4-0.4-0.6-0.1-0.1-0.2-0.2-0.5-0.4-1.1-0.3l-0.2-3.7q0.6-0.2 1.3-0.4 0 0 0 0c1.5-0.3 3-0.6 4.6-0.7 2-0.2 4-0.2 6-0.2q0 0 0 0c4 0.2 7.7 0.7 9.9 1.4 1.5 0.5 3.4 1.3 5 1.3 1.6 0 3.4-0.8 5-1.3 1.9-0.6 5.2-1.2 8.9-1.3q0 0 0 0c1.8-0.1 3.8-0.1 5.7 0 1.9 0.1 3.8 0.3 5.5 0.7q0.1 0.1 0.3 0.1 0.7 0.2 1.3 0.4zm-31.6 9.3c0.7-2.1 1.2-5.1 0.5-6.3-0.9-1.7-5.7-2.3-7.9-2.5-2.9-0.1-7.3-0.1-9.1 1.2-1.5 1-1.3 3.9-0.9 5.7q0 0.5 0.1 0.9 0.2 0.7 0.4 1.6c0.4 1.4 1 2.9 2 3.7q0.1 0.1 0.2 0.2c1.8 1 5.2 1.6 8 1.2 2.9-0.3 4.8-1.4 5.9-3.6 0.2-0.4 0.5-1.2 0.8-2.1zm27.1-1.5c0.4-1.9 0.7-5-0.9-6.1-1.7-1.3-6.1-1.3-9.1-1.2-2.2 0.2-7 0.8-7.9 2.5-0.6 1.2-0.2 3.9 0.5 6 0.2 1 0.6 1.9 0.9 2.4 1.1 2.2 3 3.3 5.8 3.6 2.9 0.4 6.3-0.2 8-1.2q0.2-0.1 0.3-0.2c1.3-1.1 1.9-3.5 2.3-5.1q0-0.1 0-0.2 0.1-0.2 0.1-0.5z"/>
					</g>
					<g id="&lt;Group&gt;">
						<g id="&lt;Group&gt;">
							<path id="&lt;Path&gt;" class="s1" d="m1106.1 243.4q20.9 8.6 25.1 13.6c4.2 5 18.7 47.9 18.7 70.4 0 22.5 3.4 57.1 0 63.6-3.4 6.5-18.7 38.8-28.9 46.2q-10.2 7.4-14.4 6.9l-2.5-33.5 11-53-5.6-79.9z"/>
						</g>
						<g id="&lt;Group&gt;">
							<path id="&lt;Path&gt;" class="s16" d="m1051.1 426c-1 4.9-2.4 24.1-3.6 45.1q0 1.3-0.1 2.7h-52.8q-0.5-32.1 0.5-62.8 0.5 0 1.4 0.1 0.7 0 1.7 0.1 0.1 0 0.2 0 0 0 0 0c4.8 0.3 14.2 1.1 23.7 2.5 5 0.7 10 1.6 14.4 2.8 6.2 1.5 11.3 3.5 13.5 6q0.3 0.3 0.4 0.5 0.2 0.2 0.3 0.4 0.7 1.2 0.4 2.6z"/>
						</g>
						<g id="&lt;Group&gt;">
							<path id="&lt;Path&gt;" class="s16" d="m1106.6 416.5v57.3h-58.3l-0.6-2.3-0.2-0.4-11.4-21.1-13.2-23.9-2.2-3.9-0.2-0.4-3-5.3z"/>
						</g>
						<g id="&lt;Group&gt;">
							<path id="&lt;Path&gt;" class="s17" d="m1034.8 228.8h35.1l4.6 8.2 31.6 6.3q21.2 10.1 21.8 11.7c0.6 1.7 8 86.6 4.9 107.4-3.1 20.8-1.2 43.8-4.3 54.2q-3.1 10.4-128.5 4.4-25.5-154.5-17.4-161.6c8.1-7.1 48.6-18.1 50-20.5q1.3-2.4 2.2-10.1z"/>
						</g>
						<g id="&lt;Group&gt;">
							<path id="&lt;Path&gt;" class="s1" d="m1132.8 363.2c-3.1 21-1.2 44.1-4.3 54.6-1.1 3.8-17.5 8.9-38.8 9.4-16.1 0.4-35-4.3-51-4.7q-1.8 0-3.5-0.1-19.9-0.4-35.2-0.2-25.5-155.4-17.4-162.6c7.1-6.3 39.1-15.6 47.8-19.4l25.2 44.5 22-47 28.5 5.7q21.2 10.2 21.8 11.8c0.6 1.7 8 87.1 4.9 108z"/>
						</g>
						<g id="&lt;Group&gt;">
							<path id="&lt;Path&gt;" class="s18" d="m1106 337.2c-0.3 0-0.6-0.3-0.6-0.6l-0.3-26.6c-0.1-3.3-1.5-13.4-1.5-13.5-0.1-0.3 0.1-0.6 0.5-0.7 0.3 0 0.6 0.2 0.6 0.5 0.1 0.5 1.5 10.3 1.5 13.7l0.4 26.6c0 0.3-0.2 0.6-0.6 0.6q0 0 0 0z"/>
						</g>
					</g>
					<g id="&lt;Group&gt;">
						<path id="&lt;Path&gt;" class="s0" d="m1060 206.5c-0.8 2.5-3.9 4.4-7.8 4.7-4.5 0.3-8.5-1.7-9-4.6z"/>
					</g>
				</g>
				<g id="&lt;Group&gt;">
					<path id="&lt;Path&gt;" class="s18" d="m1056 285.3c-0.2 0-0.4-0.1-0.5-0.3l-12-21.2c-0.2-0.2-0.1-0.6 0.2-0.8 0.3-0.1 0.6 0 0.8 0.3l11.4 20.1 14.2-30.3c0.1-0.3 0.5-0.4 0.8-0.3 0.3 0.2 0.4 0.5 0.3 0.8l-14.7 31.3c-0.1 0.2-0.3 0.4-0.5 0.4q0 0 0 0z"/>
				</g>
				<g id="&lt;Group&gt;">
					<path id="&lt;Path&gt;" class="s5" d="m1086.5 427.8c-6.9 0-15.2-0.5-24-2.2-22-4.3-36.8-3-37-3-0.3 0.1-0.6-0.2-0.6-0.5-0.1-0.3 0.2-0.6 0.5-0.6 0.2-0.1 15.2-1.4 37.3 2.9 22.4 4.4 41.9 0.9 42.1 0.9 0.3-0.1 0.6 0.1 0.7 0.4 0 0.4-0.2 0.7-0.5 0.7-0.1 0.1-7.5 1.4-18.5 1.4z"/>
				</g>
			</g>
			<g id="&lt;Group&gt;">
				<path id="&lt;Path&gt;" class="s5" d="m1055.7 461c-0.3 0-0.6-0.3-0.6-0.6v-15.8q0-0.1 0.1-0.2l1.8-8.7c0.1-0.4 0.4-0.6 0.7-0.5 0.3 0.1 0.5 0.4 0.5 0.7l-1.9 8.7v15.8c0 0.3-0.3 0.6-0.6 0.6z"/>
			</g>
		</g>
		<g id="&lt;Group&gt;">
			<g id="&lt;Group&gt;">
				<g id="&lt;Group&gt;">
					<path id="&lt;Path&gt;" class="s19" d="m766.4 215.8q7.3-2.7 13.9 0.6c7 3.6 10.5 7.2 12.1 37.2 1.6 30.1 1.5 45.1 1.6 47.4q0.2 2.3-57.2 1.6v-74.7z"/>
				</g>
				<g id="&lt;Group&gt;">
					<path id="&lt;Path&gt;" class="s8" d="m737.4 334.4l1.2 99.1q-11.4 8.1-31.3 4.1c-8.7-35.9 2-32.4 1.5-82.7q-0.6-50.4 28.6-53.6z"/>
				</g>
				<g id="&lt;Group&gt;">
					<path id="&lt;Path&gt;" class="s17" d="m808.7 474.1v-0.3h-93.7c0.9-5.6 3-13.9 5.7-23.1q0.3-1.2 0.7-2.5v-0.1c1-3.2 1.9-6.4 2.9-9.6l0.1-0.2c4.5-14.8 9.5-29.7 12.2-37.7q0 0 0 0c0.7-1.9 1.2-3.4 1.6-4.4q0.3-1 0.5-1.6h61c0.2 0.5 0.5 1.8 0.9 3.8q0.2 0.7 0.4 1.5c1.2 5.8 3 15.5 5 26q0 0.1 0 0.1 0.2 1.2 0.4 2.4c0.9 4.7 1.8 9.5 2.7 14.2q0.1 0.8 0.3 1.6 0.3 1.8 0.6 3.5 0 0.1 0.1 0.3 0.2 1.6 0.5 3.1 0.3 1.5 0.6 3c1.9 10.4 3.3 18.3 3.5 19.7q0.1 0.1 0.1 0.2z"/>
				</g>
				<g id="&lt;Group&gt;">
					<path id="&lt;Path&gt;" class="s8" d="m793 299.7l12.5 2.2v87.7c0 5.6-4.5 10.2-10.1 10.3l-59.7 0.7c-21.6-4-6.6-38.5-8.4-66.4q-1.8-27.9 11.5-31.7z"/>
				</g>
				<g id="&lt;Group&gt;">
					<path id="&lt;Path&gt;" class="s2" d="m775.3 292.4l-21.6 0.7 0.7-18.5h19.8z"/>
				</g>
				<g id="&lt;Group&gt;">
					<path id="&lt;Path&gt;" class="s8" d="m751.8 289.7h27.6c1.7 0 3.3 1.3 3.6 3.2l1.6 7.9-37.9 1.5 1.4-9.3c0.3-1.9 1.9-3.3 3.7-3.3z"/>
				</g>
				<g id="&lt;Group&gt;">
					<path id="&lt;Path&gt;" class="s6" d="m774.6 281.3c-1.2 2.6-3.5 5.1-6.7 5.5-5.5 0.6-10.8-5.5-13.5-8.9-0.5-0.6-0.8-1.2-1.1-1.6 0.5 0.3 1.2 0.8 2.5 1.2 2.1 0.8 5.3 1.7 9.6 1.6 3.2 0 5.6-0.7 7.3-1.6h1.7z"/>
				</g>
				<g id="&lt;Group&gt;">
					<g id="&lt;Group&gt;">
						<path id="&lt;Path&gt;" class="s2" d="m783.9 252.8c0.4 14.9-8.4 27.3-19.9 27.6-11.4 0.4-21-11.4-21.5-26.3-0.5-14.9 8.4-27.3 19.8-27.6 11.5-0.4 21.1 11.4 21.6 26.3z"/>
					</g>
				</g>
				<g id="&lt;Group&gt;">
					<path id="&lt;Path&gt;" class="s2" d="m788.6 254.4c0 3.1-2.7 6.1-4.9 6.1-2.2 0-4-2.5-4-5.6 0-3.1 2.9-5.6 5.1-5.6 2.2 0 3.8 2 3.8 5.1z"/>
				</g>
				<g id="&lt;Group&gt;">
					<g id="&lt;Group&gt;">
						<path id="&lt;Path&gt;" class="s13" d="m776.2 244.8q-0.2 0-0.5-0.1c-4.4-1.5-7.3-0.1-7.4-0.1-0.8 0.4-1.8 0-2.2-0.8-0.4-0.7 0-1.7 0.8-2.1 0.1-0.1 4.1-1.9 9.8-0.1 0.9 0.3 1.4 1.2 1.1 2.1-0.2 0.6-0.9 1.1-1.6 1.1z"/>
					</g>
				</g>
				<g id="&lt;Group&gt;">
					<g id="&lt;Group&gt;">
						<path id="&lt;Path&gt;" class="s13" d="m745.4 247.3c-0.5 0-1-0.2-1.3-0.7-0.5-0.7-0.3-1.7 0.4-2.2 0.1-0.1 3.8-2.6 9.7-1.6 0.9 0.2 1.5 1 1.4 1.9-0.2 0.8-1 1.4-1.9 1.3-4.6-0.8-7.3 1-7.4 1q-0.4 0.3-0.9 0.3z"/>
					</g>
				</g>
				<g id="&lt;Group&gt;">
					<g id="&lt;Group&gt;">
						<path id="&lt;Path&gt;" class="s13" d="m763.1 260h-1.6c-0.2 0-0.3-0.1-0.3-0.2v-6.1c0-0.1 0.1-0.3 0.3-0.3 0.1 0 0.3 0.2 0.3 0.3v5.8h1.3c0.1 0 0.3 0.1 0.3 0.3 0 0.1-0.2 0.2-0.3 0.2z"/>
					</g>
				</g>
				<g id="&lt;Group&gt;">
					<ellipse id="&lt;Path&gt;" class="s13" cx="751.1" cy="252.4" rx="1.8" ry="2.2"/>
				</g>
				<g id="&lt;Group&gt;">
					<ellipse id="&lt;Path&gt;" class="s13" cx="771.9" cy="250.2" rx="1.8" ry="2.2"/>
				</g>
				<g id="&lt;Group&gt;">
					<path id="&lt;Path&gt;" class="s8" d="m770.1 266.7c-0.5 2.3-2.9 4.4-6 4.8-3.6 0.5-6.8-1.3-7.4-4z"/>
				</g>
				<g id="&lt;Group&gt;">
					<path id="&lt;Path&gt;" class="s19" d="m765.9 215.2c5.6 11.2-8 15.3-13.1 21.4-5.6 6.6-9.5 19.8-9.2 28.5 0.8 23.9 8.9 43-6.8 64.9 3.2-13.3-1.7-23.4-5.9-35.5-4.5-13.2-4.4-26.8-2.9-40.6 1.2-10.3 1.6-27.1 9.4-34.9 4.5-4.5 24.9-11 28.5-3.8z"/>
				</g>
				<g id="&lt;Group&gt;">
					<path id="&lt;Path&gt;" class="s19" d="m779.4 224.9l6.2 23.5-3.2 1.8q-1.7-12.7-9.7-16.5-5.6-2.7-8.1-7.2z"/>
				</g>
				<g id="&lt;Group&gt;">
					<path id="&lt;Path&gt;" class="s2" d="m810.7 447.9l-4-1.3q-0.5-0.7 0.1-1.6c0.5-0.9 1.8-0.9 2.4-0.8q0.7 0.1 2 0.6 1.5-1.8 3.1-2.6-0.4-2.2 0.3-3.6-1.6-1.7-1.4-4.1-0.2-0.3-0.4-0.8c-0.2 0.1-0.6 0.3-0.9 0.4-0.3 0.2-0.4 1.4-0.2 2.1 0.1 0.7 0.3 3 0 4.3-0.2 1.3-1.2 2.1-2.6 2.1-1.5-0.1-1.5-1.5-1.8-2.8-0.3-1.2-0.2-2.4-0.1-4.7 0.1-2.3-0.5-3.5-0.9-5.6q-0.5-2.2-0.3-3.9c0.2-1.8 0.9-4 1.1-4.6-0.2-1.3-0.2-2.5 0.2-3.4q0.8-1.7-1.7-13.7l12.3 1.4-1.1 13.6q3.8 8 5.1 11.6c1.2 3.6 2.1 5.5 2 7.3q-1.9 7.2-3.8 8.8c-2 1.6-6.3 4.5-7.6 4.6q-1.4 0.1-5-0.4-0.8 0-1.4-0.4-0.6 0.1-0.2-1.2c0.5-1.2 1.8-0.9 4.8-1.3z"/>
				</g>
				<g id="&lt;Group&gt;">
					<path id="&lt;Path&gt;" class="s8" d="m798.8 300.6q17.1-1.2 23.1 22.8c6.1 24 5.4 33 5.1 48.3-0.3 15.4 17.5 45.6 1.3 65q-13.7-6.8-26.4-9.4-2.2-2.4-0.9-27.7 1.2-25.2-2.2-99z"/>
				</g>
				<g id="&lt;Group&gt;">
					<path id="&lt;Path&gt;" class="s6" d="m721.4 448.2v-0.1q-3-2.4-3.1-9.5 1 0 6.1-0.3z"/>
				</g>
			</g>
			<g id="&lt;Group&gt;">
				<path id="&lt;Path&gt;" class="s20" d="m732.7 387.4c-0.3 0-0.5-0.2-0.5-0.5-0.1-0.2-0.6-5.9 0.7-11.8 0.6-3 0.2-4.7-0.5-7.4-0.6-2.3-1.4-5.2-1.7-10.2-0.6-10.6 3.3-16.6 3.5-16.8 0.2-0.3 0.5-0.4 0.8-0.2 0.3 0.2 0.3 0.6 0.1 0.8 0 0.1-3.8 6-3.2 16.2 0.3 4.8 1 7.7 1.6 9.9 0.7 2.7 1.2 4.7 0.5 8-1.2 5.7-0.7 11.3-0.7 11.4 0.1 0.3-0.2 0.6-0.5 0.6q0 0-0.1 0z"/>
			</g>
			<g id="&lt;Group&gt;">
				<path id="&lt;Path&gt;" class="s20" d="m799.2 396.5q0 0 0 0c-0.3-0.1-0.6-0.3-0.5-0.7 0.4-4.6 0.8-8.8 0.4-12.9-0.3-2.1-0.5-4.3-0.8-6.4-0.6-4.7-1.1-9.5-1.3-14.4 0-0.3 0.3-0.6 0.6-0.6 0.3 0 0.6 0.3 0.6 0.6 0.1 4.8 0.7 9.4 1.3 14.2 0.2 2.1 0.5 4.3 0.7 6.5 0.5 4.2 0.1 8.5-0.4 13.2 0 0.3-0.3 0.5-0.6 0.5z"/>
			</g>
			<g id="&lt;Group&gt;">
				<path id="&lt;Path&gt;" class="s21" d="m771.1 401.2h-35.4c-0.3 0-0.6-0.2-0.6-0.6 0-0.3 0.3-0.6 0.6-0.6h35.4c0.3 0 0.6 0.3 0.6 0.6 0 0.4-0.3 0.6-0.6 0.6z"/>
			</g>
		</g>
		<g id="&lt;Group&gt;">
			<g id="&lt;Group&gt;">
				<path id="&lt;Path&gt;" class="s2" d="m1225.7 212.5h29.2v26.3h-29.2z"/>
			</g>
			<g id="&lt;Group&gt;">
				<path id="&lt;Path&gt;" class="s6" d="m1254.9 214.7v8.1c-2.2 2.2-5.1 3.9-8.8 4.2-7.8 0.7-15.5-5.1-20.4-9.6v-2.8q0.1 0.1 0.1 0.1c3.5 1 9 2.1 16.2 2.1 5.2 0 9.2-1 12.1-2.1z"/>
			</g>
			<g id="&lt;Group&gt;">
				<path id="&lt;Path&gt;" class="s11" d="m1220.4 190.1c0.4 4.4-1.3 8.1-3.8 8.3-2.5 0.2-4.8-3.2-5.2-7.6-0.3-4.3 1.4-8.1 3.9-8.3 2.4-0.2 4.8 3.2 5.1 7.6z"/>
			</g>
			<g id="&lt;Group&gt;">
				<path id="&lt;Path&gt;" class="s11" d="m1268.3 191c-0.5 4.4-2.9 7.7-5.4 7.4-2.5-0.3-4.1-4.1-3.5-8.5 0.5-4.3 2.9-7.6 5.4-7.3 2.5 0.2 4 4 3.5 8.4z"/>
			</g>
			<g id="&lt;Group&gt;">
				<ellipse id="&lt;Path&gt;" class="s2" cx="1240.1" cy="190.1" rx="23.6" ry="31.5"/>
			</g>
			<g id="&lt;Group&gt;">
				<path id="&lt;Path&gt;" class="s1" d="m1232.9 161.1c-1.9 2.1-0.5 0.2-2.8 3.1-2.3 2.9-2.8 2.6-5.5 6.2-2.7 3.7-3.8 0-4 3.6q-0.1 3.6-3.6 11.9-0.6 0.3-1.1-0.5c-0.6-0.9-0.9-1.2-2.6-1.7-1.6-0.6-2.9-0.6-3.5-2-0.5-1.5-2.4-1.8-5.7-2.4-3.4-0.5-2.2-2.3-3.7-3.6-1.5-1.3-0.3-1.7 2.6-3.2 2.9-1.5 1.9-3.7 0.6-6-1.3-2.2-0.7-3.2 2.3-5.1 3-1.9 2.4-4.1 4.7-6.1 2.2-2.1 0.4-0.6 8.5-8.3 8.2-7.8 14.5-3.1 15.2-3.1q0.4 15.2-1.4 17.2z"/>
			</g>
			<g id="&lt;Group&gt;">
				<g id="&lt;Group&gt;">
					<path id="&lt;Path&gt;" class="s22" d="m1240.3 199.6q-0.4 0-0.5 0c-0.2 0-0.3-0.2-0.3-0.3 0-0.2 0.1-0.3 0.3-0.3 1.1 0.1 3.1-0.1 3.5-0.6 0.4-0.5 0.2-3.5-0.1-5.4 0-0.2 0.1-0.3 0.3-0.3 0.1-0.1 0.3 0.1 0.3 0.2 0.1 0.8 0.7 5-0.1 5.9-0.6 0.7-2.4 0.8-3.4 0.8z"/>
				</g>
			</g>
			<g id="&lt;Group&gt;">
				<path id="&lt;Path&gt;" class="s0" d="m1232.5 205.9h15.6q-5 8.2-12.6 2.9-0.3-0.2-3-2.9z"/>
			</g>
			<g id="&lt;Group&gt;">
				<path id="&lt;Path&gt;" class="s22" d="m1234.5 179.8c-0.9 0.1-1.8 0.2-2.8 0.3q-1.4 0.1-2.8 0.2-1.3 0.2-2.7 0.4-1.3 0.2-2.6 0.5h-0.1c-0.6 0.1-1.2-0.3-1.3-0.9-0.1-0.5 0.1-1 0.5-1.3 1-0.5 2-0.8 3-1q1.5-0.4 3-0.5 1.5-0.1 3 0c1 0 2 0.1 3 0.3 0.5 0.2 0.9 0.7 0.7 1.2 0 0.5-0.4 0.8-0.8 0.8z"/>
			</g>
			<g id="&lt;Group&gt;">
				<path id="&lt;Path&gt;" class="s22" d="m1245.7 177.8c1-0.2 2-0.3 3-0.3q1.5-0.1 3 0 1.5 0.1 3 0.5c1 0.2 2 0.5 3 1 0.5 0.3 0.7 1 0.4 1.6-0.2 0.4-0.7 0.7-1.2 0.6q-1.4-0.3-2.7-0.5-1.3-0.2-2.7-0.4-1.4-0.1-2.8-0.2c-0.9-0.1-1.9-0.2-2.8-0.3h-0.1c-0.5 0-0.9-0.5-0.9-1.1 0.1-0.4 0.4-0.8 0.8-0.9z"/>
			</g>
			<g id="&lt;Group&gt;">
				<ellipse id="&lt;Path&gt;" class="s22" cx="1228.2" cy="187.6" rx="1.9" ry="2.6"/>
			</g>
			<g id="&lt;Group&gt;">
				<ellipse id="&lt;Path&gt;" class="s22" cx="1251.5" cy="187.6" rx="1.9" ry="2.6"/>
			</g>
			<g id="&lt;Group&gt;">
				<path id="&lt;Path&gt;" class="s1" d="m1230.3 145.3c0.3-2 1.4-3.8 3.5-3.9 2.1-0.2 8 0.3 12.8 0 4.8-0.3 6.2 5.7 7.3 6.9 1.2 1.2 6.8 3.7 10.5 6.4 3.6 2.7 1.4 4.5 3 8.8q1.7 4.2 6.8 7.8 0.4 6.7 0 8.2c-0.4 1.5-1.8 2-2.7 3.5-0.8 1.5-6.9 2.9-10 1.1-3.1-1.8-1.6-3.1-5.9-4.9-4.2-1.8-3.9-0.3-6.6-1.6-2.7-1.4-0.3-1-2.5-5.2q-2.3-4.2-5.2-3.9-10.4-2.8-11-13.8-0.3-7.4 0-9.4z"/>
			</g>
			<g id="&lt;Group&gt;">
				<path id="&lt;Path&gt;" class="s17" d="m1301.4 473.8h-54c-1.1-14.2-2-28.6-2.2-37.2q0-1.7 0-4.4l-2.5 41.6h-61.3c0-11.7 0.6-25.9 2.3-42.8q0.1-0.9 0.2-1.7 0.8-8.4 2.1-17.7 0.4-3.3 0.9-6.7 0.5-3.6 1.1-7.4 0.4-2.8 0.9-5.6 0.2-1.4 0.4-2.7 0.4-2.4 0.9-4.8 0.8-4.7 1.7-9.6h99.8q0.5 1.7 1.2 4.8 0.3 1.7 0.7 3.7 0 0 0 0.1 0.1 0.3 0.2 0.7c0.6 2.9 1.3 6.5 2 10.6q0.9 4.8 1.7 10.3c1 6.2 1.9 12.9 2.6 20.1q0.2 1.8 0.4 3.6c1.3 14.2 1.9 29.9 0.9 45.1z"/>
			</g>
			<g id="&lt;Group&gt;">
				<path id="&lt;Path&gt;" class="s16" d="m1281.7 239.9q21.9 6.9 26.3 10.9c4.5 4 19.6 38 19.6 55.9 0 17.9 3.6 45.3 0 50.5-3.5 5.2-19.6 30.8-30.3 36.7q-10.7 5.9-15.1 5.5l-2.6-26.7 11.5-42-5.9-63.5z"/>
			</g>
			<g id="&lt;Group&gt;">
				<path id="&lt;Path&gt;" class="s16" d="m1213.4 234.7c2.4-0.9 8.8-2.7 13.3-1 4.5 1.7 15.3 3.3 20.5 1 5.2-2.3 11.8-2.6 16.5-1.6 4.6 1 17.8 3.7 25.4 10 7.7 6.3 12.3 124.7 5.3 134.7-2.5 3.5-14.8 15.5-34.3 11.9-15.6-2.9-33.2 9.7-49.8 1.1q-13-6.6-23.3-6.7-15.7-104.6-7-128.4 1-8.8 33.4-21z"/>
			</g>
			<g id="&lt;Group&gt;">
				<path id="&lt;Path&gt;" class="s5" d="m1245.2 432.8q0 0 0 0c-0.3 0-0.6-0.3-0.6-0.6 0.1-3 1.8-5.2 4.3-8.4 1.8-2.4 4.1-5.4 6.6-9.8 0.1-0.3 0.5-0.4 0.8-0.3 0.2 0.2 0.3 0.5 0.2 0.8-2.6 4.5-4.9 7.5-6.7 10-2.4 3.2-3.9 5.1-4 7.8 0 0.3-0.3 0.5-0.6 0.5z"/>
			</g>
			<g id="&lt;Group&gt;">
				<path id="&lt;Path&gt;" class="s16" d="m1206.1 257.7c1.1 4.9-3.3 23.3-2.7 28.6q0.6 5.2-12.7 43.5-4.2 10.8-2.7 15.3 0.5 1.5 1.1 2.7c1.5 3 3.5 4.9 5.1 7.1 2.1 2.8 4.2 19.9 4.5 25.8 0.3 5.9-7.1 11.8-8.3 11.8-1.2 0-10.1-6.3-13-10.1q-3-3.8-16.9-20.5-4.7-24.1-4.7-25.1c0-1.1 2.6-30 4.1-38.7 1.5-8.7 8.6-19.1 8.3-21.6-0.3-2.4 3.8-5.9 5.6-9.7 1.8-3.9 6.8-10.5 14.5-15q7.7-4.5 25.5-15.5-8.9 16.5-7.7 21.4z"/>
			</g>
			<g id="&lt;Group&gt;">
				<path id="&lt;Path&gt;" class="s5" d="m1220.2 394.2c-10.4 0-15.1-5.7-15.3-5.9-0.2-0.3-0.1-0.6 0.1-0.8 0.3-0.2 0.6-0.2 0.8 0 0.1 0.1 4.9 5.9 15.4 5.5 9.1-0.3 13.7-1.4 17.3-2.3q1.2-0.3 2.2-0.5c6.7-1.5 15.9-3.2 19.1-1.4 0.3 0.2 0.4 0.5 0.3 0.8-0.2 0.3-0.6 0.4-0.8 0.2-3.3-1.8-14.6 0.7-18.3 1.5q-1.1 0.3-2.2 0.5c-3.7 0.9-8.4 2-17.5 2.4q-0.6 0-1.1 0z"/>
			</g>
			<g id="&lt;Group&gt;">
				<path id="&lt;Path&gt;" class="s5" d="m1190.7 342.3c-0.3 0-0.5-0.2-0.6-0.5-1.3-6.3-0.7-12 2-16.9 2.5-4.5 4.1-9.1 5.8-13.9 1-2.8 2-5.7 3.2-8.6 0.1-0.3 0.5-0.5 0.8-0.3 0.3 0.1 0.4 0.4 0.3 0.7-1.2 2.9-2.2 5.8-3.2 8.6-1.6 4.7-3.3 9.5-5.8 14-2.6 4.7-3.2 10.1-2 16.1 0.1 0.4-0.1 0.7-0.4 0.7q-0.1 0.1-0.1 0.1z"/>
			</g>
			<g id="&lt;Group&gt;">
				<path id="&lt;Path&gt;" class="s5" d="m1237.9 236.5c-4.4 0-12-2.5-12.4-2.6-0.3-0.1-0.4-0.4-0.3-0.7 0.1-0.3 0.4-0.5 0.7-0.4 0.1 0 8.9 2.9 12.9 2.5 2.2-0.2 3.7-0.1 4.7-0.1 0.7 0 1.2 0 1.4-0.1 0.3-0.1 0.6-0.1 0.8 0.2 0.2 0.3 0.1 0.6-0.2 0.8-0.4 0.3-1 0.3-2 0.3-1-0.1-2.4-0.1-4.6 0.1q-0.5 0-1 0z"/>
			</g>
		</g>
		<g id="&lt;Group&gt;">
			<g id="&lt;Group&gt;">
				<path id="&lt;Path&gt;" class="s23" d="m1389.5 288.1c-5 6.5-12.9 11.7-21.3 12-0.8 0-2.2 0.1-4 0.2-13.3 1.1-50.9 5-67.5 6.8-5 0.5-8.1 0.9-8.1 0.9-2 0.2-3.5-7.1-3.6-8.1-0.2-3.7 1.1-7.3 2.9-10.5 1.8-3.2 5.8-7 4.3-11.1-1.3-3.6-6.3-4.3-8.4-7.5-1.6-2.3-1.3-5.4-0.1-7.9 1.8-3.6 5.2-6.7 8.8-8.4 3.2-1.4 5.9-3.1 7.3-6.1q0.5-0.9 0.7-2.1c1-4.4 0.1-10 3.1-13.9 2.6-3.2 8.7-6.6 14.4-13.1q1.4-1.5 2.8-2.8 0.3-0.3 0.6-0.6c4.8-4.5 10-7.2 14.3-7.5 5.4-0.4 14.4 0.9 16.4 6.1 1.9 5.2 4.4 4.5 7.7 6.4 3.2 2 10.5 3.6 12.2 14.9 1 6.3 0 9.3 0 11.4 0 1.3 0.3 2.2 1.4 3.3q0.6 0.6 1.5 1.3c5.5 4.1 11.2 7.4 14.6 12.7 3.3 5.2 5 17.2 0 23.6z"/>
			</g>
			<g id="&lt;Group&gt;">
				<path id="&lt;Path&gt;" class="s3" d="m1389.5 288.1c-5 6.5-12.9 11.7-21.3 12-0.8 0-2.2 0.1-4 0.2 0.5-2.6 0.9-5.8 0.7-7.9-0.5-4.3-0.8-2.4-1.7-5.2-1-2.9 1.9-7.4 1.6-10.8-0.2-3.3-4-5.5-5.7-11.5q-1.7-5.9 2-9.7l10.9-8c0 1.3 0.3 2.2 1.4 3.3q0.6 0.6 1.5 1.3c5.5 4.1 11.2 7.4 14.6 12.7 3.3 5.2 5 17.2 0 23.6z"/>
			</g>
			<g id="&lt;Group&gt;">
				<path id="&lt;Path&gt;" class="s2" d="m1349 296.8c-2.1 0.9-4.5 1.7-7.1 2.3h-12.6q-2.8-0.6-5.8-1.8l0.2-6.8 1-16.1 0.1-1.3 0.2-2.9 21.1 0.6 0.3 2.7 0.7 5.4 1.5 11.7z"/>
			</g>
			<g id="&lt;Group&gt;">
				<path id="&lt;Path&gt;" class="s2" d="m1361.5 254.1c-0.7 2.8-3.2 4.5-5.5 3.8-2.4-0.6-3.7-3.3-3-6 0.8-2.7 3.2-4.4 5.6-3.8 2.3 0.6 3.6 3.3 2.9 6z"/>
			</g>
			<g id="&lt;Group&gt;">
				<path id="&lt;Path&gt;" class="s0" d="m1387.8 303.4l-4.3 98.9-31.2 1-60 1.9-4.8-103.4 36.2-11.3q8.6 6.5 24.9 0.1c0.4-0.1 2.1 0.2 4.6 0.8 3.9 1 9.8 2.7 15.6 4.4 2.6 2 5.2 3.8 10.5 4.4 2.5 0.3 5.6 1.5 8.5 3.2z"/>
			</g>
			<g id="&lt;Group&gt;">
				<path id="&lt;Path&gt;" class="s3" d="m1316.8 260.8q1.9 9.8-1.6 16c-3.4 6.2-4.9 6.6-3.4 12.2 1.4 5.7 1.7 4.4 1.4 7.7-0.1 1.8-8.6 6.6-16.5 10.4-5 0.5-8.1 0.9-8.1 0.9-2 0.2-3.5-7.1-3.6-8.1-0.2-3.7 1.1-7.3 2.9-10.5 1.8-3.2 5.8-7 4.3-11.1-1.3-3.6-6.3-4.3-8.4-7.5-1.6-2.3-1.3-5.4-0.1-7.9 1.8-3.6 5.2-6.7 8.8-8.4 3.2-1.4 5.9-3.1 7.3-6.1q0.5-0.9 0.7-2.1c1-4.4 0.1-10 3.1-13.9 2.6-3.2 8.7-6.6 14.4-13.1q1.4-1.5 2.8-2.8 0.3-0.3 0.6-0.6l2 22.8z"/>
			</g>
			<g id="&lt;Group&gt;">
				<path id="&lt;Path&gt;" class="s2" d="m1355.8 249.9c0 15.4-8.9 27.9-19.8 27.9-10.9 0-20.8-11.8-20.8-27.2 0-15.5 9.9-28.7 20.8-28.7 10.9 0 19.8 12.5 19.8 28z"/>
			</g>
			<g id="&lt;Group&gt;">
				<path id="&lt;Path&gt;" class="s13" d="m1328 242.4c-0.5-0.2-1.2-0.3-1.8-0.4q-1-0.2-2-0.2-2-0.2-3.9 0.1h-0.1c-0.7 0.1-1.4-0.5-1.5-1.2-0.1-0.7 0.4-1.4 1.1-1.5q2.3-0.4 4.5-0.3 1.2 0 2.3 0.2c0.8 0.1 1.5 0.2 2.3 0.4 0.8 0.2 1.3 1.1 1.1 1.9-0.2 0.8-1.1 1.3-1.9 1q0 0 0 0z"/>
			</g>
			<g id="&lt;Group&gt;">
				<path id="&lt;Path&gt;" class="s13" d="m1340.3 239.7c0.9-0.2 1.6-0.3 2.4-0.4q1.1-0.2 2.2-0.2 2.3 0 4.5 0.5c0.8 0.1 1.2 0.8 1.1 1.5-0.1 0.8-0.8 1.2-1.5 1.1h-0.1q-1.9-0.3-3.9-0.2-1 0.1-2 0.2c-0.6 0.1-1.3 0.2-1.8 0.4h-0.1c-0.8 0.2-1.6-0.2-1.9-1-0.2-0.8 0.3-1.7 1.1-1.9q0 0 0 0z"/>
			</g>
			<g id="&lt;Group&gt;">
				<ellipse id="&lt;Path&gt;" class="s13" cx="1325" cy="246.9" rx="1.9" ry="2.1"/>
			</g>
			<g id="&lt;Group&gt;">
				<ellipse id="&lt;Path&gt;" class="s13" cx="1344.2" cy="247.2" rx="1.9" ry="2.1"/>
			</g>
			<g id="&lt;Group&gt;">
				<path id="&lt;Path&gt;" class="s2" d="m1320 250.6c1.5 2.4 1 5.4-1.1 6.8-2.2 1.3-5.2 0.5-6.7-1.9-1.5-2.3-1-5.4 1.2-6.7 2.2-1.4 5.1-0.6 6.6 1.8z"/>
			</g>
			<g id="&lt;Group&gt;">
				<path id="&lt;Path&gt;" class="s3" d="m1373.4 250.5c-3.2 2.8-6.9 6-7.4 6.7-0.7 1-7 1.2-6-0.5 0.4-0.5 1.7-8.7-3.1-8-4.8 0.8-5.2-2.1-6.4-4.1-1.3-2-0.2-7.2-0.1-9 0.2-1.9-2.5-4.6-5.9-3.4-3.4 1.3-10.4 4.3-12.3 3.1-2-1.3-0.4-5.2-6.1-4.3q-5.8 0.9-6-6.6l0.7-7.9c5-4.8 10.4-7.8 14.9-8.1 5.4-0.4 14.4 0.9 16.4 6.1 1.9 5.2 4.4 4.5 7.7 6.4 3.2 2 10.5 3.6 12.2 14.9 1.5 9.9-1.7 11.6 1.4 14.7z"/>
			</g>
			<g id="&lt;Group&gt;">
				<path id="&lt;Path&gt;" class="s1" d="m1387.6 473.8h-94.3c0.4-14.5 3.7-31.4 7.2-45.1q0.5-2 1-4c2.3-9.1 4.6-16.4 5.8-20q0.5-1.5 0.7-2.4l12.8-0.7 3.6-0.2 28.4-1.5 18-0.9q0.1 1.4 0.3 3.7c0.6 4.9 2 14 5.2 23.4 1.1 3.3 2.5 6.7 4.2 9.9 4.7 9 6.4 25 7.1 37.8z"/>
			</g>
			<g id="&lt;Group&gt;">
				<path id="&lt;Path&gt;" class="s10" d="m1319.8 290.4c0.3-0.1 0.6 0.2 0.6 0.5-0.5 4.6-3.4 34-4 35.3-0.7 1.4-1.5 7.4-1.7 12.2-0.2 4.8-0.2 6.5 0 13.2 0.2 6.6 1 13.8 1.7 18.4 0.7 4.5 3.7 20.6 3.9 25.1 0.1 4.4 0.3 6.4 1.2 10.4 0.9 3.9 2.3 7.7 2 10.4q-0.4 2.7-37.5 13.6-3.8-2.5-4.3-6.5c-0.5-3.9-3-5.9-3.6-10-0.5-4.1-1.9-28.3 1-40 2.8-11.6-7.9-20.3-7.4-22.2 0.4-1.9 0.3-35.5 3.7-38.8 3.4-3.2 12-11.1 18.7-11.8 6.7-0.7 9.1-3.6 12.7-5.9 3.1-2 10.8-3.5 13-3.9z"/>
			</g>
			<g id="&lt;Group&gt;">
				<path id="&lt;Path&gt;" class="s14" d="m1309.7 352.2c-0.2 0-0.4-0.1-0.5-0.2-1-1.5-0.6-2.7-0.2-3.9 0.5-1.4 1.1-2.9 0.1-5.7-0.8-2.6-2.1-4.5-3.4-6.5-1.4-2.2-2.8-4.2-3.2-6.8-0.3-2.2 0.6-5.3 1.4-8.3 0.8-3.2 1.7-6.5 0.9-7.9-0.7-1.5-2.5-2.9-4.3-4.3-1.7-1.3-3.4-2.6-3.9-4-0.4-0.8-0.4-2.4 4.4-6.5 2.4-2.1 5-4 5.1-4 0.2-0.2 0.6-0.1 0.8 0.1 0.2 0.3 0.1 0.7-0.2 0.8-4.8 3.5-9.6 7.9-9.1 9.2 0.5 1 2 2.2 3.6 3.5 1.9 1.4 3.8 2.9 4.7 4.6 1 1.9 0.1 5.3-0.9 8.8-0.8 2.9-1.6 5.9-1.3 7.9 0.3 2.2 1.5 4.1 3 6.3 1.2 1.9 2.6 4 3.5 6.7 1.1 3.2 0.4 5.1-0.1 6.5-0.4 1.1-0.6 1.8 0.1 2.8 0.1 0.3 0.1 0.6-0.2 0.8q-0.1 0.1-0.3 0.1z"/>
			</g>
			<g id="&lt;Group&gt;">
				<path id="&lt;Path&gt;" class="s10" d="m1284.2 304.8q4.5-3.1 3.8 1.8c-0.8 4.8-5.3 43.8-5.8 45.5-0.6 2-3.2 5.4-2.8 8 0.3 2.6 9.3 9.7 11.4 17.2 2.2 7.4 5.4 6.8 0 11.2-5.3 4.5-8.2 28.5-15.4 24-7.1-4.5-3.2-7.9-6.8-15-3.6-7.1-3.6-12-8.6-17.6-5-5.6-3.6-9.3-3.9-20.6-0.4-11.2 3.9-14.6 5.1-23.5 1.3-9 13.3-21.4 14.2-23.4z"/>
			</g>
			<g id="&lt;Group&gt;">
				<path id="&lt;Compound Path&gt;" fill-rule="evenodd" class="s14" d="m1285.2 400.7q-0.1 0-0.2-0.1c-0.3-0.1-0.5-0.4-0.3-0.7 2.6-6.5 3.2-7.3 4.1-8.5 0.4-0.4 0.8-0.9 1.5-1.9 0.9-1.5 1.6-2.2 2-2.7 0.5-0.6 0.7-0.8 0.9-1.9 0.3-1.7-1.2-3.1-1.6-3.5-0.3-0.1-0.4-0.6-1.3-5.2-0.7-3.7-3.6-10.1-7.2-12-1.7-0.9-3.7-2.3-3.7-4.5 0-1.1 0.4-2.2 0.8-3.3l0.1-0.2c2.1-5.4 3-11.2 3.6-16.1 0.3-2.1 0.3-4.2 0.4-6.2 0-2 0.1-4.1 0.3-6.1 0.1-0.4 0.4-0.6 0.7-0.5 0.3 0 0.5 0.3 0.5 0.6-0.2 2-0.3 4.1-0.4 6.1 0 2-0.1 4.1-0.3 6.2-0.7 5.1-1.6 10.9-3.7 16.4l-0.1 0.3c-0.4 1-0.7 1.9-0.7 2.8 0 1.6 1.6 2.7 3.1 3.5 3.9 2.1 7 8.8 7.8 12.8 0.6 3.3 0.8 4.3 0.9 4.6 0.5 0.4 2.4 2.2 1.9 4.5-0.2 1.4-0.5 1.8-1.1 2.5-0.5 0.4-1 1.1-2 2.5-0.6 1.1-1 1.6-1.4 2.1-0.9 1.1-1.5 1.8-4.1 8.1-0.1 0.2-0.3 0.4-0.5 0.4zm7.2-20z"/>
			</g>
			<g id="&lt;Group&gt;">
				<path id="&lt;Path&gt;" class="s18" d="m1324.4 402c-0.3 0-0.6-0.2-0.6-0.5 0-0.3 0.2-0.6 0.6-0.6l33.7-1.9c0.4 0 0.6 0.3 0.7 0.6 0 0.3-0.3 0.6-0.6 0.6l-33.8 1.8q0 0 0 0z"/>
			</g>
			<g id="&lt;Group&gt;">
				<path id="&lt;Path&gt;" class="s10" d="m1394.3 373c2.8 11.7 1.5 35.9 0.9 40-0.5 4.1-3 6.1-3.6 10-0.4 3.2-3 5.5-3.9 6.2-0.2 0.2-0.5 0.2-0.8 0.2-4-1.2-36.7-11-37-13.5-0.4-2.7 1-6.5 1.9-10.4q0.3-1.2 0.5-2.2c0.5-2.7 0.6-4.7 0.8-8.2 0.2-4.5 3.2-20.6 3.9-25.1 0.7-4.6 1.4-11.8 1.7-18.4 0.2-6.7 0.2-8.4 0-13.2-0.3-4.8-1-10.8-1.7-12.2-0.7-1.3-3.3-28.8-3.8-34.6q0-0.1 0-0.2c0-0.4 0.5-0.8 1-0.7 2.6 0.4 9.5 1.7 12.3 3.6q1.2 0.8 2.3 1.5c2.6 2 5.2 3.8 10.5 4.4 2.5 0.3 5.6 1.5 8.5 3.2 4.3 2.5 8.5 6.2 10.5 9.4 3.9 6.2 2.4 15 2.7 21.8 0.2 5.1-0.6 11.3 0.7 16.2 0.5 1.9-10.3 10.6-7.4 22.2z"/>
			</g>
			<g id="&lt;Group&gt;">
				<path id="&lt;Path&gt;" class="s14" d="m1361.7 352.7q-0.2 0-0.3-0.2c-0.3-0.1-0.4-0.5-0.2-0.8 0.7-1 0.5-1.6 0.1-2.8-0.5-1.4-1.2-3.3-0.1-6.5 0.8-2.6 2.3-4.8 3.5-6.7 1.4-2.1 2.7-4 3-6.3 0.3-2-0.5-4.9-1.3-7.8-1-3.6-1.9-7-0.9-8.8 0.9-1.7 2.8-3.2 4.6-4.7 1.7-1.2 3.2-2.4 3.7-3.5 0.5-1.3-3.8-6-8.2-9.6-0.2-0.2-0.2-0.6 0-0.8 0.2-0.3 0.5-0.3 0.8-0.1 2.3 1.9 9.6 8.3 8.4 11-0.6 1.3-2.2 2.6-3.9 4-1.8 1.3-3.6 2.8-4.4 4.2-0.7 1.5 0.2 4.8 1 8 0.8 3 1.7 6 1.4 8.3-0.4 2.5-1.8 4.6-3.2 6.8-1.3 1.9-2.6 3.9-3.4 6.4-1 2.8-0.4 4.4 0.1 5.7 0.4 1.3 0.8 2.4-0.2 3.9-0.1 0.2-0.3 0.3-0.5 0.3z"/>
			</g>
			<g id="&lt;Group&gt;">
				<path id="&lt;Path&gt;" class="s10" d="m1397.8 312.4c0.9 2 13 14.4 14.2 23.4 1.2 8.9 5.5 12.3 5.2 23.5-0.4 11.3 1 15-4 20.6-5 5.6-5 10.5-8.6 17.6-3.6 7.1 0.3 10.5-6.8 15-7.2 4.5-10-19.5-15.4-24-5.4-4.4-2.2-3.8 0-11.2 2.1-7.5 11.1-14.6 11.4-17.2 0.4-2.6-2.2-6-2.8-8-0.5-1.7-5-40.7-5.8-45.5q-0.7-4.9 3.8-1.8z"/>
			</g>
			<g id="&lt;Group&gt;">
				<path id="&lt;Path&gt;" class="s14" d="m1379.4 407.4c-0.2 0-0.4-0.1-0.5-0.3 0 0-1.1-2.1-3.5-4.3q-0.7-0.6-1.2-1.1c-2.1-1.7-3.9-3.3-3.3-7.5 0.4-2.4 1.2-3.5 2-4.6 0.8-1.2 1.6-2.4 2.3-5.4 1.3-5.9 10.1-28.9 10.5-29.9 0.1-0.3 0.4-0.5 0.7-0.4 0.3 0.2 0.5 0.5 0.4 0.8-0.1 0.2-9.1 23.9-10.5 29.8-0.7 3.2-1.6 4.5-2.5 5.8-0.7 1-1.4 1.9-1.7 4.1-0.5 3.6 0.8 4.7 2.8 6.4q0.6 0.5 1.3 1.1c2.6 2.4 3.7 4.6 3.8 4.7 0.1 0.3 0 0.6-0.3 0.8q-0.1 0-0.3 0z"/>
			</g>
			<g id="&lt;Group&gt;">
				<path id="&lt;Path&gt;" class="s18" d="m1337.8 471.7c-0.4 0-0.6-0.3-0.6-0.6v-34.8l-7.6-6.4c-0.3-0.2-0.3-0.5-0.1-0.8 0.2-0.2 0.6-0.3 0.8-0.1l7.8 6.6q0.2 0.1 0.2 0.4v35.1c0 0.3-0.2 0.6-0.5 0.6z"/>
			</g>
			<g id="&lt;Group&gt;">
				<path id="&lt;Path&gt;" class="s6" d="m1347.1 278.9c-1.6 2.1-3.9 3.9-6.9 4.2-6.2 0.6-12.2-5.1-15.5-8.7l0.1-1.3q0.5 0.2 1.1 0.4c2.5 0.9 6.3 1.7 11.4 1.7 3.7 0 6.5-0.8 8.5-1.7h0.6z"/>
			</g>
			<g id="&lt;Group&gt;">
				<g id="&lt;Group&gt;">
					<path id="&lt;Path&gt;" class="s13" d="m1335.2 255.6h-1.6c-0.1 0-0.2-0.1-0.2-0.2v-6.1c0-0.1 0.1-0.2 0.2-0.2 0.2 0 0.3 0.1 0.3 0.2v5.8h1.3c0.2 0 0.3 0.1 0.3 0.3 0 0.1-0.1 0.2-0.3 0.2z"/>
				</g>
			</g>
			<g id="&lt;Group&gt;">
				<path id="&lt;Path&gt;" class="s7" d="m1334.2 265.8c-1.2 0-2.5-0.2-3.8-0.7-0.1 0-0.2-0.2-0.1-0.4 0-0.1 0.2-0.2 0.4-0.1 3.6 1.3 7.6 0.5 9.5-2.1 0.1-0.1 0.3-0.1 0.4 0 0.2 0.1 0.2 0.2 0.1 0.4-1.4 1.9-3.9 2.9-6.5 2.9z"/>
			</g>
			<g id="&lt;Group&gt;">
				<circle id="&lt;Path&gt;" class="s13" cx="1314.8" cy="256.6" r=".4"/>
			</g>
			<g id="&lt;Group&gt;">
				<circle id="&lt;Path&gt;" class="s13" cx="1356.4" cy="256.7" r=".4"/>
			</g>
			<g id="&lt;Group&gt;">
				<circle id="&lt;Path&gt;" class="s13" cx="1313.2" cy="255.3" r=".3"/>
			</g>
		</g>
		<g id="&lt;Group&gt;">
			<g id="&lt;Group&gt;">
				<g id="&lt;Group&gt;">
					<g id="&lt;Group&gt;">
						<path id="&lt;Path&gt;" class="s2" d="m1184.7 283.7l-10.2 12.1-3.2 3.9-28.7 34.1 1.7-47.6c3.9-0.2 7-3.5 7-7.4v-15.9l20.3 0.7q0.4 2.7 0.9 5.5 0 0.5 0.1 0.9 0 0.1 0 0.2c0.2 1 0.3 2.2 0.4 3.5q0 0.4 0.1 0.9c0.4 4.6 1.4 9.8 7 9.4z"/>
					</g>
					<g id="&lt;Group&gt;">
						<path id="&lt;Path&gt;" class="s6" d="m1173 273.7c-1.4 2.4-3.6 4.6-6.7 5-5.8 0.6-11.5-5.7-14.3-9.2q-0.5-0.5-0.7-1v-0.4c0.5 0.3 1.1 0.6 2.1 1 2.3 0.8 5.7 1.7 10.3 1.7 3.3 0 5.9-0.8 7.7-1.7h1.1q0 0.5 0.1 0.9 0 0.1 0 0.2c0.2 1 0.3 2.2 0.4 3.5z"/>
					</g>
					<g id="&lt;Group&gt;">
						<path id="&lt;Path&gt;" class="s13" d="m1144.6 255.5q-16.3-5.3-13.6-24.5 2.7-19.3 25.2-28.4 30.4-7.2 40.3 23.2 9.9 30.4-14.4 33z"/>
					</g>
					<g id="&lt;Group&gt;">
						<path id="&lt;Path&gt;" class="s13" d="m1159.9 204.9c-2.2-3.6-3.9-8.1-4.5-10.4-0.7-2.2 0.7-8.9 7.5-10.1 6.8-1.3 10.2 2.1 12.9 5.1q2.7 2.9-4.3 14.6-9.4 4.4-11.6 0.8z"/>
					</g>
					<g id="&lt;Group&gt;">
						<g id="&lt;Group&gt;">
							<path id="&lt;Path&gt;" class="s2" d="m1166.8 220.8c11.2 1 19.1 13.7 17.7 28.3-1.4 14.6-11.6 25.5-22.8 24.5-11.1-1.1-19.1-13.8-17.7-28.4 1.4-14.5 11.6-25.5 22.8-24.4z"/>
						</g>
					</g>
					<g id="&lt;Group&gt;">
						<path id="&lt;Path&gt;" class="s13" d="m1187.2 220q14.7 32.3-1.6 23.2-16.3-9.1-24.7-26.1z"/>
					</g>
					<g id="&lt;Group&gt;">
						<path id="&lt;Path&gt;" class="s2" d="m1141.9 238.1c2.4 0 5.5 2.7 5.5 6 0 3.4-1.9 6.1-4.3 6.1-2.4 0-5.3-3.3-5.3-6.6 0-3.3 1.7-5.5 4.1-5.5z"/>
					</g>
					<g id="&lt;Group&gt;">
						<path id="&lt;Path&gt;" class="s2" d="m1188.6 245.3c0 3.3-2.9 6.6-5.3 6.6-2.4 0-4.3-2.7-4.3-6.1 0-3.3 3.2-6 5.6-6 2.3 0 4 2.2 4 5.5z"/>
					</g>
					<g id="&lt;Group&gt;">
						<g id="&lt;Group&gt;">
							<ellipse id="&lt;Path&gt;" class="s13" cx="1155.8" cy="243" rx="1.8" ry="2.3"/>
						</g>
					</g>
					<g id="&lt;Group&gt;">
						<g id="&lt;Group&gt;">
							<ellipse id="&lt;Path&gt;" class="s13" cx="1173.9" cy="244.1" rx="1.8" ry="2.3"/>
						</g>
					</g>
					<g id="&lt;Group&gt;">
						<g id="&lt;Group&gt;">
							<path id="&lt;Path&gt;" class="s13" d="m1158.8 237.6q-0.2 0-0.4 0c-4-0.6-6.5 0.6-6.6 0.7-0.6 0.3-1.5 0.2-1.9-0.4-0.4-0.5-0.2-1.2 0.5-1.5 0.1-0.1 3.5-1.8 8.6-1.1 0.8 0.1 1.2 0.7 1.1 1.4-0.2 0.5-0.7 0.8-1.3 0.9z"/>
						</g>
					</g>
					<g id="&lt;Group&gt;">
						<g id="&lt;Group&gt;">
							<path id="&lt;Path&gt;" class="s13" d="m1179.1 238.8q-0.2 0-0.4-0.1c-3.6-1.8-6.3-1.4-6.4-1.4-0.8 0.2-1.5-0.2-1.8-0.9-0.2-0.6 0.2-1.2 1-1.3 0.1 0 3.8-0.7 8.5 1.6 0.7 0.4 0.9 1.1 0.6 1.6-0.3 0.5-0.9 0.6-1.5 0.5z"/>
						</g>
					</g>
					<g id="&lt;Group&gt;">
						<g id="&lt;Group&gt;">
							<path id="&lt;Path&gt;" class="s22" d="m1164.9 252.3q-0.5 0-0.9-0.3c-0.7-0.5-0.8-0.9-0.7-1.8l0.4-3.8c0-0.1 0.1-0.2 0.2-0.2 0.2 0 0.3 0.2 0.3 0.3l-0.4 3.7c-0.1 0.8 0 1 0.5 1.4 0.2 0.2 0.5 0.2 0.8 0.2l0.9-0.2c0.1-0.1 0.3 0 0.3 0.2 0 0.1-0.1 0.2-0.2 0.3l-0.9 0.2q-0.2 0-0.3 0z"/>
						</g>
					</g>
					<g id="&lt;Group&gt;">
						<path id="&lt;Path&gt;" class="s0" d="m1170.7 258.8c-0.6 2.4-3.2 4.4-6.4 4.6-3.8 0.3-7-1.7-7.4-4.6z"/>
					</g>
					<g id="&lt;Group&gt;">
						<path id="&lt;Path&gt;" class="s22" d="m1142.9 248.1c0.3 0.2 0.4 0.5 0.2 0.8-0.2 0.3-0.6 0.4-0.9 0.3-0.3-0.2-0.4-0.6-0.2-0.9 0.2-0.3 0.6-0.4 0.9-0.2z"/>
					</g>
					<g id="&lt;Group&gt;">
						<path id="&lt;Path&gt;" class="s22" d="m1184.8 249.3c0.3 0.2 0.4 0.5 0.3 0.8-0.2 0.3-0.6 0.4-0.9 0.3-0.3-0.2-0.4-0.6-0.2-0.9 0.2-0.3 0.5-0.4 0.8-0.2z"/>
					</g>
					<g id="&lt;Group&gt;">
						<path id="&lt;Path&gt;" class="s2" d="m1199.3 424.2l-16.9 7.4-9.8-10.3 21.3-15.4 9.1 16.9z"/>
					</g>
					<g id="&lt;Group&gt;">
						<path id="&lt;Path&gt;" class="s2" d="m1107.8 466.3q0.4 1.2-0.2 1.2-0.6 0.3-1.3 0.4-3.6 0.4-4.9 0.3c-1.2-0.1-5.4-2.8-7.3-4.4q-1.9-1.5-3.7-8.5c-0.1-1.7 0.7-3.6 2-7.1q1.2-3.5 4.9-11.2l-1.1-13.1 11.8-1.3q-2.3 11.5-1.6 13.1c0.4 0.9 0.4 2.1 0.2 3.3 0.2 0.6 0.9 2.7 1.1 4.5q0.2 1.6-0.3 3.7c-0.4 2.1-1 3.2-0.9 5.4 0.1 2.3 0.2 3.4 0 4.7-0.3 1.2-0.4 2.6-1.8 2.6-1.4 0.1-2.3-0.8-2.6-2-0.2-1.3 0-3.4 0.1-4.1 0.2-0.7 0.1-1.9-0.2-2.1-0.3-0.1-0.7-0.3-0.9-0.4q-0.2 0.5-0.4 0.8 0.2 2.3-1.4 3.9 0.7 1.4 0.3 3.5 1.6 0.8 3.1 2.5 1.3-0.5 1.9-0.5c0.6-0.1 1.8-0.1 2.4 0.8q0.5 0.8 0 1.5l-3.8 1.3c2.9 0.3 4.1 0 4.6 1.2z"/>
					</g>
					<g id="&lt;Group&gt;">
						<path id="&lt;Path&gt;" class="s24" d="m1128.8 323.4l-17.8 108.4q-12.2 1.6-16 0c-3.8-1.5-2.3-10.2-4.2-21.4-2-11.1 4.9-57.8 5.4-61.1 0.5-3.2 3.9-12.7 6.7-17.4 2.7-4.6 7.6-15.8 9.1-23.7q1.5-7.9 11.7-13.5z"/>
					</g>
					<g id="&lt;Group&gt;">
						<path id="&lt;Path&gt;" class="s25" d="m1197.9 473.8h-98.3q0.4-2.9 0.8-5.9 0.4-3.5 1-7.2 0.3-2.1 0.6-4.4c1.1-6.6 2.4-13.7 4-21q0.1-0.7 0.3-1.4 0 0 0 0 0.2-0.8 0.3-1.5 0.1-0.1 0.1-0.2 0.7-3.3 1.6-6.7 0.4-2 1-4 2.1-8.2 4.7-16.6 0 0 0 0 0.5-1.5 1-3 0.3-0.2 1-0.7c1.8-0.9 5.9-2.6 14.5-3.4q0 0 0.1 0c4.2-0.4 9.5-0.6 16.1-0.5 7.3 0.2 16.3 0.8 27.2 2.2q0.6 2.1 1.6 5.4c1 3 2.3 7.1 3.8 11.6 1.4 4.1 2.9 8.5 4.6 12.8q0.3 0.7 0.5 1.4c2.2 5.4 4.5 10.6 6.7 14.2 3.1 5.4 5.4 16.9 6.8 28.9z"/>
					</g>
					<g id="&lt;Group&gt;">
						<path id="&lt;Path&gt;" class="s24" d="m1115 370.6q0.2-2.5 1.6-19.1 0.8-23.4 0-31.6c-0.5-5.1 3.1-15.2 5.8-22q0.7-1.8 1.3-3.2l5.3-2.2 18.3-7.5q-3.7 27.3-1.7 42.2 29-30.3 34.9-44.2 19.8 3.6 24.7 3c5-0.7 16.2 2.3 20.8 36.9 4.6 34.6 19.4 52.7 20.1 58.9 0.6 6.3 3.9 13.2-4 21.1-7.9 7.9-21.1 20.1-22.7 22.4q-1.7 2.3-17.8 6.3l-16.8-30.5c-0.5-0.9-0.1-2.2 0.9-2.6 2.9-1.2 7.9-3.4 9.3-4.1q2-1 14.7-7.6-10-13.5-11.2-27.8c-0.6-6.5-0.8-11.5-0.9-15.2-0.2 12.3-1.8 38-11.8 51.2l-5.3 9.9h-66.5q-0.3-2.1 0-3.9c0.6-3.3 0.7-28 1-30.4z"/>
					</g>
				</g>
				<g id="&lt;Group&gt;">
					<path id="&lt;Path&gt;" class="s26" d="m1097.5 432.6q-0.1 0-0.2 0l-3.6-1c-0.8-0.2-1.8-1.2-2.3-6.9-0.2-2.8-0.2-5.6-0.2-5.9l-1.4-16.1q0 0 0 0l0.9-13.8c0-0.3 3-27.1 4-33.1 1-6.2 2.5-13.6 6.1-21.2 3.7-7.6 9.8-22.9 9.8-23 0.1-0.3 0.5-0.5 0.8-0.3 0.3 0.1 0.4 0.4 0.3 0.7-0.1 0.2-6.2 15.5-9.8 23.1-3.6 7.4-5.1 14.7-6.1 20.9-0.9 5.9-3.9 32.7-4 33l-0.8 13.7 1.3 16q0 0 0 0c0 6.1 0.8 11.5 1.8 11.8l3.5 0.9c0.3 0.1 0.5 0.4 0.4 0.8 0 0.2-0.3 0.4-0.5 0.4z"/>
				</g>
				<g id="&lt;Group&gt;">
					<path id="&lt;Path&gt;" class="s26" d="m1113 393.9q-0.2 0-0.4-0.2c-0.2-0.2-1.9-2.4-2.1-15.8-0.2-13.5 2.5-23.5 3.2-24.5 0.2-0.3 0.6-0.4 0.8-0.2 0.3 0.2 0.3 0.6 0.2 0.8-0.5 0.8-3.3 10.5-3 23.9 0.2 12.7 1.7 14.9 1.8 15 0.2 0.3 0.2 0.6-0.1 0.8q-0.2 0.2-0.4 0.2z"/>
				</g>
				<g id="&lt;Group&gt;">
					<path id="&lt;Path&gt;" class="s26" d="m1145.6 327.7q-0.1 0-0.2 0c-0.2-0.1-0.4-0.2-0.4-0.5 0-0.2-2-18.6 1.6-42 0-0.3 0.3-0.5 0.6-0.5 0.3 0.1 0.6 0.4 0.5 0.7-3 19.8-2 36-1.6 40.5 4.8-5 28.3-29.2 33.9-43.1 0.1-0.3 0.4-0.4 0.7-0.3 0.3 0.1 0.5 0.4 0.4 0.7-6.3 15.7-33.9 43.2-35.1 44.4q-0.2 0.1-0.4 0.1z"/>
				</g>
				<g id="&lt;Group&gt;">
					<path id="&lt;Path&gt;" class="s26" d="m1219.4 425.9q-0.2 0-0.4-0.1c-0.2-0.2-0.3-0.6-0.1-0.8 0.1-0.1 5.9-7 16.8-16.6l0.4-0.4c3.8-3.3 8.5-7.5 10-12.4 1.8-6.1 0.5-13.3-3.9-21.4-3.7-6.8-6.5-14.1-9.3-21.1q-0.5-1.1-0.9-2.3c-0.1-0.3 0-0.6 0.3-0.7 0.3-0.1 0.7 0 0.8 0.3q0.4 1.1 0.9 2.3c2.7 7 5.6 14.2 9.2 20.9 4.6 8.4 5.9 16 4 22.4-1.6 5.2-6.4 9.5-10.3 12.9l-0.4 0.3c-10.9 9.6-16.6 16.4-16.7 16.5q-0.1 0.2-0.4 0.2z"/>
				</g>
				<g id="&lt;Group&gt;">
					<path id="&lt;Path&gt;" class="s26" d="m1194.9 372.3q-0.1 0-0.1 0c-0.3-0.1-0.5-0.4-0.5-0.7 0 0 0.4-1.8 1.1-6.3 0.7-4.5 1.6-21.3 1.6-21.5 0-0.3 0.3-0.6 0.6-0.6 0.3 0.1 0.6 0.3 0.5 0.7 0 0.7-0.8 17-1.6 21.5-0.7 4.6-1 6.4-1 6.4-0.1 0.3-0.3 0.5-0.6 0.5z"/>
				</g>
			</g>
			<g id="&lt;Group&gt;">
				<path id="&lt;Path&gt;" class="s22" d="m1159.4 291.6q-1.3 0-2.5-0.3c-5.5-1.5-7.3-7.8-7.3-7.9l0.3-0.1c0 0.1 1.8 6.2 7.1 7.7 4.9 1.3 11.1-1.6 18.5-8.6l0.2 0.2c-6.3 6-11.8 9-16.3 9z"/>
			</g>
		</g>
		<g id="&lt;Group&gt;">
			<g id="&lt;Group&gt;">
				<g id="&lt;Group&gt;">
					<path id="&lt;Path&gt;" class="s6" d="m999.8 429.9q6.1 1.8 7.4 2.1-2.1 8.7-6.5 10.8h-0.1z"/>
				</g>
				<g id="&lt;Group&gt;">
					<g id="&lt;Group&gt;">
						<g id="&lt;Group&gt;">
							<path id="&lt;Path&gt;" class="s7" d="m994.5 291q1.6-1.2 3.6 0.6c11 9.6 9.9 26.4 9.8 30.7-0.2 4.3 3.8 20 5.9 25.9 2 5.9 4.5 9.4 6.1 19.7 1.5 10.2 0 30.5 0.1 33 0.2 2.5 2.2 14.6 3.3 18 0.8 2.5-0.1 10-2.9 11.2-2.7 1.2-4.5 2.8-14.5 1.6-10.1-1.3-7.5-4.6-7.7-9.2-0.1-4.7-1.6-8.8-1.7-10.9 0-2.1-0.4-6-0.4-11.2 0-5.1 0.4-3.1-0.6-8.2-1-5-8.3-30.4-5.7-36.7 2.7-6.2-7.2-27.2-7.1-28.8q0.2-1.6-2.4-15.9 2.2-6.8 5.7-11.6c3.4-4.9 8-7.5 8.5-8.2z"/>
						</g>
						<g id="&lt;Group&gt;">
							<path id="&lt;Path&gt;" class="s24" d="m956.8 379.1v19.1l-0.4 19.3-0.1 3q0 0 0 0l-1.1 53.3h-46l4.5-54.2 0.4-6.1 0.2-1.6 0.2-3q0 0 0 0l1-11.5 0.9-11.1 0.6-7.2z"/>
						</g>
						<g id="&lt;Group&gt;">
							<path id="&lt;Path&gt;" class="s24" d="m1003.6 473.8h-46l-1.2-54.3q0 0 0 0v-2l-0.4-19.3v-19.1h39.8l2.3 28.1 0.3 4 0.1 0.4 0.2 2.6 1.3 15.7v0.2l1 12.5z"/>
						</g>
						<g id="&lt;Group&gt;">
							<path id="&lt;Path&gt;" class="s27" d="m911.4 269.6q-2.6-16.3 3.8-24.7c6.3-8.3 4.3-15.5 4.3-19.4 0-3.9 1.1-16.2 6.6-20.6 5.5-4.5 7.8-14.4 25.8-10.8q4.6-2.7 16.4-1.2c11.9 1.5 16.8 17 17.4 20.3 0.6 3.3 1.7 10.2 4.6 13.5 2.9 3.3 5.8 10.8 3.8 18.2-2.1 7.5-2.1 9 0.6 15.9q2.8 6.9 1.4 8.8-33.8 13.9-84.7 0z"/>
						</g>
						<g id="&lt;Group&gt;">
							<path id="&lt;Path&gt;" class="s2" d="m969.6 282.2h-28.2l2.9-19.7 0.2-1.3 0.4-2.8h21.3l0.4 3.1 0.9 5.7z"/>
						</g>
						<g id="&lt;Group&gt;">
							<path id="&lt;Path&gt;" class="s6" d="m967.5 267.2c-1.6 2.1-4 3.9-7.1 4.2-6.4 0.6-12.7-5.3-16.1-8.9l0.2-1.3q0.4 0.1 1 0.3c2.6 0.8 6.6 1.7 11.8 1.7 3.9 0 6.8-0.8 8.9-1.7h0.4z"/>
						</g>
						<g id="&lt;Group&gt;">
							<ellipse id="&lt;Path&gt;" class="s2" cx="954.6" cy="233" rx="24.1" ry="32.6"/>
						</g>
						<g id="&lt;Group&gt;">
							<path id="&lt;Path&gt;" class="s2" d="m937.9 238.7c1.2 3.4 0.1 6.9-2.4 7.9-2.6 1.1-5.7-0.9-6.9-4.2-1.3-3.4-0.2-7 2.4-8 2.5-1 5.6 0.9 6.9 4.3z"/>
						</g>
						<g id="&lt;Group&gt;">
							<path id="&lt;Path&gt;" class="s2" d="m981.4 234.4c2.6 1 3.7 4.6 2.4 8-1.2 3.3-4.3 5.3-6.9 4.2-2.6-1-3.6-4.5-2.4-7.9 1.2-3.4 4.3-5.3 6.9-4.3z"/>
						</g>
						<g id="&lt;Group&gt;">
							<g id="&lt;Group&gt;">
								<path id="&lt;Path&gt;" class="s7" d="m938 226.6c-0.5 0-1-0.3-1.2-0.8-0.3-0.7 0-1.5 0.7-1.7 6.2-2.8 11-0.2 11.2-0.1 0.6 0.3 0.8 1.1 0.5 1.8-0.4 0.7-1.1 0.9-1.8 0.6-0.1-0.1-3.9-2.1-8.9 0.1q-0.3 0.1-0.5 0.1z"/>
							</g>
						</g>
						<g id="&lt;Group&gt;">
							<g id="&lt;Group&gt;">
								<path id="&lt;Path&gt;" class="s7" d="m961.1 226.6c-0.5 0-1-0.3-1.2-0.8-0.3-0.7 0-1.5 0.7-1.7 6.2-2.8 11-0.2 11.2-0.1 0.6 0.3 0.8 1.1 0.5 1.8-0.3 0.7-1.1 0.9-1.8 0.6-0.1-0.1-3.9-2.1-8.9 0.1q-0.3 0.1-0.5 0.1z"/>
							</g>
						</g>
						<g id="&lt;Group&gt;">
							<ellipse id="&lt;Path&gt;" class="s7" cx="942.8" cy="233.6" rx="2.1" ry="2.8"/>
						</g>
						<g id="&lt;Group&gt;">
							<ellipse id="&lt;Path&gt;" class="s7" cx="966.2" cy="233.6" rx="2.1" ry="2.8"/>
						</g>
						<g id="&lt;Group&gt;">
							<path id="&lt;Path&gt;" class="s27" d="m951.9 203.4q-14.2 20.2-16.2 30.7c-2 10.5-13.6 7.2-14.8 7.5q-1.1 0.3 7-33.5l24-10.4z"/>
						</g>
						<g id="&lt;Group&gt;">
							<path id="&lt;Path&gt;" class="s27" d="m978.6 210.4c1.4 4.5 2 9.4 2.8 14 1 5.1 2.6 10.2 3.5 15.3-1-0.9-2.5-1.7-3.6-2.5-6.2-4.5-12.5-9.6-17.5-15.4-4.8-5.6-8.8-11.8-11.9-18.4v-5.7-1.3q26.3 13.3 26.7 14z"/>
						</g>
						<g id="&lt;Group&gt;">
							<path id="&lt;Path&gt;" class="s7" d="m973.2 270.1q-1.4 12.8 3.9 13 5.3 0.2 21.9 9 1.3 31.7 2.8 33.6c1.6 1.9-3.9 54.5 0 60.4q4 6 1.6 25.2-17.8-13.5-22.3-17.6c-4.4-4.1-10.9-2.2-12.6-3.4-1.7-1.2-5.3-1.9-6.3-2-1.1-0.2-2.4 2.6-5.8 2.8-3.4 0.3-0.7-1.6-9.2-2.6-8.4-1-31 22.3-32.5 20.7q-1.6-1.6-11.3-99.7-1.3-7.6 3.4-11.1c4.7-3.6 22.8-15.5 28.3-15.7 5.5-0.3 3.4-6.8 3.4-9.3q0-2.4 1.3-5z"/>
						</g>
						<g id="&lt;Group&gt;">
							<path id="&lt;Path&gt;" class="s7" d="m954.6 255.5c-1.3 0-2.5-0.3-3.8-0.7-0.1-0.1-0.2-0.2-0.2-0.4 0.1-0.1 0.3-0.2 0.4-0.2 3.7 1.4 7.6 0.6 9.6-2 0.1-0.1 0.3-0.2 0.4-0.1 0.1 0.1 0.2 0.3 0.1 0.5-1.5 1.8-3.9 2.9-6.5 2.9z"/>
						</g>
						<g id="&lt;Group&gt;">
							<path id="&lt;Path&gt;" class="s7" d="m977.4 255.2q-0.1 0-0.2 0c-1.5-0.1-2.8-0.8-3.6-2.1 0-0.1 0-0.2 0.1-0.3 0.1-0.1 0.3 0 0.3 0.1 0.7 1.1 1.8 1.8 3.2 1.9 1.4 0 2.8-0.7 3.5-1.8 1.2-1.7 1.4-4.2 0.5-6-0.7-1.3-1.8-1.9-3.1-1.9-0.1 0-0.2-0.1-0.2-0.3 0-0.1 0.1-0.2 0.2-0.2q0 0 0 0c1.5 0 2.7 0.8 3.5 2.2 1 1.9 0.8 4.6-0.5 6.5-0.8 1.2-2.3 1.9-3.7 1.9z"/>
						</g>
						<g id="&lt;Group&gt;">
							<path id="&lt;Path&gt;" class="s7" d="m931.7 255.2c-1.5 0-2.9-0.7-3.7-1.9-1.1-1.6-1.2-3.9-0.3-5.7 0.9-1.7 2.5-2.7 4.2-2.7q0 0 0 0c0.1 0 0.2 0.1 0.2 0.2 0 0.2-0.1 0.3-0.2 0.3-1.6 0-3 0.8-3.8 2.4-0.9 1.7-0.8 3.7 0.2 5.2 0.8 1.1 2.2 1.8 3.6 1.8 1.3-0.1 2.5-0.8 3.1-1.9 0.1-0.1 0.2-0.2 0.3-0.1 0.2 0.1 0.2 0.2 0.1 0.3-0.7 1.3-2 2-3.5 2.1q-0.1 0-0.2 0z"/>
						</g>
						<g id="&lt;Group&gt;">
							<g id="&lt;Group&gt;">
								<path id="&lt;Path&gt;" class="s7" d="m954.7 243.4h-0.3c-1.2 0-2.1-1-2.1-2.2v-6.4c0-0.2 0.1-0.4 0.3-0.4 0.2 0 0.4 0.2 0.4 0.4v6c0 1 0.7 1.9 1.7 1.9 0.2 0 0.4 0.1 0.4 0.3 0 0.2-0.2 0.4-0.4 0.4z"/>
							</g>
						</g>
						<g id="&lt;Group&gt;">
							<path id="&lt;Path&gt;" class="s2" d="m944.6 406.7c-0.6 1.2-2.3 1-3.6 0.4l-2.6-0.3 2.3 1.4c0.9 0.6 1.4 1.7 0.8 2.7-0.6 1-2.1 1.4-3.2 0.8l-1.6-0.8c1.2 0.9 1.6 2.1 1 2.9-0.7 0.9-2 1.2-3.1 0.6l-2-1.2c2 1.2 1.7 2.2 1.3 2.8-0.7 0.9-1.9 1.1-2.9 0.6l-10.9-4.2q-0.5-0.2-0.9-0.4c-2.9 0.8-7.8 0.3-14.3-6.1l10.1-8.2 14.1-7.2c1.1-0.6 2.4-0.4 3.3 0.4 0.8 0.8 0.1 1.8-0.5 2.7l-0.9 2.6 12.6 7.7c1.1 0.6 1.5 1.8 1 2.8z"/>
						</g>
						<g id="&lt;Group&gt;">
							<path id="&lt;Path&gt;" class="s7" d="m918 331.1c0 0.3-3.4 16.8-4.6 17.2-1.1 0.4-7.6 6.2-9.3 7.7-2 1.7-11.8 6.8-9.1 9.2 3.4 2.9 10.2 6 16 8.9q10.2 5.1 15.3 17.8l-5.9 20c-0.4 1.4-2 2.9-3.4 2.5-3-1-8.1-2.1-10.2-4.3-3.6-3.8-5.3-4.6-11.8-8.6-6.5-3.9-8.1-5.4-16.2-9.8-7.6-4.1-15.7-9.9-18.8-18.3-2.9-8.2-0.4-19.9 3.9-27.1 5.8-9.5 5.3-10.6 6.9-11.9 1.7-1.3 3.4-2.2 5.8-5.9q2.6-4 30.2-30.1 11.2 32.5 11.2 32.7z"/>
						</g>
					</g>
					<g id="&lt;Group&gt;">
						<path id="&lt;Path&gt;" class="s28" d="m954.9 455.1q0 0 0 0c-0.4 0-0.6-0.3-0.6-0.6 0-1.3 0.9-32.3 1.7-36 0.9-4.1 8.4-11.8 8.7-12.1 0.2-0.3 0.6-0.3 0.8 0 0.2 0.2 0.2 0.6 0 0.8-0.1 0.1-7.5 7.8-8.4 11.6-0.8 3.5-1.6 35.4-1.6 35.7 0 0.3-0.3 0.6-0.6 0.6z"/>
					</g>
				</g>
			</g>
			<g id="&lt;Group&gt;">
				<path id="&lt;Path&gt;" class="s29" d="m908.4 353.2q-0.3 0-0.5-0.2c-0.2-0.3-0.1-0.7 0.1-0.9 3.5-2.7 6.5-6 9.1-9.9 0.5-0.6 0.9-1.4 1.4-2.2 1.1-2 2.2-4 3.8-5 0.3-0.1 0.6-0.1 0.8 0.2 0.2 0.3 0.1 0.7-0.2 0.8-1.4 0.9-2.4 2.7-3.4 4.5-0.5 0.9-0.9 1.7-1.4 2.4-2.7 3.9-5.8 7.3-9.4 10.2q-0.1 0.1-0.3 0.1z"/>
			</g>
			<g id="&lt;Group&gt;">
				<path id="&lt;Path&gt;" class="s29" d="m926.2 384.9c-0.2 0-0.4-0.1-0.5-0.3 0-0.1-1.8-3.6-5.7-5.3-4.2-1.8-5.4-3-5.5-3.1-0.2-0.2-0.2-0.6 0-0.8 0.3-0.2 0.6-0.2 0.9 0 0 0 1.1 1.1 5.1 2.8 4.3 1.9 6.2 5.7 6.3 5.9 0.1 0.3 0 0.6-0.3 0.7q-0.1 0.1-0.3 0.1z"/>
			</g>
			<g id="&lt;Group&gt;">
				<path id="&lt;Path&gt;" class="s29" d="m998.9 398.2q0 0-0.1 0c-0.3-0.1-0.5-0.4-0.4-0.7 0 0 0.7-3.1-0.3-8.7l-0.2-1.2c-0.5-3-0.5-3.1-0.2-4.7 0.2-0.6 0.3-1.5 0.6-2.9 0.8-5.2-3.9-23.4-4-23.6-0.1-0.3 0.1-0.7 0.4-0.7 0.4-0.1 0.7 0.1 0.8 0.4 0.2 0.7 4.8 18.6 3.9 24.1-0.2 1.5-0.4 2.3-0.5 3-0.3 1.3-0.3 1.3 0.2 4.2l0.2 1.2c1 5.9 0.2 9 0.2 9.2-0.1 0.2-0.3 0.4-0.6 0.4z"/>
			</g>
		</g>
	</g>
</svg>