<svg version="1.2" xmlns="http://www.w3.org/2000/svg" viewBox="0 0 1440 500" width="1440" height="500">
	<title>2112</title>
	<style>
		.s0 { fill: #efded4 } 
		.s1 { fill: #f78f77 } 
		.s2 { fill: #000000 } 
		.s3 { fill: #719968 } 
		.s4 { fill: #507849 } 
		.s5 { fill: #ff9e3e } 
		.s6 { fill: #fcb465 } 
		.s7 { fill: #ffa143 } 
		.s8 { fill: #f7c537 } 
		.s9 { fill: #ffa98f } 
		.s10 { fill: #ad4d40 } 
		.s11 { fill: #b75542 } 
		.s12 { fill: #e8821c } 
		.s13 { fill: #ffffff } 
		.s14 { fill: #f2513b } 
		.s15 { fill: #dd4536 } 
		.s16 { fill: #eab021 } 
		.s17 { fill: #476b3f } 
		.s18 { fill: #d16309 } 
		.s19 { fill: #b56a4d } 
		.s20 { fill: #ffb255 } 
		.s21 { fill: #af4d04 } 
		.s22 { fill: #994239 } 
		.s23 { fill: #f98575 } 
		.s24 { fill: #f4796c } 
		.s25 { fill: #4a7042 } 
		.s26 { fill: #accc97 } 
		.s27 { fill: #f78e2f } 
		.s28 { fill: #fcbc49 } 
	</style>
	<g id="Layer 1">
		<path id="&lt;Path&gt;" class="s0" d="m-101-8h1747.8v516h-1747.8z"/>
		<g id="&lt;Group&gt;">
			<path id="&lt;Path&gt;" class="s1" d="m1026.1 321l0.7-1.4q6.8-2.8 10.7-3.2c1.7-0.2 3.6 0.9 1.3 2.3q-1.2 0.8-2 1.9 3-0.1 5.3-0.8c1.4-0.5 4.1-3.3 5-2.3q1.4 1.6-1.4 4.3 1.9-3.8 3.2-1.8c1.2 2-5.5 8.7-8.2 10.1q-2.7 1.3-14.6 0.4z"/>
		</g>
		<g id="&lt;Group&gt;">
			<path id="&lt;Path&gt;" class="s2" d="m1039.5 323q-0.5 0-1 0c-0.2-0.1-0.3-0.2-0.2-0.3 0-0.2 0.1-0.3 0.3-0.2 2.5 0.4 5.4-1.1 5.5-1.2 0.1 0 0.3 0 0.3 0.1 0.1 0.2 0 0.3-0.1 0.4-0.1 0-2.4 1.2-4.8 1.2z"/>
		</g>
		<g id="&lt;Group&gt;">
			<path id="&lt;Path&gt;" class="s2" d="m1040.9 325.6q-0.1 0-0.1-0.1l-4.2-4.4c-0.1-0.1-0.1-0.2 0-0.3 0.1-0.1 0.3-0.1 0.4 0l4 4.3 2.7-1.1c0.1-0.1 0.3 0 0.3 0.1 0.1 0.2 0 0.3-0.1 0.4l-2.9 1.1q0 0-0.1 0z"/>
		</g>
		<g id="&lt;Group&gt;">
			<g id="&lt;Group&gt;">
				<path id="&lt;Path&gt;" class="s3" d="m1118.7 389q-7.6 2.6-18.2-4.7c-10.6-7.4 1-17.5 4.7-19.5q3.7-1.9 6.8-2.1-3.9 1.8-1 3.9c2.9 2.1 6.9-0.1 6-1.6q-1-1.5-1-1.5 5.3 1.1 9.7 2.9 4.4 1.7 4.4 1.7-6.1-0.4-5.1 0.9 1.1 1.4 8.4 1 4.7 2.4 6.1 4 1.5 1.7 1.5 1.7-2.7 2.8-5 3.6-2.3 0.7-2.3 0.7-1.9-2.5-4.8-0.9-3 1.7 1.2 3.9l-4.8 2.5q-3.8-3.7-6.3-1.3-2.5 2.4-0.3 4.8z"/>
			</g>
			<g id="&lt;Group&gt;">
				<path id="&lt;Path&gt;" class="s4" d="m1088.6 392.4c-0.1-0.1-0.3-0.2-0.2-0.4 0-0.1 1.3-11.2 12.9-16.2 12-5.1 29.8-1.4 30-1.3 0.2 0 0.3 0.1 0.2 0.3 0 0.2-0.1 0.2-0.3 0.2-0.2 0-17.9-3.7-29.6 1.3-11.4 4.9-12.7 15.7-12.7 15.8 0 0.1-0.1 0.3-0.3 0.3z"/>
			</g>
			<g id="&lt;Group&gt;">
				<path id="&lt;Path&gt;" class="s3" d="m1055.1 365q-1.3-3.3-6.3-1.5l-3.2-4.3q4.7-0.2 2.7-3-2-2.7-4.7-1.2 0 0-1.8-1.7-1.7-1.6-3-5.3 0 0 2-0.9 2-0.9 7.3-1.1 6.5 3.5 8 2.7 1.5-0.7-4.3-3 0 0 4.8 0.3 4.7 0.3 10 1.5 0 0-1.5 1c-1.5 1 1.2 4.6 4.7 4q3.5-0.7 0.8-4 2.7 1.5 5.2 4.8c2.5 3.4 8.8 17.5-3.9 19.6q-12.7 2.2-18.6-3.4 3-1.3 1.8-4.5z"/>
			</g>
			<g id="&lt;Group&gt;">
				<path id="&lt;Path&gt;" class="s3" d="m1108.2 362.9q-0.6 10.3-11.4 9.9c-11.3-0.4-12-12.9-11-16.2q0.9-3.4 2.7-5.4-2 4.5 1 4c2.9-0.5 4.8-5.2 3.3-5.6q-1.4-0.3-1.4-0.3 3.8-2.5 7.4-4.1 3.7-1.5 3.7-1.5-3.9 3.4-2.5 3.6 1.4 0.1 5.6-4.5 4.2-1.4 6-1.2 1.8 0.1 1.8 0.1 0.1 3.3-0.8 5.1-0.9 1.8-0.9 1.8-2.6-0.4-3.4 2.3-0.8 2.8 3 1.6l-1.3 4.4q-4.5 0-4.5 2.9-0.1 2.9 2.7 3.1z"/>
			</g>
			<g id="&lt;Group&gt;">
				<path id="&lt;Path&gt;" class="s4" d="m1088.6 397.6c-0.2 0-0.3-0.1-0.2-0.3 0-0.1 1.4-11.2-4.6-21.2-8.1-13.6-28.6-21-28.8-21-0.2-0.1-0.2-0.3-0.2-0.4 0.1-0.2 0.2-0.2 0.4-0.2 0.2 0.1 20.9 7.5 29.1 21.3 6.1 10.2 4.6 21.5 4.6 21.6 0 0.1-0.1 0.2-0.3 0.2z"/>
			</g>
			<g id="&lt;Group&gt;">
				<path id="&lt;Path&gt;" class="s4" d="m1087.6 384.8c-0.2 0-0.3-0.1-0.3-0.3-1.2-19.3 14-32.1 14.1-32.2 0.1-0.1 0.3-0.1 0.4 0 0.1 0.1 0.1 0.3 0 0.4-0.2 0.1-15.1 12.8-13.9 31.8 0 0.1-0.1 0.3-0.3 0.3q0 0 0 0z"/>
			</g>
			<g id="&lt;Group&gt;">
				<path id="&lt;Path&gt;" class="s5" d="m1100.8 419.1h-16.9c-0.9 0-1.7-0.6-1.8-1.5l-2.5-24.6c-0.1-1 0.7-1.8 1.7-1.8h22.1c1.1 0 1.9 0.8 1.8 1.8l-2.6 24.6c-0.1 0.9-0.9 1.5-1.8 1.5z"/>
			</g>
			<g id="&lt;Group&gt;">
				<path id="&lt;Path&gt;" class="s6" d="m1097.1 419.1h-16.9c-0.9 0-1.7-0.6-1.8-1.5l-2.6-24.6c-0.1-1 0.7-1.8 1.8-1.8h22.1c1 0 1.8 0.8 1.7 1.8l-2.5 24.6c-0.1 0.9-0.9 1.5-1.8 1.5z"/>
			</g>
		</g>
		<g id="&lt;Group&gt;">
			<path id="&lt;Path&gt;" class="s1" d="m1137.5 403.6l-0.3 6.3-3.1 4.4-11.4-3.8 0.8-7.8z"/>
		</g>
		<g id="&lt;Group&gt;">
			<path id="&lt;Path&gt;" class="s1" d="m1172.9 400.4l1.1 8.3-2.5 2.9-12-1.7-1.6-8.9z"/>
		</g>
		<g id="&lt;Group&gt;">
			<path id="&lt;Path&gt;" class="s7" d="m1009.1 348.3q3.4 18.5-16.8 24.9c-20.2 6.4-43.8-2.3-48.8-29.3q-8.2-44.1 29.8-37.5z"/>
		</g>
		<g id="&lt;Group&gt;">
			<path id="&lt;Path&gt;" class="s8" d="m1042.9 409.2q13.6 6.5 17.6 10.3c4.1 3.8 4.3 6.4 3.8 7.7q-0.4 1.2-28.6 0-0.3-7.8-3.3-7.3-3 0.5-1.4 7.5l-8.5-0.1q-0.4-7.7 0.2-10.7 0.7-3.3 2.6-7.7z"/>
		</g>
		<g id="&lt;Group&gt;">
			<path id="&lt;Path&gt;" class="s9" d="m1040 406.9q11.7 6.6 9.6 7.3c-2.2 0.7-14.3 0.8-17.8-0.5q-3.5-1.3-6.5-4.9v-3.8l13.3-2.9z"/>
		</g>
		<g id="&lt;Group&gt;">
			<path id="&lt;Path&gt;" class="s8" d="m1004.8 401.1q8.5 12.9 10.1 18.3c1.5 5.5 0.4 7.9-0.7 8.7q-1.1 0.9-25.2-14.9 3.8-7 0.9-8.1-2.9-1.2-5.1 5.8l-7.4-4.5q3.7-7 5.8-9.3 2.3-2.5 6.3-5.4z"/>
		</g>
		<g id="&lt;Group&gt;">
			<path id="&lt;Path&gt;" class="s9" d="m1003.4 397.6q6.9 12 4.6 11.5c-2.2-0.6-12.9-6.8-15.3-9.8q-2.4-2.9-3.1-7.7l9 0.8z"/>
		</g>
		<g id="&lt;Group&gt;">
			<path id="&lt;Path&gt;" class="s10" d="m1011 354.7l7.5 23-9 21.5-25.5-9 15.1-35.5z"/>
		</g>
		<g id="&lt;Group&gt;">
			<path id="&lt;Path&gt;" class="s11" d="m996 336.7q31.3 7.8 36.8 11.6 7.4 5.1 17.5 55.2l-28 2.8q-11.5-36.4-13.2-37.9c-1.7-1.5-34.6-4.6-39.9-7.5q-6.3-3.4-3-21.2z"/>
		</g>
		<g id="&lt;Group&gt;">
			<path id="&lt;Path&gt;" class="s2" d="m982.7 283l-4.6 21.8-11.8 5.3q-3.6-1.8-2.8-8.8 0.8-6.9 7.8-13.8-1.9-7.7 3.3-11 5.2-3.3 11.1-0.7z"/>
		</g>
		<g id="&lt;Group&gt;">
			<g id="&lt;Group&gt;">
				<path id="&lt;Path&gt;" class="s2" d="m986.5 303.7l0.2-25.6q4.7 3 4.7 9.5c-0.1 2.8 4.1 3 6.7 6.4q2.4 3.2 0.7 9z"/>
			</g>
		</g>
		<g id="&lt;Group&gt;">
			<path id="&lt;Path&gt;" class="s4" d="m989.7 298.4q7.2 0.4 10.3 4.1c2.1 2.6 12 11.8 13.5 13.6 1.3 1.7 10.6 3.2 13.5 2.3q1.7-0.4 2.4 14.1c-0.1 1.1-11.4 8.3-21.9 4.9q-10.5-3.5-14-11.8z"/>
		</g>
		<g id="&lt;Group&gt;">
			<path id="&lt;Path&gt;" class="s4" d="m1001.8 342.3q-29.4 4.7-29.8 1.8-0.8-6.6 4.9-42.1l2.9-4.7 9.4 1.1q4.6 0.5 9 12.6 4.4 12.1 3.6 31.3z"/>
		</g>
		<g id="&lt;Group&gt;">
			<g id="&lt;Group&gt;">
				<g id="&lt;Group&gt;">
					<g id="&lt;Group&gt;">
						<path id="&lt;Path&gt;" class="s1" d="m980.1 293.3l7.2 1.4 0.9 5.9q-0.9 1.5-3.9 1.3-3.9-0.2-5.2-2.1l-0.2-6.8z"/>
					</g>
				</g>
			</g>
		</g>
		<g id="&lt;Group&gt;">
			<g id="&lt;Group&gt;">
				<g id="&lt;Group&gt;">
					<g id="&lt;Group&gt;">
						<path id="&lt;Path&gt;" class="s2" d="m987.3 294.7l0.5 3.3c-1.7-0.1-5.9-0.7-7.5-4.1q-0.1-0.4-0.2-0.6z"/>
					</g>
				</g>
			</g>
		</g>
		<g id="&lt;Group&gt;">
			<g id="&lt;Group&gt;">
				<g id="&lt;Group&gt;">
					<g id="&lt;Group&gt;">
						<path id="&lt;Path&gt;" class="s1" d="m988.4 279.2q3.8 8.4 2.5 13.1c-1.3 4.8-5.6 4.1-8.2 3.2q-2.6-0.9-3.8-2.5-2.4 0.9-4-1.3c-1.7-2.3-0.7-4.9 0.7-5.5q1.4-0.6 3 0.4l-1.3-2.4q5.3-12.5 11.1-5z"/>
					</g>
				</g>
			</g>
		</g>
		<g id="&lt;Group&gt;">
			<g id="&lt;Group&gt;">
				<g id="&lt;Group&gt;">
					<g id="&lt;Group&gt;">
						<path id="&lt;Path&gt;" class="s2" d="m976.5 284l2.1-6.4 8-2q1.2-0.4 2.3 1.5 1.2 1.8 0.6 4.7l-2.5-4.2q0.3 1.7-2.3 5.7-2.5 4-6.1 3.3z"/>
					</g>
				</g>
			</g>
		</g>
		<g id="&lt;Group&gt;">
			<path id="&lt;Path&gt;" class="s2" d="m988.1 289.9q0 0 0 0c-0.2-0.1-0.2-0.2-0.2-0.3 0.5-1.6-0.7-3.3-0.7-3.3-0.1-0.1-0.1-0.2 0-0.3 0.2-0.1 0.3-0.1 0.4 0 0.1 0.1 1.3 1.9 0.8 3.7-0.1 0.1-0.2 0.2-0.3 0.2z"/>
		</g>
		<g id="&lt;Group&gt;">
			<path id="&lt;Path&gt;" class="s2" d="m984.4 284.1q-0.1 0-0.1 0c-0.1-0.1-0.2-0.2-0.2-0.3 0.7-1.8 1.8-1.5 1.9-1.5 0.1 0 0.2 0.1 0.2 0.3-0.1 0.1-0.2 0.2-0.3 0.2-0.1-0.1-0.8-0.2-1.3 1.1q0 0.2-0.2 0.2z"/>
		</g>
		<g id="&lt;Group&gt;">
			<path id="&lt;Path&gt;" class="s2" d="m989.7 282.8c-0.1 0-0.2-0.1-0.2-0.2-0.1-0.1-0.2-0.4-0.4-0.5q-0.3-0.1-0.7 0.2c-0.1 0.1-0.2 0-0.3-0.1-0.1-0.1-0.1-0.3 0.1-0.3q0.6-0.4 1.1-0.2c0.5 0.2 0.6 0.8 0.6 0.8 0.1 0.1 0 0.3-0.1 0.3q-0.1 0-0.1 0z"/>
		</g>
		<g id="&lt;Group&gt;">
			<path id="&lt;Path&gt;" class="s2" d="m978.3 290.5q-0.2 0-0.2 0l-2.3-2.4c-0.1-0.1-0.1-0.3 0-0.4 0.1-0.1 0.2-0.1 0.3 0l2.3 2.4c0.1 0.1 0.1 0.3 0 0.4q-0.1 0-0.1 0z"/>
		</g>
		<g id="&lt;Group&gt;">
			<path id="&lt;Path&gt;" class="s2" d="m975.8 289.9c-0.1 0-0.2-0.1-0.2-0.2 0-0.1 0.1-0.3 0.2-0.3l1.6-0.2c0.1-0.1 0.2 0 0.3 0.2 0 0.1-0.1 0.2-0.3 0.3l-1.5 0.2q-0.1 0-0.1 0z"/>
		</g>
		<g id="&lt;Group&gt;">
			<path id="&lt;Path&gt;" class="s4" d="m969.9 343.8c-1.1-0.7-4.7-37.7-2.5-40.3q3-3.7 11.7-6.2 0 0 0 0.4 0 0.4 9.2 44.9-17.4 1.9-18.4 1.2z"/>
		</g>
		<g id="&lt;Group&gt;">
			<path id="&lt;Path&gt;" class="s4" d="m1001.8 342.3q-1.9-10.2-6.4-24.2-4.5-14.2-7.6-20.1 5.7 0.8 7.6 2c1.4 0.9 6.7 14.9 7.5 25q0.9 10.1 1.3 16.6-0.4 0.4-2.4 0.7z"/>
		</g>
		<g id="&lt;Group&gt;">
			<path id="&lt;Compound Path&gt;" fill-rule="evenodd" class="s2" d="m1012.3 322.3q-0.3 0-0.6-0.1c-0.5-0.3-0.7-0.7-0.7-0.9-0.2-1.7 3.2-4.6 3.6-4.9q0.1-0.1 0.3 0 0.1 0.1 0.1 0.2c0 0.2-0.5 4.7-2.1 5.5q-0.3 0.2-0.6 0.2zm2.1-5.1c-1.1 1-3 3-2.9 4q0 0.3 0.4 0.5 0.4 0.2 0.7 0c1-0.5 1.6-3 1.8-4.5z"/>
		</g>
		<g id="&lt;Group&gt;">
			<path id="&lt;Path&gt;" class="s2" d="m984.1 302.1q-0.5 0-1.1-0.1c-3.4-0.4-4.1-2.7-4.2-2.8 0-0.1 0.1-0.3 0.2-0.3 0.1-0.1 0.3 0 0.3 0.1 0 0.1 0.7 2.1 3.8 2.5 3.1 0.4 4.9-1.1 4.9-1.1 0.1-0.1 0.3-0.1 0.3 0 0.1 0.1 0.1 0.3 0 0.3 0 0.1-1.5 1.4-4.2 1.4z"/>
		</g>
		<g id="&lt;Group&gt;">
			<path id="&lt;Path&gt;" class="s2" d="m989.6 286.6c-0.1 0-0.2-0.1-0.2-0.2l-0.3-1.6q0-0.1 0.1-0.1l0.6-0.8c0.1-0.1 0.2-0.1 0.3 0 0.1 0.1 0.2 0.2 0.1 0.3l-0.6 0.7 0.3 1.4c0 0.2-0.1 0.3-0.3 0.3q0 0 0 0z"/>
		</g>
		<g id="&lt;Group&gt;">
			<path id="&lt;Path&gt;" class="s2" d="m985 287c-0.1 0-0.2-0.1-0.2-0.2l-0.2-1.6q0-0.1 0-0.2l0.9-0.9c0.1-0.1 0.3-0.1 0.4 0 0.1 0.1 0.1 0.3 0 0.4l-0.8 0.8 0.2 1.4c0 0.1-0.1 0.3-0.3 0.3q0 0 0 0z"/>
		</g>
		<g id="&lt;Group&gt;">
			<path id="&lt;Path&gt;" class="s8" d="m1016 385.9q-0.2 0-0.2-0.2c-2.2-5.6-6.7-16.6-7.6-17.7-0.8-1-8.1-1.8-12.8-2.1-0.2 0-0.3-0.2-0.3-0.3 0-0.1 0.2-0.2 0.3-0.2 1.2 0.1 12 0.8 13.2 2.3 1.2 1.4 7.4 17.2 7.6 17.8 0.1 0.2 0 0.3-0.1 0.3q-0.1 0.1-0.1 0.1z"/>
		</g>
		<g id="&lt;Group&gt;">
			<path id="&lt;Compound Path&gt;" fill-rule="evenodd" class="s8" d="m1008.4 368.1q-0.1 0-0.1-0.1-0.2-0.1-0.1-0.3c0.2-0.6 2.4-6.5 4.2-6.8 0.3 0 0.7 0 1.1 0.5q0.4 0.6 0.3 1.4c-0.4 2.3-5 5.1-5.2 5.2q-0.1 0.1-0.2 0.1zm4.2-6.7q-0.1 0-0.1 0c-1.2 0.2-2.8 3.8-3.6 5.8 1.3-0.8 4.1-2.9 4.4-4.5q0.1-0.6-0.2-1c-0.2-0.2-0.4-0.3-0.5-0.3z"/>
		</g>
		<g id="&lt;Group&gt;">
			<path id="&lt;Path&gt;" class="s12" d="m957.5 359.2q-0.1 0-0.1-0.1c-5.8-3.9-8.2-13-8.2-13 0-0.2 0-0.3 0.2-0.3 0.1-0.1 0.2 0 0.3 0.1 0 0.1 2.3 9 7.9 12.8 0.2 0.1 0.2 0.3 0.1 0.4q-0.1 0.1-0.2 0.1z"/>
		</g>
		<g id="&lt;Group&gt;">
			<path id="&lt;Path&gt;" class="s7" d="m1172.8 309.6c0.8-1.1 21.4-10.2 29 20 7.7 30.2-16.2 55.4-53.4 51q-38.6-4.6-5.1-46.5z"/>
		</g>
		<g id="&lt;Group&gt;">
			<path id="&lt;Path&gt;" class="s12" d="m1188.4 365q-0.1 0-0.2 0c-0.1-0.1-0.1-0.3 0-0.4 8.1-8.5 9.4-18.3 9.5-18.4 0-0.2 0.1-0.3 0.2-0.3 0.2 0.1 0.3 0.2 0.3 0.3-0.1 0.1-1.5 10.1-9.6 18.7q-0.1 0.1-0.2 0.1z"/>
		</g>
		<g id="&lt;Group&gt;">
			<path id="&lt;Path&gt;" class="s4" d="m1158.2 342.6q-6.3 27.1-7.8 27.1c-1.5 0.1-6.5 35-7.6 35.8-1 0.7-25 0.4-25.8-0.5-0.8-0.9 3.5-48.2 6.9-53.1q3.9-5.7 21.6-10.4z"/>
		</g>
		<g id="&lt;Group&gt;">
			<path id="&lt;Path&gt;" class="s4" d="m1177.8 339.2q2.8 14 2 18.5-0.9 4.5-7.5 9.4 5.2 37.1 4.6 37.3c-0.6 0.3-24.3 1.3-24.7 1-0.5-0.3-10.1-46.8-8.1-53.6q2.1-6.9 8.8-7.9z"/>
		</g>
		<g id="&lt;Group&gt;">
			<path id="&lt;Path&gt;" class="s2" d="m1137.2 312.2q-3.7-2.1-1.9-8.8 1.8-6.8 7.1-6.4-1.9-4.2 0-8.6 1.9-4.3 3.4-4.6-0.2-3.5 2.3-6.2 2.4-2.7 5.8 0.1 6.4-1.5 10.4 2.2 3.9 3.8 2.4 10.2 6.3 2.6 7.8 9.9 1.5 7.3-2.4 11.2z"/>
		</g>
		<g id="&lt;Group&gt;">
			<path id="&lt;Path&gt;" class="s8" d="m1135.3 341.4c-2.8-1.2-5.6-1.5-6.7-4.7-0.9-3.1-2.6-6.8-0.3-12.4 4.8-12 11.3-24.3 21.3-25.3 10.1-1.1 16.4 1.2 23 5.3 6.6 4.1 13.2 24.4 7.5 35q-5.9 11-33.7 5.1-3.2 0.2-11.1-3z"/>
		</g>
		<g id="&lt;Group&gt;">
			<g id="&lt;Group&gt;">
				<g id="&lt;Group&gt;">
					<g id="&lt;Group&gt;">
						<path id="&lt;Path&gt;" class="s1" d="m1159.1 294.7l0.3 5.3q-1.7 1.7-4 1.9-3.2 0.2-4.4-1.6l-0.3-6.8z"/>
					</g>
				</g>
			</g>
		</g>
		<g id="&lt;Group&gt;">
			<g id="&lt;Group&gt;">
				<g id="&lt;Group&gt;">
					<g id="&lt;Group&gt;">
						<path id="&lt;Path&gt;" class="s2" d="m1159.1 295.3q-1.6 4-5.2 3.7-2.9-0.3-3.2-4.4z"/>
					</g>
				</g>
			</g>
		</g>
		<g id="&lt;Group&gt;">
			<g id="&lt;Group&gt;">
				<g id="&lt;Group&gt;">
					<g id="&lt;Group&gt;">
						<path id="&lt;Path&gt;" class="s1" d="m1160.9 282.9l-0.3 2.7q0.1-0.2 1.7-0.2c1.5 0 3.5 1.9 2.5 4.6q-0.9 2.5-4 2.1-0.3 2.3-2.5 4.2c-1.6 1.3-5.2 2.8-8.2-1.1q-3-3.9-1.7-12.5 2.8-9.3 12.5 0.2z"/>
					</g>
				</g>
			</g>
		</g>
		<g id="&lt;Group&gt;">
			<g id="&lt;Group&gt;">
				<g id="&lt;Group&gt;">
					<g id="&lt;Group&gt;">
						<path id="&lt;Path&gt;" class="s1" d="m1150.2 292.4q-4.9 0.2-4.8-3.9 0.2-3.6 4.9-1.9z"/>
					</g>
				</g>
			</g>
		</g>
		<g id="&lt;Group&gt;">
			<path id="&lt;Path&gt;" class="s2" d="m1161.5 286q-1.6 0.8-5.1-1.5-3.5-2.3-2.7-5.2-4.5 3.1-5.3 6.8c-0.8 3.7-2-8.4 3.3-8.5 5.3 0 13.3 2.9 9.8 8.4z"/>
		</g>
		<g id="&lt;Group&gt;">
			<path id="&lt;Path&gt;" class="s2" d="m1148.2 290.4q-0.1 0-0.2-0.1l-1.7-2.6c-0.1-0.1 0-0.2 0.1-0.3 0.1-0.1 0.3 0 0.3 0.1l1.7 2.5c0.1 0.1 0.1 0.3-0.1 0.4q0 0-0.1 0z"/>
		</g>
		<g id="&lt;Group&gt;">
			<path id="&lt;Path&gt;" class="s2" d="m1161.4 289.8q-0.1 0-0.2-0.1c-0.1-0.1-0.1-0.3 0-0.4l2.3-2.1c0.1-0.1 0.2-0.1 0.3 0 0.1 0.1 0.1 0.3 0 0.4l-2.2 2.1q-0.1 0.1-0.2 0.1z"/>
		</g>
		<g id="&lt;Group&gt;">
			<path id="&lt;Path&gt;" class="s2" d="m1163.6 290q-0.1 0-0.1 0l-1.5-1c-0.1-0.1-0.1-0.2 0-0.3 0-0.2 0.2-0.2 0.3-0.1l1.4 0.9c0.2 0.1 0.2 0.3 0.1 0.4q-0.1 0.1-0.2 0.1z"/>
		</g>
		<g id="&lt;Group&gt;">
			<path id="&lt;Path&gt;" class="s2" d="m1146.4 289.7c-0.1 0-0.3-0.1-0.3-0.2 0-0.2 0.1-0.3 0.3-0.3l1.3-0.1c0.1 0 0.2 0.1 0.2 0.2 0.1 0.2-0.1 0.3-0.2 0.3l-1.3 0.1q0 0 0 0z"/>
		</g>
		<g id="&lt;Group&gt;">
			<path id="&lt;Path&gt;" class="s2" d="m1153.6 291.5c-0.1 0-0.2-0.1-0.2-0.2-0.5-2.3 0.2-4.2 0.2-4.3 0-0.1 0.2-0.2 0.3-0.2 0.1 0.1 0.2 0.2 0.2 0.4 0 0-0.7 1.8-0.2 4 0 0.1-0.1 0.3-0.2 0.3q-0.1 0-0.1 0z"/>
		</g>
		<g id="&lt;Group&gt;">
			<path id="&lt;Path&gt;" class="s2" d="m1150.6 284.6q-0.2 0-0.2-0.1c-0.1-0.1-0.1-0.3 0-0.4 0.6-0.5 1.7-0.6 1.7-0.6 0.1 0 0.3 0.1 0.3 0.3 0 0.1-0.1 0.2-0.3 0.2 0 0-0.9 0.1-1.4 0.5q-0.1 0.1-0.1 0.1z"/>
		</g>
		<g id="&lt;Group&gt;">
			<path id="&lt;Path&gt;" class="s2" d="m1157 284.2q-0.1 0-0.2 0c-0.5-0.4-1.4-0.3-1.4-0.3-0.2 0-0.3-0.1-0.3-0.2 0-0.2 0.1-0.3 0.2-0.3 0 0 1.1-0.1 1.8 0.3 0.1 0.1 0.1 0.3 0.1 0.4q-0.1 0.1-0.2 0.1z"/>
		</g>
		<g id="&lt;Group&gt;">
			<path id="&lt;Path&gt;" class="s13" d="m1155 302.2c-3.9-0.1-4.7-2.3-4.7-2.3 0-0.2 0-0.3 0.2-0.4 0.1 0 0.2 0.1 0.3 0.2 0 0.1 0.7 1.9 4.1 2 3.1 0 4.3-1.7 4.3-1.8 0.1-0.1 0.2-0.1 0.4 0 0.1 0.1 0.1 0.2 0 0.3 0 0.1-1.3 2-4.6 2z"/>
		</g>
		<g id="&lt;Group&gt;">
			<path id="&lt;Path&gt;" class="s2" d="m1148.4 286.1q-4.1-5.3-1-8.5c3.1-3.2 12-4.8 16.2 1.3q3 4.3-2.1 7.1l-5.8-5.9-2-0.8-3.4 0.8z"/>
		</g>
		<g id="&lt;Group&gt;">
			<path id="&lt;Path&gt;" class="s2" d="m1151.4 287.7c-0.2 0-0.3-0.2-0.3-0.3l0.1-1.3-1-0.5c-0.1-0.1-0.2-0.2-0.1-0.3 0-0.2 0.2-0.2 0.3-0.1l1.1 0.5q0.2 0.1 0.2 0.2l-0.1 1.5c0 0.2-0.1 0.3-0.2 0.3z"/>
		</g>
		<g id="&lt;Group&gt;">
			<path id="&lt;Path&gt;" class="s2" d="m1156.6 287.8c-0.2 0-0.3-0.1-0.3-0.2l0.1-1.4-0.9-0.6c-0.1-0.1-0.1-0.3 0-0.4 0.1-0.1 0.2-0.1 0.3 0l1 0.7q0.1 0.1 0.1 0.2l-0.1 1.5c0 0.1-0.1 0.2-0.2 0.2z"/>
		</g>
		<g id="&lt;Group&gt;">
			<path id="&lt;Path&gt;" class="s2" d="m1003.8 336.1c-0.1 0-0.3-0.1-0.3-0.2 0-0.2-0.7-12.1-0.9-15.6-0.2-7.4-5.6-12.8-5.7-12.9-0.1-0.1-0.1-0.3 0-0.4 0.1-0.1 0.3-0.1 0.4 0 0.1 0.1 5.6 5.7 5.8 13.3 0.2 3.5 0.9 15.4 0.9 15.5 0.1 0.2-0.1 0.3-0.2 0.3q0 0 0 0z"/>
		</g>
		<g id="&lt;Group&gt;">
			<path id="&lt;Path&gt;" class="s6" d="m1146.2 378.4c-0.1 0-0.2-0.1-0.2-0.2-0.1-0.2-3.1-17.4-3-23.9 0.1-6.6 5.2-8.9 5.3-8.9 0.1-0.1 0.3 0 0.3 0.1 0.1 0.1 0 0.3-0.1 0.3-0.1 0-4.9 2.2-5 8.5-0.1 6.5 2.9 23.6 3 23.8 0 0.1-0.1 0.2-0.2 0.3q-0.1 0-0.1 0z"/>
		</g>
		<g id="&lt;Group&gt;">
			<path id="&lt;Compound Path&gt;" fill-rule="evenodd" class="s6" d="m1172.1 367q-0.2 0-0.2-0.1c-0.3-0.8-2.3-7.2-1.3-8.9q0.2-0.4 0.6-0.4 0.4-0.1 0.7 0.1c1.3 1.2 0.5 8.3 0.4 9.1 0 0.1-0.1 0.2-0.2 0.2q0 0 0 0zm-0.7-9q-0.1 0-0.1 0c-0.1 0.1-0.2 0.1-0.3 0.2-0.6 1.1 0.3 4.9 1 7.3 0.2-2.9 0.3-6.7-0.5-7.4q-0.1-0.1-0.1-0.1z"/>
		</g>
		<g id="&lt;Group&gt;">
			<path id="&lt;Path&gt;" class="s6" d="m1143.8 401q0 0-26.8-0.4c-0.1 0-0.2-0.1-0.2-0.2 0-0.1 0.1-0.2 0.2-0.3l26.8 0.4c0.2 0 0.3 0.1 0.3 0.2 0 0.2-0.1 0.3-0.3 0.3z"/>
		</g>
		<g id="&lt;Group&gt;">
			<path id="&lt;Path&gt;" class="s6" d="m1151.2 401.7c-0.1 0-0.3-0.1-0.3-0.2 0-0.2 0.1-0.3 0.3-0.3l25.4-1.7c0.1 0 0.2 0.1 0.2 0.2 0 0.2-0.1 0.3-0.2 0.3l-25.4 1.7q0 0 0 0z"/>
		</g>
		<g id="&lt;Group&gt;">
			<path id="&lt;Path&gt;" class="s10" d="m1100.8 414.5c3.6-2.2 10.9-2.7 13.6-4.2 2.8-1.5 6-5.2 7.5-4.4 1.5 0.9 4.2 4.6 8.5 4.4 4.3-0.2 6.3-1.1 7.4 0 0.7 0.8 1 7.4 1 11.6l1.6 0.4-0.3 4.1-9.2-0.6c-0.5 0.1-1.7-3.3-2.7-2.9-1.1 0.4-3.9 1.7-5.4 2.3q-22-0.9-26.2-1.7c-0.4-0.1-0.6-0.5-0.5-0.8 0.4-1.7 1.8-6.4 4.7-8.2z"/>
		</g>
		<g id="&lt;Group&gt;">
			<path id="&lt;Path&gt;" class="s13" d="m1141 320.8c-0.2 0-0.3-0.1-0.3-0.2-1.8-9.9 4.1-15.1 4.2-15.1 0.1-0.1 0.2-0.1 0.3 0 0.1 0.1 0.1 0.3 0 0.4-0.1 0-5.8 5-4 14.6 0 0.2-0.1 0.3-0.2 0.3q0 0 0 0z"/>
		</g>
		<g id="&lt;Group&gt;">
			<path id="&lt;Path&gt;" class="s14" d="m1012.6 355.1l-17.1-3.1c-0.9-0.2-1.5-1.1-1.2-2l9.1-27.9c0.3-0.9 1.3-1.6 2.3-1.4l17 3.1c1 0.1 1.5 1 1.2 2l-9 27.9c-0.3 0.9-1.3 1.5-2.3 1.4z"/>
		</g>
		<g id="&lt;Group&gt;">
			<path id="&lt;Path&gt;" class="s13" d="m1014.8 355.5l-17.1-3.1c-0.9-0.2-1.5-1.1-1.2-2l9.1-27.9c0.3-1 1.3-1.6 2.3-1.4l17 3.1c1 0.1 1.5 1 1.2 2l-9 27.9c-0.3 0.9-1.3 1.5-2.3 1.4z"/>
		</g>
		<g id="&lt;Group&gt;">
			<path id="&lt;Path&gt;" class="s1" d="m990.6 335.8q3-1.5 4.4-1.8c1.6-0.3 3-0.8 4.8-0.9l-0.7 3q3.4 1.1 6.6 2.8 3.3 1.8 2.6 3.3 2.1 1.4 1.1 2.3-0.9 0.9-4.3-0.2 4.3 1.9 2.4 2.8-1.8 0.9-5.8 0.4-8.7 1.2-11.5-1.9-2.7-3.1 0.4-9.8z"/>
		</g>
		<g id="&lt;Group&gt;">
			<path id="&lt;Path&gt;" class="s2" d="m999.5 336.4q0 0-1.7-0.2c-0.2 0-0.3-0.1-0.2-0.3 0-0.1 0.1-0.2 0.2-0.2l1.8 0.2c0.1 0.1 0.2 0.2 0.2 0.3 0 0.2-0.1 0.2-0.3 0.2z"/>
		</g>
		<g id="&lt;Group&gt;">
			<path id="&lt;Path&gt;" class="s2" d="m1008.1 342.2q0 0-0.1 0l-6.6-2.2c-0.1-0.1-0.2-0.2-0.2-0.3 0.1-0.2 0.2-0.2 0.3-0.2l6.7 2.2c0.1 0.1 0.2 0.2 0.2 0.3-0.1 0.1-0.2 0.2-0.3 0.2z"/>
		</g>
		<g id="&lt;Group&gt;">
			<path id="&lt;Path&gt;" class="s2" d="m1005.5 344.7q0 0-0.1 0l-4.1-1.4c-0.2 0-0.2-0.2-0.2-0.3 0-0.1 0.2-0.2 0.3-0.2l4.2 1.4c0.1 0.1 0.2 0.2 0.1 0.3q0 0.2-0.2 0.2z"/>
		</g>
		<g id="&lt;Group&gt;">
			<path id="&lt;Path&gt;" class="s11" d="m1140.3 417.7c3.1-2.8 9.9-4.4 12.3-6.3 2.3-1.9 4.8-6.2 6.3-5.6 1.6 0.7 4.8 3.9 8.8 3 4.1-0.9 5.8-2.1 7-1.2 0.9 0.6 2.3 7.1 2.9 11.3l1.6 0.1 0.3 4.2-8.7 0.8c-0.5 0.2-2.2-3-3.1-2.4-0.9 0.6-3.5 2.3-4.8 3.1q-21 2.7-25.2 2.5c-0.3 0-0.6-0.3-0.6-0.7 0.2-1.7 0.7-6.5 3.2-8.8z"/>
		</g>
		<g id="&lt;Group&gt;">
			<path id="&lt;Path&gt;" class="s2" d="m1154.6 293.6c-0.1 0-0.2-0.1-0.2-0.2-0.1-0.2 0-0.3 0.2-0.3 0.3 0 1.1-0.2 1.5-0.4 0.1 0 0.2 0 0.3 0.1 0.1 0.1 0 0.3-0.1 0.4-0.4 0.3-1.5 0.4-1.7 0.4q0 0 0 0z"/>
		</g>
		<g id="&lt;Group&gt;">
			<path id="&lt;Compound Path&gt;" fill-rule="evenodd" class="s2" d="m986.8 292.2q-0.3 0-0.6-0.1-0.5-0.2-0.6-0.6c-0.2-0.4 0.1-0.9 0.1-0.9 0.1-0.1 0.2-0.2 0.3-0.1l2.1 0.8q0.1 0.1 0.1 0.2 0 0.2-0.1 0.3c0 0-0.6 0.4-1.3 0.4zm-0.7-1.2q-0.1 0.2 0 0.4 0 0.1 0.3 0.2c0.3 0.2 0.7 0.1 1 0z"/>
		</g>
		<g id="&lt;Group&gt;">
			<path id="&lt;Path&gt;" class="s2" d="m971.9 289.1q-10.5-3.4-8.5-9.7 2.4-7.8 9.3 0.6z"/>
		</g>
		<g id="&lt;Group&gt;">
			<path id="&lt;Path&gt;" class="s6" d="m1018.9 327.1q-0.1 0-0.3 0l-5.8-1c-0.5-0.1-0.9-0.4-1.2-0.8-0.2-0.4-0.3-0.9-0.2-1.4l0.6-2c0-0.1 0.1-0.2 0.3-0.2 0.1 0.1 0.2 0.2 0.1 0.3l-0.5 2c-0.1 0.4 0 0.7 0.1 1 0.2 0.3 0.5 0.5 0.9 0.6l5.8 1c0.6 0.1 1.2-0.2 1.4-0.8l0.7-2.4c0-0.1 0.1-0.2 0.3-0.2 0.1 0.1 0.2 0.2 0.2 0.3l-0.7 2.4c-0.2 0.7-0.9 1.2-1.7 1.2z"/>
		</g>
		<g id="&lt;Group&gt;">
			<path id="&lt;Path&gt;" class="s1" d="m692.1 396.8v10.7h-19.7v-9.2z"/>
		</g>
		<g id="&lt;Group&gt;">
			<path id="&lt;Path&gt;" class="s1" d="m717.5 392.6l1.7 10.6-19.3 3.1-1.5-9z"/>
		</g>
		<g id="&lt;Group&gt;">
			<path id="&lt;Path&gt;" class="s15" d="m748.9 420.5c-1.1 0.5-45.9 5.7-47.1 4.2-0.3-0.5-0.7-2.2-1-4.3q-0.9-5-1.5-12.5-0.6-2.6-0.6-3.8-0.1-1.1 21.6-2.6l15 9.8q3.8-1 8.1-0.7c2.2 0.2 3.9 2.8 4.9 5.3 0.8 2.2 1 4.3 0.6 4.6z"/>
		</g>
		<g id="&lt;Group&gt;">
			<path id="&lt;Path&gt;" class="s16" d="m748.9 420.5c-1.1 0.5-45.9 5.7-47.1 4.2-0.3-0.5-0.7-2.2-1-4.3 8.6-0.2 29.7-0.9 47.5-4.5 0.8 2.2 1 4.3 0.6 4.6z"/>
		</g>
		<g id="&lt;Group&gt;">
			<path id="&lt;Path&gt;" class="s13" d="m731.7 409.2q0 0-8.1-0.1-0.1 0-0.2-0.1-0.1-0.2 0-0.3l2.5-3.5c0.1-0.1 0.3-0.2 0.4-0.1 0.1 0.1 0.1 0.2 0 0.4l-2.2 3.1 7.6 0.1c0.2 0 0.3 0.1 0.3 0.3 0 0.1-0.2 0.2-0.3 0.2z"/>
		</g>
		<g id="&lt;Group&gt;">
			<path id="&lt;Path&gt;" class="s1" d="m698.5 331.9q10.5 4 9 8.6-1.5 4.7-12.9-3.2z"/>
		</g>
		<g id="&lt;Group&gt;">
			<g id="&lt;Group&gt;">
				<path id="&lt;Path&gt;" class="s1" d="m702.5 341.1q-5.4 0.8-11.2-0.6-10.1-2.3-19.6-6.5v-8.7q5.3-9.6 9.8-7.2 6.2 3.5 22.3 16.6z"/>
			</g>
		</g>
		<g id="&lt;Group&gt;">
			<path id="&lt;Path&gt;" class="s1" d="m767.8 305.1q4.7 8-2.3 10.5c-7 2.6-16.8 0.6-19.3-0.9q-2.4-1.6-1-2.8 0 0-1.2-1-1.2-1 1.7-2.5-2.4-1.3 0-2.5 3.9-2 14.3 0z"/>
		</g>
		<g id="&lt;Group&gt;">
			<path id="&lt;Path&gt;" class="s17" d="m677.2 336.9q28.4 1.9 33.7 12 6 11.4 12 51.1l-24.7 1.2-2.9-9.5z"/>
		</g>
		<g id="&lt;Group&gt;">
			<path id="&lt;Path&gt;" class="s1" d="m756.2 306.5l9.8-1.4q4.5 5.4-0.5 8.5c-5 3.1-10.5 1.8-11.2 1.6z"/>
		</g>
		<g id="&lt;Group&gt;">
			<path id="&lt;Path&gt;" class="s1" d="m766 308.9q-3.1 0.4-7.8-2.7-5.1 1.3-4.7-1.1c0.5-2.4 5.8-3.6 8-3.9q2.3-0.3 6.2 3.1 1.4 4.1-1.7 4.6z"/>
		</g>
		<g id="&lt;Group&gt;">
			<path id="&lt;Path&gt;" class="s2" d="m765.4 309c-3.2 0-5.9-2.9-6.1-3-0.1-0.1-0.1-0.3 0-0.4 0.1-0.1 0.3-0.1 0.4 0 0 0.1 3.6 3.9 7 2.7 0.2 0 0.3 0 0.4 0.2 0 0.1-0.1 0.2-0.2 0.3q-0.8 0.2-1.5 0.2z"/>
		</g>
		<g id="&lt;Group&gt;">
			<path id="&lt;Path&gt;" class="s2" d="m753.5 313.4q0 0-0.1-0.1c-0.1 0-0.2-0.2-0.1-0.3l2.6-6.6c0.1-0.2 0.2-0.2 0.3-0.2 0.2 0.1 0.2 0.2 0.2 0.3l-2.7 6.7q0 0.2-0.2 0.2z"/>
		</g>
		<g id="&lt;Group&gt;">
			<path id="&lt;Path&gt;" class="s7" d="m839.3 308.7q15.5 11.1 12 35.3c-4 27.9-27.3 37-47.5 30.4q-20.2-6.6-16.9-25.6z"/>
		</g>
		<g id="&lt;Group&gt;">
			<path id="&lt;Path&gt;" class="s12" d="m838.7 361q-0.1 0-0.2-0.1c-0.1-0.1-0.1-0.3 0-0.4 5.4-4.2 7.2-13.1 7.2-13.2 0.1-0.2 0.2-0.3 0.3-0.2 0.2 0 0.2 0.1 0.2 0.3 0 0-1.8 9.2-7.4 13.5q0 0.1-0.1 0.1z"/>
		</g>
		<g id="&lt;Group&gt;">
			<path id="&lt;Path&gt;" class="s12" d="m684.8 350.7q3.4 19-16.8 25.6c-20.3 6.6-43.6-2.4-47.5-30.3q-3.5-24.3 12-35.4z"/>
		</g>
		<g id="&lt;Group&gt;">
			<path id="&lt;Path&gt;" class="s18" d="m633.1 362.9q-0.1 0-0.2 0c-5.5-4.3-7.3-13.5-7.4-13.6 0-0.1 0.1-0.3 0.2-0.3 0.2 0 0.3 0.1 0.3 0.2 0.1 0.1 1.8 9.1 7.2 13.3 0.1 0 0.2 0.2 0.1 0.3q-0.1 0.1-0.2 0.1z"/>
		</g>
		<g id="&lt;Group&gt;">
			<path id="&lt;Path&gt;" class="s1" d="m814.4 393.4l-1 12.6-6 7.3-9.5-3.9v-13.6z"/>
		</g>
		<g id="&lt;Group&gt;">
			<path id="&lt;Path&gt;" class="s1" d="m796.9 390.6l-1.2 12.5-6.9 7.4-11-4v-13.5z"/>
		</g>
		<g id="&lt;Group&gt;">
			<path id="&lt;Path&gt;" class="s8" d="m815.5 335.4l-17.8 41.3-3.3 24.5-23.3-0.3q-3.6-43.9-0.4-49.3 3.3-5.4 25.9-16.9z"/>
		</g>
		<g id="&lt;Group&gt;">
			<path id="&lt;Path&gt;" class="s8" d="m832.4 335.8q1 11.7 0.7 15.6-0.4 3.9-12.6 13l-0.6 37.7-27.1 1.2q-0.5-43.1-0.1-47.2 0.5-4 18.4-18.8z"/>
		</g>
		<g id="&lt;Group&gt;">
			<path id="&lt;Path&gt;" class="s19" d="m828.7 294.4c3.1 3 4.9 40.4 4.5 41-0.5 0.7-3.6 3.2-16.4 3.5-12.8 0.2-19.9-3.8-20.2-4.2-0.3-0.5-1.3-34.1 2.8-39.1q2.7-3.3 9.9-3.7c7.7-0.9 16.3-0.6 19.4 2.5z"/>
		</g>
		<g id="&lt;Group&gt;">
			<g id="&lt;Group&gt;">
				<g id="&lt;Group&gt;">
					<g id="&lt;Group&gt;">
						<path id="&lt;Path&gt;" class="s1" d="m815.6 286.4l-0.1 6.9q-1.3 1.9-5.4 2.2-2.9 0.1-4-0.6l0.5-3.4 0.5-3.4 7.3-1.4z"/>
					</g>
				</g>
			</g>
		</g>
		<g id="&lt;Group&gt;">
			<g id="&lt;Group&gt;">
				<g id="&lt;Group&gt;">
					<g id="&lt;Group&gt;">
						<path id="&lt;Path&gt;" class="s2" d="m814.4 286.7q-0.1 0.2-0.2 0.6c-1.6 3.4-5.9 4.1-7.6 4.2l0.5-3.4z"/>
					</g>
				</g>
			</g>
		</g>
		<g id="&lt;Group&gt;">
			<g id="&lt;Group&gt;">
				<g id="&lt;Group&gt;">
					<g id="&lt;Group&gt;">
						<path id="&lt;Path&gt;" class="s1" d="m817.2 277.4l-1.3 2.5q1.7-1 3.1-0.4c1.4 0.6 2.3 3.2 0.7 5.5q-1.7 2.3-4.1 1.4-1.2 1.6-3.8 2.5c-2.7 0.9-7.1 1.7-8.4-3.1q-1.3-4.9 2.5-13.4 5.9-7.6 11.3 5z"/>
					</g>
				</g>
			</g>
		</g>
		<g id="&lt;Group&gt;">
			<path id="&lt;Path&gt;" class="s2" d="m806.2 283.3c-0.1 0-0.2-0.1-0.2-0.2-0.6-1.8 0.7-3.7 0.8-3.8 0-0.1 0.2-0.1 0.3 0 0.1 0.1 0.2 0.2 0.1 0.3 0 0-1.2 1.8-0.7 3.3 0 0.2-0.1 0.3-0.2 0.3q0 0.1-0.1 0.1z"/>
		</g>
		<g id="&lt;Group&gt;">
			<path id="&lt;Path&gt;" class="s2" d="m816.3 283.9q-0.1 0-0.2-0.1c-0.1-0.1-0.1-0.2 0-0.3l2.3-2.5c0.1-0.1 0.3-0.1 0.4 0 0.1 0.1 0.1 0.2 0 0.3l-2.3 2.5q-0.1 0.1-0.2 0.1z"/>
		</g>
		<g id="&lt;Group&gt;">
			<path id="&lt;Path&gt;" class="s2" d="m818.7 283.2q0 0-1.6-0.2c-0.2 0-0.2-0.2-0.2-0.3 0-0.1 0.1-0.2 0.3-0.2l1.6 0.2c0.1 0.1 0.2 0.2 0.2 0.3 0 0.1-0.1 0.2-0.3 0.2z"/>
		</g>
		<g id="&lt;Group&gt;">
			<path id="&lt;Path&gt;" class="s2" d="m810.1 280.1c-0.2-0.1-0.3-0.2-0.2-0.3l0.2-1.6c0-0.1 0.1-0.2 0.2-0.2 0.2 0 0.3 0.1 0.3 0.3l-0.2 1.5c-0.1 0.2-0.2 0.3-0.3 0.3z"/>
		</g>
		<g id="&lt;Group&gt;">
			<path id="&lt;Path&gt;" class="s2" d="m805.4 279.7c-0.2 0-0.3-0.2-0.3-0.3l0.3-1.6c0-0.1 0.1-0.2 0.2-0.2 0.2 0 0.3 0.1 0.3 0.3l-0.3 1.6c0 0.1-0.1 0.2-0.2 0.2z"/>
		</g>
		<g id="&lt;Group&gt;">
			<path id="&lt;Path&gt;" class="s2" d="m811.2 277.2q-0.1-0.1-0.2-0.2c-0.4-0.7-1.5-0.5-1.5-0.5-0.2 0-0.3 0-0.3-0.2-0.1-0.1 0-0.2 0.2-0.3 0 0 1.4-0.3 2 0.8 0.1 0.1 0 0.3-0.1 0.3q0 0.1-0.1 0.1z"/>
		</g>
		<g id="&lt;Group&gt;">
			<path id="&lt;Path&gt;" class="s2" d="m805 276.5q0 0-0.1 0c-0.1-0.1-0.1-0.3-0.1-0.4 0.1 0 0.5-0.6 1.1-0.6q0.5-0.1 0.9 0.3c0.1 0.1 0.1 0.2 0.1 0.3-0.1 0.1-0.3 0.2-0.4 0.1q-0.3-0.3-0.5-0.2c-0.4 0-0.8 0.4-0.8 0.4q0 0.1-0.2 0.1z"/>
		</g>
		<g id="&lt;Group&gt;">
			<path id="&lt;Path&gt;" class="s10" d="m815.1 280.5q-2.3-1.6-2.2-4 0.1-2.4 0.7-3-2.7-0.1-5-0.8-1.4-0.5-2.1-1l-0.6 0.7c-0.7 0-2.2-4.2-1.2-4.9q1-0.7 6.5 1.2 5.8-1.4 9.2 2.7 3.4 4.2-0.4 9-1-2.1-4.9 0.1z"/>
		</g>
		<g id="&lt;Group&gt;">
			<path id="&lt;Path&gt;" class="s2" d="m809.3 295.7c-1.9 0-3.3-0.5-3.3-0.5-0.1-0.1-0.2-0.2-0.1-0.4 0-0.1 0.2-0.1 0.3-0.1 0.1 0 4.7 1.9 9.1-1.6 0.1-0.1 0.3-0.1 0.3 0 0.1 0.1 0.1 0.3 0 0.4-2.2 1.8-4.5 2.2-6.3 2.2z"/>
		</g>
		<g id="&lt;Group&gt;">
			<path id="&lt;Compound Path&gt;" fill-rule="evenodd" class="s2" d="m808.4 286.1c-0.8 0-1.3-0.5-1.4-0.5q-0.1-0.1 0-0.3 0-0.1 0.1-0.2l2.2-0.8q0.1 0 0.2 0 0.1 0.1 0.2 0.2c0 0 0.1 0.5-0.1 1q-0.2 0.4-0.7 0.5-0.3 0.1-0.5 0.1zm-0.6-0.7c0.2 0.2 0.6 0.3 1 0.2q0.3-0.1 0.4-0.3 0-0.2 0-0.4z"/>
		</g>
		<g id="&lt;Group&gt;">
			<path id="&lt;Path&gt;" class="s19" d="m805 321.3q-19.8 14.6-43.3-2.1l6.9-18q11.6 4.2 16.1 3 8.3-2.1 16-9.8 10 22.7 4.3 26.9z"/>
		</g>
		<g id="&lt;Group&gt;">
			<path id="&lt;Path&gt;" class="s19" d="m827.6 293.6q22.8 12.2 20.9 30.8-1.3 13.2-35.1 11l-0.3-18.9 15.5-1.6z"/>
		</g>
		<g id="&lt;Group&gt;">
			<path id="&lt;Compound Path&gt;" fill-rule="evenodd" class="s2" d="m834.8 314.9c-2 0-4.6-0.4-5.7-0.6q-0.2-0.1-0.2-0.2 0-0.2 0.1-0.3c0.3-0.1 5.6-2.9 7.9-0.5q0.5 0.6 0.3 1c-0.3 0.4-1.2 0.6-2.4 0.6zm-4.8-1c3.1 0.5 6.4 0.7 6.7 0.2 0.1-0.1 0-0.3-0.2-0.5-1.5-1.6-5-0.3-6.5 0.3z"/>
		</g>
		<g id="&lt;Group&gt;">
			<path id="&lt;Path&gt;" class="s2" d="m829.1 314.3q0 0-0.1-0.1c-2-1.3-0.5-5.4-0.4-5.6 0.1-0.1 0.2-0.2 0.3-0.1 0.2 0 0.2 0.2 0.2 0.3 0 0-1.5 3.9 0.2 5 0.1 0.1 0.1 0.3 0 0.4q0 0.1-0.2 0.1z"/>
		</g>
		<g id="&lt;Group&gt;">
			<path id="&lt;Path&gt;" class="s10" d="m792.3 426c-11.5 0.4-37.6 1.1-38.1-0.2q-0.6-1.7 1.5-5l17.2-11.1q1.8-4.6 4.9-6.6 3-2.1 10.1 1.6 3.1-2.9 6.2-3.3 3-0.4 3.5 19.4c0 2.8-2.4 5.1-5.3 5.2z"/>
		</g>
		<g id="&lt;Group&gt;">
			<path id="&lt;Path&gt;" class="s11" d="m790.8 416q4.3-10.5 7.1-12.4 2.8-1.8 9.7 4 5.8-6.1 7.3-2.9c1.4 3.2 2.1 14.7 1 17.3-1.1 2.5-9.1 6.7-19.6 6.7-4.9 0-12-1.5-12-3.2-0.1-2.7 4.8-7.7 6.5-9.5z"/>
		</g>
		<g id="&lt;Group&gt;">
			<path id="&lt;Path&gt;" class="s7" d="m804.7 412.8h-8.9c-0.1 0-0.2-0.1-0.2-0.2 0-0.1 0.1-0.3 0.2-0.3h8.9c0.1 0 0.2 0.2 0.2 0.3 0 0.1-0.1 0.2-0.2 0.2z"/>
		</g>
		<g id="&lt;Group&gt;">
			<path id="&lt;Path&gt;" class="s7" d="m803.7 416.9h-9.4c-0.1 0-0.2-0.2-0.2-0.3 0-0.1 0.1-0.2 0.2-0.2h9.4c0.2 0 0.3 0.1 0.3 0.2 0 0.1-0.1 0.3-0.3 0.3z"/>
		</g>
		<g id="&lt;Group&gt;">
			<path id="&lt;Path&gt;" class="s7" d="m777.2 411.5q0 0-5.6-0.8c-0.2 0-0.3-0.1-0.3-0.3 0.1-0.1 0.2-0.2 0.3-0.2l5.7 0.8c0.1 0 0.2 0.1 0.2 0.3 0 0.1-0.1 0.2-0.3 0.2z"/>
		</g>
		<g id="&lt;Group&gt;">
			<path id="&lt;Path&gt;" class="s7" d="m775.8 415.4q0 0-9.5-1.5c-0.2 0-0.3-0.1-0.2-0.2 0-0.2 0.1-0.3 0.3-0.3l9.5 1.5c0.1 0 0.2 0.1 0.2 0.3 0 0.1-0.2 0.2-0.3 0.2z"/>
		</g>
		<g id="&lt;Group&gt;">
			<path id="&lt;Path&gt;" class="s13" d="m791.3 401.3c-0.1 0-0.2-0.1-0.2-0.3-0.2-1.6-2.7-40.5-1.7-45.2 0.6-3.1 10.8-12.4 12.7-14.2l-6.9-2.5c-0.1 0-0.2-0.2-0.1-0.3 0-0.1 0.2-0.2 0.3-0.2l7.3 2.7q0.1 0.1 0.2 0.2 0 0.1-0.1 0.2c-0.1 0.1-12.3 11-13 14.2-0.9 4.6 1.7 44.7 1.8 45.1 0 0.1-0.1 0.3-0.3 0.3q0 0 0 0z"/>
		</g>
		<g id="&lt;Group&gt;">
			<path id="&lt;Compound Path&gt;" fill-rule="evenodd" class="s13" d="m820.3 366.7q-0.1 0-0.1-0.1c-0.6-0.3-5.2-2.9-5-4.6q0.1-0.7 1-1 1.2-0.3 2.1 0.3c1.8 1.2 2.2 4.9 2.2 5.1q0 0.1-0.1 0.2 0 0.1-0.1 0.1zm-3.3-5.3q-0.3 0-0.6 0.1-0.7 0.2-0.7 0.6c-0.1 0.9 2.4 2.7 4.3 3.8-0.2-1-0.7-3.4-2-4.2q-0.4-0.3-1-0.3z"/>
		</g>
		<g id="&lt;Group&gt;">
			<path id="&lt;Path&gt;" class="s14" d="m718.2 427.8c-1.1 0.4-46.2-0.4-47.1-2.1-0.3-0.5-0.5-2.3-0.5-4.4q-0.2-5.1 0.2-12.6-0.2-2.6-0.1-3.8 0.1-1.2 21.8 0.3l13.5 11.7q3.9-0.5 8.1 0.4c2.2 0.5 3.6 3.3 4.2 5.9 0.5 2.3 0.4 4.5-0.1 4.6z"/>
		</g>
		<g id="&lt;Group&gt;">
			<path id="&lt;Path&gt;" class="s8" d="m718.2 427.8c-1.1 0.4-46.2-0.4-47.1-2.1-0.3-0.5-0.5-2.3-0.5-4.4 8.5 1 29.5 3.1 47.7 1.9 0.5 2.3 0.4 4.5-0.1 4.6z"/>
		</g>
		<g id="&lt;Group&gt;">
			<path id="&lt;Path&gt;" class="s13" d="m702.8 414.4q-0.1 0-8.1-1.2-0.1 0-0.1-0.2-0.1-0.1 0-0.2l3-3.2c0.1-0.1 0.2-0.1 0.3 0 0.1 0.1 0.1 0.2 0 0.3l-2.6 2.9 7.5 1.1c0.2 0 0.2 0.1 0.2 0.3 0 0.1-0.1 0.2-0.2 0.2z"/>
		</g>
		<g id="&lt;Group&gt;">
			<g id="&lt;Group&gt;">
				<path id="&lt;Path&gt;" class="s20" d="m674.3 335.5l-22.2-4.4h-24.4q3.6-3.8 5-11.8c1.5-8.1 0.4-14.5 8.8-20 8.4-5.5 20.8-4 25.7-1 5 3 8.6 7.7 10.9 11q2.2 3.2 6.8 8.9-7.8 3.2-10.6 17.3z"/>
			</g>
		</g>
		<g id="&lt;Group&gt;">
			<g id="&lt;Group&gt;">
				<g id="&lt;Group&gt;">
					<g id="&lt;Group&gt;">
						<g id="&lt;Group&gt;">
							<path id="&lt;Path&gt;" class="s1" d="m660.5 292.1v0.1l-0.1 3.1-0.1 2.4q0.2 0.6-2.6 0.4-3.8-0.2-5-1.8l-0.2-5.7 1.1 0.2z"/>
						</g>
					</g>
				</g>
			</g>
		</g>
		<g id="&lt;Group&gt;">
			<g id="&lt;Group&gt;">
				<g id="&lt;Group&gt;">
					<g id="&lt;Group&gt;">
						<g id="&lt;Group&gt;">
							<path id="&lt;Path&gt;" class="s2" d="m660.5 292.2l-0.1 3.1c-1.8-0.2-5.2-1-6.6-3.9q-0.1-0.3-0.2-0.6l6.9 1.4z"/>
						</g>
					</g>
				</g>
			</g>
		</g>
		<g id="&lt;Group&gt;">
			<g id="&lt;Group&gt;">
				<g id="&lt;Group&gt;">
					<g id="&lt;Group&gt;">
						<g id="&lt;Group&gt;">
							<path id="&lt;Path&gt;" class="s1" d="m661.6 277.5q3.6 8 2.3 12.5c-1.2 4.5-5.3 3.8-7.8 3q-2.4-0.9-3.6-2.4-2.3 0.8-3.8-1.3c-1.6-2.2-0.7-4.6 0.6-5.2q1.4-0.6 2.9 0.4l-1.2-2.3q5-11.9 10.6-4.7z"/>
						</g>
					</g>
				</g>
			</g>
		</g>
		<g id="&lt;Group&gt;">
			<g id="&lt;Group&gt;">
				<path id="&lt;Path&gt;" class="s4" d="m668.9 401.6l3-33.7q-23-1.8-30.8-7.3-7.8-5.5-4.1-25.3l18.3-1q38.5 1.3 44 12.1 5.5 10.8-2.7 55.2z"/>
			</g>
		</g>
		<g id="&lt;Group&gt;">
			<g id="&lt;Group&gt;">
				<path id="&lt;Path&gt;" class="s20" d="m670.3 316.2v19.6h-39.3v-10.9z"/>
			</g>
		</g>
		<g id="&lt;Group&gt;">
			<g id="&lt;Group&gt;">
				<path id="&lt;Path&gt;" class="s1" d="m667 347.1q-26.7 3.1-33.1-1.6-6.4-4.8-6.6-14.1 16.8-1.1 20.5 1.7 1.6 1.2 22.3 4.7z"/>
			</g>
		</g>
		<g id="&lt;Group&gt;">
			<g id="&lt;Group&gt;">
				<path id="&lt;Path&gt;" class="s20" d="m647.8 331.1l-22 0.8q2.9-19.5 8.4-27.2 5.5-7.8 13.6-8.2z"/>
			</g>
		</g>
		<g id="&lt;Group&gt;">
			<path id="&lt;Path&gt;" class="s2" d="m661.1 287.2q0 0-0.1 0c-0.1-0.1-0.2-0.2-0.1-0.3 0.4-1.4-0.7-3-0.7-3-0.1-0.1 0-0.3 0.1-0.3 0.1-0.1 0.3-0.1 0.3 0 0.1 0.1 1.2 1.8 0.7 3.4 0 0.1-0.1 0.2-0.2 0.2z"/>
		</g>
		<g id="&lt;Group&gt;">
			<path id="&lt;Path&gt;" class="s2" d="m651.7 288.3q-0.1 0-0.2-0.1l-2.1-2.2c-0.1-0.1-0.1-0.3 0-0.4 0.1 0 0.3 0 0.4 0.1l2.1 2.2c0.1 0.1 0.1 0.2 0 0.3q-0.1 0.1-0.2 0.1z"/>
		</g>
		<g id="&lt;Group&gt;">
			<path id="&lt;Path&gt;" class="s2" d="m649.5 287.7c-0.2 0-0.3-0.1-0.3-0.2 0-0.1 0.1-0.3 0.2-0.3l1.5-0.2c0.1 0 0.2 0.1 0.3 0.2 0 0.1-0.1 0.3-0.2 0.3l-1.5 0.2q0 0 0 0z"/>
		</g>
		<g id="&lt;Group&gt;">
			<path id="&lt;Path&gt;" class="s2" d="m657.6 284.3c-0.1 0-0.2-0.1-0.2-0.2l-0.2-1.4c0-0.2 0.1-0.3 0.2-0.3 0.1 0 0.3 0.1 0.3 0.2l0.2 1.4c0 0.2-0.1 0.3-0.3 0.3q0 0 0 0z"/>
		</g>
		<g id="&lt;Group&gt;">
			<path id="&lt;Path&gt;" class="s2" d="m661.9 284c-0.2 0-0.3-0.1-0.3-0.2l-0.2-1.5c0-0.1 0.1-0.2 0.2-0.3 0.2 0 0.3 0.1 0.3 0.3l0.2 1.4c0 0.1-0.1 0.2-0.2 0.3q0 0 0 0z"/>
		</g>
		<g id="&lt;Group&gt;">
			<path id="&lt;Path&gt;" class="s2" d="m656.3 281.6q-0.1 0-0.1-0.1c-0.2 0-0.2-0.2-0.2-0.3 0.6-1 1.9-0.8 1.9-0.7 0.1 0 0.2 0.1 0.2 0.3 0 0.1-0.2 0.2-0.3 0.1 0 0-1-0.2-1.3 0.5q-0.1 0.2-0.2 0.2z"/>
		</g>
		<g id="&lt;Group&gt;">
			<path id="&lt;Path&gt;" class="s2" d="m660.8 280.9q-0.1 0-0.2-0.1c-0.1 0-0.1-0.2 0-0.3q0.3-0.5 0.8-0.5c0.7-0.1 1.3 0.4 1.3 0.5 0.1 0 0.1 0.2 0 0.3-0.1 0.1-0.2 0.1-0.3 0-0.2-0.1-0.6-0.4-1-0.3q-0.2 0-0.4 0.3-0.1 0.1-0.2 0.1z"/>
		</g>
		<g id="&lt;Group&gt;">
			<path id="&lt;Path&gt;" class="s1" d="m665 337.2q4.5-2 7-1.8c1.2 0 5.3 1.3 5.1 2.4q-0.1 1.1-4.7 1.2 10.4 1.2 11.5 2.6 1.3 1.8-1.8 1.6 2.7 1.6 1.8 2.3-1 0.7-3.2 0.8 3.4 1.1 0.7 2.4c-2.8 1.4-19.4 1.4-21.7-4.4q-1.2-2.9 5.3-7.1z"/>
		</g>
		<g id="&lt;Group&gt;">
			<path id="&lt;Path&gt;" class="s2" d="m682.1 343.4q0 0-7.9-0.7c-0.1-0.1-0.2-0.2-0.2-0.3 0-0.2 0.1-0.3 0.3-0.2l7.8 0.8c0.2 0 0.3 0.1 0.2 0.2 0 0.2-0.1 0.2-0.2 0.2z"/>
		</g>
		<g id="&lt;Group&gt;">
			<path id="&lt;Path&gt;" class="s2" d="m672.4 339.3q0 0 0-0.1l-2.2-0.7c-0.1-0.1-0.2-0.2-0.2-0.3 0.1-0.2 0.2-0.2 0.3-0.2l2.2 0.8c0.2 0 0.2 0.2 0.2 0.3q-0.1 0.2-0.3 0.2z"/>
		</g>
		<g id="&lt;Group&gt;">
			<path id="&lt;Path&gt;" class="s21" d="m670.2 334.4c-0.1 0-0.2-0.1-0.2-0.2l-0.3-16c0-0.1 0.2-0.2 0.3-0.2 0.2 0 0.2 0.1 0.2 0.2l0.3 16c0 0.1-0.2 0.2-0.3 0.2q0 0 0 0z"/>
		</g>
		<g id="&lt;Group&gt;">
			<path id="&lt;Path&gt;" class="s21" d="m649.6 333.5c-0.1 0-0.3-0.1-0.3-0.3v-3.7c0-0.1 0.1-0.2 0.2-0.2 0.2 0 0.3 0.1 0.3 0.2v3.7c0 0.2-0.1 0.3-0.2 0.3q0 0 0 0z"/>
		</g>
		<g id="&lt;Group&gt;">
			<path id="&lt;Path&gt;" class="s21" d="m657.1 298.4c-1.6 0-3.5-0.4-4.6-2-0.1-0.1-0.1-0.3 0.1-0.3 0.1-0.1 0.2-0.1 0.3 0 2 2.9 7.3 1.4 7.3 1.4 0.2-0.1 0.3 0 0.3 0.2 0.1 0.1 0 0.2-0.1 0.3-0.1 0-1.6 0.4-3.3 0.4z"/>
		</g>
		<g id="&lt;Group&gt;">
			<path id="&lt;Path&gt;" class="s1" d="m699.6 346.5c-0.4-0.4-0.8-0.9-1-1.5-0.7-1.8-1.9-7.5-0.1-8.7q1.7-1.1 2.4 2-0.1-2.6 1.8-2.1 1.5 0.5 1.6 2.2 0.2-2.8 2.2-1.3c2 1.5 2.7 7.4 2.1 9.4q-0.5 2-2.8-0.1-0.8 2.1-2 1.9-1.3-0.3-1.4-2.1-1.1 1.7-2.8 0.3z"/>
		</g>
		<g id="&lt;Group&gt;">
			<path id="&lt;Path&gt;" class="s2" d="m702.4 345.7c-0.1 0-0.2 0-0.3-0.2l-1-4.9c0-0.2 0.1-0.3 0.2-0.3 0.2-0.1 0.3 0 0.3 0.2l1 4.9c0.1 0.2 0 0.3-0.2 0.3q0 0 0 0z"/>
		</g>
		<g id="&lt;Group&gt;">
			<path id="&lt;Path&gt;" class="s2" d="m705.7 345.8c-0.1 0-0.2 0-0.3-0.2l-0.8-4.2c0-0.2 0.1-0.3 0.2-0.3 0.2-0.1 0.3 0 0.3 0.2l0.8 4.2c0.1 0.2 0 0.3-0.2 0.3q0 0 0 0z"/>
		</g>
		<g id="&lt;Group&gt;">
			<path id="&lt;Path&gt;" class="s22" d="m793 340.1l-4-29.1c-0.1-1 0.6-1.8 1.6-1.8h17.3c1 0 1.9 0.8 2 1.8l4 29.1c0.1 0.9-0.5 1.7-1.5 1.7h-17.4c-0.9 0-1.8-0.8-2-1.7z"/>
		</g>
		<g id="&lt;Group&gt;">
			<path id="&lt;Path&gt;" class="s13" d="m790.8 340.1l-4-29.1c-0.1-1 0.5-1.8 1.5-1.8h17.4c0.9 0 1.8 0.8 2 1.8l4 29.1c0.1 0.9-0.6 1.7-1.6 1.7h-17.3c-1 0-1.9-0.8-2-1.7z"/>
		</g>
		<g id="&lt;Group&gt;">
			<path id="&lt;Path&gt;" class="s6" d="m799.9 313.2h-5.9c-0.9 0-1.6-0.6-1.7-1.5l-0.2-2.5c-0.1-0.1 0-0.2 0.2-0.2 0.1 0 0.2 0.1 0.3 0.2l0.2 2.4c0.1 0.7 0.6 1.1 1.2 1.1h5.9c0.4 0 0.7-0.1 1-0.4 0.2-0.2 0.3-0.5 0.3-0.9l-0.2-2.1c0-0.1 0.1-0.2 0.2-0.2 0.2 0 0.3 0.1 0.3 0.2l0.2 2.1c0 0.4-0.1 0.9-0.5 1.3-0.3 0.3-0.8 0.5-1.3 0.5z"/>
		</g>
		<g id="&lt;Group&gt;">
			<path id="&lt;Path&gt;" class="s1" d="m811.2 319q3.4-0.6 5.4-0.1 2 0.5 6.7 4.3 1.3 2 1.3 5 0 3-1 4.1-2.8 2-5.8 2.4c-2.2 0.3-4.8 0.9-5.8-0.4-1-1.3-1.6-5.6-1.8-7-0.1-1.4-3-2.9-3.1-4.1q-0.1-1.6 4.1-1.5z"/>
		</g>
		<g id="&lt;Group&gt;">
			<path id="&lt;Path&gt;" class="s2" d="m815.1 322h-3.9c-0.1 0-0.3-0.2-0.3-0.3 0-0.1 0.2-0.2 0.3-0.2h3.9c0.1 0 0.2 0.1 0.2 0.2 0 0.1-0.1 0.3-0.2 0.3z"/>
		</g>
		<g id="&lt;Group&gt;">
			<path id="&lt;Path&gt;" class="s2" d="m648.7 284.9q-3-1.9-2.6-4.4 0.5-2.6 2.8-2.7 0.7-4.9 4.6-6.4 4.3-1.6 4.7 1.7 1.9-1.6 5.4-0.7c3.5 0.9 2.9 5.3-0.4 6.3q-3.2 1-4.3-1.2-0.7 2.1-2.2 2.9-1.5 0.8-3.9 0.3 1.3 2.7 0.7 3.6-0.6 0.9-1.3 0.3-1.8-0.7-3.5 0.3z"/>
		</g>
		<g id="&lt;Group&gt;">
			<path id="&lt;Path&gt;" class="s2" d="m660.8 289.4q0 0-0.1 0c-0.5-0.3-1.4-0.1-1.8 0-0.1 0-0.2 0-0.3-0.2 0-0.1 0-0.2 0.2-0.3 0 0 1.4-0.4 2.2 0 0.1 0.1 0.1 0.3 0 0.4q0 0.1-0.2 0.1z"/>
		</g>
		<g id="&lt;Group&gt;">
			<path id="&lt;Path&gt;" class="s1" d="m698.5 341.1q-5.3 1.8-6.3 0-1-1.8 5.7-2.7z"/>
		</g>
		<g id="&lt;Group&gt;">
			<path id="&lt;Compound Path&gt;" fill-rule="evenodd" class="s7" d="m671.9 368.2q-0.1 0-0.2-0.1-0.1-0.1-0.1-0.2c0.1-0.2 1.3-5.1 4-6.6q1.2-0.8 2.6-0.4 1.2 0.3 1.3 1.1c0.2 2-6.7 5.8-7.5 6.2q-0.1 0-0.1 0zm5.4-6.9q-0.7 0-1.5 0.4c-1.9 1.2-3.1 4.4-3.5 5.7 2.8-1.5 6.8-4.2 6.7-5.4q-0.1-0.4-0.9-0.6-0.4-0.1-0.8-0.1z"/>
		</g>
		<g id="&lt;Group&gt;">
			<path id="&lt;Path&gt;" class="s2" d="m694.8 111.2q4.5 8.8 2.9 12-1.8 3.6-6.8 3.6z"/>
		</g>
		<g id="&lt;Group&gt;">
			<path id="&lt;Path&gt;" class="s11" d="m819.6 145.8c1-0.9 30.1-5.7 32 26.9 1.9 31.1-31.2 59.7-70.1 49.3-11.6-3.1-15.2-16.9-11.4-27.5 4.2-11.5 19.3-16.2 30-22.3z"/>
		</g>
		<g id="&lt;Group&gt;">
			<g id="&lt;Group&gt;">
				<path id="&lt;Path&gt;" class="s1" d="m720.5 145.5q0.9-4 3-5.9c2.2-1.8 4.7-3 4.3-1.4q-0.4 1.7-1.9 4.4l3.9-1.1q2.5-1.2 4.4-1.7 1.9-0.5 2.4 0.9 1.9-0.5 2.7 0 0.8 0.5 0.2 1.7 2.7 0 1.7 2.1c-1 2-6.2 5.5-8.8 6.7q-2.5 1.2-8.3 2-7.3-3.4-3.6-7.7z"/>
			</g>
		</g>
		<g id="&lt;Group&gt;">
			<path id="&lt;Path&gt;" class="s2" d="m734.5 146.3q-0.1 0-0.1-0.1l-6.4-3.3c-0.1-0.1-0.1-0.2-0.1-0.4 0.1-0.1 0.3-0.1 0.4-0.1l6.3 3.4c0.1 0.1 0.2 0.2 0.1 0.3q-0.1 0.2-0.2 0.2z"/>
		</g>
		<g id="&lt;Group&gt;">
			<path id="&lt;Path&gt;" class="s2" d="m722.2 148.4c-0.1 0-0.2-0.1-0.2-0.2-0.1-0.2 0-0.3 0.2-0.3q2.8-0.8 3.6-2.4c0.5-1.1 0-2.2 0-2.2 0-0.1 0-0.2 0.1-0.3 0.2-0.1 0.3 0 0.4 0.1 0 0.1 0.5 1.3-0.1 2.6q-0.8 1.8-3.9 2.6 0 0.1-0.1 0.1z"/>
		</g>
		<g id="&lt;Group&gt;">
			<g id="&lt;Group&gt;">
				<path id="&lt;Path&gt;" class="s8" d="m687.9 137.5q5.4 4.7 15.6 7.4 7.3 2 16.7-2l8.8 12.1q-23.6 14.1-34.4 7-13.8-9-6.7-24.5z"/>
			</g>
		</g>
		<g id="&lt;Group&gt;">
			<path id="&lt;Path&gt;" class="s20" d="m826 209.4q-0.1-0.1-0.2-0.2c-0.1-0.1 0-0.2 0.1-0.3 10-6 14.1-15.1 14.1-15.2 0.1-0.1 0.2-0.2 0.3-0.1 0.2 0 0.2 0.2 0.2 0.3-0.1 0.1-4.2 9.3-14.4 15.4q0 0.1-0.1 0.1z"/>
		</g>
		<g id="&lt;Group&gt;">
			<path id="&lt;Path&gt;" class="s2" d="m822 123.1q8-1.2 9.9 4.5 2 5.7-1.4 15.3l-9.5-0.9z"/>
		</g>
		<g id="&lt;Group&gt;">
			<path id="&lt;Path&gt;" class="s23" d="m807.1 155.7l-11.2 39.1q-19.9-1.7-10-12.8 9.8-11.1 12.6-25.2z"/>
		</g>
		<g id="&lt;Group&gt;">
			<path id="&lt;Path&gt;" class="s24" d="m798.3 180.1q0.7-0.3-8 42l-9.8-0.9q-5-24.1-4.3-31.1 0.7-7 10.6-12.5 10.8 2.8 11.5 2.5z"/>
		</g>
		<g id="&lt;Group&gt;">
			<path id="&lt;Path&gt;" class="s23" d="m801.9 197.7l-1.8 27.1-10.9-1q-3.8-17.7-3.9-26.7-0.2-8.9 8.9-17.4z"/>
		</g>
		<g id="&lt;Group&gt;">
			<path id="&lt;Path&gt;" class="s2" d="m679.9 106.9q-12.9 13.7 3.1 19.1 11.6 3.9-3.1-19.1z"/>
		</g>
		<g id="&lt;Group&gt;">
			<path id="&lt;Path&gt;" class="s11" d="m710.5 172.3q36.2 44.7-2 51.4c-38.3 6.7-73.2-11.1-74-42.3-0.9-31.2 21.4-27.9 22.5-27.1z"/>
		</g>
		<g id="&lt;Group&gt;">
			<path id="&lt;Path&gt;" class="s1" d="m724.4 202.5l-0.6 7.3h-14.1v-8.3z"/>
		</g>
		<g id="&lt;Group&gt;">
			<path id="&lt;Path&gt;" class="s1" d="m699.3 205.9l-1.4 7.3-15.5-3.6 2.7-8.1z"/>
		</g>
		<g id="&lt;Group&gt;">
			<path id="&lt;Path&gt;" class="s8" d="m672.2 165.7l-0.6-35q15.1-4.7 24.5-0.2 9.4 4.5 11.9 30.7z"/>
		</g>
		<g id="&lt;Group&gt;">
			<path id="&lt;Path&gt;" class="s17" d="m702.1 159.8q20.3-5 25.9 3.6 5.6 8.6-2.2 41.4h-18.7z"/>
		</g>
		<g id="&lt;Group&gt;">
			<path id="&lt;Path&gt;" class="s4" d="m674.2 167.2q27.1-14.9 40-4.7 12.9 10.3-8.3 48.5l-25.5-7.5 8-14q-17.6-0.1-26.1-3.3-8.5-3.2-3.4-18.9z"/>
		</g>
		<g id="&lt;Group&gt;">
			<path id="&lt;Path&gt;" class="s16" d="m724.8 205.9q4.9 5.7 6 6.3c1.2 0.5 13 4.5 15.2 6.7 2.3 2.2 2.5 6.6 1.8 7q-0.6 0.4-39.4 0l-0.5-18.7z"/>
		</g>
		<g id="&lt;Group&gt;">
			<path id="&lt;Path&gt;" class="s8" d="m700.2 210.1q2 7.7 3.6 8.6c1.6 0.8 8.5 5.1 12.2 9q3.1 3.3 0 5.2h-21.6l-18.6-13.7 6.6-14.2z"/>
		</g>
		<g id="&lt;Group&gt;">
			<path id="&lt;Path&gt;" class="s13" d="m736 214.3c0.3 1.1-10.2 2.7-11.4 2.2q-1.2-0.5 4.2-6.7c1.2-0.1 7 3.4 7.2 4.5z"/>
		</g>
		<g id="&lt;Group&gt;">
			<path id="&lt;Path&gt;" class="s13" d="m707.9 221.2c0 1.1-10.5-0.3-11.5-1.1q-1.1-0.9 5.9-5.3c1.2 0.3 5.7 5.2 5.6 6.4z"/>
		</g>
		<g id="&lt;Group&gt;">
			<g id="&lt;Group&gt;">
				<g id="&lt;Group&gt;">
					<g id="&lt;Group&gt;">
						<path id="&lt;Path&gt;" class="s1" d="m685 123l6.5 2.3v2.8 2.8q-1 0.4-3.7-0.2-3.6-0.8-4.6-2.5l0.7-5.6z"/>
					</g>
				</g>
			</g>
		</g>
		<g id="&lt;Group&gt;">
			<g id="&lt;Group&gt;">
				<g id="&lt;Group&gt;">
					<g id="&lt;Group&gt;">
						<path id="&lt;Path&gt;" class="s2" d="m691.4 125.4l0.1 3.1c-1.5-0.3-5.4-1.5-6.4-4.8q-0.1-0.4-0.1-0.7z"/>
					</g>
				</g>
			</g>
		</g>
		<g id="&lt;Group&gt;">
			<g id="&lt;Group&gt;">
				<g id="&lt;Group&gt;">
					<g id="&lt;Group&gt;">
						<path id="&lt;Path&gt;" class="s1" d="m694.8 111.2q2.2 8.4 0.3 12.6c-1.9 4.2-5.8 2.9-8 1.7q-2.3-1.2-3.2-2.9-2.3 0.4-3.5-1.9c-1.2-2.3 0.1-4.5 1.4-4.9q1.4-0.3 2.8 0.8l-0.9-2.4q6.8-10.8 11.1-3z"/>
					</g>
				</g>
			</g>
		</g>
		<g id="&lt;Group&gt;">
			<path id="&lt;Path&gt;" class="s2" d="m693 121.1q-0.1 0-0.1 0c-0.2-0.1-0.2-0.2-0.2-0.3 0.7-1.4-0.1-3.1-0.1-3.2-0.1-0.1 0-0.2 0.1-0.3 0.1 0 0.3 0 0.3 0.1 0.1 0.1 1 2 0.2 3.6q-0.1 0.1-0.2 0.1z"/>
		</g>
		<g id="&lt;Group&gt;">
			<path id="&lt;Path&gt;" class="s2" d="m683.7 120.2q-0.1 0-0.2-0.1l-1.8-2.6c0-0.1 0-0.2 0.1-0.3 0.1-0.1 0.3 0 0.4 0.1l1.7 2.5c0.1 0.2 0.1 0.3 0 0.4q-0.1 0-0.2 0z"/>
		</g>
		<g id="&lt;Group&gt;">
			<path id="&lt;Path&gt;" class="s2" d="m683.1 119.3q0 0-1.5 0c-0.2 0-0.3-0.1-0.3-0.3 0-0.1 0.1-0.2 0.3-0.2q0 0 1.5 0c0.1 0 0.2 0.1 0.2 0.2 0 0.2-0.1 0.3-0.2 0.3z"/>
		</g>
		<g id="&lt;Group&gt;">
			<path id="&lt;Path&gt;" class="s13" d="m694.6 156.7q-0.1 0-0.1 0c-0.1-0.1-0.2-0.3-0.1-0.4 0 0 1.8-2.3 3.2-5.8 2.2-5.4 0-13.3 0-13.4 0-0.1 0-0.3 0.2-0.3 0.1 0 0.2 0 0.3 0.2 0.1 0.3 2.2 8.2 0 13.7-1.5 3.5-3.3 5.9-3.3 5.9q-0.1 0.1-0.2 0.1z"/>
		</g>
		<g id="&lt;Group&gt;">
			<path id="&lt;Path&gt;" class="s2" d="m689 114.6q-0.1 0-0.2 0c-0.1-0.1-0.1-0.2 0-0.4 0.7-0.9 1.9-0.4 2-0.4 0.1 0 0.2 0.2 0.1 0.3 0 0.1-0.2 0.2-0.3 0.2 0-0.1-1-0.4-1.4 0.2q-0.1 0.1-0.2 0.1z"/>
		</g>
		<g id="&lt;Group&gt;">
			<path id="&lt;Path&gt;" class="s2" d="m695.1 114.7q-0.1 0-0.2-0.1c-0.1-0.1-0.5-0.5-0.9-0.5q-0.2 0-0.5 0.2c-0.1 0.1-0.2 0.1-0.3 0-0.1-0.1-0.1-0.2-0.1-0.3q0.4-0.4 1-0.4c0.7 0 1.2 0.7 1.2 0.7 0.1 0.1 0.1 0.2 0 0.3q-0.1 0.1-0.2 0.1z"/>
		</g>
		<g id="&lt;Group&gt;">
			<path id="&lt;Path&gt;" class="s2" d="m694.3 118c-0.2 0-0.3-0.1-0.3-0.3v-1.5q0-0.1 0.1-0.1l0.7-0.6c0.1-0.1 0.2-0.1 0.3 0 0.1 0.1 0.1 0.2 0 0.3l-0.6 0.6v1.3c0 0.2-0.1 0.3-0.2 0.3z"/>
		</g>
		<g id="&lt;Group&gt;">
			<path id="&lt;Path&gt;" class="s2" d="m689.9 117.6c-0.2 0-0.3-0.1-0.3-0.2l0.1-1.5q0-0.1 0.1-0.2l0.9-0.7c0.1 0 0.3 0 0.4 0.1 0.1 0.1 0 0.3-0.1 0.3l-0.8 0.6-0.1 1.4c0 0.1-0.1 0.2-0.2 0.2z"/>
		</g>
		<g id="&lt;Group&gt;">
			<path id="&lt;Path&gt;" class="s2" d="m685.7 104.6c7.5-0.9 9.5 4.4 9.9 5.3q0.3 1-0.2 4.1-0.2-0.7-0.9-2.2-0.7-1.4-2.7-2.5 0.1 1.3-1.4 3.9-1.6 2.7-5.5 3.4c-5.6-1.6-10.6-10.7 0.8-12z"/>
		</g>
		<g id="&lt;Group&gt;">
			<path id="&lt;Path&gt;" class="s1" d="m683.5 152.1q0.3-0.2 1.8-0.7 1.4-0.5 6.4-0.1 4.4 0.6 8 2 3.7 1.5 3.2 3.1 2.3 1.3 1.5 2.3-0.9 1-4.6 0.4 4.7 1.3 2.9 2.5-1.8 1.2-7.9-0.7-8.9 4.1-12.2 1.2-3.3-2.9 0.9-10z"/>
		</g>
		<g id="&lt;Group&gt;">
			<path id="&lt;Path&gt;" class="s8" d="m685.3 150.8l3.7 14.6q-23.8 18.8-33.8 4.1c-10-14.7 8.6-36.8 16.4-38.8q7.8-2.1 3.8 21.6z"/>
		</g>
		<g id="&lt;Group&gt;">
			<path id="&lt;Compound Path&gt;" fill-rule="evenodd" class="s20" d="m688.4 189.7q-0.1 0-0.2 0-0.1-0.1-0.1-0.3c0.1-0.2 1.5-5.8 3.7-6.8q0.9-0.3 1.7 0.1 0.8 0.5 0.8 1.2c0 2.2-5.2 5.4-5.8 5.8q-0.1 0-0.1 0zm4.2-6.7q-0.3 0-0.6 0.1c-1.6 0.7-2.8 4.3-3.2 5.8 1.8-1.1 5-3.5 5-5q0-0.4-0.5-0.7-0.4-0.2-0.7-0.2z"/>
		</g>
		<g id="&lt;Group&gt;">
			<path id="&lt;Path&gt;" class="s13" d="m667.5 153.1q-0.2 0-0.2-0.2c-0.1-0.1 0-0.3 0.1-0.3 5.2-2 15.2-1.7 15.6-1.7 0.1 0 0.2 0.1 0.2 0.3 0 0.1-0.1 0.2-0.2 0.2-0.1 0-10.3-0.3-15.4 1.7q-0.1 0-0.1 0z"/>
		</g>
		<g id="&lt;Group&gt;">
			<path id="&lt;Compound Path&gt;" fill-rule="evenodd" class="s13" d="m675.2 151.6c-1.7-0.2-7.2-1-7.4-2.1-0.1-0.1-0.1-0.4 0.3-0.6 1.7-1.3 6.7 1.9 7.3 2.3 0.1 0 0.1 0.1 0.1 0.3q-0.1 0.1-0.3 0.1zm-6-2.5q-0.5 0-0.8 0.2c-0.1 0.1-0.2 0.1-0.2 0.1 0.1 0.4 2.7 1.1 5.9 1.6-1.5-0.9-3.6-1.9-4.9-1.9z"/>
		</g>
		<g id="&lt;Group&gt;">
			<path id="&lt;Path&gt;" class="s13" d="m691.9 131.3c-1.7 0-7.1-0.2-9.3-3 0-0.1 0-0.3 0.1-0.4 0.1-0.1 0.3 0 0.3 0.1 2.3 3 9.2 2.8 9.3 2.8 0.2 0 0.3 0.1 0.3 0.2 0 0.2-0.1 0.3-0.3 0.3q0 0-0.4 0z"/>
		</g>
		<g id="&lt;Group&gt;">
			<path id="&lt;Path&gt;" class="s2" d="m702.9 156.7q-0.1 0-0.1-0.1c-0.1 0-3.2-1.8-7.1-2.9-0.1 0-0.2-0.1-0.2-0.3 0.1-0.1 0.2-0.2 0.4-0.2 3.9 1.2 7.1 3 7.1 3 0.1 0.1 0.2 0.2 0.1 0.3q-0.1 0.2-0.2 0.2z"/>
		</g>
		<g id="&lt;Group&gt;">
			<path id="&lt;Path&gt;" class="s2" d="m700.2 159.2q-0.1 0-0.1 0c0 0-2.6-1.7-4.9-1.9-0.2-0.1-0.3-0.2-0.3-0.3 0-0.2 0.2-0.2 0.3-0.2 2.4 0.2 5.1 1.9 5.2 2 0.1 0 0.1 0.2 0 0.3q-0.1 0.1-0.2 0.1z"/>
		</g>
		<g id="&lt;Group&gt;">
			<path id="&lt;Path&gt;" class="s20" d="m659.4 210.1q0 0-0.1-0.1c-10.2-6.1-14.3-15.3-14.3-15.4-0.1-0.1 0-0.2 0.1-0.3 0.1 0 0.3 0 0.3 0.1 0.1 0.1 4.1 9.2 14.1 15.2 0.2 0.1 0.2 0.2 0.1 0.4q0 0.1-0.2 0.1z"/>
		</g>
		<g id="&lt;Group&gt;">
			<g id="&lt;Group&gt;">
				<path id="&lt;Path&gt;" class="s25" d="m776.4 220q0.8-3.7 2.8-3.8 1.9-0.1 4.5 4 7.6-0.3 8.1 0.2c0.5 0.6 0.2 12.2-0.3 12.4-0.6 0.2-31.7-0.6-33.1-0.8-1.4-0.2 0.8-6.2 3.6-7.2q2.8-1 5.8-0.9z"/>
			</g>
		</g>
		<g id="&lt;Group&gt;">
			<g id="&lt;Group&gt;">
				<path id="&lt;Path&gt;" class="s4" d="m785.9 221.6q0.5-3.7 2.4-4 1.8-0.3 4.7 3.6 7.3-0.9 7.8-0.4c0.5 0.5 1.2 12.1 0.7 12.3-0.5 0.2-30.6 2-32 1.9-1.4-0.1 0.2-6.2 2.9-7.4q2.6-1.2 5.5-1.4z"/>
			</g>
		</g>
		<g id="&lt;Group&gt;">
			<path id="&lt;Path&gt;" class="s13" d="m778.2 226.4c-0.1 0-0.2-0.1-0.2-0.2 0-0.2 0.1-0.3 0.2-0.3l4.2-0.2c0.2-0.1 0.3 0.1 0.3 0.2 0 0.1-0.1 0.3-0.2 0.3l-4.3 0.2q0 0 0 0z"/>
		</g>
		<g id="&lt;Group&gt;">
			<path id="&lt;Path&gt;" class="s13" d="m771.5 224.2q0 0-3.7-0.1c-0.1 0-0.2-0.1-0.2-0.2q0-0.2 0.2-0.3l3.7 0.1c0.2 0 0.3 0.2 0.3 0.3 0 0.1-0.1 0.2-0.3 0.2z"/>
		</g>
		<g id="&lt;Group&gt;">
			<g id="&lt;Group&gt;">
				<path id="&lt;Path&gt;" class="s20" d="m801.3 194.8l-7.3-0.1-13.5-13.1q5.6-5.9 21.4-12.5l6.4 2 2.3 2.8-1.6 1.5v0.1z"/>
			</g>
		</g>
		<g id="&lt;Group&gt;">
			<g id="&lt;Group&gt;">
				<path id="&lt;Path&gt;" class="s20" d="m820.5 192.6c-2.6 2.8-11.9 10.2-18.2 11.5l-12-13.8c0.9-1 1.8-1.8 2.5-2.4 6.6-5.8 15.7-16.1 16.6-17.1q0.1-0.1 0.1-0.1l1.8 1.3 1.8 1.2 12.7-3.5q2.8 14.4-5.3 22.9z"/>
			</g>
		</g>
		<g id="&lt;Group&gt;">
			<g id="&lt;Group&gt;">
				<path id="&lt;Path&gt;" class="s20" d="m796.3 157.5q1.9-6.6 3.9-9.4 3.2-4.1 9.4-7.1l-8.4 17.2q-3.5-0.2-4.9-0.7z"/>
			</g>
		</g>
		<g id="&lt;Group&gt;">
			<g id="&lt;Group&gt;">
				<path id="&lt;Path&gt;" class="s20" d="m800.2 173q-0.9-25 7.1-30.7 8.1-5.7 16.2 0.5l-3.9 33q-9.8 1.8-19.4-2.8z"/>
			</g>
		</g>
		<g id="&lt;Group&gt;">
			<g id="&lt;Group&gt;">
				<g id="&lt;Group&gt;">
					<g id="&lt;Group&gt;">
						<g id="&lt;Group&gt;">
							<path id="&lt;Path&gt;" class="s23" d="m819.6 135.3l-0.3 6q-1.2 1.7-4.7 1.8-2.7 0-3.4-1.4l0.9-5.2 6.4-1z"/>
						</g>
					</g>
				</g>
			</g>
		</g>
		<g id="&lt;Group&gt;">
			<g id="&lt;Group&gt;">
				<g id="&lt;Group&gt;">
					<g id="&lt;Group&gt;">
						<g id="&lt;Group&gt;">
							<path id="&lt;Path&gt;" class="s2" d="m818.5 135.5q0 0.3-0.2 0.6c-1.5 2.9-5.2 3.3-6.7 3.4l0.5-3z"/>
						</g>
					</g>
				</g>
			</g>
		</g>
		<g id="&lt;Group&gt;">
			<g id="&lt;Group&gt;">
				<g id="&lt;Group&gt;">
					<g id="&lt;Group&gt;">
						<g id="&lt;Group&gt;">
							<path id="&lt;Path&gt;" class="s23" d="m821.3 127.5l-1.2 2.2q1.5-0.9 2.7-0.3c1.2 0.6 1.9 2.9 0.4 4.8q-1.5 2-3.6 1.1-1.1 1.4-3.4 2.1c-2.4 0.7-6.2 1.2-7.2-3q-1-4.3 2.6-11.6 5.4-6.5 9.7 4.7z"/>
						</g>
					</g>
				</g>
			</g>
		</g>
		<g id="&lt;Group&gt;">
			<g id="&lt;Group&gt;">
				<path id="&lt;Path&gt;" class="s23" d="m807.8 175.3q6-2.6 8.3-5.1 2.3-2.6 3.2-7.2l11.9 3.4q-0.2 5.9-6 10.4-4.8 3.7-17 4.8z"/>
			</g>
		</g>
		<g id="&lt;Group&gt;">
			<g id="&lt;Group&gt;">
				<path id="&lt;Path&gt;" class="s20" d="m823.5 142.8q6.9 3.6 8.6 10.9 1.7 7.4 0.1 16l-15.1-3.4 3.3-14.1q0.6-3.1 1.9-6z"/>
			</g>
		</g>
		<g id="&lt;Group&gt;">
			<path id="&lt;Path&gt;" class="s2" d="m815.2 127.1q-0.1 0-0.2-0.1c-0.4-0.7-1.5-0.8-1.5-0.8-0.1-0.1-0.2-0.2-0.2-0.3 0-0.1 0.1-0.2 0.3-0.2 0 0 1.3 0.1 1.9 1.1 0 0.1 0 0.2-0.1 0.3q-0.1 0-0.2 0z"/>
		</g>
		<g id="&lt;Group&gt;">
			<path id="&lt;Path&gt;" class="s2" d="m810.1 126.8q-0.1 0-0.2 0c-0.1-0.1-0.1-0.3-0.1-0.4 0.5-0.7 1.4-0.9 1.4-0.9 0.1-0.1 0.3 0 0.3 0.1 0.1 0.2 0 0.3-0.1 0.3-0.1 0-0.8 0.3-1.1 0.8q-0.1 0.1-0.2 0.1z"/>
		</g>
		<g id="&lt;Group&gt;">
			<path id="&lt;Path&gt;" class="s2" d="m811.5 131.8c-0.1 0-0.2-0.1-0.2-0.2-0.1-1.5 0.8-3.2 0.8-3.3 0.1-0.1 0.2-0.2 0.4-0.1 0.1 0 0.1 0.2 0.1 0.3 0 0-0.9 1.7-0.8 3.1 0 0.1-0.1 0.2-0.3 0.2q0 0 0 0z"/>
		</g>
		<g id="&lt;Group&gt;">
			<path id="&lt;Path&gt;" class="s2" d="m820.2 132.9q-0.1 0-0.2-0.1c-0.1-0.1-0.1-0.3 0.1-0.4l2.4-1.9c0.1 0 0.3 0 0.4 0.1 0.1 0.1 0 0.2-0.1 0.3l-2.4 1.9q-0.1 0.1-0.2 0.1z"/>
		</g>
		<g id="&lt;Group&gt;">
			<path id="&lt;Path&gt;" class="s2" d="m822.6 133q0 0-0.1-0.1l-1.5-0.8c-0.1 0-0.1-0.2-0.1-0.3 0.1-0.1 0.2-0.2 0.4-0.1l1.4 0.8c0.2 0 0.2 0.2 0.1 0.3q0 0.1-0.2 0.2z"/>
		</g>
		<g id="&lt;Group&gt;">
			<path id="&lt;Path&gt;" class="s2" d="m820.1 129.7q-2.6-0.4-4.2-2.6-1.6-2.3-2.3-4.5-1.1 0.1-1.8 1-0.6 0.6-1.2 1.5 0-3 1.6-4.4 1.6-1.4 2.9-0.9 3.4-1.7 6.7 1.4 3.3 3.2 1.4 8.6-1.7-0.8-3.1-0.1z"/>
		</g>
		<g id="&lt;Group&gt;">
			<path id="&lt;Compound Path&gt;" fill-rule="evenodd" class="s13" d="m817.7 147.5q-0.2 0-0.3 0c-2.1-0.3-3.7-3.2-4.1-4.1-0.8 0.6-2.7 2-4 1.8q-0.5-0.1-0.7-0.6c-0.4-0.6 0.8-2.4 1.3-3.2q0.1-0.1 0.2-0.1 0.1 0 0.2 0.1c0 0 1.8 1.4 4.5 1.5q0.1 0 0.1 0c2.7 0 4.2-1.7 4.2-1.7q0.1-0.2 0.2-0.1 0.2 0 0.2 0.2c0 0.2 0.5 4.5-0.9 5.8q-0.4 0.4-0.9 0.4zm-3.9-4.2c0.4 0.9 1.8 3.4 3.7 3.7q0.5 0 0.8-0.3c0.8-0.8 0.8-3.4 0.8-4.8-0.7 0.5-2.1 1.5-4.3 1.5q-0.5-0.1-1-0.1zm-3.6-1.4c-0.8 1.1-1.3 2.3-1.2 2.5q0.2 0.2 0.4 0.3c0.9 0.2 2.6-0.9 3.4-1.6-1.3-0.3-2.2-0.9-2.6-1.2z"/>
		</g>
		<g id="&lt;Group&gt;">
			<path id="&lt;Path&gt;" class="s13" d="m816 165.8c-0.2 0-0.3-0.1-0.2-0.3l1-5.6c0.1-0.1 0.2-0.2 0.3-0.2 0.2 0 0.2 0.2 0.2 0.3l-1 5.6c-0.1 0.1-0.2 0.2-0.3 0.2z"/>
		</g>
		<g id="&lt;Group&gt;">
			<path id="&lt;Path&gt;" class="s20" d="m818 186.7c-3.8 0-5.4-3.5-5.4-3.6 0-0.1 0-0.2 0.1-0.3 0.1 0 0.3 0 0.3 0.2 0.1 0.1 2.1 4.4 6.9 3 0.1-0.1 0.2 0 0.2 0.1 0.1 0.1 0 0.3-0.1 0.3q-1.1 0.3-2 0.3z"/>
		</g>
		<g id="&lt;Group&gt;">
			<g id="&lt;Group&gt;">
				<path id="&lt;Path&gt;" class="s23" d="m813.8 177.6q-1.7 3.5-3.9 5.1c-2.3 1.6-7.4 2.2-9 1.5-0.9-0.5-0.1-5.1-0.6-5.4-0.6-0.2-2.2 0.6-3.2-0.3q-1.1-1 2.4-3.1 4.9-3.1 6.3-2.7 1.5 0.4 4.3 1.5z"/>
			</g>
		</g>
		<g id="&lt;Group&gt;">
			<path id="&lt;Path&gt;" class="s2" d="m800.3 179.1c-0.1 0-0.2-0.1-0.3-0.2 0-0.2 0.1-0.3 0.2-0.3l2-0.3c0.1 0 0.3 0 0.3 0.2 0 0.1-0.1 0.2-0.2 0.3l-2 0.3q0 0 0 0z"/>
		</g>
		<g id="&lt;Group&gt;">
			<path id="&lt;Path&gt;" class="s2" d="m814.3 130.2q-0.1 0-0.1 0c-0.1 0-0.2-0.2-0.2-0.3l0.4-1.5-0.7-0.1c-0.2 0-0.3-0.1-0.3-0.2 0-0.2 0.2-0.3 0.3-0.3l1 0.1q0.2 0 0.2 0.1 0.1 0.1 0.1 0.2l-0.5 1.8c0 0.1-0.1 0.2-0.2 0.2z"/>
		</g>
		<g id="&lt;Group&gt;">
			<path id="&lt;Path&gt;" class="s2" d="m810 129.6q0 0 0 0c-0.2 0-0.2-0.2-0.2-0.3l0.4-1.5-0.7-0.1c-0.1 0-0.2-0.1-0.2-0.3 0-0.1 0.1-0.2 0.3-0.2l0.9 0.1q0.1 0 0.2 0.1 0.1 0.1 0 0.2l-0.4 1.8c-0.1 0.1-0.2 0.2-0.3 0.2z"/>
		</g>
		<g id="&lt;Group&gt;">
			<path id="&lt;Path&gt;" class="s2" d="m812.8 134.2q-0.1 0-0.1-0.1c-0.7-0.4-1.3-0.1-1.3-0.1-0.2 0.1-0.3 0-0.3-0.1-0.1-0.2 0-0.3 0.1-0.4 0 0 0.8-0.3 1.7 0.2 0.2 0.1 0.2 0.2 0.1 0.3q-0.1 0.2-0.2 0.2z"/>
		</g>
		<g id="&lt;Group&gt;">
			<path id="&lt;Path&gt;" class="s13" d="m803 170.4q0 0-2.8-0.3c-0.2 0-0.3-0.1-0.3-0.2 0.1-0.2 0.2-0.3 0.3-0.3l2.8 0.3c0.2 0 0.3 0.1 0.2 0.3 0 0.1-0.1 0.2-0.2 0.2z"/>
		</g>
		<g id="&lt;Group&gt;">
			<path id="&lt;Compound Path&gt;" fill-rule="evenodd" class="s2" d="m691.6 123.5c-0.9 0-1.4-0.6-1.5-1-0.1-0.1-0.1-0.2 0.1-0.3 0 0 0.9-0.4 1.8 0 0.5 0.3 0.9 0.5 0.9 0.8-0.1 0.3-0.4 0.4-1 0.5q-0.2 0-0.3 0zm-0.9-0.9c0.2 0.2 0.5 0.5 1.1 0.4q0.3-0.1 0.4-0.1-0.1-0.1-0.4-0.2c-0.4-0.2-0.9-0.2-1.1-0.1z"/>
		</g>
		<g id="&lt;Group&gt;">
			<g id="&lt;Group&gt;">
				<path id="&lt;Path&gt;" class="s3" d="m633.5 173.8c5 6.5 6.3 13.9 3 16.4-3.4 2.6-10.1-0.6-15.1-7.1-5-6.5-6.3-13.9-2.9-16.4 3.3-2.6 10.1 0.6 15 7.1z"/>
			</g>
			<g id="&lt;Group&gt;">
				<path id="&lt;Path&gt;" class="s3" d="m623.7 206.7c-6.3-1.2-10.9-4.8-10.3-8 0.6-3.2 6.2-4.9 12.5-3.7 6.3 1.2 10.9 4.7 10.2 8-0.6 3.2-6.1 4.9-12.4 3.7z"/>
			</g>
			<g id="&lt;Group&gt;">
				<path id="&lt;Path&gt;" class="s26" d="m641.5 213q-0.1 0-0.1 0c-0.1 0-0.2-0.1-0.2-0.3 4-16.8-13.7-33.9-13.9-34.1-0.1-0.1-0.1-0.2 0-0.3 0.1-0.1 0.2-0.1 0.3 0 0.2 0.1 18.2 17.4 14.1 34.5 0 0.2-0.1 0.2-0.2 0.2z"/>
			</g>
			<g id="&lt;Group&gt;">
				<path id="&lt;Path&gt;" class="s3" d="m652.1 180.3c6.2-6.2 13.9-8.7 17.1-5.4 3.2 3.2 0.7 10.8-5.5 17-6.2 6.2-13.9 8.7-17.1 5.5-3.2-3.2-0.7-10.8 5.5-17.1z"/>
			</g>
			<g id="&lt;Group&gt;">
				<path id="&lt;Path&gt;" class="s26" d="m641.5 212c-0.2 0-0.3-0.1-0.3-0.2 1.4-8.3-14.1-11.3-14.3-11.4-0.1 0-0.2-0.1-0.2-0.3 0-0.1 0.2-0.2 0.3-0.2 0.7 0.2 16.2 3.2 14.7 11.9 0 0.2-0.1 0.2-0.2 0.2z"/>
			</g>
			<g id="&lt;Group&gt;">
				<path id="&lt;Path&gt;" class="s26" d="m642.5 210.3c-0.2 0-0.3-0.1-0.2-0.3 3.7-18.5 18.3-29.8 18.5-29.9 0.1-0.1 0.2 0 0.3 0.1 0.1 0.1 0.1 0.2 0 0.3-0.2 0.1-14.7 11.3-18.3 29.6-0.1 0.2-0.2 0.2-0.3 0.2z"/>
			</g>
			<g id="&lt;Group&gt;">
				<path id="&lt;Path&gt;" class="s15" d="m652.7 232.5h-14.2c-0.8 0-1.4-0.5-1.5-1.3l-2.2-20.7c-0.1-0.8 0.6-1.6 1.5-1.6h18.6c0.9 0 1.6 0.8 1.5 1.6l-2.2 20.7c-0.1 0.8-0.7 1.3-1.5 1.3z"/>
			</g>
			<g id="&lt;Group&gt;">
				<path id="&lt;Path&gt;" class="s14" d="m649.6 232.5h-14.3c-0.7 0-1.4-0.5-1.5-1.3l-2.1-20.7c-0.1-0.8 0.6-1.6 1.5-1.6h18.6c0.8 0 1.5 0.8 1.5 1.6l-2.2 20.7c-0.1 0.8-0.8 1.3-1.5 1.3z"/>
			</g>
		</g>
		<g id="&lt;Group&gt;">
			<path id="&lt;Path&gt;" class="s1" d="m947.5 203.3l0.1 12.8-1.1 5.1-14.5-3.5 0.7-12.6z"/>
		</g>
		<g id="&lt;Group&gt;">
			<path id="&lt;Path&gt;" class="s1" d="m984.1 201.1l1 12.8-0.8 5.1-14.7-2.5-0.2-12.6z"/>
		</g>
		<g id="&lt;Group&gt;">
			<path id="&lt;Path&gt;" class="s12" d="m1013.6 143.4q33.5 41.9-5.1 46.5c-37.2 4.4-61.2-20.8-53.5-51 7.7-30.2 28.3-21.1 29-20z"/>
		</g>
		<g id="&lt;Group&gt;">
			<path id="&lt;Path&gt;" class="s12" d="m968.5 174.3q-0.1 0-0.2 0c-8.2-8.7-9.6-18.7-9.6-18.8 0-0.1 0.1-0.2 0.2-0.2 0.2-0.1 0.3 0 0.3 0.2 0 0.1 1.4 9.9 9.4 18.4 0.1 0.1 0.1 0.3 0 0.4q0 0-0.1 0z"/>
		</g>
		<g id="&lt;Group&gt;">
			<path id="&lt;Path&gt;" class="s12" d="m943.9 135.4c13.8 6.9 23.8 19.8 26.6 35 2.1 12-0.6 24.2-18.3 27.8-36.7 7.5-61.1-20.8-53.4-51 7.6-30.2 28.2-21 29-19.9z"/>
		</g>
		<g id="&lt;Group&gt;">
			<path id="&lt;Path&gt;" class="s7" d="m912.2 182.7q-0.1 0-0.2-0.1c-8.1-8.7-9.5-18.6-9.5-18.7-0.1-0.2 0-0.3 0.2-0.3 0.1 0 0.2 0.1 0.3 0.2 0 0.1 1.4 9.9 9.4 18.5 0.1 0.1 0.1 0.2 0 0.3q-0.1 0.1-0.2 0.1z"/>
		</g>
		<g id="&lt;Group&gt;">
			<path id="&lt;Path&gt;" class="s27" d="m1064.6 228.1c-0.7 0.4-39.4 1.4-40.3 0.7-0.4-0.2-0.5-2.1-0.4-4.7 0-4.8 2.1-13.1 3.2-18.2q13.6-0.2 14.8 0.5 1.3 0.7 15.1 10.6 5.1 1.5 7.2 4.3c0.5 0.8 0.9 1.7 1 2.6 0.4 2-0.2 3.9-0.6 4.2z"/>
		</g>
		<g id="&lt;Group&gt;">
			<path id="&lt;Path&gt;" class="s13" d="m1064.6 228.1c-0.7 0.4-39.4 1.4-40.3 0.7-0.4-0.2-0.5-2.1-0.4-4.7l41.3-0.2c0.4 2-0.2 3.9-0.6 4.2z"/>
		</g>
		<g id="&lt;Group&gt;">
			<path id="&lt;Path&gt;" class="s13" d="m1053.2 214.6q0 0-11.4-0.1-0.1 0-0.2-0.1 0-0.2 0.1-0.3l5.2-4.1c0.1 0 0.3 0 0.4 0.1 0.1 0.1 0 0.3-0.1 0.3l-4.6 3.6 10.6 0.1c0.1 0 0.2 0.1 0.2 0.2 0 0.2-0.1 0.3-0.2 0.3z"/>
		</g>
		<g id="&lt;Group&gt;">
			<path id="&lt;Path&gt;" class="s5" d="m1040.7 231.2c-0.7 0.5-41.5 0.4-42.5-0.4-0.3-0.3-0.4-2.3-0.3-5 0.3-5.1 2.7-13.8 4-19.2q14.3 0.3 15.6 1.1 1.3 0.7 15.6 11.6 5.4 1.8 7.4 4.8c0.6 0.9 0.9 1.8 1 2.7 0.4 2.2-0.3 4.1-0.8 4.4z"/>
		</g>
		<g id="&lt;Group&gt;">
			<path id="&lt;Path&gt;" class="s13" d="m1040.7 231.2c-0.7 0.5-41.5 0.4-42.5-0.4-0.3-0.3-0.4-2.3-0.3-5l43.6 1c0.4 2.2-0.3 4.1-0.8 4.4z"/>
		</g>
		<g id="&lt;Group&gt;">
			<path id="&lt;Path&gt;" class="s13" d="m1029.1 216.6q0 0-11.9-0.4-0.2 0-0.3-0.1 0-0.2 0.1-0.3l5.7-4.1c0.1-0.1 0.3-0.1 0.3 0 0.1 0.1 0.1 0.3 0 0.4l-5.1 3.7 11.2 0.3c0.2 0 0.3 0.1 0.3 0.3 0 0.1-0.1 0.2-0.3 0.2z"/>
		</g>
		<g id="&lt;Group&gt;">
			<path id="&lt;Path&gt;" class="s4" d="m950.5 141q29.5 10.9 33.7 16.4c3.6 4.8 8.2 51.1 7.4 52-0.9 0.9-26.7 1.2-27.8 0.4-1.1-0.7-6.5-34.8-8.1-34.9q-1.6-0.1-31.8-30.1z"/>
		</g>
		<g id="&lt;Group&gt;">
			<path id="&lt;Path&gt;" class="s4" d="m953 149.6q7.2 1 9.4 7.7c2.2 6.7-8.1 52.2-8.6 52.4-0.5 0.3-26-0.6-26.6-0.9q-0.7-0.3 5.2-39.2-9.3-4.5-10.2-8.9-0.9-4.4 0.2-16.2z"/>
		</g>
		<g id="&lt;Group&gt;">
			<path id="&lt;Compound Path&gt;" fill-rule="evenodd" class="s2" d="m932.7 169.9q-0.2 0-0.2-0.2c-0.1-0.9-0.9-8.5 0.5-9.8q0.3-0.3 0.7-0.2 0.3 0.1 0.6 0.5c1 1.8-1.1 8.7-1.4 9.5q0 0.2-0.2 0.2zm0.8-9.7q-0.1 0-0.2 0.1c-0.8 0.7-0.7 4.8-0.5 8 0.7-2.5 1.7-6.7 1-7.9-0.1-0.1-0.2-0.2-0.2-0.2q-0.1 0-0.1 0z"/>
		</g>
		<g id="&lt;Group&gt;">
			<path id="&lt;Path&gt;" class="s8" d="m1015.4 139.5q27.4 13.1 30.5 18.5 3.1 5.4-0.3 49.3l-22.4 0.3-3.1-24.6-17-41.3z"/>
		</g>
		<g id="&lt;Group&gt;">
			<path id="&lt;Path&gt;" class="s8" d="m1007.2 143.7q17.2 14.7 17.7 18.8 0.4 4.1-0.2 47.2l-25.9-1.2-0.5-37.8q-10.6-9.3-12.1-12.9-1.8-4.5 0.7-15.7z"/>
		</g>
		<g id="&lt;Group&gt;">
			<path id="&lt;Path&gt;" class="s13" d="m1026.2 207.6c-0.1 0-0.2-0.1-0.2-0.2 0-0.4 2.5-40.5 1.6-45.2-0.6-3.2-12.3-14-12.4-14.1q-0.1-0.1-0.1-0.2 0.1-0.2 0.2-0.2l7-2.7c0.1-0.1 0.2 0 0.3 0.1 0 0.2 0 0.3-0.1 0.4l-6.7 2.5c1.9 1.7 11.7 11 12.3 14.1 1 4.8-1.5 43.6-1.6 45.3 0 0.1-0.1 0.2-0.3 0.2z"/>
		</g>
		<g id="&lt;Group&gt;">
			<path id="&lt;Compound Path&gt;" fill-rule="evenodd" class="s13" d="m998.4 173q0 0-0.1 0-0.1-0.1-0.1-0.3c0-0.1 0.4-3.9 2.2-5.1q0.8-0.6 1.9-0.2 1 0.3 1 0.9c0.2 1.7-4.2 4.4-4.7 4.7q-0.1 0-0.2 0zm3.1-5.3q-0.4 0-0.9 0.3c-1.2 0.8-1.7 3.2-1.8 4.3 1.8-1.1 4.1-3 4-3.9q0-0.4-0.6-0.6-0.4-0.1-0.7-0.1z"/>
		</g>
		<g id="&lt;Group&gt;">
			<path id="&lt;Path&gt;" class="s14" d="m966.1 230q0.5-19.9 3.5-19.4 3.1 0.4 6.2 3.3 7.1-3.8 10.1-1.7 3.1 2.1 4.9 6.6l14.3 7.5c2.6 1.4 4.4 4.1 4.5 7.1 0 0.6 0 1.2-0.1 1.6-0.5 1.2-26.6 0.5-38.1 0.1-2.9-0.1-5.3-2.3-5.3-5.1z"/>
		</g>
		<g id="&lt;Group&gt;">
			<path id="&lt;Path&gt;" class="s14" d="m961.2 234.3c0 1.7-7.2 3-12.1 2.9-10.5-0.2-18.4-4.7-19.4-7.2-1.1-2.6-0.1-14.1 1.4-17.3q1.5-3.2 7.2 3.1 7.1-5.6 9.9-3.7 2.7 1.9 6.7 12.5c1.7 1.8 6.4 7 6.3 9.7z"/>
		</g>
		<g id="&lt;Group&gt;">
			<path id="&lt;Path&gt;" class="s11" d="m1185.2 116.2c0.7-1.1 21.3-10.2 29 20 7.7 30.2-16.3 55.4-53.5 51q-38.6-4.6-5.1-46.5z"/>
		</g>
		<g id="&lt;Group&gt;">
			<path id="&lt;Path&gt;" class="s12" d="m1200.7 171.6q-0.1 0-0.1 0c-0.1-0.1-0.1-0.3 0-0.4 8-8.5 9.4-18.3 9.4-18.4 0-0.2 0.1-0.3 0.3-0.3 0.1 0.1 0.2 0.2 0.2 0.3 0 0.1-1.4 10.1-9.6 18.7q-0.1 0.1-0.2 0.1z"/>
		</g>
		<g id="&lt;Group&gt;">
			<path id="&lt;Path&gt;" class="s2" d="m1178 85.1q7.2 0 8.4 8.8 1.2 8.9-1.1 21.2l-20.8-2.8 1.9-12.9z"/>
		</g>
		<g id="&lt;Group&gt;">
			<path id="&lt;Path&gt;" class="s1" d="m1162 207.9l0.8 10.3-14.6 4.1-2.9-14.4z"/>
		</g>
		<g id="&lt;Group&gt;">
			<path id="&lt;Path&gt;" class="s1" d="m1119.5 211l-3.3 9.8-15.1-1.9 3-14.4z"/>
		</g>
		<g id="&lt;Group&gt;">
			<g id="&lt;Group&gt;">
				<path id="&lt;Path&gt;" class="s4" d="m1097.3 213.7q2.3-4.6 4.9-4.1 2.5 0.4 4.6 6.7 9.9 2 10.4 2.8c0.4 0.9-3.7 15.9-4.5 16-0.7 0-40.8-11-42.6-11.8-1.7-0.7 3-7.7 7-8.1q4-0.4 7.8 0.7z"/>
			</g>
		</g>
		<g id="&lt;Group&gt;">
			<path id="&lt;Path&gt;" class="s5" d="m1094.5 207q15.4-42.7 27.5-50.9 9.9-6.7 20.6-7.6l-5.8 38.7-14.8 25.6z"/>
		</g>
		<g id="&lt;Group&gt;">
			<path id="&lt;Path&gt;" class="s1" d="m1114.1 136.2l7.5-1.3q6.2 5.3 3.9 8.6-2.3 3.2-12.6 3.9z"/>
		</g>
		<g id="&lt;Group&gt;">
			<path id="&lt;Path&gt;" class="s22" d="m1117.4 153.1l-16.6 5.1c-0.9 0.3-1.8-0.3-2-1.3l-4.7-28.9c-0.2-1 0.4-2 1.4-2.3l16.6-5.1c0.9-0.3 1.8 0.3 1.9 1.2l4.8 29c0.1 1-0.5 2-1.4 2.3z"/>
		</g>
		<g id="&lt;Group&gt;">
			<path id="&lt;Path&gt;" class="s11" d="m1119.5 152.4l-16.6 5.1c-0.9 0.3-1.8-0.3-1.9-1.2l-4.8-29c-0.1-1 0.5-2 1.4-2.2l16.6-5.2c0.9-0.2 1.8 0.3 2 1.3l4.7 28.9c0.2 1-0.5 2-1.4 2.3z"/>
		</g>
		<g id="&lt;Group&gt;">
			<path id="&lt;Path&gt;" class="s6" d="m1103.8 127.3q-0.5 0-0.9-0.3c-0.4-0.2-0.7-0.6-0.8-1.1l-0.5-2c0-0.1 0.1-0.3 0.2-0.3 0.2 0 0.3 0 0.3 0.2l0.4 2c0.1 0.4 0.3 0.6 0.6 0.8 0.3 0.2 0.7 0.2 1 0.1l5.7-1.7c0.6-0.2 0.9-0.8 0.8-1.4l-0.5-2.4c0-0.2 0.1-0.3 0.2-0.3 0.2-0.1 0.3 0 0.3 0.2l0.5 2.4c0.2 0.9-0.3 1.7-1.2 2l-5.6 1.7q-0.3 0.1-0.5 0.1z"/>
		</g>
		<g id="&lt;Group&gt;">
			<g id="&lt;Group&gt;">
				<path id="&lt;Path&gt;" class="s1" d="m1124.8 134.5q17-2.7 22.1-4.6 5-2 12.5 8.5l-2.9 8.7q-10.9 1.1-21.9 0.2-6.3-0.6-11.5-3.2z"/>
			</g>
		</g>
		<g id="&lt;Group&gt;">
			<path id="&lt;Path&gt;" class="s1" d="m1124.8 140.5q-5.1 0-7.2-7.4-5.1 0.5-5.1-1.1c0-1.6 4.6-3.8 6.9-2.4q2.3 1.4 5.4 4.9 5.1 6 0 6z"/>
		</g>
		<g id="&lt;Group&gt;">
			<path id="&lt;Path&gt;" class="s2" d="m1123.8 140.2c-4.7 0-5.7-5.2-5.8-5.3 0-0.1 0.1-0.3 0.2-0.3 0.2 0 0.3 0.1 0.3 0.2 0.1 0.2 1 4.9 5.3 4.9q0.1 0 0.1 0c0.2 0 0.3 0.1 0.3 0.3 0 0.1-0.1 0.2-0.3 0.2q0 0-0.1 0z"/>
		</g>
		<g id="&lt;Group&gt;">
			<path id="&lt;Path&gt;" class="s4" d="m1148.1 124.4l11.3 18.7q0.2 3.3-12.5 4.6-12.6 1.2-21.1-1.4l0.2-12.5q14.2-1.8 22.1-9.4z"/>
		</g>
		<g id="&lt;Group&gt;">
			<g id="&lt;Group&gt;">
				<path id="&lt;Path&gt;" class="s4" d="m1142 130.7q6.5-6.1 8.9-9.6c2.4-3.5 6.2-8.5 11.5-11.7 5.2-3.2 18.3-4.8 27.3 1.1 9 5.8 13.1 13.7 14.7 22.2q1.5 8.5-3.4 14.2l-25 0.8-19.5-0.6q-6.2-12.9-14.5-16.4z"/>
			</g>
		</g>
		<g id="&lt;Group&gt;">
			<path id="&lt;Path&gt;" class="s13" d="m1178 106.6l5 42.7-15.7-1.9 2.4-39.9z"/>
		</g>
		<g id="&lt;Group&gt;">
			<g id="&lt;Group&gt;">
				<g id="&lt;Group&gt;">
					<g id="&lt;Group&gt;">
						<g id="&lt;Group&gt;">
							<path id="&lt;Path&gt;" class="s1" d="m1176.8 101.5l1.2-0.3-0.2 6.1q-1.3 1.7-5.3 1.9-3 0.2-2.8-0.4l-0.1-2.6-0.1-3.2v-0.2z"/>
						</g>
					</g>
				</g>
			</g>
		</g>
		<g id="&lt;Group&gt;">
			<g id="&lt;Group&gt;">
				<g id="&lt;Group&gt;">
					<g id="&lt;Group&gt;">
						<g id="&lt;Group&gt;">
							<path id="&lt;Path&gt;" class="s2" d="m1169.5 102.9l7.3-1.4q0 0.3-0.2 0.6c-1.5 3.1-5 3.9-7 4.1l-0.1-3.2z"/>
						</g>
					</g>
				</g>
			</g>
		</g>
		<g id="&lt;Group&gt;">
			<g id="&lt;Group&gt;">
				<g id="&lt;Group&gt;">
					<g id="&lt;Group&gt;">
						<g id="&lt;Group&gt;">
							<path id="&lt;Path&gt;" class="s1" d="m1179.6 92.3l-1.3 2.4q1.7-1 3.1-0.4c1.4 0.7 2.3 3.3 0.7 5.5q-1.6 2.3-4.1 1.4-1.2 1.6-3.8 2.5c-2.6 0.9-7 1.7-8.3-3.1q-1.3-4.8 2.4-13.3 6-7.7 11.3 5z"/>
						</g>
					</g>
				</g>
			</g>
		</g>
		<g id="&lt;Group&gt;">
			<g id="&lt;Group&gt;">
				<path id="&lt;Path&gt;" class="s20" d="m1138.4 212.8q-11.4-47.5-5.2-58.5 6.1-11 47.3-8.4l14.5 1.2q5.2 16.6-4 21.5-7.3 3.8-29.6 7.7l5.9 36.5z"/>
			</g>
		</g>
		<g id="&lt;Group&gt;">
			<path id="&lt;Path&gt;" class="s2" d="m1168.9 97.6c-0.1 0-0.2-0.1-0.3-0.2-0.5-1.7 0.7-3.5 0.8-3.6 0.1-0.1 0.2-0.1 0.3 0 0.1 0 0.2 0.2 0.1 0.3 0 0-1.1 1.7-0.7 3.2 0.1 0.1 0 0.2-0.1 0.3q-0.1 0-0.1 0z"/>
		</g>
		<g id="&lt;Group&gt;">
			<path id="&lt;Path&gt;" class="s2" d="m1178.9 98.8q-0.1 0-0.2-0.1c-0.1-0.1-0.1-0.2 0-0.3l2.2-2.4c0.1-0.1 0.3-0.1 0.4 0 0.1 0.1 0.1 0.2 0 0.3l-2.2 2.4q-0.1 0.1-0.2 0.1z"/>
		</g>
		<g id="&lt;Group&gt;">
			<path id="&lt;Path&gt;" class="s2" d="m1181.2 98.1q0 0-1.5-0.2c-0.2 0-0.3-0.1-0.2-0.3 0-0.1 0.1-0.2 0.2-0.2l1.6 0.2c0.1 0.1 0.2 0.2 0.2 0.3 0 0.2-0.1 0.2-0.3 0.2z"/>
		</g>
		<g id="&lt;Group&gt;">
			<path id="&lt;Path&gt;" class="s2" d="m1174 91.6q-0.1 0-0.2-0.1c-0.4-0.8-1.4-0.6-1.4-0.5-0.2 0-0.3-0.1-0.3-0.2-0.1-0.2 0-0.3 0.2-0.3 0 0 1.4-0.3 1.9 0.7 0.1 0.2 0.1 0.3-0.1 0.4q0 0-0.1 0z"/>
		</g>
		<g id="&lt;Group&gt;">
			<path id="&lt;Path&gt;" class="s2" d="m1169.2 90.9q-0.1 0-0.2-0.1-0.2-0.3-0.5-0.4c-0.5 0-1 0.4-1 0.4-0.1 0.1-0.3 0.1-0.3 0-0.1-0.1-0.1-0.2 0-0.3 0-0.1 0.7-0.6 1.4-0.6q0.5 0.1 0.8 0.6c0.1 0.1 0.1 0.3 0 0.4q-0.1 0-0.2 0z"/>
		</g>
		<g id="&lt;Group&gt;">
			<path id="&lt;Path&gt;" class="s8" d="m1158.6 146.6c-0.1 0-0.2-0.1-0.2-0.2l0.2-17c0-0.1 0.1-0.2 0.2-0.2 0.2 0 0.3 0.1 0.3 0.2l-0.2 17c0 0.1-0.2 0.2-0.3 0.2z"/>
		</g>
		<g id="&lt;Group&gt;">
			<path id="&lt;Compound Path&gt;" fill-rule="evenodd" class="s13" d="m1161.4 176.5q-0.1 0-0.1 0c-0.3-0.2-5.6-4.1-5.5-6.6q0-0.8 0.9-1.3 0.9-0.5 1.7-0.1c2.3 1.1 3.2 7.5 3.2 7.7q0.1 0.2-0.1 0.3 0 0-0.1 0zm-3.8-7.7q-0.3 0-0.6 0.2-0.7 0.4-0.7 1c-0.1 1.6 3 4.4 4.8 5.7-0.3-1.6-1.3-5.9-2.9-6.8q-0.3-0.1-0.6-0.1z"/>
		</g>
		<g id="&lt;Group&gt;">
			<path id="&lt;Path&gt;" class="s2" d="m1168.1 94.2c-0.2-0.1-0.3-0.2-0.3-0.3l0.2-1.4-0.5-0.5c-0.1-0.1-0.1-0.2 0-0.3 0.1-0.2 0.2-0.2 0.3-0.1l0.7 0.6q0 0.1 0 0.2l-0.2 1.6c0 0.1-0.1 0.2-0.2 0.2z"/>
		</g>
		<g id="&lt;Group&gt;">
			<path id="&lt;Path&gt;" class="s2" d="m1172.6 94.5c-0.2 0-0.3-0.1-0.3-0.2l0.2-1.4-0.7-0.5c-0.1-0.1-0.1-0.3 0-0.4 0.1-0.1 0.2-0.1 0.3 0l0.8 0.6q0.2 0 0.1 0.2l-0.2 1.5c0 0.1-0.1 0.2-0.2 0.2z"/>
		</g>
		<g id="&lt;Group&gt;">
			<path id="&lt;Compound Path&gt;" fill-rule="evenodd" class="s2" d="m1171.1 100.3c-0.8 0-1.6-0.7-1.7-0.8q-0.1-0.1-0.1-0.2 0.1-0.2 0.2-0.2l2.9-0.6q0.1 0 0.2 0.1 0.1 0.1 0.1 0.2c-0.1 0.1-0.4 1.3-1.3 1.4q-0.2 0.1-0.3 0.1zm-0.9-0.9c0.3 0.2 0.8 0.4 1.1 0.4 0.3-0.1 0.5-0.4 0.7-0.7z"/>
		</g>
		<g id="&lt;Group&gt;">
			<path id="&lt;Compound Path&gt;" fill-rule="evenodd" class="s8" d="m1148.7 131.9c-2.5 0-3.6-5-3.7-5.2q0-0.2 0.1-0.3 0.2-0.1 0.3 0c0.8 0.6 4.7 3.7 4.3 5 0 0.2-0.2 0.4-0.7 0.5q-0.2 0-0.3 0zm-3-4.6c0.5 1.6 1.6 4.1 3 4.1q0.1 0 0.2 0c0.1 0 0.3-0.1 0.4-0.2 0.1-0.6-1.9-2.5-3.6-3.9z"/>
		</g>
		<g id="&lt;Group&gt;">
			<g id="&lt;Group&gt;">
				<path id="&lt;Path&gt;" class="s4" d="m1143.1 218.3q0.5-5 3.1-5.5 2.5-0.4 6.6 4.7 10-1.5 10.7-0.9c0.8 0.7 2.1 16.2 1.4 16.5-0.7 0.3-42.2 3.8-44.1 3.7-1.9-0.1 0.2-8.3 3.8-10.1q3.6-1.7 7.6-2z"/>
			</g>
		</g>
		<g id="&lt;Group&gt;">
			<path id="&lt;Path&gt;" class="s1" d="m1157.8 147.1q1.1-0.6 5.3-0.2-5-0.9-3.7-2.6c1.3-1.8 8.2-0.8 9.7-2.1 2.8-2.3-0.9-1.2-2.4-1.6-1.6-0.4-2.9-1.1 0.6-3.1 1-0.5 2.3-1.2 3.5-1.7 2.3-1 4.9 0.1 5.7 2.5l2.4 7.3c-2 1.6-5.9 3.9-12.3 4.4-5.1 0.4-9.9-2.2-8.8-2.9z"/>
		</g>
		<g id="&lt;Group&gt;">
			<path id="&lt;Path&gt;" class="s2" d="m1165.1 147.1c-1 0-2-0.2-2.9-0.7-0.1 0-0.2-0.2-0.1-0.3 0.1-0.1 0.2-0.2 0.4-0.1 1.9 1.1 5.1 0.3 5.1 0.3 0.1-0.1 0.3 0 0.3 0.1 0 0.2 0 0.3-0.2 0.3-0.1 0.1-1.2 0.4-2.6 0.4z"/>
		</g>
		<g id="&lt;Group&gt;">
			<path id="&lt;Path&gt;" class="s2" d="m1169.9 141.5c-0.1 0-0.2-0.1-0.3-0.2 0-0.2 0.1-0.3 0.3-0.3l2.2-0.2c0.1 0 0.2 0.1 0.2 0.2 0.1 0.2 0 0.3-0.2 0.3l-2.2 0.2q0 0 0 0z"/>
		</g>
		<g id="&lt;Group&gt;">
			<path id="&lt;Path&gt;" class="s2" d="m1178.3 94.7q-3.9-3.4-6-4.3-2.1-0.9-2.1-0.9v-2.7l-1 2.8-2.3 0.1q1-5.8 5.7-5.8c4.7-0.1 7.4 2 8.6 4.7q1.2 2.7 0.7 6.1-1.8-0.8-3.6 0z"/>
		</g>
		<g id="&lt;Group&gt;">
			<path id="&lt;Path&gt;" class="s4" d="m1186.7 129.6q18.8-6.7 18 9.1-0.9 15.9-28.7 9l-1.5-12.8z"/>
		</g>
		<g id="&lt;Group&gt;">
			<path id="&lt;Path&gt;" class="s8" d="m1181.6 131.9q-0.1 0-0.2-0.1c0-0.1 0-0.3 0.1-0.4 0.3-0.1 7.6-3.5 12.1-3.3 0.1 0 0.2 0.1 0.2 0.2 0 0.2-0.1 0.3-0.3 0.3q-0.1 0-0.3 0c-4.4 0-11.4 3.3-11.5 3.3q0 0-0.1 0z"/>
		</g>
		<g id="&lt;Group&gt;">
			<path id="&lt;Compound Path&gt;" fill-rule="evenodd" class="s8" d="m1186.7 129.9q-0.1 0-0.2-0.1c0-0.1 0-0.3 0-0.3 0.4-0.5 3.7-4.5 5.2-4.5q0.4 0 0.6 0.3 0.4 0.4 0.2 0.8c-0.4 1.7-5.1 3.5-5.7 3.7q0 0.1-0.1 0.1zm5-4.4c-0.9 0-2.9 2.1-4.1 3.5 1.7-0.7 4.2-2 4.5-3q0-0.2-0.2-0.4c0-0.1-0.1-0.1-0.2-0.1z"/>
		</g>
		<g id="&lt;Group&gt;">
			<path id="&lt;Path&gt;" class="s2" d="m1016.7 97.9v10.8l-26 1.2q-7.5-5.3-4.6-12 2.9-6.7 9.2-7.5z"/>
		</g>
		<g id="&lt;Group&gt;">
			<g id="&lt;Group&gt;">
				<path id="&lt;Path&gt;" class="s1" d="m1001 96.7l6.8 1.6 0.4 3.2 0.4 3.3q-1 0.6-3.8 0.4-3.8-0.4-5-2.2v-6.5z"/>
			</g>
		</g>
		<g id="&lt;Group&gt;">
			<g id="&lt;Group&gt;">
				<path id="&lt;Path&gt;" class="s2" d="m1007.8 98.3l0.4 3.2c-1.6-0.2-5.6-0.9-7-4.1q-0.2-0.4-0.2-0.7z"/>
			</g>
		</g>
		<g id="&lt;Group&gt;">
			<g id="&lt;Group&gt;">
				<path id="&lt;Path&gt;" class="s1" d="m1009.3 83.5q3.4 8.1 2.1 12.6c-1.4 4.6-5.5 3.8-8 2.8q-2.4-0.9-3.6-2.4-2.3 0.7-3.8-1.5c-1.5-2.1-0.5-4.6 0.8-5.1q1.4-0.6 2.9 0.4l-1.2-2.4q5.4-11.8 10.8-4.4z"/>
			</g>
		</g>
		<g id="&lt;Group&gt;">
			<path id="&lt;Path&gt;" class="s2" d="m999.5 93.8q-0.1 0-0.2 0l-2.9-2.1c-0.1-0.1-0.1-0.3-0.1-0.4 0.1-0.1 0.3-0.1 0.4-0.1l2.9 2.2c0.1 0 0.1 0.2 0.1 0.3q-0.1 0.1-0.2 0.1z"/>
		</g>
		<g id="&lt;Group&gt;">
			<path id="&lt;Path&gt;" class="s2" d="m996.8 93.8c-0.1 0-0.2-0.1-0.2-0.2-0.1-0.2 0-0.3 0.1-0.3l2-0.5c0.1-0.1 0.2 0 0.3 0.2 0 0.1-0.1 0.2-0.2 0.3l-1.9 0.5q-0.1 0-0.1 0z"/>
		</g>
		<g id="&lt;Group&gt;">
			<path id="&lt;Path&gt;" class="s2" d="m1009.1 92.8c-0.2-0.1-0.3-0.2-0.3-0.3 0.3-2-0.9-3-1-3.1-0.1 0-0.1-0.2 0-0.3 0.1-0.1 0.2-0.1 0.4 0 0 0 1.5 1.2 1.1 3.5 0 0.1-0.1 0.2-0.2 0.2z"/>
		</g>
		<g id="&lt;Group&gt;">
			<path id="&lt;Path&gt;" class="s2" d="m1010.3 86.2q0 0-1.2-0.1c-0.2 0-0.3-0.1-0.3-0.3 0-0.1 0.2-0.2 0.3-0.2l1.2 0.1c0.2 0.1 0.3 0.2 0.3 0.3-0.1 0.1-0.2 0.2-0.3 0.2z"/>
		</g>
		<g id="&lt;Group&gt;">
			<path id="&lt;Path&gt;" class="s2" d="m1004.8 87.3q-0.2 0-0.3-0.1c0-0.2 0-0.3 0.2-0.4l1.6-0.7c0.2-0.1 0.3 0 0.4 0.1 0 0.2 0 0.3-0.2 0.4l-1.6 0.7q-0.1 0-0.1 0z"/>
		</g>
		<g id="&lt;Group&gt;">
			<path id="&lt;Path&gt;" class="s1" d="m961.1 115.5q9.8 5.5 16.4 4.5 6.5-1.1-6.4 14-26.3 3-22.3-11 4-14 12.3-7.5z"/>
		</g>
		<g id="&lt;Group&gt;">
			<path id="&lt;Path&gt;" class="s1" d="m1015 105.7q-4.5-0.9-2.9-8.7-1.8 1.1-2.4 0.6-0.6-0.5 0-1.3-0.6-1.4 0-2.5c0.6-1.2 3.7-4.2 5.2-4.4q1.6-0.2 4.7 10.9 0 6.3-4.6 5.4z"/>
		</g>
		<g id="&lt;Group&gt;">
			<path id="&lt;Path&gt;" class="s2" d="m1009.9 96.3q-0.1-0.1-0.2-0.1c-0.1-0.2-0.1-0.3 0-0.4l3.4-2.6c0.1-0.1 0.3-0.1 0.4 0 0 0.1 0 0.3-0.1 0.3l-3.4 2.7q0 0.1-0.1 0.1z"/>
		</g>
		<g id="&lt;Group&gt;">
			<path id="&lt;Path&gt;" class="s2" d="m1010.4 93.6q-0.1 0-0.2-0.1c-0.1-0.1-0.1-0.3 0-0.4l2.9-1.8c0.1-0.1 0.3-0.1 0.4 0.1 0 0.1 0 0.2-0.1 0.3l-2.9 1.9q0 0-0.1 0z"/>
		</g>
		<g id="&lt;Group&gt;">
			<path id="&lt;Path&gt;" class="s11" d="m1010.6 128.1q7.1-6.2 6.1-10.8-1-4.6-3.8-9.5l6.7-7.9q10 11.8 12.6 22.8c2.7 11-0.5 16.5-8.2 15.4q-6.9-1-13.4-10z"/>
		</g>
		<g id="&lt;Group&gt;">
			<g id="&lt;Group&gt;">
				<path id="&lt;Path&gt;" class="s11" d="m986.3 121.7l11.2 12.7q-2.3-2-7.4-0.4-5.1 1.7-4.2 8-21.1-1.4-16.9-15.5 4.4-15 22.1-21.9z"/>
			</g>
		</g>
		<g id="&lt;Group&gt;">
			<g id="&lt;Group&gt;">
				<path id="&lt;Path&gt;" class="s11" d="m1018.7 127.1q-0.8 3.2-0.8 3.8c0 0.7-0.8 8.3-1.3 9.6-0.5 1.3-5.1 5.1-14.8 4.4-9.8-0.6-16-1.8-17.5-3.4-1.5-1.7 0.5-31.7 3-34.6q2.4-3 9-3.2-0.5-1.6 0.9-2.3c1.3-0.6 5.9 1.5 8.4 1.7 2.4 0.1 3.4-0.7 4.4-0.5q1 0.1 1.3 2.3 3.4 2.1 6.2 9 2.8 7 1.2 13.2z"/>
			</g>
		</g>
		<g id="&lt;Group&gt;">
			<path id="&lt;Path&gt;" class="s1" d="m1014.1 131.4q9.9 1.3 9 2.9-0.8 1.7-8.9 1.1 9.9 0 7.5 2.3-2.3 2.3-9.4 2.7l-4.1-3.3 2-6.1z"/>
		</g>
		<g id="&lt;Group&gt;">
			<path id="&lt;Path&gt;" class="s28" d="m1016.7 129.6q-0.1 0-0.1-0.1c-0.2 0-0.2-0.2-0.1-0.3 0 0 2.3-4.5 2.2-9.7-0.1-5.1-4-10.5-4-10.5-0.1-0.1-0.1-0.3 0-0.4 0.1-0.1 0.3 0 0.4 0.1 0.1 0.2 4 5.6 4.1 10.8 0.1 5.3-2.3 9.9-2.3 9.9q-0.1 0.2-0.2 0.2z"/>
		</g>
		<g id="&lt;Group&gt;">
			<path id="&lt;Path&gt;" class="s1" d="m1010 125.7q1.7-0.1 0 3 14.3 0 11.8 2.4c-1.3 1.2-5.8 0.7-6.4 1.8-0.7 1.1-1.5 7.1-3.1 7.5q-1.6 0.3-8.8-0.3v-10.2q4.7-4.2 6.5-4.2z"/>
		</g>
		<g id="&lt;Group&gt;">
			<path id="&lt;Path&gt;" class="s2" d="m1007 95q-0.1 0-0.2-0.1l-1.1-1c-0.1 0-0.1-0.2-0.1-0.3 0.1-0.1 0.3-0.1 0.4 0l1.1 0.9c0.2 0.1 0.2 0.3 0.1 0.4q-0.1 0.1-0.2 0.1z"/>
		</g>
		<g id="&lt;Group&gt;">
			<path id="&lt;Path&gt;" class="s2" d="m1006 89.8c-0.1 0-0.2-0.1-0.2-0.2l-0.4-1.5q0-0.1 0-0.2l0.4-0.7c0.1-0.2 0.2-0.2 0.4-0.1 0.1 0 0.1 0.2 0.1 0.3l-0.4 0.7 0.4 1.4c0 0.1-0.1 0.2-0.2 0.3q0 0-0.1 0z"/>
		</g>
		<g id="&lt;Group&gt;">
			<path id="&lt;Path&gt;" class="s2" d="m1010.1 89.5c-0.1 0-0.2-0.1-0.2-0.2l-0.4-1.5q0-0.1 0-0.1l0.4-1c0.1-0.1 0.2-0.2 0.4-0.1 0.1 0 0.1 0.2 0.1 0.3l-0.4 0.9 0.4 1.4c0 0.1-0.1 0.3-0.2 0.3q0 0-0.1 0z"/>
		</g>
		<g id="&lt;Group&gt;">
			<path id="&lt;Path&gt;" class="s2" d="m1010 128.9q-0.1 0-2.1 0c-0.1 0-0.2-0.1-0.2-0.2 0-0.2 0.1-0.3 0.2-0.3q0 0 2.1 0c0.1 0 0.2 0.1 0.2 0.3 0 0.1-0.1 0.2-0.2 0.2z"/>
		</g>
		<g id="&lt;Group&gt;">
			<path id="&lt;Path&gt;" class="s2" d="m995.3 92.4q-2-1-2.3-4.4-0.4-3.3 2-4.2 0.2-6.5 8-6 7.7 0.6 6.3 5.7l-1.2-1.4q0.3 0.3-1.1 3.1-1.5 2.7-6.2 4.4l0.7 2.8-1.8-2.1q-3.5-1.4-4.4 2.1z"/>
		</g>
		<g id="&lt;Group&gt;">
			<path id="&lt;Path&gt;" class="s28" d="m1001 125.2q0 0-0.1 0c-0.1 0-11-3.7-18.9-2.1-0.1 0.1-0.2 0-0.3-0.2 0-0.1 0.1-0.2 0.2-0.3 8-1.6 19.1 2.1 19.2 2.2 0.1 0 0.2 0.1 0.1 0.3q0 0.1-0.2 0.1z"/>
		</g>
		<g id="&lt;Group&gt;">
			<path id="&lt;Compound Path&gt;" fill-rule="evenodd" class="s28" d="m990.3 122.9q0 0-0.1 0c-1.4-0.5-6-2.1-6.1-3.4 0-0.2 0.1-0.5 0.6-0.7 2.6-1.2 5.7 3.5 5.8 3.7q0.1 0.2 0 0.3-0.1 0.1-0.2 0.1zm-4.7-3.8q-0.4 0-0.7 0.1c-0.1 0.1-0.3 0.2-0.3 0.3 0 0.6 2.5 1.8 5.1 2.7-0.8-1.1-2.6-3.1-4.1-3.1z"/>
		</g>
		<g id="&lt;Group&gt;">
			<path id="&lt;Path&gt;" class="s28" d="m1000.9 105c-1.9 0-4.5-1-4.7-1-0.1-0.1-0.2-0.2-0.1-0.4 0-0.1 0.2-0.2 0.3-0.1 0 0 2.9 1.1 4.8 1 0.1 0 0.2 0.1 0.2 0.2 0 0.2-0.1 0.3-0.2 0.3q-0.1 0-0.3 0z"/>
		</g>
		<g id="&lt;Group&gt;">
			<path id="&lt;Path&gt;" class="s20" d="m950.1 142.7q-6.5 3.4-16.2 0.7l-3.3-40.1 6.2-2.3 6.7 0.5 5.4 4.2q7.6 33.6 1.2 37z"/>
		</g>
		<g id="&lt;Group&gt;">
			<path id="&lt;Path&gt;" class="s19" d="m924 104.8c3-2.8 7.9-3.5 10.8-3.7q-0.7 19 0.3 30.6c0.6 6.7 0.9 11.3 1.1 14q-6.9 0.2-14.7 0-2-36.7 2.5-40.9z"/>
		</g>
		<g id="&lt;Group&gt;">
			<path id="&lt;Path&gt;" class="s19" d="m955.2 131.2q0 7.1-0.2 12.8 0.3-0.3-4.5 0.5c0-5.2-0.8-14.3-1.6-22q-1.1-9.9-5.4-21l-8.7-0.4c0.9-0.1 1.6-0.1 2-0.1q0.3 0 0.4 0 9.8 0.4 14.5 2.9 0.1 0 0.3 0.1c0.8 0.5 1.4 1.1 1.8 1.7 1.3 2.4 1.5 15.4 1.4 25.5z"/>
		</g>
		<g id="&lt;Group&gt;">
			<path id="&lt;Path&gt;" class="s19" d="m923.7 127.7q-5.4-0.5-9.2-0.5-3.7 0-9.9 1 1.8-8.4 7.4-15.8 6.5-8.7 17.5-10.4z"/>
		</g>
		<g id="&lt;Group&gt;">
			<path id="&lt;Path&gt;" class="s2" d="m934 94.1q-6.7-7-3.8-10.9 2.9-3.8 10.2-4.3 2.1-4.2 5.3-2.7 3.3 1.5 1.1 8.7z"/>
		</g>
		<g id="&lt;Group&gt;">
			<g id="&lt;Group&gt;">
				<path id="&lt;Path&gt;" class="s1" d="m936.4 96l7 2.1 0.1 3.4 0.2 3.4q-1.1 0.6-4 0.1-4-0.6-5-2.7l0.6-6.7z"/>
			</g>
		</g>
		<g id="&lt;Group&gt;">
			<g id="&lt;Group&gt;">
				<path id="&lt;Path&gt;" class="s2" d="m943.4 98.1l0.1 3.4c-1.6-0.3-5.7-1.4-6.9-4.9q-0.2-0.4-0.2-0.6z"/>
			</g>
		</g>
		<g id="&lt;Group&gt;">
			<g id="&lt;Group&gt;">
				<path id="&lt;Path&gt;" class="s1" d="m946.2 82.9q2.8 8.8 1 13.3c-1.7 4.6-6 3.4-8.4 2.3q-2.5-1.2-3.5-2.9-2.5 0.6-3.9-1.8c-1.4-2.4-0.1-4.9 1.3-5.3q1.4-0.5 3 0.7l-1.1-2.6q6.6-11.8 11.6-3.7z"/>
			</g>
		</g>
		<g id="&lt;Group&gt;">
			<path id="&lt;Path&gt;" class="s2" d="m935.1 92.8q-0.1 0-0.1-0.1l-2.9-2.4c-0.1-0.1-0.1-0.3 0-0.4 0.1-0.1 0.2-0.1 0.3 0l2.9 2.4c0.1 0.1 0.1 0.3 0 0.4q-0.1 0.1-0.2 0.1z"/>
		</g>
		<g id="&lt;Group&gt;">
			<path id="&lt;Path&gt;" class="s2" d="m932.4 92.5c-0.2 0-0.3-0.1-0.3-0.2 0-0.1 0.1-0.3 0.2-0.3l2.1-0.3c0.1-0.1 0.2 0 0.2 0.2 0.1 0.1 0 0.2-0.2 0.3l-2 0.3q0 0 0 0z"/>
		</g>
		<g id="&lt;Group&gt;">
			<path id="&lt;Path&gt;" class="s2" d="m945.2 92.5q0 0-0.1 0c-0.1 0-0.2-0.2-0.2-0.3 0.5-2-0.7-3.2-0.7-3.2-0.1-0.1-0.1-0.3 0-0.4 0.1-0.1 0.2-0.1 0.3 0 0.1 0.1 1.5 1.4 0.9 3.7 0 0.1-0.1 0.2-0.2 0.2z"/>
		</g>
		<g id="&lt;Group&gt;">
			<path id="&lt;Path&gt;" class="s2" d="m946.6 89.4c-0.2 0-0.3 0-0.3-0.2l-0.3-1.5c0-0.2 0.1-0.3 0.2-0.3 0.1-0.1 0.3 0 0.3 0.2l0.3 1.5c0 0.2-0.1 0.3-0.2 0.3q0 0 0 0z"/>
		</g>
		<g id="&lt;Group&gt;">
			<path id="&lt;Path&gt;" class="s2" d="m942.3 89.2c-0.1 0-0.2-0.1-0.3-0.2l-0.3-1.6c0-0.2 0.1-0.3 0.3-0.3 0.1 0 0.2 0 0.2 0.2l0.3 1.6c0.1 0.1 0 0.2-0.2 0.3q0 0 0 0z"/>
		</g>
		<g id="&lt;Group&gt;">
			<path id="&lt;Path&gt;" class="s2" d="m946.8 84.9q-0.7-1.4-2.3-1.6-1.7-0.1-2.8 1 0.5 2.8-1.9 4.2-2.4 1.3-4.1 0.7l-1.7-0.7-1-2.6 5.3-4.7 6.4-2.8 2.5 2.7z"/>
		</g>
		<g id="&lt;Group&gt;">
			<path id="&lt;Path&gt;" class="s22" d="m941.4 105.7c-4.1 0-6.7-2.8-6.8-2.9 0-0.1 0-0.2 0.1-0.3 0.1-0.1 0.2-0.1 0.3 0 0 0 3.5 3.7 8.4 2.4 0.2 0 0.3 0.1 0.3 0.2 0.1 0.2 0 0.3-0.2 0.3q-1.1 0.3-2.1 0.3z"/>
		</g>
		<g id="&lt;Group&gt;">
			<path id="&lt;Path&gt;" class="s2" d="m932.3 82.9q0.1-5.1 4.1-6.5 4.1-1.3 4 2.5z"/>
		</g>
		<g id="&lt;Group&gt;">
			<path id="&lt;Path&gt;" class="s1" d="m921 127.2h21.3l1.4 10.4q-25.1 9.1-32.9 4.7-7.8-4.4-4.6-14.3 2.4-0.8 14.8-0.8z"/>
		</g>
		<g id="&lt;Group&gt;">
			<path id="&lt;Path&gt;" class="s2" d="m947 86.1q0 0-1.3-0.2c-0.2-0.1-0.2-0.2-0.2-0.3 0-0.2 0.1-0.2 0.3-0.2l1.2 0.2c0.2 0 0.3 0.2 0.2 0.3 0 0.1-0.1 0.2-0.2 0.2z"/>
		</g>
		<g id="&lt;Group&gt;">
			<path id="&lt;Path&gt;" class="s2" d="m941.2 86.5q-0.2 0-0.3-0.2c0-0.1 0.1-0.3 0.2-0.3l1.8-0.6c0.1-0.1 0.3 0 0.3 0.1 0 0.2 0 0.3-0.2 0.4l-1.7 0.6q-0.1 0-0.1 0z"/>
		</g>
		<g id="&lt;Group&gt;">
			<path id="&lt;Path&gt;" class="s19" d="m953 104.7q3.3 3.4 6.6 6 3.3 2.5 5.3 4.5-1.5 5.5-3.8 12-1.9 5.1-3.1 10.4-7.9 0.6-8.6-4.5-0.7-5.2 3.6-28.4z"/>
		</g>
		<g id="&lt;Group&gt;">
			<path id="&lt;Path&gt;" class="s1" d="m941.8 127q5.7-4.1 7-4c1.2 0 6.1 1.1 6.4 2q0.3 0.9-4.2 2 2 1.9 3.8 2.6c1.8 0.7 7.2 0.2 7.7 1.5q0.5 1.3-1.4 1.2 2.3 1.2-0.4 2.7c-2.7 1.4-14.8 4.3-20.1 1.6q-5.4-2.7 1.2-9.6z"/>
		</g>
		<g id="&lt;Group&gt;">
			<path id="&lt;Path&gt;" class="s2" d="m955.3 133.7q-0.4 0-0.4 0c-0.2 0-0.3-0.1-0.3-0.2 0.1-0.2 0.2-0.3 0.3-0.3 0 0 3.2 0.2 6.1-1.1 0.1-0.1 0.2 0 0.3 0.1 0 0.2 0 0.3-0.1 0.4-2.4 1-5 1.1-5.9 1.1z"/>
		</g>
		<g id="&lt;Group&gt;">
			<path id="&lt;Path&gt;" class="s2" d="m951 127.3h-3.2c-0.1 0-0.2-0.2-0.2-0.3 0-0.1 0.1-0.2 0.2-0.2h3.2c0.1 0 0.2 0.1 0.2 0.2 0 0.1-0.1 0.3-0.2 0.3z"/>
		</g>
		<g id="&lt;Group&gt;">
			<path id="&lt;Path&gt;" class="s2" d="m944.8 94.5h-1.8c-0.2 0-0.3-0.1-0.3-0.3 0-0.1 0.1-0.2 0.3-0.2h1.8c0.2 0 0.3 0.1 0.3 0.2 0 0.2-0.1 0.3-0.3 0.3z"/>
		</g>
		<g id="&lt;Group&gt;">
			<path id="&lt;Path&gt;" class="s2" d="m1018.1 132.3h-5.7c-0.2 0-0.3-0.1-0.3-0.2 0-0.1 0.1-0.3 0.3-0.3h5.7c0.1 0 0.2 0.2 0.2 0.3 0 0.1-0.1 0.2-0.2 0.2z"/>
		</g>
		<g id="&lt;Group&gt;">
			<path id="&lt;Path&gt;" class="s2" d="m1018.1 135.9h-5.7c-0.2 0-0.3-0.1-0.3-0.2 0-0.1 0.1-0.3 0.3-0.3h5.7c0.1 0 0.2 0.2 0.2 0.3 0 0.1-0.1 0.2-0.2 0.2z"/>
		</g>
		<g id="&lt;Group&gt;">
			<path id="&lt;Path&gt;" class="s2" d="m959 187.5q-0.1 0-0.1 0c-0.1-0.1-0.2-0.2-0.2-0.3 0.1-0.2 5.3-20.9 3.8-26.8-1.5-5.9-13.1-12.2-13.2-12.2q-0.2-0.1-0.1-0.3 0-0.1 0.1-0.2l4.4-1.2c0.1 0 0.2 0.1 0.3 0.2 0 0.1-0.1 0.3-0.2 0.3l-3.7 1c2.3 1.4 11.5 6.8 12.9 12.3 1.5 6-3.6 26.1-3.8 27 0 0.1-0.1 0.2-0.2 0.2z"/>
		</g>
		<g id="&lt;Group&gt;">
			<path id="&lt;Path&gt;" class="s13" d="m987.9 221.5c-0.1 0-0.2-0.1-0.3-0.2 0-0.1 0.1-0.3 0.2-0.3l5.1-1.3c0.1 0 0.2 0.1 0.3 0.2 0 0.1-0.1 0.3-0.2 0.3l-5.1 1.3q0 0 0 0z"/>
		</g>
		<g id="&lt;Group&gt;">
			<path id="&lt;Path&gt;" class="s13" d="m951.9 223.4h-7.6c-0.1 0-0.2-0.1-0.2-0.3 0-0.1 0.1-0.2 0.2-0.2h7.6c0.1 0 0.2 0.1 0.2 0.2 0 0.2-0.1 0.3-0.2 0.3z"/>
		</g>
		<g id="&lt;Group&gt;">
			<path id="&lt;Path&gt;" class="s22" d="m923.8 127.3c-0.2-0.1-0.3-0.2-0.3-0.3l0.5-3.3c0-0.1 0.1-0.2 0.3-0.2 0.1 0 0.2 0.1 0.2 0.3l-0.5 3.2c0 0.2-0.1 0.3-0.2 0.3z"/>
		</g>
		<g id="&lt;Group&gt;">
			<path id="&lt;Path&gt;" class="s1" d="m1164.1 349.1c-0.7 3.8-12.5 7.1-14.2 6.7q-1.6-0.4 0-1.7-1.6 0.9-3.2 0.8-1.7-0.1-0.9-2.2-0.7-1.4 0.4-4.7 1.2-3.3 14.5-7.5 4.1 4.7 3.4 8.6z"/>
		</g>
		<g id="&lt;Group&gt;">
			<path id="&lt;Path&gt;" class="s2" d="m1145.8 349.9q-0.1 0-0.2-0.1c-0.1-0.1-0.1-0.2 0-0.3 1.5-2.3 6.1-3.7 6.2-3.7 0.2-0.1 0.3 0 0.4 0.1 0 0.2-0.1 0.3-0.2 0.3-0.1 0.1-4.6 1.4-6 3.6q-0.1 0.1-0.2 0.1z"/>
		</g>
		<g id="&lt;Group&gt;">
			<path id="&lt;Path&gt;" class="s2" d="m1145.8 353q-0.1 0-0.2-0.1c-0.1-0.1 0-0.3 0.1-0.4 0.1-0.1 3.2-2.4 6.7-3.3 0.1 0 0.2 0.1 0.3 0.2 0 0.1-0.1 0.3-0.2 0.3-3.3 0.8-6.5 3.2-6.5 3.2q-0.1 0.1-0.2 0.1z"/>
		</g>
		<g id="&lt;Group&gt;">
			<path id="&lt;Path&gt;" class="s2" d="m1149.9 354.4q-0.2 0-0.3-0.2c0-0.1 0-0.2 0.2-0.3l3-1.4c0.1-0.1 0.3 0 0.3 0.1 0.1 0.1 0 0.3-0.1 0.3l-3 1.5q-0.1 0-0.1 0z"/>
		</g>
		<g id="&lt;Group&gt;">
			<path id="&lt;Path&gt;" class="s1" d="m1134.5 339.5q10.3 5.5 10.6 9 0.4 3.5-0.7 4.7 0.3 2.2-1.3 1.9-1.7-0.2-3-1.5 1.3 1.6-0.5 1.6c-1.7 0.1-10.8-4.2-10.5-8.1q0.2-3.9 5.4-7.6z"/>
		</g>
		<g id="&lt;Group&gt;">
			<path id="&lt;Path&gt;" class="s2" d="m1145.2 350.4q-0.2 0-0.2-0.2c-0.9-2.4-5-4.8-5.1-4.8-0.1-0.1-0.1-0.3-0.1-0.4 0.1-0.1 0.2-0.1 0.4-0.1 0.1 0.1 4.3 2.6 5.2 5.2 0.1 0.1 0 0.2-0.1 0.3q0 0-0.1 0z"/>
		</g>
		<g id="&lt;Group&gt;">
			<path id="&lt;Path&gt;" class="s2" d="m1144.4 353.5q-0.1 0-0.2-0.1c0-0.1-2.5-3.2-5.6-4.8-0.1 0-0.2-0.2-0.1-0.3 0.1-0.1 0.2-0.2 0.3-0.1 3.2 1.6 5.7 4.7 5.8 4.9 0.1 0.1 0.1 0.2 0 0.3q-0.1 0.1-0.2 0.1z"/>
		</g>
		<g id="&lt;Group&gt;">
			<path id="&lt;Path&gt;" class="s2" d="m1140.1 353.9q-0.1 0-0.1-0.1l-2.7-2.1c-0.1-0.1-0.1-0.2 0-0.4 0.1-0.1 0.2-0.1 0.3 0l2.7 2.1c0.1 0.1 0.1 0.3 0 0.4q-0.1 0.1-0.2 0.1z"/>
		</g>
		<g id="&lt;Group&gt;">
			<path id="&lt;Path&gt;" class="s8" d="m1168.2 301.9c7.2 2.2 16.4 13.4 15.5 27.9q-0.9 14.4-18.9 19.8l-11-9.3q8-40.4 14.4-38.4z"/>
		</g>
		<g id="&lt;Group&gt;">
			<path id="&lt;Path&gt;" class="s8" d="m1128 348.4q-7.2-12.8 3-28.3 6.2-9.4 10.3 20.4z"/>
		</g>
		<g id="&lt;Group&gt;">
			<path id="&lt;Path&gt;" class="s13" d="m1158.6 337.5q0 0-0.1-0.1c-0.1-0.1-0.1-0.2 0-0.3 0.3-0.4 8-10.4 13.1-13.4 0.1-0.1 0.3 0 0.4 0.1 0 0.1 0 0.3-0.1 0.3-5.1 3-13 13.2-13.1 13.3q0 0.1-0.2 0.1z"/>
		</g>
		<g id="&lt;Group&gt;">
			<path id="&lt;Compound Path&gt;" fill-rule="evenodd" class="s13" d="m1164.2 330.9q0 0-0.1 0c-0.1 0-0.2-0.1-0.1-0.2 0-0.6 0.6-5.7 1.9-6.5q0.3-0.2 0.6-0.2 0.3 0.1 0.4 0.5c0.6 1.3-2.2 5.8-2.5 6.3q-0.1 0.1-0.2 0.1zm2.1-6.4q-0.1 0-0.2 0.1c-0.7 0.4-1.2 3.1-1.5 4.9 1-1.8 2.2-4.2 1.9-4.9q-0.1-0.1-0.1-0.1-0.1 0-0.1 0z"/>
		</g>
		<g id="&lt;Group&gt;">
			<path id="&lt;Path&gt;" class="s4" d="m974.8 321.6q18.4 10.5 19 11.1c0.7 0.6-1.8 15.1-3.8 15.1-1.1-0.1-38.1 1.2-38.8-16.4q-0.9-20.3 21.1-31.2z"/>
		</g>
		<g id="&lt;Group&gt;">
			<path id="&lt;Compound Path&gt;" fill-rule="evenodd" class="s2" d="m982.8 328.5q-0.1 0-0.1-0.1l-12.5-4.1c-1.8 0-7.7-0.3-8.1-1.6-0.1-0.2-0.1-0.5 0.4-0.9 2-1.6 7.6 1.9 7.9 2.1q0 0 12.4 4.1c0.2 0 0.2 0.1 0.2 0.3q-0.1 0.1-0.2 0.2zm-18.9-6.6q-0.7 0-1.1 0.3-0.3 0.2-0.2 0.4c0.2 0.5 3.4 1 6.7 1.2-1.5-0.8-3.8-1.9-5.4-1.9z"/>
		</g>
	</g>
</svg>