<svg version="1.2" xmlns="http://www.w3.org/2000/svg" viewBox="0 0 1440 500" width="1440" height="500">
	<title>10172-ai</title>
	<style>
		.s0 { fill: #ffffff } 
		.s1 { fill: #f7cc7f } 
		.s2 { fill: #50bfa5 } 
		.s3 { fill: #07345a } 
		.s4 { fill: #f47458 } 
		.s5 { fill: #355389 } 
		.s6 { fill: #5184ce } 
		.s7 { fill: #466eb6 } 
		.s8 { opacity: .3;mix-blend-mode: multiply;fill: #184655 } 
		.s9 { fill: #184655 } 
		.s10 { fill: #cce6ff } 
		.s11 { fill: #e9ffff } 
		.s12 { opacity: .6;fill: #9bc1f9 } 
		.s13 { opacity: .3;mix-blend-mode: multiply;fill: #9bc1f9 } 
		.s14 { fill: #13375b } 
		.s15 { fill: #9bc1f9 } 
		.s16 { fill: #96d9c9 } 
		.s17 { fill: #a34b3d } 
		.s18 { fill: #b75742 } 
		.s19 { fill: #f7a491 } 
		.s20 { fill: #e0973f } 
		.s21 { fill: #dd513a } 
		.s22 { fill: #0e2e35 } 
		.s23 { fill: #e25a44 } 
		.s24 { fill: #f38b80 } 
		.s25 { opacity: .5;fill: #f47458 } 
		.s26 { fill: #f48c7f } 
		.s27 { opacity: .6;fill: #c5ddf9 } 
		.s28 { mix-blend-mode: soft-light;fill: #ffffff } 
		.s29 { opacity: .5;mix-blend-mode: multiply;fill: #50bfa5 } 
		.s30 { fill: #f8a492 } 
	</style>
	<g id="Layer 1">
		<g id="&lt;Group&gt;">
			<g id="&lt;Group&gt;">
				<path id="&lt;Path&gt;" class="s0" d="m-44-67h1672.9v633h-1672.9z"/>
			</g>
		</g>
		<g id="&lt;Group&gt;">
			<path id="&lt;Compound Path&gt;" fill-rule="evenodd" class="s1" d="m1117.5 70.9c48.6 9.6 78.1 48.3 65.7 86.2-12.3 38-61.9 61-110.4 51.3-48.6-9.6-78-48.3-65.7-86.2 12.3-37.9 61.9-60.9 110.4-51.3zm-42.1 120c36.3 8.5 74.5-7.5 85.4-35.8 10.9-28.3-9.7-58.2-45.9-66.7-36.2-8.5-74.4 7.5-85.4 35.8-10.9 28.4 9.7 58.2 45.9 66.7z"/>
			<path id="&lt;Compound Path&gt;" fill-rule="evenodd" class="s1" d="m956.4 90.6c2.1-1.7 4.6-1.3 11.2-0.3 8.3 1.3 16.5 2.7 24.7 3.9 1.6 0.2 3.9-0.5 4.9-1.4 6.2-5.8 12-12 18.3-17.8 1.8-1.7 2.4-2.8 1.2-4.9-4.1-7.3-7.9-14.8-11.9-22.1-0.6-1.2-1.2-2.5-2.2-4.6 13.4-5.5 26.8-10.9 40.4-16.5 6.9 8 13.4 15.3 19.4 22.7 2.1 2.7 3.9 3.6 8.2 3 8.9-1.3 17.9-1.5 26.8-2.4 1.4-0.2 3.2-1.2 3.7-2.1 4.2-7.5 8.5-14.9 12.1-22.5 1.7-3.6 4.2-4.4 8.6-3.3 1.6 0.4 3.5 0.3 5.3 0.5q11.4 2.7 22.8 5.4c0.8 0.3 1.5 0.8 2.3 1.1 8.5 2.8 7.3 1.9 5.7 8.5-2 8.1-4.2 16.2-5.9 23.1 10.1 6.6 19.5 12.7 29.3 19.1 11.6-3.8 23.7-7.8 35.9-11.7 9.4 9.6 16 20.2 21.2 31.5-10.2 5.3-20.1 10.4-30 15.6-1.8 0.9-2.6 1.7-2.3 3.6 1.5 7.8 2.6 15.6 3.4 23.4 0.2 2.3 1.2 3.1 3.6 3.8 9.7 3.1 19.4 6.4 29.1 9.6 2.5 0.7 3.5 1.7 3.1 3.9-1.8 10.3-6.3 19.9-12 29.3-1.1 1.8-2.6 1.8-4.8 1.4-10-1.7-20.1-3.1-30.1-4.9-2.9-0.4-4.4-0.1-6.3 1.9-6.7 7.1-13.8 13.9-21.4 21.3 4.4 8.3 9.4 17.6 14.4 26.9-12.6 7.6-25.8 13.3-40.6 17.1-7.3-8.7-14.4-17.2-20.9-24.8-10.9 0.6-21.1 1.3-31.2 1.6-3.9 0.1-5.7 1-7.1 3.7-3.6 7.4-7.6 14.6-11.5 21.9-0.8 1.4-1.3 3.4-4.4 2.7q-19-4.6-38.1-9.2c-2.6-0.6-3.2-2-2.6-4.1 2.2-7.9 4-16 6.4-23.9 0.9-3-0.6-4.3-3.4-6-7-4.2-14-8.5-20.3-13.3-2.8-2-4.5-2.2-7.8-1.1-10.5 3.7-21.3 7.1-31.8 10.6-6.6-5.2-19-23.8-21.5-32.1 9.9-5 19.8-10.2 29.9-15.1 2.5-1.3 2.8-2.4 2.4-4.6-1-7.1-1.5-14.2-2.5-21.3-0.1-1.2-1.5-2.9-2.8-3.3-8.6-2.9-17.2-5.6-25.9-8.3-4.9-1.5-6.8-2.1-7.2-3.8zm57.9 86.6c12.9 16.9 33.3 28.8 57.7 33.6 24.3 4.9 49.7 2 71.2-8 21.6-10 36.9-26 43.1-45.1 6.2-19 2.6-38.8-10.3-55.6-12.8-16.9-33.3-28.8-57.7-33.7-24.3-4.8-49.6-1.9-71.2 8.1-21.6 10-36.9 26-43.1 45-6.2 19.1-2.5 38.8 10.3 55.7z"/>
		</g>
		<path id="&lt;Compound Path&gt;" fill-rule="evenodd" class="s2" d="m417 196.3c0.1-1.9 1.9-2.7 6.6-4.9 5.8-2.6 11.8-5.1 17.6-7.8 1.1-0.5 2.1-1.8 2-2.8-0.1-6.1-0.7-12.2-0.8-18.3-0.1-1.8-0.5-2.7-2.6-3.5-7.4-2.8-14.8-5.7-22.1-8.6-1.2-0.4-2.4-0.9-4.4-1.8 4.4-8.9 8.8-17.6 13.4-26.7 9.6 2.1 18.4 3.9 27.1 5.9 3 0.7 4.7 0.6 7-1.6 4.5-4.4 9.8-8.2 14.6-12.4 0.7-0.7 1.1-2 0.8-2.8-2.4-6.3-4.8-12.5-7.8-18.6-1.4-3-0.4-4.4 3-5.6 1.3-0.4 2.4-1.2 3.6-1.8q8.7-3.1 17.4-6.2c0.8 0 1.5 0 2.2-0.2 7-1.8 5.7-1.8 9.2 2.9 4.2 5.7 8.3 11.4 12 16.4 10.5-0.2 20.4-0.3 30.6-0.5 4.5-7 9.2-14.4 13.9-21.8 12.3 2 23.3 5.7 34.1 10.4-2.6 7.4-5.2 14.6-7.8 21.8-0.4 1.3-0.4 2.1 1.2 3.2 6 4.1 12 8.3 17.7 12.8 1.7 1.3 2.8 1.3 4.7 0.8 8.1-2.1 16.2-4.1 24.2-6.2 2-0.5 3.2-0.4 4.5 1.2 5.9 7 9.6 14.7 12.5 22.6 0.5 1.6-0.5 2.2-2 2.9-7.2 3.1-14.4 6.3-21.6 9.4-2.1 0.9-2.8 1.7-2.5 3.8 0.7 7 0.9 14 1.3 21.6 8.2 3.2 17.5 6.9 26.9 10.5-2.6 9.7-6.8 18.6-13.2 27-10.3-2.3-20.3-4.5-29.4-6.5-6.3 4.9-11.9 9.5-17.9 13.8-2.3 1.7-2.8 3-1.7 5.2 2.7 6 5.2 12 7.7 18 0.5 1.2 1.5 2.6-0.9 3.4q-14.6 5.1-29.3 10.1c-2.1 0.7-3.3 0.1-4.3-1.4-4-5.8-8.4-11.4-12.2-17.1-1.5-2.3-3.3-2.4-6.2-2.3-7.1 0.3-14.2 0.6-21.2 0.3-3.1-0.1-4.2 0.4-5.5 2.5-3.9 6.6-8.1 13.1-12.2 19.4-7.5-0.4-27.6-6.6-34.6-10.6 2.6-7.1 5.1-14.3 7.9-21.4 0.7-1.8 0.1-2.6-1.6-3.8-5.4-3.9-10.5-8-15.8-11.9-0.9-0.7-2.9-1.1-4-0.9-7.1 1.8-14.2 3.7-21.3 5.6-3.9 1.1-5.5 1.5-6.9 0.7zm93.4 28.8c19.2 4.9 39.7 3.8 57.7-3.3 18.1-7 31.5-19.2 37.9-34.1 6.3-15 4.8-31-4.2-45.1-9-14.1-24.6-24.6-43.7-29.5-19.2-5-39.7-3.8-57.7 3.2-18 7.1-31.5 19.2-37.8 34.2-6.4 14.9-4.9 30.9 4.1 45 9.1 14.1 24.6 24.6 43.7 29.6z"/>
		<path id="&lt;Path&gt;" class="s1" d="m518.4 58.9l2.8-4.1-2.7-4.2c-0.3-0.5 0.2-1 0.9-0.9l5.9 0.8 4.3-3.3c0.4-0.4 1.3-0.1 1.4 0.4l0.7 4.6 5.4 2.2c0.6 0.2 0.5 0.9-0.1 1.1l-5.4 2.1-0.9 4.6c-0.2 0.5-1 0.7-1.5 0.3l-4.1-3.4-5.9 0.7c-0.7 0.1-1.2-0.4-0.8-0.9z"/>
		<path id="&lt;Compound Path&gt;" fill-rule="evenodd" class="s3" d="m831.9 78.4l2.5-3.1-2-0.6c-0.4-0.2-0.6-0.5-0.4-0.9 0.1-0.3 0.6-0.5 1.1-0.3l2.2 0.7 2.2-2.8-2.1-0.7c-0.4-0.1-0.6-0.5-0.4-0.8 0.1-0.4 0.6-0.5 1.1-0.4l2.4 0.8 2.5-3.2c0.2-0.3 0.7-0.4 1-0.3l0.4 0.1c0.5 0.2 0.7 0.6 0.4 1l-2.4 3 3.5 1.1 2.6-3.2c0.2-0.3 0.6-0.4 1-0.3l0.4 0.2c0.5 0.1 0.7 0.6 0.4 0.9l-2.4 3 2 0.7c0.4 0.1 0.7 0.5 0.5 0.8-0.2 0.3-0.7 0.5-1.1 0.4l-2.3-0.7-2.2 2.8 2.2 0.6c0.4 0.2 0.6 0.5 0.4 0.9-0.2 0.3-0.7 0.5-1.1 0.3l-2.4-0.7-2.6 3.3c-0.2 0.3-0.6 0.4-1 0.3l-0.5-0.2c-0.4-0.1-0.6-0.6-0.4-0.9l2.5-3.2-3.5-1.1-2.6 3.3c-0.2 0.3-0.6 0.4-1 0.3l-0.5-0.1c-0.4-0.2-0.6-0.6-0.4-1zm8.9-2.5l2.2-2.8-3.5-1.1-2.2 2.8z"/>
		<path id="&lt;Compound Path&gt;" fill-rule="evenodd" class="s4" d="m820.9 132.1c3.6 0.2 7.1 0.5 10.7 0.7 0.6 0.1 1.6-0.3 2-0.7 2.2-2.7 4.3-5.5 6.6-8.2 0.7-0.7 0.9-1.3 0.3-2.1-2.2-2.9-4.2-5.9-6.3-8.9-0.3-0.5-0.7-1-1.2-1.8 5.3-2.8 10.6-5.6 16.1-8.5 3.4 3.2 6.5 6 9.5 9 1 1 1.8 1.3 3.6 0.9 3.7-0.8 7.5-1.2 11.2-1.9 0.6-0.1 1.3-0.6 1.4-1.1 1.4-3.2 2.7-6.5 3.8-9.8 0.6-1.6 1.5-2.1 3.4-1.8 0.8 0.2 1.6 0.1 2.3 0.1q5 0.7 10 1.4c0.3 0.2 0.6 0.4 1 0.4 3.7 0.9 3.2 0.6 2.9 3.4-0.4 3.5-0.8 7-1.2 10 4.7 2.4 9 4.7 13.5 7 4.7-2 9.6-4.1 14.5-6.2 4.5 3.7 7.9 7.9 10.7 12.5-4 2.6-7.8 5.2-11.7 7.7-0.7 0.4-1 0.8-0.8 1.6 1.1 3.2 2 6.5 2.8 9.8 0.2 0.9 0.7 1.2 1.7 1.4 4.3 1 8.6 2 12.9 3 1.1 0.3 1.5 0.6 1.5 1.6-0.2 4.4-1.5 8.6-3.4 12.8-0.3 0.8-1 0.8-1.9 0.7-4.3-0.3-8.7-0.6-13-1-1.2-0.1-1.9 0.1-2.6 1.1-2.3 3.2-5 6.3-7.7 9.7 2.3 3.3 4.9 7.1 7.6 10.8-4.9 3.7-10.2 6.5-16.2 8.7-3.6-3.4-7.1-6.8-10.2-9.8-4.6 0.7-8.8 1.3-13.1 1.8-1.6 0.2-2.3 0.6-2.8 1.8-1.1 3.3-2.3 6.5-3.6 9.7-0.2 0.6-0.3 1.5-1.7 1.3q-8.3-1.3-16.6-2.6c-1.1-0.2-1.4-0.7-1.3-1.6 0.5-3.4 0.8-6.9 1.3-10.3 0.2-1.3-0.5-1.8-1.8-2.4-3.2-1.6-6.4-3.1-9.3-4.9-1.3-0.8-2-0.8-3.3-0.2-4.3 1.9-8.6 3.7-12.8 5.5-3.1-1.9-9.5-9.3-11-12.7 3.9-2.5 7.8-5 11.8-7.5 0.9-0.6 1-1.1 0.7-2-0.8-2.9-1.4-5.9-2.3-8.9-0.1-0.5-0.8-1.1-1.4-1.3-3.7-0.9-7.5-1.7-11.4-2.6-2.1-0.4-2.9-0.6-3.2-1.3l3.3-13.8c0.8-0.8 1.9-0.7 4.7-0.5zm28.1 12.1c-2.9 12.3 7.4 24.2 23.2 26.5 15.8 2.4 31-5.8 34-18.1 2.9-12.3-7.4-24.2-23.2-26.5-15.8-2.3-31 5.8-34 18.1z"/>
		<path id="&lt;Path&gt;" class="s5" d="m706.8 51.7l4.4 6.3-10.4-1z"/>
		<g id="&lt;Group&gt;">
			<path id="&lt;Path&gt;" class="s4" d="m740.1 127.4c0.2 2.4 2.8 4.6 5.9 4.7 2.6 0.2 4.8-1.3 5.7-3.1 0.8-2 0.1-4.2-2.4-5.1-4.6-1.7-7.1 5.2-3.3 5.3 0.5 0 0.9-0.1 1.3-0.3 0.2-0.1 0.2-0.2 0.6-0.8 0.2-0.3 0.8-0.3 1 0 0.9 1.4-1.4 2.3-2.8 2.3-3.8 0-4.9-4.1-1.4-6.9 3.8-3 10.7 0.9 8.3 5.8-1.2 2.5-4.3 4.3-7.8 3.8-3.3-0.4-6.4-3-6-5.7 0-0.5 0.9-0.5 0.9 0z"/>
		</g>
		<g id="&lt;Group&gt;">
			<g id="&lt;Group&gt;">
				<path id="&lt;Path&gt;" class="s2" d="m930.1 25.2l3.1 1q5.3-0.9 5.8-1.6c0.6-0.8 1-2.7 1.7-2.7 0.7 0 2.1 0.2 2.3 1.6 0.1 1-2 3.6-1.7 4 0.1 0.2 1.9 0.8 3.2 1.3 0.9 0.3 1.5 0.9 1.5 1.6 0.1 0.5-0.3 1-1 1.1l-0.9 0.2 0.2 0.8c0.2 0.6-0.3 1.1-1 1.2l-0.7 0.2 0.2 0.4c0.2 0.6-0.3 1.3-1.1 1.4l-0.6 0.1v0.1c0 0.6-0.4 1-1.1 1.1l-0.7 0.1-8.3-2.8q-1.2-0.4-2.1-1.1l-2.7-1.4c-0.3-0.1-0.4-0.4-0.2-0.7l3.2-5.6c0.2-0.3 0.6-0.4 0.9-0.3z"/>
			</g>
		</g>
		<rect id="&lt;Path&gt;" class="s6" x="775.3" y="141.5" width="77.4" height="30.8" rx="33"></rect>
		<path id="&lt;Path&gt;" class="s7" d="m860.3 445.2l60.4 21.5v4.8h-213.1v-4.8l59.8-21.5z"/>
		<path id="&lt;Path&gt;" class="s7" d="m767.4 352.9h92.9v92.3h-92.9z"/>
		<path id="&lt;Path&gt;" class="s7" d="m532.1 381.9v-208.3c0-9.9 10.3-17.9 23-17.9h517c12.7 0 22.9 8 22.9 17.9v208.3z"/>
		<path id="&lt;Path&gt;" class="s8" d="m707.6 466.7h213.1v4.8h-213.1z"/>
		<path id="&lt;Path&gt;" class="s8" d="m767.4 434.4h92.9v10.8h-92.9z"/>
		<path id="&lt;Path&gt;" class="s6" d="m1095 381.9v33.3c0 7-5.8 12.6-13.1 12.6h-536.6c-7.3 0-13.2-5.6-13.2-12.6v-33.3z"/>
		<ellipse id="&lt;Path&gt;" class="s9" cx="814.5" cy="149.7" rx="5.2" ry="4.1"/>
		<path id="&lt;Path&gt;" class="s10" d="m545.3 372.8v-198.7c0-5.2 5.6-9.4 12.5-9.4h511.5c6.9 0 12.5 4.2 12.5 9.4v198.7z"/>
		<path id="&lt;Path&gt;" class="s11" d="m568.9 180.8h322.5v175.7h-322.5z"/>
		<path id="&lt;Path&gt;" class="s6" d="m568.9 180.8h322.5v20.5h-322.5z"/>
		<path id="&lt;Path&gt;" class="s12" d="m1006.1 224.7h22v133.1h-22z"/>
		<path id="&lt;Path&gt;" class="s12" d="m975.4 265.3h22v92.5h-22z"/>
		<path id="&lt;Path&gt;" class="s12" d="m1037.3 253.6h22v104.2h-22z"/>
		<path id="&lt;Path&gt;" class="s12" d="m944.6 249.5h22.1v108.3h-22.1z"/>
		<path id="&lt;Path&gt;" class="s12" d="m913.9 281.6h22v76.2h-22z"/>
		<g id="&lt;Group&gt;">
			<path id="&lt;Path&gt;" class="s13" d="m1006.1 255.4h22v102.4h-22z"/>
			<path id="&lt;Path&gt;" class="s13" d="m975.4 286.6h22v71.2h-22z"/>
			<path id="&lt;Path&gt;" class="s13" d="m1037.3 277.6h22v80.2h-22z"/>
			<path id="&lt;Path&gt;" class="s13" d="m944.6 274.4h22.1v83.4h-22.1z"/>
			<path id="&lt;Path&gt;" class="s13" d="m913.9 299.1h22v58.7h-22z"/>
		</g>
		<path id="&lt;Path&gt;" class="s12" d="m580 209.8h297.7v29.8h-297.7z"/>
		<path id="&lt;Path&gt;" class="s12" d="m686.1 248.1h191.6v7.7h-191.6z"/>
		<path id="&lt;Path&gt;" class="s6" d="m580 248.1h94.2v88.3h-94.2z"/>
		<path id="&lt;Path&gt;" class="s12" d="m686.1 264.2h191.6v7.7h-191.6z"/>
		<path id="&lt;Path&gt;" class="s12" d="m686.1 312.6h191.6v7.7h-191.6z"/>
		<path id="&lt;Path&gt;" class="s12" d="m686.1 328.7h191.6v7.7h-191.6z"/>
		<path id="&lt;Path&gt;" class="s1" d="m445.4 279.8l179-0.3c2.7 0 4.9 1.7 4.9 3.8l0.4 184.2c0 2.1-2.2 3.8-4.9 3.8l-178.9 0.2c-2.7 0-4.9-1.7-4.9-3.8l-0.4-184.1c0-2.1 2.2-3.8 4.8-3.8z"/>
		<path id="&lt;Path&gt;" class="s0" d="m450.4 285.1l169-0.2 0.5 180-169.1 0.2z"/>
		<path id="&lt;Path&gt;" class="s14" d="m571.6 282.8l-74.8 0.1v-5.7c0-0.9 0.9-1.5 1.9-1.5l71-0.1c1 0 1.9 0.6 1.9 1.5z"/>
		<path id="&lt;Compound Path&gt;" fill-rule="evenodd" class="s14" d="m534.2 286.1c-6.2 0-11.2-3.9-11.2-8.7 0-4.9 5-8.8 11.2-8.8 6.2 0 11.2 3.9 11.2 8.8 0 4.8-5 8.7-11.2 8.7zm7.2-8.7c0-3.1-3.2-5.6-7.2-5.6-4 0-7.2 2.5-7.2 5.6 0 3.1 3.2 5.6 7.2 5.6 4 0 7.2-2.5 7.2-5.6z"/>
		<g id="&lt;Group&gt;">
			<path id="&lt;Path&gt;" class="s5" d="m571.6 277.1v5.7c0 4-4.2 7.2-9.3 7.3h-56.2c-5.1 0-9.2-3.2-9.3-7.2l74.8-0.1v-5.7c0-0.7-0.5-1.2-1.2-1.4 0.7 0.2 1.2 0.7 1.2 1.4z"/>
			<path id="&lt;Path&gt;" class="s15" d="m498.7 275.7c-0.6 0-1.2 0.2-1.5 0.6 0.3-0.4 0.9-0.6 1.5-0.6z"/>
			<path id="&lt;Path&gt;" class="s15" d="m496.9 276.7q0.1-0.1 0.2-0.2-0.1 0.1-0.2 0.2z"/>
		</g>
		<g id="&lt;Group&gt;">
			<path id="&lt;Compound Path&gt;" fill-rule="evenodd" class="s9" d="m600.1 338h-24.1v-18.8h24zm-23-0.7l22-0.1v-17.2h-22.1z"/>
		</g>
		<g id="&lt;Group&gt;">
			<path id="&lt;Compound Path&gt;" fill-rule="evenodd" class="s9" d="m600.1 369.2h-24v-18.7l24-0.1zm-23.1-0.7h22.1v-17.3l-22.1 0.1z"/>
		</g>
		<g id="&lt;Group&gt;">
			<path id="&lt;Compound Path&gt;" fill-rule="evenodd" class="s9" d="m600.2 400.4l-24 0.1-0.1-18.8h24.1zm-23.1-0.8h22.1l-0.1-17.2h-22z"/>
		</g>
		<g id="&lt;Group&gt;">
			<path id="&lt;Compound Path&gt;" fill-rule="evenodd" class="s9" d="m600.3 431.7h-24.1v-18.8h24zm-23-0.7l22.1-0.1-0.1-17.2h-22.1z"/>
		</g>
		<path id="&lt;Path&gt;" class="s15" d="m463.1 319.8l102.8-0.2v2.7l-102.8 0.2z"/>
		<path id="&lt;Path&gt;" class="s15" d="m463.1 327.4l102.8-0.1v2.7l-102.8 0.1z"/>
		<path id="&lt;Path&gt;" class="s15" d="m463.1 335.1l102.9-0.2v2.7l-102.9 0.2z"/>
		<path id="&lt;Path&gt;" class="s15" d="m463.2 352.1l102.8-0.2v2.7l-102.8 0.2z"/>
		<path id="&lt;Path&gt;" class="s15" d="m463.2 359.7l102.8-0.1v2.7l-102.8 0.1z"/>
		<path id="&lt;Path&gt;" class="s15" d="m463.2 367.4l102.8-0.2v2.7l-102.8 0.2z"/>
		<path id="&lt;Path&gt;" class="s15" d="m463.2 382.7l102.9-0.2v2.7l-102.9 0.2z"/>
		<path id="&lt;Path&gt;" class="s15" d="m463.3 390.3l102.8-0.1v2.7l-102.8 0.1z"/>
		<path id="&lt;Path&gt;" class="s15" d="m463.3 398l102.8-0.2v2.7l-102.8 0.2z"/>
		<path id="&lt;Path&gt;" class="s15" d="m463.3 413.3l102.8-0.2v2.7l-102.8 0.2z"/>
		<path id="&lt;Path&gt;" class="s15" d="m463.3 420.9l102.9-0.1v2.7l-102.9 0.1z"/>
		<path id="&lt;Path&gt;" class="s15" d="m463.3 428.6l102.9-0.2v2.7l-102.9 0.2z"/>
		<path id="&lt;Path&gt;" class="s15" d="m463.4 448.3l118.6-0.1v2.7l-118.6 0.2z"/>
		<path id="&lt;Path&gt;" class="s15" d="m463.4 454.9l142-0.2v2.7l-142 0.2z"/>
		<g id="&lt;Group&gt;">
			<path id="&lt;Path&gt;" class="s4" d="m587.9 334.9l-7.4-10 2.6-1.2 4.4 5.8 7-13.3 2.9 1z"/>
		</g>
		<g id="&lt;Group&gt;">
			<path id="&lt;Path&gt;" class="s4" d="m588 366.5l-7.5-10 2.7-1.2 4.3 5.8 7.1-13.2 2.9 0.9z"/>
		</g>
		<g id="&lt;Group&gt;">
			<path id="&lt;Path&gt;" class="s4" d="m588.1 428.4l-7.4-10 2.7-1.2 4.3 5.8 7.1-13.3 2.8 1z"/>
		</g>
		<path id="&lt;Path&gt;" class="s4" d="m590.3 391.1l6.2 4.7-2.2 1.7-6.1-4.8-6.2 4.8-2.1-1.7 6.1-4.7-6.1-4.7 2.1-1.7 6.2 4.7 6.1-4.8 2.2 1.7z"/>
		<path id="&lt;Path&gt;" class="s13" d="m499.2 414.8c8.3 6.5 13 15.2 13 24.5 0 9.2-4.6 17.9-12.9 24.4q-0.9 0.7-1.8 1.3l-8.4 0.1c10.8-5.5 18-15 18-25.8-0.1-16.9-17.7-30.6-39.3-30.6-6.1 0-11.9 1.1-17.1 3.1v-4.4c5.3-1.7 11.1-2.7 17.1-2.7 11.9 0 23 3.6 31.4 10.1z"/>
		<path id="&lt;Path&gt;" class="s13" d="m500.2 439.3c0 13.9-14.4 25.2-32.2 25.2-6.3 0-12.2-1.4-17.2-3.8v-2.4c4.9 2.7 10.8 4.2 17.2 4.2 16.3 0 29.7-10.4 29.6-23.2 0-12.8-13.4-23.2-29.7-23.2-6.4 0-12.3 1.6-17.2 4.3v-2.4c5-2.5 10.9-3.9 17.1-3.9 17.8 0 32.4 11.3 32.4 25.2z"/>
		<g id="&lt;Group&gt;">
			<path id="&lt;Compound Path&gt;" class="s9" d="m499 310.9v-9h-4.6v-0.7h10.7v0.7h-4.6v9z"/>
			<path id="&lt;Compound Path&gt;" class="s9" d="m516.8 310.1v0.8h-9.2v-9.7h8.9v0.7h-7.5v3.5h5.4v0.8h-5.4v3.9z"/>
			<path id="&lt;Compound Path&gt;" class="s9" d="m518.3 308.6l1.2-0.3q0.6 1 1.6 1.5 1 0.5 2.4 0.5 1.5 0 2.4-0.5 0.9-0.5 0.9-1.4 0-0.7-0.6-1.1-0.6-0.4-2-0.8-0.8-0.2-2-0.5-1.3-0.2-1.6-0.4-1.2-0.4-1.6-0.8-0.5-0.5-0.5-1.2 0-1.2 1.2-1.9 1.2-0.7 3.2-0.7 1.9 0 3.1 0.6 1.2 0.5 1.8 1.7l-1.2 0.3q-0.6-0.9-1.5-1.4-0.9-0.4-2.2-0.4-1.3 0-2.1 0.5-0.8 0.4-0.8 1.2 0 0.5 0.5 0.9 0.5 0.4 1.6 0.7 0.4 0.1 1.2 0.2 2.3 0.5 3 0.8 1 0.5 1.5 1 0.5 0.5 0.5 1.2 0 1.3-1.3 2-1.3 0.8-3.5 0.8-2 0-3.2-0.6-1.3-0.6-2-1.9z"/>
			<path id="&lt;Compound Path&gt;" class="s9" d="m534.2 310.9v-9h-4.6v-0.7h10.6v0.7h-4.5v9z"/>
			<path id="&lt;Compound Path&gt;" class="s9" d="m543 301.2h1.4v9.7h-1.4z"/>
			<path id="&lt;Compound Path&gt;" class="s9" d="m550.2 301.9v9h-1.4v-9.7h2.3l7.5 8.2v-8.2h1.4v9.7h-1.6z"/>
			<path id="&lt;Compound Path&gt;" class="s9" d="m573.1 309.8q-0.8 0.7-1.8 1-1.1 0.3-2.5 0.3-2.9 0-4.4-1.3-1.5-1.3-1.5-3.7 0-2.5 1.6-3.8 1.5-1.3 4.3-1.3 2.1 0 3.3 0.7 1.3 0.7 1.9 2.2l-1.4 0.2q-0.5-1.2-1.4-1.8-0.9-0.5-2.4-0.5-2.1 0-3.2 1-1.2 1.1-1.2 3.1 0 2.2 1.2 3.3 1.1 1.1 3.4 1.1 1.7 0 2.8-0.6 1-0.6 1-1.6v-1.1h-3.8v-0.7h5.4v4.6h-1.3z"/>
		</g>
		<g id="&lt;Group&gt;">
			<g id="&lt;Group&gt;">
				<g id="&lt;Group&gt;">
					<path id="&lt;Path&gt;" class="s2" d="m757.5 66.7q0.7-0.4 12.1-1.5l22 0.5-29.9 8.6-9.9 4.4 3.2-9.9q1.9-1.8 2.5-2.1z"/>
					<path id="&lt;Path&gt;" class="s16" d="m746.3 61.8l45.3 3.9-36.6 3.1z"/>
					<path id="&lt;Path&gt;" class="s16" d="m768 80.3l-10.7-8.6 34.3-6z"/>
				</g>
				<g id="&lt;Group&gt;">
					<g id="&lt;Group&gt;">
						<path id="&lt;Compound Path&gt;" class="s15" d="m686.5 99.2q0.4-1.2 0.9-2.4 0.5-1.1 1.2-2.1l1 0.4q-0.7 1-1.2 2-0.5 1.1-0.9 2.3-0.1 0.3-0.2 0.6l-1-0.1q0.1-0.4 0.2-0.7zm5.9-9.1q2.1-2.1 4.8-4l0.7 0.6q-2.6 1.9-4.7 3.9zm34 1.5q-0.1-0.1-0.2-0.1l0.7-0.7q0.1 0.1 0.2 0.1 0 0 0.1 0.1c0.5 0.1 2.1 0.3 3-0.1q1.1-0.4 1.9-1.3l0.9 0.4c-0.6 0.8-1.4 1.4-2.4 1.7-1.2 0.4-3.1 0.2-3.8 0q-0.2 0-0.4-0.1zm-23.6-8.8q2.8-1.5 6-2.7l0.5 0.7q-3.1 1.2-5.9 2.7zm20.4 1.9q0.1-1.2 0.7-2.4 0.3-0.7 0.8-1.3l0.9 0.4q-0.4 0.6-0.7 1.2-0.5 1.1-0.7 2.2-0.1 0.8 0 1.6h-1.1q-0.1-0.8 0.1-1.7zm5.7-3.8h-0.1l0.6-0.7h0.1c2.1 1.1 3.7 2.6 4.4 4.3l-1 0.2c-0.7-1.4-2.1-2.8-4-3.8zm-13.3-2.4c1.2-0.1 3.4-0.4 4.6-0.3q1.3 0 2.4 0.2l-0.1 0.8q-1.1-0.1-2.4-0.2c-0.7 0-2.3 0.1-4.3 0.4zm13.4-1.9q2.6-1.9 5.8-3.1l0.5 0.7q-3.1 1.2-5.6 3z"/>
					</g>
					<g id="&lt;Group&gt;">
						<path id="&lt;Path&gt;" class="s15" d="m741.5 71.9q1.9-0.2 3.7-0.2l-0.1 0.8q-1.7 0-3.4 0.2z"/>
					</g>
				</g>
			</g>
			<g id="&lt;Group&gt;">
				<path id="&lt;Path&gt;" class="s17" d="m662 85.2c0.6 0 2.4 0.5 5 4.3q3.3 4.9 8.1 19.6l-14.4 4.2-1.9-3.1-3-23.7q6-1.3 6.2-1.3z"/>
				<path id="&lt;Path&gt;" class="s18" d="m642.9 83.1c4.1 0 14.3 0.9 19.1 2.1q3.4 23.3-3.2 41-1.5 4 1.2 16.5l-42.6-0.4q5-30.2 3.1-35.1-1.9-4.9-1.9-21.9 0.2 0 9.5-1.3c4.4-0.5 10.4-0.9 14.8-0.9z"/>
				<path id="&lt;Path&gt;" class="s19" d="m637.9 186q1 8.5 2.7 10.9c1.8 2.3-0.1 6.3-0.2 6.9-0.1 0.5-3.6 1.3-9.3 0.9-5.7-0.5-5.6-1.5-5.1-3.2 0.4-1.6 3.5-3.8 3.6-5.3q0.2-1.6-1.7-7.3z"/>
				<path id="&lt;Path&gt;" class="s20" d="m655.2 135.7q29.5-1.3 36.1 1.8 6.6 3.1-4.7 18.4-20.5-0.7-60.7 1.1c-9.5 0.4-10.3-19.4-8.5-21q1.8-1.7 37.8-0.3z"/>
				<path id="&lt;Path&gt;" class="s21" d="m630.4 205.3c-5.8-0.5-5.1-2.7-4.6-4.4 0.3-1.1 1.9-2.3 2.9-3.5 0.5 0.3 1.4 0.9 3.9 1.5 2.7 0.6 6.3-0.6 8.6-1.4 0.8 2.4 0.8 5.4 0.7 5.9 0 0.6-5.7 2.4-11.5 1.9z"/>
				<path id="&lt;Path&gt;" class="s1" d="m633.6 152.1q1.2 7 7 41.6l-13.5 1.3q-16.6-45.2-15.8-52.1 0.9-6.9 7.1-7.5 12.1-1.7 15.2 16.7z"/>
				<path id="&lt;Path&gt;" class="s19" d="m618.1 87.9c4-1.1 5.9 27 6.5 38.5 7 0.5 19.4 0 22.4-0.2 1.5 0 4.8-1 6.2-1.1 1.5-0.2 2.8-0.3 3.6-0.2 0.2 0.1 7.6 2.4 8.2 2.9 0.8 0.7 2.9 2.3 2.6 3q-0.4 0.7-4.1-2l-1.8-0.8c2.2 1.8 6.5 4 5.9 4.9-0.6 0.8-4.5-1.5-7.2-3.1 2.3 1.7 5.3 4.7 4.6 5.1-0.6 0.4-3.9-3-7.5-4-1.4-0.4-2.7 0.6-3.7 0.8-0.8 0.1-2 0.2-2.7 0.1l-3.9-0.9c-1.3 0.1-1.4 0.7-2.7 0.9-1.5 0.3-4.1 0.6-6.1 1-11.3 2.1-15.1 3.1-18.6 3.1-10.5 0-11.1-45.2-1.7-48z"/>
				<path id="&lt;Path&gt;" class="s17" d="m610.5 114.3c-0.7-11.8-0.6-26.4 7.9-28.9 3.3-1 9.2 4.9 8.2 29.1-4.6 0.3-11.2 0.6-16.1-0.2z"/>
				<path id="&lt;Path&gt;" class="s19" d="m678.9 194.3q-2 2.7-0.4 4.9c1.5 2.3 9.6 5.6 10.4 6.8q0.9 1.2 0.5 2.1l-23.9-4.6 1.8-5.6 2.3-3.9z"/>
				<path id="&lt;Path&gt;" class="s21" d="m690.3 205c0.6 0.5 1.7 1.1 2.6 1.9 1.2 1.2 0 2.1-1.9 1.8l-24.9-4.8c-1.1-0.2-1.8-1.1-1.5-1.9 0.6-1.6 1.6-3.8 2.2-4 1-0.3 0.8 0 3.5 1.7q2.7 1.6 9.4 0.7 8.7 3.3 10.6 4.6z"/>
				<path id="&lt;Path&gt;" class="s1" d="m676.6 141.1c1.9-3.1 6.2-7.2 13.8-4.7 7.3 2.3 9.2 8.1 6.9 14-2.3 5.9-17.4 40.5-17.9 45.3h-12q2.2-27.4 2.7-34c0.5-6.4 3.2-15.2 6.5-20.6z"/>
				<path id="&lt;Path&gt;" class="s9" d="m698.5 112.1l-12.5 21.8c-0.7 1.3-2.3 2.1-4 2.1h-63.2c-0.7 0-1.2-0.4-1.2-0.9 0-0.5 0.5-0.9 1.2-0.9h22.2l12.4-23.7c0.4-0.8 1.4-1.3 2.4-1.3h40.3c1.9 0 3.2 1.6 2.4 2.9z"/>
				<g id="&lt;Group&gt;">
					<path id="&lt;Path&gt;" class="s0" d="m674.4 123c-0.2 1.1-1.4 1.8-2.6 1.6-1.2-0.2-2-1.2-1.7-2.2 0.3-1.1 1.5-1.8 2.7-1.6 1.2 0.1 1.9 1.2 1.6 2.2z"/>
				</g>
				<g id="&lt;Group&gt;">
					<path id="&lt;Path&gt;" class="s22" d="m652.4 74q0 0.2-2.9-4.7-8.3 8.3-8.5 8.5c-0.2 0.3-9.7 1.7-10.8-11.6-1-11.8 3.7-10 6.4-12.2 2.1-1.8 6-2 8.3-1.8 1 0.2 2.7 0.8 4 1.2q1.8 0.7 3.6 1.2c14.6 3.8-0.1 19.3-0.1 19.4z"/>
					<path id="&lt;Path&gt;" class="s19" d="m645.3 78.8l0.8 4.8q1.8 6.9-0.5 8.2-2.4 1.3-10.1-8.4l0.8-12.1z"/>
					<path id="&lt;Path&gt;" class="s4" d="m636.3 71.3l9 7.5 0.7 4.1c-3.3-1-8-3.6-9.9-7.7z"/>
					<path id="&lt;Path&gt;" class="s19" d="m644.8 58.1c5-0.6 9.5 2.6 9.4 6.5-0.1 1.7-0.3 3.8-0.7 6.1-1.1 5.5-5.9 10.4-9.1 9.9-3.2-0.4-11.2-5.2-9.8-13 0.9-4.8 4.9-8.8 10.2-9.5z"/>
					<path id="&lt;Path&gt;" class="s19" d="m636.8 68.5c-0.2 1.3-1.5 2.1-2.7 1.9-1.3-0.2-2.1-1.3-1.9-2.5 0.3-1.2 1.6-2 2.8-1.9 1.3 0.2 2.1 1.3 1.8 2.5z"/>
					<path id="&lt;Path&gt;" class="s22" d="m633.8 63.7q1.4-3.7 1.6-4 0.1-0.4 4.9-3.5 6.3 0.1 6.8 0.1c0.5 0 12.7 5.9 6.2 4.2-6.5-1.8-11.6 2.4-13 4.3q-1.4 2-5.3 1.2z"/>
				</g>
				<path id="&lt;Path&gt;" class="s0" d="m642.1 74.1l7 1q-0.7 2.1-3.8 1.7-3.8-0.5-3.2-2.7z"/>
			</g>
		</g>
		<g id="&lt;Group&gt;">
			<path id="&lt;Path&gt;" class="s19" d="m732 452.3q-2.5 3.2-2.9 9.5c-0.2 2.5-0.9 4.5-1.7 6-1.5 2.6-5.3 4.1-8.8 3.2-1.2-0.3-0.7-0.3-1.2-1.2-1-1.7-1.8-4.9-0.4-7 0.9-1.4 2.3-2.3 3-3.1q2.2-2.2 3.5-9.2z"/>
			<path id="&lt;Path&gt;" class="s19" d="m769.6 455.2q0.2 6.9 1.8 8.3c1 0.9 2.1 1.7 3.3 2.3 0.4 0.2 1.7 0.8 2 0.9 5.2 2 6.5 2.7 8.2 3.6 1 0.6 1.8 1.2 0.6 1.2l-22.8-0.3q-1-0.3-1.9-1.6c-0.9-1.3 1-4.1 1.4-5.5q0.6-2.5-0.2-10.4z"/>
			<path id="&lt;Path&gt;" class="s23" d="m779.8 349.1q2.9 12.7 1 21.1-1.9 8.4-10.9 86.1l-10 0.4q-2.1-32.4-1.8-36.9 0.4-4.6 3.4-12.1l-1-26.2 12.7-34.4z"/>
			<path id="&lt;Path&gt;" class="s4" d="m778.6 343.5l-4.7 21.6-18.3 41.9-23.3 46.4-10.1-1.6q4.5-18.6 5.6-25.7c1.1-7.1 8.5-15.5 10.5-21 3.6-10.1 0.4-33.9 2.2-41.6q1.9-7.8 9.8-17.1z"/>
			<path id="&lt;Path&gt;" class="s1" d="m726.6 469c-1.1 1.5-2.8 2.5-5 2.4-2.1-0.1-4.7 0-5.6-1.6-1-1.7-0.4-4.9 1-7 1.9 1.9 5.6 4.4 11 3.6-0.4 1-0.9 1.9-1.4 2.6z"/>
			<path id="&lt;Path&gt;" class="s1" d="m787.6 470.6c0.3 0.4 0 0.9-0.6 0.9-4.2 0-18.8-0.2-24.3-0.3-0.7 0-1.5-0.3-2-1.6-0.5-1 0.4-2.8 1-4.2 2.5 0.8 6.9 1.6 13 0.4 0.4 0.2 11.8 3.9 12.9 4.8z"/>
			<path id="&lt;Path&gt;" class="s24" d="m809.9 326.2c-2.4 0.4-4.3-0.4-8 1.2-3.7 1.7-26.2 10.9-30.4 9-1.5-0.6-5-14.8-6.5-19.1 3.1-1.2 6.9 0.4 10-0.9 0.3 1.3 4.2 8.8 4.7 10.1 5.1-0.5 20.3-4.1 21-4.3 0.7-0.2 4.6-7.2 5.5-6.6 0.9 0.6-2.1 3.9-1 4.4 1.2 0.5 12.3-3.1 12.2-2.4 0 1.4-6.7 2.5-6.6 3.2 0.1 0.6 6.9-1.7 7.5-0.7 0.7 1-6.5 1.7-6.8 2.2-0.2 0.6 6.8 0.2 6.3 1.4-0.3 0.6-6.2 0.2-6.1 0.9 0.2 0.8 4.6 1.7 4.2 2.4-0.5 0.7-3.6-1.2-6-0.8z"/>
			<path id="&lt;Path&gt;" class="s22" d="m765.8 301.7c-5.3 4.7-40.1 27.8-54.6 1.2-5.9-10.8-2.5-17.5 6.4-21.7 4.9-2.3 10.5-2.9 16.4-3.6 19.1-2.1 16.1-12.1 29.8-10.8 4.8 0.4 9 2.5 11.4 6 3 4.4 1.9 8.5 0.7 12.5-0.7 2.6-4.9 11.7-10.1 16.4z"/>
			<path id="&lt;Path&gt;" class="s1" d="m769 300.5c1.5 1.3 7.7 14.2 8.4 17.4q0.8 3.2 0.2 37.6-7 3.6-33.9-0.5 7.9-12.4 7.1-16.8c-0.7-4.5-11.5-32.7-7.4-36.2q4.1-3.5 11-4.1 13.1 1.3 14.6 2.6z"/>
			<path id="&lt;Path&gt;" class="s19" d="m767.2 286.9q-0.5 2.1-1.2 4.8c-0.2 0.9-0.5 1.9-0.7 2.8-0.4 1.8-0.9 3.4-1.2 4.7-0.1 0.6 3.3 6.7 1.4 6.9-6.2 0.9-12.7-6-11.2-8.2 1.2-1.7 3-8.2 3.5-10.2q0.1-0.4 0.1-0.6z"/>
			<path id="&lt;Path&gt;" class="s25" d="m757.8 287.7q0.1-0.4 0.1-0.6l9.3-0.2q-0.5 2.1-1.2 4.8c-0.2 0.9-0.5 1.9-0.7 2.8-1.4-0.1-2.9-0.7-4.5-1.7-1.6-1.1-2.7-2.5-3.3-3.9q0.2-0.7 0.3-1.2z"/>
			<path id="&lt;Path&gt;" class="s19" d="m772.7 282.8c-1 5.6-7.8 10.9-14.6 6.2-6.9-4.7-3.9-13.3-1.1-16q2.7-2.8 6.5-3.2c10-0.2 10.2 7.4 9.2 13z"/>
			<path id="&lt;Path&gt;" class="s19" d="m774.7 281.4c-0.5 1.3-1.6 2.3-2.6 2-0.9-0.2-1.4-1.5-0.9-2.8 0.4-1.4 1.5-2.3 2.5-2.1 1 0.3 1.4 1.5 1 2.9z"/>
			<path id="&lt;Path&gt;" class="s22" d="m767.7 269.8q-8.9 8-13.1 8.4-4.2 0.4-4.7 4.7 1.5-10 5.6-11.9 4.2-2 12.2-1.2z"/>
			<path id="&lt;Path&gt;" class="s19" d="m756 280.1c0.3 1.5-0.4 2.8-1.6 3-1.1 0.2-2.4-0.8-2.7-2.3-0.4-1.4 0.3-2.8 1.5-3 1.2-0.1 2.4 0.9 2.8 2.3z"/>
			<path id="&lt;Path&gt;" class="s9" d="m755.9 320.8l28.8 3.3c0.9 0.1 1.5 0.7 1.4 1.4l-5.7 30.1c-0.1 0.6-0.9 1.1-1.8 1l-28.8-3.3c-0.9-0.1-1.5-0.7-1.4-1.4l5.7-30.1c0.1-0.6 0.9-1.1 1.8-1z"/>
			<path id="&lt;Path&gt;" class="s14" d="m777.2 323.2l-12.7-1.4 0.2-1c0-0.1 0.2-0.2 0.4-0.2l12 1.4c0.2 0 0.3 0.1 0.3 0.2z"/>
			<path id="&lt;Compound Path&gt;" fill-rule="evenodd" class="s14" d="m772.9 321.8c-0.1 0.8-1.1 1.4-2.1 1.2-1.1-0.1-1.8-0.8-1.7-1.7 0.2-0.8 1.2-1.3 2.2-1.2 1.1 0.1 1.8 0.9 1.6 1.7zm-0.6-0.1c0.1-0.5-0.4-1-1.1-1.1-0.7-0.1-1.3 0.3-1.4 0.8-0.1 0.6 0.4 1 1.1 1.1 0.6 0.1 1.3-0.3 1.4-0.8z"/>
			<path id="&lt;Path&gt;" class="s5" d="m777.4 322.2l-0.2 1c-0.1 0.7-0.9 1.2-1.8 1.1l-9.5-1.1c-0.9-0.1-1.5-0.8-1.4-1.4l12.7 1.4 0.2-1q0-0.1-0.2-0.2 0.2 0.1 0.2 0.2z"/>
			<path id="&lt;Path&gt;" class="s0" d="m764.9 287.5q-2.9-0.1-3-2h6.5q0 2.1-3.5 2z"/>
			<path id="&lt;Path&gt;" class="s19" d="m735.6 328.5l10.5 0.8q-0.2 6.9 0 7.7 17.9 3.9 25.3 5 3.4-1.5 4.8-2c1.4-0.5 5.1-1 5.9-1.1 0.8-0.1 0.5 0.6-0.2 0.8-0.7 0.3-2.5 1-3 1.8q1.5 0.1 2.3-0.2c0.7-0.2 1.8-0.8 1.8-1.1 0.1-0.3 0.2-1 0.5-1 0.1 0 0.1 0.3 0.2 0.5q0.2 0.4 0.3 0.7c0.1 0.4 0.3 1.1 0.3 1.3 0.1 0.7-0.4 2.4-0.4 3.1-0.2 1.1-0.6 1.6-1.3 1.9-1.3 0.3-2.6 0.5-4.5 0.7-3.6 0.3-6.9-0.5-8.3-0.6q-1.4-0.2-24.2-1.9-9-1-9.6-2.3-0.6-1.2-0.4-14.1z"/>
			<path id="&lt;Path&gt;" class="s1" d="m748.6 303.2c5.8 6.2 6.8 14.3 2.8 21.3l-5.5 11.7-11 1.4q0.8-25.1 3.6-30.1 2.9-5.3 6.2-6.5c0.9-0.4 2.3 0.5 3.9 2.2z"/>
		</g>
		<path id="&lt;Path&gt;" class="s12" d="m917.2 180.7h46.4v36.3h-46.4z"/>
		<path id="&lt;Path&gt;" class="s12" d="m971.8 180.7h90.6v5h-90.6z"/>
		<path id="&lt;Path&gt;" class="s12" d="m971.8 191.2h61.2v4.9h-61.2z"/>
		<path id="&lt;Path&gt;" class="s12" d="m971.8 201.6h81.4v5h-81.4z"/>
		<g id="&lt;Group&gt;">
			<path id="&lt;Path&gt;" class="s19" d="m1080.5 326.5c-4.9 4.7-10.1 11.9-11.5 11.4q-1.7-0.5-25-21.3c-1.2-1.2-9.6-6.5-10-7-0.4-0.5 3.1-4.1 3.2-2.8q0.1 1.3 5.3 2.6 1.8-0.2 1.3-0.9c-0.2-0.3-2.8-1.7-1.4-1.9 1.4-0.2 4.5 1.2 4.6 2.1 0.1 0.7 1.8 5.1 1.9 5.5l18.1 11.2q10.4-16.9 10.2-18.7c-0.2-1.7 14.5-6.8 16.4-5.6 5.9 3.8-8.1 20.6-13.1 25.4z"/>
			<path id="&lt;Path&gt;" class="s26" d="m1148.2 447.3q2.4 2.9 4.9 4.1c2.4 1.2 4.1 2.5 4.4 3.1 0.8 1.3-1.2 5.5-2 7.3-0.5 1.3-2.3 10-3.7 10-4.7 0.2-11.9 0.4-12.8-0.4-1.3-1 2.6-1.6 3.9-2.5 1.3-0.9 1.1-10.5 1-11.4q-0.1-0.9-3.3-3.3z"/>
			<path id="&lt;Path&gt;" class="s19" d="m1107.4 459.9q2.9 6.3 2.9 6.3c0.2 1 1.1 3.5 1.1 4.4 0 3.4-19.8-2.9-15.4-4.4 0.4-0.2 1.7-1.3 1.8-2.4q0.2-1.8-1.6-4.1z"/>
			<g id="&lt;Group&gt;">
				<path id="&lt;Path&gt;" class="s2" d="m1107.4 348.4l-8.5 40.9-3.2 20.2 13.5 51.8-12.6 1.2q-23.2-42.9-25.4-51.3c-0.9-3.4 3.8-39.3 3.8-57.6q0-0.2 1.4-11.5z"/>
				<path id="&lt;Path&gt;" class="s16" d="m1118.6 352.1l2.4 10.8 6.4 44.2 24.6 43.2q-3.5 6.3-8.5 7.2l-39.1-44.4-24.3-56.8 0.8-12.6z"/>
			</g>
			<path id="&lt;Path&gt;" class="s18" d="m1079.1 289.5c2.3-2.4 6.1-3.6 8.9-4.1 1-0.2 1.7 8.1 1.7 14.6q0 5.3-0.8 16.5l-17.5-1.4q0-17.2 7.7-25.6z"/>
			<path id="&lt;Path&gt;" class="s4" d="m1087.7 285.5c2.7-0.7 17.6-0.6 21.5-0.2 4.5 0.3 8.6 1.2 12.2 2 2.8 0.6 1.8 23.1 1 26.5q-1.3 5.1-0.2 42.7-17.5 9.8-49.3-2.2 6.7-53.5 7.1-55.4 1.5-8.3 7.7-13.4z"/>
			<path id="&lt;Path&gt;" class="s4" d="m1159.3 453.4q0.4 0.7-3.7 8.4-0.7 3.1-2.7 10.3h-15.4q-0.2-1.3 0-1.7c0.7-1.3 4.4-1.8 5.2-2q2.9-0.8 10.2-17 5.9 1.3 6.4 2z"/>
			<path id="&lt;Path&gt;" class="s4" d="m1080.2 471.7c-1.4-1.9 6.4-3.1 15.9-5.6q4.6 1.1 7 1.3 2.4 0.3 7.1-1.3l2.3 5.6z"/>
			<g id="&lt;Group&gt;">
				<path id="&lt;Path&gt;" class="s19" d="m1069 337.9c-0.1 0-0.3-0.2-0.5-0.3 0.6-5.2 0.5-10.3-1.6-12 0-0.1 0.5-0.9 1-1.6 2.4 1.4 3.6 5.3 3.1 11.7 0 0.4-0.2 0.8-0.3 1.3-0.7 0.6-1.4 1-1.7 0.9z"/>
			</g>
			<path id="&lt;Path&gt;" class="s19" d="m1104.9 274.9l2.1 10.5q-7.5 12.6-12 11.5-3.7-0.9-1.4-12 2-6 1.4-9-0.6-2.9 9.9-1z"/>
			<path id="&lt;Path&gt;" class="s4" d="m1095 275.9q-0.6-2.9 9.9-1l0.2 0.9q-0.5 0.9-1.1 1.4c-2.4 2-6.1 3.2-9.2 3.3 0.3-1.6 0.5-3.3 0.2-4.6z"/>
			<g id="&lt;Group&gt;">
				<path id="&lt;Path&gt;" class="s19" d="m1106.6 260c0.3-0.1 2.4 12-1.5 15.3-4 3.3-11.7 4.4-14.4 1.8-3.1-2.9-2.9-15.8 3.2-19.3q6.1-3.4 12.7 2.2z"/>
				<path id="&lt;Path&gt;" class="s22" d="m1096.2 251.4c4.8 0.7 7.9 3 9 4 2.2 0.2 5.1 1.1 8.1 5 3.7 4.8 1 10.2-3.3 12.8q-4.4 2.6-4.3 5.6l-0.7-1.6c-0.5-1.1-0.7-2.4-0.5-3.6 0.1-0.8 0.3-1.6 0.7-2.2 1-1.8-2.3-3-3.2-4.4-0.7-1.1-0.7-3.7-1.9-5.5l-1.3-1.5q-3.1-1.8-6.1-1.3c-3 0.5-2.5-8.3 3.5-7.3z"/>
				<ellipse id="&lt;Path&gt;" class="s19" cx="1104.2" cy="269.2" rx="2" ry="2.7"/>
			</g>
			<path id="&lt;Path&gt;" class="s0" d="m1092.5 274.2q-2.7-0.1-2.7-1.9l6 0.2q-0.1 1.9-3.3 1.7z"/>
			<g id="&lt;Group&gt;">
				<path id="&lt;Path&gt;" class="s22" d="m1047 300.1q2.1-1.7 4-3.5l26 19.8c1.6 1.3 1 3.7-1.3 5.5-2.2 1.9-5.4 2.4-7 1.1l-26-19.8q2.2-1.5 4.3-3.1z"/>
				<path id="&lt;Path&gt;" class="s27" d="m952.1 227.7c25.3-20.3 67-20.6 93-0.7 26.1 19.9 26.7 52.4 1.4 72.7-25.3 20.2-66.9 20.5-93 0.6-26.1-19.9-26.7-52.4-1.4-72.6z"/>
				<path id="&lt;Path&gt;" class="s28" d="m1046.6 299.1c-10.8 9-25.5 14.8-41.7 16l-71.2-56.5q0-0.1 0.1-0.3c1.7-12.9 9.4-24.2 20.7-32.3z"/>
				<path id="&lt;Path&gt;" class="s28" d="m998.8 212.2l65.7 52.3q0 2.3-0.3 4.7c-1 7.3-3.9 14.1-8.3 20.1l-88.8-70.5c9.4-4.2 20.3-6.5 31.7-6.6z"/>
				<path id="&lt;Compound Path&gt;" fill-rule="evenodd" class="s9" d="m946 223c28.6-22.9 75.7-23.2 105.1-0.8 29.5 22.5 30.2 59.3 1.6 82.2-28.6 22.9-75.7 23.2-105.2 0.7-29.4-22.5-30.1-59.3-1.5-82.1zm100.5 76.7c25.3-20.3 24.7-52.8-1.4-72.7-26-19.9-67.7-19.6-93 0.7-25.3 20.2-24.7 52.7 1.4 72.6 26.1 19.9 67.7 19.6 93-0.6z"/>
				<path id="&lt;Compound Path&gt;" fill-rule="evenodd" class="s29" d="m949.2 225.4c26.9-21.5 71.1-21.8 98.8-0.6 27.7 21.1 28.3 55.6 1.5 77.1-26.9 21.5-71.1 21.8-98.8 0.7-27.7-21.1-28.4-55.7-1.5-77.2zm97.3 74.3c25.3-20.3 24.7-52.8-1.4-72.7-26-19.9-67.7-19.6-93 0.7-25.3 20.2-24.7 52.7 1.4 72.6 26.1 19.9 67.7 19.6 93-0.6z"/>
				<path id="&lt;Path&gt;" class="s9" d="m1142.8 387.3l-75.1-56.8c-4.1-3.2-4.3-8.4-0.2-11.7l4-3.2c4.1-3.3 10.7-3.4 14.9-0.3l75.1 56.9c4.2 3.1 4.3 8.3 0.2 11.6l-4 3.3c-4 3.3-10.7 3.4-14.9 0.2z"/>
			</g>
			<path id="&lt;Path&gt;" class="s30" d="m1153.5 355.5c-0.3 2.1 0.7 4 0.7 5.7-0.1 1.7 1.3 5.2 0.4 5.6q-0.3 0.3-0.7 0c-0.5-0.3-1.2-3.9-1.4-4.1q-0.3-0.1-0.3 0.3 1 4.7 0.6 5.5c-0.3 0.6-1 0.5-1.3 0.1-0.3-0.4-0.8-4.7-1.1-4.7q-0.4-0.1-0.3 0.6 1.1 5.3 0.5 6c-0.5 0.6-1.2 0.2-1.4-0.5-0.3-0.7-1-5.8-1.4-6q-0.4-0.2-0.3 0.5 0.7 5.5 0.6 5.9c-0.2 0.5-0.8 0.6-1.3-0.1-0.5-0.8-1.4-4.7-1.5-5.1-0.1-0.4-0.9-3.8-1.1-3.9-0.2-0.1-0.6 1.9-1.5 3-0.3 0.4-0.8 1-1.4 1.2-0.6 0.2-1.2-0.4-0.9-0.9 0.3-0.3 0.6-0.7 0.6-1 0-0.3 0.3-1.1 0.5-1.8 0.1-0.7 0.5-1.8 0.6-2.3 0.2-0.5 1.5-2.2 2.2-3 0.6-0.7 1.3-1.4 1.8-2.3 0.3-0.5 0.5-1 0.8-1.5q-0.6-2.3-1.8-6.1-6.2-21.1-6.6-22.2l-16.9-17.7 8.6-9.2q17.7 19.7 18.3 20.9c0.7 1.3 4.6 32.5 5.1 36.2q0 0.1 0 0.3c-0.1 0.2-0.1 0.5-0.1 0.6z"/>
			<path id="&lt;Path&gt;" class="s4" d="m1144 310l-15 7.9q-8.6-9.9-13.1-13.4c-5.7-4.4 2.1-17.9 5.7-17.2q8.3 1.7 22.4 22.7z"/>
		</g>
		<path id="&lt;Path&gt;" class="s22" d="m424.2 470.8h750.9v3.5h-750.9z"/>
	</g>
</svg>