<svg version="1.2" xmlns="http://www.w3.org/2000/svg" viewBox="0 0 1440 550" width="1440" height="550">
	<title>2455039-ai</title>
	<defs>
		<clipPath clipPathUnits="userSpaceOnUse" id="cp1">
			<path d="m795.84 202.44l44.85 19.47-22.33 23.11-43.87-20.97z"/>
		</clipPath>
		<clipPath clipPathUnits="userSpaceOnUse" id="cp2">
			<path d="m795.84 202.44l44.85 19.47-22.33 23.11-43.87-20.97z"/>
		</clipPath>
	</defs>
	<style>
		.s0 { fill: #ffffff } 
		.s1 { fill: #f28b8b } 
		.s2 { fill: #1a6ca3 } 
		.s3 { fill: #ffb90b } 
		.s4 { fill: #d83b78 } 
		.s5 { fill: #c2326f } 
		.s6 { fill: #ea7d7d } 
		.s7 { fill: #d4f5f9 } 
		.s8 { fill: #ffd008 } 
		.s9 { fill: #222e42 } 
		.s10 { fill: #32c98c } 
		.s11 { fill: #26b57e } 
		.s12 { fill: #cee6ed } 
		.s13 { fill: #66283e } 
		.s14 { fill: #efb126 } 
		.s15 { fill: #eda229 } 
		.s16 { fill: #e6f1f4 } 
		.s17 { fill: #263649 } 
		.s18 { fill: none;stroke: #263649;stroke-linecap: round;stroke-linejoin: round;stroke-width: .7 } 
		.s19 { fill: #dd5875 } 
		.s20 { fill: none;stroke: #263649;stroke-linecap: round;stroke-linejoin: round;stroke-width: 1.3 } 
		.s21 { fill: #f89e3d } 
		.s22 { fill: #f9c478 } 
		.s23 { fill: #edd040 } 
		.s24 { fill: #f9a2d0 } 
		.s25 { fill: #77c1c6 } 
		.s26 { fill: none;stroke: #8a8e99;stroke-linecap: round;stroke-width: .4 } 
		.s27 { fill: none;stroke: #66283e;stroke-linecap: round;stroke-width: .4 } 
		.s28 { fill: #3e4a56 } 
		.s29 { fill: none;stroke: #66283e;stroke-width: .4 } 
		.s30 { fill: #303d47 } 
		.s31 { fill: #efe4e8 } 
		.s32 { fill: #e26060 } 
		.s33 { fill: #cec0c6 } 
		.s34 { fill: #dd6c6c } 
		.s35 { fill: #f4df87 } 
		.s36 { fill: #82606e } 
		.s37 { fill: #f4f2f4 } 
		.s38 { fill: #41abec } 
		.s39 { fill: none;stroke: #495e5a;stroke-linecap: round;stroke-linejoin: round;stroke-width: .4 } 
		.s40 { fill: #90e0ff } 
		.s41 { fill: #60d0ff } 
		.s42 { fill: #2a363d } 
		.s43 { fill: #d6d6d6 } 
		.s44 { fill: none;stroke: #ffffff;stroke-linecap: round;stroke-linejoin: round;stroke-width: .4 } 
		.s45 { fill: #fcfcfc } 
		.s46 { fill: #eae8ea } 
		.s47 { fill: #e8d4e0 } 
		.s48 { fill: #edeae4 } 
		.s49 { fill: none;stroke: #ffffff;stroke-width: .4 } 
		.s50 { fill: none;stroke: #e2869e;stroke-linecap: round;stroke-linejoin: round;stroke-width: 1.3 } 
		.s51 { fill: #e2869e } 
		.s52 { fill: #2f3e60 } 
		.s53 { fill: none;stroke: #d6d4b6;stroke-linecap: round;stroke-linejoin: round;stroke-width: .5 } 
		.s54 { fill: #a7d1cd } 
		.s55 { fill: #344968 } 
		.s56 { fill: #ffffff;stroke: #66283e;stroke-width: .4 } 
		.s57 { fill: none;stroke: #263649;stroke-linecap: round;stroke-linejoin: round;stroke-width: .8 } 
		.s58 { fill: none;stroke: #263649;stroke-linecap: round;stroke-linejoin: round;stroke-width: 1.6 } 
		.s59 { fill: #ffdc3f } 
		.s60 { fill: #f0fbfc } 
		.s61 { fill: #d84a5b } 
		.s62 { fill: none;stroke: #263649;stroke-linecap: round;stroke-linejoin: round;stroke-width: 1.2 } 
		.s63 { fill: #0caac3 } 
		.s64 { fill: none;stroke: #263649;stroke-linecap: round;stroke-linejoin: round;stroke-width: .6 } 
		.s65 { fill: #9eccc6 } 
		.s66 { fill: #bfe2de } 
		.s67 { fill: #7dada7 } 
	</style>
	<g id="BACKGROUND">
		<g id="&lt;Group&gt;">
			<path id="&lt;Path&gt;" class="s0" d="m-2.5-2.5h1445v555h-1445z"/>
		</g>
	</g>
	<g id="OBJECTS">
		<g id="&lt;Group&gt;">
			<path id="&lt;Path&gt;" class="s1" d="m755.9 92.3q-0.8-8.3-2.7-12.3-2.5-5.6-4.5-10.9l15.2-5.3q3.2 7.4 4.2 10.1 1.3 3.5 4.4 14.9-11.3 9.9-16.6 3.5z"/>
			<path id="&lt;Path&gt;" class="s1" d="m764.7 65.4c0.2 1.3-0.6 2.5-1.9 2.8-1.3 0.2-2.6-0.7-2.8-2q0-0.1 0-0.2-0.1-0.2-0.1-0.4-0.1-0.3-0.2-0.7-0.1-0.5-0.2-1-0.1-0.5-0.2-1.1-0.2-0.6-0.4-1.2-0.1-0.6-0.3-1.3-0.2-0.7-0.5-1.3-0.2-0.7-0.4-1.3-0.2-0.7-0.5-1.3-0.3-0.6-0.5-1.2-0.2-0.5-0.4-1-0.6-1.3-1.1-2.1v-0.1c-0.4-0.8-0.1-1.8 0.7-2.3 0.8-0.5 1.9-0.2 2.4 0.6q0.5 0.9 1.3 2.2 0.3 0.5 0.6 1.1 0.3 0.6 0.6 1.2 0.3 0.6 0.6 1.3 0.3 0.7 0.6 1.4 0.3 0.7 0.6 1.4 0.3 0.7 0.5 1.4 0.3 0.6 0.5 1.3 0.2 0.6 0.4 1.1 0.1 0.6 0.3 1 0.1 0.5 0.2 0.8 0.1 0.5 0.2 0.7 0 0.1 0 0.2z"/>
			<path id="&lt;Path&gt;" class="s1" d="m760.9 64.6c0.5 1.3 0 2.7-1.2 3.2-1.3 0.5-2.7 0-3.2-1.2l-6.4-14.8c-0.4-0.9-0.1-1.9 0.8-2.3 0.8-0.5 1.9-0.2 2.4 0.7l7.5 14.3q0.1 0.1 0.1 0.1z"/>
			<path id="&lt;Path&gt;" class="s1" d="m757.7 66.7q0 0.1 0 0.2c0.7 1.1 0.3 2.6-0.9 3.2-1.2 0.7-2.6 0.2-3.3-0.9q-0.1-0.3-0.4-0.7c-0.2-0.5-0.6-1.2-1-2-0.5-0.8-1-1.8-1.5-2.8-0.5-1-1-2.2-1.6-3.3q-0.3-0.8-0.7-1.6-0.4-0.9-0.8-1.7c-0.4-1-0.8-2-1.2-2.9q-0.6-1.8-1-3c-0.3-0.8 0.1-1.8 1-2.2 0.9-0.4 1.9 0 2.3 1l0.1 0.1q0.4 1 1.1 2.6c0.4 0.8 0.8 1.8 1.3 2.8q0.4 0.7 0.8 1.5 0.4 0.8 0.9 1.5c0.5 1.1 1.1 2.1 1.7 3.1 0.6 0.9 1.1 1.8 1.6 2.6 0.4 0.8 0.8 1.4 1.1 1.8q0.3 0.5 0.4 0.7z"/>
			<path id="&lt;Path&gt;" class="s1" d="m753.4 68.1q0.1 0.1 0.1 0.1c0.8 1.1 0.5 2.6-0.5 3.4-1.1 0.7-2.6 0.5-3.4-0.6q0-0.1-0.1-0.2-0.1-0.2-0.3-0.5c-0.2-0.2-0.4-0.5-0.5-0.8q-0.3-0.4-0.7-1-0.3-0.5-0.6-1.2c-0.3-0.4-0.5-0.9-0.8-1.3q-0.3-0.7-0.7-1.5c-0.2-0.5-0.4-1-0.7-1.5q-0.3-0.8-0.6-1.6c-0.3-0.5-0.4-1-0.6-1.5q-0.3-0.8-0.5-1.5c-0.2-0.4-0.3-0.9-0.4-1.3q-0.5-1.6-0.8-2.7c-0.2-0.9 0.2-1.8 1.1-2.1 0.9-0.4 2 0.1 2.3 1v0.2q0.4 1 0.9 2.4c0.2 0.4 0.3 0.8 0.5 1.2q0.3 0.6 0.6 1.3c0.2 0.4 0.3 0.9 0.6 1.4q0.3 0.7 0.7 1.4c0.2 0.4 0.5 0.9 0.7 1.3q0.4 0.7 0.8 1.3c0.2 0.5 0.5 0.8 0.7 1.2q0.4 0.6 0.7 1.1 0.4 0.4 0.6 0.8c0.2 0.3 0.4 0.4 0.5 0.6q0.2 0.3 0.3 0.4 0.1 0.1 0.1 0.2z"/>
			<path id="&lt;Path&gt;" class="s1" d="m754.2 72.2q0.1 0 0.2 0c1.3-0.1 2.4 1 2.4 2.3 0 1.3-1.1 2.4-2.4 2.4q0 0-0.1 0-0.4 0.1-1.1-0.1c-0.3 0-0.6-0.1-0.9-0.2q-0.2-0.1-0.3-0.1-0.1-0.1-0.2-0.1-0.3-0.2-0.5-0.3-0.3-0.1-0.6-0.3-0.2-0.1-0.5-0.3-0.5-0.3-1.1-0.7-0.5-0.4-1-0.8-0.5-0.5-1-0.9-0.9-0.9-1.8-1.8-0.5-0.4-0.8-0.9-0.4-0.4-0.7-0.7-0.9-1-1.4-1.7c-0.7-0.7-0.7-1.9 0.1-2.6 0.7-0.8 2-0.8 2.7 0l0.1 0.1q0.6 0.5 1.4 1.4 0.4 0.3 0.7 0.7 0.4 0.3 0.8 0.7 0.8 0.7 1.7 1.5 0.5 0.3 0.9 0.7 0.5 0.3 0.9 0.6 0.4 0.2 0.8 0.5 0.2 0.1 0.4 0.2 0.2 0 0.3 0.1 0.2 0.1 0.3 0.1 0.1 0.1 0.2 0.1 0 0 0.1 0c0.1 0 0.2 0.1 0.3 0.1q-0.1 0-0.2 0 0.1 0 0.1 0z"/>
			<g id="&lt;Group&gt;">
				<ellipse id="&lt;Path&gt;" class="s2" cx="888.4" cy="174.5" rx="39.3" ry="54.5"/>
			</g>
			<g id="&lt;Group&gt;">
				<ellipse id="&lt;Path&gt;" class="s2" cx="704.6" cy="181.9" rx="41.8" ry="57.9"/>
			</g>
			<g id="&lt;Group&gt;">
				<path id="&lt;Path&gt;" class="s3" d="m909.3 111.1q4.1 15.3-9.1 15.7c-6.3 0.1-17.8-5.6-12.7-21.9 0.3-0.8-2.2-1.7-2.1-2.8 0.1-5 0.5-13.1-2.9-20.9q0 0 0 0-0.6-2.1-0.6-4.4c0-8.7 7-15.7 15.7-15.7 5.6 0 11 2.5 14.2 7.3 3.1 4.9 5.6 13.3-3.7 25.7-8.4 11.1-7.3 19.7-1.8 19.7 0.9 0 3-0.7 3-2.7z"/>
			</g>
			<ellipse id="&lt;Path&gt;" class="s4" cx="871.7" cy="120.5" rx="14.8" ry="9.4"/>
			<path id="&lt;Path&gt;" class="s5" d="m873.8 118.3c16.2 1.6 20.7 3.2 27.4 8.5q-3.1 13.4-8.3 24.8c-4.3 9.7-8.8 17.2-11 20l-42.4-12.6 8.8-39.8q9.2-2.5 25.5-0.9z"/>
			<path id="&lt;Path&gt;" class="s6" d="m878.7 122.5c0 4.4-3.6 7.9-8 7.9-4.4 0-8-3.5-8-7.9v-3.9c0-4.4 3.6-8 8-8 4.4 0 8 3.6 8 8z"/>
			<path id="&lt;Path&gt;" class="s7" d="m861.3 119.2q9.1 8.1 18.1-0.9l5.7 0.9-18.8 39.8-6.8 4.6q-4.1-34 1.8-44.4z"/>
			<path id="&lt;Path&gt;" class="s4" d="m886 118.3l2.2 17.3-9.2 5.9 2.2 9.8-22.1 16.2q2.6-15.7 23.7-53.3z"/>
			<path id="&lt;Path&gt;" class="s4" d="m848.7 144l3.4-5.4-3.8-10.3 10.1-11.7 4.3 1.2q-5.4 8.8-2.1 48.5-8.8-2.3-11.9-22.3z"/>
			<g id="&lt;Group&gt;">
				<circle id="&lt;Path&gt;" class="s8" cx="877.2" cy="86.6" r="20.2"/>
			</g>
			<path id="&lt;Path&gt;" class="s1" d="m886 101.9c0 8.7-7.1 15.9-15.8 15.9-8.8 0-15.9-7.2-15.9-15.9v-9.2c0-8.8 7.1-15.9 15.9-15.9 8.7 0 15.8 7.1 15.8 15.9z"/>
			<path id="&lt;Path&gt;" class="s1" d="m892.8 96.2c0 2.5-2.1 4.6-4.6 4.6-2.5 0-4.6-2.1-4.6-4.6v-1.8c0-2.6 2.1-4.6 4.6-4.6 2.5 0 4.6 2 4.6 4.6z"/>
			<g id="&lt;Group&gt;">
				<path id="&lt;Path&gt;" class="s8" d="m849.6 85.6c0.3-10.7 9-19.3 19.8-19.3 10.7 0 19.4 8.6 19.7 19.3z"/>
			</g>
			<path id="&lt;Path&gt;" class="s9" d="m955.2 352.7q-28.4 59.1-73.8 32-26.8-12.2-36.5-35.7-0.2-0.5-0.4-1c-1.2-3.3-4.8-7.7-4.1-10q4.3-15.5 45.4-15.6z"/>
			<path id="&lt;Path&gt;" class="s9" d="m734.8 323.7l47.8 8.1-13 19.6q-18.4 32.5-38.7 18.1z"/>
			<g id="&lt;Group&gt;">
				<path id="&lt;Path&gt;" class="s6" d="m677.6 108.1q8.7-7.1 19.3-10.3l0.6 16.3q-3.2 0.5-16.5 7.6z"/>
				<path id="&lt;Path&gt;" class="s10" d="m722.8 136.6l-20 1.7-4.7-9.1q11.7-10 25.1-4.9z"/>
				<path id="&lt;Path&gt;" class="s6" d="m716.9 127c0.7 4.7-2.5 9-7.1 9.7-4.6 0.7-9-2.5-9.6-7.2l-0.7-4c-0.7-4.7 2.5-9 7.2-9.7 4.6-0.7 8.9 2.5 9.6 7.1z"/>
				<path id="&lt;Path&gt;" class="s11" d="m750.5 175.1l-31.1 10.4-0.2-1.2-27.7 8.8-9.8-28.3q-5.9-12 3.8-32.6l14.2-5.6 1.1 14.1 14 4 6.7-20.9 10.3-0.7q6.4 10.1 9.9 22c2.9 9.5 9.1 23.7 8.8 30z"/>
				<path id="&lt;Path&gt;" class="s12" d="m707 135q1.9-0.8 5.3 0.5 3-4.2 6.2-3.6 3.6 0.7 6 0.3l4.1 17-7.5 20.2-15.9-13.6-6.4-16.6q3.7-2.3 8.2-4.2z"/>
				<path id="&lt;Path&gt;" class="s13" d="m704.8 86.7c0 7.4-1.9 32.8-9.4 33.6-11.6 1.1-17.7-26.2-17.7-33.6 0-7.5 6.1-13.6 13.6-13.6 7.4 0 13.5 6.1 13.5 13.6z"/>
				<path id="&lt;Path&gt;" class="s13" d="m718.7 79.7c2.9 5.5 7.5 21.1-2.3 30.9-3.5 3.5-15.7-25.9-15.7-30.9 0-5 4-9 9-9 5 0 6.7 4.6 9 9z"/>
				<path id="&lt;Path&gt;" class="s14" d="m717.3 145.8l7.2 11.3-2.5 13.4-3.5 0.9-7.1-10.5 2.9-14.3z"/>
				<path id="&lt;Path&gt;" class="s15" d="m716.3 141.6c1.7-5.3 1.4-5.2 2.2-8.2l2.1 1q-1.1 5.6-3.1 8z"/>
				<path id="&lt;Path&gt;" class="s15" d="m707.3 137.6q0.7 1.6 6.2 4.6l-0.9 1.6q-2 0-6.1-3.2z"/>
				<path id="&lt;Path&gt;" class="s11" d="m682.2 158.1q-20.5 0.6-38.2-11.7-14.8-11.2 33.4-39.5 6.4 3.7 6.4 14.5l-13.3 11.1q14.7-0.8 15.4-0.2z"/>
				<path id="&lt;Path&gt;" class="s11" d="m727.9 123.6q4.9-0.5 28.9-10l-3.9-30.7q3.9-9.8 16.5-7.5c4.6 1.2 5.2 11.6 5.6 16.7 0.8 10.9 4.6 31.9-1.5 37.5q-4.8 4.4-33.1 17z"/>
				<path id="&lt;Path&gt;" class="s1" d="m722.2 104.2c1.4 9.3-5 17.8-14.2 19.2-9.2 1.4-17.8-5-19.2-14.2l-1.4-9.7c-1.4-9.2 5-17.8 14.2-19.1 9.2-1.4 17.8 4.9 19.2 14.1z"/>
				<path id="&lt;Path&gt;" class="s1" d="m724.3 94.4c0.7 2.6-0.8 5.3-3.4 6-2.6 0.7-5.3-0.8-6-3.4l-0.5-1.9c-0.7-2.6 0.9-5.2 3.4-5.9 2.6-0.8 5.3 0.8 6 3.4z"/>
				<path id="&lt;Path&gt;" class="s1" d="m694.2 104.6c0.7 2.6-0.8 5.2-3.4 5.9-2.6 0.7-5.2-0.8-5.9-3.4l-0.5-1.9c-0.7-2.5 0.8-5.2 3.4-5.9 2.6-0.7 5.2 0.8 5.9 3.4z"/>
				<path id="&lt;Path&gt;" class="s13" d="m706.3 84.4c-3.1 0.8-6.1 1-8.7 0.7q0 0.2 0 0.5c0 4.1-3.3 7.4-7.4 7.4-1.9 0 6.4 6.4 1.1 8.5q-5.3 2.1-10.3-10.3c-0.6-1.7-1-3.7-1-5.7 0-4.4 1.5-8.5 4.4-11.4 5-4.9 14.7-7.4 17.1-8.1 8.4-2.2 16.3 0.2 17.7 5.2 1.3 5.1-4.4 11-12.9 13.2z"/>
				<path id="&lt;Path&gt;" class="s10" d="m700.8 140.7q4.6 8.6 23.7 31-16.1 7-28.7-5.6l1.4-7.2-10.2-6.8q3.6-14.5 10.5-23.8c0 0 1.8 9.6 3.3 12.4z"/>
				<path id="&lt;Path&gt;" class="s10" d="m722.7 143.8q0.2-10.8-1.2-20 7.4 1 15.3 18.6l-4.5 7.6 3.6 4.7q-4.9 16.8-18.8 20.2c3.3-4.7 5.3-18.9 5.6-31.1z"/>
				<path id="&lt;Path&gt;" class="s16" d="m708.8 134.7l-3.1 10.4q-6.3-1-9.1-11.5-0.1-6.3 3.1-7 3.2 5.7 9.1 8.1z"/>
				<path id="&lt;Path&gt;" class="s16" d="m720.5 124.8q7.1 7.1 2.7 14.1-2.1-2.2-8.4-5.8 2.7-4.6 1.5-10.2 1.3-0.4 4.2 1.9z"/>
				<path id="&lt;Path&gt;" class="s14" d="m711.5 144l1.5-2.6 3.1-0.9 2.4 1.3-1.2 4-3 0.8z"/>
				<ellipse id="&lt;Path&gt;" class="s17" cx="698.9" cy="101.5" rx="1.9" ry="2.1"/>
				<ellipse id="&lt;Path&gt;" class="s17" cx="711.5" cy="98.9" rx="1.9" ry="2.1"/>
				<path id="&lt;Path&gt;" class="s18" d="m707.3 101q1.6 0.2 1.9 0.9 0.2 0.5-1 2.2"/>
				<path id="&lt;Path&gt;" class="s17" d="m711.1 107.1c-0.3 1.8-1.6 3.2-3.3 3.7q-0.2 0.1-0.4 0.1-0.8 0.2-1.6 0.1c-1.7-0.3-3.1-1.5-3.6-3.1q-0.1-0.2-0.2-0.5-0.1-0.8 0-1.7z"/>
				<path id="&lt;Path&gt;" class="s19" d="m707.4 110.9q-0.8 0.2-1.6 0.1c-1.7-0.3-3.1-1.5-3.6-3.1q0.6-0.2 1.3-0.2c1.9 0 3.5 1.4 3.9 3.2z"/>
				<path id="&lt;Path&gt;" class="s20" d="m696.1 94.8c0.8-0.6 1.9-1.2 3.3-1.2"/>
				<path id="&lt;Path&gt;" class="s20" d="m712.9 92.1c-0.8-0.3-1.9-0.6-3.1-0.4"/>
			</g>
			<g id="&lt;Group&gt;">
				<g id="&lt;Group&gt;">
					<path id="&lt;Path&gt;" class="s21" d="m935.6 245.2c0.6 3.4 0 16.8-0.5 19.8-7.4 43.4-66 77.1-137.2 77.1-72.3 0-131.7-34.8-137.5-79.2-0.3-2.4-1.1-22.3-0.4-25.8z"/>
				</g>
				<g id="&lt;Group&gt;">
					<ellipse id="&lt;Path&gt;" class="s22" cx="797.9" cy="239.7" rx="138" ry="89.3"/>
				</g>
			</g>
			<g id="&lt;Group&gt;">
				<path id="&lt;Path&gt;" class="s0" d="m788.9 177.4l12.7 4.2-8.9 11.6-13.9-5.3z"/>
			</g>
			<path id="&lt;Path&gt;" class="s10" d="m784 172.4l12.7 4.2-8.9 11.5-13.9-5.3z"/>
			<g id="&lt;Group&gt;">
				<g id="&lt;Group&gt;">
					<g id="&lt;Group&gt;">
						<path id="&lt;Path&gt;" class="s0" d="m835 160.7l37.3 10.9-31.6 37.6-43-18.1z"/>
					</g>
					<g id="&lt;Group&gt;">
						<path id="&lt;Path&gt;" class="s23" d="m841.1 169.1l-1.1 4.2c-3.1-0.4-5.4-1.9-5.4-3.7 0-1.4 1.5-2.7 3.6-3.3z"/>
						<path id="&lt;Path&gt;" class="s24" d="m841.1 169.1l3.8 3.7c-1 0.3-2.2 0.5-3.5 0.5q-0.7 0-1.4 0z"/>
						<path id="&lt;Path&gt;" class="s25" d="m848.3 169.6c0 1.4-1.4 2.6-3.4 3.2l-3.8-3.7-2.9-2.8c1-0.3 2.1-0.4 3.2-0.4q0.3 0 0.5 0c3.6 0.1 6.4 1.7 6.4 3.7z"/>
					</g>
					<path id="&lt;Path&gt;" class="s26" d="m840 201.6l-33.5-13.1"/>
					<path id="&lt;Path&gt;" class="s26" d="m841.9 199.8l-33.5-13.2"/>
					<path id="&lt;Path&gt;" class="s26" d="m843.9 198l-33.5-13.2"/>
					<path id="&lt;Path&gt;" class="s26" d="m845.8 196.2l-33.5-13.2"/>
					<path id="&lt;Path&gt;" class="s26" d="m847.7 194.4l-33.5-13.2"/>
					<path id="&lt;Path&gt;" class="s26" d="m849.6 192.5l-33.5-13.1"/>
					<path id="&lt;Path&gt;" class="s27" d=""/>
				</g>
				<path id="&lt;Path&gt;" class="s1" d="m890.6 187.8q-10.1 4.5-13.4 5.7-2.6 0.9-9.9 3l-5.2-14.3q5-1.7 10.6-3.2 4-1.1 10.5-5.4 7.8 0 7.4 14.2z"/>
				<path id="&lt;Path&gt;" class="s1" d="m868.8 196.2q-0.2 0.1-0.6 0.3-0.3 0.1-0.7 0.3-0.4 0.1-0.9 0.4-0.5 0.2-1.1 0.4-0.5 0.2-1.2 0.4-0.6 0.2-1.3 0.5-0.6 0.2-1.3 0.4-0.7 0.2-1.4 0.4-0.7 0.2-1.3 0.3-0.7 0.2-1.3 0.3-0.6 0.1-1.1 0.2-1.4 0.2-2.4 0.4c-0.9 0.1-1.8-0.5-1.9-1.4-0.1-0.9 0.4-1.7 1.3-1.9h0.1q0.8-0.2 2.1-0.5 0.5-0.1 1-0.3 0.6-0.2 1.2-0.4 0.6-0.1 1.2-0.4 0.6-0.2 1.2-0.4 0.6-0.3 1.2-0.5 0.6-0.3 1.2-0.5 0.6-0.3 1.1-0.5 0.5-0.3 0.9-0.5 0.5-0.2 0.8-0.4 0.4-0.2 0.6-0.3 0.3-0.1 0.4-0.2 0.1-0.1 0.1-0.1h0.1c1-0.6 2.4-0.3 3 0.8 0.7 1.1 0.3 2.5-0.8 3.1q-0.1 0-0.2 0.1z"/>
				<path id="&lt;Path&gt;" class="s1" d="m866 193.8l-14.9 3.1c-0.9 0.2-1.8-0.4-1.9-1.3-0.2-0.9 0.3-1.7 1.1-2l14.6-4.2c1.2-0.3 2.5 0.4 2.8 1.6 0.4 1.2-0.3 2.4-1.5 2.8q-0.1 0-0.2 0z"/>
				<path id="&lt;Path&gt;" class="s1" d="m865.7 190.2q-0.3 0-0.8 0.1-0.7 0.1-2 0.2c-0.8 0.1-1.8 0.3-2.8 0.5-1 0.1-2.1 0.3-3.2 0.5q-0.9 0.2-1.7 0.4-0.8 0.1-1.5 0.3c-1.1 0.2-2 0.5-2.8 0.7q-1.6 0.4-2.6 0.7l-0.1 0.1c-0.9 0.2-1.9-0.3-2.1-1.1-0.3-0.9 0.2-1.8 1-2.1q1.1-0.4 2.8-1c0.8-0.3 1.8-0.6 2.8-0.9q0.8-0.2 1.6-0.5 0.9-0.2 1.7-0.4c1.1-0.3 2.3-0.6 3.3-0.8 1.1-0.2 2.1-0.5 2.9-0.6 0.8-0.2 1.6-0.3 2.1-0.4q0.5-0.1 0.7-0.2c1.3-0.2 2.4 0.6 2.7 1.8 0.2 1.3-0.6 2.4-1.8 2.7q-0.1 0-0.2 0z"/>
				<path id="&lt;Path&gt;" class="s1" d="m864.2 186.3q-0.1 0-0.2 0-0.2 0-0.5 0c-0.2 0-0.4 0-0.7 0.1q-0.5 0-1 0-0.5 0.1-1.2 0.1c-0.4 0.1-0.8 0.1-1.3 0.2q-0.6 0.1-1.4 0.2c-0.4 0.1-0.9 0.2-1.4 0.3q-0.7 0.2-1.4 0.3c-0.5 0.1-1 0.3-1.4 0.4q-0.7 0.2-1.3 0.4c-0.4 0.1-0.8 0.2-1.1 0.4q-1.4 0.4-2.3 0.8h-0.1c-0.9 0.3-1.9-0.1-2.2-1-0.3-0.8 0.1-1.7 0.9-2.1q1-0.4 2.5-1c0.3-0.2 0.7-0.4 1.1-0.5q0.7-0.3 1.4-0.5c0.5-0.2 0.9-0.4 1.4-0.5q0.8-0.2 1.6-0.5c0.5-0.1 1-0.3 1.5-0.4q0.8-0.2 1.5-0.4c0.5-0.1 0.9-0.1 1.4-0.2q0.7-0.2 1.3-0.3 0.6-0.1 1.1-0.1c0.3-0.1 0.6-0.1 0.9-0.1q0.3-0.1 0.5-0.1 0.1 0 0.2 0c1.2-0.1 2.3 0.8 2.4 2.1 0.1 1.2-0.8 2.3-2 2.4q-0.1 0-0.2 0z"/>
				<path id="&lt;Path&gt;" class="s1" d="m867.5 184.3q0 0-0.1-0.1 0.1 0.1 0.2 0.1c-0.1 0-0.2-0.1-0.3-0.2q0 0-0.1 0 0 0-0.1-0.1-0.1 0-0.3-0.1-0.1-0.1-0.3-0.2-0.1-0.1-0.3-0.1-0.4-0.2-0.9-0.3-0.4-0.2-0.9-0.3-0.6-0.1-1.1-0.3-1.1-0.1-2.1-0.3-0.5-0.1-1-0.1-0.5-0.1-0.9-0.1-1.1-0.1-1.9-0.2h-0.1c-1-0.1-1.7-1-1.6-2 0-1 0.9-1.7 1.8-1.7q0.8 0 2 0.1 0.5 0 1 0 0.5 0 1.1 0.1 1.2 0.1 2.4 0.2 0.7 0.1 1.3 0.2 0.6 0.1 1.2 0.3 0.6 0.2 1.1 0.3 0.3 0.1 0.6 0.2 0.3 0.1 0.5 0.2 0.3 0.1 0.5 0.3 0.1 0 0.2 0.1 0.1 0 0.2 0.1c0.3 0.2 0.6 0.3 0.8 0.5q0.5 0.4 0.7 0.7 0.1 0.1 0.1 0.1c0.8 1 0.6 2.4-0.3 3.2-1 0.8-2.4 0.6-3.2-0.4q0 0-0.1-0.1z"/>
				<g id="&lt;Group&gt;">
					<path id="&lt;Path&gt;" class="s1" d="m822.9 164.4q0 0 0 0 0 0 0.1 0 0.1 0.1 0.2 0.1 0.1 0 0.2 0.1c0 0 0.1 0 0.1 0.1q0.1 0 0.3 0.1 0.1 0.1 0.3 0.2 0.1 0.1 0.2 0.1 0 0.1 0.1 0.1 0.3 0.3 0.6 0.6 0.2 0.1 0.3 0.3 0.2 0.1 0.4 0.3 0.1 0.2 0.3 0.3 0.1 0.2 0.3 0.4 0.1 0.2 0.3 0.4l0.1 0.1v0.1h0.1l0.1 0.2c0.1 0.2 0.3 0.5 0.4 0.6q0.2 0.3 0.3 0.6 0.2 0.5 0.4 1 0.1 0.5 0.3 0.9 0.1 0.4 0.2 0.7 0 0.2 0.1 0.3 0 0.2 0.1 0.3 0.1 0.2 0.2 0.4c0 0.1 0.1 0.1 0.1 0.2q0.1 0.1 0.1 0.2l0.2 0.2c0.6 0.8 0.4 1.9-0.4 2.5-0.7 0.6-1.7 0.5-2.4-0.1q-0.1-0.2-0.4-0.5c-0.1-0.1-0.3-0.3-0.4-0.5q-0.2-0.4-0.4-0.7-0.1-0.2-0.2-0.4-0.1-0.2-0.2-0.4-0.2-0.5-0.4-0.9-0.1-0.4-0.3-0.8-0.2-0.3-0.3-0.6-0.1-0.2-0.2-0.3c0-0.1 0 0-0.1-0.1l-0.1-0.2h-0.1v-0.1c0 0.1-0.1 0 0.1 0.1l-0.1-0.1q-0.1-0.1-0.3-0.2-0.1-0.2-0.2-0.3-0.2-0.1-0.3-0.2-0.1-0.2-0.2-0.3-0.1 0-0.2-0.1-0.3-0.2-0.4-0.3 0 0-0.1 0v-0.1q-0.1 0-0.1 0 0 0 0 0c0 0 0 0 0 0q0 0 0.1 0 0 0.1 0.1 0.1 0 0 0 0 0 0 0 0l-0.1-0.1c-1.2-0.2-2-1.5-1.7-2.7 0.3-1.2 1.5-1.9 2.7-1.6q0.1 0 0.2 0z"/>
					<path id="&lt;Path&gt;" class="s1" d="m808 173.3q-2.3-3.6-0.3-9.6c0.3-0.9 2.2-10.1 2.7-11h16.1l-2.1 12q7.5 13.7-16.4 8.6z"/>
					<g id="&lt;Group&gt;">
						<path id="&lt;Path&gt;" class="s28" d="m827.9 178.8l-9.2-21.7c-0.1-0.4 0.1-0.9 0.5-1.1 0.4-0.2 0.9 0 1 0.5l9.2 21.7q0.2 0.4 0.4 2.5-1.8-1.6-1.9-1.9z"/>
					</g>
					<path id="&lt;Path&gt;" class="s1" d="m815.8 183.6q0 0-0.1-0.1-0.1-0.1-0.4-0.4-0.5-0.4-1.2-1.3c-1-1.1-2.2-2.5-3.4-4.1-1.1-1.6-2.2-3.3-2.8-4.9q-0.3-0.6-0.4-1.1-0.1-0.3-0.1-0.5-0.1-0.3-0.1-0.5-0.1-0.5-0.1-0.8 0-0.2 0-0.3c0.1-1.2 1.1-2.2 2.3-2.1 1.1 0 2 0.9 2.1 1.9v0.6q0 0 0 0 0 0.1 0 0.2 0 0.1 0 0.2 0 0.1 0 0.2 0.1 0.3 0.2 0.7c0.4 1.1 1.2 2.7 2.1 4.3 0.9 1.5 1.9 3 2.8 4.1 0.4 0.5 0.7 1 1 1.2q0.1 0.2 0.3 0.4 0 0.1 0.1 0.1c0.6 0.6 0.5 1.6-0.1 2.2-0.7 0.6-1.6 0.6-2.2 0z"/>
					<path id="&lt;Path&gt;" class="s1" d="m816.4 172.2c0 0 0 0 0 0q-0.1-0.1 0 0 0 0 0 0.2c0.1 0.3 0.3 0.7 0.6 1.2q0.3 0.3 0.6 0.7 0.3 0.5 0.7 0.9 0.4 0.5 0.9 1 0.5 0.6 0.9 1.1c1.2 1.5 2.4 2.9 3.3 4q0.3 0.3 0.5 0.6 0.3 0.3 0.5 0.5 0.1 0.1 0.1 0.2 0.1 0 0.1 0 0.1 0.1 0.1 0.1l0.1 0.1c0.7 0.7 0.8 1.7 0.1 2.4-0.6 0.6-1.5 0.7-2.2 0.2q-0.1-0.1-0.2-0.2-0.1 0-0.2-0.1-0.1-0.1-0.2-0.2-0.3-0.3-0.6-0.6-0.4-0.3-0.7-0.7c-1-1-2.3-2.4-3.6-3.7q-0.4-0.5-0.9-0.9-0.2-0.3-0.5-0.5-0.2-0.2-0.4-0.5-0.6-0.5-1-1-0.5-0.5-0.9-1c-0.5-0.6-0.8-1.2-1.1-1.7q-0.2-0.4-0.3-0.6c0-0.1 0-0.2-0.1-0.3q0 0 0 0c-0.3-1.2 0.4-2.5 1.6-2.8 1.2-0.3 2.4 0.4 2.8 1.6z"/>
					<path id="&lt;Path&gt;" class="s1" d="m818.9 170.3l10.8 11.5c0.6 0.7 0.6 1.7-0.1 2.4-0.6 0.6-1.6 0.6-2.2 0l-11.7-10.7c-0.9-0.9-1-2.3-0.1-3.2 0.8-0.9 2.3-1 3.2-0.2q0 0.1 0.1 0.2z"/>
					<path id="&lt;Path&gt;" class="s1" d="m822.9 169.2q0.1 0.1 0.3 0.3 0.2 0.3 0.7 0.8 0.4 0.5 1 1.2c0.4 0.4 0.8 0.8 1.3 1.2q0.3 0.3 0.6 0.6 0.3 0.3 0.7 0.6 0.6 0.5 1.1 1 0.7 0.4 1.2 0.7l0.2 0.2c0.7 0.5 0.9 1.5 0.4 2.3-0.5 0.7-1.4 0.9-2.1 0.5q-0.2-0.1-0.5-0.2-0.4-0.2-1.1-0.6-0.7-0.4-1.5-0.9-0.4-0.3-0.8-0.6-0.4-0.3-0.8-0.6c-0.5-0.4-1-0.8-1.5-1.2q-0.7-0.6-1.3-1.1c-0.4-0.4-0.7-0.6-0.9-0.9q-0.2-0.1-0.3-0.3c-0.9-0.8-1-2.2-0.1-3.1 0.9-1 2.3-1 3.2-0.1q0.1 0.1 0.2 0.2z"/>
				</g>
				<path id="&lt;Path&gt;" class="s29" d=""/>
				<path id="&lt;Path&gt;" class="s5" d="m912.9 177l-23.4 11.3c-0.4-2.1-0.9-4.2-1.8-6.1-1.6-3.4-4-6.6-6.7-9.2 3.7-2.7 10.5-7 17.8-8.8q-4.4-8.4-5.9-12.6-3.4-20.3 6.9-25.9l1.4 1.1 15.1 30.5q9.3 13.3-3.4 19.7z"/>
				<path id="&lt;Path&gt;" class="s5" d="m845.4 141.2l-17.5 7.9-1.4 8.6c-1.4-0.7-2.8-1.3-4.3-1.7-1.9-0.5-4-0.5-6-0.4-2.3 0.1-4.7 0.3-7.1 0.9l1.3-9.7q1.6-6 7.3-9.3 15.9-12.4 30.6-18.3 1.8 1.8-2.9 22z"/>
			</g>
			<g id="&lt;Group&gt;">
				<path id="&lt;Path&gt;" class="s30" d="m770.2 176.6l29.9-9.3q0.2 1.1 0.2 1.4 0 0.3-0.6 0.9l-12.1 13.2q-0.7 0.7-1 0.7-0.4 0.1-1.4-0.3l-14.5-4.8q-0.4-0.2-0.5-0.4 0-0.3 0-1.4z"/>
				<path id="&lt;Path&gt;" class="s28" d="m770.6 176.1l15-12q0.6-0.5 0.9-0.5 0.3-0.1 1.2 0.1l11.4 3q0.9 0.2 1 0.6 0 0.3-0.5 0.7l-12.4 13.3q-0.7 0.7-1 0.8-0.3 0.1-1.4-0.3l-14.2-4.7q-0.4-0.2-0.4-0.5 0-0.2 0.4-0.5z"/>
				<path id="&lt;Path&gt;" class="s25" d="m774.2 175.3l11.1-9.1q0.5-0.3 0.7-0.4 0.2 0 0.9 0.1l8.7 2.4q0.6 0.2 0.7 0.4 0.1 0.2-0.3 0.5l-9.3 10q-0.5 0.5-0.8 0.6-0.2 0.1-1.1-0.2l-10.5-3.6q-0.3-0.1-0.4-0.3 0-0.2 0.3-0.4z"/>
				<path id="&lt;Path&gt;" class="s31" d="m792.9 166.2c0 0.3-0.4 0.5-0.9 0.5-0.5 0-0.9-0.2-0.9-0.5 0-0.3 0.4-0.6 0.9-0.6 0.5 0 0.9 0.3 0.9 0.6z"/>
			</g>
			<g id="&lt;Group&gt;">
				<g id="&lt;Group&gt;">
					<path id="&lt;Path&gt;" class="s32" d="m852.1 241.5c-0.4 0-0.8-0.2-1.1-0.5-0.6-0.7-0.5-1.7 0.2-2.3l1.6-1.4c0.6-0.6 1.6-0.5 2.2 0.1 0.6 0.7 0.5 1.7-0.1 2.3l-1.6 1.4c-0.4 0.3-0.8 0.4-1.2 0.4z"/>
				</g>
				<g id="&lt;Group&gt;">
					<path id="&lt;Path&gt;" class="s33" d="m854.2 240.3l-0.9 0.8c-0.4 0.3-0.8 0.4-1.2 0.4-0.4 0-0.8-0.2-1.1-0.5-0.6-0.7-0.5-1.7 0.2-2.3l1-0.9c0.6 0.1 1.1 0.4 1.5 0.8 0.4 0.5 0.5 1.1 0.5 1.7z"/>
				</g>
				<path id="&lt;Path&gt;" class="s34" d="m852.9 241.4l-16.6 14.8q-0.1 0.1-0.3 0.2-0.1 0-0.2 0.1l-3.9 1.8c-0.1 0-0.3 0-0.3-0.1q0-0.1 0-0.2l2.3-3.7q0.1-0.1 0.2-0.3 0.1 0 0.2-0.1l16.5-14.9c0.6-0.6 1.2-0.1 1.8 0.6 0.6 0.6 1 1.2 0.3 1.8z"/>
				<path id="&lt;Path&gt;" class="s35" d="m852.9 241.4l-16.6 14.8q-0.1 0.1-0.3 0.2-0.1-0.2-0.2-0.4c-0.4-0.8-1-1.5-1.7-1.9q0 0 0-0.1 0.1 0 0.2-0.1l16.5-14.9c0.6-0.6 1.4-0.2 2 0.5 0.6 0.6 0.8 1.3 0.1 1.9z"/>
				<path id="&lt;Path&gt;" class="s36" d="m833.3 257.6l-1.4 0.7c-0.1 0-0.3 0-0.3-0.1q0-0.1 0-0.2l0.8-1.2c0.3 0.1 0.6 0.4 0.8 0.6q0.1 0.1 0.1 0.2z"/>
			</g>
			<g id="&lt;Group&gt;">
				<g id="&lt;Group&gt;">
					<path id="&lt;Path&gt;" class="s37" d="m799.8 269.9c-0.4 0-0.7-0.2-0.9-0.4-0.6-0.5-0.6-1.3-0.1-1.9l1.3-1.3c0.5-0.5 1.3-0.5 1.8 0 0.6 0.5 0.6 1.4 0.1 1.9l-1.3 1.3c-0.2 0.2-0.6 0.4-0.9 0.4z"/>
				</g>
				<path id="&lt;Path&gt;" class="s38" d="m801.5 271.4l-7.2 7.4q-0.1 0.2-0.4 0.2-0.2 0-0.4-0.2c-0.2-0.2-0.2-0.6 0-0.9l7.1-7.3c0.2-0.3 0.2-0.6 0.1-0.8q0 0.1-0.1 0.2l-7.3 7.6c-0.1 0.1-0.3 0.1-0.3 0-0.1-0.5-0.4-0.8-0.7-1.3-0.2-0.3-0.7-0.5-1.1-0.7-0.2-0.2-0.4-0.6-0.2-0.9 1.1-1.1 7-7.1 7.5-7.5q0.3-0.3 0.4-0.3c0.8-0.2 2.7 2 2.8 2.2 0.3 0.5 0.5 1.6-0.2 2.3z"/>
				<path id="&lt;Path&gt;" class="s39" d="m780.4 288.5l-0.9 0.9"/>
				<path id="&lt;Path&gt;" class="s40" d="m785.3 285.7l-0.7 0.7q-0.2 0.2-0.3 0.3-0.1 0-0.2 0.1l-3.8 2.1c-0.1 0-0.2 0-0.3-0.1q0-0.1 0-0.2l2-3.8q0.1-0.2 0.2-0.3 0.1-0.1 0.1-0.2l0.4-0.4c0.9 0.5 1.8 1.2 2.6 1.8z"/>
				<path id="&lt;Path&gt;" class="s41" d="m793 277.6l-8.4 8.8q-0.2 0.2-0.3 0.3-0.2-0.2-0.3-0.5c-0.5-0.7-1.1-1.3-1.8-1.7q0 0 0 0 0.1-0.1 0.1-0.2l8.8-9.3c0.8 0.3 1.4 0.9 1.7 1.7q0.2 0.4 0.2 0.9z"/>
			</g>
			<path id="&lt;Path&gt;" class="s24" d="m817.3 312.5l-19.2 8.5-11.6-27.2 18.5-6.4z"/>
			<g id="&lt;Group&gt;">
				<path id="&lt;Path&gt;" class="s0" d="m786.5 313.9l13.3-5.5 7.1 13.2-13.9 5.9z"/>
			</g>
			<g id="&lt;Group&gt;">
				<path id="&lt;Path&gt;" class="s30" d="m841.4 299.4c0.4 0.7-0.1 2.4-0.9 2.8l-17 6.6c-0.7 0.4-1.7 0.1-2.1-0.6l-13.3-26.8c-0.9-1.7 0-3.1 0.7-3.5z"/>
				<path id="&lt;Path&gt;" class="s28" d="m841.2 299c0.4 0.8 0.1 1.8-0.7 2.2l-16.3 6.2c-0.8 0.4-1.7 0.1-2.1-0.6l-13.6-27c-0.4-0.8-0.1-1.7 0.7-2.2l14.9-4.9c0.8-0.4 1.7-0.1 2.1 0.6z"/>
				<path id="&lt;Path&gt;" class="s25" d="m837.3 296c0.4 0.6 0.1 1.3-0.5 1.7l-12.9 5c-0.6 0.3-1.4 0-1.7-0.6l-10.8-21.3c-0.3-0.6-0.1-1.4 0.5-1.7l11.8-4c0.6-0.3 1.4-0.1 1.7 0.6z"/>
				<path id="&lt;Path&gt;" class="s42" d="m836.8 297.7l-12.9 5c-0.6 0.3-1.4 0-1.7-0.6l-0.9-1.9 15.2-5.6 0.8 1.4c0.4 0.6 0.1 1.3-0.5 1.7z"/>
				<ellipse id="&lt;Path&gt;" class="s43" cx="831.7" cy="302.1" rx="1.6" ry="1.5"/>
				<ellipse id="&lt;Path&gt;" class="s31" cx="831.7" cy="302.1" rx="1.3" ry="1.2"/>
				<path id="&lt;Path&gt;" class="s44" d="m826.2 281.8q2.8 5 1.4 5.6c-0.7 0.2-1.7-1.2-2.7-0.7-1.3 0.7 1 4.8 0 5.6-1 0.7-2.7-2.5-3.9-2q-1.8 0.7 0 7.5"/>
				<path id="&lt;Path&gt;" class="s45" d="m825.6 280.5l1.6 1-1.9 0.9z"/>
			</g>
			<g id="&lt;Group&gt;">
				<g id="&lt;Group&gt;">
					<path id="&lt;Path&gt;" class="s46" d="m693.4 241.5c0 4.2-5.2 7.6-11.5 7.6-6.3 0-11.5-3.4-11.5-7.6 0-0.2 0-19.3 0-19.3q0-0.7 0.2-1.3c0.9-3.6 5.6-6.4 11.3-6.4 5.7 0 10.4 2.8 11.3 6.4q0.2 0.6 0.2 1.3c0 0 0 19.1 0 19.3z"/>
					<ellipse id="&lt;Path&gt;" class="s37" cx="681.9" cy="222.2" rx="11.5" ry="7.6"/>
					<path id="&lt;Path&gt;" class="s47" d="m691.9 222.2q0 0.8-0.4 1.6c-1.1 2.8-5 4.8-9.6 4.8-3.4 0-6.4-1.1-8.2-2.8-1.1-1-1.8-2.3-1.8-3.6 0-3.5 4.5-6.4 10-6.4 5.5 0 10 2.9 10 6.4z"/>
					<path id="&lt;Path&gt;" class="s13" d="m691.5 223.8c-1.1 2.8-5 4.8-9.6 4.8-3.4 0-6.4-1.1-8.2-2.8q0-0.2 0-0.4c0-3.3 4.1-6 9.1-6 4.2 0 7.7 1.8 8.7 4.4z"/>
				</g>
				<g id="&lt;Group&gt;">
					<path id="&lt;Path&gt;" class="s37" d="m670.7 245.7c-1 0-1.6-0.3-1.6-0.4l-0.7-0.3-0.4-10.6 5.7-5c0.5-0.5 1.4-0.4 1.9 0.2 0.5 0.5 0.5 1.4-0.1 1.9l-4.7 4.1 0.3 7.3c0.7-0.1 1.7-0.8 2.8-2.5 0.5-0.6 1.3-0.8 1.9-0.3 0.7 0.4 0.8 1.3 0.4 1.9-2.1 3.1-4.1 3.7-5.5 3.7z"/>
				</g>
			</g>
			<g id="&lt;Group&gt;">
				<path id="&lt;Path&gt;" class="s48" d="m801.6 215.8l43.3 17-25 26-45.4-20.3z"/>
				<g id="&lt;Group&gt;">
					<g id="&lt;Group&gt;">
						<path id="&lt;Path&gt;" class="s0" d="m795.1 200.7l49.1 20.9-25.1 26-47.9-23.3z"/>
					</g>
					<path id="&lt;Path&gt;" class="s25" d="m795.8 202.4l44.9 19.5-22.3 23.1-43.9-21z"/>
					<g id="&lt;Clip Group&gt;" clip-path="url(#cp1)">
						<g id="&lt;Group&gt;">
							<path id="&lt;Path&gt;" class="s49" d="m815.9 245l23.2-24.4"/>
							<path id="&lt;Path&gt;" class="s49" d="m813.9 243.8l23.1-24.4"/>
							<path id="&lt;Path&gt;" class="s49" d="m811.8 242.7l23.2-24.5"/>
							<path id="&lt;Path&gt;" class="s49" d="m809.7 241.5l23.2-24.5"/>
							<path id="&lt;Path&gt;" class="s49" d="m807.7 240.3l23.1-24.4"/>
							<path id="&lt;Path&gt;" class="s49" d="m805.6 239.1l23.2-24.4"/>
							<path id="&lt;Path&gt;" class="s49" d="m803.3 238.2l23.4-24.7"/>
							<path id="&lt;Path&gt;" class="s49" d="m801 237.2l23.6-24.9"/>
							<path id="&lt;Path&gt;" class="s49" d="m798.7 236.3l23.9-25.2"/>
							<path id="&lt;Path&gt;" class="s49" d="m796.4 235.3l24.1-25.4"/>
							<path id="&lt;Path&gt;" class="s49" d="m794.5 233.9l23.9-25.1"/>
							<path id="&lt;Path&gt;" class="s49" d="m792.4 232.8l24-25.2"/>
							<path id="&lt;Path&gt;" class="s49" d="m790 231.9l24.3-25.5"/>
							<path id="&lt;Path&gt;" class="s49" d="m788.1 230.6l24.1-25.4"/>
							<path id="&lt;Path&gt;" class="s49" d="m785.7 229.7l24.5-25.7"/>
							<path id="&lt;Path&gt;" class="s49" d="m782.9 229.3l25.2-26.5"/>
							<path id="&lt;Path&gt;" class="s49" d="m780.5 228.4l25.5-26.7"/>
							<path id="&lt;Path&gt;" class="s49" d="m778.4 227.3l25.6-26.8"/>
							<path id="&lt;Path&gt;" class="s49" d="m776.1 226.4l25.8-27.1"/>
						</g>
					</g>
					<g id="&lt;Clip Group&gt;" clip-path="url(#cp2)">
						<g id="&lt;Group&gt;">
							<path id="&lt;Path&gt;" class="s49" d="m774.9 221.8l45.6 21.2"/>
							<path id="&lt;Path&gt;" class="s49" d="m777.5 220l45.6 21.3"/>
							<path id="&lt;Path&gt;" class="s49" d="m779.5 217.8l45.5 21.2"/>
							<path id="&lt;Path&gt;" class="s49" d="m781.5 215.6l45.6 21.2"/>
							<path id="&lt;Path&gt;" class="s49" d="m783.4 213.5l45.5 21.2"/>
							<path id="&lt;Path&gt;" class="s49" d="m785.7 211.6l45.5 21.2"/>
							<path id="&lt;Path&gt;" class="s49" d="m787.8 209.6l45.5 21.3"/>
							<path id="&lt;Path&gt;" class="s49" d="m789.9 207.5l45.5 21.2"/>
							<path id="&lt;Path&gt;" class="s49" d="m792.2 205.6l45.5 21.2"/>
							<path id="&lt;Path&gt;" class="s49" d="m794.3 203.6l45.5 21.2"/>
						</g>
					</g>
				</g>
				<g id="&lt;Group&gt;">
					<path id="&lt;Path&gt;" class="s50" d="m782.2 223.4l15.7-8.2 0.6 12.7 12.6-8.8 0.2 9.4 7.5-5.8-1.1 5.8 11.5-5.8"/>
					<path id="&lt;Path&gt;" class="s51" d="m832.5 221l-3.1 4.2-3-4.2z"/>
				</g>
			</g>
			<path id="&lt;Path&gt;" class="s24" d="m712 172.8l40.4 18.7-23 22.9-40.8-23.6z"/>
			<g id="&lt;Group&gt;">
				<path id="&lt;Path&gt;" class="s0" d="m731.2 197.9l-9 19-37.7-10.3 12.1-16.9z"/>
			</g>
			<g id="&lt;Group&gt;">
				<path id="&lt;Path&gt;" class="s9" d="m710.6 199.8c17.5 0 24.5 5.2 24.2 17.6-0.3 12.5-12.1 35.6-26 35.6-20.2 0-23.2-16.1-22.9-28.5 0.3-12.4 7.1-24.7 24.7-24.7z"/>
				<path id="&lt;Path&gt;" class="s6" d="m717.1 254.1l-5.1 17-19.1-6.7q1.1-13.5 6.4-22.9z"/>
				<path id="&lt;Path&gt;" class="s10" d="m710.5 286.7l33.8-38.2 30.2 10.8-32.1 42.5z"/>
				<path id="&lt;Path&gt;" class="s52" d="m672.1 290q-30.7 16.8-24-5.6 7.4-24.8 33-24.8z"/>
				<g id="&lt;Group&gt;">
					<g id="&lt;Group&gt;">
						<path id="&lt;Path&gt;" class="s0" d="m730.6 247.9l37 13.5-35.5 42.7-39.7-17.4z"/>
					</g>
					<path id="&lt;Path&gt;" class="s53" d="m730.7 252.8l30 11.4"/>
					<path id="&lt;Path&gt;" class="s53" d="m728.5 255l30.3 11.6"/>
					<path id="&lt;Path&gt;" class="s53" d="m726.4 257.2l30.4 11.8"/>
					<path id="&lt;Path&gt;" class="s53" d="m724.3 259.4l30.6 11.8"/>
					<path id="&lt;Path&gt;" class="s53" d="m722.2 261.6l30.7 11.9"/>
					<path id="&lt;Path&gt;" class="s53" d="m720.1 263.8l30.8 12"/>
					<path id="&lt;Path&gt;" class="s53" d="m718 266l31 12.1"/>
					<path id="&lt;Path&gt;" class="s53" d="m715.9 268.3l31.2 12"/>
					<path id="&lt;Path&gt;" class="s53" d="m713.8 270.5l31.3 12.1"/>
					<path id="&lt;Path&gt;" class="s53" d="m711.7 272.7l31.3 12"/>
					<path id="&lt;Path&gt;" class="s53" d="m709.6 274.9l31.5 12.3"/>
					<path id="&lt;Path&gt;" class="s53" d="m707.5 277.1l31.8 12.2"/>
					<path id="&lt;Path&gt;" class="s53" d="m705.4 279.3l31.9 12.4"/>
					<path id="&lt;Path&gt;" class="s53" d="m703.3 281.5l32 12.5"/>
					<path id="&lt;Path&gt;" class="s53" d="m701.2 283.7l32 12.5"/>
					<path id="&lt;Path&gt;" class="s53" d="m699.1 285.9l32.2 12.7"/>
				</g>
				<path id="&lt;Path&gt;" class="s54" d="m677.2 262l5.8-5.6 2.9-2.8c0 0 3.4-0.7 8.3-0.6 7.2 0.2 17.7 2.3 25.8 11.3q5.1 7.3 3.7 12.7z"/>
				<path id="&lt;Path&gt;" class="s52" d="m659.9 297.7c1.2-9.1 3.3-16.7 5.6-22.7q1.3-3.7 2.7-6.5c3-6.4 8.9-9.7 14.2-9.1 15.4 1.7 46.4 8.4 52.4 34.1q-4.3 28.9 6 56.2 12.6 33.4-64.4 32.5-22.6-38.6-16.5-84.5z"/>
				<g id="&lt;Group&gt;">
					<path id="&lt;Path&gt;" class="s1" d="m770.1 267.8q2.7 9.6-1.8 17.2l-16.1-0.6 0.4-9.2q-6.5-14.5 17.5-7.4z"/>
					<path id="&lt;Path&gt;" class="s1" d="m770.1 262.9q0 0.1 0.1 0.3 0.1 0.2 0.1 0.4 0.1 0.1 0.1 0.2 0.1 0.2 0.1 0.4 0.1 0.3 0.2 0.8 0.1 0.4 0.1 0.8 0.1 0.2 0.1 0.4 0 0.2 0 0.4c0 0.3 0 0.6 0 0.9q0 0.4 0 0.8 0 0.4 0 0.8-0.1 0.8-0.2 1.4 0 0.7-0.1 1.2c-0.1 1.3-1.2 2.2-2.5 2.1-1.2-0.2-2.1-1.3-2-2.5q0-0.2 0-0.4 0.2-0.5 0.4-1.2c0.1-0.3 0.2-0.8 0.3-1.2q0-0.3 0.1-0.6 0.1-0.4 0.1-0.7c0.1-0.2 0.1-0.4 0.1-0.6q0.1-0.2 0.1-0.3 0-0.2 0-0.3c0-0.2 0-0.4 0-0.6q0-0.2 0-0.4 0-0.1 0-0.2-0.1-0.1-0.1-0.2 0-0.2-0.1-0.4 0-0.2 0-0.3c-0.2-0.9 0.3-1.8 1.2-2 0.8-0.2 1.6 0.3 1.9 1z"/>
					<path id="&lt;Path&gt;" class="s1" d="m762.7 268.9q0 0 0-0.1 0-0.1 0.1-0.3 0-0.4 0.1-1.2c0.1-1 0.1-2.3 0-3.5q-0.1-1-0.3-1.8 0-0.4-0.2-0.8 0-0.1-0.1-0.3 0-0.1-0.1-0.3-0.1-0.2-0.2-0.4-0.1-0.2-0.2-0.3-0.1-0.1-0.1-0.1-0.1 0-0.1 0l-0.2-0.3c-0.6-0.7-0.5-1.8 0.2-2.4 0.6-0.5 1.5-0.6 2.1 0q0.1 0 0.2 0.1c0.1 0 0.2 0.2 0.4 0.3q0.2 0.2 0.5 0.6 0.3 0.3 0.6 0.8 0.1 0.2 0.2 0.4 0.2 0.3 0.3 0.5 0.2 0.6 0.4 1.1 0.4 1.1 0.6 2.3c0.3 1.6 0.4 3.1 0.4 4.2q0.1 0.9 0 1.4 0 0.3 0 0.4 0 0.1 0 0.2c0 1.3-1.1 2.3-2.4 2.2-1.3-0.1-2.3-1.1-2.2-2.4q0-0.2 0-0.3z"/>
					<path id="&lt;Path&gt;" class="s1" d="m758.7 268.4q0 0 0-0.1 0-0.1 0.1-0.3 0-0.4 0-1.2c0-1-0.1-2.3-0.4-3.6q-0.1-0.4-0.3-0.8-0.1-0.5-0.3-0.8-0.3-0.8-0.7-1.2-0.1-0.2-0.3-0.4-0.2-0.1-0.3-0.2-0.1-0.1-0.2-0.1 0 0 0-0.1l-0.3-0.1c-0.8-0.5-1-1.6-0.5-2.4 0.5-0.7 1.4-0.9 2.2-0.6q0 0 0.1 0.1 0.2 0 0.5 0.2 0.3 0.2 0.7 0.4 0.4 0.3 0.8 0.7c0.5 0.5 1 1.2 1.4 1.9q0.3 0.5 0.6 1.1 0.2 0.6 0.4 1.2c0.6 1.6 0.9 3.2 1 4.4q0.1 0.9 0.1 1.4 0.1 0.3 0.1 0.5 0 0.1 0 0.1v0.1c0 1.2-1 2.3-2.3 2.3-1.3 0.1-2.3-0.9-2.4-2.2q0-0.1 0-0.3z"/>
					<path id="&lt;Path&gt;" class="s1" d="m754.1 269q0 0 0-0.1 0-0.1 0-0.3 0.1-0.4 0.2-1.2c0.1-0.5 0.1-1 0.1-1.6q0-0.5-0.1-0.9c0-0.2-0.1-0.5-0.1-0.7-0.1-0.1-0.2-0.3-0.2-0.3 0-0.1 0-0.1 0-0.1-0.1 0-0.1-0.1-0.3-0.1q-0.1 0-0.2 0c-0.1 0.1-0.2 0.1-0.3 0.1q-0.3 0.1-0.5 0.2-0.3 0.1-0.5 0.2-0.2 0.1-0.4 0.2h-0.1c-0.8 0.4-1.9 0.1-2.3-0.8-0.4-0.8-0.1-1.7 0.6-2.2q0.2-0.1 0.5-0.3 0.3-0.1 0.7-0.3 0.3-0.2 0.9-0.4c0.1-0.1 0.3-0.2 0.5-0.2q0.3-0.1 0.7-0.2c0.5-0.1 1.1-0.1 1.8 0.1 0.6 0.2 1.3 0.6 1.8 1.1 0.4 0.4 0.7 1 1 1.5 0.2 0.5 0.4 1 0.5 1.4q0.1 0.7 0.2 1.3c0.1 0.9 0.1 1.6 0.1 2.2q0 1 0 1.6 0 0.2-0.1 0.4 0 0.1 0 0.2c-0.1 1.3-1.3 2.2-2.5 2-1.3-0.1-2.2-1.2-2.1-2.5q0-0.1 0.1-0.3z"/>
					<g id="&lt;Group&gt;">
						<path id="&lt;Path&gt;" class="s55" d="m747.4 271.6q0.5-2.7 0.8-3.1l13.7-19.9c0.3-0.4 0.8-0.5 1.2-0.3 0.4 0.3 0.5 0.8 0.2 1.2l-13.8 19.9q-0.1 0.3-2.1 2.2z"/>
					</g>
					<g id="&lt;Group&gt;">
						<path id="&lt;Path&gt;" class="s28" d="m763.3 249.5l-13.8 19.9c0 0.2-0.8 0.9-1.4 1.5q-0.2-0.1-0.5-0.2c0.1-0.8 0.4-2 0.6-2.2l13.7-19.9c0.3-0.4 0.8-0.5 1.2-0.3 0.4 0.3 0.5 0.8 0.2 1.2z"/>
					</g>
					<path id="&lt;Path&gt;" class="s1" d="m754.2 275.7q-0.1 0-0.3-0.1c-0.3-0.1-0.4-0.2-0.6-0.4q-0.1-0.1-0.3-0.2c-0.1 0-0.2-0.1-0.2-0.2-0.2-0.2-0.4-0.3-0.6-0.5-0.2-0.2-0.4-0.5-0.6-0.7-0.1-0.2-0.3-0.4-0.5-0.7q-0.3-0.3-0.6-0.7v-0.1-0.1h-0.1v-0.1l-0.1-0.1v-0.1c-0.2-0.3-0.3-0.5-0.4-0.7-0.1-0.4-0.2-0.8-0.3-1.2q-0.1-0.5-0.2-0.9 0-0.4-0.1-0.7 0-0.3 0-0.5-0.1-0.2-0.1-0.3-0.1-0.1-0.1-0.2-0.1-0.1-0.1-0.1l-0.2-0.4c-0.5-0.9-0.1-2 0.8-2.5 0.8-0.4 1.7-0.2 2.3 0.4q0.1 0.2 0.3 0.5c0.1 0.1 0.3 0.3 0.4 0.6q0.2 0.3 0.4 0.7 0.1 0.5 0.3 0.9 0.1 0.5 0.2 0.9 0 0.3 0.1 0.6 0.1 0.3 0.2 0.5c0.1 0.1 0.1 0.1 0.1 0.1q0 0 0 0l0.1 0.1 0.1 0.1v0.1c0 0-0.1-0.2-0.1-0.1h0.1q0.2 0.3 0.4 0.6 0.3 0.3 0.5 0.5c0.1 0.1 0.2 0.2 0.4 0.4 0.1 0.1 0.2 0.1 0.3 0.2 0 0.1 0 0.1 0.1 0.1q0 0 0 0c0 0 0.1 0-0.1 0-0.1-0.1 0-0.1 0-0.1 1.2 0.4 1.8 1.8 1.4 3-0.4 1.2-1.7 1.8-2.9 1.4z"/>
				</g>
				<path id="&lt;Path&gt;" class="s54" d="m752.2 286.3v-6.3q11-4.6 17.4 4.2l-0.5 10.3z"/>
				<path id="&lt;Path&gt;" class="s52" d="m730.1 282.4q6.4 1.6 20.5 25.2l0.6-23.4q13.5-2.9 20.6 6.1-0.9 40.9-3.5 46.4-5.6 11.9-20.7 3.3l-32.3-33.4c-8.3-16.5 7.6-26.1 14.8-24.2z"/>
				<ellipse id="&lt;Path&gt;" class="s56" cx="769.6" cy="303.5" rx="1.3" ry="1.8"/>
				<ellipse id="&lt;Path&gt;" class="s56" cx="769.6" cy="297.7" rx="1.3" ry="1.8"/>
				<path id="&lt;Path&gt;" class="s1" d="m698.6 226.1c0.2-10.9 9.2-19.5 20.1-19.2 10.8 0.2 19.4 9.3 19.2 20.1l-0.3 11.4c-0.2 10.9-9.3 19.5-20.1 19.2-10.9-0.2-19.5-9.2-19.2-20.1z"/>
				<path id="&lt;Path&gt;" class="s1" d="m690.2 228c0.1-3.1 2.7-5.6 5.8-5.5 3.1 0 5.6 2.6 5.5 5.7l-0.1 2.3c0 3.1-2.6 5.6-5.7 5.5-3.2 0-5.6-2.6-5.6-5.7z"/>
				<ellipse id="&lt;Path&gt;" class="s17" cx="713.9" cy="233.1" rx="2.2" ry="2.5"/>
				<ellipse id="&lt;Path&gt;" class="s17" cx="728.9" cy="233.5" rx="2.2" ry="2.5"/>
				<path id="&lt;Path&gt;" class="s57" d="m723.4 235.1q1.8 0.8 1.9 1.6 0.1 0.7-1.7 2.1"/>
				<path id="&lt;Path&gt;" class="s58" d="m710.6 223.8c0.9-0.6 2.2-1.3 3.9-1.2"/>
				<path id="&lt;Path&gt;" class="s58" d="m732.4 223.2c-0.8-0.7-1.9-1.3-3.3-1.5"/>
				<path id="&lt;Path&gt;" class="s9" d="m698.6 223.2q22.6-2.1 25.7-15.3-30.3-12.8-25.7 15.3z"/>
				<path id="&lt;Path&gt;" class="s9" d="m725.4 203.3q19 0.4 12.5 23.7-4.2-14.3-14.5-20.2z"/>
			</g>
			<g id="&lt;Group&gt;">
				<g id="&lt;Group&gt;">
					<g id="&lt;Group&gt;">
						<path id="&lt;Path&gt;" class="s46" d="m882.3 271.2c0 4.2-5.2 7.6-11.5 7.6-6.4 0-11.5-3.4-11.5-7.6 0-0.2 0-19.3 0-19.3q0-0.7 0.1-1.3c0.9-3.6 5.7-6.4 11.4-6.4 5.7 0 10.4 2.8 11.3 6.4q0.2 0.6 0.2 1.3c0 0 0 19.1 0 19.3z"/>
						<ellipse id="&lt;Path&gt;" class="s37" cx="870.8" cy="251.9" rx="11.5" ry="7.6"/>
						<path id="&lt;Path&gt;" class="s47" d="m880.8 251.9q0 0.8-0.4 1.6c-1.1 2.7-5 4.8-9.6 4.8-3.4 0-6.4-1.1-8.2-2.8-1.1-1-1.8-2.3-1.8-3.6 0-3.6 4.5-6.4 10-6.4 5.5 0 10 2.8 10 6.4z"/>
						<path id="&lt;Path&gt;" class="s13" d="m880.4 253.5c-1.1 2.7-5 4.8-9.6 4.8-3.4 0-6.4-1.1-8.2-2.8q0-0.2 0-0.4c0-3.3 4-6.1 9.1-6.1 4.1 0 7.7 1.9 8.7 4.5z"/>
					</g>
					<path id="&lt;Path&gt;" class="s1" d="m846.1 267.8q0 0.2-0.1 0.4 0 0.1-0.1 0.4 0 0.1-0.1 0.2 0 0.1 0 0.2 0 0.3-0.1 0.5 0 0.3 0 0.6-0.1 0.2-0.1 0.3 0 0.2 0 0.3c0 0.3 0 0.5 0 0.7q0 0.3 0 0.6 0.1 0.3 0.1 0.7 0 0.3 0.1 0.5 0 0.3 0.1 0.6 0 0.2 0.1 0.4 0.1 0.2 0.1 0.4 0 0.2 0.1 0.3c0.3 1.3-0.5 2.5-1.7 2.8-1.2 0.3-2.4-0.5-2.7-1.7q-0.1-0.2-0.1-0.3 0-0.2 0-0.4 0-0.2-0.1-0.4 0-0.3 0-0.6 0-0.3 0-0.7 0-0.4 0-0.8 0-0.4 0-0.8 0.1-0.4 0.1-0.9c0-0.3 0.1-0.6 0.2-0.8q0-0.3 0-0.5 0.1-0.2 0.2-0.4 0.1-0.3 0.2-0.7 0.1-0.4 0.2-0.7 0.1-0.1 0.1-0.3 0.1-0.1 0.1-0.2 0.1-0.2 0.2-0.4 0-0.2 0.1-0.3c0.4-0.8 1.3-1.2 2.1-0.9 0.8 0.4 1.2 1.2 1 1.9z"/>
					<path id="&lt;Path&gt;" class="s1" d="m845 273.3q0-0.1 0-0.2 0-0.1 0-0.4 0-0.4 0.1-1.2 0-0.8 0.1-1.8 0.1-0.5 0.2-1 0-0.2 0.1-0.5l0.1-0.5q0.1-0.5 0.3-1c0.1-0.4 0.3-0.7 0.4-1q0.3-0.5 0.5-1 0.3-0.4 0.6-0.8 0.3-0.4 0.5-0.6c0.2-0.2 0.4-0.4 0.5-0.5q0.3-0.2 0.5-0.3c0.7-0.6 1.8-0.5 2.4 0.3 0.5 0.6 0.4 1.5-0.1 2l-0.3 0.4q-0.1 0.1-0.2 0.2c0 0.1-0.1 0.1-0.2 0.3q-0.1 0.1-0.2 0.3-0.1 0.2-0.2 0.5-0.1 0.2-0.2 0.6c-0.1 0.2-0.2 0.4-0.2 0.6q-0.1 0.4-0.1 0.8l-0.1 0.4q0 0.2 0 0.4 0 0.4 0 0.8-0.1 0.8 0 1.4 0 0.6 0.1 1 0 0.2 0 0.2 0 0.1 0 0.1c0.2 1.3-0.6 2.5-1.9 2.7-1.3 0.2-2.5-0.7-2.6-2q-0.1-0.1-0.1-0.2z"/>
					<path id="&lt;Path&gt;" class="s1" d="m849 272.8q0 0 0-0.2-0.1-0.1-0.1-0.4 0-0.6 0-1.5c0-1.2 0.2-2.8 0.8-4.5q0.2-0.6 0.5-1.2 0.3-0.5 0.7-1.1 0.2-0.2 0.4-0.5 0.2-0.2 0.5-0.4 0.2-0.2 0.4-0.4 0.2-0.2 0.4-0.3c0.3-0.2 0.6-0.4 0.9-0.5q0.3-0.2 0.6-0.3 0.4-0.2 0.6-0.2c0.9-0.3 1.9 0.1 2.2 1 0.3 0.8-0.1 1.7-0.9 2.1l-0.2 0.1q-0.1 0.1-0.3 0.2-0.1 0-0.3 0.2-0.2 0.1-0.4 0.3-0.1 0-0.2 0.1-0.1 0.1-0.2 0.3-0.1 0.1-0.2 0.2-0.1 0.1-0.1 0.3-0.2 0.3-0.3 0.6-0.2 0.4-0.3 0.8c-0.2 1-0.2 2.2-0.2 3.1q0.1 0.7 0.2 1.1 0 0.2 0 0.3 0 0 0 0c0.3 1.3-0.4 2.5-1.7 2.9-1.2 0.3-2.5-0.5-2.8-1.7q0-0.2 0-0.3z"/>
					<path id="&lt;Path&gt;" class="s1" d="m853.7 273.8q0 0 0-0.1 0-0.2-0.1-0.5-0.1-0.5-0.1-1.5-0.1-0.9 0-2.1 0-0.6 0.1-1.3c0.1-0.5 0.2-0.9 0.4-1.5 0.2-0.5 0.5-1 0.9-1.5 0.5-0.6 1.2-1 1.8-1.2 0.7-0.2 1.3-0.2 1.8-0.1q0.2 0.1 0.4 0.1 0.1 0 0.3 0.1c0.2 0 0.4 0.1 0.5 0.2q0.3 0.1 0.5 0.2 0.2 0.1 0.4 0.2 0.4 0.2 0.6 0.3 0.3 0.2 0.5 0.3c0.8 0.5 1 1.6 0.5 2.4-0.4 0.7-1.4 1-2.2 0.6h-0.1q-0.1-0.1-0.4-0.2-0.2-0.1-0.4-0.2-0.1-0.1-0.3-0.1-0.1-0.1-0.2-0.1c-0.1 0-0.2 0-0.3-0.1q-0.1 0-0.1 0-0.1 0-0.1 0-0.2 0-0.2 0.1c0 0 0 0 0 0 0 0 0 0.1-0.1 0.3 0 0.2 0 0.5-0.1 0.7q0 0.4 0 0.9c0 0.5 0.1 1.1 0.2 1.6q0.1 0.7 0.2 1.2 0.1 0.2 0.1 0.3 0 0 0 0.1c0.4 1.2-0.4 2.5-1.6 2.8-1.2 0.3-2.5-0.4-2.8-1.6q-0.1-0.1-0.1-0.3z"/>
					<g id="&lt;Group&gt;">
						<path id="&lt;Path&gt;" class="s37" d="m859.6 275.4c-1 0-1.6-0.3-1.7-0.4l-0.6-0.4-0.5-10.5 5.7-5c0.6-0.5 1.5-0.4 2 0.1 0.5 0.6 0.4 1.5-0.1 2l-4.7 4.1 0.3 7.3c0.6-0.2 1.6-0.8 2.8-2.5 0.4-0.6 1.3-0.8 1.9-0.3 0.7 0.4 0.8 1.3 0.4 1.9-2.1 3.1-4.1 3.7-5.5 3.7z"/>
					</g>
					<path id="&lt;Path&gt;" class="s1" d="m859.7 279.2l-4 6.1-10.4 0.6q-4.5-7.6-3.8-11.5 24.1-7.2 18.2 4.8z"/>
					<path id="&lt;Path&gt;" class="s1" d="m856.6 275.3c0 0 0.1-0.1 0 0-0.2 0.1-0.1 0.1-0.1 0.1q0-0.1 0-0.1c0.1 0 0.1 0 0.1-0.1 0.1 0 0.2-0.1 0.3-0.2 0.2-0.1 0.3-0.2 0.4-0.4q0.2-0.2 0.5-0.5 0.2-0.3 0.5-0.5v-0.1c-0.1 0.1 0 0-0.1 0.1h0.1v-0.1l0.1-0.1q0-0.1 0-0.1c0 0 0 0 0.1-0.1q0.1-0.1 0.2-0.4 0.1-0.3 0.2-0.7 0-0.4 0.1-0.8 0.2-0.5 0.3-0.9 0.2-0.5 0.4-0.8c0.1-0.2 0.3-0.4 0.4-0.6q0.2-0.3 0.3-0.5c0.7-0.7 1.9-0.8 2.7-0.1 0.7 0.6 0.8 1.5 0.4 2.3l-0.2 0.3q0 0.1-0.1 0.2 0 0-0.1 0.2 0 0.1-0.1 0.3 0 0.1 0 0.4-0.1 0.3-0.1 0.7-0.1 0.4-0.2 1c-0.1 0.3-0.2 0.7-0.3 1.1-0.1 0.2-0.2 0.5-0.3 0.7l-0.1 0.1-0.1 0.1v0.1l-0.1 0.1v0.1q-0.3 0.4-0.6 0.8c-0.1 0.2-0.4 0.4-0.5 0.7-0.2 0.2-0.4 0.4-0.6 0.6-0.2 0.2-0.4 0.4-0.5 0.5-0.1 0.1-0.2 0.2-0.3 0.3q-0.2 0.1-0.3 0.2c-0.2 0.1-0.3 0.2-0.6 0.3q-0.2 0.1-0.3 0.1c-1.2 0.5-2.5-0.2-2.9-1.4-0.4-1.2 0.2-2.5 1.4-2.9z"/>
				</g>
				<path id="&lt;Path&gt;" class="s59" d="m945.9 256.8q19.8 12.1 17.3 66.9-3.4 52.3-45.4 50.8-35.5 0-38.4-20.3 16.2-23.3 6.8-75.4 11.4-14.3 59.7-22z"/>
				<path id="&lt;Path&gt;" class="s60" d="m844.9 291.2v-5.9q6.8-2.6 10.8 0v4.8z"/>
				<path id="&lt;Path&gt;" class="s59" d="m886.2 278.8q5.1-2.1 12.4 5.1 7.2 7.2 2.7 18.2-29.1 57.9-50.7 41.8-9.1-8.1-6.4-53.8 6.4-3.8 12.6-1.6l4.3 27.1z"/>
				<path id="&lt;Path&gt;" class="s6" d="m923.3 252.9q1.3 9.1-0.9 17.2-7.4 2-13 1.5-5.7-0.6-4.1-3.8l1.2-13.3z"/>
				<path id="&lt;Path&gt;" class="s1" d="m908.6 207q2.2-0.5 4.5-0.6c11.1-0.3 20.4 8.4 20.7 19.6l0.1 3.4 0.2 8.3c0.1 3.4-0.6 6.6-2 9.5-1.1 2.1-2.5 4-4.2 5.6-1.8 1.7-3.9 3.1-6.3 4.1-2.2 0.9-4.5 1.5-7.1 1.5-15.3-0.1-20.4-8.5-20.7-19.6l-0.3-11.7c-0.1-3.4 0.7-6.6 2.1-9.5 2.5-5.2 7.3-9.1 13-10.6z"/>
				<path id="&lt;Path&gt;" class="s61" d="m914.7 321.6c-1.3-0.4-2.4-1.9-3.6-1.7-44.4 9.1 0.9-74.3 2.2-80.4 0.1-0.4 0.8-4.8 1.8-10.4-2.3 0-4.5-0.6-6.6-1.7l-1.1 4.8c-4.8-1.7 0-12.1-4.8-13.9q-0.3-0.1-0.6-0.2l-15.6-1.1c0.1-0.2-5.6-18.7 25.7-19 5.1 0 23.1 0 30 9.1 6.4 8.5 58.9 121.9 10.7 113.7q-37.4 1-38.1 0.8z"/>
				<path id="&lt;Path&gt;" class="s1" d="m907.4 229.3c0.3-3.1 3.1-5.4 6.2-5 3.1 0.3 5.3 3.1 5 6.1l-0.3 2.3c-0.3 3.1-3.1 5.3-6.1 5-3.1-0.4-5.3-3.1-5-6.2z"/>
				<ellipse id="&lt;Path&gt;" class="s17" cx="897.9" cy="233.2" rx="1.7" ry="1.9"/>
				<path id="&lt;Path&gt;" class="s62" d="m900.6 227.9c-0.7-0.5-1.7-1.1-3-1.1"/>
				<path id="&lt;Path&gt;" class="s1" d="m894.8 235.1v5l-4.9-3z"/>
			</g>
			<g id="&lt;Group&gt;">
				<path id="&lt;Path&gt;" class="s63" d="m781.3 341.5c-5.8 30.1-39.1 54.7-56.5 56.8-50.9 6.2-70.6-19-78.2-44.7-19.8-67.4 15.9-92.5 38.3-86 39.9 11.6 37.1 63.4 42.7 87.4q8 35 48.7-13.9z"/>
			</g>
			<g id="&lt;Group&gt;">
				<path id="&lt;Path&gt;" class="s63" d="m841.4 337.8q43.9 50 50.4 14.6c4.5-24.2-0.6-75.8 38.7-89.1 22.1-7.6 58.9 15.9 42.1 84.1-6.4 26.1-24.9 52.2-76.1 48.2-17.4-1.3-48.8-19.4-60.7-56.8z"/>
			</g>
			<ellipse id="&lt;Path&gt;" class="s17" cx="874.4" cy="95.9" rx="1.8" ry="2"/>
			<ellipse id="&lt;Path&gt;" class="s17" cx="862" cy="95.9" rx="1.8" ry="2"/>
			<path id="&lt;Path&gt;" class="s64" d="m866 102.5q-1.4-1.3-1.3-1.8 0.1-0.7 1.6-1.2"/>
			<path id="&lt;Path&gt;" class="s20" d="m876.8 90.9c-0.8-0.5-1.8-1.1-3.2-1.1"/>
			<path id="&lt;Path&gt;" class="s20" d="m859.8 90.9c0.7-0.5 1.6-1 2.7-1.1"/>
			<path id="&lt;Path&gt;" class="s64" d="m872.7 103.9c-0.9 2.3-3.4 3.5-5.7 2.6"/>
			<path id="&lt;Path&gt;" class="s64" d="m901.9 239.3c0 2.5-2 4.5-4.5 4.5"/>
			<path id="&lt;Path&gt;" class="s17" d="m722.2 243.1c-0.3 2-1.8 3.6-3.6 4.1q-0.2 0.1-0.5 0.1-0.9 0.2-1.8 0.1c-1.9-0.3-3.5-1.7-4.1-3.5q-0.1-0.2-0.1-0.5-0.2-1-0.1-1.9z"/>
			<path id="&lt;Path&gt;" class="s19" d="m718.1 247.3q-0.9 0.2-1.8 0.1c-1.9-0.3-3.5-1.7-4.1-3.5q0.7-0.2 1.5-0.2c2.2 0 4 1.6 4.4 3.6z"/>
			<g id="&lt;Group&gt;">
				<g id="&lt;Group&gt;">
					<path id="&lt;Compound Path&gt;" fill-rule="evenodd" class="s37" d="m763.6 188.8c-1.9 0-4.7 0-4.7-3.2v-7c0-3.6 3.5-3.6 5-3.6 2.9 0 5 2 5 4.7v4.4c0 2.7-2.1 4.7-5 4.7zm0.3-11.6c-2.6 0-2.8 0.5-2.8 1.4v7c0 0.7 0 1 2.5 1h0.3c1.4 0 2.9-0.8 2.9-2.5v-4.4c0-1.8-1.5-2.5-2.9-2.5z"/>
				</g>
				<path id="&lt;Path&gt;" class="s46" d="m759.5 174q0 0.4 0 0.8v15c0 5.2-4.5 7.7-10.2 7.7-5.7 0-10.3-2.5-10.3-7.7v-15q0-0.4 0.1-0.8z"/>
				<path id="&lt;Path&gt;" class="s37" d="m759.5 173.5c0 0.7-0.3 1.3-0.9 1.8-1.6 1.5-5.2 2.5-9.3 2.5-4.1 0-7.6-1-9.3-2.4-0.6-0.6-1-1.2-1-1.9 0-2.4 4.6-4.3 10.3-4.3 5.7 0 10.2 1.9 10.2 4.3z"/>
				<path id="&lt;Path&gt;" class="s47" d="m758 173.4q0 0.5-0.3 0.9-0.2 0.3-0.5 0.5c-1.4 1.2-4.4 2-7.9 2-3.5 0-6.5-0.8-7.9-1.9q-0.3-0.3-0.5-0.5-0.3-0.5-0.3-1c0-1.9 3.9-3.5 8.7-3.5 4.8 0 8.7 1.6 8.7 3.5z"/>
				<path id="&lt;Path&gt;" class="s13" d="m757.7 174.3q-0.2 0.3-0.5 0.5c-1.4 1.2-4.4 2-7.9 2-3.5 0-6.5-0.8-7.9-1.9q-0.3-0.3-0.5-0.5c1.1-1.6 4.5-2.7 8.4-2.7 4 0 7.3 1.1 8.4 2.6z"/>
			</g>
			<g id="&lt;Group&gt;">
				<path id="&lt;Path&gt;" class="s54" d="m774.5 231.6c0.2-0.6 0.9-0.9 1.5-0.7q0.3 0 0.7 0.2 0.4 0.1 0.8 0.3 0.5 0.1 1 0.3 0.6 0.2 1.2 0.5 0.7 0.2 1.3 0.5c1 0.3 1.9 0.7 2.9 1.2 0.9 0.4 1.9 0.8 2.8 1.2q0.7 0.3 1.3 0.6 0.6 0.3 1.1 0.6c0.7 0.3 1.2 0.7 1.5 1.1q0.3 0.3 0.4 0.5 0.1 0.2 0.1 0.2 0.1 0.1 0.1 0.1c0.1 0.5-0.1 0.9-0.5 1.1q-0.1 0-0.3 0-0.2 0.1-0.6 0.1c-0.5 0-1.2 0-1.9-0.3q-0.6-0.2-1.2-0.5-0.6-0.3-1.3-0.5c-0.9-0.4-1.9-0.8-2.8-1.3-1-0.4-1.9-0.8-2.8-1.3q-0.7-0.3-1.3-0.6-0.6-0.3-1.1-0.6-0.5-0.3-1-0.5-0.4-0.2-0.7-0.4-0.4-0.2-0.6-0.4c-0.5-0.2-0.7-0.8-0.6-1.4z"/>
				<path id="&lt;Path&gt;" class="s65" d="m774.5 231.6c0.2-0.6 0.9-0.9 1.5-0.7q0.3 0 0.7 0.2 0.4 0.1 0.8 0.3 0.5 0.1 1 0.3 0.6 0.2 1.2 0.5 0.7 0.2 1.3 0.5 1.1 0.4 2.3 0.9c-0.9 0.8-1.4 1.7-1.6 2.8q-1-0.4-1.9-0.9-0.7-0.3-1.3-0.6-0.6-0.3-1.1-0.6-0.5-0.3-1-0.5-0.4-0.2-0.7-0.4-0.4-0.2-0.6-0.4c-0.5-0.2-0.7-0.8-0.6-1.4z"/>
				<path id="&lt;Path&gt;" class="s66" d="m790 236.8q0.4 0.3 0.6 0.6 0.3 0.3 0.4 0.5 0.1 0.2 0.1 0.2 0.1 0.1 0.1 0.1c0.1 0.5-0.1 0.9-0.5 1.1q-0.1 0-0.3 0-0.2 0.1-0.6 0.1c-0.4 0-0.8 0-1.3-0.1-0.1-1.1 0.5-2.2 1.5-2.5z"/>
				<path id="&lt;Path&gt;" class="s67" d="m790.9 238.5l1.1 0.5c0.2 0.1 0.2 0.2 0.2 0.3-0.1 0.2-0.2 0.2-0.4 0.2l-1.1-0.5c-0.1-0.1-0.1-0.2-0.1-0.3 0.1-0.2 0.2-0.2 0.3-0.2z"/>
				<path id="&lt;Path&gt;" class="s67" d="m776.8 230.8l5.3 2c0.1 0 0.1 0.1 0.1 0.2 0 0.1-0.2 0.2-0.3 0.1l-5.3-1.9c-0.1-0.1-0.1-0.2-0.1-0.3 0.1-0.1 0.2-0.2 0.3-0.1z"/>
			</g>
		</g>
	</g>
</svg>