<svg version="1.2" xmlns="http://www.w3.org/2000/svg" viewBox="0 0 1440 550" width="1440" height="550">
	<title>Wavy_Med-08_Single-09-ai</title>
	<defs>
		<linearGradient id="g1" x1="1121.9" y1="225.7" x2="901.7" y2="516.7" gradientUnits="userSpaceOnUse">
			<stop offset="0" stop-color="#ffc444"/>
			<stop offset="1" stop-color="#f36f56"/>
		</linearGradient>
		<linearGradient id="g2" x1="903.6" y1="148.5" x2="1175.8" y2="167.3" gradientUnits="userSpaceOnUse">
			<stop offset="0" stop-color="#ff9085"/>
			<stop offset="1" stop-color="#fb6fbb"/>
		</linearGradient>
		<linearGradient id="g3" x1="1170.7" y1="319.3" x2="1029.6" y2="475.7" gradientUnits="userSpaceOnUse">
			<stop offset="0" stop-color="#ffc444"/>
			<stop offset="1" stop-color="#f36f56"/>
		</linearGradient>
		<linearGradient id="g4" x1="805.5" y1="82.4" x2="955.5" y2="82.4" gradientUnits="userSpaceOnUse">
			<stop offset="0" stop-color="#444b8c"/>
			<stop offset="1" stop-color="#26264f"/>
		</linearGradient>
		<linearGradient id="g5" x1="926.2" y1="142.8" x2="1103.3" y2="350.9" gradientUnits="userSpaceOnUse">
			<stop offset="0" stop-color="#ff9085"/>
			<stop offset="1" stop-color="#fb6fbb"/>
		</linearGradient>
		<linearGradient id="g6" x1="813.9" y1="219.6" x2="895.7" y2="111.7" gradientUnits="userSpaceOnUse">
			<stop offset="0" stop-color="#aa80f9"/>
			<stop offset="1" stop-color="#6165d7"/>
		</linearGradient>
		<linearGradient id="g7" x1="794.5" y1="268" x2="871.7" y2="166.2" gradientUnits="userSpaceOnUse">
			<stop offset="0" stop-color="#444b8c"/>
			<stop offset="1" stop-color="#26264f"/>
		</linearGradient>
		<linearGradient id="g8" x1="1095.3" y1="466.9" x2="1110.8" y2="466.9" gradientUnits="userSpaceOnUse">
			<stop offset="0" stop-color="#311944"/>
			<stop offset="1" stop-color="#6b3976"/>
		</linearGradient>
		<linearGradient id="g9" x1="1107.1" y1="475.4" x2="1102.7" y2="430.5" gradientUnits="userSpaceOnUse">
			<stop offset="0" stop-color="#ffc444"/>
			<stop offset="1" stop-color="#f36f56"/>
		</linearGradient>
		<linearGradient id="g10" x1="1106.6" y1="369.5" x2="1142.3" y2="369.5" gradientUnits="userSpaceOnUse">
			<stop offset="0" stop-color="#aa80f9"/>
			<stop offset="1" stop-color="#6165d7"/>
		</linearGradient>
		<linearGradient id="g11" x1="1106.6" y1="369.5" x2="1142.3" y2="369.5" gradientUnits="userSpaceOnUse">
			<stop offset="0" stop-color="#aa80f9"/>
			<stop offset="1" stop-color="#6165d7"/>
		</linearGradient>
		<linearGradient id="g12" x1="1159.5" y1="469.2" x2="1175.1" y2="469.2" gradientUnits="userSpaceOnUse">
			<stop offset="0" stop-color="#311944"/>
			<stop offset="1" stop-color="#6b3976"/>
		</linearGradient>
		<linearGradient id="g13" x1="1168" y1="470.5" x2="1164" y2="429.7" gradientUnits="userSpaceOnUse">
			<stop offset="0" stop-color="#ffc444"/>
			<stop offset="1" stop-color="#f36f56"/>
		</linearGradient>
		<linearGradient id="g14" x1="1134.5" y1="363.9" x2="1175.6" y2="363.9" gradientUnits="userSpaceOnUse">
			<stop offset="0" stop-color="#aa80f9"/>
			<stop offset="1" stop-color="#6165d7"/>
		</linearGradient>
		<linearGradient id="g15" x1="1087.1" y1="292.9" x2="1115.6" y2="292.9" gradientUnits="userSpaceOnUse">
			<stop offset="0" stop-color="#aa80f9"/>
			<stop offset="1" stop-color="#6165d7"/>
		</linearGradient>
		<linearGradient id="g16" x1="1111" y1="289.9" x2="1112.1" y2="278.6" gradientUnits="userSpaceOnUse">
			<stop offset="0" stop-color="#ffc444"/>
			<stop offset="1" stop-color="#f36f56"/>
		</linearGradient>
		<linearGradient id="g17" x1="1113" y1="295.2" x2="1105.8" y2="276.5" gradientUnits="userSpaceOnUse">
			<stop offset="0" stop-color="#311944"/>
			<stop offset="1" stop-color="#6b3976"/>
		</linearGradient>
		<linearGradient id="g18" x1="1106.6" y1="279.2" x2="1105.2" y2="305.9" gradientUnits="userSpaceOnUse">
			<stop offset="0" stop-color="#ffc444"/>
			<stop offset="1" stop-color="#f36f56"/>
		</linearGradient>
		<linearGradient id="g19" x1="1110.7" y1="295.4" x2="1103.6" y2="277.4" gradientUnits="userSpaceOnUse">
			<stop offset="0" stop-color="#311944"/>
			<stop offset="1" stop-color="#6b3976"/>
		</linearGradient>
		<linearGradient id="g20" x1="1110.5" y1="282.6" x2="1110.8" y2="285.5" gradientUnits="userSpaceOnUse">
			<stop offset="0" stop-color="#ffc444"/>
			<stop offset="1" stop-color="#f36f56"/>
		</linearGradient>
		<linearGradient id="g21" x1="1111.7" y1="277.7" x2="1105.7" y2="483.6" gradientUnits="userSpaceOnUse">
			<stop offset="0" stop-color="#444b8c"/>
			<stop offset="1" stop-color="#26264f"/>
		</linearGradient>
		<linearGradient id="g22" x1="1106.6" y1="272" x2="1100.3" y2="488.1" gradientUnits="userSpaceOnUse">
			<stop offset="0" stop-color="#444b8c"/>
			<stop offset="1" stop-color="#26264f"/>
		</linearGradient>
		<linearGradient id="g23" x1="1062.7" y1="268.7" x2="1059.5" y2="377.5" gradientUnits="userSpaceOnUse">
			<stop offset="0" stop-color="#aa80f9"/>
			<stop offset="1" stop-color="#6165d7"/>
		</linearGradient>
		<linearGradient id="g24" x1="1076.1" y1="269.5" x2="1072.8" y2="382" gradientUnits="userSpaceOnUse">
			<stop offset="0" stop-color="#aa80f9"/>
			<stop offset="1" stop-color="#6165d7"/>
		</linearGradient>
		<linearGradient id="g25" x1="1086.8" y1="274.4" x2="1083.9" y2="373.7" gradientUnits="userSpaceOnUse">
			<stop offset="0" stop-color="#ffc444"/>
			<stop offset="1" stop-color="#f36f56"/>
		</linearGradient>
		<linearGradient id="g26" x1="1082.7" y1="274.3" x2="1079.7" y2="377.2" gradientUnits="userSpaceOnUse">
			<stop offset="0" stop-color="#ffc444"/>
			<stop offset="1" stop-color="#f36f56"/>
		</linearGradient>
		<linearGradient id="g27" x1="1078.9" y1="274.6" x2="1075.8" y2="379.3" gradientUnits="userSpaceOnUse">
			<stop offset="0" stop-color="#ffc444"/>
			<stop offset="1" stop-color="#f36f56"/>
		</linearGradient>
		<linearGradient id="g28" x1="1074.2" y1="276.7" x2="1071.1" y2="381.4" gradientUnits="userSpaceOnUse">
			<stop offset="0" stop-color="#ffc444"/>
			<stop offset="1" stop-color="#f36f56"/>
		</linearGradient>
		<linearGradient id="g29" x1="1110.8" y1="320.4" x2="1110.4" y2="336.9" gradientUnits="userSpaceOnUse">
			<stop offset="0" stop-color="#ff9085"/>
			<stop offset="1" stop-color="#fb6fbb"/>
		</linearGradient>
		<linearGradient id="g30" x1="1111.3" y1="318.7" x2="1110.9" y2="331.8" gradientUnits="userSpaceOnUse">
			<stop offset="0" stop-color="#ff9085"/>
			<stop offset="1" stop-color="#fb6fbb"/>
		</linearGradient>
		<linearGradient id="g31" x1="1113" y1="316.9" x2="1112.6" y2="329.7" gradientUnits="userSpaceOnUse">
			<stop offset="0" stop-color="#ff9085"/>
			<stop offset="1" stop-color="#fb6fbb"/>
		</linearGradient>
		<linearGradient id="g32" x1="1112.7" y1="313.1" x2="1112.3" y2="326.8" gradientUnits="userSpaceOnUse">
			<stop offset="0" stop-color="#ff9085"/>
			<stop offset="1" stop-color="#fb6fbb"/>
		</linearGradient>
		<linearGradient id="g33" x1="1003.6" y1="267.4" x2="1042.5" y2="267.5" gradientUnits="userSpaceOnUse">
			<stop offset="0" stop-color="#e38ddd"/>
			<stop offset="1" stop-color="#9571f6"/>
		</linearGradient>
		<linearGradient id="g34" x1="1002.5" y1="266.9" x2="1038" y2="266.9" gradientUnits="userSpaceOnUse">
			<stop offset="0" stop-color="#e38ddd"/>
			<stop offset="1" stop-color="#9571f6"/>
		</linearGradient>
		<linearGradient id="g35" x1="997.9" y1="266.1" x2="1034.1" y2="266.1" gradientUnits="userSpaceOnUse">
			<stop offset="0" stop-color="#e38ddd"/>
			<stop offset="1" stop-color="#9571f6"/>
		</linearGradient>
		<linearGradient id="g36" x1="995.7" y1="267.1" x2="1028.9" y2="267.2" gradientUnits="userSpaceOnUse">
			<stop offset="0" stop-color="#e38ddd"/>
			<stop offset="1" stop-color="#9571f6"/>
		</linearGradient>
		<linearGradient id="g37" x1="980.1" y1="284.1" x2="1090.1" y2="284.2" gradientUnits="userSpaceOnUse">
			<stop offset="0" stop-color="#ff9085"/>
			<stop offset="1" stop-color="#fb6fbb"/>
		</linearGradient>
		<linearGradient id="g38" x1="981.2" y1="284.5" x2="1092" y2="284.7" gradientUnits="userSpaceOnUse">
			<stop offset="0" stop-color="#ff9085"/>
			<stop offset="1" stop-color="#fb6fbb"/>
		</linearGradient>
		<linearGradient id="g39" x1="983.4" y1="286.4" x2="1093.8" y2="286.6" gradientUnits="userSpaceOnUse">
			<stop offset="0" stop-color="#ff9085"/>
			<stop offset="1" stop-color="#fb6fbb"/>
		</linearGradient>
		<linearGradient id="g40" x1="985.9" y1="288" x2="1095.2" y2="288.1" gradientUnits="userSpaceOnUse">
			<stop offset="0" stop-color="#ff9085"/>
			<stop offset="1" stop-color="#fb6fbb"/>
		</linearGradient>
		<linearGradient id="g41" x1="1109.9" y1="288.6" x2="1165.9" y2="288.6" gradientUnits="userSpaceOnUse">
			<stop offset="0" stop-color="#aa80f9"/>
			<stop offset="1" stop-color="#6165d7"/>
		</linearGradient>
		<linearGradient id="g42" x1="1090.1" y1="353.7" x2="1077.3" y2="340.4" gradientUnits="userSpaceOnUse">
			<stop offset="0" stop-color="#ffc444"/>
			<stop offset="1" stop-color="#f36f56"/>
		</linearGradient>
		<linearGradient id="g43" x1="804.1" y1="474.5" x2="814.5" y2="474.5" gradientUnits="userSpaceOnUse">
			<stop offset="0" stop-color="#444b8c"/>
			<stop offset="1" stop-color="#26264f"/>
		</linearGradient>
		<linearGradient id="g44" x1="805.4" y1="481.9" x2="803.1" y2="467.4" gradientUnits="userSpaceOnUse">
			<stop offset="0" stop-color="#311944"/>
			<stop offset="1" stop-color="#893976"/>
		</linearGradient>
		<linearGradient id="g45" x1="763.3" y1="476.2" x2="772.8" y2="476.2" gradientUnits="userSpaceOnUse">
			<stop offset="0" stop-color="#444b8c"/>
			<stop offset="1" stop-color="#26264f"/>
		</linearGradient>
		<linearGradient id="g46" x1="762.5" y1="482" x2="762.3" y2="468.7" gradientUnits="userSpaceOnUse">
			<stop offset="0" stop-color="#311944"/>
			<stop offset="1" stop-color="#893976"/>
		</linearGradient>
		<linearGradient id="g47" x1="767.6" y1="487" x2="778.9" y2="395.8" gradientUnits="userSpaceOnUse">
			<stop offset="0" stop-color="#444b8c"/>
			<stop offset="1" stop-color="#26264f"/>
		</linearGradient>
		<linearGradient id="g48" x1="767.6" y1="487.1" x2="779" y2="395.2" gradientUnits="userSpaceOnUse">
			<stop offset="0" stop-color="#444b8c"/>
			<stop offset="1" stop-color="#26264f"/>
		</linearGradient>
		<linearGradient id="g49" x1="778" y1="353.1" x2="825.1" y2="383.1" gradientUnits="userSpaceOnUse">
			<stop offset="0" stop-color="#444b8c"/>
			<stop offset="1" stop-color="#26264f"/>
		</linearGradient>
		<linearGradient id="g50" x1="834.6" y1="267.5" x2="825.6" y2="372.7" gradientUnits="userSpaceOnUse">
			<stop offset="0" stop-color="#aa80f9"/>
			<stop offset="1" stop-color="#6165d7"/>
		</linearGradient>
		<linearGradient id="g51" x1="738.6" y1="334" x2="775.1" y2="278.2" gradientUnits="userSpaceOnUse">
			<stop offset="0" stop-color="#aa80f9"/>
			<stop offset="1" stop-color="#6165d7"/>
		</linearGradient>
		<linearGradient id="g52" x1="786.1" y1="266" x2="777.4" y2="368.7" gradientUnits="userSpaceOnUse">
			<stop offset="0" stop-color="#aa80f9"/>
			<stop offset="1" stop-color="#6165d7"/>
		</linearGradient>
		<linearGradient id="g53" x1="806.6" y1="269.4" x2="792.2" y2="296.8" gradientUnits="userSpaceOnUse">
			<stop offset="0" stop-color="#311944"/>
			<stop offset="1" stop-color="#893976"/>
		</linearGradient>
		<linearGradient id="g54" x1="791.1" y1="289.5" x2="793.7" y2="271" gradientUnits="userSpaceOnUse">
			<stop offset="0" stop-color="#444b8c"/>
			<stop offset="1" stop-color="#26264f"/>
		</linearGradient>
		<linearGradient id="g55" x1="787.2" y1="284.7" x2="785.2" y2="279.2" gradientUnits="userSpaceOnUse">
			<stop offset="0" stop-color="#311944"/>
			<stop offset="1" stop-color="#893976"/>
		</linearGradient>
		<linearGradient id="g56" x1="775.3" y1="338.6" x2="767.1" y2="349.7" gradientUnits="userSpaceOnUse">
			<stop offset="0" stop-color="#311944"/>
			<stop offset="1" stop-color="#893976"/>
		</linearGradient>
		<linearGradient id="g57" x1="871.8" y1="270.3" x2="863.9" y2="363.5" gradientUnits="userSpaceOnUse">
			<stop offset="0" stop-color="#aa80f9"/>
			<stop offset="1" stop-color="#6165d7"/>
		</linearGradient>
		<linearGradient id="g58" x1="873.2" y1="294.7" x2="823.7" y2="260.3" gradientUnits="userSpaceOnUse">
			<stop offset="0" stop-color="#311944"/>
			<stop offset="1" stop-color="#893976"/>
		</linearGradient>
	</defs>
	<style>
		.s0 { fill: #ffffff } 
		.s1 { fill: #f4f7fa } 
		.s2 { fill: url(#g1) } 
		.s3 { opacity: .5;mix-blend-mode: soft-light;fill: #f4f7fa } 
		.s4 { fill: url(#g2) } 
		.s5 { fill: url(#g3) } 
		.s6 { fill: #97a6b7 } 
		.s7 { fill: #d8dee8 } 
		.s8 { opacity: .7;fill: #ffffff } 
		.s9 { opacity: .3;mix-blend-mode: multiply;fill: #97a6b7 } 
		.s10 { fill: url(#g4) } 
		.s11 { opacity: .5;mix-blend-mode: soft-light;fill: #ffffff } 
		.s12 { fill: url(#g5) } 
		.s13 { fill: url(#g6) } 
		.s14 { fill: url(#g7) } 
		.s15 { fill: url(#g8) } 
		.s16 { fill: url(#g9) } 
		.s17 { fill: url(#g10) } 
		.s18 { opacity: .3;mix-blend-mode: multiply;fill: url(#g11) } 
		.s19 { fill: url(#g12) } 
		.s20 { fill: url(#g13) } 
		.s21 { fill: url(#g14) } 
		.s22 { opacity: .1;mix-blend-mode: multiply;fill: url(#g15) } 
		.s23 { fill: url(#g16) } 
		.s24 { fill: url(#g17) } 
		.s25 { fill: url(#g18) } 
		.s26 { fill: url(#g19) } 
		.s27 { fill: url(#g20) } 
		.s28 { fill: url(#g21) } 
		.s29 { opacity: .3;mix-blend-mode: multiply;fill: url(#g22) } 
		.s30 { fill: url(#g23) } 
		.s31 { fill: url(#g24) } 
		.s32 { fill: url(#g25) } 
		.s33 { fill: url(#g26) } 
		.s34 { fill: url(#g27) } 
		.s35 { fill: url(#g28) } 
		.s36 { fill: url(#g29) } 
		.s37 { fill: url(#g30) } 
		.s38 { fill: url(#g31) } 
		.s39 { fill: url(#g32) } 
		.s40 { fill: url(#g33) } 
		.s41 { fill: url(#g34) } 
		.s42 { fill: url(#g35) } 
		.s43 { fill: url(#g36) } 
		.s44 { fill: url(#g37) } 
		.s45 { fill: url(#g38) } 
		.s46 { fill: url(#g39) } 
		.s47 { fill: url(#g40) } 
		.s48 { opacity: .1;mix-blend-mode: multiply;fill: url(#g41) } 
		.s49 { fill: url(#g42) } 
		.s50 { fill: url(#g43) } 
		.s51 { fill: url(#g44) } 
		.s52 { fill: url(#g45) } 
		.s53 { fill: url(#g46) } 
		.s54 { fill: url(#g47) } 
		.s55 { fill: url(#g48) } 
		.s56 { fill: url(#g49) } 
		.s57 { fill: url(#g50) } 
		.s58 { opacity: .3;mix-blend-mode: multiply;fill: url(#g51) } 
		.s59 { fill: url(#g52) } 
		.s60 { fill: url(#g53) } 
		.s61 { fill: url(#g54) } 
		.s62 { fill: url(#g55) } 
		.s63 { fill: url(#g56) } 
		.s64 { fill: url(#g57) } 
		.s65 { fill: url(#g58) } 
	</style>
	<g id="Background">
		<g id="&lt;Group&gt;">
			<g id="&lt;Group&gt;">
				<path id="&lt;Path&gt;" class="s0" d="m0-3.3h1440v556.5h-1440z"/>
			</g>
		</g>
	</g>
	<g id="Illustration">
		<g id="&lt;Group&gt;">
			<path id="&lt;Path&gt;" class="s1" d="m1028.5 486c-36.3 8.7-78.6 13.1-116.4 10.4-55.5-3.9-113.7-26.4-159.9-51.8-51.8-28.4-53.2-73-50.8-120.7 1.3-27.5-3.6-55.1-10.8-81.8-11.1-41.1-1.9-84.2 25.5-119.5 27.4-35.4 70.7-60 120.1-68.2q83.2-13.9 167.6-4.8c111.2 10.4 167.5 109.1 181.3 189.5 13.7 80.4 28.8 202.1-156.6 246.9z"/>
			<g id="&lt;Group&gt;">
				<g id="&lt;Group&gt;">
					<path id="&lt;Path&gt;" class="s2" d="m914.8 414.4c-23.3-3.9-29.1-49.3-29.8-55.8-1.9-16.2-4.1-36.3 8.8-53.3 18.6-24.5 50.4-18.1 58-38.5 4.6-12.5-6.9-16.4-7.4-40.3-0.1-6.9-0.7-31.7 18.4-51.8 13.6-14.3 31-19.5 40.1-21.6 3-6.8 6.5-17.2 6.4-29.9-0.1-20.3-9.3-28.2-4.5-38.9 5.4-12.4 24.9-18.9 39.6-18.7 39.4 0.3 61 47.4 62.5 50.8 3.8 8.7 15.9 36.1 2 56.1-10.9 15.8-29.5 14.5-32.3 27.5-2.9 13 14.8 18 19 37.8 3.6 16.8-4.3 37-18.2 48.3-23.2 18.9-51.6 3.8-64 19.5-14.5 18.2 14.7 50.5 1.8 61.3-12.2 10.4-44.3-13.8-59.9-1.8-11.2 8.7-0.8 26.2-16 40.2-0.9 0.9-12.3 11.1-24.5 9.1z"/>
					<path id="&lt;Path&gt;" class="s3" d="m1037.4 76.3c15 3.1 21.9 44 14 79-5.4 24.1-13.2 24.6-33.1 65.4-27 55.3-17 63.1-36.7 82.4-26.9 26.5-54.6 20.4-69.4 45.9-10 17.3-7.1 36.8-2.8 51.2-5.5-7.7-14.2-22.1-16.6-41.5-1.6-12.7-4.4-35.6 10.1-49.5 17.4-16.7 43.1-4.4 55-20 6.8-8.8 0.7-15.5-0.9-45.6-1.6-30.4-2.3-45.5 6.7-58.5 16.2-23.1 45.2-13.7 55.1-33.7 10.3-20.8-15.8-41.1-2.2-62.1 4.4-6.8 13.4-14.5 20.8-13z"/>
				</g>
				<g id="&lt;Group&gt;">
					<path id="&lt;Path&gt;" class="s4" d="m903.9 417.1c-14-2.2-21.7-33.4-18.7-57.7 1.1-9.3 2.3-18.7 9.8-27.2 12.7-14.3 27.3-8 38.5-19.6 16.5-17-4-42.6 11.8-56.5 11.7-10.2 26.5 0.4 40.4-10.7 16.1-12.8 6.3-35.1 20.2-40.7 8.1-3.3 13.5 3.3 35.3 1.9 8.6-0.5 12.9-0.8 16.8-2.9 13.7-7.5 7.1-24.5 18-34.9 12.1-11.4 38.2-8 53.8-1.7 27.9 11.3 40.4 39.7 40.8 62.2 0.1 4.8 0.2 36.3-24.7 53-18.1 12.1-42.4 11.7-46.3 11.7-15.4-0.3-18.5-4.3-23.9-1.4-15.8 8.5 6.2 44.3-13.9 67.1-8.2 9.3-22.2 15.1-34.7 15.6-20 0.8-28.7-12.4-39.4-7.8-13.8 5.8-5.4 30.4-20.6 37.7-10.7 5.1-18.9-5.3-37-0.9-16 3.8-18 14-26.2 12.8z"/>
					<path id="&lt;Path&gt;" class="s3" d="m906.8 338.1c15.2-15.5 36.3-6.5 47.6-21.3 13.1-17.2-6.7-40.7 6-51 10.5-8.5 27.8 4.6 39.8-4.3 14.1-10.4 0.3-35.4 14.1-43.8 6.1-3.7 9.8 0.6 32.1-0.9 15.5-1 23.3-1.5 28.2-5.9 9.5-8.5 0.7-20.2 11-31.4 8.3-9.1 21.4-9.3 22.1-9.3 15.5 0.1 29.2 12.9 31.2 25.3 2.2 14.3-11.6 26-21.9 34.5-34.5 28.4-58.8 15.8-87.5 40.1-21.1 17.9-9.5 26.1-34.7 49.2-22.1 20.3-34.9 17.5-58.6 40-21.8 20.6-25.2 36.3-31.5 34.9-9.2-2.1-15.9-37.8 2.1-56.1z"/>
				</g>
				<g id="&lt;Group&gt;">
					<path id="&lt;Path&gt;" class="s5" d="m949.1 356.6c12.8-10 33.4 4.1 44.2-6.3 8.6-8.3-1.7-20 5.6-44.3 2.7-9.1 5.9-19.5 16.2-26.4 12.5-8.3 32.1-9.4 44.7-1.9 12.7 7.6 9.9 18.9 22.5 23.7 10.1 3.8 15-2.3 27-0.1 14.7 2.7 30.8 16.2 32.4 33.2 1.9 20.4-17.8 37.4-34.9 40.7-16.4 3.2-22.8-7.7-36.3-3.4-19.7 6.2-16.2 32.8-33.5 37.3-15.4 4.1-24.5-15.3-45.8-13.1-19.3 2-24.5 19.1-34.7 16.6-14.8-3.6-23.5-43.6-7.4-56z"/>
					<path id="&lt;Path&gt;" class="s3" d="m961.5 363.1c14-9.5 36.4 5.8 46.1-3.4 3.8-3.6 2.6-7.8 2.5-18.1 0-11.3-0.2-48 16.2-55.4 8.4-3.8 19.2 0.9 27.4 4.5 16.9 7.3 15.9 15.9 30 20.3 14.9 4.8 23.1-2.7 31.1 3.4 7.5 5.8 9.9 19.7 3.8 26-10.6 10.9-36.6-10.8-63.6 0-19.2 7.7-14.9 22.3-36.1 29.4-17.2 5.8-26.4-1.5-42.4 6.8-14 7.3-17.5 18.3-21.2 17-4.7-1.8-5.4-22.7 6.2-30.5z"/>
				</g>
			</g>
			<g id="&lt;Group&gt;">
				<path id="&lt;Path&gt;" class="s6" d="m1019.5 136.3v276.7c0 4.5-4.1 8.6-9.2 9l-277.4 24.7c-6.4 0.6-14.8-0.9-14.8-8v-314.1c0-5.2 5.8-11.3 12.3-11l279.9 14.1c5.1 0.2 9.2 4 9.2 8.6z"/>
				<path id="&lt;Path&gt;" class="s7" d="m1024.1 133.8v278.9c0 4.6-4.1 8.7-9.2 9.1l-280.5 25.2c-6.4 0.5-11.7-3.2-11.7-8.4v-316.6c0-5.1 5.3-9.1 11.7-8.8l280.5 12c5.1 0.2 9.2 4.1 9.2 8.6z"/>
				<path id="&lt;Path&gt;" class="s8" d="m734.4 442.7c-3.5 0.3-6.3-1.7-6.3-4.5v-315.9c0-2.8 2.8-5 6.3-4.9l280.5 11.6c2.8 0.1 5 2.2 5 4.7v279.4c0 2.4-2.2 4.7-5 4.9z"/>
				<path id="&lt;Path&gt;" class="s0" d="m996.8 410.5l-239.9 20.1v-291.4l239.9 7.9z"/>
				<path id="&lt;Path&gt;" class="s9" d="m900.9 148.5l-95.9 1 2.2-18.8c0.1-2.4 2.1-4.5 4.8-4.8l16.3-2.2c1.9-0.2 3.5-1.3 4.4-2.9l1.7-3.4 42.5 2.3z"/>
				<path id="&lt;Compound Path&gt;" fill-rule="evenodd" class="s10" d="m955.7 153.2c0.3 1.4-1.1 2.8-2.7 2.7l-145.7-4.2c-1.8-0.1-2.8-1.6-2-3l10.1-17.6c1.3-2.1 4-3.5 6.7-3.4l16.8 0.6c7.5 0.3 14.6-4.3 16.4-10.6l4.4-14.7c0.8-2.7 3.7-4.6 6.9-4.4l5.2 0.2c2.7 0.2 5.5-1.1 7-3.3 0.6-0.8 1-1.6 1.1-2.5 1-6.1 7.4-10.6 14.3-10.2 6.7 0.4 11.4 5.5 10.5 11.5-0.5 3.4 2 6.3 5.8 6.5l5.1 0.3c3 0.2 5.2 2.3 5.1 5l-0.6 14.4c-0.3 6.3 4.8 11.2 11.8 11.4l15.3 0.6c2.5 0.1 4.4 1.6 4.9 3.8zm-59.5-60.9c0.3-1.8-1.1-3.3-3.1-3.4-2-0.1-3.8 1.2-4.1 3-0.3 1.7 1.1 3.3 3.1 3.4 2 0.1 3.8-1.3 4.1-3z"/>
				<path id="&lt;Compound Path&gt;" fill-rule="evenodd" class="s6" d="m956.6 153.6c0.2 1.4-1.1 2.8-2.7 2.7l-145.7-4.2c-1.8-0.1-2.9-1.6-2-3.1l10.1-17.5c1.3-2.2 4-3.6 6.7-3.4l16.8 0.6c7.5 0.3 14.5-4.3 16.4-10.6l4.3-14.7c0.8-2.7 3.8-4.6 7-4.5l5.1 0.3c2.8 0.2 5.5-1.1 7.1-3.3 0.6-0.8 0.9-1.7 1.1-2.5 1-6.1 7.4-10.6 14.2-10.2 6.8 0.4 11.5 5.5 10.6 11.5-0.6 3.4 2 6.3 5.8 6.5l5 0.3c3.1 0.1 5.2 2.3 5.1 5l-0.6 14.4c-0.2 6.2 4.9 11.2 11.8 11.4l15.4 0.6c2.4 0.1 4.4 1.6 4.8 3.8zm-59.4-60.9c0.3-1.8-1.1-3.3-3.1-3.4-2-0.2-3.9 1.2-4.2 3-0.3 1.7 1.1 3.2 3.1 3.4 2.1 0.1 3.9-1.3 4.2-3z"/>
				<g id="&lt;Group&gt;">
					<g id="&lt;Group&gt;">
						<path id="&lt;Path&gt;" class="s7" d="m877.9 402l-103.5 7.9v-4.6l103.5-7.7z"/>
						<path id="&lt;Path&gt;" class="s7" d="m877.9 410.1l-103.5 8.3v-4.7l103.5-8.1z"/>
					</g>
					<g id="&lt;Group&gt;">
						<path id="&lt;Path&gt;" class="s7" d="m982.4 394.1l-94.4 7.2v-4.5l94.4-7z"/>
						<path id="&lt;Path&gt;" class="s7" d="m982.4 401.8l-94.4 7.5v-4.5l94.4-7.3z"/>
					</g>
				</g>
				<g id="&lt;Group&gt;">
					<path id="&lt;Path&gt;" class="s11" d="m940.6 155.9l-132.4-3.8c-1.8-0.1-2.9-1.6-2-3.1l10.1-17.5c1.3-2.2 4-3.6 6.7-3.4l16.8 0.6c7.5 0.3 14.5-4.3 16.4-10.6l3.6-12.3c2.7 1.7 5.3 2.5 7.8 2.9 6.7 0.9 11.8-2.1 17.5 1.3 9 5.2 3.2 16.3 11.8 24.8 8.1 7.9 18.1 2.9 31.1 9.9 5.1 2.8 9.3 6.6 12.6 11.2z"/>
				</g>
				<g id="&lt;Group&gt;">
					<path id="&lt;Path&gt;" class="s12" d="m874.2 385.4v-29c0-2.9-3.4-4.6-6.5-3.2-10.7 4.9-26.5 9-39 11.8-11.1 2.5-22.4-1.7-27.1-10.1l-1.1-1.8c-2.2-4-1.5-8.9 1.8-12.6 2.1-2.3 2.3-5.2 0.6-7.5l-3.7-5.1c-1.3-1.9-0.8-4.4 1.4-5.9l2.6-1.8-2.9-0.5c-2.4-0.5-4-2.2-3.9-4.3l0.4-10.6-12.6-0.3c-3.7 0-6.5-2.4-6.5-5.5v-0.9l21-30.5c1.9-2.7 1.1-6.1-1.7-8.1-2.8-1.9-4.2-4.9-3.7-7.9 0.5-3.3 1.8-8.3 4.8-15.8 2.4-5.8 3.7-12.4 4.4-18.4 1.5-12.8 11-23.8 24.7-29.4 23.5-9.6 45.4-14.1 63.9-16 36.2-3.6 70 15.2 80.9 44.6 8.1 21.9 8.3 39.8 7.1 50.8-0.8 7.1-4.4 13.7-10 18.9-10.2 9.5-14.9 22.6-12.5 35.3l13.6 57.1z"/>
					<path id="&lt;Path&gt;" class="s13" d="m850.5 249.8c-9.9-2-12.9 1.6-20.9-1.1-9.7-3.3-16.9-12-18.1-20.8-1.8-12.5 9.1-21.8 16.5-28.1 17-14.6 37.8-18 43.8-18.9 8.2-1.2 43.2-5.5 71 15.5 19.3 14.6 24 32.9 25.3 38.4 1.9 8 7.9 32.9-7.7 42.6-9.1 5.8-23.9 5.1-33.3 0.2-6.9-3.6-5.5-6.2-12.3-9.7-13.6-7.2-23.1 1.8-39.2-3.7-12.9-4.5-11.7-11.8-25.1-14.4z"/>
					<path id="&lt;Compound Path&gt;" fill-rule="evenodd" class="s14" d="m1010.5 399.6q-1.7 0-3.5 0c-17.7-0.7-35.3-7-48.3-17.2-14.1-11.1-21.5-26-20.8-42 0.4-10.7 4.9-18.8 8.9-25.9 4.6-8.4 8.7-15.6 4.5-24.8-0.2-0.5-0.6-1.3-1.1-2.3-3.1-6.5-9.6-20.1-8.5-25.7 0.7-3.4 2.9-5.1 3-5.2h0.1c0.9-0.6 1.9-0.9 2.9-1.2q0.8-0.2 1.4-0.4c3.9-1.5 6.4-5.9 5.8-10.3-0.5-3.6-2.8-7.3-6.7-10.9q2.1 2.2 3 4.7c1.4 4.1 0 9.7-4.8 11.6-1.5 0.6-3.1 0.8-4.8 0.6q1.3 1.1 2.3 2.5 0.4 0.6 0.5 1.2 0.3 2-2.5 2.8c-2.8 0.7-5.8 1-8.7 0.8-0.8 0.6-1.8 1-2.8 1.1-3.3 0.4-6.2-1.8-8.2-6.2q-2.1-4.7-2.6-8.7-0.2-0.1-0.5-0.3c-1.8 0.7-3.7 1.1-5.5 1.2q-0.5 3-1.7 5.9c-0.3 0.6-0.8 1-1.5 1.1-0.7 0.1-1.4-0.1-1.9-0.6-0.3-0.4-0.8-0.5-1.3-0.4-0.5 0.1-0.9 0.4-1 0.9-1.3 4.7-3.9 7.3-7.7 7.6-1 0.1-2.1 0-3.3-0.3-6.7-1.7-12.4-6.8-14.9-13.3-4.7 2-10.2 2.4-14.9 0.9-6.2-2.1-10.6-7.4-11-13.1-3.1 2.2-7.8 2.2-11 0.6-3.6-1.9-6.3-5.4-7.5-10.1-0.9-3.5-0.8-6.6 0.2-9.2 2.6-6.6 10.7-9.7 16.6-11.5 5.1-1.5 9-1.7 11.8-0.5 0.3-0.8 0.9-1.5 1.6-2 13.5-9.1 32.7-10.5 47.7-3.3q1.7 0.8 3.2 1.7 1.2-0.5 2.5-0.7c6.7-1.5 14.1 2.5 19.8 10.8 4.7 6.7 6.1 12.3 4.3 17.1q-0.6 1.4-1.4 2.7 0.3 0.1 0.6 0.3 1-0.1 2 0.1c1.8 0.4 3.3 1.5 4.6 2.7 4.3 3.9 6.8 7.9 7.3 12 0.8 5.9-2.8 10.5-6.8 12q-0.8 0.3-1.6 0.5c-0.9 0.3-1.8 0.5-2.4 1-0.2 0.1-1.9 1.5-2.4 4.1-1 5.1 5.6 18.9 8.4 24.7 0.5 1 0.9 1.8 1.1 2.4 4.5 9.8 0.3 17.4-4.6 26.2-3.8 6.9-8.2 14.8-8.7 25.2-1.4 33.7 33.9 56 67.4 57.4 23.7 0.9 29.6-7.5 30.4-14.7l1.8 0.2c-1.1 10.5-11.3 16.2-28.8 16.2zm-128.5-154.5c2.2 6.1 7.5 10.9 13.7 12.4q1.5 0.4 2.6 0.3c3-0.3 5-2.3 6.1-6.3 0.3-1.1 1.2-1.9 2.4-2.1 1.1-0.3 2.4 0.1 3.1 0.9q0.1 0 0.2 0 0 0 0 0 1.1-2.7 1.6-5.4-0.7-0.1-1.3-0.2c-1.7-0.4-3.3-1-4.6-1.8q-2.2 0.4-4.2 1.2l-1.1 0.4-0.1-1.1c-0.3-1.8-0.3-3.5 0-5.3q-0.5 0.1-1 0.2-2.3 1.1-5.1 2-4.4 1.5-8.2 1.9-0.3 0.3-0.6 0.6-1.6 1.3-3.5 2.3zm45.3 11.5c0.7 0.5 1.5 0.8 2.4 0.7q-0.3 0-0.6-0.1-1-0.3-1.8-0.6zm7.4-0.3c2.2 0 4.5-0.3 6.7-0.9 1.2-0.3 1.2-0.6 1.2-0.9q-0.1-0.2-0.3-0.5c-1-1.4-2.3-2.6-3.8-3.7q-0.3 0.8-0.5 1.5l-0.3 0.8-0.9-0.3q-0.7-0.2-1.4-0.5 0.2 1 0.1 2.1c-0.1 0.8-0.4 1.6-0.8 2.4zm-8.8-8.4q-0.3 0.7-0.5 1.4c-0.4 0.9-0.7 1.9-0.5 2.8 0.4 2.2 3.4 3.1 4.7 3.5q1.4 0.3 2.9 0.5c0.6-0.6 1-1.4 1.1-2.3q0.2-1.4-0.4-2.7-4-1.5-7.3-3.2zm8.7 1.9q0.9 0.3 1.9 0.6 0.2-0.6 0.3-1.1-1.1-0.7-2.3-1.4c-2.1-1.3-4.3-2.6-6.2-4.2q0 0 0 0-0.1 0.2-0.2 0.4 0.2 0.1 0.4 0.2c3 1.6 5.1 3.4 6.1 5.5zm-12.9-4.2q0.5 2.2 1.4 4.6 0.2-0.8 0.5-1.5 0.3-0.8 0.7-1.6-1.3-0.8-2.6-1.5zm17.4 2.4q0.5 0.3 1.1 0.5c1.9 0.7 3.8 0.7 5.4 0 3.8-1.5 5-6.2 3.8-9.6-1.2-3.3-4.2-5.9-7-7.5-0.9 0.1-1.9 0.6-2.8 1.2 0.9 5.1 0.7 10.4-0.5 15.4zm-12.4-1.6q2.3 1.1 4.8 2.2-1.4-1.5-4-2.9-0.2-0.1-0.3-0.2-0.3 0.5-0.5 0.9zm11.3-12.4c-2.9 3-3.9 7.1-2.5 10.4 0.4 0.9 1.1 1.8 1.9 2.5 1-4.3 1.1-8.6 0.6-12.9zm-81.5-4.2l-0.2 1.8c-0.7 5.6 3.6 11.5 9.8 13.6 4.3 1.4 9.3 1 13.7-0.9q-0.3-1.1-0.5-2.3-1.3-0.2-2.5-0.6c-7.2-2.3-11.3-8.9-12.6-15.3q-1.1 1.1-2.5 2c-1.4 0.9-3.3 1.6-5.2 1.7zm72.9 12.4q0.1 0.1 0.2 0.3c1.4 1.1 2.9 2.2 4.5 3.1q-0.2-0.3-0.3-0.6c-1-2.3-1-4.8-0.2-7.3q-0.6 0.5-1.1 1-1.7 1.7-3.1 3.5zm-7.8 1.2q1.6 1.1 3.5 2.1 0.2-0.4 0.4-0.7-1.9-0.9-3.9-1.4zm-40.4-1.1q0.1 0.6 0.3 1.1 0.8-0.5 1.6-1-1 0-1.9-0.1zm41.4-0.4q2 0.6 3.8 1.4 0.3-0.5 0.6-0.9-1.1-1.3-1.9-2.6-0.5 0.5-1 0.9-0.7 0.7-1.5 1.2zm-8.8 0.3q0 0.5 0 1.1 1.9-0.1 3.7-0.8 0 0 0 0-1.8-0.2-3.7-0.3zm-5.2 0.2q1.1 0.4 2.2 0.6 0.5 0.2 1.1 0.2 0.1-0.5 0.1-1-1.7 0-3.4 0.2zm-6.5-2.6q-0.1 1.2 0 2.3 0.9-0.3 1.8-0.5-1-0.9-1.8-1.8zm16.3 1.1q0.5 0.1 1.1 0.2 0-2.2 0.6-4.3c0.5-1.7 1.4-3.4 2.6-4.8-0.1-1.8 0.1-3.6 0.6-5.4 0.8-2.5 2.6-5.2 5.5-6-0.4-1.8-1.1-3.6-2.4-5.1q-0.3-0.4-0.6-0.7c-0.6 2.5-2.1 4.8-4.7 6.3-1.6 0.9-3.4 1.4-5.1 1.3-0.9 3.3-2.3 6.2-4.2 8.6q0.9 2.1 1.4 4.3 1.2 1.7 2.6 3.2 1.2 1.3 2.6 2.4zm-15.9-3.3c1.1 1.3 2.3 2.5 3.7 3.5q2.8-0.6 5.8-0.6 0-2.3-0.5-4.6-0.9-1.3-1.6-2.7-1.3 1.3-2.8 2.3c-1.4 0.9-3 1.6-4.6 2.1zm23.9 0.7q0.7 1.4 1.7 2.6 1.4-1.8 3-3.3c1.1-1.1 2.3-2.1 3.4-3 1.1-0.9 2.1-1.8 3.1-2.7q-0.3-1.6-0.7-3.1 0 0 0 0-1.9-0.5-3.6-0.5c-0.9 0-1.8 0.1-2.7 0.3q0 0.2-0.1 0.4c-0.7 3.6-2.2 6.8-4.1 9.3zm-45.5 2.3q2.1 0.2 4.4 0 2-2 3.5-4.5-0.4-0.2-0.7-0.5c-3-2.2-4.4-5.4-5.1-8.4-1.9 4.5-2.6 9.1-2.1 13.4zm42.1-5.9q-0.7 1.3-1.1 2.6-0.4 1.6-0.5 3.3 0.7-0.5 1.4-1.1 0.7-0.7 1.4-1.4-0.8-1.7-1.2-3.4zm-9.1 5.8q0.7 0 1.5 0.1-0.5-0.5-1-1-0.3-0.3-0.6-0.7 0.1 0.8 0.1 1.6zm-48.1-16c1 8.2 6.5 13.6 11.6 15.3q0.8 0.3 1.6 0.5c-0.5-4.9 0.5-10.2 3-15.2q0.2-0.5 0.6-1.1-0.1-1.3 0-2.4 0.2-6.5 3.6-10-0.5-0.3-0.9-0.6-1 0.2-2 0.5c-5.5 1.7-10.9 5.3-15.3 10.4q-0.6 0.6-1.1 1.2-0.6 0.7-1.1 1.4zm24.6 12.5q-1 1.7-2.3 3.2 2.6-0.5 5.5-1.4 0.7-0.3 1.4-0.5c-1.7-0.2-3.2-0.6-4.6-1.3zm0.8-1.5c2.2 1 4.9 1.4 7.6 1.2q0.3-0.2 0.6-0.4c-1.1-1.9-2-3.8-2.6-5.3q-0.5-1.4-1-2.8-1.3 1.2-2.9 2.2-0.6 2.6-1.7 5.1zm33.4-3q0.2 2 0.9 3.9c1.4-2 2.4-4.4 3-7-1.5 0.8-2.8 1.8-3.9 3.1zm-27.3-5.8c0.4 1.2 0.8 2.5 1.3 3.8 0.5 1.4 1.3 3.1 2.4 4.9q0.1-0.1 0.2-0.1c0.8-2.2 2-4.2 3.7-5.9 0.4-0.5 1.3-1.5 2.7-1.5q0.1-0.4 0.2-0.8-0.5-2.9-0.2-5.8c-0.9-3-3-5.9-6-7.9q-0.6-0.3-1.3-0.7c1 2 1.1 4.4 0.7 6.5-0.5 2.7-1.8 5.3-3.7 7.5zm11.3 3.4q-1.3 2.6-3.8 4.7 0.6-0.3 1.2-0.7 1.7-1.1 3.1-2.7-0.3-0.6-0.5-1.3zm-24.1-5.6c0.3 3.2 1.4 7.2 4.8 9.9q0.1 0 0.3 0.1 0.8-1.8 1.3-3.7l-0.6-1q0.4-0.2 0.9-0.5 0.4-2.5 0.2-5.2c0-0.8-0.4-1.6-1.1-2.1q-0.8-0.7-2-0.4c-1.2 0.2-2.7 1.4-3.8 2.9zm-27.5-20.3q-1.7 0.3-3.7 0.9c-5.5 1.7-13.2 4.5-15.4 10.5-0.9 2.3-1 5.1-0.2 8.2 0.7 2.4 2.4 6.8 6.6 9 3.2 1.6 8.2 1.3 10.2-1.8l0.9-1.2c-1.1-0.1-2.2-0.5-3.2-1.1-1.4-0.9-2.3-2.3-3-3.5-1.7-3.1-4.2-9-1.4-14.3 1.7-3.1 5-5.5 9.2-6.7zm49.4 26.2q-0.1 0-0.1 0.1-0.9 1-1.7 2 1-1 1.8-2.1zm32.6-0.8q0.1 0.3 0.2 0.7 0.2-0.2 0.3-0.5-0.2-0.1-0.5-0.2zm-9.9-7.3c-2 0.7-3.4 2.8-4 4.8q-0.4 1.4-0.5 2.9c1.3-1.1 2.8-2 4.3-2.6 0.3-1.5 0.4-3.2 0.2-5.1zm-19 6.3q0.4 0.3 0.7 0.7c1.5-2.1 2.6-4.4 3.3-7.1-1-0.2-2.1-0.6-2.9-1.2q-0.8-0.6-1.4-1.3-0.2 0.8-0.3 1.6c0.5 1.9 0.6 3.9 0.2 5.8q0.2 0.7 0.4 1.5zm28.3-1.1q1.1 0.4 2.2 0.9 0.7-1.1 1.2-2.3c1.6-4.3 0.3-9.5-4-15.7-2-2.9-9.1-12-17.9-10.1q-0.6 0.1-1.1 0.3 3.7 2.6 5.5 5.8c1.1 1.9 1.7 4.1 1.7 6.3q1 0.8 1.8 1.7c1.6 1.9 2.4 3.9 2.9 6 3.7 0.1 6.4 3.4 7.7 7.1zm-75-22.4q-2.1 0-4.2 0.3c-4.4 0.8-8 3.2-9.7 6.2-2.4 4.7-0.2 10 1.3 12.8 0.6 1.1 1.4 2.2 2.5 2.9 1 0.6 2.1 0.8 3.2 0.8l0.2-0.3v0.3c1.4-0.1 2.9-0.7 4-1.4 1.2-0.7 2.2-1.7 3.1-2.8q-0.1-1.3-0.1-2.6c0-6 2.1-11.6 5.7-15.7q-0.7-0.1-1.4-0.2l0.9 0.8-3-0.5q-0.8-0.1-1.2-0.6-0.7 0-1.3 0zm25.5 14.7q1.5 0 2.6 0.9c1 0.8 1.7 2 1.8 3.3q0.1 2-0.1 4 1.1-0.8 2-1.7c-1.4-4.2-2.9-8.5-5.9-11.9q-0.8-0.9-1.7-1.6-2.9 3-3.2 8.8 0 0.2 0 0.3c1-1 2.2-1.7 3.5-2q0.5-0.1 1-0.1zm44.4 6.8q0 0 0 0 1.4 0 2.9 0.3c-1.1-2.2-2.8-4.5-5.2-4.8 0.1 1.7 0.1 3.3-0.1 4.7q1.2-0.2 2.4-0.2zm-44.4-15q1 0.8 1.8 1.7c3 3.3 4.5 7.4 5.9 11.4 1.3-1.8 2.2-3.7 2.6-5.8 0.5-2.8 0-5.8-2.2-7.5-1.8-0.6-3.8-0.9-5.8-0.9q-1.1 0.3-2.2 1 0 0.1-0.1 0.1zm-17.4-5.6c-3.7 3.8-5.9 9.3-5.9 15.3q0 0.3 0 0.7 0.4-0.6 0.9-1.1c4.7-5.4 10.3-9.2 16.2-11q0.2 0 0.4-0.1-4.5-2.4-11.3-3.7-0.1-0.1-0.3-0.1zm45.2 5.9c0.5 3.1 0.2 6.2-0.2 8.2q-0.1 0.3-0.1 0.7c1.2-0.1 2.5-0.4 3.7-1.1 2.4-1.4 3.7-3.7 3.9-6.2-1.4-0.9-3-1.5-4.7-1.7q-1.4-0.1-2.6 0.1zm-6.3 5.6c0.4 0.8 1 1.5 1.9 2.1q1 0.7 2.2 1 0.1-0.4 0.2-0.8c0.3-1.8 0.6-4.5 0.2-7.4q-0.7 0.3-1.3 0.8-1.9 1.4-3.1 4.1 0 0.1-0.1 0.2zm-12.4-7.6q2.5 0.8 4.6 2.2c2.5 1.5 4.4 3.7 5.7 6.1q0-0.3 0.1-0.6c-0.8-1.9-0.8-4.4-0.1-7.1 0.5-1.9 1.3-4 2.7-5.9-3-2.8-7.6-4.6-13.9-5.3-9.8-1.1-18.5 0.8-24 5.3 5.1 1.1 9.2 2.6 12.5 4.6q2.7-0.5 5.3-0.4c1.5-0.4 3-0.4 4.4-0.1q1.5 0.4 2.7 1.2zm14.2-3.9c-1 1.6-1.7 3.3-2.1 4.9-0.3 1-0.5 2.5-0.4 4q1.1-1.9 2.7-3 1-0.7 2.1-1.2c-0.4-1.6-1.2-3.2-2.3-4.7zm6 4.1q0.7 0 1.3 0.1c1.6 0.1 3.2 0.6 4.5 1.3-0.1-1.5-0.6-3-1.3-4.3q-1.9-3.2-5.8-5.8c-1.4 0.8-2.6 1.9-3.6 3.1 1.5 1.8 2.4 3.8 3 5.7q0.9-0.1 1.9-0.1zm-51.9-6.6c1.6 0.1 3.2 0.4 4.6 0.7q0-0.1 0-0.1c5.9-5.4 15.5-7.7 26.4-6.5 6.5 0.7 11.5 2.6 14.8 5.6 0.9-1.1 1.9-2 3.2-2.8q-1.2-0.6-2.4-1.2c-14.4-6.9-32.7-5.6-45.7 3.2-0.5 0.3-0.8 0.7-0.9 1.1z"/>
				</g>
			</g>
			<g id="&lt;Group&gt;">
				<path id="&lt;Path&gt;" class="s15" d="m1111.3 472.3c-1.3 1.3-7.8 1-11 1.2-3.3 0.2-8.5-0.1-6-1.4q2.5-1.4 13.4-4.9c2.6-0.2 4.8 3.9 3.6 5.1z"/>
				<path id="&lt;Path&gt;" class="s16" d="m1112.4 464.5l-2.1 3.8c-0.3 0.6-0.9 0.9-1.6 0.7l-0.7-0.1c-0.8-0.1-1.3-0.8-1.1-1.6l1-3.9z"/>
				<path id="&lt;Path&gt;" class="s17" d="m1142.3 372.6c2.3 2.6 1.2 5.9-3.9 23-6.4 21.4-7.6 26.1-8.5 30.1-2.2 9.8-1.5 10.4-3.2 15.9-3.4 11.2-9.2 19.5-13.6 24.7q-3.3-0.6-6.5-1.2c3.6-14.9 4.8-27.2 5.2-35.9 0.5-12.4-0.5-19.3 1.3-31.8 1.5-10.9 4.3-19.6 6.5-25.3 6.3-1.8 18.3-4.3 22.7 0.5z"/>
				<path id="&lt;Path&gt;" class="s18" d="m1138.4 395.6c-6.4 21.4-7.6 26.1-8.5 30.1-2.2 9.8-1.5 10.4-3.2 15.9-3.4 11.2-9.2 19.5-13.6 24.7q-3.3-0.6-6.5-1.2 0.5-1.9 0.9-3.8c9.8-8.1 12.9-15.4 13.7-20.9 1.2-8.1-2.3-12.8 0-24.8 1.7-8.9 4.7-11.4 6.5-17.6 1.7-6.1 2-14.9-3.9-27 6.5-1.4 14.9-2.3 18.5 1.6 2.3 2.6 1.2 5.9-3.9 23z"/>
				<path id="&lt;Path&gt;" class="s19" d="m1175.5 474.7c-1.2 1.2-7.7 1-11 1.2-3.2 0.1-8.4-0.2-5.9-1.5q2.5-1.3 13.3-4.9c2.6-0.1 4.8 3.9 3.6 5.2z"/>
				<path id="&lt;Path&gt;" class="s20" d="m1174.1 465.7v5.3q-1.3 0.6-3.3 0-3.1-4.4-2.6-4.7 2-1.2 5.9-0.6z"/>
				<path id="&lt;Path&gt;" class="s21" d="m1150.7 364.4c7.3 1 10.7 7.1 11.1 7.7-5.8 22.4-2.2 37.1 2.6 46.5 3.2 6.4 7.7 12 10.3 22.4 2.8 10.7 1.9 20.1 0.7 26.5q-3.9 0.3-7.8 0.6c-6.4-15.8-12.2-28.2-16.2-36.6-7-14.4-11.4-22.1-14.3-34.7-2.3-9.9-2.7-18.2-2.6-23.6 2.9-6.1 9.7-9.7 16.2-8.8z"/>
				<path id="&lt;Path&gt;" class="s0" d="m1087.1 312.6c2.5 4.2 19.6-15.3 26-18.9q7.8-4.4 3.9 27.7l-20.8 14.1z"/>
				<path id="&lt;Path&gt;" class="s22" d="m1087.1 312.6c2.5 4.2 19.6-15.3 26-18.9q7.8-4.4 3.9 27.7l-20.8 14.1z"/>
				<path id="&lt;Path&gt;" class="s0" d="m1113.7 289c2.6-1.8 5.7-2.2 6.5-2.4 1.5-0.2 4.6-0.4 9.1 1.2q10.5 3.7 17.5 12.4c3.5 4.2 5.6 8.3 11.7 30 4.2 14.8 2.7 11.1 7.8 30.7 4.8 18.4 6.6 23.7 3.2 26.5-3.9 3.2-12.2 1.2-19.4-0.6-8.9-2.2-8.9-4.2-15-5.3-13.4-2.4-22 6.1-25.9 2.9-3.1-2.5 1.2-8.3 3.9-20.6 2.7-12.3 1.8-22.1 0.6-34.7-0.6-7-1.9-15.9-4.5-26-1.2-5.7 0.4-11.2 4.5-14.1z"/>
				<path id="&lt;Path&gt;" class="s23" d="m1115 282.5q3.3 4.1 6.5 4.7c3.3 0.6-8.4 2.4-9.7 6.5q0.4-2.7 1.3-4.1c0.3-0.5 0.4-1.2 0.1-1.7l-1.4-3z"/>
				<g id="&lt;Group&gt;">
					<path id="&lt;Path&gt;" class="s24" d="m1107.4 279.4c-1-1.3-1.1-3.4 0.1-4.8 1-1.2 2.6-1.4 3.6-1.5 2.8-0.2 6.3 0.8 7.5 3.1 0.8 1.4-0.8 4.3-1.1 4.8-0.2 0.6-0.7 0.8-1.2 1.2-0.7 0.6-1.7 1.6-3.3 3.2-0.2-0.4-0.4-1-0.7-1.7-0.1-0.2-0.6-1.2-1.3-2-1.4-1.6-2.6-1.1-3.6-2.3z"/>
					<path id="&lt;Path&gt;" class="s25" d="m1115.3 284.1q-1.8 2.7-5.5 2.5c-3.2-0.2-3.7-6.9-1.6-8.3 0.7-0.4 2.1-0.6 3.2-0.3 0.7 0.1 0.9 0.4 2 0.6 1 0.3 1.3 0.2 1.6 0.4 0.4 0.3 0.7 1 0 3 0.7-0.6 1.4-0.8 1.9-0.6 0.1 0 0.4 0.2 0.5 0.4 0.4 0.7-0.3 1.7-2.1 2.3z"/>
					<path id="&lt;Path&gt;" class="s26" d="m1117.4 280.3q-0.1 0.2-0.4 0.5c-0.6 0.9-1.2 1.1-1.6 1.5-0.9 0.9-0.2 1.6-1 2.9-0.7 1.2-2.2 1.6-2.6 1.8-0.7 0.2-2.3 0.7-3.6-0.1-1.2-0.8-1.7-2.4-1.2-4 0.6-0.1 1.4-0.2 2.4-0.1 1.6 0.1 1.9 0.7 2.9 0.6 1.7-0.2 3.3-1.9 3.2-3.4 0-0.7-0.5-1.3-0.3-1.4 0.2-0.1 1.3 0.9 2.2 1.7z"/>
					<path id="&lt;Path&gt;" class="s27" d="m1108.2 283.5q0.7 0.3 1.9 0.3c0.1 0 0.2 0 0.2 0 0 0.1-0.8 0.6-1.5 0.4-0.5-0.1-0.9-0.6-0.9-0.7 0.1 0 0.2 0 0.3 0z"/>
				</g>
				<g id="&lt;Group&gt;">
					<path id="&lt;Path&gt;" class="s28" d="m1090.4 284c2.4 2.2 25.3 23.3 19.4 53.1-5.8 29.3-34.5 42-39.6 44.1-24 10-55 7.9-76-8.9-14.6-11.7-23.3-29.8-22.6-46 0.2-4.6 1.1-8.7 1.9-12.3 2.3-10 5.2-22.8 14.3-31.8 8.7-8.6 19.9-10.6 29.3-12.4 11.1-2 47.5-8.8 73.3 14.2z"/>
					<path id="&lt;Path&gt;" class="s29" d="m1104.1 352.5c-10.5 18.5-29.8 27-33.9 28.7-24 10-55 7.9-76-8.9-14.6-11.7-23.3-29.8-22.6-46 0.2-4.6 1.1-8.7 1.9-12.3 2.3-10 5.2-22.8 14.3-31.8 8.6-8.5 19.7-10.6 29-12.3-7.8 7.1-9.1 12.4-8.5 16.1 2.1 14.1 31.5 13.6 42.1 34.8 8.3 16.4-3.2 29 4.5 36.5 5.3 5.3 18.3 6.7 49.2-4.8z"/>
					<path id="&lt;Path&gt;" class="s30" d="m1061.7 290.7c-0.9 10.3-4.6 20.6-8.5 30.3-3.9 9.3-8.6 18.3-14.2 26.9-5 7.6-10.8 15.1-17.7 21.5-4.4 4-11.5 10.1-18.4 7.9-0.9-0.3-0.5-1.6 0.4-1.3 7.6 2.4 16-6.5 20.3-11.1 13.2-13.7 22.7-30.5 29.4-47.6 3.5-8.9 6.8-18.2 7.5-27.7 0.2-3.6 0.1-7.3-0.3-10.9-0.4-3.5-1.2-7.5-4.4-9.8-0.2-0.2 0.1-0.6 0.4-0.4 3.2 2.1 4.3 5.5 4.9 8.9 0.8 4.3 1 9 0.6 13.3z"/>
					<path id="&lt;Path&gt;" class="s31" d="m1074.4 297.4c-0.1 20.6-11.9 38.6-23.9 55.3-5.7 7.9-12 16.1-19.8 22.4-6.5 5.2-14.3 9.3-22.4 6.3q-0.3-0.1-0.4-0.2-1.1-0.4-2.2-1c-0.2-0.2-0.3-0.5-0.2-0.7-0.5-0.6 0.3-1.3 0.8-0.8 0.3 0.4 3.4-0.5 3.8-0.6 1.8-0.5 3.5-1.4 5.1-2.2 2.5-1.3 4.8-2.8 6.9-4.6 4.3-3.4 8.2-7.3 11.8-11.4 7.6-8.3 14.1-17.6 19.3-27.3 5.2-9.7 9.2-20.2 11.1-31 0.9-5.4 1.4-11.2 0.8-16.8-0.6-5.5-3-10.5-5.1-15.6 0-0.2 0.3-0.3 0.4-0.2 5.5 9 6.8 18 5.7 28.1-1.8 17.5-9.6 34.2-19.8 49-5.1 7.4-11 14.5-17.7 20.9-3.1 3-6.4 5.9-10.1 8.2-2.1 1.4-4.5 2.6-6.8 3.5-1.4 0.5-2.9 0.7-4.3 1q0.7 0.4 1.4 0.6c11.9-1.5 21.6-10.1 28.7-18.3 7.8-8.9 14.1-19 19.5-29.2 5.6-10.6 11-21.7 11.6-33.5 0.3-5.8-0.4-11.7-1.9-17.3-0.7-3-1.8-5.8-3.3-8.5-0.9-1.7-1.6-2.3-1.5-4.2 0-0.3 0.6 0.3 0.6 0.6 0.2 2.4 2.3 3.8 3.4 6.1 1 2.3 1.8 4.7 2.4 7.2 1.1 4.9 1.7 10 1.5 15-0.2 9.5-3.5 18.1-7.5 26.7-4 8.6-8.7 17-14 25-5.2 7.7-11 15.2-18.4 21.4-4.9 4.1-11.5 8.5-18.5 9.7 9.7 1.7 18.9-6.6 25-13.1 6.4-6.8 11.9-14.3 17.1-21.8 5.6-8.2 10.9-16.2 14.5-25.3 3.4-8.3 5.4-17.1 5.1-26.1-0.3-5.1-1.2-10-3.5-14.8q-1.6-3.1-3.4-6c-1-1.6-1.7-2.8-3-4-0.3-0.3 0.3-0.2 0.6 0 1.8 1.4 2.6 2.6 3.8 4.4 1.4 2.2 2.7 4.4 3.8 6.7 2.4 5.1 3 10.9 3 16.4z"/>
					<path id="&lt;Path&gt;" class="s32" d="m1082.5 373.8c-9.8-2.5-18.3-7.8-26.1-13.7-13.9-10.6-25.1-24.1-34.2-38.3-5-8-9.4-16.4-12.8-25-1.6-4.2-3-8.5-4.1-12.8-1-3.7-0.6-7.9-1.8-11.5-0.2-0.5 0.6-0.7 0.8-0.2 0.7 1.9 0.7 3.9 0.9 5.9 0.3 2.9 1.2 5.8 2.1 8.6 1.6 5.2 3.5 10.3 5.8 15.3 4.6 10.3 10.6 20.2 17.5 29.4 6.4 8.7 13.8 16.9 22.3 24.1 8.6 7.2 18.6 14 30 17 0.9 0.2 0.5 1.4-0.4 1.2z"/>
					<path id="&lt;Path&gt;" class="s33" d="m1078.8 376.1c-1.3-0.4-2.5-0.3-3.9-0.6-1.6-0.3-3-1.2-4.4-1.9-2.9-1.5-5.6-3.2-8.1-5.1-4.3-3.3-8.3-7-12.3-10.7-8-7.5-15.7-15.4-22.4-24-6.7-8.5-12.5-17.7-17.1-27.2-5-10.5-7.4-22.8-7.9-34.2 0-0.5-0.7-0.5-0.7 0-0.9 35.7 24.9 66.4 51.5 90.4 3.7 3.3 7.4 6.5 11.6 9.3 2.2 1.4 4.5 2.7 6.9 3.8 2.2 0.9 4.2 0.8 6.4 1.4 0.9 0.2 1.2-0.9 0.4-1.2z"/>
					<path id="&lt;Path&gt;" class="s34" d="m1074.5 379.5c-9.8-3.1-17.2-9.6-24.4-16.2-13.4-12.3-26.2-25.3-35.6-40.5-9.2-14.9-15.5-32.8-14.5-50 0.1-0.5 0.8-0.5 0.8 0 0.8 11.1 2.3 21.9 6.4 32.4 4 10.3 9.8 19.9 16.7 28.8 6.9 8.7 14.7 16.7 22.8 24.4 8.3 7.7 16.7 16.3 28.2 19.9 0.8 0.2 0.5 1.4-0.4 1.2z"/>
					<path id="&lt;Path&gt;" class="s35" d="m1069.6 381.6c-9-4.7-16.7-11.5-24.5-17.7-13.6-10.9-25.5-24-33.6-38.9-4.2-7.7-7.7-15.9-10.5-24.1-1.5-4.2-2.8-8.5-3.5-12.9-0.6-4.5 0.3-8.6 0.3-13.1 0-0.5 0.8-0.5 0.9 0 0.4 3-0.3 5.9-0.2 8.8 0.1 3.1 0.6 6.1 1.4 9.1 1.4 5.2 3.3 10.3 5.3 15.3 4.1 10 8.9 19.7 15.4 28.6 6.4 8.7 13.9 16.6 22.3 23.6 4 3.4 8.3 6.6 12.5 9.9 4.7 3.8 9.5 7.4 14.9 10.3 0.8 0.4 0.1 1.5-0.7 1.1z"/>
					<path id="&lt;Path&gt;" class="s36" d="m1109.3 336.9h-0.6c-0.5 0-0.7-0.4-0.6-0.7-4-3.2-9-5-14-6.6q-8.4-2.9-17.1-4.7c-11.9-2.4-24.1-4.3-36.3-5.2-11.9-1-24-0.8-35.8 0.2-6.4 0.5-12.9 1.3-19 3-5.2 1.6-10.4 3.2-15.6 4.9-0.3 0.1-0.5-0.4-0.1-0.6 2.6-1 5-2.1 7.7-2.9 3-0.8 5.8-1.8 8.8-2.7 5.9-1.7 12.1-2.3 18.2-2.9 12.6-1 25.6-1.1 38.2 0 12.3 1.1 24.7 2.9 36.6 5.6q9 2 17.6 5c4.5 1.7 8.9 3.5 12.5 6.6 0.4 0.3 0.1 1-0.5 1z"/>
					<path id="&lt;Path&gt;" class="s37" d="m1110.4 331.3c-0.3 0.4-0.5 0.5-1 0.5-0.9 0-0.9-1.2 0-1.2-1.6 0-2.5-0.8-3.8-1.5-1.5-0.6-3-1.2-4.5-1.7q-3.6-1.2-7.3-2.1c-5.6-1.4-11.2-2.5-16.9-3.5-12.1-2.2-24.3-3.6-36.6-4.4-23.4-1.3-47.8-0.8-69.7 7.8-0.3 0.2-0.7-0.3-0.3-0.5 21.3-10.1 47.9-9.8 71.2-8.4 12.4 0.7 24.8 2.3 37 4.5 6.4 1.2 12.9 2.4 19.2 4.2 4.4 1.3 9.1 2.7 12.6 5.6 0.2 0.1 0.3 0.5 0.1 0.7z"/>
					<path id="&lt;Path&gt;" class="s38" d="m1111.1 329.9c-7.2-6.4-18.9-7.9-28.4-9.6-12.7-2.3-25.6-3.7-38.5-4.4-12.4-0.6-25-0.8-37.4 0-12.1 0.7-24.9 2-35.7 7.4-0.4 0.2-0.8-0.4-0.4-0.6 9-5.1 19.6-6.6 29.9-7.5 20.9-2 42.3-1.3 63.1 1.1q14.2 1.5 28.2 4.5c7.2 1.5 14.8 3.4 20.1 8.2 0.7 0.5-0.3 1.4-0.9 0.9z"/>
					<path id="&lt;Path&gt;" class="s39" d="m1111 327c-2.1-1.4-4-3-6.3-4.2-2.7-1.3-5.9-1.9-8.9-2.7-5.7-1.6-11.6-2.6-17.5-3.5-12.6-2-25.4-2.5-38.2-3.6-12.7-1.1-25.8-2.1-38.5-0.4-6 0.7-11.7 1.8-17.4 3.5-3.8 1.1-9.1 1.6-12.5 3.6-0.3 0.2-0.6-0.2-0.4-0.5 2.3-1.9 6-2.3 8.9-3.2 5.3-1.5 10.6-3.2 16.2-4 4.7-0.6 9.4-1.4 14.2-1.5 5-0.2 10.1 0.2 15.1 0.4 10.8 0.5 21.5 1.7 32.2 2.3 9.8 0.6 19.6 1.8 29.2 3.6 5 0.9 9.8 2.2 14.6 3.6 3.9 1.2 6.8 3.3 10 5.5 0.7 0.5 0 1.6-0.7 1.1z"/>
					<g id="&lt;Group&gt;">
						<path id="&lt;Path&gt;" class="s40" d="m1042.5 268.3c-4.2 2.6-6.7 7.2-9 11.3-2.3 4-4.6 8.1-6.7 12.3-5.5 10.3-9.5 21.1-12.8 32.1-3.3 11.1-6 22.4-7.6 33.8-0.4 3.3-0.9 6.7-1.3 10-0.4 2.7-1.6 8 0.6 10.2 0.7 0.7-0.3 1.6-1 0.9-1.6-1.6-1.5-4.5-1.4-6.6 0.1-3.1 0.6-6.2 1.1-9.4 2.8-18.4 6.8-36.3 13.4-54 3.3-8.8 7.8-17.2 12.4-25.5 3-5.4 5.9-12.5 12-15.6 0.4-0.1 0.7 0.3 0.3 0.5z"/>
						<path id="&lt;Path&gt;" class="s41" d="m1038 267.7c-3.3 2.2-5.3 6.2-7.2 9.4-2.5 4.4-4.9 9-6.9 13.6-3.9 9-6.8 18.5-10.1 27.7-3.5 9.5-6.2 19.4-8.2 29.3-1.9 9.7-4.4 20.2-2.3 30 0.2 0.8-1.2 1.2-1.3 0.4-2.2-9.7 0.2-20.1 2.1-29.7 2.1-10.6 4.9-21.2 8.8-31.4 3.6-9.7 6.4-19.8 11-29.2 2.3-4.5 4.6-9.1 7.4-13.4 1.6-2.5 3.5-5.7 6.4-7.1 0.3-0.2 0.6 0.2 0.3 0.4z"/>
						<path id="&lt;Path&gt;" class="s42" d="m1034.1 266.7c-2.2 4.6-5.6 8.8-8.4 13.1-2.8 4.3-5.3 8.7-7.3 13.3-3.6 8.6-7 17.7-9.5 26.6-2.6 9.5-5.2 19-7 28.6-0.8 4.5-1.2 9-1.9 13.5-0.8 4.6-2 9.3-0.6 13.9 0.3 0.8-1.1 1.1-1.3 0.3-1.3-3.7-0.8-7.6-0.1-11.4 0.8-4.6 1.3-9.2 2.1-13.8 1.7-10.2 4.5-20.3 7.2-30.3 2.6-9.7 6.2-19.5 10.3-28.7 3.9-8.9 9.8-17.6 16.2-25.3 0.1-0.2 0.4 0 0.3 0.2z"/>
						<path id="&lt;Path&gt;" class="s43" d="m1029 267.9c-1.9 4-5.6 7.1-7.9 10.9-2.4 3.9-4.3 8-6.2 12.1-4.3 9-6.7 18.2-9.6 27.6-5.5 18.3-13.1 37.9-8.2 56.9 0.2 0.7-1 1-1.2 0.3-3.3-8.7-1.8-19-0.2-27.8 1.9-9.7 5.1-19.2 8-28.7 2.8-9.3 5.2-18.5 9.4-27.4 2-4.4 4.2-8.9 6.7-13.1 2.5-4 6.1-7.2 8.7-11.1 0.2-0.3 0.7 0 0.5 0.3z"/>
					</g>
					<g id="&lt;Group&gt;">
						<path id="&lt;Path&gt;" class="s44" d="m1090.2 284.9c-3 4.7-5.5 9.4-9.1 13.8-3.5 4.2-7.3 8.2-11.3 12.1-8.3 7.8-17.6 15-27.6 20.9-10.4 6.1-21.6 11.8-33 16.1-5.5 2.1-10.8 4.5-16.4 6.3-2.9 1-5.8 1.6-8.7 2.4-1.3 0.3-2.7 1-4 0.5-0.9-0.3-0.5-1.5 0.4-1.2 1.6 0.5 5.7-1.2 7.3-1.6 3-0.8 5.9-1.7 8.7-2.8 5.5-2.1 11.1-4.1 16.4-6.5 10.3-4.6 20.5-9.4 30.1-15.1 9.7-5.9 18.7-12.9 26.7-20.6 4.2-4 8.3-8.2 11.8-12.7 3-3.8 5.1-8.2 8.2-11.9 0.2-0.2 0.6 0.1 0.5 0.3z"/>
						<path id="&lt;Path&gt;" class="s45" d="m1092.1 285.4c-2.5 4.8-4.6 9.8-7.8 14.4-3 4.3-6.5 8.4-10.3 12.2-7.8 8-16.7 14.9-26.7 20.6-10.7 6-22.1 11.4-33.5 16.4-5.4 2.4-11 4.8-16.8 6.5-2.9 0.9-5.8 1.5-8.7 2.4-2.2 0.6-4.4 1.3-6.7 1.3-0.9 0-0.9-1.2 0-1.2 2.9 0 5.6-1.1 8.3-1.9 2.6-0.7 5.3-1.3 7.8-2.1 6.1-1.9 11.9-4.5 17.7-7 10.5-4.8 21.2-9.8 31.3-15.5 9.8-5.5 18.6-12.5 26.4-20.3 4-4 7.7-8.2 10.9-12.8 2.9-4.3 4.8-9 7.6-13.3 0.2-0.3 0.7 0 0.5 0.3z"/>
						<path id="&lt;Path&gt;" class="s46" d="m1093.9 287.3c-1.4 1.3-2 4.9-2.6 6.5-0.8 2.2-1.9 4.2-3.2 6.2-2.7 4-6 7.6-9.3 11.2-13.5 14.4-30.1 24.8-48.4 33.5-9.2 4.4-18.5 8.3-28 11.9-4.1 1.6-8.3 3.2-12.5 4.6-1.9 0.6-4.9 1.8-6.7 0.6-0.8-0.5-0.1-1.6 0.7-1.1 1.6 1 4.7-0.5 6.3-1q3.6-1.3 7.2-2.6 9.3-3.5 18.5-7.3c11.1-4.6 22-9.7 32.3-15.7 10.6-6.2 19.9-13.5 28.2-22.1 4.2-4.4 8.3-8.9 11.6-13.8 1.7-2.6 2.7-5.3 3.8-8.1 0.4-1 0.7-2.5 1.6-3.2 0.3-0.2 0.8 0.2 0.5 0.4z"/>
						<path id="&lt;Path&gt;" class="s47" d="m1095.3 288.9c-2.2 9-7.4 17.3-13.6 24.6-11.4 13.4-26.8 24.2-43.3 32-9.6 4.5-19.5 8.6-29.3 12.7-4.4 1.9-8.9 3.9-13.6 5.2-2.9 0.8-6.5 2.2-9.6 1.6-0.9-0.2-0.5-1.5 0.4-1.3 2.4 0.6 5.4-0.7 7.8-1.3 3.2-0.8 6.3-2 9.4-3.2 5.6-2.3 11.2-4.8 16.7-7.3 11-4.8 22.1-9.2 32.3-15.5 18.9-11.8 35.1-27.6 42.1-47.7 0.1-0.4 0.8-0.3 0.7 0.2z"/>
					</g>
				</g>
				<path id="&lt;Path&gt;" class="s48" d="m1152 387.3q-1-0.3-1.9-0.5c-8.9-2.2-8.9-4.2-15-5.3-13.4-2.4-22 6.1-25.9 2.9-3.1-2.5 1.2-8.3 3.9-20.6 2.7-12.3 1.8-22.1 0.6-34.7-0.6-7-1.9-15.9-4.5-26-0.6-2.8-0.5-5.7 0.3-8.1 3.4-2.9 9.4-6.7 16.2-6 12.9 1.4 19.2 18.1 20.8 27.1 1.3 7.4-0.5 9.4-0.6 17.1-0.4 26.6 21.6 40.3 15.5 49.5-1.2 1.8-3.6 3.7-9.4 4.6z"/>
				<g id="&lt;Group&gt;">
					<path id="&lt;Path&gt;" class="s49" d="m1094.2 349.1q-6.4 0.6-9-1.2c-2.6-1.8-2-2.4 1.3-1.8q3.2 0.6 4.5 0c-1.3-1.7-1.3-4.1 0.7-1.1q1.9 2.9 2.5 2.9z"/>
					<path id="&lt;Path&gt;" class="s0" d="m1111.8 341.4c10.6-8.5 10.4-26.5 10.4-28.8-0.2-6.3-1.6-10.9 1.9-14.8 2.1-2.2 5.8-4 9.1-3.5 8.2 1.3 10.8 15.8 11 17.1 2.8 16.2-7.1 39.9-27.2 43.6-10.1 1.8-19.1-2-24.1-4.7q0.7-1.8 1.3-3.6c10-0.1 15.2-3.4 17.6-5.3z"/>
				</g>
			</g>
			<g id="&lt;Group&gt;">
				<path id="&lt;Path&gt;" class="s50" d="m811.3 477.7c1.6 1.3 3.5 2.8 3.3 3.3-0.1 0.6-1.4 0.7-5-0.7-2.6-0.9-4.2-2-4.9-2.5-0.4-0.2-0.6-0.6-0.6-1q0-1.3 0.9-2 4.7 1.6 6.3 2.9z"/>
				<path id="&lt;Path&gt;" class="s51" d="m807.8 470.1q-0.5 1.9 0.6 6.4-2.1 1.2-3.5 0 0.1-1.8-1.1-6.8z"/>
				<path id="&lt;Path&gt;" class="s52" d="m770.2 480.2c1.4 1.5 3 3.2 2.8 3.7-0.3 0.5-1.5 0.5-4.9-1.3-2.4-1.3-3.8-2.5-4.5-3.2-0.3-0.2-0.4-0.6-0.4-1q0.2-1.3 1.2-1.9 4.4 2.2 5.8 3.7z"/>
				<path id="&lt;Path&gt;" class="s53" d="m766.7 472.3q-0.5 1.9 0.5 6.4-2 1.2-3.5 0 0.1-1.8-1-6.8z"/>
				<path id="&lt;Path&gt;" class="s54" d="m818.1 365.6c0.4 14.9 0.1 31-1 48-1.3 21.2-3.8 40.9-6.9 58.8-1.1 0.3-2.6 0.6-4.4 0.6-1.3-0.1-2.4-0.2-3.3-0.4-0.5-2.1-1.3-5.3-2.3-9.2-1.8-7.1-2.3-8.1-2.9-10.5-2.4-10.1 0.8-13-0.7-23.4-0.4-2.3-0.5-2.1-3.9-13.1-4.2-13.8-6.3-20.6-7.3-25.9-2.7-14.1-4-21.1 0.4-25.5 5.7-5.7 18.9-4.8 32.3 0.6z"/>
				<path id="&lt;Path&gt;" class="s55" d="m810.8 469.1q-0.3 1.7-0.6 3.3c-1.1 0.3-2.6 0.6-4.4 0.6-1.3-0.1-2.4-0.2-3.3-0.4-0.5-2.1-1.3-5.3-2.3-9.2-1.8-7.1-2.3-8.1-2.9-10.5-2.4-10.1 0.8-13-0.7-23.4-0.4-2.3-0.5-2.1-3.9-13.1-4.2-13.8-6.3-20.6-7.3-25.9-2.7-14.1-4-21.1 0.4-25.5 4.6-4.6 14.4-4.9 25.2-1.9-9.6 12.4-10.9 21.9-10.2 28.5 1 9.5 6.4 13.6 5.6 26-0.5 6.6-2.2 8.6-1.6 15.7 0.7 7.8 3.1 8.7 3.1 15.6 0 8-3.1 10.3-1.3 15 0.8 2.1 2.4 3.9 4.2 5.2z"/>
				<path id="&lt;Path&gt;" class="s56" d="m800.4 364.5c-6.6 16.3-13.1 34.4-18.8 54.3-5.6 19.2-9.7 37.4-12.8 54.2-0.8 0.3-2.5 0.9-4.6 0.8-1.8 0-3.2-0.5-4-0.8-2.2-4.9-4.4-11.3-5.7-18.9-0.9-4.9-1.8-10.3-1.1-17.1 1-9.1 3.8-10.6 5-19.6 1-6.7-0.2-8-0.5-17.8-0.5-15.1-0.7-22.9 3.4-28.3 9-11.5 34.8-7.5 39.1-6.8z"/>
				<path id="&lt;Path&gt;" class="s57" d="m755.2 297.1c2.9-2.7 12.7-11.4 28.8-13.5 16.4-2.2 28.7 3.7 32.2 5.6 6.9 13.9 6.8 23.9 5.4 30.6-0.9 4.1-2 5.6-2.5 10.6-0.9 8.7 1.5 12.5 3.6 23.6 0.7 3.3 4.2 21.8-0.2 23.3-2.3 0.7-4.2-4.4-10.9-5.6-4.7-0.9-6.3 1.1-12.4 0.7-5.5-0.5-5.7-2.3-10.2-2.9-7.2-1-9.9 3.2-23.6 7-6.8 1.9-12.1 3.3-14.6 1-1.6-1.5-1.6-4.1-0.2-9.4 2.8-10.9 6.4-15.2 8.8-21.8 2.8-7.3 2.4-13.1 1.7-23-0.6-10.2-3-19-5.9-26.2z"/>
				<path id="&lt;Path&gt;" class="s58" d="m822.5 377.3c-2.3 0.7-4.2-4.4-10.9-5.6-4.7-0.9-6.3 1.1-12.4 0.7-5.5-0.5-5.7-2.3-10.2-2.9-7.2-1-9.9 3.2-23.6 7-6.8 1.9-12.1 3.3-14.6 1-1.6-1.5-1.6-4.1-0.2-9.4 2.8-10.9 6.4-15.2 8.8-21.8 2.8-7.3 2.4-13.1 1.7-23-0.4-6.8-1.6-13-3.2-18.5q0.2 0.3 0.4 0.6c4.4 4.8 11.9 1.6 20 7.6 6.7 4.9 8.6 12.4 9.2 14.6 3 11.6-3.6 17.9 0.6 21.8 4.5 4.2 13.4-1.9 19.9 2.9 5.3 3.8 2.4 9.8 7.2 14.1 1.7 1.5 4.6 2.9 9.5 3.1 0 3.9-0.5 7.2-2.2 7.8z"/>
				<path id="&lt;Path&gt;" class="s59" d="m758.3 346.5c-1.2-0.1-17.4-1.3-23.7-12.7-6.5-11.8 3.1-24.5 6.1-28.3 11.4-14.9 37.8-23.8 42.3-19.3 3.1 3.3-6.3 15.3-10.7 20.7-7.9 9.7-16.3 10.2-18.2 17.1-0.9 3.2-0.5 8.5 6.9 16.5q-1.3 3-2.7 6z"/>
				<g id="&lt;Group&gt;">
					<path id="&lt;Path&gt;" class="s60" d="m790.4 274.6c-1.1 2-1.9 4.6-0.6 6.4 1.9 2.9 7.7 1.9 8 3.3 0.3 1.3-4 3.7-8.4 4.5-7.6 1.4-15-1.8-14.9-2.8 0.1-0.4 1.7-0.1 4.3-1.2 1-0.4 3.7-1.5 5.1-3.9 1.7-2.7 0.9-5.8 0.4-7.2 1.5 1.2 4.6-0.3 6.1 0.9z"/>
					<g id="&lt;Group&gt;">
						<path id="&lt;Path&gt;" class="s61" d="m790.3 276.5c-0.5 0.8-0.7 1.8-0.8 2-0.1 0.7-0.2 1.2-0.2 1.7-1.7-1.2-2.7-2-3.3-2.4-0.4-0.4-0.9-0.5-1.2-1-0.3-0.4-2.1-2.8-1.7-4.1 0.6-2.3 3.4-3.8 5.7-3.9 0.8-0.1 2.2-0.2 3.2 0.7 1.2 1.1 1.5 3.1 0.9 4.4-0.7 1.2-1.7 0.9-2.6 2.6z"/>
						<path id="&lt;Path&gt;" class="s62" d="m785 277.5c0.1-0.2 0.3-0.3 0.3-0.4 0.4-0.3 1.1-0.2 1.7 0.2-0.9-1.6-0.7-2.3-0.5-2.6 0.2-0.3 0.5-0.3 1.3-0.6 0.9-0.4 1-0.7 1.5-0.9 0.9-0.5 2.1-0.5 2.7-0.2 2 1 2.7 7.1 0 7.8q-2.9 0.7-4.9-1.5c-1.5-0.2-2.3-1-2.1-1.8z"/>
					</g>
				</g>
				<path id="&lt;Path&gt;" class="s63" d="m760.1 342.6q2.5-2.7 4.7-2.1 2.2 0.5 4.9 2.8 0 2.4-2 1.7-2-0.6-8.8 0.2z"/>
				<path id="&lt;Path&gt;" class="s64" d="m801.3 284.4c4.3 0.2 10.6 1 16.8 4.3 9.1 4.7 9.2 10 16.8 12.3 7.8 2.5 17-0.3 23-4.7 4.7-3.5 6.9-7.8 7.9-10q2.3 0.5 4.7 1c-0.2 4.4-1.3 14.5-9.5 21.8-15.9 14.5-50.2 10.5-59.1-5.2-3.9-6.8-2.3-14.6-0.6-19.5z"/>
				<path id="&lt;Path&gt;" class="s65" d="m865.4 285.3q-1.5-2.4-0.6-2.7c0.8-0.1 1.7 1.2 2.2 2.2 0.3 0.7 1.2 0.9 1.9 0.6 2.4-1.3 5.6-1.7 7.6-1.9 0.9 0 1.4 0.9 0.9 1.5q-3 3.6-8.6 4.1c-2.7 0.1-2.9-2.8-3.4-3.8z"/>
			</g>
		</g>
	</g>
</svg>