<svg version="1.2" xmlns="http://www.w3.org/2000/svg" viewBox="0 0 1440 550" width="1440" height="550">
	<title>Sandy_Bus-22_Single-01-ai</title>
	<defs>
		<clipPath clipPathUnits="userSpaceOnUse" id="cp1">
			<path d="m1032.17 127.83q-0.76 3.48-3.42 5.48-2.65 2-6.2 1.77 0.75-3.48 3.41-5.48 2.66-2 6.21-1.77z"/>
		</clipPath>
		<clipPath clipPathUnits="userSpaceOnUse" id="cp2">
			<path d="m1006.83 133.75q3.05-1.84 6.33-1.28 3.28 0.56 5.55 3.3-3.05 1.84-6.33 1.28-3.28-0.56-5.55-3.3z"/>
		</clipPath>
	</defs>
	<style>
		.s0 { fill: #ffffff } 
		.s1 { fill: #f2e6dc } 
		.s2 { fill: #e6d0be } 
		.s3 { fill: #efbc73 } 
		.s4 { fill: #363e44 } 
		.s5 { fill: #e2a18d } 
		.s6 { fill: #9e9569 } 
		.s7 { fill: #40484c } 
		.s8 { fill: #776e42 } 
		.s9 { fill: #d87355 } 
		.s10 { fill: #8b865c } 
		.s11 { fill: #d3bba3 } 
	</style>
	<g id="Background">
		<path id="&lt;Path&gt;" class="s0" d="m0-25h1440v600h-1440z"/>
	</g>
	<g id="Illustration">
		<g id="Digital marketing strategy 1 ">
			<path id="&lt;Path&gt;" class="s1" d="m1328.6 275c0 132.2-107.2 239.4-239.4 239.4-132.2 0-239.4-107.2-239.4-239.4 0-132.2 107.2-239.4 239.4-239.4 132.2 0 239.4 107.2 239.4 239.4z"/>
			<g id="&lt;Group&gt;">
				<g id="&lt;Group&gt;">
					<g id="&lt;Group&gt;">
						<path id="&lt;Path&gt;" class="s2" d="m851.6 170.6h394.3v298.8h-394.3z"/>
						<path id="&lt;Path&gt;" class="s1" d="m864 182.9h369.5v250.1h-369.5z"/>
						<circle id="&lt;Path&gt;" class="s0" cx="1048.8" cy="449.7" r="7.4"/>
					</g>
					<path id="&lt;Path&gt;" class="s2" d="m1326.8 477.5c0 17.1-13.9 30.9-31 30.9h-413.2c-17.1 0-31-13.8-31-30.9z"/>
					<path id="&lt;Path&gt;" class="s1" d="m955.4 505.5c-13.7 0-24.8-11.1-24.8-24.8 0-0.2 0.1-0.3 0.3-0.3 0.1 0 0.2 0.1 0.2 0.3 0 13.4 10.9 24.3 24.3 24.3 0.2 0 0.3 0.1 0.3 0.2 0 0.2-0.1 0.3-0.3 0.3z"/>
					<path id="&lt;Path&gt;" class="s1" d="m1172.5 484.8c0 7.3-5.8 13.2-13.1 13.2h-46.3c-7.3 0-13.2-5.9-13.2-13.2z"/>
				</g>
				<g id="&lt;Group&gt;">
					<path id="&lt;Path&gt;" class="s3" d="m881.7 140.8h240.2v240.2h-240.2z"/>
					<g id="&lt;Group&gt;">
						<path id="&lt;Path&gt;" class="s4" d="m909.1 381c3.5-19.8 7.1-36.2 10.6-46.8 15.7-47.6 28.8-61.9 42-80.4q42.7 7.8 85.4 15.6c4.8 12.6 8.2 26.9 12.8 42 5.8 19.2 8 43.6 8 69.6z"/>
						<path id="&lt;Path&gt;" class="s4" d="m1016.8 111.1c7.1-1.9 19.2-2.3 23.8 4.3 6.7 9.2-5.8 19.7 1.2 30.1 5.2 7.8 14 7.7 19.1 15.3 5.9 8.8 0.1 27.4-11 34.2-18 10.8-56.7-5-62.6-33.3-4.4-21.4 10.7-45.6 29.5-50.6z"/>
						<g id="&lt;Group&gt;">
							<path id="&lt;Path&gt;" class="s5" d="m1097.9 215.4c48.8 61.3 29.8 63.5 19.3 71.3-8.6 6.3-36.7-16.2-56.9-41.9-20.1-25.8-28.1-53.2-17.7-61.3 10.4-8.1 34.9 6.4 55.3 31.9z"/>
							<g id="&lt;Group&gt;">
								<path id="&lt;Path&gt;" class="s5" d="m1166.4 173.8c-0.4 2-0.7 3.5-0.8 4.1-1.1 6.8-4.7 18.8-8.1 32.6-7.9 32.5-12.9 46.6-19.6 61.6-2.5 5.9-10 15.5-24.2 15.7-4.5-13.2-10.4-28.5-15-41.7 6.8-18.5 22.1-60.3 23.7-64.5 0.9-2.6 3-8.3 5.6-14.8 7.5-2 15.2-2.4 22.9 0q4.1 1.3 8 3-0.2 0.8-0.4 1.3c0.1 0 0.3-0.5 0.6-1.2q3.8 1.8 7.3 3.9z"/>
							</g>
							<path id="&lt;Path&gt;" class="s5" d="m948.7 230c-16.6 11.7-62.1 47.1-74.2 30.5-14.6-20.1 33.7-54.3 49.6-67.1q12.3 18.3 24.6 36.6z"/>
							<path id="&lt;Path&gt;" class="s0" d="m909.9 200.2c5.8-5.4 49.6-44.6 109.3-34.9 34.3 5.7 57 24.8 66.4 33.7q-10.7 13.3-21.4 26.6 5.5 27.7 10.9 55.5c-27-0.3-114.3-2.9-141.8-3.8 4.9-15.7 9.8-24.1 14.7-39.7q-5.7 4.7-11.3 9.5c-8.8-14.7-19-33.1-26.8-46.9z"/>
							<g id="&lt;Group&gt;">
								<path id="&lt;Path&gt;" class="s6" d="m947.8 342.2l-53.7-53.7 68.5-68.6 53.8 53.7z"/>
								<g id="&lt;Group&gt;">
									<path id="&lt;Path&gt;" class="s4" d="m987.2 268.4q-0.1 0-0.2 0l-21-21c-0.1-0.1-0.1-0.3 0-0.4 0.1-0.1 0.3-0.1 0.4 0l20.9 21c0.1 0.1 0.1 0.2 0 0.4q0 0-0.1 0z"/>
									<path id="&lt;Path&gt;" class="s4" d="m977.5 278.1q-0.1 0-0.2-0.1l-20.9-20.9c-0.1-0.1-0.1-0.3 0-0.4 0.1-0.1 0.3-0.1 0.4 0l20.9 20.9c0.1 0.1 0.1 0.3 0 0.4q-0.1 0.1-0.2 0.1z"/>
									<path id="&lt;Path&gt;" class="s4" d="m979.9 270.8q-0.1 0-0.2 0l-16.1-16.2c-0.1-0.1-0.1-0.2 0-0.3 0.1-0.1 0.3-0.1 0.4 0l16.1 16.1c0.1 0.1 0.1 0.3 0 0.4q-0.1 0-0.2 0z"/>
								</g>
							</g>
							<g id="&lt;Group&gt;">
								<path id="&lt;Path&gt;" class="s5" d="m914.5 245c15.4 12.3 53 39.4 56.6 42.2 6.7 5.2 21.2 16 18.6 21.2-0.8 1.7-2.8 2.8-5.1 2.9 0.7 2.4-0.1 5-1.9 6.5-2.5 1.9-5.4 1-5.7 1 0.8 1.7 0.7 3.7-0.4 5.1-1.4 1.9-4.5 2.5-7 0.9 0 0.5-0.3 2.5-1.8 3.9-1.8 1.5-4.5 1.8-6.9 0.7-5.9-4.7-16.3-10.4-28.4-18-28.3-17.8-40.1-27-52.2-38.1-4.7-4.3-11.6-14.4-7.2-27.9 13.9-0.2 27.5-0.2 41.4-0.4z"/>
								<path id="&lt;Path&gt;" class="s4" d="m920.4 249.9q-0.1 0-0.2-0.1c-3.9-3-6.4-5-7.7-6-0.1-0.1-0.1-0.3-0.1-0.4 0.1-0.1 0.3-0.1 0.4 0 1.4 1 3.8 3 7.7 6 0.1 0.1 0.2 0.3 0.1 0.4q-0.1 0.1-0.2 0.1z"/>
								<g id="&lt;Group&gt;">
									<path id="&lt;Path&gt;" class="s4" d="m978.7 303.4q-0.1 0-0.2-0.1c-0.1-0.1-0.1-0.3 0-0.4l2.5-2.7c0.1-0.1 0.2-0.2 0.3-0.1 0.1 0.1 0.1 0.3 0 0.4l-2.4 2.8q-0.1 0.1-0.2 0.1z"/>
									<path id="&lt;Path&gt;" class="s4" d="m972.4 310.4q-0.1 0-0.2 0c-0.1-0.1-0.1-0.3 0-0.4l2.5-2.8c0.1-0.1 0.2-0.1 0.3 0 0.1 0.1 0.1 0.3 0 0.4l-2.4 2.7q-0.1 0.1-0.2 0.1z"/>
									<path id="&lt;Path&gt;" class="s4" d="m966 317.7q-0.1 0-0.1-0.1c-0.2-0.1-0.2-0.2-0.1-0.3l2.5-2.8c0.1-0.1 0.3-0.1 0.4 0 0.1 0.1 0.1 0.2 0 0.3l-2.5 2.8q-0.1 0.1-0.2 0.1z"/>
									<path id="&lt;Path&gt;" class="s4" d="m960.2 324.2q-0.1 0-0.2-0.1c-0.1-0.1-0.1-0.3 0-0.4l2.4-2.8c0.1-0.1 0.3-0.1 0.4 0 0.1 0.1 0.1 0.3 0 0.4l-2.5 2.8q0 0.1-0.1 0.1z"/>
								</g>
							</g>
							<g id="&lt;Group&gt;">
								<g id="&lt;Group&gt;">
									<g id="&lt;Group&gt;">
										<path id="&lt;Path&gt;" class="s7" d="m1163.7 181.2c-3.4 4.6-9.9 5.6-14.4 2.2l-36.9-27.5 12.2-16.5 36.9 27.5c4.6 3.3 5.5 9.8 2.2 14.3z"/>
										<path id="&lt;Path&gt;" class="s4" d="m1217.7 79.4c5.4 9 2.4 20.7-6.6 26.1-9.1 5.4-20.8 2.5-26.2-6.6-5.3-9-2.4-20.7 6.7-26.1 9-5.4 20.7-2.5 26.1 6.6z"/>
										<path id="&lt;Path&gt;" class="s6" d="m1178.9 51.5l44.8 75.3-92.3 24.5-18.1-30.3z"/>
										<path id="&lt;Path&gt;" class="s8" d="m1093.9 132.7l19.5-11.6 18 30.2-19.5 11.6z"/>
										<g id="&lt;Group&gt;">
											<path id="&lt;Path&gt;" class="s6" d="m1125.7 148.9l-13.9 8.3-3.2-5.3 13.9-8.3z"/>
											<path id="&lt;Path&gt;" class="s6" d="m1120.8 140.7l-13.9 8.3-3.2-5.4 13.9-8.2z"/>
											<path id="&lt;Path&gt;" class="s6" d="m1115.9 132.5l-13.9 8.2-3.2-5.3 13.9-8.2z"/>
										</g>
									</g>
									<g id="&lt;Group&gt;">
										<path id="&lt;Path&gt;" class="s3" d="m1212.4 64.9q-0.1 0-0.1 0c-0.1-0.1-0.2-0.2-0.2-0.4l4-13.6q0-0.2 0.1-0.2 0.1-0.1 0.3 0l9.8 5.8 8.9-15.1c0.1-0.1 0.2-0.1 0.4-0.1 0.1 0.1 0.1 0.3 0 0.4l-9 15.3c0 0.1-0.2 0.2-0.3 0.1l-9.8-5.8-3.9 13.4c0 0.1-0.1 0.2-0.2 0.2z"/>
										<path id="&lt;Path&gt;" class="s3" d="m1238.7 92q-0.1 0-0.1-0.1-0.1 0-0.2-0.1l-1.3-8.3-10.9 2.1c-0.1 0-0.3-0.1-0.3-0.2 0-0.2 0.1-0.3 0.2-0.3l11.2-2.2q0.1 0 0.2 0.1 0 0.1 0.1 0.2l1.3 8.2 14.8-5c0.1 0 0.2 0 0.3 0.2 0 0.1 0 0.3-0.2 0.3l-15 5.1q-0.1 0-0.1 0z"/>
										<path id="&lt;Path&gt;" class="s3" d="m1241.8 71.8q0 0 0 0-0.2 0-0.2-0.1l-5.3-7.1-6.8 5c-0.1 0.1-0.2 0.1-0.3 0-0.1-0.1-0.1-0.3 0-0.4l6.9-5.1c0.2-0.1 0.3-0.1 0.4 0l5.3 7 10.3-9.5c0.1-0.1 0.2-0.1 0.3 0 0.1 0.1 0.1 0.3 0 0.4l-10.4 9.7q-0.1 0.1-0.2 0.1z"/>
									</g>
								</g>
								<g id="&lt;Group&gt;">
									<path id="&lt;Path&gt;" class="s5" d="m1141.7 162.5c-1.7-1.1-2.1-3.4-0.9-5.1l4.3-6.1c1.1-1.7 3.5-2.1 5.1-0.9 1.7 1.1 2.1 3.5 0.9 5.1l-4.3 6.1c-1.1 1.7-3.4 2.1-5.1 0.9z"/>
									<path id="&lt;Path&gt;" class="s5" d="m1144.5 162.7l6.9-9.7c1.4-2 4-2.4 6-1.1 2 1.4 2.4 4.1 1.1 6.1l-6.9 9.7c-1.4 2-4.1 2.4-6 1.1-2-1.4-2.4-4.1-1.1-6.1z"/>
									<path id="&lt;Path&gt;" class="s5" d="m1151.3 167.5l6.8-9.8c1.4-1.9 4.1-2.4 6.1-1 1.9 1.4 2.4 4 1 6l-6.8 9.7c-1.4 2-4.1 2.5-6.1 1.1-1.9-1.4-2.4-4.1-1-6z"/>
									<path id="&lt;Path&gt;" class="s5" d="m1157.7 172.7l5.6-8c1.2-1.7 3.6-2.1 5.3-0.9 1.7 1.2 2.1 3.5 0.9 5.3l-5.5 7.9c-1.3 1.7-3.6 2.1-5.3 0.9-1.7-1.2-2.2-3.5-1-5.2z"/>
								</g>
								<path id="&lt;Path&gt;" class="s5" d="m1131 172.2c-2.1-0.2-3.6-2-3.4-4l0.6-7.5c0.2-2 2-3.5 4-3.4 2 0.2 3.6 2 3.4 4l2 13.2c-0.2 2.1-4.6-2.2-6.6-2.3z"/>
							</g>
						</g>
						<g id="&lt;Group&gt;">
							<path id="&lt;Path&gt;" class="s5" d="m1028.6 172.4c0 4.6-9.3 8.4-20.7 8.4-11.4 0-20.6-3.8-20.6-8.4 0-4.7 9.1-10.8 20.5-10.8 6.2 0 12.6 2.3 15.6 4.4 3.1 2 5.2 4.2 5.2 6.4z"/>
							<path id="&lt;Path&gt;" class="s5" d="m996.1 126.3h22.1v45.1h-22.1z"/>
							<path id="&lt;Path&gt;" class="s5" d="m1012.3 118.5c0.6-0.1 7-1.1 11.1 2.9 3.1 3 3.8 7.2 3.9 14.3 0.1 8.3-1 13.3-3.3 15.2-3.6 2.8-15.4-2.1-20.2-9-3.5-5-3.7-11.8-0.8-17.2 2.8-5.4 8.9-6.1 9.3-6.2z"/>
							<g id="&lt;Group&gt;">
								<path id="&lt;Path&gt;" class="s0" d="m1032.2 127.8q-0.6 2.4-2.3 4.4-0.1-0.3-0.3-0.6c-0.2-0.3-0.4-0.5-0.6-0.8-0.3-0.7-0.5-1.5-0.7-2.2q0 0 0 0c0-0.1-0.1-0.1-0.1-0.2q2.1-0.7 4-0.6z"/>
								<g id="&lt;Clip Group&gt;" clip-path="url(#cp1)">
									<path id="&lt;Path&gt;" class="s4" d="m1029.9 131.5c0.2 2.4-1.6 4.5-4 4.7-2.4 0.2-4.4-1.6-4.6-4-0.2-2.4 1.6-4.5 4-4.6 2.4-0.2 4.5 1.6 4.6 3.9z"/>
								</g>
							</g>
							<g id="&lt;Group&gt;">
								<path id="&lt;Path&gt;" class="s0" d="m1014.1 132.7q2.7 0.9 4.6 3.1-1.6 1-3.8 1.3c-0.6-0.7-0.8-1.4-0.9-2.3 0-0.7-0.1-1.5 0.1-2.1z"/>
								<g id="&lt;Clip Group&gt;" clip-path="url(#cp2)">
									<path id="&lt;Path&gt;" class="s4" d="m1007.6 132.6c1.6-1.8 4.3-1.9 6.1-0.3 1.8 1.6 1.9 4.3 0.3 6.1-1.6 1.8-4.4 1.9-6.1 0.3-1.8-1.6-2-4.4-0.3-6.1z"/>
								</g>
							</g>
							<path id="&lt;Path&gt;" class="s4" d="m1023.5 139.7q-0.1 0-0.2-0.1c-0.1 0-0.1-0.2-0.1-0.3q0.3-0.5 0.2-0.9c-0.1-0.3-0.3-0.5-0.5-0.7-0.3-0.2-0.6-0.4-0.8-0.7q-0.6-0.7-0.8-1.5c0-0.2 0.1-0.3 0.2-0.4 0.1 0 0.3 0.1 0.3 0.2q0.2 0.8 0.7 1.3c0.2 0.3 0.5 0.5 0.7 0.7 0.3 0.2 0.6 0.5 0.7 0.9q0.2 0.6-0.2 1.3-0.1 0.2-0.2 0.2z"/>
							<path id="&lt;Path&gt;" class="s4" d="m1020.9 144.4c-0.7 1-2 1.2-3 0.5-0.9-0.7-1.1-2-0.5-3 0.7-0.9 0.8 0.6 1.8 1.3 0.9 0.7 2.4 0.2 1.7 1.2z"/>
							<path id="&lt;Path&gt;" class="s4" d="m1029.2 110q-5.7 21.6-26.3 24.2 6.3 17.7 0.4 26c-6.6 9.4-19.1 5.6-25.4 17.5-3.8 7.2 4.5 22.5-5 31.5-11 10.6-33.2 1.8-42.9-7-9.4-8.5-14.2-27.4-5.4-36.2 7.3-7.3 23.8-4.3 30.1-9.6 8.6-7.2 1.9-15.9 7.9-26.6 6.1-10.8 21.1-9.9 25.3-12.6 3.2-2.1 7.6-13.1 19.3-14.8q12.4-1.8 22 7.6z"/>
							<path id="&lt;Path&gt;" class="s4" d="m1017 151.3q0 0 0 0c-5-1.6-9.2-4.9-9.2-4.9-0.1-0.1-0.2-0.2-0.1-0.4 0.1-0.1 0.3-0.1 0.4 0 0 0 4.1 3.2 9 4.8 0.2 0 0.2 0.2 0.2 0.3 0 0.1-0.1 0.2-0.3 0.2z"/>
						</g>
					</g>
				</g>
				<g id="&lt;Group&gt;">
					<g id="&lt;Group&gt;">
						<path id="&lt;Path&gt;" class="s0" d="m1031.8 433.3c-0.2 0-0.3-0.1-0.3-0.3v-99.6l-43.4 38.1v61.5c0 0.2-0.1 0.3-0.3 0.3-0.1 0-0.2-0.1-0.2-0.3v-61.7q0-0.1 0.1-0.2l43.9-38.5q0.1-0.1 0.3 0 0.1 0.1 0.1 0.2v100.2c0 0.2-0.1 0.3-0.2 0.3z"/>
						<path id="&lt;Path&gt;" class="s0" d="m1090.9 433.3c-0.1 0-0.2-0.1-0.2-0.3v-115.3h-43.5v115.3c0 0.2-0.1 0.3-0.2 0.3-0.2 0-0.3-0.1-0.3-0.3v-115.6c0-0.2 0.1-0.3 0.3-0.3h43.9c0.2 0 0.3 0.1 0.3 0.3v115.6c0 0.2-0.1 0.3-0.3 0.3z"/>
						<path id="&lt;Path&gt;" class="s0" d="m1150 433.3c-0.1 0-0.2-0.1-0.2-0.3v-85.8h-43.4v85.8c0 0.2-0.2 0.3-0.3 0.3-0.1 0-0.3-0.1-0.3-0.3v-86.1c0-0.1 0.2-0.2 0.3-0.2h43.9c0.2 0 0.3 0.1 0.3 0.2v86.1c0 0.2-0.1 0.3-0.3 0.3z"/>
						<path id="&lt;Path&gt;" class="s0" d="m1209.2 433.3c-0.2 0-0.3-0.1-0.3-0.3v-150.1l-43.4 37.5v112.6c0 0.2-0.1 0.3-0.3 0.3-0.1 0-0.2-0.1-0.2-0.3v-112.7q0-0.1 0.1-0.2l43.9-38q0.1-0.1 0.3-0.1 0.1 0.1 0.1 0.3v150.7c0 0.2-0.1 0.3-0.2 0.3z"/>
					</g>
					<g id="&lt;Group&gt;">
						<path id="&lt;Path&gt;" class="s9" d="m1284.6 225l-154.9 154.8-61.5-61.5-115.7 115.6h-33.1l148.8-148.8 61.5 61.6 138.3-138.3z"/>
						<path id="&lt;Path&gt;" class="s9" d="m1287.7 247.3l-39.2-39.2 58.9-19.7z"/>
					</g>
				</g>
			</g>
			<g id="&lt;Group&gt;">
				<g id="&lt;Group&gt;">
					<path id="&lt;Compound Path&gt;" fill-rule="evenodd" class="s1" d="m1194.4 386.4c-6.8-16.6-6.8-34.9 0.2-51.5 6.9-16.6 19.9-29.6 36.5-36.4 16.7-6.8 35-6.8 51.6 0.1 16.6 7 29.5 20 36.4 36.6 6.8 16.7 6.7 35-0.2 51.6-6.9 16.6-19.9 29.5-36.5 36.3-16.7 6.9-35 6.8-51.6-0.1-16.6-6.9-29.5-19.9-36.4-36.6zm105-43.1c-9.7-23.5-36.7-34.8-60.2-25.1-23.5 9.6-34.8 36.6-25.1 60.1 9.7 23.6 36.7 34.8 60.2 25.2 23.5-9.7 34.7-36.7 25.1-60.2z"/>
					<path id="&lt;Compound Path&gt;" fill-rule="evenodd" class="s0" d="m1196.9 385.4c-6.6-16-6.5-33.6 0.1-49.5 6.7-16 19.2-28.4 35.1-34.9 16-6.6 33.6-6.6 49.6 0.1 15.9 6.7 28.3 19.1 34.9 35.1 6.6 16 6.5 33.6-0.1 49.6-6.7 15.9-19.2 28.3-35.2 34.9-15.9 6.5-33.5 6.5-49.5-0.2-15.9-6.6-28.3-19.1-34.9-35.1zm104.9-43.1c-10.2-24.9-38.7-36.8-63.6-26.6-24.9 10.2-36.8 38.8-26.6 63.7 10.3 24.8 38.8 36.7 63.7 26.5 24.8-10.2 36.8-38.7 26.5-63.6z"/>
					<g id="&lt;Group&gt;">
						<path id="&lt;Path&gt;" class="s9" d="m1320.7 351.1c1.8 11.6 0.4 23.5-4.2 34.7-6.2 14.7-17.3 26.4-31.6 33.3l-6.1-14.8c18.7-9.4 28.9-29.7 26.3-49.9z"/>
						<path id="&lt;Path&gt;" class="s10" d="m1277.7 422c-15 5.2-31.1 4.7-45.9-1.5-15.9-6.6-28.3-19.1-34.9-35.1-6.6-16-6.5-33.6 0.1-49.5q0.3-0.6 0.5-1.1l14.3 7.3c-4.8 11.5-5.3 24.8-0.2 37.3 9.8 23.6 36.1 35.6 60.1 27.8z"/>
						<path id="&lt;Path&gt;" class="s3" d="m1294.3 308.1c9.9 7 17.6 16.6 22.3 28.1q1.5 3.6 2.5 7.3l-15.6 3.4q-0.7-2.3-1.7-4.6c-3.5-8.5-9.1-15.5-16-20.6z"/>
						<path id="&lt;Path&gt;" class="s11" d="m1287.7 304l-8.5 13.6c-12.3-6.4-27.2-7.5-41-1.9-9.9 4.1-17.7 11-22.9 19.5l-14.3-7.3c7.1-12.1 17.9-21.5 31.1-26.9 16-6.6 33.6-6.6 49.6 0.1q3.1 1.3 6 2.9z"/>
					</g>
				</g>
				<g id="&lt;Group&gt;">
					<path id="&lt;Compound Path&gt;" fill-rule="evenodd" class="s10" d="m1256.7 376.7c-3 0-5.9-0.8-8.5-2.5-3.7-2.2-6.2-5.8-7.2-10-0.9-4.1-0.2-8.5 2.1-12.1 2.3-3.6 5.8-6.2 10-7.1 8.6-2 17.3 3.4 19.2 12 2 8.6-3.4 17.3-12 19.3q-1.8 0.4-3.6 0.4zm0-31.6q-1.7 0-3.5 0.4c-4 0.9-7.5 3.4-9.7 6.9-2.2 3.5-2.9 7.7-1.9 11.7 0.9 4.1 3.3 7.5 6.9 9.7 3.5 2.2 7.6 2.9 11.7 2 8.3-2 13.6-10.3 11.6-18.7-1.6-7.1-8-12-15.1-12z"/>
				</g>
			</g>
			<g id="&lt;Group&gt;">
				<path id="&lt;Path&gt;" class="s11" d="m934.2 89.6c-0.1 22.5-18.5 40.6-41 40.5-22.5-0.1-40.6-18.5-40.5-41 0.1-22.5 18.5-40.7 41-40.5 22.5 0.1 40.7 18.4 40.5 41z"/>
				<path id="&lt;Compound Path&gt;" fill-rule="evenodd" class="s0" d="m899.4 130.4q-0.2 0-0.3 0c-10.9-0.1-21.2-4.4-28.9-12.2-7.7-7.8-11.9-18.1-11.9-29.1 0.1-11 4.4-21.2 12.2-28.9 7.7-7.7 18-11.9 28.9-11.9q0.1 0 0.2 0c22.6 0.1 40.9 18.6 40.8 41.3-0.1 22.5-18.5 40.8-41 40.8zm0-81.6c-10.8 0-20.9 4.2-28.5 11.7-7.7 7.6-12 17.8-12.1 28.6 0 10.8 4.1 21 11.7 28.7 7.7 7.7 17.8 12 28.6 12q0.1 0 0.3 0c22.2 0 40.3-18 40.5-40.2 0.1-22.4-18-40.6-40.3-40.8q-0.1 0-0.2 0z"/>
				<path id="&lt;Path&gt;" class="s0" d="m899.4 69.8c-11.3 0-22.4-1.9-32.2-5.5l0.2-0.5c9.7 3.6 20.8 5.5 32 5.5 11.2 0 22.2-1.9 31.9-5.4l0.1 0.5c-9.7 3.5-20.7 5.4-32 5.4z"/>
				<path id="&lt;Path&gt;" class="s0" d="m867 114.3l-0.2-0.5c9.9-3.7 21.1-5.7 32.6-5.7 11.5 0 22.7 2 32.5 5.6l-0.2 0.5c-9.8-3.6-20.9-5.5-32.3-5.5-11.4 0-22.6 1.9-32.4 5.6z"/>
				<path id="&lt;Compound Path&gt;" fill-rule="evenodd" class="s0" d="m899.4 130.4c-11.9 0-21.5-18.4-21.5-41.1 0-22.7 9.6-41 21.5-41 11.8 0 21.4 18.3 21.4 41 0 22.7-9.6 41.1-21.4 41.1zm20.9-41.1c0-22.4-9.4-40.5-20.9-40.5-11.6 0-20.9 18.1-20.9 40.5 0 22.4 9.3 40.5 20.9 40.5 11.5 0 20.9-18.1 20.9-40.5z"/>
				<path id="&lt;Path&gt;" class="s0" d="m899.1 48.6h0.5v81.5h-0.5z"/>
				<path id="&lt;Path&gt;" class="s0" d="m940.1 89.7l-81.5-0.7v-0.5l81.5 0.6z"/>
			</g>
		</g>
	</g>
</svg>