<svg version="1.2" xmlns="http://www.w3.org/2000/svg" viewBox="0 0 1440 550" width="1440" height="550">
	<title>ON40S31-ai</title>
	<style>
		.s0 { fill: #8bb69e } 
		.s1 { fill: #f0f2ce } 
		.s2 { fill: #8c5b30 } 
		.s3 { fill: #d96422 } 
		.s4 { fill: #e6e6e6 } 
		.s5 { fill: #f2f2f2 } 
		.s6 { fill: #edb150 } 
		.s7 { fill: #ffbf57 } 
		.s8 { fill: #c28e3a } 
		.s9 { fill: #e1e3c0 } 
		.s10 { fill: #5c3b1f } 
		.s11 { fill: #fcfcf5 } 
		.s12 { fill: #ffdebf } 
		.s13 { fill: #fa8a8a } 
		.s14 { fill: #688977 } 
	</style>
	<g id="Layer 2">
		<g id="&lt;Group&gt;">
			<g id="&lt;Group&gt;">
				<path id="&lt;Path&gt;" class="s0" d="m1444 575h-1448v-600h1448z"/>
			</g>
		</g>
	</g>
	<g id="Layer 1">
		<g id="&lt;Group&gt;">
			<g id="&lt;Group&gt;">
				<path id="&lt;Path&gt;" class="s1" d="m545.7 81.2c0 8-7.1 14.4-16 14.4h-47c-10.3 0-18.7-7.5-18.7-16.9 0-9.3 8.4-16.9 18.7-16.9q0.3 0 0.6 0c2.2-9 11-15.7 21.6-15.7 12.3 0 22.2 9 22.2 20.1q0 0.4 0 0.8 1.3-0.2 2.6-0.2c8.9 0 16 6.4 16 14.4z"/>
			</g>
		</g>
		<g id="&lt;Group&gt;">
			<g id="&lt;Group&gt;">
				<path id="&lt;Path&gt;" class="s1" d="m870.2 78.5c0 7.2-6.3 12.9-14.2 12.9h-41.9c-9.2 0-16.7-6.7-16.7-15.1 0-8.3 7.5-15.1 16.7-15.1q0.3 0 0.5 0.1c2-8 9.9-14 19.3-14 10.9 0 19.8 8 19.8 17.9q0 0.3-0.1 0.7 1.2-0.2 2.4-0.2c7.9 0 14.2 5.7 14.2 12.8z"/>
			</g>
		</g>
		<g id="&lt;Group&gt;">
			<g id="&lt;Group&gt;">
				<path id="&lt;Path&gt;" class="s1" d="m1173.7 133.8c0 5.1-4.5 9.2-10.1 9.2h-37.5c-6.6 0-12-4.8-12-10.8 0-6 5.4-10.8 12-10.8q1.4 0 2.8 0.3c0.7-7.7 7.8-13.9 16.6-13.9 9.1 0 16.6 6.8 16.6 15.1q0 0.9-0.2 1.8 0.8-0.1 1.7-0.1c5.6 0 10.1 4.1 10.1 9.2z"/>
			</g>
		</g>
		<g id="&lt;Group&gt;">
			<g id="&lt;Group&gt;">
				<path id="&lt;Path&gt;" class="s1" d="m578.7 165c0 5.1-4.6 9.2-10.2 9.2h-37.5c-6.6 0-12-4.8-12-10.8 0-5.9 5.4-10.8 12-10.8q1.5 0 2.8 0.4c0.7-7.8 7.8-13.9 16.6-13.9 9.2 0 16.6 6.7 16.6 15q0 0.9-0.1 1.8 0.7-0.1 1.6-0.1c5.6 0 10.2 4.1 10.2 9.2z"/>
			</g>
		</g>
		<g id="&lt;Group&gt;">
			<g id="&lt;Group&gt;">
				<path id="&lt;Path&gt;" class="s2" d="m657.3 46h10.3v373.9h-10.3z"/>
			</g>
			<g id="&lt;Group&gt;">
				<path id="&lt;Path&gt;" class="s1" d="m523 320.2c64.9-74 111-146.5 134.3-217.2v217.2z"/>
			</g>
			<g id="&lt;Group&gt;">
				<path id="&lt;Path&gt;" class="s1" d="m667.6 380.6c13.9-90.7 14.1-183.2 0-277.6 86.6 76.9 145.5 169.5 171.8 277.6z"/>
			</g>
			<g id="&lt;Group&gt;">
				<path id="&lt;Path&gt;" class="s3" d="m753.5 103h-85.9v-57h85.9l-29.5 29.3z"/>
			</g>
			<g id="&lt;Group&gt;" style="mix-blend-mode: multiply">
				<path id="&lt;Compound Path&gt;" fill-rule="evenodd" class="s4" d="m839.7 380.6h-9.1l-8.5-8c-13.1 4.5-27.5 6.8-38.8 8h-40.3c-13.8-7.1-32.7-22.4-10.9-46.5q0.2-0.2 0.4-0.4 0.4-0.5 0.9-1 0.3-0.3 0.6-0.6 0.4-0.4 0.8-0.8 0.7-0.7 1.5-1.5-39.3-68.5-4.4-71.9-0.6-12.1 17.5-20.5c13.9-6.4 25.1-2.2 33.5-1.4 15.9 26.9 29.3 55.1 40.2 84.5l7.3 44zm-89.7-9.4l-10.4-31.5q0 0.1-0.1 0.2c-6.1 7.1-12.6 20.4 10.5 31.3z"/>
			</g>
		</g>
		<g id="&lt;Group&gt;">
			<g id="&lt;Group&gt;">
				<path id="&lt;Path&gt;" class="s1" d="m1105.1 219.9c0 4.2-3.7 7.6-8.4 7.6h-31.1c-5.5 0-10-4-10-8.9 0-5 4.5-9 10-9q1.2 0 2.3 0.3c0.6-6.5 6.5-11.6 13.8-11.6 7.6 0 13.8 5.6 13.8 12.5q0 0.8-0.2 1.5 0.7-0.1 1.4-0.1c4.7 0 8.4 3.5 8.4 7.7z"/>
			</g>
		</g>
		<g id="&lt;Group&gt;">
			<g id="&lt;Group&gt;" style="mix-blend-mode: multiply">
				<path id="&lt;Path&gt;" class="s5" d="m1070.6 490.8c0 7.3-70.6 13.3-233.5 13.3-162.8 0-356.1-6-356.1-13.3 0-7.4 193.3-13.4 356.1-13.4 162.9 0 233.5 6 233.5 13.4z"/>
			</g>
			<g id="&lt;Group&gt;">
				<g id="&lt;Group&gt;">
					<path id="&lt;Path&gt;" class="s6" d="m754 403.8h116.7c-1.9 0-3.6 1-4.4 2.6l-41.7 83.3h-7.9l34.1-68.1c0.4-0.7-0.1-1.5-0.9-1.7q-6.3-1.4-12.6-2.3-0.3-0.1-0.6-0.1-0.5-0.1-0.9-0.2v0.1q-6.9-1-13.7-1.6-0.8 0-1.5-0.1-6.5-0.4-13-0.5-0.4 0-0.8 0-0.3 0-0.7 0-7.5 0.1-15 0.7-0.3 0-0.6 0-0.5 0-1 0.1h0.1q-6.8 0.6-13.5 1.6-0.3 0.1-0.7 0.1-0.4 0.1-0.8 0.2-6.2 1-12.4 2.3l34.8 69.5z"/>
				</g>
				<g id="&lt;Group&gt;">
					<g id="&lt;Group&gt;">
						<path id="&lt;Path&gt;" class="s7" d="m786.5 489.7h-276.9l-42.6-84.9c-0.9-1.9 0.6-4 2.8-4h277c-2.2 0-3.7 2.1-2.8 4z"/>
					</g>
					<g id="&lt;Group&gt;">
						<path id="&lt;Path&gt;" class="s8" d="m746.8 400.8h2.6c1.9 0 3.6 1 4.3 2.6l0.2 0.2 0.1 0.2 43 85.9h-10.5l-42.5-84.9c-0.9-1.9 0.6-4 2.8-4z"/>
					</g>
					<g id="&lt;Group&gt;">
						<path id="&lt;Path&gt;" class="s1" d="m774.6 417.9l24.7 71.8h-2.3l-34.8-69.5q6.2-1.3 12.4-2.3z"/>
					</g>
					<g id="&lt;Group&gt;">
						<path id="&lt;Path&gt;" class="s1" d="m806.1 415.2v74.5h-1.9l-13.1-73.8q7.5-0.6 15-0.7z"/>
					</g>
					<g id="&lt;Group&gt;">
						<path id="&lt;Path&gt;" class="s1" d="m850.8 421.6l-34.1 68.1h-2.7l23.3-72.1q6.3 0.9 12.6 2.3c0.8 0.2 1.3 1 0.9 1.7z"/>
					</g>
					<g id="&lt;Group&gt;">
						<path id="&lt;Path&gt;" class="s1" d="m789.6 416l13 73.7h-1.7l-24.8-72.1q6.7-1 13.5-1.6z"/>
					</g>
					<g id="&lt;Group&gt;">
						<path id="&lt;Path&gt;" class="s1" d="m835.8 417.4l-23.4 72.3h-1.7l11.4-73.9q6.8 0.6 13.7 1.6z"/>
					</g>
					<g id="&lt;Group&gt;">
						<path id="&lt;Path&gt;" class="s1" d="m820.6 415.7l-11.5 74h-1.5v-74.5q6.5 0.1 13 0.5z"/>
					</g>
					<g id="&lt;Group&gt;">
						<path id="&lt;Path&gt;" class="s8" d="m870.7 403.8h2.5c2.3 0 3.8 2.1 2.9 4l-41.1 81.9h-10.4l41.7-83.3c0.8-1.6 2.5-2.6 4.4-2.6z"/>
					</g>
				</g>
			</g>
			<g id="&lt;Group&gt;">
				<g id="&lt;Group&gt;">
					<path id="&lt;Compound Path&gt;" fill-rule="evenodd" class="s9" d="m806.8 415.2q0.4 0 0.8 0v74.5h-1.5v-74.5q-7.5 0.1-15 0.7l13.1 73.8h-1.6l-13-73.7h-0.1q-6.7 0.6-13.4 1.6l24.8 72.1h-1.6l-24.7-71.8q-6.2 1-12.4 2.3l-2.5-5h47q-0.3 0-0.6 0 0.4 0 0.7 0zm-17.2 0.8q0.1 0 0.1 0 0 0-0.1 0z"/>
				</g>
				<g id="&lt;Group&gt;">
					<path id="&lt;Path&gt;" class="s9" d="m837.3 417.6l-23.3 72.1h-1.6l23.4-72.3v-0.1q0.4 0.1 0.9 0.2 0.3 0 0.6 0.1z"/>
				</g>
				<g id="&lt;Group&gt;">
					<path id="&lt;Path&gt;" class="s9" d="m822.1 415.8l-11.4 73.9h-1.6l11.5-74q0.7 0.1 1.5 0.1z"/>
				</g>
				<g id="&lt;Group&gt;">
					<path id="&lt;Path&gt;" class="s9" d="m806.9 415.2q-0.1 0-0.2 0h0.2z"/>
				</g>
			</g>
		</g>
		<g id="&lt;Group&gt;">
			<g id="&lt;Group&gt;">
				<g id="&lt;Group&gt;">
					<g id="&lt;Group&gt;">
						<path id="&lt;Path&gt;" class="s10" d="m844.2 360.1l11.6 20.1-7.7 18.9q10.8-9.3 17.5-2.5 10.1 10.2-22.3 6.2l4.8-22-12.8-11.9q-28.4 9.6-63 10.1l0.9 11.4-5.5 22.5q7.5-10.7 16.1-3.4 11 9.4-20 7.5l1.6-23.4-5.4-19.6z"/>
					</g>
					<g id="&lt;Group&gt;">
						<path id="&lt;Path&gt;" class="s11" d="m835.5 307l8.7 53.1q-33.9 11.7-84.2 13.9l-16.8-51.1q57.8 0.2 92.3-15.9z"/>
					</g>
					<g id="&lt;Group&gt;">
						<path id="&lt;Path&gt;" class="s12" d="m743.2 322.9q-8-45.6 13.3-67.7 72.2-41.2 79 51.8-20.3 17.2-92.3 15.9z"/>
					</g>
					<g id="&lt;Group&gt;">
						<path id="&lt;Path&gt;" class="s10" d="m809.6 206q50.6 50.8-51.5 61.3l2.4 19.8q-9.7-6.3-10.7 2.1-1 8.5 9.6 4.1-6 22.5-16.2 29.6-42.2-73.5-4.7-77.2-0.7-13 18.8-22c27.8-12.9 45.8 14.3 52.3-17.7z"/>
					</g>
					<g id="&lt;Group&gt;">
						<path id="&lt;Path&gt;" class="s10" d="m815.1 268.4c1.6-0.4 3.8 1.7 4.8 4.8 1 3.1 0.5 6-1.1 6.4-1.6 0.4-3.8-1.7-4.8-4.8-1-3.1-0.5-6 1.1-6.4z"/>
					</g>
					<g id="&lt;Group&gt;">
						<path id="&lt;Path&gt;" class="s10" d="m774.2 280.8c1.6-0.4 3.8 1.7 4.8 4.8 1 3.1 0.5 6-1.1 6.4-1.7 0.5-3.8-1.7-4.8-4.8-1-3.1-0.5-5.9 1.1-6.4z"/>
					</g>
					<g id="&lt;Group&gt;">
						<path id="&lt;Path&gt;" class="s13" d="m806.1 309.9q-16 3.9-17.7-8.9 9.8-4.9 27.1-7.3 6.4 12.4-9.4 16.2z"/>
					</g>
					<g id="&lt;Group&gt;" style="mix-blend-mode: multiply">
						<path id="&lt;Path&gt;" class="s4" d="m821.6 320l2.7 3.1-1.9 4.4q1.4 26.2-33.3 31l-9.8-7.6 8.6-7.7q28.8 2.1 29.1-14.3l-4.2-3.6 1.1-3z"/>
					</g>
					<g id="&lt;Group&gt;">
						<path id="&lt;Path&gt;" class="s10" d="m821.6 320l2.7 3.1-1.9 4.4q1.4 23.9-33.4 28.6l-9.7-7.5 8.6-7.8q28.8 2.1 29.1-11.9l-4.2-3.6 1.1-3z"/>
					</g>
					<g id="&lt;Group&gt;">
						<path id="&lt;Path&gt;" class="s12" d="m873.7 264.4c2 4.8 22.6 54.4-36.6 52.4l-1.6-9.8q44.9 6.5 25.1-39.3-1.1-2.6 0.2-3c1.8-0.5 2.6 1.4 2.8 2.2-0.2-0.7-0.5-2.6 0.9-2.9 1.5-0.4 2.2 1.3 2.4 2h0.1c-0.2-0.7-0.4-2.8 1.3-3.2 1.5-0.4 2.1 1 2.3 1.8-0.1-0.8-0.1-2.1 1.1-2.5q1.3-0.5 2 2.3z"/>
					</g>
					<g id="&lt;Group&gt;">
						<path id="&lt;Path&gt;" class="s11" d="m843.8 307.2l1.7 9.5q-3.9 0.2-8.4 0.1l-1.6-9.8q3.6 0.5 8.3 0.2z"/>
					</g>
					<g id="&lt;Group&gt;">
						<path id="&lt;Path&gt;" class="s12" d="m762.1 382.5c-5.3-1.8-59.9-20.9-18.9-59.6l9.1 5.4q-35.3 26 15.7 43.1 3 1 2.4 2.2c-0.7 1.5-2.9 0.7-3.7 0.4 0.7 0.4 2.5 1.3 1.8 2.6-0.6 1.2-2.5 0.5-3.2 0.2v0.1c0.6 0.3 2.5 1.6 1.7 3-0.7 1.3-2.2 0.8-3.1 0.4 0.8 0.4 1.9 1.3 1.4 2.4q-0.5 1.2-3.2-0.2z"/>
					</g>
					<g id="&lt;Group&gt;">
						<path id="&lt;Path&gt;" class="s11" d="m746.6 333.8l-8.9-5.1q2.4-2.8 5.5-5.8l9.1 5.4q-2.8 2.1-5.7 5.5z"/>
					</g>
				</g>
			</g>
			<g id="&lt;Group&gt;">
				<g id="&lt;Group&gt;">
					<g id="&lt;Group&gt;">
						<g id="&lt;Group&gt;">
							<g id="&lt;Group&gt;">
								<path id="&lt;Path&gt;" class="s2" d="m856.2 276.1l-6.2 0.5q-3-0.7-4.8-7.2-1.8-6.5 0.6-8.8l6.6-2.3z"/>
							</g>
						</g>
						<g id="&lt;Group&gt;">
							<g id="&lt;Group&gt;">
								<path id="&lt;Path&gt;" class="s7" d="m856.2 276.1c-4.6 0.9-6.4-5.2-7.4-9.6-0.7-3.5-0.3-7.3 3.6-8.2q3.9-0.9 6.5 7.2 1.9 9.7-2.7 10.6z"/>
							</g>
						</g>
						<g id="&lt;Group&gt;">
							<g id="&lt;Group&gt;">
								<path id="&lt;Path&gt;" class="s2" d="m880.9 267.1l-25.3 4.9c-2.1-0.2-4.4-7.2-2.9-9.6l24.1-8.9z"/>
							</g>
						</g>
						<g id="&lt;Group&gt;">
							<g id="&lt;Group&gt;">
								<path id="&lt;Path&gt;" class="s7" d="m907.9 271.6l-29.9 5q-13-13-9.4-29.9l30.7-11.5z"/>
							</g>
						</g>
						<g id="&lt;Group&gt;">
							<g id="&lt;Group&gt;">
								<path id="&lt;Path&gt;" class="s2" d="m954.6 276.9l-42.2 4.7c-16-5.7-28.3-41.2-17.3-55.6l38.4-16.4z"/>
							</g>
						</g>
					</g>
					<g id="&lt;Group&gt;">
						<g id="&lt;Group&gt;">
							<path id="&lt;Path&gt;" class="s7" d="m976.3 235.6c5.3 18.9-3.3 37.1-19.4 40.9-16.1 3.7-33.4-8.5-38.8-27.3-5.3-18.8 3.3-37.1 19.4-40.9 16.1-3.7 33.4 8.5 38.8 27.3z"/>
						</g>
					</g>
					<g id="&lt;Group&gt;">
						<path id="&lt;Path&gt;" class="s11" d="m955.9 272.9c-14.4 3.4-30-7.6-34.8-24.4-4.8-16.9 3-33.3 17.4-36.6 14.4-3.4 30 7.6 34.8 24.4 4.8 16.9-3 33.3-17.4 36.6z"/>
					</g>
					<g id="&lt;Group&gt;" style="mix-blend-mode: multiply">
						<path id="&lt;Path&gt;" class="s4" d="m955.9 272.9q-1.4 0.4-2.8 0.5c13.2-4.3 20.1-19.9 15.5-36.1-4.4-15.7-18.4-26.3-31.9-24.9q0.9-0.3 1.8-0.5c14.4-3.4 30 7.6 34.8 24.4 4.8 16.9-3 33.3-17.4 36.6z"/>
					</g>
				</g>
			</g>
		</g>
		<g id="&lt;Group&gt;">
			<path id="&lt;Path&gt;" class="s14" d="m991.9 146.8c-2 0-3.7-1.5-3.7-3.3 0-5.9-5.7-10.7-12.7-10.7-7.1 0-12.8 4.8-12.8 10.7 0 1.8-1.6 3.3-3.7 3.3-2 0-3.6-1.5-3.6-3.3 0-5.9-5.7-10.7-12.8-10.7-7 0-12.8 4.8-12.8 10.7 0 1.8-1.6 3.3-3.6 3.3-2 0-3.7-1.5-3.7-3.3 0-9.6 9-17.3 20.1-17.3 6.8 0 12.8 2.9 16.4 7.3 3.7-4.4 9.7-7.3 16.5-7.3 11 0 20.1 7.7 20.1 17.3 0 1.8-1.7 3.3-3.7 3.3z"/>
		</g>
		<g id="&lt;Group&gt;">
			<path id="&lt;Path&gt;" class="s14" d="m1076 95.3c-2 0-3.6-1.4-3.6-3.3 0-5.9-5.8-10.6-12.8-10.6-7 0-12.8 4.7-12.8 10.6 0 1.9-1.6 3.3-3.6 3.3-2 0-3.7-1.4-3.7-3.3 0-5.9-5.7-10.6-12.8-10.6-7 0-12.7 4.7-12.7 10.6 0 1.9-1.7 3.3-3.7 3.3-2 0-3.6-1.4-3.6-3.3 0-9.5 9-17.3 20-17.3 6.8 0 12.8 3 16.5 7.4 3.6-4.4 9.6-7.4 16.4-7.4 11.1 0 20.1 7.8 20.1 17.3 0 1.9-1.6 3.3-3.7 3.3z"/>
		</g>
	</g>
</svg>