<svg version="1.2" xmlns="http://www.w3.org/2000/svg" viewBox="0 0 1440 550" width="1440" height="550">
	<title>2751003-ai</title>
	<defs>
		<clipPath clipPathUnits="userSpaceOnUse" id="cp1">
			<path d="m698.37 469.66q1.5 8.24 8.8 11.26 3.95 1.63 2.46 5.82c-1.59 1.03-13.58-0.4-16.01-2.74q-2.01-1.94-4.74-8.39l-2.59 4.26c-1.7 0.04-3.7-1.11-4.41-1.99q1.48-7.01 1.99-8 0.52-1 3.96-4.75c4.35-3.39 10.73-0.48 10.54 4.53z"/>
		</clipPath>
		<clipPath clipPathUnits="userSpaceOnUse" id="cp2">
			<path d="m671.47 471.93q3.36 7.76 11.18 9.29 4.24 0.83 3.75 5.2c-1.32 1.32-13.37 2.27-16.28 0.45q-2.41-1.5-6.56-7.27l-1.56 4.68c-1.64 0.37-3.86-0.37-4.75-1.09q-0.17-7.14 0.1-8.21 0.28-1.08 2.78-5.42c3.48-4.16 10.38-2.56 11.34 2.37z"/>
		</clipPath>
		<clipPath clipPathUnits="userSpaceOnUse" id="cp3">
			<path d="m765.26 464.34l-0.91 15.41q0.58 3.26 0.57 4.35-0.01 1.08-0.64 4.28c-1.48 0.99-6.15 1.27-8.5 0.63l-0.45-0.36q-0.45 0.24-3.77 0.93c-3.39 0.71-13.42 0.82-14.9-0.31q-1.22-4.63 2.95-5.55c10.42-2.3 11.97-4.86 12.73-7.8q0.97-3.7 2.11-12.98z"/>
		</clipPath>
		<clipPath clipPathUnits="userSpaceOnUse" id="cp4">
			<path d="m806.23 463.2q0.04 9.34 0.56 13.12c0.41 3 1.65 5.69 11.73 9.04q4.03 1.33 2.27 5.81c-1.6 0.98-11.56-0.15-14.84-1.19q-3.22-1.03-3.64-1.32l-0.49 0.31c-2.41 0.41-7.02-0.34-8.37-1.47q-0.25-3.25-0.13-4.32 0.12-1.09 1.09-4.27l0.92-15.41z"/>
		</clipPath>
		<clipPath clipPathUnits="userSpaceOnUse" id="cp5">
			<path d="m816.36 225.29q-7.59-0.09-11.24 3.51c-5.77 5.69-8.68 7.26-17.89 8.58q11.91-20.77 11.49-22.08c-0.42-1.31-1.36-3.75 1.61-4.02 2.97-0.27 16.2 7.2 16.03 14.01z"/>
		</clipPath>
		<clipPath clipPathUnits="userSpaceOnUse" id="cp6">
			<path d="m780.71 211.99c2.98 0.05 3.04 2.41 2.73 3.75q-0.3 1.34 4.6 21.61c-7.02-0.29-9.09-3.65-12.45-7.48q-3.57-4.07-9.64-3.61c-1.51-5.6 11.77-14.32 14.76-14.27z"/>
		</clipPath>
		<clipPath clipPathUnits="userSpaceOnUse" id="cp7">
			<path d="m878.88 461.07l-1.16 15.5q0.53 3.28 0.5 4.38-0.02 1.09-0.71 4.3c-1.5 0.97-6.2 1.19-8.56 0.51l-0.44-0.36q-0.47 0.23-3.82 0.89c-3.42 0.66-13.52 0.64-14.98-0.53q-1.15-4.67 3.05-5.54c10.52-2.17 12.13-4.72 12.94-7.67q1.03-3.72 2.33-13.03z"/>
		</clipPath>
		<clipPath clipPathUnits="userSpaceOnUse" id="cp8">
			<path d="m930.96 460.57q0.61 9.38 1.36 13.15c0.59 2.99 2 5.64 12.33 8.48q4.13 1.14 2.64 5.72c-1.55 1.07-11.63 0.45-14.99-0.43q-3.3-0.86-3.74-1.13l-0.47 0.34c-2.4 0.52-7.07 0.01-8.51-1.06q-0.44-3.25-0.38-4.33 0.05-1.11 0.83-4.35v-15.53z"/>
		</clipPath>
		<clipPath clipPathUnits="userSpaceOnUse" id="cp9">
			<path d="m458.18 464.08l-0.01 15.67q0.78 3.26 0.84 4.37 0.05 1.1-0.39 4.38c-1.44 1.07-6.16 1.59-8.57 1.06l-0.48-0.34q-0.45 0.27-3.77 1.14c-3.39 0.89-13.55 1.51-15.11 0.44q-1.51-4.63 2.65-5.77c10.42-2.87 11.84-5.54 12.44-8.56q0.76-3.8 1.36-13.26z"/>
		</clipPath>
		<clipPath clipPathUnits="userSpaceOnUse" id="cp10">
			<path d="m510.61 462.15q1.31 9.4 2.35 13.14c0.82 2.98 2.43 5.55 13.05 7.74q4.24 0.88 3.08 5.59c-1.48 1.17-11.66 1.2-15.11 0.53q-3.38-0.66-3.85-0.9l-0.45 0.37c-2.37 0.69-7.11 0.46-8.63-0.52q-0.69-3.24-0.72-4.33-0.03-1.11 0.51-4.42l-1.17-15.63z"/>
		</clipPath>
	</defs>
	<style>
		.s0 { fill: #ffffff } 
		.s1 { fill: #f29353 } 
		.s2 { fill: #9d68aa } 
		.s3 { fill: #e4bce8 } 
		.s4 { opacity: .5;fill: #e4bce8 } 
		.s5 { opacity: .5;fill: #7c4284 } 
		.s6 { fill: #e2e2e2 } 
		.s7 { fill: #552f5e } 
		.s8 { fill: #549e7b } 
		.s9 { opacity: .3;mix-blend-mode: overlay;fill: #ffffff } 
		.s10 { fill: #71bf9d } 
		.s11 { fill: #84d1aa } 
		.s12 { fill: #7c4284 } 
		.s13 { fill: #dd4026 } 
		.s14 { fill: #ffbe57 } 
		.s15 { fill: none;stroke: #ffffff;stroke-width: 1.2 } 
		.s16 { opacity: .5;mix-blend-mode: multiply;fill: #ffbe57 } 
		.s17 { fill: #ff8976 } 
		.s18 { opacity: .3;fill: #9d68aa } 
		.s19 { fill: #ffdcae } 
		.s20 { fill: #cc584e } 
		.s21 { fill: #e57873 } 
		.s22 { fill: #3e2b13 } 
		.s23 { fill: #e06258 } 
		.s24 { fill: #3e2344 } 
		.s25 { fill: #f7b614 } 
		.s26 { fill: #ba2f1c } 
		.s27 { fill: #a1abad } 
		.s28 { fill: #ef7265 } 
		.s29 { fill: #ffb072 } 
		.s30 { fill: #e57e55 } 
		.s31 { fill: #ffa399 } 
		.s32 { fill: #fd6141 } 
		.s33 { fill: #d8462a } 
		.s34 { opacity: .5;fill: #e57e55 } 
		.s35 { fill: #1c3742 } 
		.s36 { fill: #efefef } 
		.s37 { fill: #19323a } 
		.s38 { fill: #207089 } 
		.s39 { fill: none;stroke: #7c4284;stroke-width: .8 } 
		.s40 { fill: #bc6658 } 
		.s41 { fill: #1e1c1c } 
		.s42 { fill: #c67154 } 
		.s43 { fill: none;stroke: #f7dfd8;stroke-width: .4 } 
		.s44 { fill: #8c8c8c } 
		.s45 { fill: #f4b998 } 
		.s46 { fill: #3c8460 } 
		.s47 { opacity: .3;fill: #549e7b } 
		.s48 { fill: #764582 } 
		.s49 { fill: #e57930 } 
		.s50 { opacity: .5;fill: #a1abad } 
		.s51 { fill: #2b545e } 
		.s52 { fill: #2e1933 } 
		.s53 { fill: #4c2b54 } 
		.s54 { fill: #efe9da } 
		.s55 { opacity: .5;fill: #2e1933 } 
		.s56 { fill: #aaaaaa } 
		.s57 { fill: #201d42 } 
		.s58 { fill: #666666 } 
	</style>
	<g id="BACKGROUND">
		<path id="&lt;Path&gt;" class="s0" d="m-11.3-2.5h1452.5v555h-1452.5z"/>
	</g>
	<g id="OBJECTS">
		<g id="&lt;Group&gt;">
			<g id="&lt;Group&gt;">
				<path id="&lt;Path&gt;" class="s1" d="m876.5 230.4h191.8v7.8h-191.8z"/>
				<g id="&lt;Group&gt;">
					<path id="&lt;Path&gt;" class="s2" d="m1032.1 172.6h26.4v57.6h-26.4z"/>
					<path id="&lt;Path&gt;" class="s3" d="m1032.1 217.9h26.4v3h-26.4z"/>
					<path id="&lt;Path&gt;" class="s3" d="m1032.1 175.2h26.4v3.1h-26.4z"/>
					<path id="&lt;Path&gt;" class="s4" d="m1032.1 172.6h2.5v57.6h-2.5z"/>
					<path id="&lt;Path&gt;" class="s5" d="m1055.9 172.6h2.6v57.6h-2.6z"/>
					<ellipse id="&lt;Path&gt;" class="s6" cx="1045.3" cy="186.7" rx="6.1" ry="5.6"/>
					<ellipse id="&lt;Path&gt;" class="s7" cx="1045.3" cy="186.7" rx="4.3" ry="4"/>
				</g>
				<g id="&lt;Group&gt;">
					<path id="&lt;Path&gt;" class="s2" d="m1005.7 172.6h26.4v57.6h-26.4z"/>
					<path id="&lt;Path&gt;" class="s3" d="m1005.7 217.9h26.4v3h-26.4z"/>
					<path id="&lt;Path&gt;" class="s3" d="m1005.7 175.2h26.4v3.1h-26.4z"/>
					<path id="&lt;Path&gt;" class="s4" d="m1005.7 172.6h2.5v57.6h-2.5z"/>
					<path id="&lt;Path&gt;" class="s5" d="m1029.5 172.6h2.6v57.6h-2.6z"/>
					<ellipse id="&lt;Path&gt;" class="s6" cx="1018.9" cy="186.7" rx="6.1" ry="5.6"/>
					<ellipse id="&lt;Path&gt;" class="s7" cx="1018.9" cy="186.7" rx="4.3" ry="4"/>
				</g>
				<g id="&lt;Group&gt;">
					<path id="&lt;Path&gt;" class="s2" d="m979.3 172.6h26.4v57.6h-26.4z"/>
					<path id="&lt;Path&gt;" class="s3" d="m979.3 217.9h26.4v3h-26.4z"/>
					<path id="&lt;Path&gt;" class="s3" d="m979.3 175.2h26.4v3.1h-26.4z"/>
					<path id="&lt;Path&gt;" class="s4" d="m979.3 172.6h2.5v57.6h-2.5z"/>
					<path id="&lt;Path&gt;" class="s5" d="m1003.2 172.6h2.5v57.6h-2.5z"/>
					<ellipse id="&lt;Path&gt;" class="s6" cx="992.5" cy="186.7" rx="6.1" ry="5.6"/>
					<ellipse id="&lt;Path&gt;" class="s7" cx="992.5" cy="186.7" rx="4.3" ry="4"/>
				</g>
				<g id="&lt;Group&gt;">
					<path id="&lt;Path&gt;" class="s2" d="m952.9 172.6h26.4v57.6h-26.4z"/>
					<path id="&lt;Path&gt;" class="s3" d="m952.9 217.9h26.4v3h-26.4z"/>
					<path id="&lt;Path&gt;" class="s3" d="m952.9 175.2h26.4v3.1h-26.4z"/>
					<path id="&lt;Path&gt;" class="s4" d="m952.9 172.6h2.5v57.6h-2.5z"/>
					<path id="&lt;Path&gt;" class="s5" d="m976.8 172.6h2.5v57.6h-2.5z"/>
					<ellipse id="&lt;Path&gt;" class="s6" cx="966.1" cy="186.7" rx="6.1" ry="5.6"/>
					<ellipse id="&lt;Path&gt;" class="s7" cx="966.1" cy="186.7" rx="4.3" ry="4"/>
				</g>
			</g>
			<g id="&lt;Group&gt;">
				<g id="&lt;Group&gt;">
					<path id="&lt;Path&gt;" class="s8" d="m412.9 396q-49-41.3-65.8-82.9 46.6 3.6 65.8 82.9z"/>
					<path id="&lt;Path&gt;" class="s9" d="m405 386.8c-1.9-2.9-3.6-5.9-5.5-8.8l-2.8-4.4-2.9-4.3c-3.8-5.8-7.8-11.5-12-17-4.1-5.6-8.4-11.1-12.7-16.6-2.2-2.7-4.4-5.4-6.7-8.1-2.2-2.7-4.5-5.4-6.7-8.1 5.1 4.9 10 10 14.6 15.3 4.6 5.3 8.9 10.8 13.1 16.4 2.1 2.8 4.1 5.7 6.1 8.6 1 1.4 1.9 2.9 2.9 4.3 0.9 1.5 1.9 2.9 2.7 4.4 3.7 5.9 6.9 12.1 9.9 18.3z"/>
				</g>
				<g id="&lt;Group&gt;">
					<path id="&lt;Path&gt;" class="s10" d="m413.4 393q-19.7-48.4-15.2-85.7 33.6 19.2 15.2 85.7z"/>
					<path id="&lt;Path&gt;" class="s9" d="m411.2 383.3c-0.2-2.9-0.1-5.8-0.4-8.6l-0.3-4.3-0.4-4.3c-0.5-5.7-1.1-11.4-2-17q-1.2-8.5-2.7-17-0.8-4.2-1.6-8.5c-0.6-2.8-1.2-5.6-1.8-8.4 1.9 5.5 3.4 11.1 4.7 16.7 1.2 5.6 2.2 11.3 3.1 17 0.4 2.8 0.7 5.7 1 8.5 0.2 1.5 0.2 2.9 0.4 4.3q0.1 2.2 0.2 4.3c0.4 5.8 0.2 11.5-0.2 17.3z"/>
				</g>
				<g id="&lt;Group&gt;">
					<path id="&lt;Path&gt;" class="s11" d="m406.2 402.1q-40.7-19.7-53.9-32.5l-11.4 35.9q-3.9-33.7 8.7-53.4 38 7.1 62.1 44.7z"/>
					<path id="&lt;Path&gt;" class="s9" d="m394 386.2c1.8 1.6 3.4 3.3 5.1 4.9-3.6-3-7.3-5.9-11.1-8.7-3.8-2.7-7.7-5.4-11.7-7.9q-6-3.8-12.2-7.3c-3.8-2.2-7.8-4.4-11.7-6.3-1.4 2-2.6 4.1-3.6 6.3q-1.7 3.7-2.8 7.5c-1.5 5.2-2.6 10.5-3.1 15.9 0-2.7 0.1-5.4 0.4-8.1 0.3-2.7 0.8-5.4 1.4-8 0.7-2.7 1.6-5.3 2.6-7.9 1-2.5 2.4-5 3.9-7.3l0.5-0.7 0.7 0.4q6.6 3.1 12.8 6.7 6.2 3.5 12.1 7.5 5.9 4 11.4 8.4l2.7 2.3z"/>
				</g>
			</g>
			<g id="&lt;Group&gt;">
				<g id="&lt;Group&gt;">
					<path id="&lt;Path&gt;" class="s8" d="m1039 426.4q48.9-41.3 65.8-82.9-46.6 3.6-65.8 82.9z"/>
					<path id="&lt;Path&gt;" class="s9" d="m1056.7 398.9c0.9-1.5 1.9-2.9 2.8-4.4 1-1.4 1.9-2.9 2.9-4.3 2-2.9 4-5.8 6.1-8.6 4.1-5.6 8.5-11.1 13.1-16.4 4.6-5.3 9.5-10.4 14.6-15.3-2.3 2.7-4.5 5.4-6.7 8.1-2.3 2.7-4.5 5.4-6.7 8.1-4.3 5.5-8.6 11-12.7 16.6-4.2 5.5-8.2 11.2-12 17l-2.9 4.3-2.8 4.4c-2 2.8-3.6 5.9-5.5 8.8 3-6.2 6.1-12.4 9.8-18.3z"/>
				</g>
				<g id="&lt;Group&gt;">
					<path id="&lt;Path&gt;" class="s10" d="m1038.5 423.4q19.7-48.4 15.2-85.7-33.6 19.2-15.2 85.7z"/>
					<path id="&lt;Path&gt;" class="s9" d="m1040.5 396.4q0-2.1 0.2-4.3c0.1-1.4 0.2-2.8 0.4-4.3 0.3-2.8 0.6-5.7 1-8.5 0.8-5.7 1.8-11.4 3.1-17 1.3-5.6 2.8-11.2 4.7-16.7-0.6 2.8-1.3 5.6-1.8 8.4q-0.8 4.3-1.6 8.5-1.6 8.5-2.8 17c-0.8 5.6-1.4 11.3-2 17l-0.3 4.3-0.3 4.3c-0.3 2.8-0.2 5.7-0.5 8.6-0.3-5.8-0.5-11.5-0.1-17.3z"/>
				</g>
				<g id="&lt;Group&gt;">
					<path id="&lt;Path&gt;" class="s11" d="m1040.1 427.2q24.2-37.6 62.1-44.7 12.7 19.7 8.8 53.4l-11.5-35.9q-13.1 12.8-53.8 32.5z"/>
					<path id="&lt;Path&gt;" class="s9" d="m1060.5 414.3l2.7-2.3q5.5-4.4 11.4-8.4 5.9-4 12.1-7.5 6.2-3.6 12.7-6.7l0.8-0.4 0.4 0.7c1.6 2.3 2.9 4.8 4 7.3 1 2.6 1.9 5.2 2.5 7.9 0.7 2.6 1.2 5.3 1.5 8 0.2 2.7 0.4 5.4 0.3 8.1-0.4-5.4-1.5-10.7-3-15.9q-1.2-3.8-2.8-7.5c-1-2.2-2.2-4.3-3.6-6.3-4 1.9-7.9 4.1-11.8 6.3q-6.1 3.5-12.1 7.3c-4 2.5-7.9 5.2-11.7 7.9-3.8 2.8-7.5 5.7-11.1 8.7 1.6-1.6 3.3-3.3 5-4.9z"/>
				</g>
			</g>
			<g id="&lt;Group&gt;">
				<ellipse id="&lt;Path&gt;" class="s3" cx="877.8" cy="154.9" rx="40.3" ry="37.2"/>
				<ellipse id="&lt;Path&gt;" class="s12" cx="877.8" cy="154.9" rx="33.5" ry="31"/>
				<ellipse id="&lt;Path&gt;" class="s0" cx="877.8" cy="154.9" rx="32.1" ry="29.6"/>
				<path id="&lt;Path&gt;" class="s2" d="m878.4 156.3l-1.7-3.1 20.8-10 1.7 3.1z"/>
				<path id="&lt;Path&gt;" class="s2" d="m892.5 179.1l-1.6 0.7-14-24.9 1.6-0.8z"/>
				<ellipse id="&lt;Path&gt;" class="s7" cx="877.8" cy="154.9" rx="2.6" ry="2.4"/>
				<g id="&lt;Group&gt;">
					<g id="&lt;Group&gt;">
						<path id="&lt;Path&gt;" class="s13" d="m876.5 126.6h2.6v5h-2.6z"/>
						<path id="&lt;Path&gt;" class="s13" d="m876.5 178.6h2.6v5h-2.6z"/>
					</g>
					<g id="&lt;Group&gt;">
						<path id="&lt;Path&gt;" class="s13" d="m903.2 153.9h5.4v2.4h-5.4z"/>
						<path id="&lt;Path&gt;" class="s13" d="m846.9 153.9h5.4v2.4h-5.4z"/>
					</g>
				</g>
				<g id="&lt;Group&gt;">
					<g id="&lt;Group&gt;">
						<path id="&lt;Path&gt;" class="s13" d="m896.7 139.3l-1.8-1.7 3.8-3.5 1.8 1.7z"/>
						<path id="&lt;Path&gt;" class="s13" d="m856.9 176.1l-1.8-1.7 3.8-3.5 1.8 1.7z"/>
					</g>
					<g id="&lt;Group&gt;">
						<path id="&lt;Path&gt;" class="s13" d="m894.9 172.6l1.8-1.7 3.8 3.5-1.8 1.7z"/>
						<path id="&lt;Path&gt;" class="s13" d="m855.1 135.8l1.8-1.7 3.8 3.5-1.8 1.7z"/>
					</g>
				</g>
			</g>
			<g id="&lt;Group&gt;">
				<g id="&lt;Group&gt;">
					<path id="&lt;Path&gt;" class="s14" d="m1079.4 462.7h-749.8q0 0.1-0.1 0.2c-0.1 0.5-0.3 1-0.5 1.6-0.4 0.7-0.9 0.9-1.1 0.4q-0.2-0.3-0.2-0.7c0-0.5 0.2-1 0.3-1.5h-2.6q2.1-9.4 6.2-19.7c27.3-68.5 122.5-68.4 143-116 20.5-47.7 44.8-83.6 84.4-82.8 39.7 0.8 100.5 87.3 153.6 79.2 53.2-8 91.2-69 171.3-58.8 34.4 4.4 82.1 86.1 125.1 94.5 33.9 6.6 75.8 59.9 70.4 103.6z"/>
					<path id="&lt;Path&gt;" class="s15" d="m333.2 462.7q2-8.2 5.4-16.9c13.9-34.7 46.9-50.5 78.8-65.8 27.7-13.3 53.8-25.8 64.2-50 23.9-55.4 47-78.8 77.3-78.1h0.3c14.8 0.5 35.3 16.6 57 33.6 26.9 21.1 57.4 45 87.1 46.1 3.5 0.1 7.1-0.1 10.5-0.6 22.2-3.4 41.3-15 61.5-27.3 27.5-16.7 55.9-34 95.6-32.5 4 0.2 8 0.5 12.1 1 13.9 1.8 33.5 21.8 52.4 41.1 23.4 23.8 47.5 48.5 72.2 53.3 26.1 5.1 61.8 45.6 64.5 83.8q0.5 6.4-0.4 12.3"/>
					<path id="&lt;Path&gt;" class="s16" d="m974.7 462.7h-545.3q1.5-7.2 4.7-15.2c19.7-49.5 88.6-49.4 103.4-83.8 14.8-34.5 32.4-60.5 61-59.9 28.7 0.6 72.7 63.2 111.1 57.3 38.4-5.8 65.9-49.9 123.9-42.5 24.8 3.2 59.3 62.2 90.4 68.3 24.7 4.8 55.4 44.1 50.8 75.8z"/>
				</g>
				<g id="&lt;Group&gt;">
					<g id="&lt;Group&gt;">
						<g id="&lt;Group&gt;">
							<path id="&lt;Path&gt;" class="s0" d="m329.8 461.2c0 0.5-0.1 1-0.2 1.5q0 0.1-0.1 0.2c-0.1 0.5-0.3 1-0.5 1.6-0.4 0.7-0.9 0.9-1.1 0.4q-0.2-0.3-0.2-0.7c0-0.5 0.2-1 0.3-1.5q0-0.1 0-0.2c0.2-0.5 0.3-1.1 0.6-1.6 0.4-0.7 0.9-0.9 1.1-0.4q0.1 0.3 0.1 0.7z"/>
						</g>
						<g id="&lt;Group&gt;">
							<path id="&lt;Path&gt;" class="s0" d="m329.5 457.9c0-0.6 0.2-1.1 0.3-1.7 0.2-0.5 0.4-1.1 0.8-1.6 0.4-0.6 0.9-0.8 1.1-0.2q0.1 0.2 0 0.6c0 0.6-0.2 1.1-0.3 1.7-0.2 0.5-0.4 1-0.7 1.5-0.5 0.7-0.9 0.9-1.1 0.4q-0.1-0.3-0.1-0.7z"/>
						</g>
						<g id="&lt;Group&gt;">
							<path id="&lt;Path&gt;" class="s0" d="m331.6 451.7c0.7-2.2 1.6-4.4 2.5-6.5 1-2.1 2-4.3 3.3-6.3 0.4-0.7 0.9-1 1.2-0.8 0.2 0.2 0.1 0.7-0.1 1.3q-1.5 3.2-2.9 6.3c-1 2.2-1.9 4.3-2.8 6.4-0.4 0.7-0.8 1.1-1.1 0.9-0.2-0.1-0.3-0.7-0.1-1.3z"/>
						</g>
						<g id="&lt;Group&gt;">
							<path id="&lt;Path&gt;" class="s0" d="m340.2 433.7c0.1-0.4 0.3-0.7 0.4-1 0.2-0.3 0.4-0.6 0.7-0.8 0.7-0.6 1.2-0.3 1.1 0.5-0.1 0.4-0.2 0.7-0.4 1-0.2 0.3-0.4 0.6-0.7 0.8-0.7 0.6-1.1 0.3-1.1-0.5z"/>
						</g>
						<g id="&lt;Group&gt;">
							<path id="&lt;Path&gt;" class="s0" d="m344 427.6c0.1-0.3 0.2-0.6 0.4-0.9 0.2-0.3 0.5-0.6 0.8-0.8 0.7-0.5 1.2-0.2 1 0.6-0.1 0.4-0.3 0.7-0.4 1-0.3 0.3-0.5 0.5-0.8 0.8-0.7 0.4-1.2 0.2-1-0.6z"/>
						</g>
					</g>
				</g>
			</g>
			<g id="&lt;Group&gt;">
				<g id="&lt;Group&gt;">
					<path id="&lt;Path&gt;" class="s3" d="m544.5 141.3h264.2v159.2h-264.2z"/>
					<path id="&lt;Path&gt;" class="s0" d="m550.7 163.4h251.8v130.1h-251.8z"/>
					<path id="&lt;Path&gt;" class="s12" d="m544.5 141.3h264.2v16.2h-264.2z"/>
					<path id="&lt;Compound Path&gt;" fill-rule="evenodd" class="s6" d="m802.5 270.6h-39.1v22.6h-1.5v-22.6h-41.5v22.6h-1.5v-22.6h-41.6v22.6h-1.5v-22.6h-41.6v22.6h-1.4v-22.6h-41.6v22.6h-1.5v-22.6h-39v-1.4h39v-25.4h-39v-1.4h39v-25.4h-39v-1.4h39v-25.5h-39v-1.3h39v-25.4h1.5v25.4h41.6v-25.4h1.4v25.4h41.6v-25.4h1.5v25.4h41.6v-25.4h1.5v25.4h41.5v-25.4h1.5v25.4h39.1v1.3h-39.1v25.5h39.1v1.4h-39.1v25.4h39.1v1.4h-39.1v25.4h39.1zm-168.3-28.2h41.6v-25.4h-41.6zm43.1 0h41.6v-25.5h-41.6zm43.1 0h41.5v-25.4h-41.5zm0-26.8h41.5v-25.5h-41.5zm-43.1 0h41.6v-25.4h-41.6zm-43.1 0h41.6v-25.5h-41.6zm-43 0h41.6v-25.5h-41.6zm0 26.9h41.6v-25.5h-41.6zm0 26.8h41.6v-25.4h-41.6zm43 0h41.6v-25.5h-41.6zm43.1 0h41.6v-25.4h-41.6zm43.1 0h41.5v-25.5h-41.5z"/>
				</g>
				<path id="&lt;Path&gt;" class="s14" d="m651.8 209.4l-13.5 2-3.3-18.9 13.5-2z"/>
				<path id="&lt;Path&gt;" class="s17" d="m625.7 238.8l-13.5-1.8 2.9-18.9 13.5 1.8z"/>
				<path id="&lt;Path&gt;" class="s10" d="m629.7 239.2l-13.6-0.8 1.4-19.1 13.7 0.9z"/>
			</g>
			<g id="&lt;Group&gt;">
				<path id="&lt;Path&gt;" class="s18" d="m1019.4 466.6q13.7 6.1 19.1 13.5 5.4 7.4-2.7 7.8-417.1 0-430.6 0-13.5 0-8.5-5.3l17.6-16z"/>
				<g id="&lt;Group&gt;">
					<path id="&lt;Path&gt;" class="s19" d="m628 353.4q-17 100.9-22.2 130.4c-0.8 4.6-9.5 3.4-9.1-1.2q3.1-34.6 14.3-129.2z"/>
					<path id="&lt;Path&gt;" class="s1" d="m641.7 353.4q-14.8 88.4-19.5 114.3c-0.7 4-8.3 2.9-7.9-1.1q2.7-30.3 12.5-113.2z"/>
					<path id="&lt;Path&gt;" class="s1" d="m1006.8 353.4q9.9 82.9 12.6 113.2c0.3 4-7.3 5.1-8 1.1q-4.6-25.9-19.4-114.3z"/>
					<path id="&lt;Path&gt;" class="s19" d="m1024.2 353.4q11.2 94.6 14.3 129.2c0.4 4.6-8.3 5.8-9.1 1.2q-5.3-29.5-22.2-130.4z"/>
					<path id="&lt;Path&gt;" class="s20" d="m1022.5 358.7h-408.1c-7.4 0-13.3-5.5-13.3-12.3v-3.6h434.7v3.6c0 6.8-6 12.3-13.3 12.3z"/>
					<g id="&lt;Group&gt;">
						<path id="&lt;Path&gt;" class="s1" d="m578.5 341.2h479.9v6.6h-479.9z"/>
						<path id="&lt;Path&gt;" class="s19" d="m1037.2 329.2l21.2 12h-479.9l23-12z"/>
					</g>
					<g id="&lt;Group&gt;">
						<g id="&lt;Group&gt;">
							<g id="&lt;Group&gt;">
								<path id="&lt;Path&gt;" class="s20" d="m1031 316.4l-0.4 5.3-0.2 2.5-0.5 7.8c-0.3 3.5-29.8 3.9-30.1 0.4l-0.7-7.9-0.3-2.5-0.5-5.6z"/>
								<ellipse id="&lt;Path&gt;" class="s21" cx="1014.7" cy="316.4" rx="16.3" ry="1.9"/>
								<ellipse id="&lt;Path&gt;" class="s22" cx="1014.7" cy="316.4" rx="12.5" ry="1.1"/>
								<g id="&lt;Group&gt;">
									<path id="&lt;Path&gt;" class="s3" d="m1030.6 321.7l-0.2 2.5c-2.9 0.9-8.2 2-16.2 2-7.7 0-12.5-0.9-15.1-1.7l-0.3-2.5c2 0.7 6.6 1.9 15.4 1.9 8.8 0 14-1.4 16.4-2.2z"/>
								</g>
							</g>
						</g>
						<path id="&lt;Path&gt;" class="s10" d="m1010.6 317.4q-11.5-24.2 4.1-24.2 15.6 0 4.1 24.2c0 0.1-5.2 0.2-8.2 0z"/>
					</g>
				</g>
			</g>
			<g id="&lt;Group&gt;">
				<path id="&lt;Path&gt;" class="s13" d="m649.7 175.7q3.8-10.7 10.6-10.2 3.2-9.3 21.3-3.6c8.5 2 19.5 13.6 12.2 33.8-2.3 6.7 8.8 12 6.8 28.5-1.8 14.5-56 13.6-58.7 0.2-3.1-15.3 11.4-17.3 10.2-25.2-1.1-8.1-4.7-17.1-2.4-23.5z"/>
				<path id="&lt;Path&gt;" class="s23" d="m696.3 217.7c20.8 13.5 35.1 45.7 30.6 50.9-4.5 5.2-13.1 0.3-18-4.7-7-7-23-27.8-24.8-31.8-4.5-9.6 8.7-16.7 12.2-14.4z"/>
				<g id="&lt;Group&gt;">
					<g id="&lt;Group&gt;">
						<g id="&lt;Clip Group&gt;" clip-path="url(#cp1)">
							<path id="&lt;Path&gt;" class="s12" d="m704.2 494l-24.6-14 4.3-10.1q4.3 3.5 5.2 4c0.8 0.5 2.6 5.6 4.4 8.5 2.4 3.7 17.2 3.5 17.4 3.6z"/>
							<path id="&lt;Path&gt;" class="s24" d="m698.4 469.7q1.5 8.2 8.8 11.2 3.9 1.7 2.4 5.8c-1.6 1.1-13.6-0.4-16-2.7q-2-1.9-4.7-8.4l-2.6 4.3c-1.7 0-3.7-1.1-4.4-2q1.5-7 2-8 0.5-1 3.9-4.8c4.4-3.4 10.8-0.4 10.6 4.6z"/>
						</g>
						<path id="&lt;Path&gt;" class="s25" d="m702.5 478l-1.9 0.7q-1.7-1.6-1.9-3.2l1.9-0.9c0.3-0.2 0.7-0.1 0.9 0.2l1.3 2.3c0.2 0.4 0.1 0.8-0.3 0.9z"/>
					</g>
					<path id="&lt;Path&gt;" class="s24" d="m698.6 468.6c-0.1 6-10.6-0.2-10.8-3.5q0.2-35.6 8.3-76c1.6-8.1-36.4-73.8-21.2-98.6 6.7-11 21.8-17.1 26.3-3 9.7 30.8 20.5 83.9 20.4 97.4q-0.1 11.1-23 83.7z"/>
				</g>
				<g id="&lt;Group&gt;">
					<g id="&lt;Group&gt;">
						<g id="&lt;Clip Group&gt;" clip-path="url(#cp2)">
							<path id="&lt;Path&gt;" class="s12" d="m682.7 494.6l-27.2-8.9 1.9-10.7q5 2.6 5.9 2.9c1 0.3 3.9 4.9 6.3 7.4 3.2 3.2 17.6 0.1 17.9 0.1z"/>
							<path id="&lt;Path&gt;" class="s24" d="m671.5 471.9q3.3 7.8 11.2 9.3 4.2 0.8 3.7 5.2c-1.3 1.3-13.4 2.3-16.3 0.5q-2.4-1.5-6.5-7.3l-1.6 4.7c-1.6 0.3-3.9-0.4-4.8-1.1q-0.1-7.2 0.2-8.2 0.2-1.1 2.7-5.4c3.5-4.2 10.4-2.6 11.4 2.3z"/>
						</g>
						<path id="&lt;Path&gt;" class="s25" d="m677.4 479.3l-1.7 1q-2-1.2-2.5-2.8l1.6-1.2c0.2-0.2 0.7-0.2 0.9 0.1l1.9 1.9c0.2 0.3 0.2 0.8-0.2 1z"/>
					</g>
					<path id="&lt;Path&gt;" class="s24" d="m671.1 470.7c0.3 4.7-10.1 3.9-11 0-4.9-56.3-23.5-148.5-13.6-173.7 5.3-13.6 23.9-10.1 29.4 1.4l0.8 35.1q-0.7 15.8-5.6 137.2z"/>
				</g>
				<g id="&lt;Group&gt;">
					<path id="&lt;Path&gt;" class="s13" d="m699 286.9q10.2 8.3 20.2 69.9-38.6 16-81.6 1.4 0.7-34.6 2.9-49 2.2-14.4 9.3-20.8c9.9-11.7 38.9-9.8 49.2-1.5z"/>
					<path id="&lt;Path&gt;" class="s26" d="m704 297.9c-0.7 2.8-12.2 9.2-28.9 8.7-16.6-0.5-29.7-5.1-29-9.1 1.7-9.4 12.4-45.3 29-44.8 16.7 0.5 30.7 37.6 28.9 45.2z"/>
				</g>
				<path id="&lt;Path&gt;" class="s17" d="m640.4 224.2c5.1-10 30.4-16.9 31.7-17.6q24.5 8.3 27.6 14.2c0.7 1.2-2.7 5.2-3.3 10.1-0.2 2 2.6 9 2.2 11.5-1.2 8-4.4 20-3.3 22.8 1.5 3.9 7.9 23.6 9.7 29.3 0.3 0.9-0.1 1.9-1 2.3-25.6 11.2-46.5 6-59.1-0.5-0.9-0.5-1.6-1.2-1.3-2.1 1.5-5.6 8.5-22 10.5-27 2.6-6.7-17.6-35.3-13.7-43z"/>
				<path id="&lt;Path&gt;" class="s23" d="m697.3 270q-21.5 14.2-29.7 13.8-8.3-0.4-13.3-18.3z"/>
				<g id="&lt;Group&gt;">
					<g id="&lt;Group&gt;">
						<path id="&lt;Path&gt;" class="s12" d="m675.9 234.6q-0.2 0-0.4-0.1c-11.1-10.1-17.2-17.9-18.2-22.7-0.1-0.2 0.9-0.5 0.9-0.2 1 4.5 7.1 12.4 17.8 22.2l3-0.2c5.7-10.8 6-19.9 2.9-23.5-0.1-0.1 1-0.1 1.2 0.1 3.3 3.9 2.6 12.8-3.4 24q-0.1 0.2-0.3 0.2l-3.5 0.2q0 0 0 0z"/>
					</g>
					<g id="&lt;Group&gt;">
						<g id="&lt;Group&gt;">
							<path id="&lt;Path&gt;" class="s0" d="m690.8 250.4l-23.6 1.5c-0.6 0.1-1.1-0.3-1.1-0.8l-1-13.3c0-0.5 0.4-1 0.9-1l23.7-1.5c0.5-0.1 1 0.3 1.1 0.8l1 13.3c0 0.5-0.4 0.9-1 1z"/>
							<rect id="&lt;Path&gt;" class="s13" x="666.9" y="240" width="8.1" height="9.3" rx="1"></rect>
						</g>
						<path id="&lt;Path&gt;" class="s24" d="m681.3 237.3l-6.6 0.5-0.1-1 6.6-0.4z"/>
						<path id="&lt;Path&gt;" class="s12" d="m679.1 237l-2.6 0.2c-0.2 0-0.4-0.2-0.4-0.4l-0.3-3.2c0-0.2 0.2-0.4 0.4-0.4l2.6-0.2c0.3 0 0.5 0.2 0.5 0.4l0.2 3.2c0.1 0.2-0.1 0.4-0.4 0.4z"/>
						<g id="&lt;Group&gt;">
							<path id="&lt;Path&gt;" class="s27" d="m689 240l-11.7 0.8-0.1-1 11.7-0.8z"/>
							<path id="&lt;Path&gt;" class="s27" d="m689.2 242.2l-11.7 0.7-0.1-1 11.7-0.7z"/>
							<path id="&lt;Path&gt;" class="s27" d="m689.3 244.3l-11.7 0.8v-1l11.7-0.8z"/>
							<path id="&lt;Path&gt;" class="s27" d="m689.6 247.9l-11.7 0.8-0.1-1 11.7-0.8z"/>
						</g>
					</g>
				</g>
				<path id="&lt;Path&gt;" class="s28" d="m668.6 247.5c15.2-0.3 42.9 1.8 54.4 7.4 2.7 1.3 7.4 5.9 5.6 12q-1.8 6.1-11.4 4.3-36.5-6.4-45.8-9.4c-10.3-3.2-10.4-14.2-2.8-14.3z"/>
				<g id="&lt;Group&gt;">
					<path id="&lt;Path&gt;" class="s29" d="m684.9 190.4c-1.7-1.2-2.1-5-0.8-6.9q1-1.7 3.1-0.9c1.6 0.6 2.1 2.5 1.9 4.4-0.2 2.2-2.3 4.7-4.2 3.4z"/>
					<path id="&lt;Path&gt;" class="s30" d="m685.5 189.5l0.4-2.1-1.3-0.3q0.1-3.8 2.4-2.7c1.9 0.9 0.7 5.6-1.5 5.1z"/>
				</g>
				<g id="&lt;Group&gt;">
					<path id="&lt;Path&gt;" class="s29" d="m710.5 251.4c1.2-2.4 4.6-5.1 7.1-6.2 0.7-0.3 2.3-1 3.8-0.4 0.7 0.3 1 1.2 1.6 1.8 0.6 0.6 1.4 0.4 1.8 1.3 0.4 0.9 0.1 1.3 0.7 2.2 0.5 0.9 0.8 0.2 1.6 1.4 0.7 1.3 0.1 2.3 0.6 2.9q2.3 3 0.5 6.5-2-4.7-3.8-3.3c-1.7 1.3-4.8 2.5-6.6 2.7-10.3 1.1-8.5-6.6-7.3-8.9z"/>
					<g id="&lt;Group&gt;">
						<path id="&lt;Path&gt;" class="s31" d="m639 233.2c-1.4-13.9 10.9-21.3 18.8-10.8 5.9 7.7 11.9 35.2 15.7 36.7q3.1 1.3 36.9-8.3c5.3 0.1 7.9 8.8 6.1 11.8-22.6 9.2-42.1 19.9-51 16-11.1-4.8-25.1-31.6-26.5-45.4z"/>
					</g>
				</g>
				<g id="&lt;Group&gt;">
					<path id="&lt;Path&gt;" class="s29" d="m679 192.3q-0.4 3.4-1.1 9.5c-0.8 7 0.8 5.8 5 10.7q2.8 3.3-4.1 9.5l-0.5 5.5q-1-0.2-3-5.1-18.9-8.6-16.7-10.7c2.4-2.3 3.8-3.3 5.5-8.4q1.6-5.1 1.7-11.4z"/>
					<g id="&lt;Group&gt;">
						<g id="&lt;Group&gt;">
							<g id="&lt;Group&gt;">
								<g id="&lt;Group&gt;">
									<path id="&lt;Path&gt;" class="s29" d="m657.6 189.6c-1-2.1-1.2-4.5 0.6-5.7q2.4-1.7 4.4-0.1-2.7-9.9-0.5-12.5c8.5-3.8 19.5-2.5 21.9 2.3q2.9 6 1.9 11.4c3 3.5 1.7 15.6-4.7 16.9q-12.9 2.8-16.8-9.8c-2.2 1.9-5.5 0-6.8-2.5z"/>
									<path id="&lt;Path&gt;" class="s30" d="m659.2 185.9q2.5-2 4.3 2.3l-1.6 0.9 1.4 2.2c-2.6 1.3-6.1-3.7-4.1-5.4z"/>
								</g>
								<g id="&lt;Group&gt;">
									<g id="&lt;Group&gt;">
										<path id="&lt;Path&gt;" class="s32" d="m682 193.7q-1.2-1.9-8-0.3c1.4 3.2 8 4 8 0.3z"/>
										<g id="&lt;Group&gt;" style="mix-blend-mode: multiply">
											<path id="&lt;Path&gt;" class="s30" d="m682 193.7q-4.1 0.6-8-0.3"/>
											<path id="&lt;Path&gt;" class="s30" d="m682 193.7c-1.3 0.3-2.7 0.4-4 0.4-1.3-0.1-2.7-0.2-4-0.7 0.7 0.1 1.4 0.1 2 0.2q1 0 2 0.1c1.3 0 2.6 0 4 0z"/>
										</g>
									</g>
									<g id="&lt;Group&gt;">
										<path id="&lt;Path&gt;" class="s24" d="m684.5 185c0 0.6-0.8 0.7-1.8 0.8-1 0.1-1.8 0-1.8-0.6-0.1-0.5 0.7-1.1 1.7-1.1 1-0.1 1.8 0.3 1.9 0.9z"/>
										<path id="&lt;Path&gt;" class="s33" d="m686.1 182.4c0.1 0-2.5-1.4-3.2-1.4-0.7-0.1-2.7 1.2-3 0.9q-0.3-0.2-0.6-0.8 3.1-1 3.8-0.9c0.8 0.1 2.7 1.5 3 2.2z"/>
									</g>
									<g id="&lt;Group&gt;">
										<path id="&lt;Path&gt;" class="s24" d="m675.4 185.6c0 0.5-0.8 0.7-1.8 0.8-1 0-1.8 0-1.8-0.6-0.1-0.6 0.7-1.1 1.7-1.2 1 0 1.8 0.4 1.9 1z"/>
										<path id="&lt;Path&gt;" class="s33" d="m672.3 180.5q0.8-0.1 4.6 0.5-0.2 0.6-0.5 0.9c-0.3 0.3-3-0.5-3.8-0.6-0.8 0-3.7 1.6-3.7 1.5 0.4-0.7 2.5-2.1 3.4-2.3z"/>
									</g>
									<g id="&lt;Group&gt;">
										<path id="&lt;Path&gt;" class="s34" d="m680.2 190.6q-2.3 0.2-2.3-0.4c0-0.6 4.6-1.9 4.9-1.5 0.4 0.4-1.6 1.4-2.6 1.9z"/>
										<path id="&lt;Path&gt;" class="s30" d="m679.7 184.9c0.2 0.5 3.3 2.7 3.6 3.7 0.3 1-3.2 2-3.1 2 0.2-0.1 2.4-1.6 2.3-2-0.1-0.5-2.6-2.3-3.1-3.2q-0.4-0.9-0.2-3.6 0.4 2.6 0.5 3.1z"/>
									</g>
								</g>
							</g>
						</g>
						<path id="&lt;Path&gt;" class="s33" d="m684.3 169.8c1 0.8 6.6 3.5-0.1 4.4-5 0.7-15.4-1.7-18.4-2.5 0.7 1.5 1.1 5.4 0.7 6.7q-0.5 2.5-1.6 8.1-1.4-1.8-2.3-2.7c-1-0.9-4.3-1.5-5.7 2.1q-3.1-5.2-3.2-8.8c-0.2-10.2 17.7-17.5 30.6-7.3z"/>
					</g>
				</g>
				<path id="&lt;Path&gt;" class="s29" d="m653.4 254c1-2 3.1-4.1 7.4-5.7 1.6-0.7 2.8-0.8 3.6-0.6q0.6 0 1.1 0 9.3-0.2 10.5 3.4 1.2 3.5-0.1 8-4.6 0.7-6.2 0.1c-1.4 0.7-3.1 1.8-4.6 3.6-0.5 0.8-2.2 0.5-2-0.4 0.4-1.5 1.3-3.2 3.2-4.9-1.7 0.5-4 1.3-6.2 3.1-0.8 0.6-2.6 0.1-2.2-0.8 0.9-1.9 2.8-3.7 6.7-5.5q0 0 0 0c-1.9 0.6-4.5 1.3-7 3.2-0.8 0.7-2.6 0.1-2.2-0.7 0.7-1.4 2-2.7 4.2-4-1.3 0.5-2.7 1.1-4.1 2.2-0.9 0.7-2.6 0-2.1-1z"/>
			</g>
			<g id="&lt;Group&gt;">
				<g id="&lt;Group&gt;">
					<path id="&lt;Path&gt;" class="s29" d="m748.5 352.4c-0.7 2-2.5 0.4-2.6-1.1-0.1-2 0.2-2.8-0.1-3.7q-0.2-0.5-0.4-0.9c-1.6 1.4-2.8 5.3-3.2 6.6-0.4 1.4-0.6 2.6-0.9 4.7-0.2 0.9-1.5 0.9-1.8-0.1-0.3-0.6-0.6-3-0.1-5.3 0.2-0.8 0.5-1.7 0.7-2.6-0.1 0-0.9 2-1.2 2.9-0.5 1.4-0.5 2.7-1 4.7-0.2 0.9-1.3 0.8-1.6-0.2-0.1-0.3-0.2-0.8-0.3-1.4-0.4 0.4-1.2 0.3-1.5-0.5-0.1-0.4-0.1-1.2-0.1-2.1-0.3-0.1-0.5-0.3-0.7-0.7-1.7-5.9 2.7-16.3 4.6-17.5 2.9-1.8 9.7 0.3 11.4 5.5 0.5 1.5 0.5 5.6 0.3 6.7-0.1 1.1-1.2 4.1-1.5 5z"/>
					<path id="&lt;Path&gt;" class="s26" d="m750.6 286.4c2.9-13.5-2.7-39.3 3.2-50.3 6.4-11.9 27.1-4.5 26.6 5.1-0.9 16.7-4.4 38.1-7.2 49.7q-3.8 15.9-22.4 51.4c-4.8-1.5-10-3.9-13.6-6.5q10.3-35.5 13.4-49.4z"/>
				</g>
				<g id="&lt;Group&gt;">
					<g id="&lt;Clip Group&gt;" clip-path="url(#cp3)">
						<path id="&lt;Path&gt;" class="s35" d="m749.7 479.5q2.7-0.2 4.3 1.2c1.4 1.4 2.6 2.5 4.8 2.1 5.7-1 5.4-5 7.9-3.2l-0.1 10.7-31.5 1.1-0.1-8.1z"/>
						<path id="&lt;Path&gt;" class="s36" d="m735.9 488.1q0.4 1.4 10.4 1c9.9-0.4 10.8-2.4 18.5-2.2l-0.4 2.5-29 2.2z"/>
						<path id="&lt;Path&gt;" class="s29" d="m765.3 464.3l-1 15.5q0.6 3.2 0.6 4.3 0 1.1-0.6 4.3c-1.5 1-6.2 1.3-8.5 0.6l-0.5-0.4q-0.4 0.3-3.7 1c-3.4 0.7-13.5 0.8-14.9-0.3q-1.3-4.7 2.9-5.6c10.4-2.3 12-4.8 12.7-7.8q1-3.7 2.2-13z"/>
					</g>
					<path id="&lt;Path&gt;" class="s37" d="m760.9 313.6c3.3-15.3 37.2-15.3 33.9 0-11.3 52.7-15.7 119-28 153.2-5.5 1.9-10.8-0.2-13.6-1.8q-3.2-101.7 7.7-151.4z"/>
					<path id="&lt;Path&gt;" class="s38" d="m767.9 467.7c-5.7 1.8-12.9-0.2-15.9-1.9q-0.1 0-0.1-0.2c0-0.3 0-1.4 0.1-4.6 0-0.2 0.2-0.3 0.3-0.2 5.2 2 11.2 3.4 16.6 1.6 0.2-0.1 0.4 0.1 0.3 0.3-0.6 2.6-1 4.3-1.1 4.8q0 0.1-0.2 0.2z"/>
				</g>
				<g id="&lt;Group&gt;">
					<g id="&lt;Clip Group&gt;" clip-path="url(#cp4)">
						<path id="&lt;Path&gt;" class="s35" d="m823.1 485.4l-1 8-31.2-4.2 1.2-10.7c2.6-1.6 1.9 2.5 7.4 4 2.2 0.6 3.5-0.4 5.1-1.6q1.7-1.3 4.4-0.7z"/>
						<path id="&lt;Path&gt;" class="s36" d="m821.8 493.6l-28.6-5.1-0.1-2.6c7.7 0.6 8.4 2.8 18.2 4.1q9.8 1.4 10.4 0.1z"/>
						<path id="&lt;Path&gt;" class="s29" d="m806.2 463.2q0.1 9.3 0.6 13.1c0.4 3 1.6 5.7 11.7 9.1q4.1 1.3 2.3 5.8c-1.6 0.9-11.6-0.2-14.8-1.2q-3.3-1-3.7-1.3l-0.5 0.3c-2.4 0.4-7-0.4-8.4-1.5q-0.2-3.2-0.1-4.3 0.1-1.1 1.1-4.3l0.9-15.4z"/>
					</g>
					<path id="&lt;Path&gt;" class="s35" d="m788 314.7c0.7-15.6 30.4-21.6 32.2-6.1 7.6 67-8.9 116.4-11.5 158.3-7.1 2.6-11.9 1.7-15.7 0.1q-5.9-128.8-5-152.3z"/>
					<path id="&lt;Path&gt;" class="s38" d="m809.9 462.6c-0.4 2.7-0.7 3.9-0.7 4.2q-0.1 0.2-0.2 0.2c-7.4 2.6-12.4 1.8-16.3 0.2q-0.1-0.1-0.2-0.2c0-0.5 0-1.8 0-3.9 0-0.2 0.1-0.3 0.3-0.3 5.9 1.4 11.5 1.1 16.8-0.5 0.2 0 0.4 0.1 0.3 0.3z"/>
				</g>
				<path id="&lt;Path&gt;" class="s35" d="m788.8 259.2c16.7-0.6 30.9 30.1 32 56.3 0.3 8.1-12.2 15.2-28.9 15.8-16.7 0.6-30.5-5.5-30.9-13.6-1.1-26.7 11.1-57.8 27.8-58.5z"/>
				<path id="&lt;Path&gt;" class="s13" d="m763 288.8c1.9-16.8-11.1-48.5-9.2-52.7q2.9-6.4 35.8-23c1.4 0.6 34.2 13 40.7 22.7 2.7 4.1-13.4 43.8-12.3 58.8 0.5 7.4 3.5 14.7 3.8 21.8 0.3 8.1-62.4 8.9-62.8 0.7-0.4-9.4 3-19 4-28.3z"/>
				<path id="&lt;Path&gt;" class="s26" d="m830.3 235.8q0-0.1-0.1-0.1c-25.7 19.8-27.9 55.2-8.6 79.1-0.6-6.6-3.1-13.3-3.6-20.2-1.1-15 15-54.7 12.3-58.8z"/>
				<g id="&lt;Group&gt;">
					<path id="&lt;Path&gt;" class="s39" d="m801.4 228.5l-13.1 20.5h-3.8l-8.3-19.9"/>
					<g id="&lt;Group&gt;">
						<g id="&lt;Group&gt;">
							<rect id="&lt;Path&gt;" class="s0" x="772.6" y="251.1" width="27.9" height="16.4" rx=".8"></rect>
							<rect id="&lt;Path&gt;" class="s13" x="774.3" y="255.1" width="8.2" height="9.6" rx=".6"></rect>
						</g>
						<path id="&lt;Path&gt;" class="s24" d="m783 251.7h7.1v1.1h-7.1z"/>
						<path id="&lt;Path&gt;" class="s12" d="m787.9 252.2h-3c-0.2 0-0.4-0.1-0.4-0.3v-3.6c0-0.2 0.2-0.4 0.4-0.4h3c0.2 0 0.4 0.2 0.4 0.4v3.6c0 0.2-0.2 0.3-0.4 0.3z"/>
						<g id="&lt;Group&gt;">
							<path id="&lt;Path&gt;" class="s27" d="m785.5 255.1h12.8v1.1h-12.8z"/>
							<path id="&lt;Path&gt;" class="s27" d="m785.5 257.4h12.8v1.1h-12.8z"/>
							<path id="&lt;Path&gt;" class="s27" d="m785.5 259.8h12.8v1.1h-12.8z"/>
							<path id="&lt;Path&gt;" class="s27" d="m785.5 263.7h12.8v1.1h-12.8z"/>
						</g>
					</g>
				</g>
				<path id="&lt;Path&gt;" class="s29" d="m786.8 171.2c10-0.4 18.4 5.3 18.8 15.2 0.4 9.9-4.7 15.2-17.4 15.6-10 0.4-15.9-2.5-16.3-12.4-0.6-14 5-18 14.9-18.4z"/>
				<g id="&lt;Group&gt;">
					<path id="&lt;Path&gt;" class="s29" d="m772.1 197.3c-2.2-1.8-3.4-6.5-1.2-8.1 2.3-1.5 4.6 1.1 5.3 2.2 4.5 7-1.8 7.7-4.1 5.9z"/>
					<path id="&lt;Path&gt;" class="s30" d="m773.9 196.3c0.2 0.3-0.7 0.4-1.6-0.2-1.5-1.1-2.4-4.4-1.1-5.5 1.3-1.2 2.9 0.7 3.4 1.4 0.4 0.6 1 1.6 0.8 2-0.5 1.4-1.4 0.2-1.8 0.8-0.2 0.2 0 0.9 0.3 1.5z"/>
					<path id="&lt;Path&gt;" class="s40" d="m774.6 191.9q0 0.1 0 0.1c0.4 0.6 1 1.6 0.8 2-0.5 1.4-1.4 0.2-1.8 0.8-0.2 0.2-0.1 0.6 0.1 1.1-0.9-0.8-1.4-1.9-1-3.1 0.2-0.5 1.1-1.1 1.9-0.9z"/>
				</g>
				<path id="&lt;Path&gt;" class="s13" d="m770.5 178.2q-1.5 8.3 2.2 14.6c3.8 6.2 6.3-17.8-2.2-14.6z"/>
				<path id="&lt;Path&gt;" class="s29" d="m796.5 198.7q0.5 15.3 3.1 18.2c9.1 10.3-0.4 19.3-8.5 19.1-10.6-0.2-14.3-7.5-8.2-16.3q1.2-1.7 0.2-19.3z"/>
				<path id="&lt;Path&gt;" class="s29" d="m772.4 198.9q-0.3-3-0.6-12.1c-0.2-6.3 3.5-11.3 10.1-11.5 4.9-0.2 15.9 0.7 13.5 11.1-1.2 5.1 1.9 7.4 1.5 11.2-0.6 6.2-7.1 14.1-13.4 14.3-6.3 0.2-10.3-4.2-11.1-13z"/>
				<path id="&lt;Path&gt;" class="s13" d="m777.5 171.7c-1.6 0.2-4 1.3-4.4 1-0.7-1.1 2.2-7.9 16.1-4q-1.3-1.5-0.5-1.6c9-2.3 17.1 7.2 16.7 16.5 0.1-1 0.3-2.8 0.9-2.9 1-0.2 2.1 5.2 0 10.1-1.8 5.3-9.6 12.8-9.8 8.7-0.4-2.8-0.4-5.1-1.7-7.8-0.8-1.6-1.6-3.2-1.8-5q-0.1-1.6 0.2-3.2c-0.1 0-8.1-1.3-13.5-4.2q0.5 0.4 1 0.8c2.3 1.5 7.6 3.2 7.4 4-0.2 0.8-16.1 0.3-16.3-3.8-0.6 0-2.2 4.6-2.7 3.8-3.3-5.4 2.6-10.7 8.4-12.4z"/>
				<g id="&lt;Group&gt;">
					<g id="&lt;Group&gt;">
						<path id="&lt;Path&gt;" class="s41" d="m787.2 189.6c0 0 0 0 0 0 0 0 0 0 0 0z"/>
					</g>
				</g>
				<g id="&lt;Group&gt;">
					<path id="&lt;Path&gt;" class="s0" d="m781.5 203.6c-2.8 0-3.9-1.8-3.7-2.2 0.3-0.4 10.2-0.8 10.3-0.3 0.2 0.5-3.4 2.5-6.6 2.5z"/>
					<path id="&lt;Compound Path&gt;" fill-rule="evenodd" class="s42" d="m788.5 201c0 0.4-0.2 0.5-0.3 0.6q-0.1 0.2-0.3 0.3-0.3 0.2-0.6 0.4-0.6 0.3-1.3 0.6-1.3 0.5-2.7 0.8c-1 0.1-2 0.2-2.9 0-1-0.2-1.9-0.7-2.5-1.4-0.1-0.2-0.2-0.4-0.3-0.7q0-0.1 0.1-0.2c0-0.1 0.1-0.2 0.1-0.2h0.1q0.2-0.1 0.4-0.1 0.7-0.1 1.4-0.2 1.4-0.1 2.8-0.2 1.4-0.1 2.8-0.1 0.7 0 1.5 0 0.3 0 0.7 0 0.2 0.1 0.4 0.1 0.1 0 0.2 0c0.1 0.1 0.2 0 0.4 0.3zm-0.8 0.2q0 0-0.1 0.1 0.1 0 0.1 0l0.2 0.1q0 0 0 0-0.1-0.1-0.1-0.2c0-0.2 0 0-0.1 0zm-0.3 0.1q-0.3-0.1-0.7-0.1-0.7 0-1.4 0-1.4 0-2.8 0-1.4 0-2.8 0.1-0.7 0-1.3 0.1-0.2 0.1-0.4 0.1 0 0 0 0.1c0 0.1 0.1 0.3 0.2 0.5 0.5 0.7 1.4 1.1 2.3 1.2 0.9 0.2 1.8 0.1 2.7-0.1q1.3-0.3 2.6-0.9 0.6-0.2 1.2-0.6 0.2-0.1 0.5-0.3 0-0.1 0.1-0.1-0.1 0-0.2 0zm-9.4 0.2q0 0 0 0zm0 0q0 0 0 0 0 0 0 0z"/>
				</g>
				<g id="&lt;Group&gt;">
					<path id="&lt;Path&gt;" class="s29" d="m795.7 190.7c0.6-1.2 2.7-3.9 5.1-2.5 2.4 1.4 1.6 6.1-0.5 8.1-2.1 2-8.5 1.7-4.6-5.6z"/>
					<path id="&lt;Path&gt;" class="s30" d="m798.6 193.8l-1.9-0.5q0.3-1.5 0.7-2.1c0.4-0.7 1.9-2.7 3.2-1.7 1.4 1 0.8 4.4-0.6 5.6q-0.8 0.6-1.6 0.8z"/>
				</g>
				<g id="&lt;Group&gt;">
					<path id="&lt;Path&gt;" class="s29" d="m829.5 344.9c0.3-1.1 1.9-4.9 2.9-6.1 3.6-4.4 10.8-4 12.8-1.3 1.3 1.6 1.3 12.8-2.6 17.8-0.3 0.3-0.6 0.4-0.9 0.4-0.4 0.9-0.7 1.6-0.9 1.9-0.6 0.7-1.4 0.5-1.6 0-0.4 0.6-0.7 1-0.9 1.2-0.6 0.8-1.7 0.5-1.5-0.4 0.3-2 0.8-3.2 0.9-4.6 0.1-1 0-3.1 0-3.1-0.1 0.8-0.2 1.7-0.4 2.6-0.3 2.3-1.6 4.4-2.1 5-0.7 0.7-1.9 0.3-1.7-0.6 0.4-2 0.8-3.3 1-4.7 0.1-1.4 0.4-5.4-0.4-7.2q-0.4 0.3-0.8 0.7c-0.6 0.7-0.6 1.6-1.6 3.4-0.6 1.4-2.9 2.3-2.8 0.2 0.1-0.9 0.3-4.1 0.6-5.2z"/>
					<path id="&lt;Path&gt;" class="s13" d="m828.5 233.6c7.7 7.2 12 26.2 15.8 48q4.4 25 2.6 59.1c-0.1 1.5-16.3-1-16.2-2.5q-1.9-34.8-7.3-50.3c-5.8-16.4-11.1-28.3-16.3-41.7-3.5-9 11.2-22 21.4-12.6z"/>
				</g>
				<g id="&lt;Clip Group&gt;" clip-path="url(#cp5)">
					<path id="&lt;Path&gt;" class="s13" d="m798.3 212.7c5.2-1 7 3 6.6 6.3q-0.4 3.3-17.7 18.4c-3.9-7.4 5.9-23.7 11.1-24.7z"/>
					<path id="&lt;Path&gt;" class="s32" d="m816.4 225.3q-7.6-0.1-11.3 3.5c-5.8 5.7-8.7 7.3-17.9 8.6q11.9-20.8 11.5-22.1c-0.4-1.3-1.3-3.8 1.6-4 3-0.3 16.2 7.2 16.1 14z"/>
				</g>
				<g id="&lt;Clip Group&gt;" clip-path="url(#cp6)">
					<path id="&lt;Path&gt;" class="s13" d="m788 237.3q-10.5-14.1-11.2-17.3c-0.7-3.3 0.8-7.3 6.1-6.7 5.2 0.6 8.5 16.4 5.1 24z"/>
					<path id="&lt;Path&gt;" class="s32" d="m780.7 212c3 0 3 2.4 2.7 3.7q-0.3 1.4 4.6 21.6c-7-0.2-9-3.6-12.4-7.4q-3.6-4.1-9.6-3.6c-1.6-5.6 11.7-14.4 14.7-14.3z"/>
				</g>
				<g id="&lt;Group&gt;">
					<path id="&lt;Path&gt;" class="s43" d=""/>
				</g>
				<g id="&lt;Group&gt;">
					<g id="&lt;Group&gt;">
						<path id="&lt;Path&gt;" class="s24" d="m786.4 192.8c1 0 1.7 0.4 1.7 1 0 0.5-0.8 0.6-1.7 0.6-1 0-1.7-0.1-1.7-0.7 0-0.5 0.8-1 1.7-0.9z"/>
						<path id="&lt;Path&gt;" class="s13" d="m790.7 189.1c0 0.1-2.8-0.6-3.6-0.5-0.9 0.1-4.1 0.8-4.4 0.5q-0.3-0.2-0.6-1.3 4.4-0.8 5.3-0.6c0.6 0.1 2 0.1 2.8 0.7 0.3 0.3 0.5 0.9 0.5 1.2z"/>
					</g>
					<g id="&lt;Group&gt;">
						<path id="&lt;Path&gt;" class="s24" d="m776.9 192.5c1 0 1.7 0.5 1.7 1 0 0.6-0.8 0.7-1.7 0.6-1 0-1.7-0.1-1.7-0.6 0-0.6 0.8-1 1.7-1z"/>
						<path id="&lt;Path&gt;" class="s13" d="m772.4 188.4c0.4-0.4 1.6-0.7 2-0.8q0.9-0.2 5.7 0.6-0.4 1.1-0.7 1.4c-0.3 0.3-3.7-0.7-4.5-0.8-0.8 0-2.7 1.1-2.7 1 0-0.3-0.2-1 0.2-1.4z"/>
					</g>
					<g id="&lt;Group&gt;">
						<path id="&lt;Path&gt;" class="s34" d="m777.1 196.9c0.3-0.3 4.8 0.7 4.8 1.3q0 0.5-2.2 0.4c-1-0.4-2.9-1.3-2.6-1.7z"/>
						<path id="&lt;Path&gt;" class="s30" d="m780.3 190.2q0.3 2.6-0.1 3.5c-0.5 0.8-2.7 2.7-2.8 3.1-0.1 0.4 2.1 1.7 2.3 1.8 0.1 0.1-3.3-0.8-3-1.7 0.2-1 3-3.2 3.2-3.7q0.1-0.5 0.4-3z"/>
					</g>
				</g>
			</g>
			<g id="&lt;Group&gt;">
				<g id="&lt;Group&gt;">
					<g id="&lt;Group&gt;">
						<path id="&lt;Path&gt;" class="s8" d="m889.4 241.4q-3.2 54.7-28.7 96.8c-4.8-1.4-10.1-3.8-13.7-6.4 12.4-39.7 13.4-86.3 21.8-101.4 6.6-11.9 21.1 1.3 20.6 11z"/>
						<g id="&lt;Group&gt;">
							<g id="&lt;Group&gt;">
								<path id="&lt;Path&gt;" class="s44" d="m893.3 347.8l-72.5-11.6 9.8-46.3 71.4 11.9z"/>
								<path id="&lt;Path&gt;" class="s6" d="m823.1 336.6l10.2-45.2 68.7 10.4-8.7 46z"/>
								<ellipse id="&lt;Path&gt;" class="s44" cx="862.6" cy="319.2" rx="5.5" ry="5.1"/>
							</g>
							<g id="&lt;Group&gt;">
								<path id="&lt;Path&gt;" class="s45" d="m852.6 342.8c-0.3 2.6-4.2 2.1-3.7-0.6 0.3-1.3 0.7-3.8 1.3-4.9 0.9-1.7 2.7-1.3 3 0.6 0.2 1.2-0.4 3.7-0.6 4.9z"/>
								<path id="&lt;Path&gt;" class="s45" d="m856 343.6c-0.3 2.5-4.2 2-3.7-0.6 0.3-1.2 0.7-3.6 1.3-4.7 0.9-1.6 2.7-1.3 3 0.6 0.2 1.1-0.4 3.5-0.6 4.7z"/>
								<path id="&lt;Path&gt;" class="s45" d="m859.5 344.3c-0.4 2-4.2 1.6-3.7-0.5 0.2-1 0.7-2.9 1.3-3.7 0.8-1.3 2.6-1.1 3 0.4 0.2 0.9-0.5 2.8-0.6 3.8z"/>
								<path id="&lt;Path&gt;" class="s45" d="m849.2 341.8c-0.4 2-4.2 1.6-3.7-0.5 0.2-0.9 0.7-2.9 1.3-3.7 0.8-1.3 2.7-1 3 0.4 0.2 1-0.4 2.9-0.6 3.8z"/>
							</g>
						</g>
					</g>
					<g id="&lt;Group&gt;">
						<g id="&lt;Clip Group&gt;" clip-path="url(#cp7)">
							<path id="&lt;Path&gt;" class="s35" d="m862.9 476.2q2.8-0.3 4.4 1.2c1.4 1.4 2.5 2.6 4.8 2.2 5.8-0.9 5.6-5 8-3.1l-0.3 10.7-31.7 0.7v-8.2z"/>
							<path id="&lt;Path&gt;" class="s38" d="m849 484.6q0.4 1.4 10.4 1.1c10-0.2 10.9-2.3 18.7-2l-0.5 2.5-29.2 1.9z"/>
							<path id="&lt;Path&gt;" class="s38" d="m878.9 461.1l-1.2 15.5q0.5 3.2 0.5 4.4 0 1-0.7 4.3c-1.5 0.9-6.2 1.1-8.5 0.5l-0.5-0.4q-0.5 0.2-3.8 0.9c-3.4 0.7-13.5 0.6-15-0.5q-1.1-4.7 3.1-5.6c10.5-2.2 12.1-4.7 12.9-7.7q1-3.7 2.3-13z"/>
						</g>
						<path id="&lt;Path&gt;" class="s37" d="m879.4 475.7c-4.1 1.2-10.7 3-15.2-0.4q9.4-143.7 12.7-166c2.3-15.5 25.6-13.9 29.5 1.3q10.2 40-27 165.1z"/>
					</g>
					<g id="&lt;Group&gt;">
						<g id="&lt;Clip Group&gt;" clip-path="url(#cp8)">
							<path id="&lt;Path&gt;" class="s35" d="m949.3 482l-0.5 8.1-31.7-2.7 0.6-10.7c2.5-1.7 2 2.4 7.7 3.6 2.2 0.5 3.4-0.6 5-1.8q1.6-1.4 4.4-1z"/>
							<path id="&lt;Path&gt;" class="s38" d="m948.4 490.3l-29-3.7-0.3-2.5c7.8 0.2 8.6 2.3 18.5 3.2q10 0.9 10.5-0.5z"/>
							<path id="&lt;Path&gt;" class="s38" d="m931 460.6q0.6 9.3 1.3 13.1c0.6 3 2 5.7 12.4 8.5q4.1 1.1 2.6 5.7c-1.6 1.1-11.6 0.5-15-0.4q-3.3-0.9-3.7-1.1l-0.5 0.3c-2.4 0.5-7.1 0-8.5-1.1q-0.5-3.2-0.4-4.3 0.1-1.1 0.8-4.3v-15.6z"/>
						</g>
						<path id="&lt;Path&gt;" class="s35" d="m933.6 475.9c-3.5 2.1-9.5 3-14.4 0.5q-17.4-114.9-15.5-164.6c0.5-15.7 24.2-20 32.1-6.2q14.9 26.1-2.2 170.3z"/>
					</g>
					<path id="&lt;Path&gt;" class="s35" d="m910.2 278c14.4-0.3 26.2 13.8 26.9 40.2 0.3 8.2-10.6 15.1-25.1 15.4-14.4 0.3-31.2-9.1-31.4-17.3-0.7-26.9 15.1-37.9 29.6-38.3z"/>
					<g id="&lt;Group&gt;">
						<path id="&lt;Path&gt;" class="s46" d="m906.3 287.7c16.8-0.4 31.4 8.3 31.9 23.7 0.1 4.8-12.5 7.4-29.3 7.8-16.9 0.3-32.3-1.7-32.4-6.5-0.4-15.8 13-24.6 29.8-25z"/>
						<g id="&lt;Group&gt;">
							<path id="&lt;Path&gt;" class="s10" d="m937.2 291.3c-0.1 7.1 1.2 12.2 1.4 19 0.2 8.1-62.9 8-63.1-0.2-0.2-8.7 1-15.2 1.4-23.9 0.9-16.7-8.3-53.5-6.2-57.8 2.4-5.1 26.4-19 37-18.7 1.5 0 34.9 9 41.3 18.8 2.7 4.3-11.7 48.6-11.8 62.8z"/>
							<path id="&lt;Path&gt;" class="s47" d="m932.8 314c-9.3-35.5-9.4-57.3 2-81.8 1.4-5 11.4-7.9 14.2-3.7 2.7 4.3-11.7 48.6-11.8 62.8-0.1 7.1 1.2 12.2 1.4 19 0 1.5-2.2 2.8-5.8 3.7z"/>
							<g id="&lt;Group&gt;">
								<ellipse id="&lt;Path&gt;" class="s0" cx="905.3" cy="236.9" rx="1.5" ry="1.4"/>
								<ellipse id="&lt;Path&gt;" class="s0" cx="903.3" cy="251.4" rx="1.5" ry="1.4"/>
								<ellipse id="&lt;Path&gt;" class="s0" cx="902.2" cy="265.5" rx="1.5" ry="1.4"/>
								<ellipse id="&lt;Path&gt;" class="s0" cx="901" cy="278.5" rx="1.5" ry="1.4"/>
								<ellipse id="&lt;Path&gt;" class="s0" cx="901.1" cy="291.4" rx="1.5" ry="1.4"/>
								<ellipse id="&lt;Path&gt;" class="s0" cx="900.7" cy="304.3" rx="1.5" ry="1.4"/>
							</g>
						</g>
					</g>
					<g id="&lt;Group&gt;">
						<g id="&lt;Group&gt;">
							<rect id="&lt;Path&gt;" class="s0" x="889.2" y="249.6" width="27.9" height="16.4" rx=".8"></rect>
							<rect id="&lt;Path&gt;" class="s10" x="890.9" y="253.6" width="8.2" height="9.6" rx=".6"></rect>
						</g>
						<path id="&lt;Path&gt;" class="s24" d="m899.6 250.2h7.1v1.1h-7.1z"/>
						<path id="&lt;Path&gt;" class="s12" d="m904.5 250.8h-2.9c-0.3 0-0.5-0.2-0.5-0.4v-3.6c0-0.2 0.2-0.4 0.5-0.4h2.9c0.2 0 0.4 0.2 0.4 0.4v3.6c0 0.2-0.2 0.4-0.4 0.4z"/>
						<g id="&lt;Group&gt;">
							<path id="&lt;Path&gt;" class="s27" d="m902.2 253.6h12.7v1.1h-12.7z"/>
							<path id="&lt;Path&gt;" class="s27" d="m902.2 255.9h12.7v1.1h-12.7z"/>
							<path id="&lt;Path&gt;" class="s27" d="m902.2 258.3h12.7v1.1h-12.7z"/>
							<path id="&lt;Path&gt;" class="s27" d="m902.2 262.2h12.7v1.1h-12.7z"/>
						</g>
					</g>
					<g id="&lt;Group&gt;">
						<path id="&lt;Path&gt;" class="s48" d="m904.7 247.4h-3.3c-0.4 0-0.7-0.2-0.8-0.5-4.2-9.3-10.4-29.3-7.2-33.4 0.1-0.2 0.8-0.7 0.7-0.5-1.9 4 2.6 23 7.4 33.6l3.2-0.1 0.2-0.2c5.5-5.8 18.4-21 19.2-32.2 0-0.3 0.8 0.5 0.8 0.7-0.8 11.6-13.7 26.2-19.2 32.1l-0.3 0.3c-0.2 0.1-0.4 0.2-0.7 0.2z"/>
					</g>
					<g id="&lt;Group&gt;">
						<path id="&lt;Path&gt;" class="s46" d="m920.3 216.3l-22.5 1.3-1-10.5c0.8-2.4 22.1-3.2 23.4-0.7z"/>
						<g id="&lt;Group&gt;">
							<g id="&lt;Group&gt;">
								<path id="&lt;Path&gt;" class="s29" d="m914.5 192.8q-0.1 6.7 1.5 12 1.6 5.4 5.9 12.3l-10.1 1.2-6.5 9.5-2.4-10.7-7.9-2.2q7.2-4.6 6.5-11.9-0.6-6.5-1-10z"/>
								<g id="&lt;Group&gt;">
									<path id="&lt;Path&gt;" class="s11" d="m924.6 215.2c-0.1 3.2-2.3 6.8-5.6 10.7l-6.9-8.6-5.9 11.4-1.5-0.2 6.1-12.2q4.6-2.9 5.9-4.1 4.1-3.8 3.5-5.8z"/>
									<path id="&lt;Path&gt;" class="s46" d="m913.6 222.6l-7.4 6.1 5.9-11.4 6.9 8.6z"/>
								</g>
								<g id="&lt;Group&gt;">
									<path id="&lt;Path&gt;" class="s11" d="m896.8 207.1c0 2.9 2.1 7.5 5.9 9.4l3.5 12.2-1.5-0.2-3-11-4.1 8.6c-2.4-3.3-4.3-6.9-4.6-10.8z"/>
									<path id="&lt;Path&gt;" class="s46" d="m897.6 226.1l4.1-8.6 3 11-2.8-5.9z"/>
								</g>
								<g id="&lt;Group&gt;">
									<g id="&lt;Group&gt;">
										<path id="&lt;Path&gt;" class="s29" d="m888.1 187.7c-0.4-2.4 0.1-4.9 2.1-5.8q2.7-1.1 4.1 0.9c1.8 2.4 1.6 7.3-0.5 9-2.3 1.7-5.2-1.3-5.7-4.1z"/>
										<path id="&lt;Path&gt;" class="s30" d="m890.6 184.2q2.9-1.5 3.4 3.3l-1.7 0.5 0.7 2.7c-2.8 0.7-4.7-5.2-2.4-6.5z"/>
									</g>
									<g id="&lt;Group&gt;">
										<path id="&lt;Path&gt;" class="s29" d="m914.5 192.8q-0.5 4.5-2.3 6.9c-2.2 2.8-5.2 6.3-13.9 5.1q-8.8-1.2-6.9-18.4-0.6-6.7 1.2-12c1.8-5.3 13.7-7.2 22.9-3.7q2.4 2.6 0.3 13.2 2-1.8 4.6-0.2c2 1.2 1.9 3.7 1 6-1.1 2.7-4.6 4.9-6.9 3.1z"/>
										<path id="&lt;Path&gt;" class="s49" d="m891.6 195.9q1.1-3.9 7.9-3.8 7.6 0.2 11.8 5.1l2.1-7.9c0.1 0.3 0.5-0.2 0.6 0.3 0.7 3.4 2.2 10.5 0.7 13.4-2.5 4.8-9.4 8.5-17.3 7.3q-13.6-2.2-6.2-20.2z"/>
										<g id="&lt;Group&gt;">
											<path id="&lt;Path&gt;" class="s29" d="m905.7 194.4c-0.7 0.5-1.6 0.7-2.4 1q-1.3 0.2-2.7 0.2-0.6 0.1-1.3 0-0.7 0-1.3-0.1c-0.5-0.1-0.9-0.2-1.3-0.3-0.4-0.2-0.9-0.4-1.2-0.8q0-0.1 0.1-0.1 0-0.1 0.1 0c0.7 0.2 1.6 0.2 2.4 0.3 0.9 0.2 1.7 0.4 2.5 0.4 1.7 0.1 3.5-0.1 5-0.7q0.1-0.1 0.2 0 0 0.1-0.1 0.1z"/>
										</g>
										<path id="&lt;Path&gt;" class="s49" d="m918.4 183c-2.5-0.2-3.8 4.6-4.4 6.6q-0.4 1.1-0.6 0 1-9.2 0.4-10.8-1-2.9-1.3-6.1-5.1 1.2-10.8 1.3 0 0-0.1 0-0.1 0-0.2 0-0.4 0-0.8 0-6 0-7.1-1.1-1.1 2.2-1.5 5l-0.6 8.5q-2.8-11.8-1.2-16.2c0.3-0.7 0.9-1.3 1.6-1.9q0.1-3.4 3.4-5.8l1 2.5q-0.3-3.2 4.4-5.8 0 2.7 1 4.1v-3.4q6.4-0.2 8.2 5.1 0.2 0.5 0.3 1c4.1 0.9 8.8 2.3 10.1 4.6q2.4 4.2-1.8 12.4z"/>
										<path id="&lt;Path&gt;" class="s30" d="m915.6 191.8l1.2-2.4-1.7-0.9q1.7-4.6 4.4-2.6c2.2 1.6-1.1 7.1-3.9 5.9z"/>
									</g>
									<g id="&lt;Group&gt;">
										<g id="&lt;Group&gt;">
											<ellipse id="&lt;Path&gt;" class="s24" cx="906.2" cy="186.4" rx="1.9" ry=".9"/>
											<path id="&lt;Path&gt;" class="s49" d="m911.3 182.2c0 0.1-3-0.8-3.9-0.8-1 0.1-4.6 0.7-4.9 0.4q-0.3-0.4-0.6-1.5 4.9-0.5 5.9-0.3c1.1 0.2 3.2 1.5 3.5 2.2z"/>
										</g>
										<g id="&lt;Group&gt;">
											<ellipse id="&lt;Path&gt;" class="s24" cx="895.7" cy="186.3" rx="1.9" ry=".9"/>
											<path id="&lt;Path&gt;" class="s49" d="m894.3 180q0.7-0.2 4.8 0.5-0.3 1.1-0.5 1.4c-0.3 0.3-3.2-0.7-3.9-0.7-0.6-0.1-2.3 1.1-2.3 1 0.3-0.7 1.2-2 1.9-2.2z"/>
										</g>
										<g id="&lt;Group&gt;">
											<path id="&lt;Path&gt;" class="s34" d="m896 190.3c0.3-0.4 5.3 0.7 5.3 1.3q-0.1 0.6-2.5 0.5c-1-0.4-3.2-1.4-2.8-1.8z"/>
											<path id="&lt;Path&gt;" class="s30" d="m899.3 182.8q0.5 2.9 0 3.8c-0.5 1-2.9 3.1-3 3.5-0.1 0.5 2.4 1.9 2.5 2 0.2 0.1-3.6-0.8-3.3-1.9 0.2-1.1 3.3-3.6 3.5-4.1q0.1-0.5 0.3-3.3z"/>
										</g>
									</g>
								</g>
								<g id="&lt;Group&gt;">
									<g id="&lt;Group&gt;" style="mix-blend-mode: multiply">
										<path id="&lt;Path&gt;" class="s50" d="m898.5 183q1.5 5.4-4.2 5.4-5.6 0-4.3-5.2 2.4-0.9 8.5-0.2z"/>
										<path id="&lt;Path&gt;" class="s50" d="m906.4 188.4q-5.6 0-4.2-5.2 2.3-0.9 8.5-0.2 1.4 5.4-4.3 5.4z"/>
									</g>
									<path id="&lt;Compound Path&gt;" fill-rule="evenodd" class="s13" d="m911.1 183.9c0.1 0.9 0 2.3-0.9 3.3q-1.2 1.4-3.8 1.4-2.5 0-3.7-1.4c-1-1.1-1-2.7-0.9-3.5-0.3-0.1-1.9-0.7-2.9 0 0.2 0.8 0.2 2.4-0.8 3.5q-1.2 1.4-3.8 1.4-2.6 0-3.8-1.4c-1.4-1.6-0.8-4-0.8-4.1l0.1-0.1 0.1-0.1c0.1 0 2.5-0.9 8.7-0.2l0.2 0.1v0.1q0 0.1 0 0.1c0.4-0.2 1.5-0.6 3.1 0.1v-0.1l0.1-0.1c0.1 0 2.6-0.9 8.7-0.2l0.2 0.1 4.3 0.6v0.9zm-12.8-0.7c-5-0.6-7.5-0.1-8 0.1-0.1 0.5-0.4 2.3 0.7 3.5q1 1.2 3.3 1.2 2.3 0 3.3-1.2c1-1.2 0.8-3 0.7-3.6zm12.1 0c-5-0.6-7.4-0.1-8 0.1-0.1 0.5-0.4 2.3 0.7 3.5q1 1.2 3.3 1.2 2.3 0 3.3-1.2c1.1-1.2 0.8-3 0.7-3.6z"/>
								</g>
							</g>
						</g>
					</g>
					<g id="&lt;Group&gt;">
						<path id="&lt;Path&gt;" class="s10" d="m974.2 277.8q3.9 20.4-33.9 57.5c-1.8 0-11.7-9.4-11.6-10.9q22-33.2 20.6-41.8c-2-12.3-12.2-24.2-19-37.6-6.8-13.2 10.5-26.9 19-16.1 11.3 15.6 21.6 32.4 24.9 48.9z"/>
						<path id="&lt;Path&gt;" class="s8" d="m950.6 282.6c2.9-2.4 13.6-6.5 14.5-5.4q0.7 0.8-9.8 4.2 13.5-3.9 14.2-1.2c0.4 1.4-8.3 0.4-17.9 3.2q-2.8 0.6-1-0.8z"/>
						<path id="&lt;Path&gt;" class="s51" d="m926.1 320.4q4.2 8.6 15.4 15.6 0.2 1-0.9 1.2c-1 0.3-3.3-1.5-7.7-5.5-3-2.7-8-9.4-8.1-10.4q-0.1-0.9 1.3-0.9z"/>
					</g>
				</g>
			</g>
			<g id="&lt;Group&gt;">
				<ellipse id="&lt;Path&gt;" class="s18" cx="493.5" cy="488.5" rx="90.2" ry="4.8"/>
				<g id="&lt;Group&gt;">
					<g id="&lt;Clip Group&gt;" clip-path="url(#cp9)">
						<path id="&lt;Path&gt;" class="s52" d="m443.3 480.3q2.8-0.4 4.4 0.9c1.6 1.4 2.8 2.5 5 2 5.8-1.3 5.3-5.5 7.8-3.7l0.6 10.8-31.9 2.7-0.5-8.2z"/>
						<path id="&lt;Path&gt;" class="s53" d="m429.9 489.7q0.5 1.4 10.5 0.5c10-0.9 10.8-3.1 18.7-3.3l-0.3 2.6-29.3 3.7z"/>
						<path id="&lt;Path&gt;" class="s38" d="m458.2 464.1v15.6q0.8 3.3 0.8 4.4 0.1 1.1-0.4 4.4c-1.4 1.1-6.1 1.6-8.6 1.1l-0.4-0.4q-0.5 0.3-3.8 1.2c-3.4 0.8-13.6 1.5-15.1 0.4q-1.5-4.6 2.6-5.8c10.5-2.8 11.9-5.5 12.5-8.5q0.7-3.8 1.3-13.3z"/>
					</g>
					<g id="&lt;Clip Group&gt;" clip-path="url(#cp10)">
						<path id="&lt;Path&gt;" class="s52" d="m530.7 482.6l0.1 8.2-32.1-0.7-0.2-10.9c2.4-1.9 2.2 2.3 8 3.2 2.3 0.4 3.4-0.8 4.9-2.2q1.5-1.5 4.3-1.3z"/>
						<path id="&lt;Path&gt;" class="s53" d="m530.4 491l-29.5-1.9-0.4-2.5c7.8-0.3 8.8 1.7 18.8 2q10.1 0.3 10.5-1.2z"/>
						<path id="&lt;Path&gt;" class="s38" d="m510.6 462.2q1.3 9.3 2.4 13.1c0.8 3 2.4 5.5 13 7.7q4.2 0.9 3.1 5.6c-1.5 1.2-11.7 1.2-15.1 0.5q-3.4-0.6-3.9-0.9l-0.4 0.4c-2.4 0.7-7.1 0.5-8.7-0.5q-0.6-3.2-0.7-4.3 0-1.1 0.5-4.5l-1.1-15.6z"/>
					</g>
					<g id="&lt;Group&gt;">
						<path id="&lt;Path&gt;" class="s52" d="m503.7 224.9c16.7 11.9 36.4 40.3 40.4 42.4q4.6 2.3 46.9-3.3c4.4-0.5 9.6 12 4.7 14.6-12.9 4.7-42.8 16-61.1 9.3-12.2-4.5-43.1-39-47.8-48.1-6.3-12.2 11.3-18.9 16.9-14.9z"/>
						<path id="&lt;Path&gt;" class="s0" d="m596.1 270.1c0.8 2.4 0.8 4.7 0.1 6.1-0.3 0.7-0.8 1.2-1.5 1.4-0.9 0.2-1.9-0.2-2.8-1-1.1-1-2.1-2.6-2.8-4.5-0.7-2.4-0.7-4.7 0-6.1 0.3-0.7 0.8-1.2 1.4-1.4q0.4-0.1 0.8 0c1.8 0.1 3.8 2.4 4.8 5.5z"/>
						<path id="&lt;Path&gt;" class="s29" d="m620.9 262.1c-0.2 0.3-0.6 0.8-1.2 1.3 0.8 0.2 1.2 1 0.6 1.8-0.3 0.4-1.1 1-2.1 1.7 0.1 0.3 0.1 0.7-0.2 1.1-3.1 4.3-17.2 8.6-21 8.1q-0.1-0.1-0.2 0c-1.1 0-3.3 0.7-4.2 0.4q0 0-0.1-0.1c-1.1-0.9-2.2-2.6-2.8-4.5-0.8-2.4-0.7-4.7 0-6.1 0.4-0.5 1.2-0.6 2.2-1.4 0.5-0.4 1-1 1.6-1.9 0.6-0.9 2.7-3.3 7.4-6.5 1.2-0.8 5.1-1.8 6.2-2.1 2.6-0.7 2.2 2.2 0.8 3.3-2 1.6-3.1 1.9-3.7 2.7-0.4 0.5-0.6 0.9-0.8 1.4 1.2-0.1 7.5-1.4 9.1-1.9 1.7-0.6 3.1-1.4 5.5-2.5 1-0.4 1.9 0.8 1.2 1.8-0.5 0.7-2.7 2.8-5.3 3.9-1.1 0.4-2.2 0.8-3.2 1.1 0.1 0.1 2.7-0.5 3.8-0.8 1.7-0.6 3.1-1.5 5.4-2.4 1.1-0.5 1.8 0.7 1 1.6z"/>
					</g>
					<path id="&lt;Path&gt;" class="s37" d="m471.9 312c3.9-15.4 27.4-17 29.7-1.3q3.3 22.4 12.8 167.4c-4.5 3.4-11.1 1.6-15.2 0.4q-37.6-126.2-27.3-166.5z"/>
					<path id="&lt;Path&gt;" class="s35" d="m442.2 307c8-14 31.9-9.6 32.5 6.2q1.8 50.1-15.7 166c-4.9 2.5-11 1.6-14.5-0.5q-17.3-145.5-2.3-171.7z"/>
					<path id="&lt;Path&gt;" class="s35" d="m497.9 321.5c-0.2 8.2-9 17.7-23.6 17.4-14.6-0.3-33.6-7.3-33.4-15.5 0.7-26.7 12.7-40.9 27.2-40.6 14.6 0.4 30.5 11.5 29.8 38.7z"/>
					<path id="&lt;Path&gt;" class="s46" d="m502.1 314.1c-0.2 4.8-15.7 6.9-32.7 6.5-16.9-0.4-29.6-2.9-29.5-7.8 0.4-15.6 15.1-24.3 32.1-23.9 17 0.4 30.5 9.3 30.1 25.2z"/>
					<g id="&lt;Group&gt;">
						<path id="&lt;Path&gt;" class="s54" d="m432.4 229.2c6.4-9.9 36.7-18.9 38.2-19 10.7-0.3 33.8 13.2 36.3 18.3 2.1 4.4-6.2 42-5.3 58.9 0.5 8.7 1.7 15.3 1.5 24.1-0.2 8.3-63.9 8.4-63.7 0.1 0.2-6.8 5.6-11.8 5.5-19-0.1-14.2-15.3-59.1-12.5-63.4z"/>
						<path id="&lt;Path&gt;" class="s24" d="m455.8 214.5q15.1 49.7 8.9 81.2c-2.4 12-19.9 25.9-24.8 35.5q-3 5.8-3.4 19.5-18.4-6.5-18.4-19.5 0-7 21.8-46.8-14.9-44.1-11.3-54.8 3.7-10.6 27.2-15.1z"/>
						<path id="&lt;Path&gt;" class="s55" d="m428.9 304.8q4.4-10.3 11-20.4-14.9-44.1-11.3-54.8c0.8-2.2 2.4-4.2 4.6-5.9 20.2-3.1 21.7 44.1 13.7 65.2-3 7.6-11.6 10.2-18 15.9z"/>
						<g id="&lt;Group&gt;">
							<ellipse id="&lt;Path&gt;" class="s0" cx="473" cy="237.6" rx="1.5" ry="1.4"/>
							<ellipse id="&lt;Path&gt;" class="s0" cx="475" cy="252.3" rx="1.5" ry="1.4"/>
							<ellipse id="&lt;Path&gt;" class="s0" cx="476.2" cy="266.5" rx="1.5" ry="1.4"/>
							<ellipse id="&lt;Path&gt;" class="s0" cx="477.3" cy="279.7" rx="1.5" ry="1.4"/>
							<ellipse id="&lt;Path&gt;" class="s0" cx="477.3" cy="292.6" rx="1.5" ry="1.4"/>
							<ellipse id="&lt;Path&gt;" class="s0" cx="477.7" cy="305.6" rx="1.5" ry="1.4"/>
						</g>
					</g>
					<g id="&lt;Group&gt;">
						<path id="&lt;Path&gt;" class="s53" d="m430.4 226.4c8.6-10.9 22.6 4.6 15.8 17.9-6.9 13.5-15.6 27.1-17.6 39.4q-1.4 8.7 20.8 42.2c0.2 1.6-9.9 11-11.7 11q-38.1-37.4-34.1-58c3.2-16.7 10.5-35.9 26.8-52.5z"/>
						<path id="&lt;Path&gt;" class="s55" d="m426.3 284.6c-9.7-2.9-18.5-1.9-18.1-3.3q0.8-2.7 14.4 1.3-10.6-3.5-9.9-4.3c0.9-1.1 11.7 3 14.7 5.4q1.7 1.5-1.1 0.9z"/>
						<path id="&lt;Path&gt;" class="s51" d="m453.3 322.8c-0.1 0.9-5.1 7.7-8.1 10.5-4.4 4-6.8 5.8-7.8 5.5q-1-0.2-0.9-1.3 11.3-7 15.6-15.6 1.4 0 1.2 0.9z"/>
					</g>
					<path id="&lt;Path&gt;" class="s24" d="m507.9 229q2.8 8.5-4.6 56.3l7.6 60.7q-9.7 5.4-13 1.7c-3.2-3.7-8.9-51.9-9.7-56.4q-0.8-4.6-3.5-77.5 20.4 6.7 23.2 15.2z"/>
					<g id="&lt;Group&gt;">
						<path id="&lt;Path&gt;" class="s56" d="m458.4 207.7c1.9-2.4 21-2.8 22-0.3l-0.5 10.6-22.6-0.2z"/>
						<g id="&lt;Group&gt;">
							<g id="&lt;Group&gt;">
								<path id="&lt;Path&gt;" class="s29" d="m477.5 193.2q-0.2 3.6-0.5 10.1-0.2 7.5 7.2 11.7l-7.7 2.7-1.9 10.8-7.1-9.2-10.2-0.7q3.9-7.2 5.2-12.7 1.3-5.5 0.8-12.2z"/>
								<g id="&lt;Group&gt;">
									<g id="&lt;Group&gt;">
										<path id="&lt;Path&gt;" class="s29" d="m484.1 191.6c-2.2-1.5-2.7-6.4-1-8.9q1.2-2.2 4-1.1c2.1 0.8 2.7 3.2 2.5 5.7-0.3 2.9-3.1 6-5.5 4.3z"/>
										<path id="&lt;Path&gt;" class="s30" d="m484.8 190.5l0.6-2.7-1.8-0.4q0.3-4.9 3.2-3.5c2.5 1.2 0.9 7.2-2 6.6z"/>
									</g>
									<g id="&lt;Group&gt;">
										<path id="&lt;Path&gt;" class="s29" d="m456.2 191c-1.1-2.3-1.3-4.8 0.7-6.1q2.5-1.8 4.6-0.1-2.8-10.5-0.5-13.3c9.1-3.9 21.2-2.7 23.3 2.6q2.1 5.3 1.9 12.1 2.9 17.1-5.8 18.8c-8.8 1.6-12-1.7-14.4-4.5q-2-2.3-2.7-6.8c-2.2 1.9-5.8-0.1-7.1-2.7z"/>
										<g id="&lt;Group&gt;">
											<path id="&lt;Path&gt;" class="s32" d="m472.3 194.8c1.6 0.5 3.4 0.6 5.1 0.4 0.8 0 1.7-0.3 2.5-0.4 0.8-0.2 1.7-0.3 2.4-0.5l0.1-0.1q0.1 0 0.1 0.1 0 0.1 0 0.1c-0.2 0.4-0.7 0.6-1.1 0.8-0.4 0.2-0.9 0.3-1.3 0.4q-0.6 0.1-1.3 0.2-0.7 0.1-1.4 0.1-1.3 0.1-2.6-0.2c-0.9-0.1-1.8-0.4-2.5-0.8q-0.1 0-0.1-0.1 0.1-0.1 0.1 0z"/>
										</g>
										<path id="&lt;Path&gt;" class="s57" d="m456.3 171.6q6-11.7 18.1-11.7l0.2 3.5q0.9-1.5 0.7-4.2 4.9 2.4 4.8 5.7l0.9-2.6c7.5 3.5 7.9 11.9 5.2 23.9l-1.1-8.6q-0.6-2.8-1.8-4.9-1 1.1-7.1 1.4-0.4 0-0.8 0-0.1 0.1-0.2 0.1 0 0-0.1 0-5.7 0.1-11-0.8-0.1 3.2-0.9 6.2-0.5 1.6 1.1 10.9-0.2 1.1-0.6 0c-0.8-2-1.6-7.6-6.8-5.6q-2.8-8.9-0.6-13.3z"/>
										<path id="&lt;Path&gt;" class="s30" d="m457.9 187q2.6-2.1 4.5 2.5l-1.6 0.9 1.4 2.4c-2.8 1.3-6.4-4-4.3-5.8z"/>
									</g>
									<g id="&lt;Group&gt;">
										<g id="&lt;Group&gt;">
											<ellipse id="&lt;Path&gt;" class="s24" cx="471.3" cy="186.9" rx="1.9" ry=".9"/>
											<path id="&lt;Path&gt;" class="s57" d="m466.3 181.6c0.8-0.7 2.3-0.9 3-1.1q1-0.3 5.9 0-0.2 1.2-0.4 1.5c-0.3 0.3-4-0.1-5-0.1-0.9 0-3.9 1.1-3.9 1 0-0.3 0-1 0.4-1.3z"/>
										</g>
										<g id="&lt;Group&gt;">
											<ellipse id="&lt;Path&gt;" class="s24" cx="481.9" cy="186.3" rx="1.9" ry=".9"/>
											<path id="&lt;Path&gt;" class="s57" d="m484.9 182c0 0.1-1.7-1-2.3-1-0.7 0.1-3.6 1.3-3.9 1q-0.3-0.3-0.6-1.4 4-0.9 4.8-0.8c0.4 0.1 1.4 0.3 1.7 0.7 0.4 0.5 0.3 1.1 0.3 1.5z"/>
										</g>
										<g id="&lt;Group&gt;">
											<path id="&lt;Path&gt;" class="s34" d="m479.1 192.2q-2.5 0.3-2.5-0.3c-0.1-0.7 4.9-2 5.2-1.6 0.4 0.4-1.7 1.5-2.7 1.9z"/>
											<path id="&lt;Path&gt;" class="s30" d="m478.6 186.2c0.2 0.5 3.4 2.9 3.7 4 0.3 1.1-3.4 2.1-3.2 2 0.1-0.1 2.5-1.6 2.4-2.1-0.1-0.4-2.7-2.4-3.2-3.3q-0.6-1-0.3-3.9 0.4 2.8 0.6 3.3z"/>
										</g>
									</g>
								</g>
								<g id="&lt;Group&gt;">
									<g id="&lt;Group&gt;" style="mix-blend-mode: multiply">
										<path id="&lt;Path&gt;" class="s50" d="m487.4 182.8q1.6 5.2-4 5.4-5.7 0.3-4.6-5.1 6.1-1.1 8.6-0.3z"/>
										<path id="&lt;Path&gt;" class="s50" d="m466.6 183.7q6.1-1.1 8.6-0.3 1.6 5.2-4 5.4-5.7 0.3-4.6-5.1z"/>
									</g>
									<path id="&lt;Compound Path&gt;" fill-rule="evenodd" class="s58" d="m462.1 185.2v-0.9l4.2-0.9h0.2c6.2-1 8.7-0.3 8.8-0.2h0.1l0.1 0.1c1.5-0.8 2.7-0.4 3-0.2q0-0.1 0-0.1l0.1-0.2h0.2c6.1-1.1 8.6-0.3 8.7-0.2h0.1l0.1 0.1c0 0.1 0.7 2.5-0.6 4.2q-1.1 1.5-3.7 1.6-2.6 0.1-3.9-1.2c-1-1.1-1.1-2.7-1.1-3.6-1-0.6-2.5 0.1-2.8 0.2 0.1 0.9 0.2 2.4-0.7 3.6q-1.1 1.5-3.7 1.6-2.6 0.1-3.9-1.2c-0.9-1-1.1-2.4-1.1-3.3zm17.8 1.8q1.1 1.2 3.5 1 2.3-0.1 3.2-1.3c1-1.3 0.7-3.1 0.5-3.6-0.6-0.1-3-0.6-8 0.3-0.1 0.6-0.3 2.4 0.8 3.6zm-12.2 0.6q1.1 1.2 3.4 1 2.4-0.1 3.3-1.3c1-1.3 0.6-3.1 0.5-3.6-0.6-0.1-3.1-0.6-8.1 0.3 0 0.6-0.2 2.4 0.9 3.6z"/>
								</g>
							</g>
						</g>
						<g id="&lt;Group&gt;">
							<path id="&lt;Path&gt;" class="s54" d="m458.4 207.7q-0.5 2.1 3.9 5.6 1.4 1.2 6.1 3.9l6.9 12-1.6 0.2-6.5-11.1-6.5 8.9c-2.1-2.5-5.4-8.4-5.7-11.7z"/>
							<path id="&lt;Path&gt;" class="s56" d="m460.7 227.2l6.5-8.9 6.5 11.1-7.7-5.7z"/>
						</g>
						<g id="&lt;Group&gt;">
							<path id="&lt;Path&gt;" class="s54" d="m484.1 213.4c1.2 4 0.4 9.5-1.8 13.1l-4.7-8.5-2.3 11.2-1.6 0.2 2.9-12.4c1.7-1.5 3.9-6.8 3.8-9.6z"/>
							<path id="&lt;Path&gt;" class="s56" d="m477.7 223.1l-2.4 6.1 2.3-11.2 4.7 8.5z"/>
						</g>
					</g>
				</g>
			</g>
			<g id="&lt;Group&gt;">
				<path id="&lt;Path&gt;" class="s0" d="m420.9 404.1c0 1-0.9 1.8-2 1.8h-4.8v4.5c0 1-0.9 1.8-2 1.8-1.1 0-2-0.8-2-1.8v-4.5h-4.8c-1.1 0-2-0.8-2-1.8 0-1 0.9-1.9 2-1.9h4.8v-4.4c0-1 0.9-1.8 2-1.8 1.1 0 2 0.8 2 1.8v4.4h4.8c1.1 0 2 0.9 2 1.9z"/>
				<path id="&lt;Path&gt;" class="s0" d="m846.2 444.1c0 1-0.9 1.9-2 1.9h-4.8v4.4c0 1-0.9 1.9-2 1.9-1.1 0-1.9-0.9-1.9-1.9v-4.4h-4.9c-1.1 0-2-0.9-2-1.9 0-1 0.9-1.8 2-1.8h4.9v-4.5c0-1 0.8-1.8 1.9-1.8 1.1 0 2 0.8 2 1.8v4.5h4.8c1.1 0 2 0.8 2 1.8z"/>
				<path id="&lt;Path&gt;" class="s25" d="m1040.9 276.6c0 1-0.9 1.8-2 1.8h-4.8v4.5c0 1-0.9 1.8-2 1.8-1.1 0-2-0.8-2-1.8v-4.5h-4.8c-1.1 0-2-0.8-2-1.8 0-1 0.9-1.9 2-1.9h4.8v-4.4c0-1 0.9-1.8 2-1.8 1.1 0 2 0.8 2 1.8v4.4h4.8c1.1 0 2 0.9 2 1.9z"/>
				<path id="&lt;Path&gt;" class="s25" d="m417 201c0 1-0.9 1.8-2 1.8h-4.8v4.4c0 1.1-0.9 1.9-2 1.9-1.1 0-2-0.8-2-1.9v-4.4h-4.8c-1.1 0-2-0.8-2-1.8 0-1.1 0.9-1.9 2-1.9h4.8v-4.4c0-1 0.9-1.9 2-1.9 1.1 0 2 0.9 2 1.9v4.4h4.8c1.1 0 2 0.8 2 1.9z"/>
			</g>
			<g id="&lt;Group&gt;">
				<path id="&lt;Compound Path&gt;" fill-rule="evenodd" class="s12" d="m645.6 70.4q2.5 0.4 4.7 1.3l6.1-7.6q3.1 1.5 5.9 3.5l-5 8.2q1.8 1.6 3.2 3.5l9.6-3.4q1.8 2.8 2.9 5.9l-9 4.4q0.6 2.2 0.7 4.5l10 2q-0.1 3.2-1 6.4l-10.2-0.8q-0.8 2.2-2 4.1l7.2 6.7q-2 2.6-4.5 4.8l-8.2-5.7q-1.9 1.5-4.1 2.5l2.2 9.2q-3.2 1.2-6.7 1.8l-3.5-8.8q-2.4 0.2-4.9 0l-3.5 8.8q-3.5-0.6-6.7-1.8l2.2-9.2q-2.2-1-4.1-2.5l-8.1 5.7q-2.6-2.2-4.6-4.8l7.3-6.7q-1.3-1.9-2.1-4.1l-10.2 0.8q-0.8-3.2-1-6.4l10-2q0.1-2.3 0.7-4.5l-9-4.4q1.2-3.1 3-5.9l9.5 3.4q1.4-1.9 3.2-3.5l-5-8.2q2.8-2 5.9-3.5l6.1 7.6q2.3-0.9 4.7-1.3l0.7-9.4q3.5-0.3 7 0zm9.9 21.1c0-7.2-6.3-13-14.1-13-7.8 0-14.1 5.8-14.1 13 0 7.2 6.3 13 14.1 13 7.8 0 14.1-5.8 14.1-13z"/>
				<path id="&lt;Compound Path&gt;" fill-rule="evenodd" class="s2" d="m706.9 91.1q1.7 0.5 3.4 1.3l6.9-5.7q1.1 0.7 2.1 1.4l-4 7.8q1.3 1.2 2.4 2.6l9-2.1q0.6 1.1 1.1 2.2l-7.4 5.1q0.5 1.7 0.7 3.4l9.1 2q0 1.2-0.1 2.4l-9.2 1.4q-0.4 1.6-1 3.2l7 5.7q-0.6 1.1-1.3 2.1l-8.8-2.7q-1.2 1.3-2.6 2.4l3.4 8q-1.1 0.7-2.2 1.3l-6.5-6.1q-1.7 0.6-3.5 1l-1 8.6q-1.3 0.1-2.6 0.2l-2.6-8.3q-1.9-0.1-3.7-0.5l-5.2 7.1q-1.2-0.4-2.4-0.9l1.8-8.5q-1.5-0.8-2.9-2l-8.2 4q-0.9-0.9-1.7-1.8l5.9-6.7q-1-1.4-1.6-3h-9.3q-0.3-1.2-0.5-2.3l8.5-3.4q-0.1-1.7 0.1-3.4l-8.2-4q0.3-1.1 0.7-2.3l9.3 0.7q0.7-1.5 1.8-2.9l-5.3-7.1q0.8-0.9 1.8-1.7l7.8 4.6q1.5-1.1 3.2-1.9l-1.2-8.5q1.2-0.4 2.4-0.8l4.7 7.5q1.8-0.3 3.7-0.3l3.2-8.1q1.3 0.2 2.6 0.4zm-18.7 16.4c-1.1 6.3 3.6 12.2 10.4 13.3 6.9 1 13.3-3.4 14.4-9.7 1.1-6.3-3.6-12.2-10.4-13.2-6.9-1-13.3 3.3-14.4 9.6z"/>
				<ellipse id="&lt;Path&gt;" class="s2" cx="700.8" cy="109.4" rx="4.5" ry="4.1"/>
			</g>
		</g>
	</g>
</svg>