<svg version="1.2" xmlns="http://www.w3.org/2000/svg" viewBox="0 0 750 500" width="750" height="500">
	<title>5064264-ai</title>
	<style>
		.s0 { fill: #f5f5f5 } 
		.s1 { fill: #e0e0e0 } 
		.s2 { fill: #ffffff } 
		.s3 { fill: none;stroke: #fbfbfb;stroke-width: .4 } 
		.s4 { fill: #263238 } 
		.s5 { fill: #455a64 } 
		.s6 { fill: #ff725e } 
		.s7 { fill: #000000 } 
		.s8 { fill: #ffbe9d } 
		.s9 { fill: #eb996e } 
	</style>
	<g id="Background Complete">
		<g id="&lt;Group&gt;">
			<g id="&lt;Group&gt;">
				<g id="&lt;Group&gt;">
					<g id="&lt;Group&gt;">
						<g id="&lt;Group&gt;">
							<g id="&lt;Group&gt;">
								<g id="&lt;Group&gt;">
									<g id="&lt;Group&gt;">
										<path id="&lt;Path&gt;" class="s0" d="m158.1 402.6v41h-66.1-59.9v-41z"/>
									</g>
								</g>
							</g>
						</g>
					</g>
				</g>
				<g id="&lt;Group&gt;">
					<g id="&lt;Group&gt;">
						<g id="&lt;Group&gt;">
							<g id="&lt;Group&gt;">
								<g id="&lt;Group&gt;">
									<g id="&lt;Group&gt;">
										<path id="&lt;Path&gt;" class="s1" d="m92 391.2h70.5v11.4h-135.7v-11.4z"/>
									</g>
								</g>
							</g>
						</g>
					</g>
				</g>
				<g id="&lt;Group&gt;">
					<g id="&lt;Group&gt;">
						<g id="&lt;Group&gt;">
							<g id="&lt;Group&gt;">
								<g id="&lt;Group&gt;">
									<g id="&lt;Group&gt;">
										<path id="&lt;Path&gt;" class="s1" d="m92 401.6v-10.4h70.5v11.4h-4.4v41h-63.5z"/>
									</g>
								</g>
							</g>
						</g>
					</g>
				</g>
				<g id="&lt;Group&gt;">
					<g id="&lt;Group&gt;">
						<g id="&lt;Group&gt;">
							<g id="&lt;Group&gt;">
								<g id="&lt;Group&gt;">
									<g id="&lt;Group&gt;">
										<path id="&lt;Path&gt;" class="s1" d="m75.3 409.2v6.2h-25.6v-6.2z"/>
									</g>
								</g>
							</g>
						</g>
					</g>
				</g>
				<g id="&lt;Group&gt;">
					<g id="&lt;Group&gt;">
						<g id="&lt;Group&gt;">
							<g id="&lt;Group&gt;">
								<g id="&lt;Group&gt;">
									<g id="&lt;Group&gt;">
										<path id="&lt;Path&gt;" class="s2" d="m79.2 436.1h-32.8v-13h32.8z"/>
									</g>
								</g>
							</g>
						</g>
					</g>
				</g>
			</g>
		</g>
		<g id="&lt;Group&gt;">
			<g id="&lt;Group&gt;">
				<g id="&lt;Group&gt;">
					<g id="&lt;Group&gt;">
						<g id="&lt;Group&gt;">
							<g id="&lt;Group&gt;">
								<g id="&lt;Group&gt;">
									<g id="&lt;Group&gt;">
										<path id="&lt;Path&gt;" class="s0" d="m177.4 350.3v40.9h-66-59.9v-40.9z"/>
									</g>
								</g>
							</g>
						</g>
					</g>
				</g>
				<g id="&lt;Group&gt;">
					<g id="&lt;Group&gt;">
						<g id="&lt;Group&gt;">
							<g id="&lt;Group&gt;">
								<g id="&lt;Group&gt;">
									<g id="&lt;Group&gt;">
										<path id="&lt;Path&gt;" class="s1" d="m111.4 338.8h70.4v11.5h-135.6v-11.5z"/>
									</g>
								</g>
							</g>
						</g>
					</g>
				</g>
				<g id="&lt;Group&gt;">
					<g id="&lt;Group&gt;">
						<g id="&lt;Group&gt;">
							<g id="&lt;Group&gt;">
								<g id="&lt;Group&gt;">
									<g id="&lt;Group&gt;">
										<path id="&lt;Path&gt;" class="s1" d="m111.4 349.2v-10.4h70.4v11.5h-4.4v40.9h-63.4z"/>
									</g>
								</g>
							</g>
						</g>
					</g>
				</g>
				<g id="&lt;Group&gt;">
					<g id="&lt;Group&gt;">
						<g id="&lt;Group&gt;">
							<g id="&lt;Group&gt;">
								<g id="&lt;Group&gt;">
									<g id="&lt;Group&gt;">
										<path id="&lt;Path&gt;" class="s1" d="m94.6 356.9v6.1h-25.5v-6.1z"/>
									</g>
								</g>
							</g>
						</g>
					</g>
				</g>
				<g id="&lt;Group&gt;">
					<g id="&lt;Group&gt;">
						<g id="&lt;Group&gt;">
							<g id="&lt;Group&gt;">
								<g id="&lt;Group&gt;">
									<g id="&lt;Group&gt;">
										<path id="&lt;Path&gt;" class="s2" d="m98.6 383.8h-32.8v-13.1h32.8z"/>
									</g>
								</g>
							</g>
						</g>
					</g>
				</g>
			</g>
		</g>
		<g id="&lt;Group&gt;">
			<g id="&lt;Group&gt;">
				<g id="&lt;Group&gt;">
					<path id="&lt;Path&gt;" class="s1" d="m128.9 173.5h-93.2v-135.1h93.2z"/>
				</g>
			</g>
			<g id="&lt;Group&gt;">
				<g id="&lt;Group&gt;">
					<path id="&lt;Path&gt;" class="s0" d="m124.3 173.5h-93.3v-135.1h93.3z"/>
				</g>
			</g>
			<g id="&lt;Group&gt;">
				<g id="&lt;Group&gt;">
					<g id="&lt;Group&gt;">
						<path id="&lt;Path&gt;" class="s2" d="m112.7 158.9h-70.1v-105.9h70.1z"/>
					</g>
				</g>
				<g id="&lt;Group&gt;">
					<g id="&lt;Group&gt;">
						<g id="&lt;Group&gt;">
							<path id="&lt;Path&gt;" class="s1" d="m112.7 158.9q0-0.2 0-0.6 0-0.5 0-1.5-0.1-2-0.1-5.8c0-5 0-12.4 0-21.8-0.1-18.6-0.1-45.1-0.2-76.2l0.3 0.2c-21.4 0-45.2 0-70.1 0l0.3-0.2c-0.1 39.9-0.1 76.8-0.1 105.9l-0.2-0.2c21.3 0 38.8 0 51 0.1 6.1 0 10.9 0 14.1 0q2.4 0 3.7 0 0.8 0 1.3 0.1-0.4 0-1.3 0-1.2 0-3.6 0c-3.3 0-8 0-14.1 0.1-12.2 0-29.7 0-51.1 0.1h-0.2v-0.2c0-29.1 0-66 0-105.9v-0.3h0.2c24.9 0 48.7 0 70.1 0.1h0.2v0.2c0 31.2-0.1 57.7-0.1 76.4 0 9.3-0.1 16.7-0.1 21.7q0 3.8 0 5.8 0 1 0 1.5 0 0.3 0 0.5z"/>
						</g>
					</g>
				</g>
			</g>
			<g id="&lt;Group&gt;">
				<g id="&lt;Group&gt;">
					<g id="&lt;Group&gt;">
						<path id="&lt;Path&gt;" class="s3" d=""/>
					</g>
				</g>
			</g>
			<g id="&lt;Group&gt;">
				<g id="&lt;Group&gt;">
					<g id="&lt;Group&gt;">
						<path id="&lt;Path&gt;" class="s1" d="m124.5 38.4c0.1 0-0.6 0.9-1.6 2.4-1.1 1.4-2.7 3.4-4.4 5.5-1.8 2.1-3.4 4-4.6 5.4-1.2 1.3-2 2.1-2.1 2.1 0-0.1 0.7-1 1.8-2.4 1.3-1.5 2.8-3.3 4.5-5.4 1.7-2.1 3.2-3.9 4.5-5.5 1.1-1.3 1.9-2.2 1.9-2.1z"/>
					</g>
				</g>
			</g>
			<g id="&lt;Group&gt;">
				<g id="&lt;Group&gt;">
					<g id="&lt;Group&gt;">
						<path id="&lt;Path&gt;" class="s2" d="m113 158.5c3.5 5.6 7.6 10.7 12.3 15.3"/>
					</g>
				</g>
				<g id="&lt;Group&gt;">
					<g id="&lt;Group&gt;">
						<g id="&lt;Group&gt;">
							<path id="&lt;Path&gt;" class="s1" d="m125.3 173.8c-0.1 0-0.9-0.7-2.2-1.9-1.2-1.3-2.9-3.1-4.6-5.2-1.7-2.2-3.1-4.2-4-5.7-1-1.5-1.5-2.4-1.5-2.5 0.1 0 0.7 0.9 1.8 2.3 1 1.5 2.4 3.4 4.1 5.5 1.7 2.2 3.3 4 4.5 5.3 1.2 1.3 1.9 2.1 1.9 2.2z"/>
						</g>
					</g>
				</g>
			</g>
			<g id="&lt;Group&gt;">
				<g id="&lt;Group&gt;">
					<g id="&lt;Group&gt;">
						<path id="&lt;Path&gt;" class="s2" d="m31 173.4q6.1-7.5 12.2-15.1"/>
					</g>
				</g>
				<g id="&lt;Group&gt;">
					<g id="&lt;Group&gt;">
						<g id="&lt;Group&gt;">
							<path id="&lt;Path&gt;" class="s1" d="m43.2 158.3c0.1 0.1-2.5 3.6-5.9 7.7-3.4 4.2-6.2 7.5-6.3 7.4-0.1-0.1 2.5-3.5 5.9-7.7 3.4-4.2 6.2-7.5 6.3-7.4z"/>
						</g>
					</g>
				</g>
			</g>
			<g id="&lt;Group&gt;">
				<g id="&lt;Group&gt;">
					<g id="&lt;Group&gt;">
						<path id="&lt;Path&gt;" class="s1" d="m31 38.4c0.1-0.1 2.8 3 6 7 3.1 4 5.6 7.4 5.5 7.4-0.1 0.1-2.8-3-5.9-7-3.2-4-5.7-7.4-5.6-7.4z"/>
					</g>
				</g>
			</g>
			<g id="&lt;Group&gt;">
				<g id="&lt;Group&gt;">
					<path id="&lt;Path&gt;" class="s1" d="m90.8 141.1h-23.4v-66.6h23.4z"/>
				</g>
			</g>
		</g>
		<g id="&lt;Group&gt;">
			<g id="&lt;Group&gt;">
				<g id="&lt;Group&gt;">
					<g id="&lt;Group&gt;">
						<g id="&lt;Group&gt;">
							<path id="&lt;Path&gt;" class="s0" d="m632 429.3c-2.2-1.9-7.1-7.9-3.3-14.9 1.4-2.6 4.3-3.8 7-4.9 2.7-1.2 5.5-2.2 7.7-4 4.2-3.6 5.3-9.5 8.1-14.2 3.2-5.4 9.1-9.5 15.4-9.2 7.1 0.3 13.1 6.2 15.8 12.8 2.8 6.7 2.9 14.1 2.9 21.4 0 4-0.1 8.5-3.1 11.2-2.7 2.4-6.7 2.5-10.4 2.4q-19.6-0.6-39.2-1.2"/>
						</g>
					</g>
				</g>
			</g>
			<g id="&lt;Group&gt;">
				<g id="&lt;Group&gt;">
					<g id="&lt;Group&gt;">
						<g id="&lt;Group&gt;">
							<g id="&lt;Group&gt;">
								<path id="&lt;Compound Path&gt;" fill-rule="evenodd" class="s1" d="m707 321.9l-3.6 30.3h0.1l-0.4 3-9 76.4c-0.6 5.6-5 10-10.4 10.8q-1.3 0.3-2.6 0.3c0 0-45.9 0-45.9 0h-0.5q-0.1 0-0.1-0.1-1 0-2.1-0.2c-0.3-0.1-0.6-0.2-0.9-0.2q-0.2-0.1-0.3-0.1c-4.5-1.3-8-5.1-8.9-9.9l-18.5-110.8h103.1zm-16.6 37.9h-12.3l-1 32.2h10.5zm-1.7 32.1h9.1l3.8-32.1h-10.1zm-13.8 35.6l0.9-27.9h-15.3l0.7 27.9zm-28 0h13.3l-0.7-27.9h-14.8zm-3.2-28h-14.6c1.6 10.6 3.2 20.4 4.4 28h12.4zm15.6-7.7l-0.7-32.2h-17l2.5 32.2zm16.7 0l1.1-32.2h-17.5l0.7 32.2zm1.4-39.9l0.9-29.8h-19.6l0.7 29.8zm-19.6-29.8h-19.1l2.4 29.8h17.4zm-20.1 0h-21c0.4 1.7 1.1 6.2 3.1 18.3 0.5 3.5 1.1 7.4 1.8 11.5h18.4zm-14.9 37.5c1.2 7.1 2.3 14.7 3.5 22.3q0.8 5 1.6 9.9h15.2l-2.5-32.2zm-1 0h-10.3l5.4 32.2h10c-1.8-11.2-3.5-22.3-5.1-32.2zm-3.6 39.9l4.7 27.9h9.6c-1.4-8.7-2.9-18.3-4.4-27.9zm66.5 27.9l2.4-27.9h-10.2l-1 27.9zm6.5-75.5l2.5-29.8h-14.2l-1 29.8zm-85.9-29.8l5 29.8h10.4c-2.6-15.9-4.5-27.7-4.9-29.8zm91.8 77.4h-8.9l-2.4 27.9h8zm9.1-77.4h-11.3l-2.6 29.8h10.4z"/>
							</g>
						</g>
					</g>
				</g>
			</g>
		</g>
		<g id="&lt;Group&gt;">
			<g id="&lt;Group&gt;">
				<g id="&lt;Group&gt;">
					<path id="&lt;Path&gt;" class="s1" d="m709.3 45.6v90.7h-130.3l-4.7-90.1z"/>
				</g>
			</g>
			<g id="&lt;Group&gt;">
				<g id="&lt;Group&gt;">
					<path id="&lt;Path&gt;" class="s2" d="m704.6 46.2v90h-130.3v-90z"/>
				</g>
				<g id="&lt;Group&gt;">
					<path id="&lt;Compound Path&gt;" fill-rule="evenodd" class="s1" d="m705.3 136.8h-131.6v-91.2h131.6zm-130.4-1.2h129.1v-88.7h-129.1z"/>
				</g>
			</g>
			<g id="&lt;Group&gt;">
				<g id="&lt;Group&gt;">
					<g id="&lt;Group&gt;">
						<path id="&lt;Path&gt;" class="s2" d="m690.5 57.4v67.6h-102.1v-67.6z"/>
					</g>
				</g>
				<g id="&lt;Group&gt;">
					<g id="&lt;Group&gt;">
						<g id="&lt;Group&gt;">
							<path id="&lt;Path&gt;" class="s1" d="m690.5 57.4q-0.1 0-0.5 0-0.5 0-1.4 0-2 0-5.6 0.1c-4.9 0-12.1 0-21.1 0.1-18 0-43.5 0-73.5 0.1l0.3-0.3c0 20.6 0 43.5 0.1 67.6l-0.4-0.3c38.5 0 74.1 0 102.1 0l-0.2 0.3c0-20.6 0.1-37.4 0.1-49.2 0-5.9 0.1-10.4 0.1-13.6q0-2.3 0-3.6 0-0.8 0-1.2 0.1 0.4 0.1 1.2 0 1.2 0 3.5c0 3.1 0 7.7 0.1 13.6 0 11.7 0 28.6 0.1 49.3v0.2h-0.3c-28 0.1-63.6 0.1-102.1 0.1h-0.3v-0.3c0-24.1 0-47 0-67.6v-0.3h0.3c30.1 0.1 55.7 0.1 73.7 0.2 9 0 16.1 0 21 0q3.6 0.1 5.5 0.1 1 0 1.5 0 0.3 0 0.4 0z"/>
						</g>
					</g>
				</g>
			</g>
			<g id="&lt;Group&gt;">
				<g id="&lt;Group&gt;">
					<g id="&lt;Group&gt;">
						<path id="&lt;Path&gt;" class="s1" d="m574.3 46c0.1-0.1 0.9 0.5 2.3 1.4 1.3 1 3.1 2.4 5.1 3.9 1.9 1.6 3.6 3.1 4.9 4.2 1.2 1.1 1.9 1.8 1.8 1.9-0.1 0.1-3.2-2.4-7.1-5.6-4-3.1-7.1-5.7-7-5.8z"/>
					</g>
				</g>
			</g>
			<g id="&lt;Group&gt;">
				<g id="&lt;Group&gt;">
					<g id="&lt;Group&gt;">
						<path id="&lt;Path&gt;" class="s1" d="m704.6 46.2c0.2 0.2-2.9 2.8-6.8 5.9-3.9 3.1-7.2 5.4-7.3 5.3-0.1-0.1 3-2.8 6.9-5.8 3.9-3.1 7.1-5.5 7.2-5.4z"/>
					</g>
				</g>
			</g>
			<g id="&lt;Group&gt;">
				<g id="&lt;Group&gt;">
					<g id="&lt;Group&gt;">
						<path id="&lt;Path&gt;" class="s2" d="m704.5 136.2q-7.2-5.9-14.5-11.8"/>
					</g>
				</g>
				<g id="&lt;Group&gt;">
					<g id="&lt;Group&gt;">
						<g id="&lt;Group&gt;">
							<path id="&lt;Path&gt;" class="s1" d="m690 124.4c0.1-0.2 3.5 2.4 7.5 5.6 4 3.3 7.2 6 7 6.2-0.1 0.1-3.4-2.4-7.4-5.7-4-3.2-7.2-6-7.1-6.1z"/>
						</g>
					</g>
				</g>
			</g>
			<g id="&lt;Group&gt;">
				<g id="&lt;Group&gt;">
					<g id="&lt;Group&gt;">
						<path id="&lt;Path&gt;" class="s1" d="m574.3 136.2c-0.1-0.2 2.9-2.8 6.8-5.8 3.9-3.1 7.1-5.4 7.2-5.3 0.1 0.1-2.9 2.7-6.8 5.8-3.9 3-7.1 5.4-7.2 5.3z"/>
					</g>
				</g>
			</g>
			<g id="&lt;Group&gt;">
				<g id="&lt;Group&gt;">
					<path id="&lt;Path&gt;" class="s1" d="m673.4 78.5v22.6h-64.2v-22.6z"/>
				</g>
			</g>
		</g>
	</g>
	<g id="Floor">
		<g id="&lt;Group&gt;">
			<g id="&lt;Group&gt;">
				<path id="&lt;Path&gt;" class="s4" d="m707 443.6c0 0.1-150.3 0.2-335.7 0.2-185.4 0-335.7-0.1-335.7-0.2 0-0.2 150.3-0.3 335.7-0.3 185.4 0 335.7 0.1 335.7 0.3z"/>
			</g>
		</g>
	</g>
	<g id="Device">
		<g id="&lt;Group&gt;">
			<g id="&lt;Group&gt;">
				<g id="&lt;Group&gt;">
					<g id="&lt;Group&gt;">
						<g id="&lt;Group&gt;">
							<g id="&lt;Group&gt;">
								<g id="&lt;Group&gt;">
									<g id="&lt;Group&gt;">
										<g id="&lt;Group&gt;">
											<path id="&lt;Path&gt;" class="s5" d="m619.1 440h-494.1c-8.1 0-14.6-6.5-14.6-14.6v-323.7c0-4.2 3.5-7.7 7.8-7.7h508.7c3.8 0 6.8 3 6.8 6.7v324.7c0 8.1-6.5 14.6-14.6 14.6z"/>
										</g>
									</g>
								</g>
							</g>
						</g>
					</g>
				</g>
				<g id="&lt;Group&gt;">
					<g id="&lt;Group&gt;">
						<g id="&lt;Group&gt;">
							<g id="&lt;Group&gt;">
								<g id="&lt;Group&gt;">
									<g id="&lt;Group&gt;">
										<g id="&lt;Group&gt;">
											<path id="&lt;Path&gt;" class="s5" d="m641.7 444.7h-539.4c-7.6 0-13.8-6.2-13.8-13.7v-16.6h567v16.6c0 7.5-6.2 13.7-13.8 13.7z"/>
										</g>
									</g>
								</g>
							</g>
						</g>
					</g>
				</g>
				<g id="&lt;Group&gt;">
					<g id="&lt;Group&gt;">
						<g id="&lt;Group&gt;">
							<g id="&lt;Group&gt;">
								<g id="&lt;Group&gt;">
									<g id="&lt;Group&gt;">
										<g id="&lt;Group&gt;">
											<path id="&lt;Path&gt;" class="s0" d="m618.2 399.9h-493.7v-292.2h493.7z"/>
										</g>
									</g>
								</g>
							</g>
						</g>
					</g>
				</g>
				<g id="&lt;Group&gt;">
					<g id="&lt;Group&gt;">
						<g id="&lt;Group&gt;">
							<g id="&lt;Group&gt;">
								<g id="&lt;Group&gt;">
									<g id="&lt;Group&gt;">
										<g id="&lt;Group&gt;">
											<path id="&lt;Path&gt;" class="s4" d="m433 414.4l-6.5 11.2h-99l-7-11.2z"/>
										</g>
									</g>
								</g>
							</g>
						</g>
					</g>
				</g>
			</g>
			<g id="&lt;Group&gt;">
				<g id="&lt;Group&gt;">
					<g id="&lt;Group&gt;">
						<g id="&lt;Group&gt;">
							<g id="&lt;Group&gt;">
								<g id="&lt;Group&gt;">
									<g id="&lt;Group&gt;">
										<path id="&lt;Path&gt;" class="s4" d="m633.8 416h-523.3v-1.7h523.3z"/>
									</g>
								</g>
							</g>
						</g>
					</g>
				</g>
			</g>
		</g>
	</g>
	<g id="Certification">
		<g id="&lt;Group&gt;">
			<g id="&lt;Group&gt;">
				<path id="&lt;Path&gt;" class="s1" d="m264.3 94h-54.4v-19.2c0-13.5 10.9-24.9 24.5-24.9l29.9 0.5z"/>
			</g>
			<g id="&lt;Group&gt;">
				<g id="&lt;Group&gt;">
					<path id="&lt;Path&gt;" class="s2" d="m480.2 49.3c14.8 0 26.7 11.9 26.7 26.7v325.3h-242.8q0-273.5 0-313.9 0-40.3-30.9-37.5z"/>
				</g>
				<g id="&lt;Group&gt;">
					<g id="&lt;Group&gt;">
						<path id="&lt;Path&gt;" class="s4" d="m233.2 49.9c1.4 0 68.7-0.2 179.6-0.6q20.8-0.1 43.5-0.1 11.4-0.1 23.2-0.1c3.9 0 8 0.6 11.6 2.3 3.7 1.6 7.1 4.1 9.7 7.3 2.7 3.1 4.6 6.9 5.6 11 0.3 1 0.4 2 0.5 3.1 0.2 1 0.2 2.1 0.2 3.1q0 3.1 0 6.3 0.1 12.6 0.1 25.7 0 26 0 53.6c0 73.3 0 153.9 0 238.6q0 0.6 0 1.2v0.2h-0.3c-86.4 0-168.6 0-242.8 0h-0.2v-0.2c0-108.7 0.1-201 0.1-266.1 0-16.3 0-30.8 0-43.5 0-3.2 0.1-6.3-0.2-9.2-0.1-3-0.6-5.7-1.1-8.4q-0.9-3.9-2.4-7.3-1.5-3.4-3.5-6c-2.6-3.5-5.8-6-8.7-7.5-3-1.6-5.8-2.4-8-2.9-2.2-0.4-4-0.5-5.1-0.5q-1.2-0.1-1.8 0 0.6-0.1 1.8-0.1c1.1 0 2.9 0.1 5.1 0.6 2.2 0.4 5 1.2 8 2.8 3 1.5 6.2 4 8.8 7.5q2 2.7 3.6 6 1.4 3.4 2.4 7.4c0.5 2.6 1 5.4 1.1 8.4 0.3 2.9 0.2 6 0.2 9.2 0.1 12.7 0.1 27.2 0.1 43.5 0 65.1 0 157.4 0.1 266.1l-0.3-0.3c74.2 0 156.4 0 242.8 0l-0.2 0.3q0-0.6 0-1.2c0-84.7 0-165.3 0-238.6q0-27.6 0-53.6 0-13.1 0-25.7c-0.1-4.2 0.3-8.4-0.8-12.4-0.9-4-2.8-7.8-5.4-10.9-2.6-3-5.9-5.5-9.5-7.1-3.7-1.7-7.6-2.3-11.5-2.3q-11.9 0-23.2 0.1-22.8 0-43.6 0c-110.9 0.2-178.1 0.3-179.5 0.3z"/>
					</g>
				</g>
			</g>
			<g id="&lt;Group&gt;">
				<g id="&lt;Group&gt;">
					<path id="&lt;Path&gt;" class="s4" d="m368.1 145.1c0 0.2-14.8 0.3-33 0.3-18.2 0-33-0.1-33-0.3 0-0.1 14.8-0.2 33-0.2 18.2 0 33 0.1 33 0.2z"/>
				</g>
			</g>
			<g id="&lt;Group&gt;">
				<g id="&lt;Group&gt;">
					<path id="&lt;Path&gt;" class="s4" d="m382.8 153c0 0.1-18 0.3-40.3 0.3-22.3 0-40.4-0.2-40.4-0.3 0-0.1 18.1-0.3 40.4-0.3 22.3 0 40.3 0.2 40.3 0.3z"/>
				</g>
			</g>
			<g id="&lt;Group&gt;">
				<g id="&lt;Group&gt;">
					<path id="&lt;Path&gt;" class="s4" d="m388.1 184c0 0.2-18.6 0.3-41.6 0.3-23.1 0-41.7-0.1-41.7-0.3 0-0.1 18.6-0.2 41.7-0.2 23 0 41.6 0.1 41.6 0.2z"/>
				</g>
			</g>
			<g id="&lt;Group&gt;">
				<g id="&lt;Group&gt;">
					<path id="&lt;Path&gt;" class="s4" d="m442.6 214.3c0 0.1-31.2 0.3-69.7 0.3-38.5 0-69.7-0.2-69.7-0.3 0-0.1 31.2-0.3 69.7-0.3 38.5 0 69.7 0.2 69.7 0.3z"/>
				</g>
			</g>
			<g id="&lt;Group&gt;">
				<g id="&lt;Group&gt;">
					<path id="&lt;Path&gt;" class="s4" d="m442.6 223.3c0 0.2-31.2 0.3-69.7 0.3-38.5 0-69.7-0.1-69.7-0.3 0-0.1 31.2-0.2 69.7-0.2 38.5 0 69.7 0.1 69.7 0.2z"/>
				</g>
			</g>
			<g id="&lt;Group&gt;">
				<g id="&lt;Group&gt;">
					<path id="&lt;Path&gt;" class="s4" d="m442.6 232.4c0 0.1-31.2 0.2-69.7 0.2-38.5 0-69.7-0.1-69.7-0.2 0-0.2 31.2-0.3 69.7-0.3 38.5 0 69.7 0.1 69.7 0.3z"/>
				</g>
			</g>
			<g id="&lt;Group&gt;">
				<g id="&lt;Group&gt;">
					<path id="&lt;Path&gt;" class="s4" d="m442.6 241.4c0 0.1-31.2 0.3-69.7 0.3-38.5 0-69.7-0.2-69.7-0.3 0-0.2 31.2-0.3 69.7-0.3 38.5 0 69.7 0.1 69.7 0.3z"/>
				</g>
			</g>
			<g id="&lt;Group&gt;">
				<g id="&lt;Group&gt;">
					<path id="&lt;Path&gt;" class="s4" d="m442.6 250.4c0 0.2-31.2 0.3-69.7 0.3-38.5 0-69.7-0.1-69.7-0.3 0-0.1 31.2-0.2 69.7-0.2 38.5 0 69.7 0.1 69.7 0.2z"/>
				</g>
			</g>
			<g id="&lt;Group&gt;">
				<g id="&lt;Group&gt;">
					<path id="&lt;Path&gt;" class="s4" d="m356.1 259.4c0 0.2-11.9 0.3-26.4 0.3-14.6 0-26.5-0.1-26.5-0.3 0-0.1 11.9-0.2 26.5-0.2 14.5 0 26.4 0.1 26.4 0.2z"/>
				</g>
			</g>
			<g id="&lt;Group&gt;">
				<g id="&lt;Group&gt;">
					<path id="&lt;Path&gt;" class="s6" d="m498.2 222.3l-23.3 62.1c-0.5 1.3-2.3 1.3-2.7-0.1l-6.5-19.3c-0.2-0.8-1.2-1.2-1.9-0.9l-19.2 8.5c-1.2 0.5-2.4-0.7-1.9-1.9l24.8-57.7z"/>
				</g>
				<g id="&lt;Group&gt;">
					<path id="&lt;Path&gt;" class="s6" d="m530.4 213l15.6 64.5c0.4 1.3-1.2 2.3-2.2 1.5l-16.3-12.4c-0.6-0.5-1.6-0.3-2.1 0.4l-11 17.7c-0.7 1.1-2.5 0.8-2.7-0.5l-11.9-61.6z"/>
				</g>
				<g id="&lt;Group&gt;" style="opacity: .3">
					<path id="&lt;Path&gt;" class="s7" d="m498.2 222.3l-23.3 62.1c-0.5 1.3-2.3 1.3-2.7-0.1l-6.5-19.3c-0.2-0.8-1.2-1.2-1.9-0.9l-19.2 8.5c-1.2 0.5-2.4-0.7-1.9-1.9l24.8-57.7z"/>
				</g>
				<g id="&lt;Group&gt;" style="opacity: .3">
					<path id="&lt;Path&gt;" class="s7" d="m530.4 213l15.6 64.5c0.4 1.3-1.2 2.3-2.2 1.5l-16.3-12.4c-0.6-0.5-1.6-0.3-2.1 0.4l-11 17.7c-0.7 1.1-2.5 0.8-2.7-0.5l-11.9-61.6z"/>
				</g>
				<g id="&lt;Group&gt;">
					<path id="&lt;Path&gt;" class="s6" d="m501 112.1l8.2-6 6.4 7.8 9.3-3.8 4.3 9.2 10-1.3 1.8 9.9 10.1 1.2-0.7 10.1 9.4 3.7-3.2 9.5 8.2 5.9-5.4 8.5 6.4 7.8-7.4 6.9 4.4 9.1-8.9 4.8 2 9.9-9.8 2.5-0.6 10h-10.1l-3.1 9.6-9.8-2.6-5.3 8.6-8.9-4.9-7.3 6.9-7.3-6.9-8.8 4.9-5.4-8.6-9.8 2.6-3-9.6h-10.1l-0.6-10-9.8-2.5 1.9-9.9-8.8-4.8 4.3-9.1-7.4-6.9 6.5-7.8-5.5-8.5 8.2-5.9-3.1-9.5 9.4-3.7-0.7-10.1 10-1.2 1.9-9.9 10 1.3 4.2-9.2 9.4 3.8 6.4-7.8z"/>
				</g>
				<g id="&lt;Group&gt;">
					<circle id="&lt;Path&gt;" class="s2" cx="501" cy="170.8" r="45.7"/>
				</g>
				<g id="&lt;Group&gt;">
					<path id="&lt;Path&gt;" class="s6" d="m511 159.9l12.3 1.8c2 0.3 2.8 2.8 1.3 4.2l-8.9 8.7c-0.5 0.5-0.8 1.3-0.7 2.1l2.1 12.3c0.4 2-1.7 3.5-3.6 2.6l-10.9-5.8c-0.7-0.4-1.6-0.4-2.3 0l-11 5.7c-1.8 1-3.9-0.5-3.6-2.6l2.1-12.2c0.2-0.8-0.1-1.6-0.7-2.2l-8.8-8.6c-1.5-1.5-0.7-3.9 1.3-4.2l12.3-1.8c0.8-0.1 1.5-0.6 1.9-1.3l5.5-11.2c0.9-1.8 3.5-1.8 4.4 0l5.5 11.2c0.3 0.7 1 1.2 1.8 1.3z"/>
				</g>
			</g>
			<g id="&lt;Group&gt;">
				<path id="&lt;Compound Path&gt;" class="s4" d="m325.2 98.5c0-3.3 2.5-5.7 6-5.7 2 0 3.6 0.8 4.6 2.1l-1.9 1.7c-0.7-0.8-1.5-1.2-2.6-1.2-1.8 0-3 1.2-3 3.1 0 1.8 1.2 3.1 3 3.1 1.1 0 1.9-0.5 2.6-1.3l1.9 1.8c-1 1.3-2.6 2-4.6 2-3.5 0-6-2.3-6-5.6z"/>
				<path id="&lt;Compound Path&gt;" class="s4" d="m345.9 101.5v2.4h-8.7v-10.8h8.5v2.3h-5.5v1.9h4.9v2.2h-4.9v2z"/>
				<path id="&lt;Compound Path&gt;" fill-rule="evenodd" class="s4" d="m352.4 101h-1.7v2.9h-3.1v-10.8h5c2.9 0 4.8 1.5 4.8 4 0 1.6-0.8 2.7-2.1 3.4l2.3 3.4h-3.3zm0.1-5.5h-1.7v3.1h1.7c1.2 0 1.9-0.6 1.9-1.6 0-1-0.7-1.5-1.9-1.5z"/>
				<path id="&lt;Compound Path&gt;" class="s4" d="m361.3 95.5h-3.4v-2.4h9.7v2.4h-3.3v8.4h-3z"/>
				<path id="&lt;Compound Path&gt;" class="s4" d="m368.8 93.1h3.1v10.8h-3.1z"/>
				<path id="&lt;Compound Path&gt;" class="s4" d="m377.1 95.4v2.4h4.8v2.4h-4.8v3.7h-3.1v-10.8h8.6v2.3z"/>
				<path id="&lt;Compound Path&gt;" class="s4" d="m384 93.1h3.1v10.8h-3.1z"/>
				<path id="&lt;Compound Path&gt;" class="s4" d="m388.7 98.5c0-3.3 2.5-5.7 6-5.7 2 0 3.6 0.8 4.6 2.1l-1.9 1.7c-0.7-0.8-1.5-1.2-2.6-1.2-1.8 0-3 1.2-3 3.1 0 1.8 1.2 3.1 3 3.1 1.1 0 1.9-0.5 2.6-1.3l1.9 1.8c-1 1.3-2.6 2-4.6 2-3.5 0-6-2.3-6-5.6z"/>
				<path id="&lt;Compound Path&gt;" fill-rule="evenodd" class="s4" d="m407.8 101.8h-4.6l-0.9 2.1h-3.1l4.8-10.8h3l4.8 10.8h-3.2zm-0.9-2.3l-1.4-3.4-1.4 3.4z"/>
				<path id="&lt;Compound Path&gt;" class="s4" d="m414.5 95.5h-3.4v-2.4h9.8v2.4h-3.4v8.4h-3z"/>
				<path id="&lt;Compound Path&gt;" class="s4" d="m422 93.1h3.1v10.8h-3.1z"/>
				<path id="&lt;Compound Path&gt;" fill-rule="evenodd" class="s4" d="m426.7 98.5c0-3.3 2.6-5.7 6-5.7 3.5 0 6.1 2.4 6.1 5.7 0 3.2-2.6 5.6-6.1 5.6-3.4 0-6-2.4-6-5.6zm9 0c0-1.9-1.3-3.1-3-3.1-1.6 0-2.9 1.2-2.9 3.1 0 1.9 1.3 3.1 2.9 3.1 1.7 0 3-1.2 3-3.1z"/>
				<path id="&lt;Compound Path&gt;" class="s4" d="m450.7 93.1v10.8h-2.5l-4.8-5.8v5.8h-3v-10.8h2.5l4.8 5.7v-5.7z"/>
			</g>
			<g id="&lt;Group&gt;">
				<g id="&lt;Group&gt;">
					<path id="&lt;Path&gt;" class="s4" d="m463 297.6c0 0.1-13.8 0.2-30.9 0.2-17.1 0-30.9-0.1-30.9-0.2 0-0.2 13.8-0.3 30.9-0.3 17.1 0 30.9 0.1 30.9 0.3z"/>
				</g>
			</g>
			<g id="&lt;Group&gt;">
				<g id="&lt;Group&gt;">
					<path id="&lt;Path&gt;" class="s4" d="m463 306.3c0 0.1-13.8 0.2-30.9 0.2-17.1 0-30.9-0.1-30.9-0.2 0-0.2 13.8-0.3 30.9-0.3 17.1 0 30.9 0.1 30.9 0.3z"/>
				</g>
			</g>
			<g id="&lt;Group&gt;">
				<g id="&lt;Group&gt;">
					<g id="&lt;Group&gt;">
						<path id="&lt;Path&gt;" class="s6" d="m458.9 344.2q0 0 0-0.5-0.1-0.4-0.1-1.2-0.1-0.5-0.1-1-0.1-0.5-0.2-1.1c-0.1-0.8-0.2-1.7-0.5-2.8-0.5-2-1.5-4.5-3-7-1.6-2.6-3.8-5.3-6.8-7.6-3-2.2-6.8-4.2-11.2-4.9-4.3-0.8-9.3-0.7-13.9 1.1-1.2 0.4-2.4 1-3.5 1.5-1.1 0.7-2.2 1.3-3.3 2.1-1 0.8-2 1.7-3 2.6-0.9 1-1.8 2-2.6 3.1-1.5 2.2-2.9 4.6-3.8 7.3-0.8 2.7-1.3 5.5-1.3 8.4 0 2.8 0.5 5.7 1.3 8.3 0.9 2.7 2.3 5.2 3.8 7.4 0.8 1.1 1.7 2 2.6 3 1 0.9 2 1.9 3 2.6 1.1 0.8 2.2 1.4 3.3 2.1 1.1 0.5 2.3 1.1 3.5 1.5 4.6 1.8 9.6 1.9 13.9 1.2 4.4-0.8 8.2-2.7 11.2-5 3-2.3 5.2-5 6.8-7.5 1.5-2.6 2.5-5.1 3-7.1 0.3-1 0.4-2 0.5-2.8q0.1-0.6 0.2-1.1 0-0.5 0.1-0.9 0-0.8 0.1-1.3 0-0.4 0-0.4 0 0 0 0.4 0 0.5 0 1.3 0 0.4-0.1 0.9 0 0.5-0.1 1.1c-0.1 0.9-0.2 1.8-0.5 2.8-0.5 2.1-1.4 4.6-3 7.2-1.5 2.6-3.7 5.4-6.8 7.7-3 2.3-6.9 4.3-11.3 5.1-4.4 0.8-9.4 0.7-14.2-1.1-1.2-0.4-2.4-1-3.5-1.6-1.1-0.7-2.3-1.3-3.4-2.1-1.1-0.8-2-1.7-3-2.6-0.9-1-1.9-2-2.7-3.1-1.6-2.3-3-4.8-3.9-7.5-0.8-2.7-1.3-5.6-1.4-8.5 0.1-3 0.6-5.9 1.4-8.6 0.9-2.7 2.3-5.2 3.9-7.4 0.8-1.2 1.8-2.1 2.7-3.2 1-0.9 1.9-1.8 3-2.6 1.1-0.8 2.3-1.4 3.4-2.1 1.1-0.5 2.3-1.1 3.5-1.5 4.8-1.8 9.8-1.9 14.2-1.2 4.4 0.8 8.3 2.8 11.3 5.1 3.1 2.4 5.3 5.1 6.8 7.7 1.6 2.6 2.5 5.1 3 7.2 0.3 1 0.4 2 0.5 2.8q0.1 0.6 0.1 1.1 0.1 0.5 0.1 1 0 0.8 0 1.2 0 0.5 0 0.5z"/>
					</g>
				</g>
				<g id="&lt;Group&gt;">
					<circle id="&lt;Path&gt;" class="s6" cx="432.1" cy="344.2" r="17.2"/>
				</g>
			</g>
			<g id="&lt;Group&gt;">
				<g id="&lt;Group&gt;">
					<path id="&lt;Path&gt;" class="s4" d="m470.4 329.3q-0.2 0.2-0.7 0.4-0.8 0.4-2.2 1.2c-1.9 1-4.7 2.4-8.2 4.3-3.6 1.9-8 4.1-13.1 6.7-1.3 0.7-2.7 1.2-4.3 1.4-1.5 0.2-3.2-0.3-4.5-1.4-0.6-0.5-1.1-1.3-1.3-2.1-0.2-0.9-0.1-1.9 0.6-2.5 0.6-0.7 1.4-1.1 2.4-1.2 0.9-0.1 2 0.3 2.3 1.3v0.1c0.1 2.7-0.9 5.6-2.9 7.9-1.8 2.2-4.8 3.8-7.9 4-3.2 0.1-6.5-1-8.9-3.3-1.2-1.1-2.3-2.5-2.6-4.3-0.1-0.8-0.1-1.8 0.4-2.6 0.4-0.8 1-1.4 1.9-1.8 0.9-0.3 1.9-0.2 2.7 0.4 0.7 0.5 1.2 1.4 1.5 2.2 0.3 0.9 0.4 1.8 0.4 2.7q0 0.6 0 1.3-0.1 0.7-0.2 1.4c-0.6 3.5-2.7 6.8-5.6 9.2-2.9 2.3-6.8 3.6-10.6 3-3.8-0.6-7.3-2.8-9.7-5.9-1.3-1.8-2.3-3.8-2.8-6-0.4-2.2-0.4-4.5 0.5-6.5 0.5-1 1.2-2 2.2-2.5 0.9-0.6 2.1-0.9 3.2-0.6 1.1 0.2 2.1 1 2.6 2 0.5 0.9 0.8 2 1 3 1 4.1 0.7 8.4-0.7 12.1-1.4 3.8-4 7.1-7.4 9.1-3.3 2-7.2 2.8-10.8 2.3-1.8-0.2-3.6-0.7-5.1-1.6-1.6-0.9-2.9-2.1-4-3.4-2.2-2.7-3.4-6-3.3-9.2 0-1.6 0.4-3.1 0.9-4.6 0.7-1.3 1.7-2.7 3.2-3.1 0.7-0.3 1.4-0.3 2.2-0.1 0.7 0.2 1.3 0.6 1.8 1.1 1 1 1.7 2.2 2.1 3.5 0.5 1.2 0.7 2.5 0.7 3.7q0 0.9 0 1.8 0 0.9-0.1 1.8c-0.5 4.6-1.9 8.4-3.4 11.2-1.5 2.9-3.1 4.8-4.3 6.1-0.6 0.6-1 1.1-1.3 1.3q-0.4 0.3-0.5 0.5 0.1-0.2 0.4-0.5c0.3-0.3 0.8-0.8 1.3-1.4 1.2-1.3 2.7-3.2 4.2-6.1 1.5-2.8 2.9-6.6 3.3-11.1q0.1-0.9 0.1-1.8 0-0.9 0-1.8c0-1.2-0.3-2.4-0.7-3.6-0.4-1.2-1.1-2.4-2-3.3-0.5-0.5-1.1-0.9-1.7-1.1-0.7-0.1-1.4-0.1-2 0.1-1.4 0.4-2.3 1.7-2.9 3-0.6 1.4-0.9 2.9-0.9 4.4 0 3.1 1.1 6.3 3.2 8.9 1.1 1.3 2.4 2.5 3.9 3.3 1.5 0.8 3.2 1.4 5 1.6 3.5 0.4 7.3-0.4 10.5-2.3 3.2-1.9 5.8-5.1 7.1-8.8 1.4-3.7 1.7-7.9 0.7-11.9-0.2-1-0.5-2-1-2.9-0.5-0.8-1.2-1.6-2.2-1.7-1-0.2-2 0-2.9 0.5-0.8 0.5-1.5 1.4-1.9 2.3-0.8 1.9-0.8 4.1-0.5 6.2 0.5 2.1 1.4 4.1 2.7 5.8 2.3 3 5.7 5.2 9.4 5.7 3.7 0.6 7.4-0.7 10.2-2.9 2.8-2.3 4.8-5.5 5.4-8.9q0.1-0.7 0.2-1.3 0-0.7 0-1.3c0-0.9-0.1-1.7-0.4-2.5-0.3-0.8-0.7-1.5-1.3-2-0.6-0.5-1.5-0.6-2.2-0.3-0.7 0.3-1.3 0.9-1.7 1.6-0.4 0.7-0.4 1.5-0.3 2.3 0.3 1.5 1.3 2.9 2.4 4 2.3 2.2 5.5 3.3 8.6 3.1 3-0.1 5.8-1.6 7.6-3.8 1.9-2.2 2.9-5 2.8-7.6l0.1 0.1c-0.3-0.8-1.2-1.2-2-1.1-0.8 0-1.6 0.4-2.2 1-0.5 0.6-0.6 1.4-0.4 2.2 0.1 0.8 0.6 1.4 1.2 2 1.1 1 2.7 1.5 4.2 1.3 1.5-0.2 2.9-0.7 4.2-1.3 5-2.6 9.4-4.9 13.1-6.7 3.6-1.8 6.4-3.2 8.3-4.2q1.4-0.7 2.2-1.1 0.4-0.3 0.7-0.4z"/>
				</g>
			</g>
			<g id="&lt;Group&gt;">
				<g id="&lt;Group&gt;">
					<path id="&lt;Path&gt;" class="s1" d="m380.8 82.7c0 0.1-21.1 0.2-47.2 0.2-26.1 0-47.3-0.1-47.3-0.2 0-0.2 21.2-0.3 47.3-0.3 26.1 0 47.2 0.1 47.2 0.3z"/>
				</g>
			</g>
			<g id="&lt;Group&gt;">
				<g id="&lt;Group&gt;">
					<path id="&lt;Path&gt;" class="s1" d="m396.6 82.7c0 0.1-1.5 0.2-3.3 0.2-1.8 0-3.3-0.1-3.3-0.2 0-0.2 1.5-0.3 3.3-0.3 1.8 0 3.3 0.1 3.3 0.3z"/>
				</g>
			</g>
			<g id="&lt;Group&gt;">
				<g id="&lt;Group&gt;">
					<path id="&lt;Path&gt;" class="s1" d="m490.6 82.7c0 0.1-19.3 0.2-43.1 0.2-23.8 0-43.1-0.1-43.1-0.2 0-0.2 19.3-0.3 43.1-0.3 23.8 0 43.1 0.1 43.1 0.3z"/>
				</g>
			</g>
			<g id="&lt;Group&gt;">
				<g id="&lt;Group&gt;">
					<path id="&lt;Path&gt;" class="s1" d="m380.8 108.9c0 0.2-21.1 0.3-47.2 0.3-26.1 0-47.3-0.1-47.3-0.3 0-0.1 21.2-0.2 47.3-0.2 26.1 0 47.2 0.1 47.2 0.2z"/>
				</g>
			</g>
			<g id="&lt;Group&gt;">
				<g id="&lt;Group&gt;">
					<path id="&lt;Path&gt;" class="s1" d="m396.6 108.9c0 0.2-1.5 0.3-3.3 0.3-1.8 0-3.3-0.1-3.3-0.3 0-0.1 1.5-0.2 3.3-0.2 1.8 0 3.3 0.1 3.3 0.2z"/>
				</g>
			</g>
			<g id="&lt;Group&gt;">
				<g id="&lt;Group&gt;">
					<path id="&lt;Path&gt;" class="s1" d="m490.6 108.9c0 0.2-19.3 0.3-43.1 0.3-23.8 0-43.1-0.1-43.1-0.3 0-0.1 19.3-0.2 43.1-0.2 23.8 0 43.1 0.1 43.1 0.2z"/>
				</g>
			</g>
		</g>
	</g>
	<g id="Plant">
		<g id="&lt;Group&gt;">
			<g id="&lt;Group&gt;">
				<g id="&lt;Group&gt;">
					<path id="&lt;Path&gt;" class="s4" d="m678.8 207.1q-12 48.8-65.3 37.6 15.4-49.4 65.3-37.6z"/>
				</g>
				<g id="&lt;Group&gt;">
					<path id="&lt;Path&gt;" class="s4" d="m653 281.1q-24.5 36.5-65 11.2 27.6-36 65-11.2z"/>
				</g>
				<g id="&lt;Group&gt;">
					<path id="&lt;Path&gt;" class="s4" d="m613.9 336.8q-35.7 30.4-69.9-7.3 38.7-28.9 69.9 7.3z"/>
				</g>
				<g id="&lt;Group&gt;">
					<path id="&lt;Path&gt;" class="s4" d="m576.1 218.6q39.6 19.1 20.4 62.7-39.5-22.2-20.4-62.7z"/>
				</g>
				<g id="&lt;Group&gt;">
					<path id="&lt;Path&gt;" class="s4" d="m567.5 271.3q19.8 26.7-9.7 49.6-18.5-28.8 9.7-49.6z"/>
				</g>
				<g id="&lt;Group&gt;">
					<path id="&lt;Path&gt;" class="s4" d="m659.2 150q4.5 39.6-38.2 45.9-2.1-41 38.2-45.9z"/>
				</g>
				<g id="&lt;Group&gt;">
					<path id="&lt;Path&gt;" class="s4" d="m597.9 110q34.5 14.4 19.5 54.9-34.6-17.3-19.5-54.9z"/>
				</g>
				<g id="&lt;Group&gt;">
					<path id="&lt;Path&gt;" class="s4" d="m577 167.8q45.8 5.2 41.7 55-46.7-8.3-41.7-55z"/>
				</g>
				<g id="&lt;Group&gt;">
					<g id="&lt;Group&gt;">
						<path id="&lt;Path&gt;" class="s4" d="m511.8 341.7q0.2-0.1 0.6-0.2 0.6-0.1 1.7-0.4c1.5-0.4 3.8-0.9 6.6-1.9 5.6-1.7 13.7-4.6 23-9.7 9.4-5 19.8-12.2 29.9-21.9 5.1-4.8 10-10.2 14.8-16.2q1.7-2.2 3.4-4.6 0.9-1.1 1.7-2.3c0.6-0.8 1.1-1.6 1.6-2.5q1.7-2.4 3.3-4.9 1.5-2.6 3-5.3 0.7-1.3 1.5-2.6 0.6-1.3 1.3-2.7c0.9-1.7 1.8-3.5 2.6-5.3q1.1-2.7 2.3-5.4c0.4-0.9 0.7-1.7 1.1-2.6q0.5-1.4 1-2.7 0.9-2.7 1.9-5.4 0.8-2.6 1.5-5.3 0.4-1.3 0.8-2.6c0.3-0.9 0.4-1.7 0.7-2.6q0.6-2.6 1.2-5.2c3-13.6 3.6-26.3 3.4-36.9-0.3-10.6-1.8-19-2.8-24.8-0.6-2.9-1.2-5.2-1.5-6.7q-0.3-1.1-0.4-1.7-0.1-0.4-0.1-0.6 0.1 0.2 0.2 0.6 0.1 0.6 0.4 1.7c0.4 1.5 0.9 3.7 1.6 6.6 1.1 5.8 2.7 14.3 2.9 24.9 0.4 10.6-0.3 23.3-3.3 37q-0.6 2.6-1.2 5.2c-0.2 0.9-0.3 1.8-0.6 2.6q-0.4 1.3-0.8 2.7-0.8 2.6-1.6 5.3-0.9 2.6-1.9 5.3-0.4 1.4-0.9 2.8c-0.4 0.8-0.8 1.7-1.1 2.6q-1.2 2.7-2.3 5.4c-0.9 1.8-1.8 3.6-2.7 5.4q-0.6 1.3-1.3 2.7-0.7 1.3-1.5 2.6-1.5 2.6-3 5.2-1.6 2.5-3.2 5c-0.6 0.8-1.1 1.7-1.6 2.5q-0.9 1.2-1.8 2.3-1.7 2.4-3.4 4.7c-4.8 5.9-9.8 11.4-14.9 16.2-10.1 9.6-20.6 16.9-30 21.9-9.3 5-17.5 7.9-23.1 9.5-2.9 0.9-5.1 1.4-6.6 1.8q-1.2 0.2-1.8 0.4-0.4 0.1-0.6 0.1z"/>
					</g>
				</g>
			</g>
			<g id="&lt;Group&gt;">
				<g id="&lt;Group&gt;">
					<path id="&lt;Path&gt;" class="s5" d="m563.2 292.8c0 0 0 0.4 0 1.1-0.1 0.7-0.2 1.8-0.4 3-0.3 2.6-0.8 6.1-1.5 9.9-0.8 3.9-1.6 7.3-2.3 9.8-0.3 1.3-0.6 2.3-0.8 2.9-0.3 0.7-0.4 1.1-0.4 1.1-0.1 0 0-0.4 0.2-1.1q0.2-1.2 0.6-3c0.6-2.5 1.4-5.9 2.1-9.8 0.8-3.8 1.4-7.3 1.8-9.8q0.3-1.8 0.5-3c0.1-0.7 0.2-1.1 0.2-1.1z"/>
				</g>
			</g>
			<g id="&lt;Group&gt;">
				<g id="&lt;Group&gt;">
					<path id="&lt;Path&gt;" class="s5" d="m572.9 332.4c0 0.1-0.4 0-1.1-0.1q-1.2-0.2-3-0.4c-2.6-0.4-6.1-0.9-10.1-1.4-3.9-0.4-7.4-0.7-10-1q-1.8-0.1-3.1-0.2c-0.7-0.1-1.1-0.2-1.1-0.2 0 0 0.4-0.1 1.1 0 0.8 0 1.8 0 3.1 0.1 2.6 0.1 6.2 0.4 10.1 0.8 3.9 0.5 7.5 1 10 1.5 1.3 0.3 2.3 0.5 3.1 0.6 0.7 0.2 1 0.3 1 0.3z"/>
				</g>
			</g>
			<g id="&lt;Group&gt;">
				<g id="&lt;Group&gt;">
					<path id="&lt;Path&gt;" class="s5" d="m621.1 284c0 0-0.4 0.1-1.3 0.3q-1.4 0.3-3.6 0.7c-3.1 0.6-7.3 1.5-11.9 2.6-4.6 1.1-8.8 2.3-11.8 3.1q-2.1 0.7-3.5 1.1c-0.9 0.2-1.3 0.3-1.3 0.3-0.1 0 0.4-0.2 1.2-0.5 0.8-0.3 2-0.7 3.5-1.2 3-1 7.1-2.2 11.8-3.3 4.6-1.1 8.8-1.9 11.9-2.5 1.6-0.2 2.8-0.4 3.7-0.5 0.8-0.1 1.3-0.2 1.3-0.1z"/>
				</g>
			</g>
			<g id="&lt;Group&gt;">
				<g id="&lt;Group&gt;">
					<path id="&lt;Path&gt;" class="s5" d="m586.1 246.6c0.1-0.1 0.3 0.4 0.8 1.2 0.5 0.8 1.2 1.9 2 3.4 1.5 3 3.4 7.3 4.8 12.2 1.4 5 2.1 9.6 2.4 12.9 0.1 1.7 0.2 3.1 0.2 4 0 1 0 1.5 0 1.5-0.1 0-0.1-0.5-0.2-1.5-0.1-0.9-0.2-2.3-0.4-3.9-0.3-3.3-1.1-7.9-2.5-12.8-1.4-4.9-3.2-9.2-4.6-12.2-0.8-1.5-1.4-2.7-1.8-3.5-0.5-0.9-0.7-1.3-0.7-1.3z"/>
				</g>
			</g>
			<g id="&lt;Group&gt;">
				<g id="&lt;Group&gt;">
					<path id="&lt;Path&gt;" class="s5" d="m639.2 223.8c0 0-0.3 0.3-1 0.7q-1.2 0.8-3 1.9c-2.4 1.7-5.8 4-9.3 6.9-3.5 2.8-6.5 5.6-8.6 7.6q-1.5 1.5-2.4 2.5c-0.6 0.6-1 0.9-1 0.9 0 0 0.3-0.4 0.8-1 0.5-0.7 1.3-1.5 2.4-2.6 2-2.2 5-5 8.5-7.9 3.5-2.8 6.9-5.1 9.4-6.7 1.3-0.8 2.3-1.4 3.1-1.8 0.7-0.4 1.1-0.6 1.1-0.5z"/>
				</g>
			</g>
			<g id="&lt;Group&gt;">
				<g id="&lt;Group&gt;">
					<path id="&lt;Path&gt;" class="s5" d="m589.2 187.6q0.1 0 0.4 0.3 0.4 0.4 1 0.9c0.9 0.8 2.1 2 3.6 3.4 3 3 7 7.2 11.2 12.1 4.1 4.8 7.6 9.5 10.1 12.9 1.2 1.7 2.1 3.1 2.8 4.1q0.4 0.6 0.7 1.1 0.3 0.4 0.2 0.4 0 0-0.3-0.3-0.3-0.5-0.8-1.1-1.1-1.5-2.9-4c-2.5-3.4-6.1-7.9-10.2-12.8-4.2-4.9-8.1-9.1-11-12.1q-2.2-2.2-3.5-3.5-0.6-0.6-1-1-0.3-0.3-0.3-0.4z"/>
				</g>
			</g>
			<g id="&lt;Group&gt;">
				<g id="&lt;Group&gt;">
					<path id="&lt;Path&gt;" class="s5" d="m644.4 162.9c0 0-0.3 0.4-1 1.2q-1.1 1.3-2.8 3.3c-2.3 2.8-5.4 6.7-8.7 11.2-3.2 4.5-5.9 8.7-7.7 11.8q-1.4 2.3-2.3 3.7c-0.5 0.9-0.8 1.3-0.8 1.3 0 0 0.2-0.5 0.7-1.4 0.4-0.9 1.1-2.2 2-3.8 1.8-3.1 4.5-7.4 7.7-11.9 3.3-4.5 6.4-8.4 8.8-11.2 1.2-1.3 2.2-2.4 2.9-3.1 0.8-0.8 1.2-1.2 1.2-1.1z"/>
				</g>
			</g>
			<g id="&lt;Group&gt;">
				<g id="&lt;Group&gt;">
					<path id="&lt;Path&gt;" class="s5" d="m603 125.3c0 0 0.3 0.5 0.7 1.4 0.4 1 1 2.4 1.8 4.1 1.4 3.4 3.3 8.2 5.3 13.5 2 5.3 3.6 10.2 4.8 13.8 0.5 1.7 1 3.2 1.3 4.2 0.2 1 0.4 1.5 0.4 1.5-0.1 0.1-0.3-0.5-0.6-1.5q-0.6-1.6-1.5-4.1c-1.2-3.5-2.9-8.4-4.9-13.7-1.9-5.3-3.8-10.1-5.2-13.6q-1-2.5-1.6-4.1c-0.4-1-0.5-1.5-0.5-1.5z"/>
				</g>
			</g>
		</g>
		<g id="&lt;Group&gt;">
			<g id="&lt;Group&gt;">
				<g id="&lt;Group&gt;">
					<path id="&lt;Path&gt;" class="s4" d="m80 196.2q11.2 46.2 61.7 35.6-14.6-46.7-61.7-35.6z"/>
				</g>
				<g id="&lt;Group&gt;">
					<path id="&lt;Path&gt;" class="s4" d="m104.3 266.1q23.2 34.5 61.4 10.7-26-34-61.4-10.7z"/>
				</g>
				<g id="&lt;Group&gt;">
					<path id="&lt;Path&gt;" class="s4" d="m141.2 318.8q33.8 28.7 66.1-6.9-36.6-27.3-66.1 6.9z"/>
				</g>
				<g id="&lt;Group&gt;">
					<path id="&lt;Path&gt;" class="s4" d="m177 207.1q-37.5 18-19.3 59.3 37.4-21 19.3-59.3z"/>
				</g>
				<g id="&lt;Group&gt;">
					<path id="&lt;Path&gt;" class="s4" d="m185.1 256.9q-18.7 25.2 9.2 46.9 17.5-27.2-9.2-46.9z"/>
				</g>
				<g id="&lt;Group&gt;">
					<path id="&lt;Path&gt;" class="s4" d="m98.5 142.3q-4.3 37.4 36.1 43.4 1.9-38.8-36.1-43.4z"/>
				</g>
				<g id="&lt;Group&gt;">
					<path id="&lt;Path&gt;" class="s4" d="m156.4 104.4q-32.7 13.7-18.5 52 32.8-16.4 18.5-52z"/>
				</g>
				<g id="&lt;Group&gt;">
					<path id="&lt;Path&gt;" class="s4" d="m176.1 159.1q-43.2 4.9-39.4 52 44.2-7.9 39.4-52z"/>
				</g>
				<g id="&lt;Group&gt;">
					<g id="&lt;Group&gt;">
						<path id="&lt;Path&gt;" class="s4" d="m247.2 326.6q-0.2 0-0.6-0.1-0.6-0.1-1.7-0.4c-1.5-0.3-3.7-0.8-6.5-1.6-5.7-1.6-13.8-4.2-23.2-8.7-4.8-2.2-9.8-5-15-8.2-5.3-3.3-10.6-7.2-15.9-11.6-5.3-4.5-10.5-9.5-15.5-15.2q-1.8-2.2-3.6-4.4c-1.2-1.5-2.3-3-3.5-4.6q-0.9-1.2-1.7-2.4-0.9-1.2-1.7-2.4c-1-1.7-2.2-3.3-3.2-5-1.9-3.5-4-6.9-5.6-10.4-1.8-3.5-3.3-7-4.7-10.5-2.7-7-5-14-6.5-20.7-3.2-13.5-4.1-26-3.8-36.5 0.2-10.5 1.6-18.9 2.7-24.6 0.6-2.9 1.2-5.1 1.6-6.6q0.3-1 0.4-1.6 0.1-0.4 0.2-0.6 0 0.2-0.1 0.6-0.2 0.6-0.4 1.7c-0.3 1.5-0.9 3.7-1.5 6.5-1 5.8-2.4 14.2-2.6 24.6-0.2 10.4 0.8 22.9 4 36.4 1.5 6.7 3.8 13.6 6.4 20.6 1.5 3.5 2.9 7 4.7 10.4 1.7 3.6 3.7 6.9 5.7 10.4 1 1.7 2.1 3.3 3.2 5q0.8 1.2 1.6 2.4 0.8 1.2 1.7 2.4c1.2 1.5 2.3 3.1 3.5 4.6q1.8 2.2 3.6 4.4c4.9 5.6 10.2 10.7 15.4 15.1 5.3 4.5 10.6 8.4 15.8 11.6 5.2 3.3 10.2 6 14.9 8.3 9.5 4.5 17.5 7.2 23.1 8.8 2.8 0.9 5 1.4 6.5 1.7q1.1 0.3 1.7 0.5 0.4 0.1 0.6 0.1z"/>
					</g>
				</g>
			</g>
			<g id="&lt;Group&gt;">
				<g id="&lt;Group&gt;">
					<path id="&lt;Path&gt;" class="s5" d="m189.2 277.2c0 0 0.1 0.4 0.2 1q0.2 1.2 0.5 2.9c0.3 2.4 0.9 5.7 1.6 9.3 0.7 3.6 1.4 6.9 2 9.2q0.4 1.7 0.6 2.8c0.2 0.7 0.2 1.1 0.2 1.1 0 0-0.2-0.4-0.4-1-0.2-0.7-0.4-1.6-0.8-2.8-0.6-2.3-1.4-5.6-2.1-9.2-0.7-3.6-1.2-7-1.5-9.4-0.2-1.2-0.3-2.2-0.3-2.8-0.1-0.7-0.1-1.1 0-1.1z"/>
				</g>
			</g>
			<g id="&lt;Group&gt;">
				<g id="&lt;Group&gt;">
					<path id="&lt;Path&gt;" class="s5" d="m180 314.7c0-0.1 0.3-0.2 1-0.3 0.7-0.2 1.6-0.4 2.8-0.6 2.5-0.5 5.8-1 9.5-1.4 3.7-0.5 7.1-0.7 9.6-0.8 1.2-0.1 2.2-0.1 2.9-0.1 0.7 0 1 0 1 0 0 0.1-0.3 0.1-1 0.2q-1.2 0.1-2.9 0.2c-2.4 0.2-5.8 0.6-9.5 1-3.7 0.4-7.1 0.9-9.5 1.3q-1.7 0.2-2.9 0.4c-0.6 0.1-1 0.1-1 0.1z"/>
				</g>
			</g>
			<g id="&lt;Group&gt;">
				<g id="&lt;Group&gt;">
					<path id="&lt;Path&gt;" class="s5" d="m134.4 268.9c0-0.1 0.5 0 1.3 0.1 0.8 0.1 2 0.3 3.5 0.5 2.9 0.5 6.9 1.3 11.3 2.3 4.3 1.1 8.3 2.2 11.1 3.1 1.4 0.5 2.5 0.9 3.3 1.2 0.8 0.2 1.2 0.4 1.2 0.4 0 0.1-0.5 0-1.3-0.3q-1.3-0.3-3.3-0.9c-2.9-0.8-6.8-1.9-11.2-3-4.3-1-8.3-1.9-11.2-2.4q-2-0.4-3.4-0.7c-0.8-0.2-1.3-0.3-1.3-0.3z"/>
				</g>
			</g>
			<g id="&lt;Group&gt;">
				<g id="&lt;Group&gt;">
					<path id="&lt;Path&gt;" class="s5" d="m167.5 233.5c0 0-0.2 0.5-0.6 1.3-0.4 0.7-1 1.9-1.7 3.3-1.4 2.8-3 6.9-4.4 11.5-1.3 4.6-2 9-2.4 12.1-0.1 1.6-0.3 2.8-0.3 3.7-0.1 0.9-0.1 1.4-0.2 1.4 0 0 0-0.5 0-1.4 0-0.9 0-2.2 0.2-3.7 0.2-3.2 0.9-7.6 2.2-12.2 1.4-4.7 3.1-8.8 4.6-11.6 0.7-1.4 1.4-2.5 1.8-3.2 0.5-0.8 0.8-1.2 0.8-1.2z"/>
				</g>
			</g>
			<g id="&lt;Group&gt;">
				<g id="&lt;Group&gt;">
					<path id="&lt;Path&gt;" class="s5" d="m117.3 212c0 0 0.4 0.1 1.1 0.5 0.7 0.4 1.7 1 2.9 1.7 2.4 1.5 5.6 3.7 8.9 6.4 3.3 2.6 6.1 5.3 8.1 7.4 0.9 1 1.7 1.8 2.2 2.4 0.5 0.6 0.8 1 0.8 1-0.1 0-0.4-0.3-0.9-0.8q-1-1-2.4-2.4c-2-1.9-4.8-4.6-8.1-7.2-3.3-2.7-6.5-4.9-8.8-6.5q-1.7-1.1-2.8-1.8c-0.6-0.4-1-0.7-1-0.7z"/>
				</g>
			</g>
			<g id="&lt;Group&gt;">
				<g id="&lt;Group&gt;">
					<path id="&lt;Path&gt;" class="s5" d="m164.6 177.8c0 0.1-0.4 0.5-1.2 1.3q-1.3 1.3-3.3 3.3c-2.7 2.9-6.5 6.9-10.4 11.5-3.9 4.6-7.3 8.9-9.6 12.1q-1.7 2.3-2.8 3.7c-0.7 0.9-1 1.4-1.1 1.4 0 0 0.3-0.5 0.9-1.5 0.6-0.9 1.5-2.2 2.7-3.9 2.3-3.2 5.6-7.6 9.5-12.2 3.9-4.6 7.7-8.5 10.6-11.3 1.4-1.4 2.5-2.5 3.4-3.2 0.8-0.8 1.2-1.2 1.3-1.2z"/>
				</g>
			</g>
			<g id="&lt;Group&gt;">
				<g id="&lt;Group&gt;">
					<path id="&lt;Path&gt;" class="s5" d="m112.5 154.4c0 0 0.4 0.4 1 1.1 0.7 0.6 1.6 1.7 2.8 3 2.3 2.5 5.3 6.2 8.3 10.5 3.1 4.2 5.6 8.3 7.3 11.3 0.8 1.5 1.5 2.7 1.9 3.5 0.5 0.9 0.7 1.4 0.7 1.4-0.1 0-0.4-0.4-0.8-1.3q-0.9-1.3-2.1-3.4c-1.8-3-4.4-7-7.4-11.2-3-4.3-6-8-8.2-10.6q-1.6-1.9-2.6-3.1c-0.6-0.7-1-1.2-0.9-1.2z"/>
				</g>
			</g>
			<g id="&lt;Group&gt;">
				<g id="&lt;Group&gt;">
					<path id="&lt;Path&gt;" class="s5" d="m151.6 118.9c0 0-0.2 0.5-0.5 1.5q-0.6 1.5-1.5 3.8c-1.3 3.3-3.1 7.8-4.9 12.9-1.9 5-3.5 9.6-4.7 12.9q-0.8 2.4-1.3 3.9c-0.4 1-0.6 1.5-0.6 1.5 0-0.1 0.1-0.6 0.4-1.5 0.2-1 0.6-2.3 1.2-4 1-3.4 2.6-8 4.5-13 1.8-5.1 3.6-9.6 5-12.8 0.7-1.6 1.3-2.9 1.7-3.8 0.4-0.9 0.6-1.4 0.7-1.4z"/>
				</g>
			</g>
		</g>
	</g>
	<g id="Character">
		<g id="&lt;Group&gt;">
			<g id="&lt;Group&gt;">
				<g id="&lt;Group&gt;">
					<g id="&lt;Group&gt;">
						<g id="&lt;Group&gt;">
							<g id="&lt;Group&gt;">
								<path id="&lt;Path&gt;" class="s4" d="m247.1 166c7.3 0.9 8.4 8.4 11.1 14.7 2.7 6.2 7.9 11.8 11.9 17.4 2.1 3 4.9 5.7 5.7 9.2 0.8 3.7-0.9 7.5-1.7 11.2-0.8 3.8-0.2 8.4 3.4 10-0.8 1-2.1 1.5-3.3 1.4 0 1.7-1.7 3.2-3.5 3.7-1.8 0.5-3.7 0.3-5.6 0 0.5 1.1-0.5 2.5-1.8 3-1.3 0.4-2.7 0.2-4-0.1-1.3-0.2-2.7-0.5-4-0.3-3 0.7-4.8 4-7.8 4.5-4.1 0.6-7.1-4.7-11.1-3.8-1.9 0.4-3.2 2.1-4.8 3.2-1.6 1.2-4.2 0.9-4.9-0.7-2.2 2.7-5.6 5.4-9.1 6.1 0.5-1.2 0.2-2.7-0.7-3.6-1.9 1.6-4.3 2.6-6.8 3 1.5-1.4 2.4-3.5 2.3-5.4-1.7 1.3-4 1.8-6 1.2 3.7-2 4-6.9 2.7-10.6-1.3-3.6-3.8-6.9-4.2-10.7-0.6-4.2 4.4-9.5 3.4-13.6-1.5-6.4-1.4-10.2-1.1-16.1 0.1-3.9 1.9-7.3 3.6-11 2.1-4.5 5-7.9 9.7-10.5 3.8-2.1 9.4-4.1 13.8-4.2 7.9-0.2 11.2-0.5 17.4 3.7"/>
							</g>
						</g>
					</g>
				</g>
			</g>
			<g id="&lt;Group&gt;">
				<g id="&lt;Group&gt;">
					<g id="&lt;Group&gt;">
						<g id="&lt;Group&gt;">
							<g id="&lt;Group&gt;">
								<g id="&lt;Group&gt;">
									<g id="&lt;Group&gt;">
										<g id="&lt;Group&gt;">
											<g id="&lt;Group&gt;">
												<g id="&lt;Group&gt;">
													<g id="&lt;Group&gt;">
														<g id="&lt;Group&gt;">
															<g id="&lt;Group&gt;">
																<g id="&lt;Group&gt;">
																	<path id="&lt;Path&gt;" class="s4" d="m222.8 217.6c-2.5-5.1-4.9-10.2-6.4-15.7-1.6-5.4-2.2-11.2-0.9-16.8 0.2-0.8 2-6.5 2.8-6.5 0.6 0-0.2 5.2 0.1 5.6 3.6 4.7 5.2 10.6 5.5 16.4 0.4 5.9-0.2 11.2-1.1 17z"/>
																</g>
															</g>
														</g>
													</g>
												</g>
											</g>
										</g>
									</g>
								</g>
								<g id="&lt;Group&gt;">
									<g id="&lt;Group&gt;">
										<g id="&lt;Group&gt;">
											<g id="&lt;Group&gt;">
												<g id="&lt;Group&gt;">
													<g id="&lt;Group&gt;">
														<g id="&lt;Group&gt;">
															<g id="&lt;Group&gt;">
																<g id="&lt;Group&gt;">
																	<g id="&lt;Group&gt;">
																		<path id="&lt;Path&gt;" class="s8" d="m257.3 265.5c-8.7 1-29.7-8.2-30.9-16.9l-7-52.3c-2.4-14 3.8-27.1 17.9-29l1.3-0.1c13.2-1.1 25 8.2 27.1 21.2 1.9 12.2 4 25.6 4.4 32.2q0.9 13.6-12.5 16.8c0 0 0.4 3.1 0.9 7.1 1.1 8.9-0.4 18.7-1.2 21z"/>
																	</g>
																</g>
															</g>
														</g>
													</g>
												</g>
											</g>
										</g>
									</g>
								</g>
								<g id="&lt;Group&gt;">
									<g id="&lt;Group&gt;">
										<g id="&lt;Group&gt;">
											<g id="&lt;Group&gt;">
												<g id="&lt;Group&gt;">
													<g id="&lt;Group&gt;">
														<g id="&lt;Group&gt;">
															<g id="&lt;Group&gt;">
																<g id="&lt;Group&gt;">
																	<g id="&lt;Group&gt;">
																		<g id="&lt;Group&gt;">
																			<path id="&lt;Path&gt;" class="s9" d="m258 241.1q-13.4 2.3-18.5-7.5 9.6 5 18.1 3.8z"/>
																		</g>
																	</g>
																</g>
															</g>
														</g>
													</g>
												</g>
											</g>
										</g>
									</g>
								</g>
								<g id="&lt;Group&gt;">
									<g id="&lt;Group&gt;">
										<g id="&lt;Group&gt;">
											<g id="&lt;Group&gt;">
												<g id="&lt;Group&gt;">
													<g id="&lt;Group&gt;">
														<g id="&lt;Group&gt;">
															<g id="&lt;Group&gt;">
																<g id="&lt;Group&gt;">
																	<g id="&lt;Group&gt;">
																		<g id="&lt;Group&gt;">
																			<g id="&lt;Group&gt;">
																				<g id="&lt;Group&gt;">
																					<g id="&lt;Group&gt;">
																						<g id="&lt;Group&gt;">
																							<g id="&lt;Group&gt;">
																								<g id="&lt;Group&gt;">
																									<ellipse id="&lt;Path&gt;" class="s4" cx="258.7" cy="200.5" rx="1.9" ry="1.9"/>
																								</g>
																							</g>
																						</g>
																					</g>
																				</g>
																			</g>
																		</g>
																	</g>
																</g>
															</g>
														</g>
													</g>
												</g>
											</g>
										</g>
									</g>
								</g>
								<g id="&lt;Group&gt;">
									<g id="&lt;Group&gt;">
										<g id="&lt;Group&gt;">
											<g id="&lt;Group&gt;">
												<g id="&lt;Group&gt;">
													<g id="&lt;Group&gt;">
														<g id="&lt;Group&gt;">
															<g id="&lt;Group&gt;">
																<g id="&lt;Group&gt;">
																	<g id="&lt;Group&gt;">
																		<g id="&lt;Group&gt;">
																			<g id="&lt;Group&gt;">
																				<g id="&lt;Group&gt;">
																					<g id="&lt;Group&gt;">
																						<g id="&lt;Group&gt;">
																							<g id="&lt;Group&gt;">
																								<g id="&lt;Group&gt;">
																									<g id="&lt;Group&gt;">
																										<path id="&lt;Path&gt;" class="s4" d="m263.3 194.6c-0.2 0.3-1.8-0.7-3.9-0.5-2.1 0.2-3.5 1.4-3.8 1.1-0.1-0.1 0.1-0.6 0.7-1.1 0.7-0.5 1.7-1.1 3-1.2 1.3-0.1 2.5 0.3 3.1 0.7 0.7 0.5 1 0.9 0.9 1z"/>
																									</g>
																								</g>
																							</g>
																						</g>
																					</g>
																				</g>
																			</g>
																		</g>
																	</g>
																</g>
															</g>
														</g>
													</g>
												</g>
											</g>
										</g>
									</g>
								</g>
								<g id="&lt;Group&gt;">
									<g id="&lt;Group&gt;">
										<g id="&lt;Group&gt;">
											<g id="&lt;Group&gt;">
												<g id="&lt;Group&gt;">
													<g id="&lt;Group&gt;">
														<g id="&lt;Group&gt;">
															<g id="&lt;Group&gt;">
																<g id="&lt;Group&gt;">
																	<g id="&lt;Group&gt;">
																		<g id="&lt;Group&gt;">
																			<g id="&lt;Group&gt;">
																				<g id="&lt;Group&gt;">
																					<g id="&lt;Group&gt;">
																						<g id="&lt;Group&gt;">
																							<g id="&lt;Group&gt;">
																								<g id="&lt;Group&gt;">
																									<ellipse id="&lt;Path&gt;" class="s4" cx="239.1" cy="202" rx="1.9" ry="1.9"/>
																								</g>
																							</g>
																						</g>
																					</g>
																				</g>
																			</g>
																		</g>
																	</g>
																</g>
															</g>
														</g>
													</g>
												</g>
											</g>
										</g>
									</g>
								</g>
								<g id="&lt;Group&gt;">
									<g id="&lt;Group&gt;">
										<g id="&lt;Group&gt;">
											<g id="&lt;Group&gt;">
												<g id="&lt;Group&gt;">
													<g id="&lt;Group&gt;">
														<g id="&lt;Group&gt;">
															<g id="&lt;Group&gt;">
																<g id="&lt;Group&gt;">
																	<g id="&lt;Group&gt;">
																		<g id="&lt;Group&gt;">
																			<g id="&lt;Group&gt;">
																				<g id="&lt;Group&gt;">
																					<g id="&lt;Group&gt;">
																						<g id="&lt;Group&gt;">
																							<g id="&lt;Group&gt;">
																								<g id="&lt;Group&gt;">
																									<g id="&lt;Group&gt;">
																										<path id="&lt;Path&gt;" class="s4" d="m242.9 196.8c-0.3 0.2-1.8-0.7-3.9-0.6-2.1 0.2-3.5 1.4-3.8 1.2-0.1-0.2 0.1-0.6 0.7-1.2 0.6-0.5 1.7-1.1 3-1.2 1.3-0.1 2.5 0.3 3.1 0.8 0.7 0.4 1 0.8 0.9 1z"/>
																									</g>
																								</g>
																							</g>
																						</g>
																					</g>
																				</g>
																			</g>
																		</g>
																	</g>
																</g>
															</g>
														</g>
													</g>
												</g>
											</g>
										</g>
									</g>
								</g>
								<g id="&lt;Group&gt;">
									<g id="&lt;Group&gt;">
										<g id="&lt;Group&gt;">
											<g id="&lt;Group&gt;">
												<g id="&lt;Group&gt;">
													<g id="&lt;Group&gt;">
														<g id="&lt;Group&gt;">
															<g id="&lt;Group&gt;">
																<g id="&lt;Group&gt;">
																	<g id="&lt;Group&gt;">
																		<g id="&lt;Group&gt;">
																			<g id="&lt;Group&gt;">
																				<g id="&lt;Group&gt;">
																					<g id="&lt;Group&gt;">
																						<g id="&lt;Group&gt;">
																							<g id="&lt;Group&gt;">
																								<g id="&lt;Group&gt;">
																									<path id="&lt;Path&gt;" class="s4" d="m251.6 212.2c0-0.1 1.3-0.4 3.4-0.9 0.5-0.1 1-0.2 1.1-0.6 0-0.4-0.2-0.9-0.5-1.5q-0.9-1.9-1.9-4c-2.7-5.6-4.6-10.2-4.4-10.3 0.2-0.1 2.5 4.3 5.2 10q1 2 1.8 3.9c0.3 0.6 0.7 1.3 0.5 2.1-0.1 0.4-0.5 0.7-0.8 0.8-0.4 0.2-0.7 0.2-0.9 0.2-2.1 0.3-3.5 0.4-3.5 0.3z"/>
																								</g>
																							</g>
																						</g>
																					</g>
																				</g>
																			</g>
																		</g>
																	</g>
																</g>
															</g>
														</g>
													</g>
												</g>
											</g>
										</g>
									</g>
								</g>
								<g id="&lt;Group&gt;">
									<g id="&lt;Group&gt;">
										<g id="&lt;Group&gt;">
											<g id="&lt;Group&gt;">
												<g id="&lt;Group&gt;">
													<g id="&lt;Group&gt;">
														<g id="&lt;Group&gt;">
															<g id="&lt;Group&gt;">
																<g id="&lt;Group&gt;">
																	<g id="&lt;Group&gt;">
																		<g id="&lt;Group&gt;">
																			<g id="&lt;Group&gt;">
																				<g id="&lt;Group&gt;">
																					<path id="&lt;Path&gt;" class="s4" d="m242 189c-0.2 0.5-2.3 0.1-4.7 0.3-2.5 0.1-4.5 0.7-4.8 0.2-0.2-0.3 0.2-0.8 1.1-1.3 0.8-0.5 2.1-1 3.6-1 1.4-0.1 2.8 0.2 3.6 0.6 0.9 0.4 1.3 0.9 1.2 1.2z"/>
																				</g>
																			</g>
																		</g>
																	</g>
																</g>
															</g>
														</g>
													</g>
												</g>
											</g>
										</g>
									</g>
								</g>
								<g id="&lt;Group&gt;">
									<g id="&lt;Group&gt;">
										<g id="&lt;Group&gt;">
											<g id="&lt;Group&gt;">
												<g id="&lt;Group&gt;">
													<g id="&lt;Group&gt;">
														<g id="&lt;Group&gt;">
															<g id="&lt;Group&gt;">
																<g id="&lt;Group&gt;">
																	<g id="&lt;Group&gt;">
																		<g id="&lt;Group&gt;">
																			<g id="&lt;Group&gt;">
																				<g id="&lt;Group&gt;">
																					<path id="&lt;Path&gt;" class="s4" d="m262.4 189.8c-0.4 0.5-2.1 0.2-4.2 0.4-2 0.1-3.7 0.6-4.2 0.2-0.2-0.2 0.1-0.7 0.8-1.3 0.7-0.5 1.9-1 3.3-1.1 1.4-0.1 2.7 0.3 3.4 0.7 0.8 0.4 1.1 0.9 0.9 1.1z"/>
																				</g>
																			</g>
																		</g>
																	</g>
																</g>
															</g>
														</g>
													</g>
												</g>
											</g>
										</g>
									</g>
								</g>
								<g id="&lt;Group&gt;">
									<g id="&lt;Group&gt;">
										<g id="&lt;Group&gt;">
											<g id="&lt;Group&gt;">
												<g id="&lt;Group&gt;">
													<g id="&lt;Group&gt;">
														<g id="&lt;Group&gt;">
															<g id="&lt;Group&gt;">
																<g id="&lt;Group&gt;">
																	<path id="&lt;Path&gt;" class="s8" d="m222.9 219.5c0 0.3-9.1 3.3-10.1-6-1.1-9.3 8.2-7.3 8.5-7.2q1.6 13 1.6 13.2z"/>
																</g>
															</g>
														</g>
													</g>
												</g>
											</g>
										</g>
									</g>
								</g>
								<g id="&lt;Group&gt;">
									<g id="&lt;Group&gt;">
										<g id="&lt;Group&gt;">
											<g id="&lt;Group&gt;">
												<g id="&lt;Group&gt;">
													<g id="&lt;Group&gt;">
														<g id="&lt;Group&gt;">
															<g id="&lt;Group&gt;">
																<g id="&lt;Group&gt;">
																	<g id="&lt;Group&gt;">
																		<path id="&lt;Path&gt;" class="s9" d="m219.4 216.8c-0.3 0.3-0.8 0.5-1.4 0.4-1.4-0.2-2.6-1.8-2.8-3.7-0.2-0.9-0.1-1.9 0.2-2.6 0.3-0.8 0.8-1.5 1.5-1.7 0.4 0 0.7 0 1 0.2 0.2 0.1 0.3 0.3 0.4 0.5 0.1 0.4 0 0.6-0.1 0.6 0 0 0-0.2-0.1-0.5-0.2-0.2-0.6-0.5-1-0.3-0.5 0.1-0.9 0.7-1.1 1.4-0.2 0.7-0.3 1.5-0.2 2.3 0.2 1.7 1.2 3.1 2.2 3.4 0.5 0.1 1 0 1.2-0.2 0.3-0.1 0.4-0.3 0.5-0.2 0 0 0 0.2-0.3 0.4z"/>
																	</g>
																</g>
															</g>
														</g>
													</g>
												</g>
											</g>
										</g>
									</g>
								</g>
								<g id="&lt;Group&gt;">
									<g id="&lt;Group&gt;">
										<g id="&lt;Group&gt;">
											<g id="&lt;Group&gt;">
												<g id="&lt;Group&gt;">
													<g id="&lt;Group&gt;">
														<g id="&lt;Group&gt;">
															<g id="&lt;Group&gt;">
																<g id="&lt;Group&gt;">
																	<path id="&lt;Path&gt;" class="s4" d="m255.8 172.1q-0.6 1.8-3.7 4.7c-2.1 2.1-11.3 0.4-16.8-0.8-3.4-0.8-7 0.3-9.3 3q-0.5 0.5-0.7 0.8c-0.8 1.4-0.6 3.2-0.1 4.7 0.6 1.5 1.5 2.9 2.1 4.4 1.2 2.7 1.5 5.7 1.7 8.7 0.3 4.2 0.6 8.5-1 12.4-0.7 1.8-2.6 3.8-4.5 2.2-0.8-0.7-1.2-1.7-1.3-2.7-0.2-2.9-2.9-3.9-4.4-5.8-1.3-1.5-1.7-3.5-2-5.4-1-6.4-0.6-13.1 1.8-19.1 2.4-6 7.2-9.7 13.2-12.2 4.9-2.1 13.6-1.6 19.5 0.3 3.8 1.2 8.9 5.5 7.5 6.5z"/>
																</g>
															</g>
														</g>
													</g>
												</g>
											</g>
										</g>
									</g>
								</g>
							</g>
						</g>
						<g id="&lt;Group&gt;">
							<g id="&lt;Group&gt;">
								<g id="&lt;Group&gt;">
									<g id="&lt;Group&gt;">
										<g id="&lt;Group&gt;">
											<g id="&lt;Group&gt;">
												<g id="&lt;Group&gt;">
													<g id="&lt;Group&gt;">
														<g id="&lt;Group&gt;">
															<path id="&lt;Path&gt;" class="s4" d="m248.7 217.1c1 0.6 1.9 1 2.6 1.3 0.7 0.4 1.1 0.6 1.1 0.8-0.1 0.1-0.5 0.1-1.3-0.1-0.8-0.2-1.9-0.5-2.9-1.2-1.1-0.7-1.8-1.8-2-2.6-0.3-0.7-0.3-1.2-0.1-1.3 0.2-0.1 0.8 1.8 2.6 3.1z"/>
														</g>
													</g>
												</g>
											</g>
										</g>
									</g>
								</g>
							</g>
						</g>
					</g>
					<g id="&lt;Group&gt;">
						<g id="&lt;Group&gt;">
							<g id="&lt;Group&gt;">
								<g id="&lt;Group&gt;">
									<g id="&lt;Group&gt;">
										<g id="&lt;Group&gt;">
											<path id="&lt;Path&gt;" class="s6" d="m221.6 207.5q0.1 0.2 0.2 0.5-0.1-0.2-0.2-0.5z"/>
										</g>
									</g>
								</g>
							</g>
						</g>
						<g id="&lt;Group&gt;">
							<g id="&lt;Group&gt;">
								<g id="&lt;Group&gt;">
									<g id="&lt;Group&gt;">
										<g id="&lt;Group&gt;">
											<path id="&lt;Compound Path&gt;" class="s5" d="m221.6 169.8q7.7-6.3 20.4-4c-35.2 4.3-22.3 37.1-20.4 41.7q-1.6-3.5-3.2-1.5-12.3-26.8 3.2-36.2z"/>
										</g>
									</g>
								</g>
							</g>
						</g>
					</g>
				</g>
				<g id="&lt;Group&gt;">
					<g id="&lt;Group&gt;">
						<g id="&lt;Group&gt;">
							<path id="&lt;Path&gt;" class="s4" d="m289.8 371.3q3.4 9.8 3.6 10.9 0.3 1.1 0 23.8l-20.6 27.8c-11.3 1-93.1-10.1-111-22.1-18.4-12.3-17.5-29.2-11.6-38.8 5.8-9.3 18.3-10.1 24.6-9.8q6.2 0.2 29.1 9.8l81.8-1.1z"/>
						</g>
					</g>
					<g id="&lt;Group&gt;">
						<g id="&lt;Group&gt;">
							<g id="&lt;Group&gt;">
								<g id="&lt;Group&gt;">
									<g id="&lt;Group&gt;">
										<g id="&lt;Group&gt;">
											<g id="&lt;Group&gt;">
												<g id="&lt;Group&gt;">
													<g id="&lt;Group&gt;">
														<g id="&lt;Group&gt;">
															<g id="&lt;Group&gt;">
																<g id="&lt;Group&gt;">
																	<g id="&lt;Group&gt;">
																		<g id="&lt;Group&gt;">
																			<g id="&lt;Group&gt;">
																				<path id="&lt;Path&gt;" class="s6" d="m246.3 436.6l-27.6 8.9q-0.1 31.1-5 33.2l-19.3-52.8 42.3-15.7z"/>
																			</g>
																		</g>
																	</g>
																</g>
															</g>
														</g>
													</g>
												</g>
											</g>
										</g>
									</g>
								</g>
							</g>
							<g id="&lt;Group&gt;" style="opacity: .6">
								<g id="&lt;Group&gt;">
									<g id="&lt;Group&gt;">
										<g id="&lt;Group&gt;">
											<g id="&lt;Group&gt;">
												<g id="&lt;Group&gt;">
													<g id="&lt;Group&gt;">
														<g id="&lt;Group&gt;">
															<g id="&lt;Group&gt;">
																<g id="&lt;Group&gt;">
																	<g id="&lt;Group&gt;">
																		<g id="&lt;Group&gt;">
																			<g id="&lt;Group&gt;">
																				<g id="&lt;Group&gt;">
																					<path id="&lt;Path&gt;" class="s2" d="m214.9 428.2c0.9 0.8 0.6 2.5-0.3 3.2-0.8 0.7-2.5 0.3-3.2-0.6-0.6-1-0.3-2.4 0.7-3 0.9-0.6 2.3-0.3 3 0.6"/>
																				</g>
																			</g>
																		</g>
																	</g>
																</g>
															</g>
														</g>
													</g>
												</g>
											</g>
										</g>
									</g>
								</g>
							</g>
							<g id="&lt;Group&gt;">
								<g id="&lt;Group&gt;">
									<g id="&lt;Group&gt;">
										<g id="&lt;Group&gt;">
											<g id="&lt;Group&gt;">
												<g id="&lt;Group&gt;">
													<g id="&lt;Group&gt;">
														<g id="&lt;Group&gt;">
															<g id="&lt;Group&gt;">
																<g id="&lt;Group&gt;">
																	<g id="&lt;Group&gt;">
																		<g id="&lt;Group&gt;">
																			<g id="&lt;Group&gt;">
																				<path id="&lt;Path&gt;" class="s4" d="m194.4 425.9l4.2-1.6 17 51.4q-0.2 2.7-1.9 3z"/>
																			</g>
																		</g>
																	</g>
																</g>
															</g>
														</g>
													</g>
												</g>
											</g>
										</g>
									</g>
								</g>
							</g>
							<g id="&lt;Group&gt;">
								<g id="&lt;Group&gt;">
									<g id="&lt;Group&gt;">
										<g id="&lt;Group&gt;">
											<g id="&lt;Group&gt;">
												<g id="&lt;Group&gt;">
													<g id="&lt;Group&gt;">
														<g id="&lt;Group&gt;">
															<g id="&lt;Group&gt;">
																<g id="&lt;Group&gt;">
																	<g id="&lt;Group&gt;">
																		<g id="&lt;Group&gt;">
																			<g id="&lt;Group&gt;">
																				<g id="&lt;Group&gt;">
																					<path id="&lt;Path&gt;" class="s4" d="m219.3 446.3c-0.2 0.1-0.8-1.2-2.1-2.1-1.3-1-2.6-1.3-2.6-1.5-0.1-0.3 1.6-0.5 3.2 0.7 1.5 1.2 1.8 2.9 1.5 2.9z"/>
																				</g>
																			</g>
																		</g>
																	</g>
																</g>
															</g>
														</g>
													</g>
												</g>
											</g>
										</g>
									</g>
								</g>
							</g>
							<g id="&lt;Group&gt;">
								<g id="&lt;Group&gt;">
									<g id="&lt;Group&gt;">
										<g id="&lt;Group&gt;">
											<g id="&lt;Group&gt;">
												<g id="&lt;Group&gt;">
													<g id="&lt;Group&gt;">
														<g id="&lt;Group&gt;">
															<g id="&lt;Group&gt;">
																<g id="&lt;Group&gt;">
																	<g id="&lt;Group&gt;">
																		<g id="&lt;Group&gt;">
																			<g id="&lt;Group&gt;">
																				<g id="&lt;Group&gt;">
																					<path id="&lt;Path&gt;" class="s4" d="m219.1 452.7c-0.3 0.1-1.1-0.8-2.5-1.3-1.4-0.5-2.7-0.3-2.8-0.6-0.1-0.2 1.3-0.9 3.1-0.3 1.7 0.6 2.4 2.1 2.2 2.2z"/>
																				</g>
																			</g>
																		</g>
																	</g>
																</g>
															</g>
														</g>
													</g>
												</g>
											</g>
										</g>
									</g>
								</g>
							</g>
							<g id="&lt;Group&gt;">
								<g id="&lt;Group&gt;">
									<g id="&lt;Group&gt;">
										<g id="&lt;Group&gt;">
											<g id="&lt;Group&gt;">
												<g id="&lt;Group&gt;">
													<g id="&lt;Group&gt;">
														<g id="&lt;Group&gt;">
															<g id="&lt;Group&gt;">
																<g id="&lt;Group&gt;">
																	<g id="&lt;Group&gt;">
																		<g id="&lt;Group&gt;">
																			<g id="&lt;Group&gt;">
																				<g id="&lt;Group&gt;">
																					<path id="&lt;Path&gt;" class="s4" d="m213.6 458.3c-0.2-0.3 1-1.1 2.7-0.9 1.6 0.1 2.6 1.1 2.4 1.3-0.1 0.2-1.2-0.3-2.5-0.4-1.4-0.1-2.5 0.2-2.6 0z"/>
																				</g>
																			</g>
																		</g>
																	</g>
																</g>
															</g>
														</g>
													</g>
												</g>
											</g>
										</g>
									</g>
								</g>
							</g>
							<g id="&lt;Group&gt;">
								<g id="&lt;Group&gt;">
									<g id="&lt;Group&gt;">
										<g id="&lt;Group&gt;">
											<g id="&lt;Group&gt;">
												<g id="&lt;Group&gt;">
													<g id="&lt;Group&gt;">
														<g id="&lt;Group&gt;">
															<g id="&lt;Group&gt;">
																<g id="&lt;Group&gt;">
																	<g id="&lt;Group&gt;">
																		<g id="&lt;Group&gt;">
																			<g id="&lt;Group&gt;">
																				<g id="&lt;Group&gt;">
																					<path id="&lt;Path&gt;" class="s4" d="m225.4 443.6c-0.3-0.1-0.4-1.4-1-2.8-0.6-1.4-1.5-2.4-1.3-2.6 0.1-0.2 1.5 0.5 2.2 2.2 0.7 1.7 0.3 3.2 0.1 3.2z"/>
																				</g>
																			</g>
																		</g>
																	</g>
																</g>
															</g>
														</g>
													</g>
												</g>
											</g>
										</g>
									</g>
								</g>
							</g>
							<g id="&lt;Group&gt;">
								<g id="&lt;Group&gt;">
									<g id="&lt;Group&gt;">
										<g id="&lt;Group&gt;">
											<g id="&lt;Group&gt;">
												<g id="&lt;Group&gt;">
													<g id="&lt;Group&gt;">
														<g id="&lt;Group&gt;">
															<g id="&lt;Group&gt;">
																<g id="&lt;Group&gt;">
																	<g id="&lt;Group&gt;">
																		<g id="&lt;Group&gt;">
																			<g id="&lt;Group&gt;">
																				<g id="&lt;Group&gt;">
																					<path id="&lt;Path&gt;" class="s4" d="m231.2 440c-0.1 0.1-0.7-0.9-1-2.6-0.1-0.9-0.2-1.9-0.1-3.1q0-0.9 0.2-1.8c0.1-0.3 0.1-0.7 0.4-1.1 0.1-0.3 0.7-0.7 1.3-0.6 0.5 0.1 0.8 0.6 1 0.9 0.1 0.4 0.2 0.8 0.2 1.1q0.1 0.9 0 1.8c0 1.2-0.3 2.2-0.7 3.1-0.7 1.6-1.5 2.4-1.5 2.3-0.2-0.1 0.4-1 0.9-2.6 0.2-0.8 0.4-1.7 0.5-2.8q0-0.8-0.1-1.7c-0.1-0.6-0.2-1.1-0.6-1.1-0.1-0.1-0.1-0.1-0.2 0.1-0.1 0.2-0.2 0.5-0.3 0.8q-0.2 0.8-0.3 1.7c-0.1 1.1-0.1 2 0 2.9 0.1 1.6 0.4 2.7 0.3 2.7z"/>
																				</g>
																			</g>
																		</g>
																	</g>
																</g>
															</g>
														</g>
													</g>
												</g>
											</g>
										</g>
									</g>
								</g>
							</g>
							<g id="&lt;Group&gt;">
								<g id="&lt;Group&gt;">
									<g id="&lt;Group&gt;">
										<g id="&lt;Group&gt;">
											<g id="&lt;Group&gt;">
												<g id="&lt;Group&gt;">
													<g id="&lt;Group&gt;">
														<g id="&lt;Group&gt;">
															<g id="&lt;Group&gt;">
																<g id="&lt;Group&gt;">
																	<g id="&lt;Group&gt;">
																		<g id="&lt;Group&gt;">
																			<g id="&lt;Group&gt;">
																				<g id="&lt;Group&gt;">
																					<path id="&lt;Path&gt;" class="s4" d="m230.7 439.8c-0.1-0.1 0.7-0.9 2.3-1.6 0.8-0.4 1.8-0.6 3-0.7q0.9-0.1 1.9 0.1c0.6 0.1 1.4 0.2 1.9 1.2 0.2 0.5 0 1.1-0.3 1.3-0.3 0.4-0.6 0.5-0.9 0.7q-0.9 0.4-1.8 0.6c-1.1 0.3-2.2 0.2-3.1-0.1-1.8-0.5-2.5-1.5-2.4-1.6 0.1-0.1 1 0.6 2.6 0.9 0.7 0.2 1.7 0.2 2.7 0q0.8-0.2 1.6-0.6c0.5-0.3 0.9-0.7 0.7-0.9-0.1-0.3-0.6-0.6-1.2-0.6q-0.8-0.1-1.6-0.1c-1.1 0-2.1 0.2-2.9 0.4-1.6 0.5-2.4 1.1-2.5 1z"/>
																				</g>
																			</g>
																		</g>
																	</g>
																</g>
															</g>
														</g>
													</g>
												</g>
											</g>
										</g>
									</g>
								</g>
							</g>
						</g>
					</g>
					<g id="&lt;Group&gt;">
						<g id="&lt;Group&gt;">
							<g id="&lt;Group&gt;">
								<g id="&lt;Group&gt;">
									<g id="&lt;Group&gt;">
										<g id="&lt;Group&gt;">
											<g id="&lt;Group&gt;">
												<g id="&lt;Group&gt;">
													<g id="&lt;Group&gt;">
														<g id="&lt;Group&gt;">
															<g id="&lt;Group&gt;">
																<g id="&lt;Group&gt;">
																	<g id="&lt;Group&gt;">
																		<g id="&lt;Group&gt;">
																			<g id="&lt;Group&gt;">
																				<path id="&lt;Path&gt;" class="s6" d="m271.7 403.6l41 19.1-23.4 51.1q-4.8-2.5-2.5-33.5l-26.7-11.1z"/>
																			</g>
																		</g>
																	</g>
																</g>
															</g>
														</g>
													</g>
												</g>
											</g>
										</g>
									</g>
								</g>
							</g>
							<g id="&lt;Group&gt;" style="opacity: .6">
								<g id="&lt;Group&gt;">
									<g id="&lt;Group&gt;">
										<g id="&lt;Group&gt;">
											<g id="&lt;Group&gt;">
												<g id="&lt;Group&gt;">
													<g id="&lt;Group&gt;">
														<g id="&lt;Group&gt;">
															<g id="&lt;Group&gt;">
																<g id="&lt;Group&gt;">
																	<g id="&lt;Group&gt;">
																		<g id="&lt;Group&gt;">
																			<g id="&lt;Group&gt;">
																				<g id="&lt;Group&gt;">
																					<path id="&lt;Path&gt;" class="s2" d="m291.9 423.5c0.7-0.9 2.1-1 3-0.4 0.9 0.7 1.1 2.2 0.4 3.1-0.7 0.8-2.4 1.1-3.3 0.3-0.8-0.8-0.9-2.5 0-3.2"/>
																				</g>
																			</g>
																		</g>
																	</g>
																</g>
															</g>
														</g>
													</g>
												</g>
											</g>
										</g>
									</g>
								</g>
							</g>
							<g id="&lt;Group&gt;">
								<g id="&lt;Group&gt;">
									<g id="&lt;Group&gt;">
										<g id="&lt;Group&gt;">
											<g id="&lt;Group&gt;">
												<g id="&lt;Group&gt;">
													<g id="&lt;Group&gt;">
														<g id="&lt;Group&gt;">
															<g id="&lt;Group&gt;">
																<g id="&lt;Group&gt;">
																	<g id="&lt;Group&gt;">
																		<g id="&lt;Group&gt;">
																			<g id="&lt;Group&gt;">
																				<path id="&lt;Path&gt;" class="s4" d="m289.3 473.8q-1.7-0.5-1.7-3.2l20.9-49.9 4.2 2z"/>
																			</g>
																		</g>
																	</g>
																</g>
															</g>
														</g>
													</g>
												</g>
											</g>
										</g>
									</g>
								</g>
							</g>
							<g id="&lt;Group&gt;">
								<g id="&lt;Group&gt;">
									<g id="&lt;Group&gt;">
										<g id="&lt;Group&gt;">
											<g id="&lt;Group&gt;">
												<g id="&lt;Group&gt;">
													<g id="&lt;Group&gt;">
														<g id="&lt;Group&gt;">
															<g id="&lt;Group&gt;">
																<g id="&lt;Group&gt;">
																	<g id="&lt;Group&gt;">
																		<g id="&lt;Group&gt;">
																			<g id="&lt;Group&gt;">
																				<g id="&lt;Group&gt;">
																					<path id="&lt;Path&gt;" class="s4" d="m288 438.3c1.6-1.1 3.3-0.8 3.2-0.5 0 0.2-1.4 0.4-2.7 1.3-1.4 0.8-2.1 2-2.3 1.9-0.3 0 0.1-1.7 1.8-2.7z"/>
																				</g>
																			</g>
																		</g>
																	</g>
																</g>
															</g>
														</g>
													</g>
												</g>
											</g>
										</g>
									</g>
								</g>
							</g>
							<g id="&lt;Group&gt;">
								<g id="&lt;Group&gt;">
									<g id="&lt;Group&gt;">
										<g id="&lt;Group&gt;">
											<g id="&lt;Group&gt;">
												<g id="&lt;Group&gt;">
													<g id="&lt;Group&gt;">
														<g id="&lt;Group&gt;">
															<g id="&lt;Group&gt;">
																<g id="&lt;Group&gt;">
																	<g id="&lt;Group&gt;">
																		<g id="&lt;Group&gt;">
																			<g id="&lt;Group&gt;">
																				<g id="&lt;Group&gt;">
																					<path id="&lt;Path&gt;" class="s4" d="m288.3 445.4c1.8-0.5 3.2 0.4 3 0.6-0.1 0.2-1.3-0.1-2.8 0.3-1.4 0.4-2.3 1.3-2.5 1.1-0.3-0.1 0.5-1.5 2.3-2z"/>
																				</g>
																			</g>
																		</g>
																	</g>
																</g>
															</g>
														</g>
													</g>
												</g>
											</g>
										</g>
									</g>
								</g>
							</g>
							<g id="&lt;Group&gt;">
								<g id="&lt;Group&gt;">
									<g id="&lt;Group&gt;">
										<g id="&lt;Group&gt;">
											<g id="&lt;Group&gt;">
												<g id="&lt;Group&gt;">
													<g id="&lt;Group&gt;">
														<g id="&lt;Group&gt;">
															<g id="&lt;Group&gt;">
																<g id="&lt;Group&gt;">
																	<g id="&lt;Group&gt;">
																		<g id="&lt;Group&gt;">
																			<g id="&lt;Group&gt;">
																				<g id="&lt;Group&gt;">
																					<path id="&lt;Path&gt;" class="s4" d="m288.4 453.2c-1.4 0-2.4 0.5-2.6 0.2-0.1-0.2 0.9-1.1 2.6-1.1 1.7 0 2.7 0.9 2.6 1.1-0.2 0.2-1.2-0.2-2.6-0.2z"/>
																				</g>
																			</g>
																		</g>
																	</g>
																</g>
															</g>
														</g>
													</g>
												</g>
											</g>
										</g>
									</g>
								</g>
							</g>
							<g id="&lt;Group&gt;">
								<g id="&lt;Group&gt;">
									<g id="&lt;Group&gt;">
										<g id="&lt;Group&gt;">
											<g id="&lt;Group&gt;">
												<g id="&lt;Group&gt;">
													<g id="&lt;Group&gt;">
														<g id="&lt;Group&gt;">
															<g id="&lt;Group&gt;">
																<g id="&lt;Group&gt;">
																	<g id="&lt;Group&gt;">
																		<g id="&lt;Group&gt;">
																			<g id="&lt;Group&gt;">
																				<g id="&lt;Group&gt;">
																					<path id="&lt;Path&gt;" class="s4" d="m280.7 434.7c0.9-1.6 2.3-2.3 2.4-2 0.2 0.2-0.8 1.1-1.5 2.5-0.8 1.3-1 2.6-1.2 2.6-0.3 0.1-0.5-1.5 0.3-3.1z"/>
																				</g>
																			</g>
																		</g>
																	</g>
																</g>
															</g>
														</g>
													</g>
												</g>
											</g>
										</g>
									</g>
								</g>
							</g>
							<g id="&lt;Group&gt;">
								<g id="&lt;Group&gt;">
									<g id="&lt;Group&gt;">
										<g id="&lt;Group&gt;">
											<g id="&lt;Group&gt;">
												<g id="&lt;Group&gt;">
													<g id="&lt;Group&gt;">
														<g id="&lt;Group&gt;">
															<g id="&lt;Group&gt;">
																<g id="&lt;Group&gt;">
																	<g id="&lt;Group&gt;">
																		<g id="&lt;Group&gt;">
																			<g id="&lt;Group&gt;">
																				<g id="&lt;Group&gt;">
																					<path id="&lt;Path&gt;" class="s4" d="m275.4 431.1c0.1-0.8 0.2-1.8 0.1-2.9q0-0.8-0.1-1.7c-0.1-0.3-0.1-0.6-0.2-0.8-0.1-0.1-0.1-0.2-0.2-0.1-0.4 0-0.6 0.4-0.7 1.1q-0.1 0.8-0.2 1.6c0 1.1 0.1 2.1 0.3 2.9 0.3 1.6 0.8 2.6 0.7 2.6-0.1 0.1-0.8-0.7-1.4-2.4-0.3-0.9-0.5-1.9-0.5-3.1q0-0.9 0.2-1.8c0.1-0.3 0.1-0.7 0.3-1.1 0.2-0.3 0.6-0.7 1.1-0.8 0.5-0.1 1.1 0.3 1.3 0.7 0.2 0.4 0.2 0.8 0.2 1.1q0.1 0.9 0.1 1.8c0 1.2-0.2 2.2-0.4 3.1-0.4 1.7-1 2.6-1.1 2.5-0.2 0 0.2-1 0.5-2.7z"/>
																				</g>
																			</g>
																		</g>
																	</g>
																</g>
															</g>
														</g>
													</g>
												</g>
											</g>
										</g>
									</g>
								</g>
							</g>
							<g id="&lt;Group&gt;">
								<g id="&lt;Group&gt;">
									<g id="&lt;Group&gt;">
										<g id="&lt;Group&gt;">
											<g id="&lt;Group&gt;">
												<g id="&lt;Group&gt;">
													<g id="&lt;Group&gt;">
														<g id="&lt;Group&gt;">
															<g id="&lt;Group&gt;">
																<g id="&lt;Group&gt;">
																	<g id="&lt;Group&gt;">
																		<g id="&lt;Group&gt;">
																			<g id="&lt;Group&gt;">
																				<g id="&lt;Group&gt;">
																					<path id="&lt;Path&gt;" class="s4" d="m272.9 432.5c-0.7-0.3-1.7-0.6-2.8-0.7q-0.8-0.1-1.6 0c-0.6 0-1.2 0.3-1.3 0.5-0.1 0.2 0.2 0.6 0.7 0.9q0.7 0.5 1.5 0.8c1 0.3 2 0.3 2.8 0.2 1.6-0.1 2.5-0.8 2.5-0.6 0.1 0-0.7 0.9-2.4 1.3-0.9 0.2-2 0.2-3.2-0.1q-0.9-0.3-1.7-0.8c-0.3-0.2-0.6-0.4-0.8-0.7-0.3-0.3-0.5-0.9-0.3-1.4 0.6-0.9 1.4-1 2.1-1q1-0.1 1.8 0c1.2 0.2 2.2 0.6 3 1 1.6 0.8 2.3 1.7 2.2 1.8-0.1 0.1-0.9-0.6-2.5-1.2z"/>
																				</g>
																			</g>
																		</g>
																	</g>
																</g>
															</g>
														</g>
													</g>
												</g>
											</g>
										</g>
									</g>
								</g>
							</g>
						</g>
					</g>
					<g id="&lt;Group&gt;">
						<g id="&lt;Group&gt;">
							<path id="&lt;Path&gt;" class="s4" d="m289.8 371.3q35.3-13.1 48.3-11.4c7.2 0.9 18.6 6.5 19.5 15.8 0.8 9.3-1.4 21.8-14 27.8-12.6 6.1-62.7 28.6-74.6 32.1q-12 3.4-41.7 11.5l-11.3-32.1q61.6-21.3 64.9-23.7 3.2-2.4 11.5-5.7z"/>
						</g>
					</g>
					<g id="&lt;Group&gt;">
						<g id="&lt;Group&gt;">
							<g id="&lt;Group&gt;">
								<path id="&lt;Path&gt;" class="s5" d="m167.2 375.6q0.3-0.1 0.7-0.2c0.6-0.2 1.6-0.5 2.8-0.8 1.2-0.4 2.6-0.7 4.4-0.9 1.8-0.2 3.8-0.2 6 0 2.2 0.1 4.6 0.5 7.1 1.3 1.3 0.4 2.6 0.8 3.8 1.4q1.9 0.9 3.9 1.9c5.2 2.5 11.1 5.1 17.4 7.5 12.6 5.1 24.6 7.5 33.2 9.5 4.3 1 7.8 1.8 10.2 2.5q1.8 0.4 2.8 0.7 0.4 0.1 0.7 0.2 0.2 0.1 0.2 0.1 0 0-0.2-0.1-0.3 0-0.8-0.1-1-0.3-2.7-0.7c-2.4-0.6-5.9-1.4-10.3-2.3-8.6-2-20.6-4.4-33.2-9.4-6.3-2.5-12.2-5.1-17.5-7.6q-2-1-3.8-1.9c-1.3-0.6-2.5-1-3.8-1.4-2.4-0.8-4.8-1.2-7-1.4-2.2-0.2-4.2-0.1-6 0-1.7 0.2-3.2 0.5-4.4 0.8-1.2 0.3-2.1 0.5-2.8 0.7q-0.4 0.2-0.7 0.3-0.2 0-0.2 0 0 0 0.2-0.1z"/>
							</g>
						</g>
					</g>
					<g id="&lt;Group&gt;">
						<g id="&lt;Group&gt;">
							<g id="&lt;Group&gt;">
								<path id="&lt;Path&gt;" class="s5" d="m169.6 370.8q0.7-0.1 2-0.3c1.8-0.3 4.2-0.5 6.9-0.3 2.6 0.1 5 0.5 6.7 1q1.3 0.3 2 0.6 0.7 0.2 0.7 0.2c0 0.1-1-0.2-2.7-0.6-1.7-0.3-4.1-0.7-6.8-0.9-2.6-0.1-5 0.1-6.7 0.2-1.8 0.2-2.8 0.4-2.8 0.4q0-0.1 0.7-0.3z"/>
							</g>
						</g>
					</g>
					<g id="&lt;Group&gt;">
						<g id="&lt;Group&gt;">
							<g id="&lt;Group&gt;">
								<path id="&lt;Path&gt;" class="s5" d="m305.3 380.1c0.4-0.4 1-0.8 1.9-1.4 1.6-1.1 4.1-2.5 7-3.5 2.9-1 5.6-1.5 7.6-1.7 1-0.1 1.8-0.1 2.4-0.1q0.8 0 0.9 0.1c0 0-1.3 0.1-3.2 0.3-2 0.2-4.7 0.8-7.6 1.8-2.9 1-5.3 2.3-7 3.3-1.7 1.1-2.7 1.8-2.7 1.8q0-0.1 0.7-0.6z"/>
							</g>
						</g>
					</g>
					<g id="&lt;Group&gt;">
						<g id="&lt;Group&gt;">
							<g id="&lt;Group&gt;">
								<path id="&lt;Path&gt;" class="s5" d="m286.6 428.8q-0.3 0.1-0.8 0.3c-0.7 0.3-1.7 0.9-3.1 1.4-2.7 1.1-6.8 2.7-12 4.4-10.4 3.5-25.4 7.9-43.3 12.4h-0.2v-0.1c-3.4-9.3-7.1-19.5-11-30.3v-0.2h0.1c4.4-1.8 8.9-3.7 13.5-5.6 29.9-12.2 56.7-23.2 74.9-30.7v0.1c3-3.2 5.8-6.1 8.5-8.4 2.6-2.2 5.1-4 7.1-5.3 2.1-1.3 3.8-2.1 5-2.6q0.8-0.4 1.3-0.6 0.3-0.1 0.4-0.2-0.1 0.1-0.4 0.2-0.5 0.2-1.3 0.6c-1.1 0.6-2.8 1.4-4.9 2.7-2 1.3-4.5 3.1-7.1 5.4-2.6 2.3-5.4 5.1-8.5 8.3v0.1c-18.2 7.5-45 18.5-74.8 30.8-4.6 1.9-9.2 3.7-13.5 5.5l0.1-0.2c3.9 10.8 7.6 21 10.9 30.3l-0.2-0.1c17.9-4.5 32.9-8.9 43.4-12.3 5.2-1.7 9.2-3.2 12-4.3 1.4-0.5 2.4-1 3.1-1.3q0.5-0.2 0.8-0.3 0.2-0.1 0.3-0.1-0.1 0-0.3 0.1z"/>
							</g>
						</g>
					</g>
				</g>
				<g id="&lt;Group&gt;">
					<g id="&lt;Group&gt;">
						<g id="&lt;Group&gt;">
							<path id="&lt;Path&gt;" class="s6" d="m207.6 318.1l-1.8 17.6 18.3 26.2-5.5 14-19.2-6.2q-13.6-4.6-18.1-8.1c-4.5-3.5-7.7-11.2-6.2-21.9 1.5-10.5 11-64 12.3-68.2q2-6.8 12.2-12.7z"/>
						</g>
					</g>
					<g id="&lt;Group&gt;">
						<g id="&lt;Group&gt;">
							<path id="&lt;Path&gt;" class="s6" d="m219.6 249.6l6.3-4.7q8.3 8.4 17.8 7.4 9.5-1 15.1-8.2l28.3 5.7c1.9 0.4 5.3 1.6 8.7 6.4q3.7 5.2 21.2 28.6h12.2c3.4 0 6.5 1.9 8.1 4.9 2.1 4 4.6 9.3 4.3 11.5-0.4 3.8 0.4 14-4.7 17.2-1.5 1-7.2 4.1-11.6 3.9-6.5-0.3-14.1-3.7-18.5-6.8-3.6-2.6-12.2-11.5-15.5-14.9l-2.1 74.3-74.2-2.2-15.4-113.9q19.2-9.2 20-9.2z"/>
						</g>
					</g>
					<g id="&lt;Group&gt;">
						<g id="&lt;Group&gt;">
							<g id="&lt;Group&gt;">
								<ellipse id="&lt;Path&gt;" class="s4" cx="291.3" cy="290" rx=".3" ry="20.6"/>
							</g>
						</g>
					</g>
					<g id="&lt;Group&gt;">
						<g id="&lt;Group&gt;">
							<g id="&lt;Group&gt;">
								<path id="&lt;Path&gt;" class="s4" d="m191.1 329.5c0.3 0 0.7 0 1.3 0.1 1.1 0.2 2.8 0.6 4.7 1.4 1.9 0.8 4 2 6.2 3.7 2.2 1.6 4.4 3.7 6.5 5.9 2.1 2.3 4.1 4.6 5.9 6.6 1.8 2.1 3.4 3.8 4.9 5.2 1.5 1.4 2.8 2.5 3.7 3.1 0.5 0.4 0.9 0.6 1.1 0.8q0.4 0.3 0.4 0.3 0 0-0.4-0.2c-0.3-0.2-0.7-0.4-1.1-0.7-1-0.7-2.3-1.7-3.8-3.1-1.6-1.4-3.3-3.1-5.1-5.1-1.8-2-3.8-4.3-5.9-6.6-2.1-2.3-4.3-4.3-6.4-6-2.2-1.6-4.3-2.8-6.1-3.7-1.9-0.8-3.5-1.2-4.6-1.4-1.2-0.2-1.8-0.3-1.8-0.3q0 0 0.5 0z"/>
							</g>
						</g>
					</g>
					<g id="&lt;Group&gt;">
						<g id="&lt;Group&gt;">
							<g id="&lt;Group&gt;">
								<path id="&lt;Path&gt;" class="s4" d="m189.7 324.5q0.8 0.1 2.2 0.4c1.8 0.4 4.2 1.3 6.7 2.7 2.4 1.5 4.4 3.2 5.6 4.6q0.9 1.1 1.4 1.7 0.4 0.7 0.4 0.7c-0.1 0-0.7-0.9-2-2.2-1.3-1.3-3.2-3-5.6-4.4-2.4-1.5-4.8-2.4-6.6-2.8-1.7-0.5-2.9-0.7-2.9-0.8q0.1 0 0.8 0.1z"/>
							</g>
						</g>
					</g>
					<g id="&lt;Group&gt;" style="opacity: .3">
						<g id="&lt;Group&gt;">
							<g id="&lt;Group&gt;">
								<path id="&lt;Path&gt;" class="s7" d="m327 311.4c-3.9 1.1-8.6-4.6-12.2-8.1-1.8-1.8-3.8-3.8-4.4-6.3-0.6-2.1-0.2-4.4 0.6-6.4 0.8-2 1.4-3.3 2.6-5-0.3 3-1.1 7.7-0.1 11.5 0.9 3.2 2.9 5.8 5.1 8.2 2.2 2.5 4.9 5.2 8.4 6.1z"/>
							</g>
						</g>
					</g>
					<g id="&lt;Group&gt;">
						<g id="&lt;Group&gt;">
							<g id="&lt;Group&gt;">
								<path id="&lt;Path&gt;" class="s4" d="m309.9 307.3q-0.2-0.4-0.3-1.1c-0.1-0.4-0.3-0.9-0.4-1.4-0.2-1.1-0.4-2.4-0.4-3.8-0.1-1.5 0-3 0.3-4.7 0.2-1.6 0.7-3.2 1.1-4.5 0.5-1.4 1.1-2.6 1.6-3.5 0.3-0.5 0.6-0.9 0.8-1.3q0.4-0.5 0.6-0.9 0.6-0.7 0.6-0.7c0.1 0-0.7 1.1-1.7 3-0.5 0.9-1 2.1-1.5 3.5-0.5 1.3-0.9 2.8-1.2 4.5-0.2 1.6-0.3 3.2-0.3 4.6 0.1 1.4 0.2 2.7 0.4 3.8 0.4 2.1 0.8 3.4 0.7 3.4q0 0-0.3-0.9z"/>
							</g>
						</g>
					</g>
					<g id="&lt;Group&gt;">
						<g id="&lt;Group&gt;">
							<g id="&lt;Group&gt;">
								<path id="&lt;Path&gt;" class="s4" d="m257.7 248.1c0.9 0.8 1.4 1.8 1.3 1.8-0.1 0.1-0.7-0.7-1.6-1.5-0.9-0.8-1.8-1.3-1.7-1.4 0-0.1 1 0.2 2 1.1z"/>
							</g>
						</g>
					</g>
					<g id="&lt;Group&gt;">
						<g id="&lt;Group&gt;">
							<g id="&lt;Group&gt;">
								<path id="&lt;Path&gt;" class="s4" d="m249.6 253.3c0.6 1.3 0.7 2.4 0.6 2.4-0.1 0.1-0.3-1-1-2.2-0.6-1.2-1.3-2-1.2-2.1 0 0 0.9 0.7 1.6 1.9z"/>
							</g>
						</g>
					</g>
					<g id="&lt;Group&gt;">
						<g id="&lt;Group&gt;">
							<g id="&lt;Group&gt;">
								<path id="&lt;Path&gt;" class="s4" d="m235.2 253.7c0.5-1.2 1.1-2.1 1.2-2.1 0.1 0.1-0.4 1.1-0.8 2.3-0.4 1.2-0.7 2.2-0.8 2.2-0.1 0 0-1.1 0.4-2.4z"/>
							</g>
						</g>
					</g>
					<g id="&lt;Group&gt;">
						<g id="&lt;Group&gt;">
							<g id="&lt;Group&gt;">
								<path id="&lt;Path&gt;" class="s4" d="m227.2 249.2c0.8-1.4 2-2.2 2.1-2.1 0 0.1-1 1-1.8 2.3-0.8 1.4-1.1 2.7-1.2 2.7-0.1 0 0-1.4 0.9-2.9z"/>
							</g>
						</g>
					</g>
					<g id="&lt;Group&gt;">
						<g id="&lt;Group&gt;">
							<g id="&lt;Group&gt;">
								<path id="&lt;Path&gt;" class="s4" d="m205 298.7c1.7 12.5 2.9 22.6 2.8 22.7-0.1 0-1.5-10.1-3.2-22.6-1.6-12.5-2.9-22.7-2.8-22.7 0.1 0 1.6 10.1 3.2 22.6z"/>
							</g>
						</g>
					</g>
				</g>
				<g id="&lt;Group&gt;">
					<g id="&lt;Group&gt;">
						<g id="&lt;Group&gt;">
							<path id="&lt;Path&gt;" class="s4" d="m313.8 296.3c0.3 1.2 0.8 2.5 1.5 3.9 0.7 1.4 1.6 2.9 2.7 4.4 1.1 1.4 2.3 2.7 3.6 3.7 1.2 0.9 2.4 1.7 3.5 2.2 2.2 1 3.7 1 3.7 1.1 0 0-0.4 0-1.1-0.1q-0.2 0-0.5-0.1-0.3 0-0.7-0.1-0.3-0.1-0.7-0.2-0.4-0.2-0.8-0.4c-1.2-0.4-2.4-1.2-3.7-2.2-1.2-1-2.4-2.2-3.6-3.7-1.1-1.5-2-3-2.7-4.4-0.7-1.5-1.2-2.8-1.5-4q-0.1-0.4-0.2-0.8-0.1-0.4-0.1-0.8-0.2-0.7-0.2-1.2c0-0.7 0-1.1 0-1.1 0.1 0 0.1 1.5 0.8 3.8z"/>
						</g>
					</g>
				</g>
				<g id="&lt;Group&gt;">
					<g id="&lt;Group&gt;">
						<g id="&lt;Group&gt;" style="opacity: .3">
							<g id="&lt;Group&gt;">
								<g id="&lt;Group&gt;">
									<path id="&lt;Path&gt;" class="s7" d="m204.2 377.4c-3.1-1.5-3.9-5.6-4.2-9.1q-1.4-15.3-2.8-30.6c-0.4-4.8-0.7-10.3 2.7-13.7 3.1-3.1 8-3.3 12.4-3.3 27.2 0.1 51.1 0.9 78.3 1l-1.4 47.5z"/>
								</g>
							</g>
						</g>
						<g id="&lt;Group&gt;">
							<g id="&lt;Group&gt;">
								<g id="&lt;Group&gt;">
									<path id="&lt;Path&gt;" class="s1" d="m302.3 329l-2.9 55.1c-0.1 2.1-1.9 3.8-4 3.8l-87.8 0.1c-2.1 0-3.9-1.6-4-3.8l-3.4-54.1c-0.1-2.3 1.5-5.2 3.8-5.3h94.2c2.3 0 4.2 1.9 4.1 4.2z"/>
								</g>
							</g>
							<g id="&lt;Group&gt;">
								<g id="&lt;Group&gt;">
									<g id="&lt;Group&gt;">
										<path id="&lt;Path&gt;" class="s4" d="m302.2 328.2c0-0.5-0.3-1.3-1-2.1-0.4-0.4-0.9-0.7-1.5-1-0.6-0.2-1.3-0.3-2-0.2q-2.4 0-5.4 0c-8 0-19.6 0-34 0-14.3 0.1-31.4 0.1-50.4 0.1q-1.8 0-3.6 0c-1.2-0.1-2.2 0.6-2.8 1.6-0.7 1-1.1 2.2-1.1 3.4q0.1 1.8 0.2 3.6 0.5 7.5 1 15.2c0.6 10.3 1.3 21 2 31.9l0.1 2.1c0 0.6 0 1.4 0.2 2 0.2 1.3 1.1 2.4 2.4 2.8 0.6 0.2 1.2 0.3 1.9 0.3h2q2-0.1 4-0.1 8 0 15.8 0c10.3 0 20.3 0 29.8 0 9.4 0 18.5 0 26.9 0q3.2-0.1 6.2-0.1 0.8 0 1.5 0c0.5 0 1.1 0.1 1.5 0 1-0.1 1.9-0.6 2.5-1.3 0.6-0.8 0.9-1.7 0.9-2.6q0.1-1.5 0.1-2.9 0.2-2.8 0.3-5.5c0.8-14.3 1.4-25.9 1.9-33.9 0.2-4 0.4-7.1 0.5-9.3q0.1-1.5 0.1-2.4 0.1-0.5 0.1-0.8 0 0.3 0 0.8-0.1 0.9-0.1 2.4c-0.1 2.2-0.3 5.3-0.5 9.3-0.4 8-1 19.6-1.7 33.9q-0.1 2.7-0.3 5.5-0.1 1.4-0.1 2.9c0 0.9-0.3 2-1 2.7-0.7 0.8-1.6 1.4-2.6 1.5-0.6 0.1-1.1 0-1.6 0q-0.7 0-1.5 0.1-3 0-6.2 0c-8.4 0-17.5 0-26.9 0-9.5 0.1-19.5 0.1-29.8 0.1q-7.8 0-15.8 0-2 0-4 0h-2c-0.7 0.1-1.4 0-2.1-0.2-1.3-0.5-2.4-1.7-2.6-3.1-0.1-0.8-0.1-1.4-0.2-2.1l-0.1-2.1c-0.7-10.9-1.4-21.6-2-31.9q-0.5-7.7-0.9-15.1-0.1-1.9-0.2-3.7c0-1.3 0.4-2.6 1.1-3.6 0.3-0.5 0.8-1 1.3-1.3 0.5-0.3 1.2-0.5 1.8-0.5q1.8 0 3.6 0c19 0.1 36.1 0.1 50.4 0.1 14.4 0 26 0 34 0q3 0.1 5.4 0.1c0.7-0.1 1.5 0 2.1 0.3 0.6 0.2 1.1 0.6 1.4 1 0.8 0.7 1 1.6 1.1 2.1q0 0.4 0 0.6 0 0.2 0 0.2c0 0 0-0.3-0.1-0.8z"/>
									</g>
								</g>
							</g>
						</g>
					</g>
					<g id="&lt;Group&gt;">
						<g id="&lt;Group&gt;">
							<g id="&lt;Group&gt;">
								<circle id="&lt;Path&gt;" class="s2" cx="250.6" cy="355.9" r="5.2"/>
							</g>
						</g>
						<g id="&lt;Group&gt;">
							<g id="&lt;Group&gt;">
								<g id="&lt;Group&gt;">
									<path id="&lt;Path&gt;" class="s4" d="m245.4 355.6q0-0.4 0.1-1c0.2-0.8 0.7-2 1.9-2.9 0.6-0.5 1.4-0.9 2.2-1 0.9-0.2 1.9-0.2 2.8 0.2 1 0.3 1.9 0.9 2.5 1.8 0.7 0.9 1.1 2 1.1 3.2 0 1.2-0.4 2.3-1.1 3.2-0.6 0.8-1.5 1.5-2.5 1.8-0.9 0.4-1.9 0.4-2.8 0.2-0.8-0.1-1.6-0.5-2.2-1-1.2-0.9-1.7-2.1-1.9-2.9q-0.1-0.6-0.1-1 0-0.3 0.1-0.3c0 0 0 0.4 0.2 1.2 0.2 0.8 0.7 1.9 1.9 2.8 0.5 0.4 1.3 0.8 2.1 0.9 0.8 0.1 1.7 0.1 2.6-0.2 0.9-0.3 1.7-0.9 2.3-1.8 0.6-0.8 1-1.8 1-2.9 0-1.1-0.4-2.1-1-3-0.6-0.8-1.4-1.4-2.3-1.7-0.9-0.3-1.8-0.4-2.6-0.2-0.8 0.1-1.6 0.5-2.1 0.9-1.2 0.9-1.7 2-1.9 2.7-0.2 0.8-0.2 1.3-0.2 1.3q-0.1 0-0.1-0.3z"/>
								</g>
							</g>
						</g>
					</g>
					<g id="&lt;Group&gt;">
						<g id="&lt;Group&gt;">
							<g id="&lt;Group&gt;">
								<path id="&lt;Path&gt;" class="s4" d="m298.8 355.8c-0.5 11.4-0.9 20.7-1 20.7-0.1 0 0.2-9.3 0.6-20.7 0.4-11.4 0.8-20.7 0.9-20.7 0.2 0-0.1 9.3-0.5 20.7z"/>
							</g>
						</g>
					</g>
				</g>
				<g id="&lt;Group&gt;">
					<g id="&lt;Group&gt;">
						<g id="&lt;Group&gt;">
							<path id="&lt;Path&gt;" class="s8" d="m308.9 263.2l-2.9-6.2q-3-12.2-1.9-15.8 1.1-3.6 6.6-13.8l17 4.4q2.6 6.4 2.4 9.5-0.2 3.1-6.1 12.9 2.2 8.6 1.7 9-8.1 6.9-16.8 0z"/>
						</g>
					</g>
					<g id="&lt;Group&gt;">
						<g id="&lt;Group&gt;">
							<g id="&lt;Group&gt;">
								<path id="&lt;Path&gt;" class="s8" d="m324 254.2l-18.2-1.1q-2.5-5.8-1.9-10.2c0.2-1.7 3-8.2 4.4-11q1.4-2.8 4.4-8 1.8-7.4 2.9-11.8c1.1-4.3 1.6-5.3 2.6-5.6 2.6-0.6 3.5 1.7 3.1 4.3q-0.2 0.7-1.6 14 2.4-1.5 4.7 0.2 1.8 1.2 1.4 4.3 1.3-0.6 2.6 0.2 1.3 0.8 0.9 3 1.1-0.5 2.6 0.4c2.4 1.4 1 3.9 0 6.5q-1.1 2.5-1.8 3.8-0.7 1.3-6.1 11z"/>
							</g>
						</g>
						<g id="&lt;Group&gt;">
							<g id="&lt;Group&gt;">
								<g id="&lt;Group&gt;">
									<path id="&lt;Path&gt;" class="s9" d="m327.8 235.2q-0.7 1-1.4 2.2c-0.3 0.4-0.5 0.8-0.7 1.3-0.2 0.5-0.4 1-0.2 1.5 0.1 0.5 0.4 1 0.9 1.1 0.4 0.1 0.9 0 1.3-0.2 0.9-0.4 1.6-1 2.2-1.4 1.2-0.8 1.9-1.4 2-1.4q0 0.1-0.5 0.5-0.5 0.5-1.3 1.2-0.5 0.3-1 0.7c-0.4 0.2-0.8 0.5-1.2 0.7-0.5 0.2-1.1 0.4-1.7 0.2-0.6-0.1-1-0.7-1.1-1.3-0.1-0.6 0-1.2 0.2-1.7 0.2-0.6 0.5-1 0.8-1.4q0.8-1.2 1.4-2.2c0.9-1.2 1.4-2 1.4-1.9 0.1 0-0.4 0.8-1.1 2.1z"/>
								</g>
							</g>
						</g>
						<g id="&lt;Group&gt;">
							<g id="&lt;Group&gt;">
								<g id="&lt;Group&gt;">
									<path id="&lt;Path&gt;" class="s9" d="m313.5 231.9c-0.4-1.5-0.9-2.7-0.8-2.7 0.1-0.1 0.8 1 1.2 2.6 0.3 1.5 0.2 2.8 0.1 2.8-0.1 0-0.1-1.2-0.5-2.7z"/>
								</g>
							</g>
						</g>
						<g id="&lt;Group&gt;">
							<g id="&lt;Group&gt;">
								<g id="&lt;Group&gt;">
									<path id="&lt;Path&gt;" class="s8" d="m306.9 238.5c1.6-1.6 3.8-2.6 6-3.1 2.3-0.5 4.6-0.5 6.9-0.3 1.9 0.2 4 0.6 4.8 2.3 0.9 1.7-0.1 3.9-1.8 4.9-1.6 0.9-3.6 1-5.5 0.8-1.9-0.2-3.9-0.5-5.7-0.2"/>
								</g>
							</g>
							<g id="&lt;Group&gt;">
								<g id="&lt;Group&gt;">
									<g id="&lt;Group&gt;">
										<path id="&lt;Path&gt;" class="s9" d="m311.9 242.8q0.4-0.1 1.1-0.1c0.9-0.1 2.3 0.1 3.9 0.2 0.8 0.1 1.7 0.2 2.7 0.1 0.9-0.1 2-0.3 2.9-0.8 0.9-0.4 1.7-1.3 2.1-2.4 0.2-0.5 0.2-1.1 0.1-1.7-0.1-0.5-0.4-1.1-0.9-1.5-0.9-0.8-2.1-1.1-3.3-1.2q-1.7-0.3-3.4-0.3c-2.2 0-4.1 0.3-5.7 0.8-1.5 0.5-2.7 1.2-3.4 1.7-0.8 0.6-1.1 1-1.1 0.9q-0.1 0 0.2-0.3 0.2-0.2 0.8-0.7c0.7-0.6 1.9-1.3 3.4-1.8 1.6-0.6 3.6-0.9 5.8-0.9q1.7 0 3.5 0.2c1.1 0.2 2.4 0.5 3.5 1.3 0.5 0.5 0.8 1.1 1 1.7 0.1 0.7 0 1.3-0.2 1.9-0.4 1.2-1.2 2.1-2.2 2.7-1 0.5-2.1 0.7-3.1 0.7-1 0.1-1.9 0-2.7-0.1-1.7-0.2-3-0.4-3.9-0.4-0.9 0-1.4 0.1-1.4 0.1q0 0 0.3-0.1z"/>
									</g>
								</g>
							</g>
						</g>
						<g id="&lt;Group&gt;">
							<g id="&lt;Group&gt;">
								<g id="&lt;Group&gt;">
									<path id="&lt;Path&gt;" class="s8" d="m328.8 233.3c-1.9 2.9-3.6 6-5.2 9.1-0.5 0.9-1 1.9-1.8 2.4-0.7 0.4-2.4-0.3-3.2-0.6l5.3-11.9"/>
								</g>
							</g>
							<g id="&lt;Group&gt;">
								<g id="&lt;Group&gt;">
									<g id="&lt;Group&gt;">
										<path id="&lt;Path&gt;" class="s9" d="m323.5 233.2q-0.4 1-1 2.5c-1 2.2-2.2 5.2-3.7 8.6l-0.1-0.3c0.6 0.2 1.1 0.5 1.8 0.6 0.4 0.1 1 0.2 1.3 0 0.4-0.3 0.7-0.7 0.9-1.1 0.6-0.8 1-1.6 1.4-2.4 0.8-1.6 1.6-3 2.3-4.2 0.7-1.1 1.3-2.1 1.7-2.7 0.4-0.6 0.7-1 0.7-0.9 0 0-0.2 0.3-0.6 1-0.4 0.6-0.9 1.6-1.6 2.8-0.6 1.1-1.4 2.6-2.2 4.2-0.4 0.7-0.8 1.6-1.3 2.4-0.3 0.5-0.7 0.9-1.1 1.2-0.1 0-0.2 0.1-0.4 0.2q-0.2 0-0.4 0-0.4 0-0.8-0.1c-0.7-0.2-1.3-0.4-1.9-0.6l-0.1-0.1v-0.2c1.5-3.4 2.9-6.3 3.8-8.5q0.7-1.5 1.2-2.5 0.4-0.8 0.5-0.8 0 0-0.4 0.9z"/>
									</g>
								</g>
							</g>
						</g>
						<g id="&lt;Group&gt;">
							<g id="&lt;Group&gt;">
								<g id="&lt;Group&gt;">
									<path id="&lt;Path&gt;" class="s8" d="m325.3 228.7q-2.6 6.4-5.1 12.7c-0.3 0.9-0.7 1.8-1.4 2.5-0.6 0.8-1.5 1.3-2.5 1.1-1.3-0.2-2.2-1.5-2.2-2.9-0.1-1.3 0.4-2.6 0.9-3.8q2.3-5.8 3.6-11.9"/>
								</g>
							</g>
							<g id="&lt;Group&gt;">
								<g id="&lt;Group&gt;">
									<g id="&lt;Group&gt;">
										<path id="&lt;Path&gt;" class="s9" d="m318.6 226.8q-0.1 0.4-0.3 1.1c-0.2 1-0.5 2.5-1 4.2-0.5 1.7-1.2 3.8-2 6-0.5 1.1-1 2.3-1.1 3.5 0 0.6 0.1 1.3 0.4 1.8 0.3 0.6 0.7 1.1 1.3 1.3 0.6 0.3 1.3 0.2 1.8-0.1 0.6-0.3 1-0.8 1.4-1.3 0.7-1 1-2.3 1.5-3.4 0.9-2.1 1.7-4.1 2.4-5.8 0.7-1.6 1.2-3 1.6-4q0.3-0.6 0.5-1 0.1-0.4 0.2-0.4 0 0-0.1 0.4-0.2 0.4-0.4 1.1c-0.4 1-0.9 2.3-1.6 4-0.6 1.7-1.4 3.7-2.3 5.9-0.4 1.1-0.8 2.3-1.5 3.4-0.4 0.6-0.9 1.1-1.5 1.4-0.6 0.4-1.4 0.5-2.1 0.2-0.7-0.3-1.2-0.9-1.5-1.5-0.4-0.6-0.5-1.3-0.4-2 0.1-1.4 0.6-2.5 1-3.6 0.9-2.2 1.6-4.3 2.1-6 0.6-1.7 0.9-3.1 1.2-4.1q0.2-0.7 0.3-1.1 0.1-0.4 0.1-0.4 0 0 0 0.4z"/>
									</g>
								</g>
							</g>
						</g>
					</g>
					<g id="&lt;Group&gt;">
						<path id="&lt;Path&gt;" class="s8" d="m329.6 311c-5 2.9-14.8-9.1-16-13.6q-1.2-4.4 0-11.8l-7.8-29.4 19.1 2.2q11.5 34.2 12 35.8c0.5 1.7-2.3 13.9-7.3 16.8z"/>
					</g>
					<g id="&lt;Group&gt;">
						<g id="&lt;Group&gt;">
							<g id="&lt;Group&gt;">
								<path id="&lt;Path&gt;" class="s9" d="m316.7 251.4c1.5-1.4 1.9-3 2-3 0.1 0 0 0.5-0.2 1.1-0.2 0.6-0.7 1.5-1.5 2.2-0.8 0.7-1.7 1.1-2.3 1.3-0.7 0.2-1.1 0.2-1.1 0.1-0.1-0.1 1.6-0.3 3.1-1.7z"/>
							</g>
						</g>
					</g>
				</g>
			</g>
		</g>
	</g>
</svg>