<svg version="1.2" xmlns="http://www.w3.org/2000/svg" viewBox="0 0 750 500" width="750" height="500">
	<title>5112781-ai</title>
	<defs>
		<clipPath clipPathUnits="userSpaceOnUse" id="cp1">
			<path d="m613.13 208.41c90.05 54.28 68.88 158.02 6.73 203.42-62.15 45.39-184.87 33.77-304.04 33.77-119.17 0-195.09-21.23-227.25-104.69-32.16-83.46-6.58-142.09 48.76-197.63 55.34-55.55 93.96-109.25 202.84-102.42 150.52 9.45 219.92 135.58 272.96 167.55z"/>
		</clipPath>
	</defs>
	<style>
		tspan { white-space:pre } 
		.s0 { fill: #fffcf5 } 
		.s1 { fill: #fff2db } 
		.s2 { fill: #ffbc45 } 
		.s3 { fill: #ffe4b5 } 
		.s4 { fill: #31241c } 
		.s5 { fill: #c97440 } 
		.s6 { fill: #ab5d2d } 
		.s7 { fill: #1a191f } 
		.s8 { fill: #1f0e03 } 
		.s9 { fill: #5f7e91 } 
		.s10 { fill: #49687a } 
		.s11 { fill: none;stroke: #1f0e03 } 
		.s12 { fill: #f5cdb3 } 
		.t13 { font-size: 22px;fill: #c97440;font-weight: 700;font-family: "Raleway-Bold", "Raleway" } 
		.t14 { font-size: 23px;fill: #c97440;font-weight: 700;font-family: "Raleway-Bold", "Raleway" } 
		.t15 { font-size: 32px;fill: #c97440;font-weight: 700;font-family: "Raleway-Bold", "Raleway" } 
	</style>
	<g id="background">
		<path id="&lt;Path&gt;" class="s0" d="m750 500h-750v-500h750z"/>
	</g>
	<g id="objects">
		<g id="&lt;Group&gt;">
			<path id="&lt;Path&gt;" class="s1" d="m613.1 208.4c90.1 54.3 68.9 158 6.8 203.4-62.2 45.4-184.9 33.8-304.1 33.8-119.1 0-195.1-21.2-227.2-104.7-32.2-83.4-6.6-142.1 48.7-197.6 55.4-55.6 94-109.3 202.9-102.4 150.5 9.4 219.9 135.5 272.9 167.5z"/>
			<g id="&lt;Clip Group&gt;" clip-path="url(#cp1)">
				<g id="&lt;Group&gt;">
					<g id="&lt;Group&gt;">
						<path id="&lt;Path&gt;" class="s2" d="m164.7 428.1c-1.6-20.4-10.4-39-16-58.4-1.8-6.5-3.5-13.2-4.2-19.9-0.7-5.9-0.9-12.8 2.4-18 2.4-3.9 7.4-7.4 11.9-4.2 4.3 3 6.5 8.8 8.3 13.5 5 13.1 6.5 27 6.7 40.8 0.1 12.3-0.9 24.6 0.1 36.8q-0.5 0-1 0c0-10.4 0.3-20.9 1.5-31.3 0.8-6.7 1.8-13.4 3.3-20q1.2-5.5 2.7-10.8 0.7-2.6 1.4-5.1c0.3-0.9 1.6-2.1 2.1-2.9 1.4-2.2 2.3-2.9 5-3.2 2-0.2 4.4-0.2 6.2 1 2.6 1.6 3.5 3.8 4.3 6.7 0.8 3.2 1.4 6.5 1.5 9.8 0.6 15.1-4.9 29.4-9.9 43.3-3.4 9.3-8.1 18.1-11.9 27.2-0.2 0.6-1.2 0.3-0.9-0.3q0.9-2.1 1.8-4.2 3.2-7.3 6.5-14.4c2.7-5.9 4.8-12 6.9-18.1 5-14.4 9.5-30.6 4.2-45.7-1.4-4-6.1-5-9.8-4.1-2.5 0.7-4.8 4.4-5.5 6.9-2 6.8-3.7 13.7-5 20.7-2.6 14.7-3.4 29.6-3.4 44.5 0 0.7-0.9 0.7-1 0-0.9-10.6-0.1-21.3-0.1-31.9 0-14.2-0.8-28.6-5.4-42.1-1.3-3.6-2.7-7.1-4.5-10.5-1.3-2.5-3.2-5.7-6.2-6.6-8.9-2.3-11.7 10.3-11.6 16.5 0.2 14.4 5.4 28.7 10.1 42.1 4.6 13.7 9.3 27.4 10.5 41.9 0 0.6-1 0.6-1 0z"/>
					</g>
					<g id="&lt;Group&gt;">
						<path id="&lt;Path&gt;" class="s2" d="m164.6 427.9c-0.2-2.7-0.5-5.4-1.1-8q0.5-0.1 1-0.1c0.1 2.7 0.5 5.3 0.9 8 0.1 0.6-0.8 0.9-0.9 0.2-0.5-2.7-0.9-5.4-1-8.2-0.1-0.6 0.8-0.7 1-0.2 0.5 2.8 0.8 5.5 1.1 8.3 0.1 0.6-0.9 0.6-1 0z"/>
					</g>
					<g id="&lt;Group&gt;">
						<path id="&lt;Path&gt;" class="s2" d="m151 428.5c-3.4-8.8-9.8-15.9-16.2-22.7-8-8.4-16.2-17.4-19.2-29-1-4-1.7-10 2.4-12.7 3.2-2.2 7.3-0.9 10.4 0.8 9.6 5.3 16.7 15 22.3 24.1 7.3 11.7 12.5 24.7 14.7 38.3 0.1 0.7-0.9 0.9-1 0.3-0.5-3.5-1.3-7.1-2.2-10.5-4-14-11-27.2-20.2-38.5-3.3-4.1-6.8-8.1-11.2-11-3.4-2.3-10.3-6.3-13.5-1.4-3.7 5.6 0 13.6 2.7 18.9 2.8 5.6 6.8 10.5 11 15.2 7.8 8.6 16.7 16.8 20.9 28 0.3 0.6-0.7 0.8-0.9 0.2z"/>
					</g>
					<g id="&lt;Group&gt;">
						<path id="&lt;Path&gt;" class="s2" d="m191.9 353.5c-3.6 5.6-4.8 12.1-5.4 18.6-0.6 6.1-1.1 12.1-2.3 18.1-1.2 6.4-3.4 12.4-4.5 18.7q-1.8 10.1-4.3 20.1c-0.1 0.7-1.1 0.4-0.9-0.2 1.7-7 3.1-14 4.4-21 1.2-6.7 3.6-13 4.7-19.7 2.1-11.6 0.8-24.8 7.4-35.1 0.4-0.6 1.2-0.1 0.9 0.5z"/>
					</g>
					<g id="&lt;Group&gt;">
						<path id="&lt;Path&gt;" class="s2" d="m154.6 337.9c0.5 8.4 3.5 16.4 5.3 24.5 1.8 7.9 3.4 15.8 4.9 23.8q2.5 12.4 5 24.8c1.4 7.4 2.6 14.9 2.6 22.5 0 0.6-1 0.6-1 0 0-8.5-1.4-16.8-3.2-25-1.7-8-3.1-16-4.7-24-1.7-8.2-3.2-16.5-5.2-24.6-1.7-7.3-4.3-14.4-4.7-22-0.1-0.6 0.9-0.6 1 0z"/>
					</g>
					<g id="&lt;Group&gt;">
						<path id="&lt;Path&gt;" class="s2" d="m129.4 378.9c7.8 7.4 14.2 16.1 20 25.2 3.1 4.7 5.9 9.6 8.5 14.5 2.6 4.6 4 9.6 5.9 14.5 0.2 0.6-0.7 0.9-1 0.3-2.1-5.5-3.7-10.9-6.6-16-2.6-4.5-5.2-9.2-8.1-13.6-5.7-8.6-11.8-17-19.4-24.2-0.5-0.4 0.3-1.1 0.7-0.7z"/>
					</g>
					<g id="&lt;Group&gt;">
						<path id="&lt;Path&gt;" class="s2" d="m130.6 392.2c6.1 4.1 12.9 7.4 18.7 12 0.5 0.4-0.2 1.1-0.7 0.7-5.8-4.5-12.4-7.7-18.5-11.8-0.5-0.4 0-1.2 0.5-0.9z"/>
					</g>
					<g id="&lt;Group&gt;">
						<path id="&lt;Path&gt;" class="s2" d="m147.7 391.8c2.1 2.8 3.4 6.4 4.7 9.7 1.6 4.4 2.7 9 3.8 13.6 0.2 0.6-0.8 0.9-1 0.3-1-4.4-2-8.8-3.6-13-1.2-3.4-2.6-7.2-4.8-10.1-0.4-0.5 0.5-1 0.9-0.5z"/>
					</g>
					<g id="&lt;Group&gt;">
						<path id="&lt;Path&gt;" class="s2" d="m180.7 380.7c0.4 4.2 2.4 8 2.6 12.3 0 0.6-1 0.6-1 0-0.2-4.3-2.2-8.1-2.6-12.3 0-0.7 1-0.7 1 0z"/>
					</g>
					<g id="&lt;Group&gt;">
						<path id="&lt;Path&gt;" class="s2" d="m161.2 345.8c-1.4 4.3-1.2 9-1.8 13.4-0.1 0.7-1.1 0.7-1 0 0.6-4.5 0.4-9.3 1.8-13.7 0.2-0.6 1.2-0.3 1 0.3z"/>
					</g>
					<g id="&lt;Group&gt;">
						<path id="&lt;Path&gt;" class="s2" d="m153.1 363.2c2.6 3.6 4.9 7.4 7.3 11 1.7 2.5 3 4.7 3.6 7.7 0.2 0.6-0.8 0.9-0.9 0.3-0.8-3.5-2.5-6.2-4.6-9-2.2-3-4-6.4-6.2-9.5-0.4-0.5 0.5-1 0.8-0.5z"/>
					</g>
					<g id="&lt;Group&gt;">
						<path id="&lt;Path&gt;" class="s2" d="m169.3 376.1c-1 6.1-2 12.1-2.6 18.3 0 0.6-1 0.6-1 0 0.6-6.2 1.6-12.4 2.6-18.6 0.1-0.6 1.1-0.3 1 0.3z"/>
					</g>
					<g id="&lt;Group&gt;">
						<path id="&lt;Path&gt;" class="s2" d="m195.7 360.2c-2.5 6.6-6.8 12.3-9.7 18.7-0.3 0.5-1.2 0-0.9-0.6 2.9-6.2 7.1-11.9 9.6-18.4 0.2-0.6 1.2-0.3 1 0.3z"/>
					</g>
				</g>
				<g id="&lt;Group&gt;">
					<g id="&lt;Group&gt;">
						<path id="&lt;Path&gt;" class="s2" d="m550.7 444c-2.3-5.6-5.5-10.6-10.1-14.7-2.3-2.1-5-3.8-7.3-5.9-2-2-3.8-4.3-5.3-6.6-3.7-5.7-7.5-11.5-10.4-17.6-2.8-5.9-3-12-2.6-18.5 0.1-0.4 0.4-0.5 0.8-0.4 2.3 1 3.9 2.6 5.7 4.2 2.3 2 5 3.5 7.4 5.4 4.2 3.2 8.1 7.2 11.3 11.4 3.6 4.7 6.1 10.1 8.5 15.4 2 4.7 3.7 10 6.7 14.1q-0.5 0.2-0.9 0.4c-3.7-10.6-5.3-22.2-4.6-33.4 0.5-8.8 1.2-18.9 5.8-26.7 0.1-0.3 0.7-0.3 0.8 0 1.2 2.3 1.5 4.8 2 7.4 0.6 2.7 1.5 5.3 2.5 8 2.2 6 3.5 12.5 4.7 18.8 1 5.9 1.3 11.7 0.4 17.6-0.9 6.2-2.6 12.3-3.9 18.5q-0.4-0.2-0.9-0.4c2.4-4.8 4.7-9.8 6.4-14.9 1.4-4.2 2.4-8.5 4.4-12.5 2.9-5.8 7.1-10.1 13-12.6 7.9-3.2 23.3-5.9 25.2 5.9 0.1 0.5-0.3 0.7-0.7 0.6-13.3-5.7-21.6 10.8-27.9 19.5-3.7 5.2-8.2 9.9-12 15.1-1.9 2.6-6.5 6-9.8 5.6-0.7 0-0.7-1 0-1 2.5 0.3 5.9-2.2 7.7-3.8 2-1.8 3.5-4.3 5.2-6.4 4.3-5.2 8.2-10.4 12-16 5.5-8.2 14.2-18.6 25.3-13.9q-0.4 0.3-0.8 0.6c-1.9-11.9-18.6-8.1-25.9-4.3-6.2 3.2-10 9-12.2 15.5-1.5 4-2.5 8.2-4.1 12.2-1.5 3.7-3.2 7.3-4.9 10.9-0.3 0.5-1.1 0.1-0.9-0.4 1.2-5.9 2.8-11.6 3.7-17.6 1-6.4 0.7-12.4-0.5-18.9-1.1-6-2.3-12.1-4.5-17.9-1-2.6-1.9-5.2-2.5-7.9-0.4-2.5-0.7-5-1.8-7.2q0.4 0 0.8 0c-2.4 4.1-3.5 8.8-4.2 13.4-0.7 4.8-1.3 9.7-1.5 14.5-0.3 10.7 1.1 21.4 4.7 31.5 0.2 0.5-0.7 0.8-1 0.3-2.8-3.9-4.4-8.9-6.3-13.3-2.2-5-4.5-10.3-7.8-14.8-3.5-4.8-7.9-9.4-12.7-13-2.1-1.5-4.3-2.8-6.3-4.5-1.9-1.7-3.7-3.5-6.1-4.5q0.3-0.2 0.7-0.5c-0.2 3.7-0.4 7.4 0.2 11 0.6 3.6 2.1 6.9 3.9 10.1 3.1 5.5 6.3 11.2 10 16.3 3.8 5.2 9.4 8.3 13.7 13 3.5 3.7 6 8 7.9 12.6 0.2 0.6-0.7 0.9-1 0.3z"/>
					</g>
					<g id="&lt;Group&gt;">
						<path id="&lt;Path&gt;" class="s2" d="m544 444.9c-2.8-4.6-5.2-9.5-8.1-14-3.1-4.5-6.9-9.5-12.3-11.3-13.2-4.6-24.6 5.1-32.5 14.5q-0.3-0.4-0.5-0.9c8.7-2.5 19-3.1 27.5 0.6 4.6 1.9 7.8 5.5 11.1 9 1.4 1.5 2.8 2.9 4 4.6 1.3 1.7 2.8 4.1 5 4.6 0.6 0.2 0.4 1.1-0.3 1-3.3-0.8-4.8-4.6-7-6.9-3.2-3.5-6.4-7.6-10.5-10.1-8.6-5.1-20.3-4.5-29.5-1.8-0.6 0.1-0.8-0.5-0.5-0.8 4.3-5.1 9.1-10.3 15.3-13.2 5.4-2.6 12.4-3.8 18.1-1.6 10.9 4.2 15.4 16.6 21.1 25.8 0.3 0.5-0.5 1-0.9 0.5z"/>
					</g>
					<g id="&lt;Group&gt;">
						<path id="&lt;Path&gt;" class="s2" d="m530.6 400.4c4.3 9 12.2 15.4 17.3 23.9 2.5 4.2 5.2 8.7 6.8 13.4 1.6 4.5 0.8 9.4 0.8 14.1 0 0.6-1 0.6-1 0 0-5.6 0.8-10.9-1.6-16-2-4.2-4.2-8.5-6.8-12.4-5.1-7.7-12.3-14-16.4-22.5-0.2-0.6 0.6-1.1 0.9-0.5z"/>
					</g>
					<g id="&lt;Group&gt;">
						<path id="&lt;Path&gt;" class="s2" d="m516.5 425.8c6.8 3.6 14.1 7.4 19 13.6 1.7 2.2 3.3 4.4 5 6.7 0.4 0.5 3.1 4.9 4 4.8 0.6-0.1 0.6 0.9 0 1-1.2 0.1-2.7-2.5-3.2-3.2-1.9-2.4-3.7-4.8-5.5-7.3-5.1-6.7-12.4-10.8-19.8-14.8-0.5-0.3 0-1.1 0.5-0.8z"/>
					</g>
					<g id="&lt;Group&gt;">
						<path id="&lt;Path&gt;" class="s2" d="m558.5 399.2c0.1 5 1.7 9.8 1.9 14.8 0.3 5-0.4 9.9-0.9 15-1 9.2-0.8 18.7-3.3 27.8-0.1 0.5-1 0.4-1-0.2q0-0.5 0-1.1c0-0.6 1-0.6 1 0q0 0.6 0 1.1-0.5 0-1-0.1c2.7-9.4 2-19 3.4-28.6 0.8-5.1 1.3-10.5 0.7-15.8-0.5-4.3-1.7-8.5-1.8-12.9 0-0.7 1-0.7 1 0z"/>
					</g>
					<g id="&lt;Group&gt;">
						<path id="&lt;Path&gt;" class="s2" d="m590.5 406.3c-8.4 5.4-14.1 15-18.8 23.6-3.6 6.8-7.5 14.5-15 17.8-0.6 0.2-1.1-0.6-0.5-0.9 8.4-3.7 12.1-12.9 16.3-20.4 4.3-7.7 9.9-16.1 17.5-20.9 0.6-0.4 1.1 0.5 0.5 0.8z"/>
					</g>
				</g>
			</g>
		</g>
		<g id="&lt;Group&gt;">
			<g id="&lt;Group&gt;">
				<path id="&lt;Path&gt;" class="s2" d="m381.8 241.2c0 5.3-4.3 9.7-9.6 9.7-5.4 0-9.7-4.4-9.7-9.7v-6.7c0-5.3 4.3-9.6 9.7-9.6 5.3 0 9.6 4.3 9.6 9.6z"/>
				<path id="&lt;Compound Path&gt;" fill-rule="evenodd" class="s2" d="m455.8 385.3q-0.3 3.6-0.3 3.6l-136.9-0.9-6.2-22.4c13.3-4.7 30.4-4.4 35.4-26 5-21.5 16.2-44.5 26-50.4 9.7-5.9 36-16.2 64-3.5 28 12.6 39.5 47.7 42.2 60.7 2.6 13 11.5 36.9-24.2 38.9zm-77.9-0.8c-0.3-0.9-0.6-8-3.1-21.4-5-0.6-29.3 17.7-34.8 17.7 1.5 11 38.2 4.5 37.9 3.7z"/>
				<path id="&lt;Path&gt;" class="s3" d="m419.1 293.8c-11.4 28.3-5.9 77.9-3.2 95.8q-14.3 0.8-23.9 0c-12.4-34-5.2-85.8-3.4-94.2q19.1-1.4 30.5-1.6z"/>
				<path id="&lt;Path&gt;" class="s3" d="m428.7 281.8c-2.9 14.8-16.6 23.7-27.1 13.8-1.5 3.2-9.8 8.5-14.3 2-4.4-6.4-2.1-17 7.6-17.5 17.1-2.7 33.8 0.5 33.8 1.7z"/>
				<path id="&lt;Path&gt;" class="s2" d="m422.6 226.7c-0.4-9.8-10.5-28.5-34.4-27.4q-17 1.3-19 17.4-0.6 1.8-3.7 5.6c-0.9-7.5 3.9-27.5 25.4-28.1 24.2-0.6 35.7 18.3 36.2 31.9q-2 3.2-4.5 0.6z"/>
				<path id="&lt;Path&gt;" class="s4" d="m400.7 274.9q-11.3 2.9-36.9 6.4c-4.3-8.7-1.9-18.2 3.8-28.4 4-7.2 2.8-11.3-1.3-20.6-4.2-9.2 0.7-18.5 8.9-24.1q15.6-1.1 25.5 66.7z"/>
				<path id="&lt;Path&gt;" class="s5" d="m413.2 254.8q6.4 19.1 7 27.2c0.5 7.4-24 12.3-25.7 4.6q-1.8-9.3-4.5-25"/>
				<path id="&lt;Path&gt;" class="s6" d="m397.2 272.9c-1.8 0.1-3.6-0.1-5.3-0.4q-1.1-6-1.9-10.9l23.2-6.8 2.1 8c-4 5.8-10.5 9.8-18.1 10.1z"/>
				<path id="&lt;Path&gt;" class="s5" d="m371.5 221.2c-0.5-12.7 9.3-23.5 22-24 12.7-0.6 23.5 9.2 24.1 21.9l1 24.4c0.6 12.7-9.2 23.5-21.9 24-12.8 0.6-23.5-9.2-24.1-22z"/>
				<g id="&lt;Group&gt;">
					<path id="&lt;Path&gt;" class="s4" d="m402 222.1c-2.2-1.3-5.4-2-7.7-0.8-1.2 0.6-2.2-1.1-1-1.7 3-1.5 6.8-0.8 9.7 0.7 1.1 0.6 0.1 2.4-1 1.8z"/>
				</g>
				<g id="&lt;Group&gt;">
					<path id="&lt;Path&gt;" class="s4" d="m373.8 222.1c1.9-1.8 4.6-2.4 7.1-1.9 1.3 0.3 0.8 2.2-0.5 2-1.8-0.4-3.8 0.1-5.2 1.4-0.9 0.8-2.3-0.6-1.4-1.5z"/>
				</g>
				<g id="&lt;Group&gt;">
					<path id="&lt;Path&gt;" class="s4" d="m389 241.3q-0.3 0-0.5-0.2l-4.5-3.9c-0.2-0.2-0.3-0.4-0.3-0.7 0.1-0.2 0.2-0.4 0.4-0.6l4.5-2.5c0.4-0.2 0.8-0.1 1.1 0.3 0.2 0.4 0 0.8-0.3 1l-3.6 2 3.7 3.3c0.3 0.3 0.3 0.7 0 1.1q-0.2 0.2-0.5 0.2z"/>
				</g>
				<g id="&lt;Group&gt;">
					<path id="&lt;Path&gt;" class="s4" d="m390.6 247.7c-1.2 0-2.4-0.4-3.3-1-0.3-0.2-0.4-0.7-0.2-1 0.2-0.4 0.7-0.5 1-0.2 1.3 0.8 3.5 0.9 4.9 0.1 0.9-0.5 1.9-1.5 1.8-3.6 0-0.4 0.3-0.7 0.8-0.7 0.4-0.1 0.7 0.3 0.7 0.7 0.1 2.2-0.8 3.9-2.5 4.9-1 0.5-2.1 0.8-3.2 0.8z"/>
				</g>
				<path id="&lt;Path&gt;" class="s7" d="m395.6 229.4c1.5-0.6 3.1 0.2 3.6 1.6 0.6 1.5-0.1 3.1-1.6 3.6-1.4 0.6-3.1-0.1-3.6-1.6-0.5-1.4 0.2-3.1 1.6-3.6z"/>
				<path id="&lt;Path&gt;" class="s7" d="m378.9 230.4c1.4-0.5 3.1 0.2 3.6 1.6 0.5 1.5-0.2 3.1-1.6 3.6-1.5 0.6-3.1-0.1-3.6-1.6-0.6-1.4 0.1-3.1 1.6-3.6z"/>
				<g id="&lt;Group&gt;">
					<path id="&lt;Path&gt;" class="s7" d="m378 233.3q-0.2 0-0.4-0.1l-2.7-1.6c-0.3-0.2-0.4-0.6-0.2-0.9 0.2-0.3 0.6-0.4 0.9-0.2l2.7 1.6c0.3 0.2 0.4 0.6 0.2 0.9-0.1 0.2-0.3 0.3-0.5 0.3z"/>
				</g>
				<g id="&lt;Group&gt;">
					<path id="&lt;Path&gt;" class="s7" d="m397.8 232.4c-0.2 0-0.4-0.1-0.5-0.3-0.2-0.3-0.2-0.7 0.1-0.9l2.9-2c0.3-0.2 0.7-0.2 0.9 0.1 0.2 0.3 0.2 0.8-0.1 1l-2.9 1.9q-0.2 0.2-0.4 0.2z"/>
				</g>
				<path id="&lt;Path&gt;" class="s4" d="m453.6 272.6c-13.2 2.3-27.7 3.5-40.6 5q-5.5-8.7-1.6-17.8c4-9.2 2-13.2-1.1-19.2-4.1-8.3 6.9-14.2-3.9-28.1-5.3-6.9-19.4-11.8-33.2-2.4 12.4-30.3 45.6-16.9 52.1-2 4.2 9.8 12.3 9.5 14.1 16.4 2.1 7.8-2.7 13 1.2 21.2 3.8 8.2 13 4.7 13 26.9z"/>
				<path id="&lt;Path&gt;" class="s5" d="m390.6 359.9q3.7 10.6 2.5 16.7c-9.8-3.3-20.6-1.2-25.1 1.4-4.5 2.5-11.6 3.5-13 1.3-5.5 2.1-9.3 0.8-6.6-0.3-4.1 1.3-7.6-1.8-1.7-2.2-2.3-1-0.2-2.2 9.9-7.5 10-5.3 14.3-8.6 25.5-9.6z"/>
				<path id="&lt;Path&gt;" class="s2" d="m389.3 359.8c6-1.3 22.9-2.7 32.9-2.1q0.6 7.9-3.7 23.8l-26.7-5.9q1.3-8.4-2.5-15.8z"/>
				<g id="&lt;Group&gt;">
					<path id="&lt;Path&gt;" class="s8" d="m388.5 359c12.3-1.8 24.8-1.7 37.3-2.1 3.5-0.1 7-0.1 10.4-0.7 2.5-0.3 5-0.8 7.5-0.9 5.1-0.1 10.8 0.9 15.6 2.3 0.7 0.2 0.4 1.2-0.2 1-5.3-1.6-11.7-2.8-17.2-2.2-5.7 0.7-11.3 1.4-17.1 1.5-12 0.4-24.1 0.3-36 2.1-0.7 0.1-1-0.9-0.3-1z"/>
				</g>
				<g id="&lt;Group&gt;">
					<path id="&lt;Path&gt;" class="s8" d="m443 329.1q1.7 12.6 1.8 25.3c0 0.6-1 0.6-1 0q-0.1-12.6-1.8-25.1c-0.1-0.6 0.9-0.9 1-0.2z"/>
				</g>
				<g id="&lt;Group&gt;">
					<path id="&lt;Path&gt;" class="s8" d="m391 375.1c3.2 0 6.2 1.2 9.2 2.1 3.6 1.1 7.3 2.2 10.9 3.3 8.1 2.3 16.5 4.1 24.9 4.7 14 1.1 31.6 1.1 42.3-9.6 0.5-0.4 1.2 0.3 0.7 0.8-10.2 10.1-26.6 10.8-40.2 10-8.5-0.5-17.1-1.9-25.3-4.2-4.1-1.1-8.1-2.5-12.1-3.6-3.5-0.9-6.8-2.5-10.4-2.5-0.7 0-0.7-1 0-1z"/>
				</g>
				<g id="&lt;Group&gt;">
					<path id="&lt;Path&gt;" class="s8" d="m372 319.3c-1.1 3.4-0.6 7.5-0.5 11 0.2 3.5 0.4 7 0.6 10.5 0.1 3.4 0.2 6.9 0.6 10.4 0.3 3.1 1.5 6.1 1.7 9.3 0 0.6-1 0.6-1 0-0.2-3.5-1.5-6.8-1.8-10.3-0.3-3.7-0.4-7.5-0.6-11.3-0.2-3.8-0.5-7.7-0.6-11.5 0-2.8-0.3-5.7 0.6-8.4 0.2-0.6 1.2-0.3 1 0.3z"/>
				</g>
				<g id="&lt;Group&gt;">
					<path id="&lt;Path&gt;" class="s8" d="m387.1 285.1c-1.2 4.5-2.8 11 2.1 14 4.5 2.8 8.8-0.7 12-3.7 0.2-0.1 0.6-0.2 0.7 0 8 9.8 21.7 1 25-8.6 0.2-0.6 1.1-0.3 0.9 0.3-3 9-15 18-24.1 11.5-1.1-0.8-1.7-2.5-3-1.4-1.2 1.1-2.5 2.2-4 2.9-2.2 1-4.8 1.6-7 0.4-6.2-3.1-5.1-10.1-3.5-15.7 0.1-0.6 1.1-0.3 0.9 0.3z"/>
				</g>
				<g id="&lt;Group&gt;">
					<path id="&lt;Path&gt;" class="s8" d="m354.3 379.3c3.9-0.7 6.8-3.6 10.2-5.4 3.2-1.6 6.6-2.7 9.8-4.1 0.6-0.2 0.9 0.7 0.3 1-4 1.6-8.1 2.9-11.7 5.2-2.7 1.7-5.2 3.7-8.4 4.2-0.6 0.1-0.9-0.8-0.2-0.9z"/>
				</g>
				<g id="&lt;Group&gt;">
					<path id="&lt;Path&gt;" class="s8" d="m346.9 379.3c8-3.4 15.4-8.2 23.7-11.1 0.6-0.2 0.9 0.8 0.3 1-8.2 2.9-15.6 7.6-23.5 11-0.6 0.2-1.1-0.6-0.5-0.9z"/>
				</g>
				<g id="&lt;Group&gt;">
					<path id="&lt;Path&gt;" class="s8" d="m345.1 376.9c3.2-1.9 6.7-2.7 10-4.5 3.2-1.7 6.4-3.4 9.7-4.9 0.6-0.2 1.1 0.6 0.5 0.9-3.3 1.5-6.5 3.2-9.7 4.9-3.3 1.7-6.8 2.6-10 4.5-0.5 0.3-1-0.5-0.5-0.9z"/>
				</g>
				<g id="&lt;Group&gt;">
					<path id="&lt;Path&gt;" class="s8" d="m398.4 303.7c0.2 0.8 1.3 0.7 1.8 0.2 0.6-0.7-1.2-1.4-1.7-0.7-0.3 0.5-1.2 0-0.8-0.5 0.6-0.9 1.8-1 2.7-0.5 0.7 0.4 1.2 1.3 0.7 2.1-0.8 1.3-3.3 1.4-3.6-0.4-0.1-0.6 0.8-0.9 0.9-0.2z"/>
				</g>
				<g id="&lt;Group&gt;">
					<path id="&lt;Path&gt;" class="s8" d="m397.1 311.6c-0.1 0.7 1 0.5 1.4 0.3 0.1-0.1 0.5-0.7 0.2-0.9-0.3-0.2-0.8-0.1-1.2 0.1-0.6 0.2-0.9-0.8-0.3-1 0.8-0.2 1.8-0.4 2.3 0.4 0.6 0.6 0.2 1.6-0.4 2.1-1.2 1-3.2 0.5-3-1.3 0.1-0.6 1.1-0.3 1 0.3z"/>
				</g>
				<g id="&lt;Group&gt;">
					<path id="&lt;Path&gt;" class="s8" d="m396.5 320.9c0.1 0.6 1.4-0.1 1.4-0.5 0-0.6-1.1-1.2-1.2-0.4-0.1 0.6-1.1 0.4-1-0.3 0.3-2 3.5-1 3.2 0.9-0.3 1.5-3.3 2.3-3.4 0.3 0-0.6 1-0.6 1 0z"/>
				</g>
				<g id="&lt;Group&gt;">
					<path id="&lt;Path&gt;" class="s8" d="m377.1 375.6c-0.2 1.4 0 3 0.5 4.3 0.3 0.6-0.7 0.9-0.9 0.3-0.6-1.4-0.8-3.1-0.6-4.6 0-0.6 1-0.6 1 0z"/>
				</g>
				<g id="&lt;Group&gt;">
					<path id="&lt;Path&gt;" class="s8" d="m389.1 359.3c2.1 1.4 2.4 4.1 3 6.5 0.7 3 1.2 6.4-0.1 9.4-0.3 0.6-1.1 0.1-0.9-0.5 1.2-2.6 0.7-6 0-8.6-0.5-2.1-0.7-4.7-2.5-6-0.6-0.4-0.1-1.2 0.5-0.8z"/>
				</g>
				<g id="&lt;Group&gt;">
					<path id="&lt;Path&gt;" class="s8" d="m365.4 247.3c-1.4 10.7 15.6 10.3 22.1 10 0.7 0 0.7 1 0 1-7.4 0.4-24.6 0.3-23.1-11.3 0.1-0.7 1.1-0.4 1 0.3z"/>
				</g>
				<ellipse id="&lt;Path&gt;" class="s2" cx="389.7" cy="257.7" rx="3.7" ry="3"/>
				<path id="&lt;Path&gt;" class="s2" d="m427.1 226.1q-2 3.2-4.5 0.6c-0.4-9.8-10.5-28.5-34.4-27.4-9 0.7-13.8 5.5-16.3 9.9-1.1-0.5-2.3-0.9-3.5-1 3.4-7 10.2-13.7 22.5-14 24.2-0.6 35.7 18.3 36.2 31.9z"/>
				<path id="&lt;Path&gt;" class="s2" d="m434.8 241.2c0 5.3-4.3 9.7-9.6 9.7-5.3 0-9.6-4.4-9.6-9.7v-6.7c0-5.3 4.3-9.6 9.6-9.6 5.3 0 9.6 4.3 9.6 9.6z"/>
				<g id="&lt;Group&gt;">
					<path id="&lt;Path&gt;" class="s8" d="m433.6 240.2c-0.3 4.9-5.8 9-10.4 5.9-3.7-2.4-3.6-6.4-3.4-10.3 0.2-5 5.7-9 10.3-6 3.8 2.5 3.5 6.4 3.5 10.4 0 0.6-1 0.6-1 0 0-1.9 0.4-4.5-0.4-6.3-2.3-5.9-11.4-4.8-11.4 1.9 0 1.9-0.4 4.5 0.3 6.3 2.4 6.1 11.1 4.6 11.5-1.9 0-0.7 1-0.7 1 0z"/>
				</g>
			</g>
			<g id="&lt;Group&gt;">
				<path id="&lt;Path&gt;" class="s9" d="m319.8 380.1c5.5 0 73.3 0 76.9 0 3.5 0 4.3 7.1-1.6 7.1q-5.9 0-176.4 0c-5.3-10.6-29.1-75.5-31.4-81.6-2.4-6.1-0.2-13.2 9.4-13.2 9.6 0 60.6 0 67.7 0 7 0 14.9 1.2 19.8 12q4.9 10.8 35.6 75.7z"/>
				<path id="&lt;Path&gt;" class="s10" d="m396.6 387q-0.2 0.1-0.5 0.1-0.5 0.1-1 0.1c-0.6 0-2.8 0-6.3 0-11.4 0-36.5 0-64 0q-5.3-0.1-8.6-0.2l-2.7-6.9q-30.7-64.9-35.6-75.7c-4.9-10.8-12.8-12-19.8-12 2.9 0 5.1 0 6.3 0 7 0 14.9 1.2 19.8 12 4.2 9.3 27.2 58 33.8 72 0.8 1.6 1.3 2.7 1.6 3.3q0.1 0.2 0.1 0.3 0.1 0.1 0.1 0.1c4.6 0 52.9 0 70.6 0 3.4 0 5.7 0 6.3 0 2.9 0 3.9 4.8 0.9 6.5q0 0 0 0-0.3 0.2-0.7 0.3-0.1 0.1-0.3 0.1z"/>
				<path id="&lt;Path&gt;" class="s11" d="m255.9 340.8c1.9 4.8-0.4 8.7-5.1 8.7-4.8 0-10.3-3.9-12.2-8.7-1.9-4.8 0.4-8.7 5.1-8.7 4.8 0 10.3 3.9 12.2 8.7z"/>
			</g>
			<g id="&lt;Group&gt;">
				<path id="&lt;Path&gt;" class="s12" d="m486.9 445.8c-52.8 2.6-110.2 3.2-165.5 2.5-40.4-0.5-81.4-5.2-111.9-11.6v-44h277.4z"/>
				<path id="&lt;Path&gt;" class="s5" d="m498.4 391.6c0 2.6-2.1 4.8-4.8 4.8h-290.8c-2.7 0-4.8-2.2-4.8-4.8 0-2.6 2.1-4.7 4.8-4.7h290.8c2.7 0 4.8 2.1 4.8 4.7z"/>
			</g>
		</g>
		<g id="&lt;Group&gt;">
			<path id="&lt;Path&gt;" class="s2" d="m152.1 200.5c-6.6-6.3-6.6-11.4 0-11.4 6.6 0 17.3 0 23.9 0 6.6 0 12 5.1 12 11.4 0 6.2 0 16.4 0.1 22.7 0 6.2-5.4 6.2-12 0-6.6-6.3-17.4-16.5-24-22.7z"/>
			<rect id="&lt;Path&gt;" class="s2" x="115.7" y="73.8" width="217.7" height="127.3" rx="38.4"></rect>
			<text id="HELP!
" style="transform: matrix(1,0,0,1,212.233,113.563)" >
				<tspan x="0" y="0" class="t13">HELP!
</tspan>
			</text>
			<path id="&lt;Path&gt;" class="s1" d="m312.8 130.1h-98.3v-6.3h98.3z"/>
			<path id="&lt;Path&gt;" class="s1" d="m299.4 145.7h-84.9v-6.4h84.9z"/>
			<path id="&lt;Path&gt;" class="s1" d="m270.8 161.2h-56.3v-6.4h56.3z"/>
			<path id="&lt;Path&gt;" class="s1" d="m305.5 176.7h-91v-6.4h91z"/>
			<g id="&lt;Group&gt;">
				<path id="&lt;Path&gt;" class="s4" d="m168 185.3c-10.6 0-20.1-4.2-27-11 3-7.2 12.5-11.8 18.3-12.4h17.5c5.1 0 15.3 5.2 18.2 12.4-6.9 6.8-16.4 11-27 11z"/>
				<path id="&lt;Path&gt;" class="s5" d="m179.4 150.1q-0.7 12.3-1.2 19.6c-0.6 6.1-21 4.5-20.2-1.1q1.2-7.8 2.9-21.6"/>
				<path id="&lt;Path&gt;" class="s6" d="m160 153.3l0.9-6.3 18.5 3.1q-0.2 3.8-0.5 8.6-1.9 0.6-4.1 0.8c-5.8 0.4-11.2-2-14.8-6.2z"/>
				<path id="&lt;Path&gt;" class="s5" d="m191.3 136.1c0.7 9.9-6.7 18.4-16.5 19.2-9.8 0.7-18.4-6.7-19.1-16.5l-1.5-18.8c-0.7-9.8 6.7-18.4 16.5-19.1 9.8-0.8 18.4 6.6 19.1 16.4z"/>
				<g id="&lt;Group&gt;">
					<path id="&lt;Path&gt;" class="s4" d="m166.4 120c2-0.4 3.7-1.1 4.9-2.8 0.7-1 2.4 0 1.7 1-1.5 2.1-3.5 3.2-6 3.8-1.3 0.2-1.8-1.7-0.6-2z"/>
				</g>
				<g id="&lt;Group&gt;">
					<path id="&lt;Path&gt;" class="s4" d="m186.6 120c-1.9-0.4-3.2-1.5-4.1-3.1-0.6-1.1 1.1-2.1 1.7-1 0.7 1.2 1.5 1.9 2.9 2.2 1.3 0.2 0.8 2.1-0.5 1.9z"/>
				</g>
				<g id="&lt;Group&gt;">
					<path id="&lt;Path&gt;" class="s4" d="m178.2 134.6q-0.3 0-0.5-0.2c-0.3-0.3-0.3-0.8 0-1.1l2.3-2.6-2.7-1.2c-0.4-0.1-0.6-0.6-0.4-1 0.2-0.3 0.6-0.5 1-0.4l3.7 1.6c0.2 0.1 0.4 0.3 0.4 0.5 0.1 0.2 0 0.5-0.1 0.7l-3.1 3.4q-0.3 0.3-0.6 0.3z"/>
				</g>
				<g id="&lt;Group&gt;">
					<path id="&lt;Path&gt;" class="s4" d="m173.7 142.2c-0.2 0-0.5-0.2-0.6-0.4-0.2-0.3-0.2-0.8 0.2-1 2.9-2.1 5.6-2.9 7.9-2.5 0.4 0.1 0.6 0.5 0.6 0.9-0.1 0.4-0.5 0.6-0.9 0.6-1.9-0.4-4.2 0.4-6.8 2.2q-0.2 0.2-0.4 0.2z"/>
				</g>
				<path id="&lt;Path&gt;" class="s7" d="m173.6 128.5c-0.2 1.1-1.4 1.8-2.6 1.6-1.1-0.3-1.9-1.5-1.6-2.7 0.3-1.1 1.5-1.8 2.7-1.6 1.1 0.3 1.8 1.5 1.5 2.7z"/>
				<path id="&lt;Path&gt;" class="s7" d="m186.6 127.7c-0.3 1.2-1.4 1.9-2.6 1.6-1.2-0.3-1.9-1.5-1.6-2.6 0.3-1.2 1.5-1.9 2.6-1.6 1.2 0.3 1.9 1.4 1.6 2.6z"/>
				<path id="&lt;Path&gt;" class="s5" d="m159.1 134.1c0.8 3.5-1.3 7-4.8 7.8-3.5 0.9-7-1.3-7.8-4.8l-0.5-1.9c-0.8-3.5 1.3-7 4.8-7.9 3.4-0.8 6.9 1.3 7.8 4.8z"/>
				<path id="&lt;Path&gt;" class="s4" d="m149.3 128c-1.5-4.4-8.9-22 2.1-22.6 0.7-6.9 10.3-10.5 22.3-12.9 12.1-2.4 19.6 3.3 18.7 8.9-0.9 5.6-8.3 7.7-14.2 6-1.7 6.1-9.7 4.1-11.5 2.8-1.3 5.9-8.1 7.4-7.3 11.5 0.8 4.1 1.1 8.3 1.3 9.1 0.1 0.9-3.4 2.5-4.1 0.8-0.8-1.6-3.8-4.7-7.3-3.6z"/>
			</g>
			<g id="&lt;Group&gt;">
				<path id="&lt;Path&gt;" class="s8" d="m182.8 223.4c5.1 1 1.9-23 1.8-26.1 0-0.3 0.3-0.5 0.5-0.5q10.4 0.1 20.9 0.1c22.5 0.1 45-0.2 67.5-0.5 7.2-0.1 14.3-0.4 21.4-0.7 7.2-0.4 15.6-1 21.4-5.8 7.6-6.3 10.5-16.7 11.6-26.2 0-0.6 1.1-0.6 1 0-1.4 12.8-6.5 27.4-20.3 31.1-7.2 1.9-14.5 1.8-21.9 2.1-6.9 0.3-13.8 0.5-20.7 0.5-11.3 0-22.5 0.3-33.7 0.4-15.7 0.2-31.5 0.1-47.2 0q0.3-0.3 0.5-0.5c0.1 3.7 4.3 28.5-3 27.1-0.7-0.2-0.4-1.1 0.2-1z"/>
			</g>
			<g id="&lt;Group&gt;">
				<path id="&lt;Path&gt;" class="s8" d="m329.4 120.9c0 12.4 0.6 24.9-0.3 37.3 0 0.7-1 0.7-1 0 0.9-12.4 0.3-24.9 0.3-37.3 0-0.6 1-0.6 1 0z"/>
			</g>
		</g>
		<g id="&lt;Group&gt;">
			<rect id="&lt;Path&gt;" class="s2" x="491" y="191" width="225.7" height="132" rx="39.8"></rect>
			<path id="&lt;Path&gt;" class="s2" d="m536.1 345.8c-6.9 6.5-12.5 6.5-12.4 0 0-6.4 0-17 0-23.5 0-6.5 5.6-11.8 12.4-11.8 6.9 0 18 0 24.8 0 6.9 0 6.9 5.3 0 11.8-6.8 6.5-18 17.1-24.8 23.5z"/>
			<text id="THANKS!
" style="transform: matrix(1,0,0,1,520.193,234.981)" >
				<tspan x="0" y="0" class="t14">THANKS!
</tspan>
			</text>
			<path id="&lt;Path&gt;" class="s1" d="m517.5 245.5h101.9v6.7h-101.9z"/>
			<path id="&lt;Path&gt;" class="s1" d="m517.5 261.6h88v6.7h-88z"/>
			<path id="&lt;Path&gt;" class="s1" d="m517.5 277.7h58.4v6.7h-58.4z"/>
			<g id="&lt;Group&gt;">
				<path id="&lt;Path&gt;" class="s4" d="m642.8 297.7c3-7.6 13.5-12.9 18.9-12.9h18.1c5.9 0.6 15.9 5.3 18.9 12.9-7.1 7-17 11.4-28 11.4-10.9 0-20.8-4.4-27.9-11.4z"/>
				<g id="&lt;Group&gt;">
					<path id="&lt;Path&gt;" class="s5" d="m678.1 269.4q1.8 14.2 3 22.3c0.8 5.9-20.3 7.5-20.9 1.2q-0.6-7.6-1.2-20.3"/>
					<path id="&lt;Path&gt;" class="s6" d="m663.6 282.3q-2.2-0.2-4.2-0.9-0.2-4.9-0.4-8.8l19.1-3.2 0.9 6.5c-3.7 4.3-9.3 6.8-15.4 6.4z"/>
					<path id="&lt;Path&gt;" class="s5" d="m648.1 238.6c0.8-10.2 9.6-17.9 19.8-17.1 10.2 0.8 17.9 9.6 17.1 19.8l-1.5 19.5c-0.7 10.2-9.6 17.9-19.8 17.1-10.2-0.8-17.8-9.6-17.1-19.8z"/>
					<g id="&lt;Group&gt;">
						<path id="&lt;Path&gt;" class="s4" d="m670.3 242.6c-0.8-1.4-2.2-2.3-3.8-2.1-1.2 0.2-1.2-1.8 0-2 2.2-0.2 4.5 1.1 5.5 3.1 0.6 1.1-1.2 2.1-1.7 1z"/>
					</g>
					<g id="&lt;Group&gt;">
						<path id="&lt;Path&gt;" class="s4" d="m650.5 239.6c1.3-1.4 3.7-2.2 5.6-1.7 1.2 0.3 0.7 2.2-0.5 1.9-1.3-0.3-2.9 0.3-3.7 1.2-0.9 0.9-2.3-0.5-1.4-1.4z"/>
					</g>
					<g id="&lt;Group&gt;">
						<path id="&lt;Path&gt;" class="s4" d="m660.2 256.4q-0.4 0-0.6-0.2l-3.2-3.6c-0.2-0.2-0.2-0.4-0.2-0.7 0.1-0.2 0.2-0.4 0.5-0.5l3.8-1.6c0.4-0.2 0.8 0 1 0.4 0.2 0.4 0 0.8-0.4 1l-2.9 1.2 2.5 2.8c0.3 0.3 0.3 0.8 0 1q-0.3 0.2-0.5 0.2z"/>
					</g>
					<g id="&lt;Group&gt;">
						<path id="&lt;Compound Path&gt;" fill-rule="evenodd" class="s4" d="m659.9 266.7q0 0 0 0c-2.1 0-3.5-2.2-4.3-6.7 0-0.2 0-0.4 0.2-0.6 0.2-0.2 0.4-0.3 0.7-0.2 1.2 0.1 2.8 0.3 5.1 0.3 1.2 0 2.5 0 4-0.1 0.3 0 0.6 0.1 0.7 0.3 0.1 0.3 0.2 0.6 0 0.8-2.4 4.2-4.5 6.2-6.4 6.2zm-2.6-5.9c0.6 2.8 1.5 4.4 2.6 4.4 0.6 0 2-0.6 4.4-4.2-2.7 0.1-4.8 0.1-7-0.2z"/>
					</g>
					<path id="&lt;Path&gt;" class="s7" d="m666.5 247.4c1.2-0.3 2.5 0.4 2.8 1.6 0.3 1.3-0.5 2.5-1.7 2.8-1.2 0.3-2.4-0.5-2.7-1.7-0.3-1.2 0.4-2.4 1.6-2.7z"/>
					<path id="&lt;Path&gt;" class="s7" d="m653.1 246.6c1.2-0.3 2.4 0.4 2.7 1.6 0.3 1.3-0.4 2.5-1.6 2.8-1.2 0.3-2.5-0.5-2.8-1.7-0.3-1.2 0.5-2.4 1.7-2.7z"/>
				</g>
				<path id="&lt;Path&gt;" class="s5" d="m680.5 253.9c0.9-3.6 4.5-5.8 8.1-5 3.6 0.9 5.8 4.5 5 8.1l-0.5 2.1c-0.9 3.6-4.6 5.8-8.2 5-3.6-0.9-5.8-4.6-4.9-8.2z"/>
				<path id="&lt;Path&gt;" class="s4" d="m682.6 253.4c-0.8 1.7-4.4 0-4.3-0.8 0.2-0.9 0.6-5.2 1.4-9.5 0.7-4.3-6.2-5.8-7.6-11.9-1.8 1.3-10.2 3.4-11.9-2.9-6.1 1.7-13.8-0.4-14.7-6.2-1-5.9 6.8-11.7 19.3-9.3 12.5 2.5 22.4 6.3 23.2 13.5 11.4 0.5 3.7 18.8 2.1 23.3-3.6-1.1-6.7 2.1-7.5 3.8z"/>
			</g>
			<g id="&lt;Group&gt;">
				<path id="&lt;Path&gt;" class="s8" d="m676.4 319c14.3-0.5 29.6-9.6 32.6-24.4 0.1-0.6 1.1-0.3 1 0.3-3.2 15.2-18.9 24.5-33.6 25.1-0.6 0-0.6-1 0-1z"/>
			</g>
			<g id="&lt;Group&gt;">
				<path id="&lt;Path&gt;" class="s8" d="m664.3 319.1q4 0.1 8 0.2c0.6 0 0.6 1 0 1q-4-0.1-8-0.2c-0.7 0-0.7-1 0-1z"/>
			</g>
			<g id="&lt;Group&gt;">
				<path id="&lt;Path&gt;" class="s8" d="m535.1 341.5c5.3-4.8 10.6-9.4 15.5-14.6 2-2.1 3.8-4.8 6.3-6.4 4.1-2.6 10.3-1.6 14.7-1.6 6.6-0.1 13.1-0.5 19.7-0.5 7.3 0 14.7 0.3 22 0.6 14 0.7 27.9 1.4 41.9-0.1 0.6 0 0.6 1 0 1-13.6 1.4-27.3 0.8-40.9 0.2-7-0.3-14.1-0.7-21.1-0.7-6.5 0-13 0.4-19.6 0.5-3.6 0-7.2-0.1-10.8 0.1-1.8 0.1-3.8 0.3-5.4 1.3-2.6 1.8-4.6 4.8-6.7 7-4.8 4.8-9.8 9.4-14.9 13.9-0.4 0.4-1.2-0.3-0.7-0.7z"/>
			</g>
		</g>
		<g id="&lt;Group&gt;">
			<rect id="&lt;Path&gt;" class="s12" x="398.7" y="99.7" width="235.6" height="61" rx="20.8"></rect>
			<g id="&lt;Group&gt;">
				<g id="&lt;Group&gt;">
					<path id="&lt;Path&gt;" class="s5" d="m431.1 114.2c0.7-1.4 1.9-1.4 2.6 0l2.3 4.8c0.8 1.4 2.7 2.8 4.3 3.1l5.3 0.7c1.6 0.3 2 1.4 0.8 2.6l-3.8 3.6c-1.2 1.2-1.9 3.5-1.6 5.1l0.9 5.2c0.2 1.6-0.7 2.3-2.2 1.5l-4.7-2.4c-1.4-0.8-3.8-0.8-5.3 0l-4.6 2.4c-1.5 0.8-2.5 0.1-2.2-1.5l0.9-5.2c0.3-1.6-0.4-3.9-1.6-5.1l-3.8-3.6c-1.2-1.2-0.8-2.3 0.8-2.6l5.2-0.7c1.7-0.3 3.6-1.7 4.3-3.1z"/>
				</g>
				<g id="&lt;Group&gt;">
					<path id="&lt;Path&gt;" class="s5" d="m472.7 114.2c0.8-1.4 2-1.4 2.7 0l2.3 4.8c0.7 1.4 2.7 2.8 4.3 3.1l5.2 0.7c1.7 0.3 2 1.4 0.8 2.6l-3.7 3.6c-1.2 1.2-1.9 3.5-1.7 5.1l0.9 5.2c0.3 1.6-0.7 2.3-2.1 1.5l-4.7-2.4c-1.4-0.8-3.8-0.8-5.3 0l-4.7 2.4c-1.4 0.8-2.4 0.1-2.1-1.5l0.9-5.2c0.3-1.6-0.5-3.9-1.7-5.1l-3.7-3.6c-1.2-1.2-0.8-2.3 0.8-2.6l5.2-0.7c1.6-0.3 3.6-1.7 4.3-3.1z"/>
				</g>
				<g id="&lt;Group&gt;">
					<path id="&lt;Path&gt;" class="s5" d="m514.4 114.2c0.7-1.4 1.9-1.4 2.7 0l2.3 4.8c0.7 1.4 2.6 2.8 4.3 3.1l5.2 0.7c1.6 0.3 2 1.4 0.8 2.6l-3.8 3.6c-1.1 1.2-1.9 3.5-1.6 5.1l0.9 5.2c0.3 1.6-0.7 2.3-2.2 1.5l-4.6-2.4c-1.5-0.8-3.9-0.8-5.3 0l-4.7 2.4c-1.5 0.8-2.4 0.1-2.1-1.5l0.8-5.2c0.3-1.6-0.4-3.9-1.6-5.1l-3.8-3.6c-1.1-1.2-0.8-2.3 0.9-2.6l5.2-0.7c1.6-0.3 3.5-1.7 4.3-3.1z"/>
				</g>
				<g id="&lt;Group&gt;">
					<path id="&lt;Path&gt;" class="s5" d="m556.1 114.2c0.7-1.4 1.9-1.4 2.6 0l2.3 4.8c0.8 1.4 2.7 2.8 4.3 3.1l5.3 0.7c1.6 0.3 2 1.4 0.8 2.6l-3.8 3.6c-1.2 1.2-1.9 3.5-1.6 5.1l0.9 5.2c0.2 1.6-0.7 2.3-2.2 1.5l-4.7-2.4c-1.4-0.8-3.8-0.8-5.3 0l-4.6 2.4c-1.5 0.8-2.5 0.1-2.2-1.5l0.9-5.2c0.3-1.6-0.4-3.9-1.6-5.1l-3.8-3.6c-1.2-1.2-0.8-2.3 0.8-2.6l5.2-0.7c1.7-0.3 3.6-1.7 4.3-3.1z"/>
				</g>
				<g id="&lt;Group&gt;">
					<path id="&lt;Path&gt;" class="s5" d="m597.7 114.2c0.8-1.4 2-1.4 2.7 0l2.3 4.8c0.7 1.4 2.7 2.8 4.3 3.1l5.2 0.7c1.7 0.3 2 1.4 0.8 2.6l-3.7 3.6c-1.2 1.2-1.9 3.5-1.7 5.1l0.9 5.2c0.3 1.6-0.7 2.3-2.1 1.5l-4.7-2.4c-1.4-0.8-3.8-0.8-5.3 0l-4.7 2.4c-1.4 0.8-2.4 0.1-2.1-1.5l0.9-5.2c0.3-1.6-0.5-3.9-1.7-5.1l-3.7-3.6c-1.2-1.2-0.8-2.3 0.8-2.6l5.2-0.7c1.6-0.3 3.6-1.7 4.3-3.1z"/>
				</g>
			</g>
			<g id="&lt;Group&gt;">
				<path id="&lt;Path&gt;" class="s8" d="m502.9 156.6c3.3 0 6.6-0.3 9.9-0.3 0.6 0 0.6 1 0 1-3.3 0-6.6 0.3-9.9 0.3-0.7 0-0.7-1 0-1z"/>
			</g>
			<g id="&lt;Group&gt;">
				<path id="&lt;Path&gt;" class="s8" d="m517.3 156.3c11.1-0.3 22.2 0.2 33.3 0.1 11.1-0.2 22.1-1.3 33.1-1.1 5.6 0.1 11.1 0.3 16.7 0.4 4.6 0.1 9.4 0.5 14.1 0.1 3.1-0.3 6.7-0.9 9-3.1 2.6-2.5 3.4-6 3.7-9.4 0-0.7 1-0.7 1 0-0.5 6.2-3.2 11.5-9.8 12.9-4 0.9-8.1 0.7-12.1 0.6-5.9 0-11.8-0.3-17.7-0.4-6.1-0.2-12.3-0.3-18.5 0-5.8 0.3-11.6 0.9-17.5 0.9-11.8 0.2-23.5-0.3-35.3 0-0.6 0-0.6-1 0-1z"/>
			</g>
		</g>
		<g id="&lt;Group&gt;">
			<rect id="&lt;Path&gt;" class="s12" x="44.5" y="244.5" width="123.9" height="65.9" rx="20.8"></rect>
			<text id="24/7
" style="transform: matrix(1,0,0,1,67.862,286.878)" >
				<tspan x="0" y="0" class="t15">24/7
</tspan>
			</text>
			<g id="&lt;Group&gt;">
				<path id="&lt;Path&gt;" class="s8" d="m115.6 305.8c14.2-3.4 30.1 3.6 42.9-5.1 0.6-0.4 1.1 0.5 0.5 0.9-12.9 8.7-28.8 1.7-43.1 5.2-0.6 0.2-0.9-0.8-0.3-1z"/>
			</g>
			<g id="&lt;Group&gt;">
				<path id="&lt;Path&gt;" class="s8" d="m164.8 269.9c0.3 3.2 0.4 6.4 0.9 9.6 0.3 2.2 0.2 4.4 0.1 6.6-0.2 4.2-0.9 8.4-3.3 12-0.3 0.5-1.2 0-0.8-0.5 2.7-4.1 3.1-9.1 3.2-13.9 0-2.5-0.4-4.9-0.7-7.4-0.3-2.1-0.2-4.3-0.4-6.4-0.1-0.7 0.9-0.7 1 0z"/>
			</g>
		</g>
	</g>
</svg>