<svg version="1.2" xmlns="http://www.w3.org/2000/svg" viewBox="0 0 652 400" width="652" height="400">
	<title>2112</title>
	<style>
		.s0 { fill: #efded4 } 
		.s1 { fill: #f78f77 } 
		.s2 { fill: #000000 } 
		.s3 { fill: #719968 } 
		.s4 { fill: #507849 } 
		.s5 { fill: #ff9e3e } 
		.s6 { fill: #fcb465 } 
		.s7 { fill: #ffa143 } 
		.s8 { fill: #f7c537 } 
		.s9 { fill: #ffa98f } 
		.s10 { fill: #ad4d40 } 
		.s11 { fill: #b75542 } 
		.s12 { fill: #e8821c } 
		.s13 { fill: #ffffff } 
		.s14 { fill: #f2513b } 
		.s15 { fill: #dd4536 } 
		.s16 { fill: #eab021 } 
		.s17 { fill: #476b3f } 
		.s18 { fill: #d16309 } 
		.s19 { fill: #b56a4d } 
		.s20 { fill: #ffb255 } 
		.s21 { fill: #af4d04 } 
		.s22 { fill: #994239 } 
		.s23 { fill: #f98575 } 
		.s24 { fill: #f4796c } 
		.s25 { fill: #4a7042 } 
		.s26 { fill: #accc97 } 
		.s27 { fill: #f78e2f } 
		.s28 { fill: #fcbc49 } 
	</style>
	<g id="Layer 1">
		<path id="&lt;Path&gt;" class="s0" d="m651.7 400h-651.7v-400h651.7z"/>
		<g id="&lt;Group&gt;">
			<path id="&lt;Path&gt;" class="s1" d="m442.1 271l0.7-1.4q6.8-2.8 10.7-3.2c1.7-0.2 3.6 0.9 1.3 2.3q-1.2 0.8-2 1.9 3-0.1 5.3-0.8c1.4-0.5 4.1-3.3 5-2.3q1.4 1.6-1.4 4.3 1.9-3.8 3.2-1.8c1.2 2-5.5 8.7-8.2 10.1q-2.7 1.3-14.6 0.4z"/>
		</g>
		<g id="&lt;Group&gt;">
			<path id="&lt;Path&gt;" class="s2" d="m455.5 273q-0.5 0-1 0c-0.2-0.1-0.3-0.2-0.2-0.3 0-0.2 0.1-0.3 0.3-0.2 2.5 0.4 5.4-1.1 5.5-1.2 0.1 0 0.3 0 0.3 0.1 0.1 0.2 0 0.3-0.1 0.4-0.1 0-2.4 1.2-4.8 1.2z"/>
		</g>
		<g id="&lt;Group&gt;">
			<path id="&lt;Path&gt;" class="s2" d="m456.9 275.6q-0.1 0-0.1-0.1l-4.2-4.4c-0.1-0.1-0.1-0.2 0-0.3 0.1-0.1 0.3-0.1 0.4 0l4 4.3 2.7-1.1c0.1-0.1 0.3 0 0.3 0.1 0.1 0.2 0 0.3-0.1 0.4l-2.9 1.1q0 0-0.1 0z"/>
		</g>
		<g id="&lt;Group&gt;">
			<g id="&lt;Group&gt;">
				<path id="&lt;Path&gt;" class="s3" d="m534.7 339q-7.6 2.6-18.2-4.7c-10.6-7.4 1-17.5 4.7-19.5q3.7-1.9 6.8-2.1-3.9 1.8-1 3.9c2.9 2.1 6.9-0.1 6-1.6q-1-1.5-1-1.5 5.3 1.1 9.7 2.9 4.4 1.7 4.4 1.7-6.1-0.4-5.1 0.9 1.1 1.4 8.4 1 4.7 2.4 6.1 4 1.5 1.7 1.5 1.7-2.7 2.8-5 3.6-2.3 0.7-2.3 0.7-1.9-2.5-4.8-0.9-3 1.7 1.2 3.9l-4.8 2.5q-3.8-3.7-6.3-1.3-2.5 2.4-0.3 4.8z"/>
			</g>
			<g id="&lt;Group&gt;">
				<path id="&lt;Path&gt;" class="s4" d="m504.6 342.4c-0.1-0.1-0.3-0.2-0.2-0.4 0-0.1 1.3-11.2 12.9-16.2 12-5.1 29.8-1.4 30-1.3 0.2 0 0.3 0.1 0.2 0.3 0 0.2-0.1 0.2-0.3 0.2-0.2 0-17.9-3.7-29.6 1.3-11.4 4.9-12.7 15.7-12.7 15.8 0 0.1-0.1 0.3-0.3 0.3z"/>
			</g>
			<g id="&lt;Group&gt;">
				<path id="&lt;Path&gt;" class="s3" d="m471.1 315q-1.3-3.3-6.3-1.5l-3.2-4.3q4.7-0.2 2.7-3-2-2.7-4.7-1.2 0 0-1.8-1.7-1.7-1.6-3-5.3 0 0 2-0.9 2-0.9 7.3-1.1 6.5 3.5 8 2.7 1.5-0.7-4.3-3 0 0 4.8 0.3 4.7 0.3 10 1.5 0 0-1.5 1c-1.5 1 1.2 4.6 4.7 4q3.5-0.7 0.8-4 2.7 1.5 5.2 4.8c2.5 3.4 8.8 17.5-3.9 19.6q-12.7 2.2-18.6-3.4 3-1.3 1.8-4.5z"/>
			</g>
			<g id="&lt;Group&gt;">
				<path id="&lt;Path&gt;" class="s3" d="m524.2 312.9q-0.6 10.3-11.4 9.9c-11.3-0.4-12-12.9-11-16.2q0.9-3.4 2.7-5.4-2 4.5 1 4c2.9-0.5 4.8-5.2 3.3-5.6q-1.4-0.3-1.4-0.3 3.8-2.5 7.4-4.1 3.7-1.5 3.7-1.5-3.9 3.4-2.5 3.6 1.4 0.1 5.6-4.5 4.2-1.4 6-1.2 1.8 0.1 1.8 0.1 0.1 3.3-0.8 5.1-0.9 1.8-0.9 1.8-2.6-0.4-3.4 2.3-0.8 2.8 3 1.6l-1.3 4.4q-4.5 0-4.5 2.9-0.1 2.9 2.7 3.1z"/>
			</g>
			<g id="&lt;Group&gt;">
				<path id="&lt;Path&gt;" class="s4" d="m504.6 347.6c-0.2 0-0.3-0.1-0.2-0.3 0-0.1 1.4-11.2-4.6-21.2-8.1-13.6-28.6-21-28.8-21-0.2-0.1-0.2-0.3-0.2-0.4 0.1-0.2 0.2-0.2 0.4-0.2 0.2 0.1 20.9 7.5 29.1 21.3 6.1 10.2 4.6 21.5 4.6 21.6 0 0.1-0.1 0.2-0.3 0.2z"/>
			</g>
			<g id="&lt;Group&gt;">
				<path id="&lt;Path&gt;" class="s4" d="m503.6 334.8c-0.2 0-0.3-0.1-0.3-0.3-1.2-19.3 14-32.1 14.1-32.2 0.1-0.1 0.3-0.1 0.4 0 0.1 0.1 0.1 0.3 0 0.4-0.2 0.1-15.1 12.8-13.9 31.8 0 0.1-0.1 0.3-0.3 0.3q0 0 0 0z"/>
			</g>
			<g id="&lt;Group&gt;">
				<path id="&lt;Path&gt;" class="s5" d="m516.8 369.1h-16.9c-0.9 0-1.7-0.6-1.8-1.5l-2.5-24.6c-0.1-1 0.7-1.8 1.7-1.8h22.1c1.1 0 1.9 0.8 1.8 1.8l-2.6 24.6c-0.1 0.9-0.9 1.5-1.8 1.5z"/>
			</g>
			<g id="&lt;Group&gt;">
				<path id="&lt;Path&gt;" class="s6" d="m513.1 369.1h-16.9c-0.9 0-1.7-0.6-1.8-1.5l-2.6-24.6c-0.1-1 0.7-1.8 1.8-1.8h22.1c1 0 1.8 0.8 1.7 1.8l-2.5 24.6c-0.1 0.9-0.9 1.5-1.8 1.5z"/>
			</g>
		</g>
		<g id="&lt;Group&gt;">
			<path id="&lt;Path&gt;" class="s1" d="m553.5 353.6l-0.3 6.3-3.1 4.4-11.4-3.8 0.8-7.8z"/>
		</g>
		<g id="&lt;Group&gt;">
			<path id="&lt;Path&gt;" class="s1" d="m588.9 350.4l1.1 8.3-2.5 2.9-12-1.7-1.6-8.9z"/>
		</g>
		<g id="&lt;Group&gt;">
			<path id="&lt;Path&gt;" class="s7" d="m425.1 298.3q3.4 18.5-16.8 24.9c-20.2 6.4-43.8-2.3-48.8-29.3q-8.2-44.1 29.8-37.5z"/>
		</g>
		<g id="&lt;Group&gt;">
			<path id="&lt;Path&gt;" class="s8" d="m458.9 359.2q13.6 6.5 17.6 10.3c4.1 3.8 4.3 6.4 3.8 7.7q-0.4 1.2-28.6 0-0.3-7.8-3.3-7.3-3 0.5-1.4 7.5l-8.5-0.1q-0.4-7.7 0.2-10.7 0.7-3.3 2.6-7.7z"/>
		</g>
		<g id="&lt;Group&gt;">
			<path id="&lt;Path&gt;" class="s9" d="m456 356.9q11.7 6.6 9.6 7.3c-2.2 0.7-14.3 0.8-17.8-0.5q-3.5-1.3-6.5-4.9v-3.8l13.3-2.9z"/>
		</g>
		<g id="&lt;Group&gt;">
			<path id="&lt;Path&gt;" class="s8" d="m420.8 351.1q8.5 12.9 10.1 18.3c1.5 5.5 0.4 7.9-0.7 8.7q-1.1 0.9-25.2-14.9 3.8-7 0.9-8.1-2.9-1.2-5.1 5.8l-7.4-4.5q3.7-7 5.8-9.3 2.3-2.5 6.3-5.4z"/>
		</g>
		<g id="&lt;Group&gt;">
			<path id="&lt;Path&gt;" class="s9" d="m419.4 347.6q6.9 12 4.6 11.5c-2.2-0.6-12.9-6.8-15.3-9.8q-2.4-2.9-3.1-7.7l9 0.8z"/>
		</g>
		<g id="&lt;Group&gt;">
			<path id="&lt;Path&gt;" class="s10" d="m427 304.7l7.5 23-9 21.5-25.5-9 15.1-35.5z"/>
		</g>
		<g id="&lt;Group&gt;">
			<path id="&lt;Path&gt;" class="s11" d="m412 286.7q31.3 7.8 36.8 11.6 7.4 5.1 17.5 55.2l-28 2.8q-11.5-36.4-13.2-37.9c-1.7-1.5-34.6-4.6-39.9-7.5q-6.3-3.4-3-21.2z"/>
		</g>
		<g id="&lt;Group&gt;">
			<path id="&lt;Path&gt;" class="s2" d="m398.7 233l-4.6 21.8-11.8 5.3q-3.6-1.8-2.8-8.8 0.8-6.9 7.8-13.8-1.9-7.7 3.3-11 5.2-3.3 11.1-0.7z"/>
		</g>
		<g id="&lt;Group&gt;">
			<g id="&lt;Group&gt;">
				<path id="&lt;Path&gt;" class="s2" d="m402.5 253.7l0.2-25.6q4.7 3 4.7 9.5c-0.1 2.8 4.1 3 6.7 6.4q2.4 3.2 0.7 9z"/>
			</g>
		</g>
		<g id="&lt;Group&gt;">
			<path id="&lt;Path&gt;" class="s4" d="m405.7 248.4q7.2 0.4 10.3 4.1c2.1 2.6 12 11.8 13.5 13.6 1.3 1.7 10.6 3.2 13.5 2.3q1.7-0.4 2.4 14.1c-0.1 1.1-11.4 8.3-21.9 4.9q-10.5-3.5-14-11.8z"/>
		</g>
		<g id="&lt;Group&gt;">
			<path id="&lt;Path&gt;" class="s4" d="m417.8 292.3q-29.4 4.7-29.8 1.8-0.8-6.6 4.9-42.1l2.9-4.7 9.4 1.1q4.6 0.5 9 12.6 4.4 12.1 3.6 31.3z"/>
		</g>
		<g id="&lt;Group&gt;">
			<g id="&lt;Group&gt;">
				<g id="&lt;Group&gt;">
					<g id="&lt;Group&gt;">
						<path id="&lt;Path&gt;" class="s1" d="m396.1 243.3l7.2 1.4 0.9 5.9q-0.9 1.5-3.9 1.3-3.9-0.2-5.2-2.1l-0.2-6.8z"/>
					</g>
				</g>
			</g>
		</g>
		<g id="&lt;Group&gt;">
			<g id="&lt;Group&gt;">
				<g id="&lt;Group&gt;">
					<g id="&lt;Group&gt;">
						<path id="&lt;Path&gt;" class="s2" d="m403.3 244.7l0.5 3.3c-1.7-0.1-5.9-0.7-7.5-4.1q-0.1-0.4-0.2-0.6z"/>
					</g>
				</g>
			</g>
		</g>
		<g id="&lt;Group&gt;">
			<g id="&lt;Group&gt;">
				<g id="&lt;Group&gt;">
					<g id="&lt;Group&gt;">
						<path id="&lt;Path&gt;" class="s1" d="m404.4 229.2q3.8 8.4 2.5 13.1c-1.3 4.8-5.6 4.1-8.2 3.2q-2.6-0.9-3.8-2.5-2.4 0.9-4-1.3c-1.7-2.3-0.7-4.9 0.7-5.5q1.4-0.6 3 0.4l-1.3-2.4q5.3-12.5 11.1-5z"/>
					</g>
				</g>
			</g>
		</g>
		<g id="&lt;Group&gt;">
			<g id="&lt;Group&gt;">
				<g id="&lt;Group&gt;">
					<g id="&lt;Group&gt;">
						<path id="&lt;Path&gt;" class="s2" d="m392.5 234l2.1-6.4 8-2q1.2-0.4 2.3 1.5 1.2 1.8 0.6 4.7l-2.5-4.2q0.3 1.7-2.3 5.7-2.5 4-6.1 3.3z"/>
					</g>
				</g>
			</g>
		</g>
		<g id="&lt;Group&gt;">
			<path id="&lt;Path&gt;" class="s2" d="m404.1 239.9q0 0 0 0c-0.2-0.1-0.2-0.2-0.2-0.3 0.5-1.6-0.7-3.3-0.7-3.3-0.1-0.1-0.1-0.2 0-0.3 0.2-0.1 0.3-0.1 0.4 0 0.1 0.1 1.3 1.9 0.8 3.7-0.1 0.1-0.2 0.2-0.3 0.2z"/>
		</g>
		<g id="&lt;Group&gt;">
			<path id="&lt;Path&gt;" class="s2" d="m400.4 234.1q-0.1 0-0.1 0c-0.1-0.1-0.2-0.2-0.2-0.3 0.7-1.8 1.8-1.5 1.9-1.5 0.1 0 0.2 0.1 0.2 0.3-0.1 0.1-0.2 0.2-0.3 0.2-0.1-0.1-0.8-0.2-1.3 1.1q0 0.2-0.2 0.2z"/>
		</g>
		<g id="&lt;Group&gt;">
			<path id="&lt;Path&gt;" class="s2" d="m405.7 232.8c-0.1 0-0.2-0.1-0.2-0.2-0.1-0.1-0.2-0.4-0.4-0.5q-0.3-0.1-0.7 0.2c-0.1 0.1-0.2 0-0.3-0.1-0.1-0.1 0-0.3 0.1-0.3q0.6-0.4 1.1-0.2c0.5 0.2 0.6 0.8 0.6 0.8 0.1 0.1 0 0.3-0.1 0.3q-0.1 0-0.1 0z"/>
		</g>
		<g id="&lt;Group&gt;">
			<path id="&lt;Path&gt;" class="s2" d="m394.3 240.5q-0.2 0-0.2 0l-2.3-2.4c-0.1-0.1-0.1-0.3 0-0.4 0.1-0.1 0.2-0.1 0.3 0l2.3 2.4c0.1 0.1 0.1 0.3 0 0.4q-0.1 0-0.1 0z"/>
		</g>
		<g id="&lt;Group&gt;">
			<path id="&lt;Path&gt;" class="s2" d="m391.8 239.9c-0.1 0-0.2-0.1-0.2-0.2 0-0.1 0.1-0.3 0.2-0.3l1.6-0.2c0.1-0.1 0.2 0 0.3 0.2 0 0.1-0.1 0.2-0.3 0.3l-1.5 0.2q-0.1 0-0.1 0z"/>
		</g>
		<g id="&lt;Group&gt;">
			<path id="&lt;Path&gt;" class="s4" d="m385.9 293.8c-1.1-0.7-4.7-37.7-2.5-40.3q3-3.7 11.7-6.2 0 0 0 0.4 0 0.4 9.2 44.9-17.4 1.9-18.4 1.2z"/>
		</g>
		<g id="&lt;Group&gt;">
			<path id="&lt;Path&gt;" class="s4" d="m417.8 292.3q-1.9-10.2-6.4-24.2-4.5-14.2-7.6-20.1 5.7 0.8 7.6 2c1.4 0.9 6.7 14.9 7.5 25q0.9 10.1 1.3 16.6-0.4 0.4-2.4 0.7z"/>
		</g>
		<g id="&lt;Group&gt;">
			<path id="&lt;Compound Path&gt;" fill-rule="evenodd" class="s2" d="m428.3 272.3q-0.3 0-0.6-0.1c-0.5-0.3-0.7-0.7-0.7-0.9-0.2-1.7 3.2-4.6 3.6-4.9q0.1-0.1 0.3 0 0.1 0.1 0.1 0.2c0 0.2-0.5 4.7-2.1 5.5q-0.3 0.2-0.6 0.2zm2.1-5.1c-1.1 1-3 3-2.9 4q0 0.3 0.4 0.5 0.4 0.2 0.7 0c1-0.5 1.6-3 1.8-4.5z"/>
		</g>
		<g id="&lt;Group&gt;">
			<path id="&lt;Path&gt;" class="s2" d="m400.1 252.1q-0.5 0-1.1-0.1c-3.4-0.4-4.1-2.7-4.2-2.8 0-0.1 0.1-0.3 0.2-0.3 0.1-0.1 0.3 0 0.3 0.1 0 0.1 0.7 2.1 3.8 2.5 3.1 0.4 4.9-1.1 4.9-1.1 0.1-0.1 0.3-0.1 0.3 0 0.1 0.1 0.1 0.3 0 0.3 0 0.1-1.5 1.4-4.2 1.4z"/>
		</g>
		<g id="&lt;Group&gt;">
			<path id="&lt;Path&gt;" class="s2" d="m405.6 236.6c-0.1 0-0.2-0.1-0.2-0.2l-0.3-1.6q0-0.1 0.1-0.1l0.6-0.8c0.1-0.1 0.2-0.1 0.3 0 0.1 0.1 0.2 0.2 0.1 0.3l-0.6 0.7 0.3 1.4c0 0.2-0.1 0.3-0.3 0.3q0 0 0 0z"/>
		</g>
		<g id="&lt;Group&gt;">
			<path id="&lt;Path&gt;" class="s2" d="m401 237c-0.1 0-0.2-0.1-0.2-0.2l-0.2-1.6q0-0.1 0-0.2l0.9-0.9c0.1-0.1 0.3-0.1 0.4 0 0.1 0.1 0.1 0.3 0 0.4l-0.8 0.8 0.2 1.4c0 0.1-0.1 0.3-0.3 0.3q0 0 0 0z"/>
		</g>
		<g id="&lt;Group&gt;">
			<path id="&lt;Path&gt;" class="s8" d="m432 335.9q-0.2 0-0.2-0.2c-2.2-5.6-6.7-16.6-7.6-17.7-0.8-1-8.1-1.8-12.8-2.1-0.2 0-0.3-0.2-0.3-0.3 0-0.1 0.2-0.2 0.3-0.2 1.2 0.1 12 0.8 13.2 2.3 1.2 1.4 7.4 17.2 7.6 17.8 0.1 0.2 0 0.3-0.1 0.3q-0.1 0.1-0.1 0.1z"/>
		</g>
		<g id="&lt;Group&gt;">
			<path id="&lt;Compound Path&gt;" fill-rule="evenodd" class="s8" d="m424.4 318.1q-0.1 0-0.1-0.1-0.2-0.1-0.1-0.3c0.2-0.6 2.4-6.5 4.2-6.8 0.3 0 0.7 0 1.1 0.5q0.4 0.6 0.3 1.4c-0.4 2.3-5 5.1-5.2 5.2q-0.1 0.1-0.2 0.1zm4.2-6.7q-0.1 0-0.1 0c-1.2 0.2-2.8 3.8-3.6 5.8 1.3-0.8 4.1-2.9 4.4-4.5q0.1-0.6-0.2-1c-0.2-0.2-0.4-0.3-0.5-0.3z"/>
		</g>
		<g id="&lt;Group&gt;">
			<path id="&lt;Path&gt;" class="s12" d="m373.5 309.2q-0.1 0-0.1-0.1c-5.8-3.9-8.2-13-8.2-13 0-0.2 0-0.3 0.2-0.3 0.1-0.1 0.2 0 0.3 0.1 0 0.1 2.3 9 7.9 12.8 0.2 0.1 0.2 0.3 0.1 0.4q-0.1 0.1-0.2 0.1z"/>
		</g>
		<g id="&lt;Group&gt;">
			<path id="&lt;Path&gt;" class="s7" d="m588.8 259.6c0.8-1.1 21.4-10.2 29 20 7.7 30.2-16.2 55.4-53.4 51q-38.6-4.6-5.1-46.5z"/>
		</g>
		<g id="&lt;Group&gt;">
			<path id="&lt;Path&gt;" class="s12" d="m604.4 315q-0.1 0-0.2 0c-0.1-0.1-0.1-0.3 0-0.4 8.1-8.5 9.4-18.3 9.5-18.4 0-0.2 0.1-0.3 0.2-0.3 0.2 0.1 0.3 0.2 0.3 0.3-0.1 0.1-1.5 10.1-9.6 18.7q-0.1 0.1-0.2 0.1z"/>
		</g>
		<g id="&lt;Group&gt;">
			<path id="&lt;Path&gt;" class="s4" d="m574.2 292.6q-6.3 27.1-7.8 27.1c-1.5 0.1-6.5 35-7.6 35.8-1 0.7-25 0.4-25.8-0.5-0.8-0.9 3.5-48.2 6.9-53.1q3.9-5.7 21.6-10.4z"/>
		</g>
		<g id="&lt;Group&gt;">
			<path id="&lt;Path&gt;" class="s4" d="m593.8 289.2q2.8 14 2 18.5-0.9 4.5-7.5 9.4 5.2 37.1 4.6 37.3c-0.6 0.3-24.3 1.3-24.7 1-0.5-0.3-10.1-46.8-8.1-53.6q2.1-6.9 8.8-7.9z"/>
		</g>
		<g id="&lt;Group&gt;">
			<path id="&lt;Path&gt;" class="s2" d="m553.2 262.2q-3.7-2.1-1.9-8.8 1.8-6.8 7.1-6.4-1.9-4.2 0-8.6 1.9-4.3 3.4-4.6-0.2-3.5 2.3-6.2 2.4-2.7 5.8 0.1 6.4-1.5 10.4 2.2 3.9 3.8 2.4 10.2 6.3 2.6 7.8 9.9 1.5 7.3-2.4 11.2z"/>
		</g>
		<g id="&lt;Group&gt;">
			<path id="&lt;Path&gt;" class="s8" d="m551.3 291.4c-2.8-1.2-5.6-1.5-6.7-4.7-0.9-3.1-2.6-6.8-0.3-12.4 4.8-12 11.3-24.3 21.3-25.3 10.1-1.1 16.4 1.2 23 5.3 6.6 4.1 13.2 24.4 7.5 35q-5.9 11-33.7 5.1-3.2 0.2-11.1-3z"/>
		</g>
		<g id="&lt;Group&gt;">
			<g id="&lt;Group&gt;">
				<g id="&lt;Group&gt;">
					<g id="&lt;Group&gt;">
						<path id="&lt;Path&gt;" class="s1" d="m575.1 244.7l0.3 5.3q-1.7 1.7-4 1.9-3.2 0.2-4.4-1.6l-0.3-6.8z"/>
					</g>
				</g>
			</g>
		</g>
		<g id="&lt;Group&gt;">
			<g id="&lt;Group&gt;">
				<g id="&lt;Group&gt;">
					<g id="&lt;Group&gt;">
						<path id="&lt;Path&gt;" class="s2" d="m575.1 245.3q-1.6 4-5.2 3.7-2.9-0.3-3.2-4.4z"/>
					</g>
				</g>
			</g>
		</g>
		<g id="&lt;Group&gt;">
			<g id="&lt;Group&gt;">
				<g id="&lt;Group&gt;">
					<g id="&lt;Group&gt;">
						<path id="&lt;Path&gt;" class="s1" d="m576.9 232.9l-0.3 2.7q0.1-0.2 1.7-0.2c1.5 0 3.5 1.9 2.5 4.6q-0.9 2.5-4 2.1-0.3 2.3-2.5 4.2c-1.6 1.3-5.2 2.8-8.2-1.1q-3-3.9-1.7-12.5 2.8-9.3 12.5 0.2z"/>
					</g>
				</g>
			</g>
		</g>
		<g id="&lt;Group&gt;">
			<g id="&lt;Group&gt;">
				<g id="&lt;Group&gt;">
					<g id="&lt;Group&gt;">
						<path id="&lt;Path&gt;" class="s1" d="m566.2 242.4q-4.9 0.2-4.8-3.9 0.2-3.6 4.9-1.9z"/>
					</g>
				</g>
			</g>
		</g>
		<g id="&lt;Group&gt;">
			<path id="&lt;Path&gt;" class="s2" d="m577.5 236q-1.6 0.8-5.1-1.5-3.5-2.3-2.7-5.2-4.5 3.1-5.3 6.8c-0.8 3.7-2-8.4 3.3-8.5 5.3 0 13.3 2.9 9.8 8.4z"/>
		</g>
		<g id="&lt;Group&gt;">
			<path id="&lt;Path&gt;" class="s2" d="m564.2 240.4q-0.1 0-0.2-0.1l-1.7-2.6c-0.1-0.1 0-0.2 0.1-0.3 0.1-0.1 0.3 0 0.3 0.1l1.7 2.5c0.1 0.1 0.1 0.3-0.1 0.4q0 0-0.1 0z"/>
		</g>
		<g id="&lt;Group&gt;">
			<path id="&lt;Path&gt;" class="s2" d="m577.4 239.8q-0.1 0-0.2-0.1c-0.1-0.1-0.1-0.3 0-0.4l2.3-2.1c0.1-0.1 0.2-0.1 0.3 0 0.1 0.1 0.1 0.3 0 0.4l-2.2 2.1q-0.1 0.1-0.2 0.1z"/>
		</g>
		<g id="&lt;Group&gt;">
			<path id="&lt;Path&gt;" class="s2" d="m579.6 240q-0.1 0-0.1 0l-1.5-1c-0.1-0.1-0.1-0.2 0-0.3 0-0.2 0.2-0.2 0.3-0.1l1.4 0.9c0.2 0.1 0.2 0.3 0.1 0.4q-0.1 0.1-0.2 0.1z"/>
		</g>
		<g id="&lt;Group&gt;">
			<path id="&lt;Path&gt;" class="s2" d="m562.4 239.7c-0.1 0-0.3-0.1-0.3-0.2 0-0.2 0.1-0.3 0.3-0.3l1.3-0.1c0.1 0 0.2 0.1 0.2 0.2 0.1 0.2-0.1 0.3-0.2 0.3l-1.3 0.1q0 0 0 0z"/>
		</g>
		<g id="&lt;Group&gt;">
			<path id="&lt;Path&gt;" class="s2" d="m569.6 241.5c-0.1 0-0.2-0.1-0.2-0.2-0.5-2.3 0.2-4.2 0.2-4.3 0-0.1 0.2-0.2 0.3-0.2 0.1 0.1 0.2 0.2 0.2 0.4-0.1 0-0.7 1.8-0.2 4 0 0.1-0.1 0.3-0.2 0.3q-0.1 0-0.1 0z"/>
		</g>
		<g id="&lt;Group&gt;">
			<path id="&lt;Path&gt;" class="s2" d="m566.6 234.6q-0.2 0-0.2-0.1c-0.1-0.1-0.1-0.3 0-0.4 0.6-0.5 1.7-0.6 1.7-0.6 0.1 0 0.3 0.1 0.3 0.3 0 0.1-0.1 0.2-0.3 0.2 0 0-0.9 0.1-1.4 0.5q-0.1 0.1-0.1 0.1z"/>
		</g>
		<g id="&lt;Group&gt;">
			<path id="&lt;Path&gt;" class="s2" d="m573 234.2q-0.1 0-0.2 0c-0.5-0.4-1.4-0.3-1.4-0.3-0.2 0-0.3-0.1-0.3-0.2 0-0.2 0.1-0.3 0.2-0.3 0 0 1.1-0.1 1.8 0.3 0.1 0.1 0.1 0.3 0.1 0.4q-0.1 0.1-0.2 0.1z"/>
		</g>
		<g id="&lt;Group&gt;">
			<path id="&lt;Path&gt;" class="s13" d="m571 252.2c-3.9-0.1-4.7-2.3-4.7-2.3 0-0.2 0-0.3 0.2-0.4 0.1 0 0.2 0.1 0.3 0.2 0 0.1 0.7 1.9 4.1 2 3.1 0 4.3-1.7 4.3-1.8 0.1-0.1 0.2-0.1 0.4 0 0.1 0.1 0.1 0.2 0 0.3 0 0.1-1.3 2-4.6 2z"/>
		</g>
		<g id="&lt;Group&gt;">
			<path id="&lt;Path&gt;" class="s2" d="m564.4 236.1q-4.1-5.3-1-8.5c3.1-3.2 12-4.8 16.2 1.3q3 4.3-2.1 7.1l-5.8-5.9-2-0.8-3.4 0.8z"/>
		</g>
		<g id="&lt;Group&gt;">
			<path id="&lt;Path&gt;" class="s2" d="m567.4 237.7c-0.2 0-0.3-0.2-0.3-0.3l0.1-1.3-1-0.5c-0.1-0.1-0.2-0.2-0.1-0.3 0-0.2 0.2-0.2 0.3-0.1l1.1 0.5q0.2 0.1 0.2 0.2l-0.1 1.5c0 0.2-0.1 0.3-0.2 0.3z"/>
		</g>
		<g id="&lt;Group&gt;">
			<path id="&lt;Path&gt;" class="s2" d="m572.6 237.8c-0.2 0-0.3-0.1-0.3-0.2l0.1-1.4-0.9-0.6c-0.1-0.1-0.1-0.3 0-0.4 0.1-0.1 0.2-0.1 0.3 0l1 0.7q0.1 0.1 0.1 0.2l-0.1 1.5c0 0.1-0.1 0.2-0.2 0.2z"/>
		</g>
		<g id="&lt;Group&gt;">
			<path id="&lt;Path&gt;" class="s2" d="m419.8 286.1c-0.1 0-0.3-0.1-0.3-0.2 0-0.2-0.7-12.1-0.9-15.6-0.2-7.4-5.6-12.8-5.7-12.9-0.1-0.1-0.1-0.3 0-0.4 0.1-0.1 0.3-0.1 0.4 0 0.1 0.1 5.6 5.7 5.8 13.3 0.2 3.5 0.9 15.4 0.9 15.5 0.1 0.2-0.1 0.3-0.2 0.3q0 0 0 0z"/>
		</g>
		<g id="&lt;Group&gt;">
			<path id="&lt;Path&gt;" class="s6" d="m562.2 328.4c-0.1 0-0.2-0.1-0.2-0.2-0.1-0.2-3.1-17.4-3-23.9 0.1-6.6 5.2-8.9 5.3-8.9 0.1-0.1 0.3 0 0.3 0.1 0.1 0.1 0 0.3-0.1 0.3-0.1 0-4.9 2.2-5 8.5-0.1 6.5 2.9 23.6 3 23.8 0 0.1-0.1 0.2-0.2 0.3q-0.1 0-0.1 0z"/>
		</g>
		<g id="&lt;Group&gt;">
			<path id="&lt;Compound Path&gt;" fill-rule="evenodd" class="s6" d="m588.1 317q-0.2 0-0.2-0.1c-0.3-0.8-2.3-7.2-1.3-8.9q0.2-0.4 0.6-0.4 0.4-0.1 0.7 0.1c1.3 1.2 0.5 8.3 0.4 9.1 0 0.1-0.1 0.2-0.2 0.2q0 0 0 0zm-0.7-9q-0.1 0-0.1 0c-0.1 0.1-0.2 0.1-0.3 0.2-0.6 1.1 0.3 4.9 1 7.3 0.2-2.9 0.3-6.7-0.5-7.4q-0.1-0.1-0.1-0.1z"/>
		</g>
		<g id="&lt;Group&gt;">
			<path id="&lt;Path&gt;" class="s6" d="m559.8 351q0 0-26.8-0.4c-0.1 0-0.2-0.1-0.2-0.2 0-0.1 0.1-0.2 0.2-0.3l26.8 0.4c0.2 0 0.3 0.1 0.3 0.2 0 0.2-0.1 0.3-0.3 0.3z"/>
		</g>
		<g id="&lt;Group&gt;">
			<path id="&lt;Path&gt;" class="s6" d="m567.2 351.7c-0.1 0-0.3-0.1-0.3-0.2 0-0.2 0.1-0.3 0.3-0.3l25.4-1.7c0.1 0 0.2 0.1 0.2 0.2 0 0.2-0.1 0.3-0.2 0.3l-25.4 1.7q0 0 0 0z"/>
		</g>
		<g id="&lt;Group&gt;">
			<path id="&lt;Path&gt;" class="s10" d="m516.8 364.5c3.6-2.2 10.9-2.7 13.6-4.2 2.8-1.5 6-5.2 7.5-4.4 1.5 0.9 4.2 4.6 8.5 4.4 4.3-0.2 6.3-1.1 7.4 0 0.7 0.8 1 7.4 1 11.6l1.6 0.4-0.3 4.1-9.2-0.6c-0.5 0.1-1.7-3.3-2.7-2.9-1.1 0.4-3.9 1.7-5.4 2.3q-22-0.9-26.2-1.7c-0.4-0.1-0.6-0.5-0.5-0.8 0.4-1.7 1.8-6.4 4.7-8.2z"/>
		</g>
		<g id="&lt;Group&gt;">
			<path id="&lt;Path&gt;" class="s13" d="m557 270.8c-0.2 0-0.3-0.1-0.3-0.2-1.8-9.9 4.1-15.1 4.2-15.1 0.1-0.1 0.2-0.1 0.3 0 0.1 0.1 0.1 0.3 0 0.4-0.1 0-5.8 5-4 14.6 0 0.2-0.1 0.3-0.2 0.3q0 0 0 0z"/>
		</g>
		<g id="&lt;Group&gt;">
			<path id="&lt;Path&gt;" class="s14" d="m428.6 305.1l-17.1-3.1c-0.9-0.2-1.5-1.1-1.2-2l9.1-27.9c0.3-0.9 1.3-1.6 2.3-1.4l17 3.1c1 0.1 1.5 1 1.2 2l-9 27.9c-0.3 0.9-1.3 1.5-2.3 1.4z"/>
		</g>
		<g id="&lt;Group&gt;">
			<path id="&lt;Path&gt;" class="s13" d="m430.8 305.5l-17.1-3.1c-0.9-0.2-1.5-1.1-1.2-2l9.1-27.9c0.3-1 1.3-1.6 2.3-1.4l17 3.1c1 0.1 1.5 1 1.2 2l-9 27.9c-0.3 0.9-1.3 1.5-2.3 1.4z"/>
		</g>
		<g id="&lt;Group&gt;">
			<path id="&lt;Path&gt;" class="s1" d="m406.6 285.8q3-1.5 4.4-1.8c1.6-0.3 3-0.8 4.8-0.9l-0.7 3q3.4 1.1 6.6 2.8 3.3 1.8 2.6 3.3 2.1 1.4 1.1 2.3-0.9 0.9-4.3-0.2 4.3 1.9 2.4 2.8-1.8 0.9-5.8 0.4-8.7 1.2-11.5-1.9-2.7-3.1 0.4-9.8z"/>
		</g>
		<g id="&lt;Group&gt;">
			<path id="&lt;Path&gt;" class="s2" d="m415.5 286.4q0 0-1.7-0.2c-0.2 0-0.3-0.1-0.2-0.3 0-0.1 0.1-0.2 0.2-0.2l1.8 0.2c0.1 0.1 0.2 0.2 0.2 0.3 0 0.2-0.1 0.2-0.3 0.2z"/>
		</g>
		<g id="&lt;Group&gt;">
			<path id="&lt;Path&gt;" class="s2" d="m424.1 292.2q0 0-0.1 0l-6.6-2.2c-0.1-0.1-0.2-0.2-0.2-0.3 0.1-0.2 0.2-0.2 0.3-0.2l6.7 2.2c0.1 0.1 0.2 0.2 0.2 0.3-0.1 0.1-0.2 0.2-0.3 0.2z"/>
		</g>
		<g id="&lt;Group&gt;">
			<path id="&lt;Path&gt;" class="s2" d="m421.5 294.7q0 0-0.1 0l-4.1-1.4c-0.2 0-0.2-0.2-0.2-0.3 0-0.1 0.2-0.2 0.3-0.2l4.2 1.4c0.1 0.1 0.2 0.2 0.1 0.3q0 0.2-0.2 0.2z"/>
		</g>
		<g id="&lt;Group&gt;">
			<path id="&lt;Path&gt;" class="s11" d="m556.3 367.7c3.1-2.8 9.9-4.4 12.3-6.3 2.3-1.9 4.8-6.2 6.3-5.6 1.6 0.7 4.8 3.9 8.8 3 4.1-0.9 5.8-2.1 7-1.2 0.9 0.6 2.3 7.1 2.9 11.3l1.6 0.1 0.3 4.2-8.7 0.8c-0.5 0.2-2.2-3-3.1-2.4-0.9 0.6-3.5 2.3-4.8 3.1q-21 2.7-25.2 2.5c-0.3 0-0.6-0.3-0.6-0.7 0.2-1.7 0.7-6.5 3.2-8.8z"/>
		</g>
		<g id="&lt;Group&gt;">
			<path id="&lt;Path&gt;" class="s2" d="m570.6 243.6c-0.1 0-0.2-0.1-0.2-0.2-0.1-0.2 0-0.3 0.2-0.3 0.3 0 1.1-0.2 1.5-0.4 0.1 0 0.2 0 0.3 0.1 0.1 0.1 0 0.3-0.1 0.4-0.4 0.3-1.5 0.4-1.7 0.4q0 0 0 0z"/>
		</g>
		<g id="&lt;Group&gt;">
			<path id="&lt;Compound Path&gt;" fill-rule="evenodd" class="s2" d="m402.8 242.2q-0.3 0-0.6-0.1-0.5-0.2-0.6-0.6c-0.2-0.4 0.1-0.9 0.1-0.9 0.1-0.1 0.2-0.2 0.3-0.1l2.1 0.8q0.1 0.1 0.1 0.2 0 0.2-0.1 0.3c0 0-0.6 0.4-1.3 0.4zm-0.7-1.2q-0.1 0.2 0 0.4 0 0.1 0.3 0.2c0.3 0.2 0.7 0.1 1 0z"/>
		</g>
		<g id="&lt;Group&gt;">
			<path id="&lt;Path&gt;" class="s2" d="m387.9 239.1q-10.5-3.4-8.5-9.7 2.4-7.8 9.3 0.6z"/>
		</g>
		<g id="&lt;Group&gt;">
			<path id="&lt;Path&gt;" class="s6" d="m434.9 277.1q-0.1 0-0.3 0l-5.8-1c-0.5-0.1-0.9-0.4-1.2-0.8-0.2-0.4-0.3-0.9-0.2-1.4l0.6-2c0-0.1 0.1-0.2 0.3-0.2 0.1 0.1 0.2 0.2 0.1 0.3l-0.5 2c-0.1 0.4 0 0.7 0.1 1 0.2 0.3 0.5 0.5 0.9 0.6l5.8 1c0.6 0.1 1.2-0.2 1.4-0.8l0.7-2.4c0-0.1 0.1-0.2 0.3-0.2 0.1 0.1 0.2 0.2 0.2 0.3l-0.7 2.4c-0.2 0.7-0.9 1.2-1.7 1.2z"/>
		</g>
		<g id="&lt;Group&gt;">
			<path id="&lt;Path&gt;" class="s1" d="m108.1 346.8v10.7h-19.7v-9.2z"/>
		</g>
		<g id="&lt;Group&gt;">
			<path id="&lt;Path&gt;" class="s1" d="m133.5 342.6l1.7 10.6-19.3 3.1-1.5-9z"/>
		</g>
		<g id="&lt;Group&gt;">
			<path id="&lt;Path&gt;" class="s15" d="m164.9 370.5c-1.1 0.5-45.9 5.7-47.1 4.2-0.3-0.5-0.7-2.2-1-4.3q-0.9-5-1.5-12.5-0.6-2.6-0.6-3.8-0.1-1.1 21.6-2.6l15 9.8q3.8-1 8.1-0.7c2.2 0.2 3.9 2.8 4.9 5.3 0.8 2.2 1 4.3 0.6 4.6z"/>
		</g>
		<g id="&lt;Group&gt;">
			<path id="&lt;Path&gt;" class="s16" d="m164.9 370.5c-1.1 0.5-45.9 5.7-47.1 4.2-0.3-0.5-0.7-2.2-1-4.3 8.6-0.2 29.7-0.9 47.5-4.5 0.8 2.2 1 4.3 0.6 4.6z"/>
		</g>
		<g id="&lt;Group&gt;">
			<path id="&lt;Path&gt;" class="s13" d="m147.7 359.2q0 0-8.1-0.1-0.1 0-0.2-0.1-0.1-0.2 0-0.3l2.5-3.5c0.1-0.1 0.3-0.2 0.4-0.1 0.1 0.1 0.1 0.2 0 0.4l-2.2 3.1 7.6 0.1c0.2 0 0.3 0.1 0.3 0.3 0 0.1-0.2 0.2-0.3 0.2z"/>
		</g>
		<g id="&lt;Group&gt;">
			<path id="&lt;Path&gt;" class="s1" d="m114.5 281.9q10.5 4 9 8.6-1.5 4.7-12.9-3.2z"/>
		</g>
		<g id="&lt;Group&gt;">
			<g id="&lt;Group&gt;">
				<path id="&lt;Path&gt;" class="s1" d="m118.5 291.1q-5.4 0.8-11.2-0.6-10.1-2.3-19.6-6.5v-8.7q5.3-9.6 9.8-7.2 6.2 3.5 22.3 16.6z"/>
			</g>
		</g>
		<g id="&lt;Group&gt;">
			<path id="&lt;Path&gt;" class="s1" d="m183.8 255.1q4.7 8-2.3 10.5c-7 2.6-16.8 0.6-19.3-0.9q-2.4-1.6-1-2.8 0 0-1.2-1-1.2-1 1.7-2.5-2.4-1.3 0-2.5 3.9-2 14.3 0z"/>
		</g>
		<g id="&lt;Group&gt;">
			<path id="&lt;Path&gt;" class="s17" d="m93.2 286.9q28.4 1.9 33.7 12 6 11.4 12 51.1l-24.7 1.2-2.9-9.5z"/>
		</g>
		<g id="&lt;Group&gt;">
			<path id="&lt;Path&gt;" class="s1" d="m172.2 256.5l9.8-1.4q4.5 5.4-0.5 8.5c-5 3.1-10.5 1.8-11.2 1.6z"/>
		</g>
		<g id="&lt;Group&gt;">
			<path id="&lt;Path&gt;" class="s1" d="m182 258.9q-3.1 0.4-7.8-2.7-5.1 1.3-4.7-1.1c0.5-2.4 5.8-3.6 8-3.9q2.3-0.3 6.2 3.1 1.4 4.1-1.7 4.6z"/>
		</g>
		<g id="&lt;Group&gt;">
			<path id="&lt;Path&gt;" class="s2" d="m181.4 259c-3.2 0-5.9-2.9-6.1-3-0.1-0.1-0.1-0.3 0-0.4 0.1-0.1 0.3-0.1 0.4 0 0 0.1 3.6 3.9 7 2.7 0.2 0 0.3 0 0.4 0.2 0 0.1-0.1 0.2-0.2 0.3q-0.8 0.2-1.5 0.2z"/>
		</g>
		<g id="&lt;Group&gt;">
			<path id="&lt;Path&gt;" class="s2" d="m169.5 263.4q0 0-0.1-0.1c-0.1 0-0.2-0.2-0.1-0.3l2.6-6.6c0.1-0.2 0.2-0.2 0.3-0.2 0.2 0.1 0.2 0.2 0.2 0.3l-2.7 6.7q0 0.2-0.2 0.2z"/>
		</g>
		<g id="&lt;Group&gt;">
			<path id="&lt;Path&gt;" class="s7" d="m255.3 258.7q15.5 11.1 12 35.3c-4 27.9-27.3 37-47.5 30.4q-20.2-6.6-16.9-25.6z"/>
		</g>
		<g id="&lt;Group&gt;">
			<path id="&lt;Path&gt;" class="s12" d="m254.7 311q-0.1 0-0.2-0.1c-0.1-0.1-0.1-0.3 0-0.4 5.4-4.2 7.2-13.1 7.2-13.2 0.1-0.2 0.2-0.3 0.3-0.2 0.2 0 0.2 0.1 0.2 0.3 0 0-1.8 9.2-7.4 13.5q0 0.1-0.1 0.1z"/>
		</g>
		<g id="&lt;Group&gt;">
			<path id="&lt;Path&gt;" class="s12" d="m100.8 300.7q3.4 19-16.8 25.6c-20.3 6.6-43.6-2.4-47.5-30.3q-3.5-24.3 12-35.4z"/>
		</g>
		<g id="&lt;Group&gt;">
			<path id="&lt;Path&gt;" class="s18" d="m49.1 312.9q-0.1 0-0.2 0c-5.5-4.3-7.3-13.5-7.4-13.6 0-0.1 0.1-0.3 0.2-0.3 0.2 0 0.3 0.1 0.3 0.2 0.1 0.1 1.8 9.1 7.2 13.3 0.1 0 0.2 0.2 0.1 0.3q-0.1 0.1-0.2 0.1z"/>
		</g>
		<g id="&lt;Group&gt;">
			<path id="&lt;Path&gt;" class="s1" d="m230.4 343.4l-1 12.6-6 7.3-9.5-3.9v-13.6z"/>
		</g>
		<g id="&lt;Group&gt;">
			<path id="&lt;Path&gt;" class="s1" d="m212.9 340.6l-1.2 12.5-6.9 7.4-11-4v-13.5z"/>
		</g>
		<g id="&lt;Group&gt;">
			<path id="&lt;Path&gt;" class="s8" d="m231.5 285.4l-17.8 41.3-3.3 24.5-23.3-0.3q-3.6-43.9-0.4-49.3 3.3-5.4 25.9-16.9z"/>
		</g>
		<g id="&lt;Group&gt;">
			<path id="&lt;Path&gt;" class="s8" d="m248.4 285.8q1 11.7 0.7 15.6-0.4 3.9-12.6 13l-0.6 37.7-27.1 1.2q-0.5-43.1-0.1-47.2 0.5-4 18.4-18.8z"/>
		</g>
		<g id="&lt;Group&gt;">
			<path id="&lt;Path&gt;" class="s19" d="m244.7 244.4c3.1 3 4.9 40.4 4.5 41-0.5 0.7-3.6 3.2-16.4 3.5-12.8 0.2-19.9-3.8-20.2-4.2-0.3-0.5-1.3-34.1 2.8-39.1q2.7-3.3 9.9-3.7c7.7-0.9 16.3-0.6 19.4 2.5z"/>
		</g>
		<g id="&lt;Group&gt;">
			<g id="&lt;Group&gt;">
				<g id="&lt;Group&gt;">
					<g id="&lt;Group&gt;">
						<path id="&lt;Path&gt;" class="s1" d="m231.6 236.4l-0.1 6.9q-1.3 1.9-5.4 2.2-2.9 0.1-4-0.6l0.5-3.4 0.5-3.4 7.3-1.4z"/>
					</g>
				</g>
			</g>
		</g>
		<g id="&lt;Group&gt;">
			<g id="&lt;Group&gt;">
				<g id="&lt;Group&gt;">
					<g id="&lt;Group&gt;">
						<path id="&lt;Path&gt;" class="s2" d="m230.4 236.7q-0.1 0.2-0.2 0.6c-1.6 3.4-5.9 4.1-7.6 4.2l0.5-3.4z"/>
					</g>
				</g>
			</g>
		</g>
		<g id="&lt;Group&gt;">
			<g id="&lt;Group&gt;">
				<g id="&lt;Group&gt;">
					<g id="&lt;Group&gt;">
						<path id="&lt;Path&gt;" class="s1" d="m233.2 227.4l-1.3 2.5q1.7-1 3.1-0.4c1.4 0.6 2.3 3.2 0.7 5.5q-1.7 2.3-4.1 1.4-1.2 1.6-3.8 2.5c-2.7 0.9-7.1 1.7-8.4-3.1q-1.3-4.9 2.5-13.4 5.9-7.6 11.3 5z"/>
					</g>
				</g>
			</g>
		</g>
		<g id="&lt;Group&gt;">
			<path id="&lt;Path&gt;" class="s2" d="m222.2 233.3c-0.1 0-0.2-0.1-0.2-0.2-0.6-1.8 0.7-3.7 0.8-3.8 0-0.1 0.2-0.1 0.3 0 0.1 0.1 0.2 0.2 0.1 0.3 0 0-1.2 1.8-0.7 3.3 0 0.2-0.1 0.3-0.2 0.3q0 0.1-0.1 0.1z"/>
		</g>
		<g id="&lt;Group&gt;">
			<path id="&lt;Path&gt;" class="s2" d="m232.3 233.9q-0.1 0-0.2-0.1c-0.1-0.1-0.1-0.2 0-0.3l2.3-2.5c0.1-0.1 0.3-0.1 0.4 0 0.1 0.1 0.1 0.2 0 0.3l-2.3 2.5q-0.1 0.1-0.2 0.1z"/>
		</g>
		<g id="&lt;Group&gt;">
			<path id="&lt;Path&gt;" class="s2" d="m234.7 233.2q0 0-1.6-0.2c-0.2 0-0.2-0.2-0.2-0.3 0-0.1 0.1-0.2 0.3-0.2l1.6 0.2c0.1 0.1 0.2 0.2 0.2 0.3 0 0.1-0.1 0.2-0.3 0.2z"/>
		</g>
		<g id="&lt;Group&gt;">
			<path id="&lt;Path&gt;" class="s2" d="m226.1 230.1c-0.2-0.1-0.3-0.2-0.2-0.3l0.2-1.6c0-0.1 0.1-0.2 0.2-0.2 0.2 0 0.3 0.1 0.3 0.3l-0.2 1.5c-0.1 0.2-0.2 0.3-0.3 0.3z"/>
		</g>
		<g id="&lt;Group&gt;">
			<path id="&lt;Path&gt;" class="s2" d="m221.4 229.7c-0.2 0-0.3-0.2-0.3-0.3l0.3-1.6c0-0.1 0.1-0.2 0.2-0.2 0.2 0 0.3 0.1 0.3 0.3l-0.3 1.6c0 0.1-0.1 0.2-0.2 0.2z"/>
		</g>
		<g id="&lt;Group&gt;">
			<path id="&lt;Path&gt;" class="s2" d="m227.2 227.2q-0.1-0.1-0.2-0.2c-0.4-0.7-1.5-0.5-1.5-0.5-0.2 0-0.3 0-0.3-0.2-0.1-0.1 0-0.2 0.2-0.3 0 0 1.4-0.3 2 0.8 0.1 0.1 0 0.3-0.1 0.3q0 0.1-0.1 0.1z"/>
		</g>
		<g id="&lt;Group&gt;">
			<path id="&lt;Path&gt;" class="s2" d="m221 226.5q0 0-0.1 0c-0.1-0.1-0.1-0.3-0.1-0.4 0.1 0 0.5-0.6 1.1-0.6q0.5-0.1 0.9 0.3c0.1 0.1 0.1 0.2 0.1 0.3-0.1 0.1-0.3 0.2-0.4 0.1q-0.3-0.3-0.5-0.2c-0.4 0-0.8 0.4-0.8 0.4q0 0.1-0.2 0.1z"/>
		</g>
		<g id="&lt;Group&gt;">
			<path id="&lt;Path&gt;" class="s10" d="m231.1 230.5q-2.3-1.6-2.2-4 0.1-2.4 0.7-3-2.7-0.1-5-0.8-1.4-0.5-2.1-1l-0.6 0.7c-0.7 0-2.2-4.2-1.2-4.9q1-0.7 6.5 1.2 5.8-1.4 9.2 2.7 3.4 4.2-0.4 9-1-2.1-4.9 0.1z"/>
		</g>
		<g id="&lt;Group&gt;">
			<path id="&lt;Path&gt;" class="s2" d="m225.3 245.7c-1.9 0-3.3-0.5-3.3-0.5-0.1-0.1-0.2-0.2-0.1-0.4 0-0.1 0.2-0.1 0.3-0.1 0.1 0 4.7 1.9 9.1-1.6 0.1-0.1 0.3-0.1 0.3 0 0.1 0.1 0.1 0.3 0 0.4-2.2 1.8-4.5 2.2-6.3 2.2z"/>
		</g>
		<g id="&lt;Group&gt;">
			<path id="&lt;Compound Path&gt;" fill-rule="evenodd" class="s2" d="m224.4 236.1c-0.8 0-1.3-0.5-1.4-0.5q-0.1-0.1 0-0.3 0-0.1 0.1-0.2l2.2-0.8q0.1 0 0.2 0 0.1 0.1 0.2 0.2c0 0 0.1 0.5-0.1 1q-0.2 0.4-0.7 0.5-0.3 0.1-0.5 0.1zm-0.6-0.7c0.2 0.2 0.6 0.3 1 0.2q0.3-0.1 0.4-0.3 0-0.2 0-0.4z"/>
		</g>
		<g id="&lt;Group&gt;">
			<path id="&lt;Path&gt;" class="s19" d="m221 271.3q-19.8 14.6-43.3-2.1l6.9-18q11.6 4.2 16.1 3 8.3-2.1 16-9.8 10 22.7 4.3 26.9z"/>
		</g>
		<g id="&lt;Group&gt;">
			<path id="&lt;Path&gt;" class="s19" d="m243.6 243.6q22.8 12.2 20.9 30.8-1.3 13.2-35.1 11l-0.3-18.9 15.5-1.6z"/>
		</g>
		<g id="&lt;Group&gt;">
			<path id="&lt;Compound Path&gt;" fill-rule="evenodd" class="s2" d="m250.8 264.9c-2 0-4.6-0.4-5.7-0.6q-0.2-0.1-0.2-0.2 0-0.2 0.1-0.3c0.3-0.1 5.6-2.9 7.9-0.5q0.5 0.6 0.3 1c-0.3 0.4-1.2 0.6-2.4 0.6zm-4.8-1c3.1 0.5 6.4 0.7 6.7 0.2 0.1-0.1 0-0.3-0.2-0.5-1.5-1.6-5-0.3-6.5 0.3z"/>
		</g>
		<g id="&lt;Group&gt;">
			<path id="&lt;Path&gt;" class="s2" d="m245.1 264.3q0 0-0.1-0.1c-2-1.3-0.5-5.4-0.4-5.6 0.1-0.1 0.2-0.2 0.3-0.1 0.2 0 0.2 0.2 0.2 0.3 0 0-1.5 3.9 0.2 5 0.1 0.1 0.1 0.3 0 0.4q0 0.1-0.2 0.1z"/>
		</g>
		<g id="&lt;Group&gt;">
			<path id="&lt;Path&gt;" class="s10" d="m208.3 376c-11.5 0.4-37.6 1.1-38.1-0.2q-0.6-1.7 1.5-5l17.2-11.1q1.8-4.6 4.9-6.6 3-2.1 10.1 1.6 3.1-2.9 6.2-3.3 3-0.4 3.5 19.4c0 2.8-2.4 5.1-5.3 5.2z"/>
		</g>
		<g id="&lt;Group&gt;">
			<path id="&lt;Path&gt;" class="s11" d="m206.8 366q4.3-10.5 7.1-12.4 2.8-1.8 9.7 4 5.8-6.1 7.3-2.9c1.4 3.2 2.1 14.7 1 17.3-1.1 2.5-9.1 6.7-19.6 6.7-4.9 0-12-1.5-12-3.2-0.1-2.7 4.8-7.7 6.5-9.5z"/>
		</g>
		<g id="&lt;Group&gt;">
			<path id="&lt;Path&gt;" class="s7" d="m220.7 362.8h-8.9c-0.1 0-0.2-0.1-0.2-0.2 0-0.1 0.1-0.3 0.2-0.3h8.9c0.1 0 0.2 0.2 0.2 0.3 0 0.1-0.1 0.2-0.2 0.2z"/>
		</g>
		<g id="&lt;Group&gt;">
			<path id="&lt;Path&gt;" class="s7" d="m219.7 366.9h-9.4c-0.1 0-0.2-0.2-0.2-0.3 0-0.1 0.1-0.2 0.2-0.2h9.4c0.2 0 0.3 0.1 0.3 0.2 0 0.1-0.1 0.3-0.3 0.3z"/>
		</g>
		<g id="&lt;Group&gt;">
			<path id="&lt;Path&gt;" class="s7" d="m193.2 361.5q0 0-5.6-0.8c-0.2 0-0.3-0.1-0.3-0.3 0.1-0.1 0.2-0.2 0.3-0.2l5.7 0.8c0.1 0 0.2 0.1 0.2 0.3 0 0.1-0.1 0.2-0.3 0.2z"/>
		</g>
		<g id="&lt;Group&gt;">
			<path id="&lt;Path&gt;" class="s7" d="m191.8 365.4q0 0-9.5-1.5c-0.2 0-0.3-0.1-0.2-0.2 0-0.2 0.1-0.3 0.3-0.3l9.5 1.5c0.1 0 0.2 0.1 0.2 0.3 0 0.1-0.2 0.2-0.3 0.2z"/>
		</g>
		<g id="&lt;Group&gt;">
			<path id="&lt;Path&gt;" class="s13" d="m207.3 351.3c-0.1 0-0.2-0.1-0.2-0.3-0.2-1.6-2.7-40.5-1.7-45.2 0.6-3.1 10.8-12.4 12.7-14.2l-6.9-2.5c-0.1 0-0.2-0.2-0.1-0.3 0-0.1 0.2-0.2 0.3-0.2l7.3 2.7q0.1 0.1 0.2 0.2 0 0.1-0.1 0.2c-0.1 0.1-12.3 11-13 14.2-0.9 4.6 1.7 44.7 1.8 45.1 0 0.1-0.1 0.3-0.3 0.3q0 0 0 0z"/>
		</g>
		<g id="&lt;Group&gt;">
			<path id="&lt;Compound Path&gt;" fill-rule="evenodd" class="s13" d="m236.3 316.7q-0.1 0-0.1-0.1c-0.6-0.3-5.2-2.9-5-4.6q0.1-0.7 1-1 1.2-0.3 2.1 0.3c1.8 1.2 2.2 4.9 2.2 5.1q0 0.1-0.1 0.2 0 0.1-0.1 0.1zm-3.3-5.3q-0.3 0-0.6 0.1-0.7 0.2-0.7 0.6c-0.1 0.9 2.4 2.7 4.3 3.8-0.2-1-0.7-3.4-2-4.2q-0.4-0.3-1-0.3z"/>
		</g>
		<g id="&lt;Group&gt;">
			<path id="&lt;Path&gt;" class="s14" d="m134.2 377.8c-1.1 0.4-46.2-0.4-47.1-2.1-0.3-0.5-0.5-2.3-0.5-4.4q-0.2-5.1 0.2-12.6-0.2-2.6-0.1-3.8 0.1-1.2 21.8 0.3l13.5 11.7q3.9-0.5 8.1 0.4c2.2 0.5 3.6 3.3 4.2 5.9 0.5 2.3 0.4 4.5-0.1 4.6z"/>
		</g>
		<g id="&lt;Group&gt;">
			<path id="&lt;Path&gt;" class="s8" d="m134.2 377.8c-1.1 0.4-46.2-0.4-47.1-2.1-0.3-0.5-0.5-2.3-0.5-4.4 8.5 1 29.5 3.1 47.7 1.9 0.5 2.3 0.4 4.5-0.1 4.6z"/>
		</g>
		<g id="&lt;Group&gt;">
			<path id="&lt;Path&gt;" class="s13" d="m118.8 364.4q-0.1 0-8.1-1.2-0.1 0-0.1-0.2-0.1-0.1 0-0.2l3-3.2c0.1-0.1 0.2-0.1 0.3 0 0.1 0.1 0.1 0.2 0 0.3l-2.6 2.9 7.5 1.1c0.2 0 0.2 0.1 0.2 0.3 0 0.1-0.1 0.2-0.2 0.2z"/>
		</g>
		<g id="&lt;Group&gt;">
			<g id="&lt;Group&gt;">
				<path id="&lt;Path&gt;" class="s20" d="m90.3 285.5l-22.2-4.4h-24.4q3.6-3.8 5-11.8c1.5-8.1 0.4-14.5 8.8-20 8.4-5.5 20.8-4 25.7-1 5 3 8.6 7.7 10.9 11q2.2 3.2 6.8 8.9-7.8 3.2-10.6 17.3z"/>
			</g>
		</g>
		<g id="&lt;Group&gt;">
			<g id="&lt;Group&gt;">
				<g id="&lt;Group&gt;">
					<g id="&lt;Group&gt;">
						<g id="&lt;Group&gt;">
							<path id="&lt;Path&gt;" class="s1" d="m76.5 242.1v0.1l-0.1 3.1-0.1 2.4q0.2 0.6-2.6 0.4-3.8-0.2-5-1.8l-0.2-5.7 1.1 0.2z"/>
						</g>
					</g>
				</g>
			</g>
		</g>
		<g id="&lt;Group&gt;">
			<g id="&lt;Group&gt;">
				<g id="&lt;Group&gt;">
					<g id="&lt;Group&gt;">
						<g id="&lt;Group&gt;">
							<path id="&lt;Path&gt;" class="s2" d="m76.5 242.2l-0.1 3.1c-1.8-0.2-5.2-1-6.6-3.9q-0.1-0.3-0.2-0.6l6.9 1.4z"/>
						</g>
					</g>
				</g>
			</g>
		</g>
		<g id="&lt;Group&gt;">
			<g id="&lt;Group&gt;">
				<g id="&lt;Group&gt;">
					<g id="&lt;Group&gt;">
						<g id="&lt;Group&gt;">
							<path id="&lt;Path&gt;" class="s1" d="m77.6 227.5q3.6 8 2.3 12.5c-1.2 4.5-5.3 3.8-7.8 3q-2.4-0.9-3.6-2.4-2.3 0.8-3.8-1.3c-1.6-2.2-0.7-4.6 0.6-5.2q1.4-0.6 2.9 0.4l-1.2-2.3q5-11.9 10.6-4.7z"/>
						</g>
					</g>
				</g>
			</g>
		</g>
		<g id="&lt;Group&gt;">
			<g id="&lt;Group&gt;">
				<path id="&lt;Path&gt;" class="s4" d="m84.9 351.6l3-33.7q-23-1.8-30.8-7.3-7.8-5.5-4.1-25.3l18.3-1q38.5 1.3 44 12.1 5.5 10.8-2.7 55.2z"/>
			</g>
		</g>
		<g id="&lt;Group&gt;">
			<g id="&lt;Group&gt;">
				<path id="&lt;Path&gt;" class="s20" d="m86.3 266.2v19.6h-39.3v-10.9z"/>
			</g>
		</g>
		<g id="&lt;Group&gt;">
			<g id="&lt;Group&gt;">
				<path id="&lt;Path&gt;" class="s1" d="m83 297.1q-26.7 3.1-33.1-1.6-6.4-4.8-6.6-14.1 16.8-1.1 20.5 1.7 1.6 1.2 22.3 4.7z"/>
			</g>
		</g>
		<g id="&lt;Group&gt;">
			<g id="&lt;Group&gt;">
				<path id="&lt;Path&gt;" class="s20" d="m63.8 281.1l-22 0.8q2.9-19.5 8.4-27.2 5.5-7.8 13.6-8.2z"/>
			</g>
		</g>
		<g id="&lt;Group&gt;">
			<path id="&lt;Path&gt;" class="s2" d="m77.1 237.2q0 0-0.1 0c-0.1-0.1-0.2-0.2-0.1-0.3 0.4-1.4-0.7-3-0.7-3-0.1-0.1 0-0.3 0.1-0.3 0.1-0.1 0.3-0.1 0.3 0 0.1 0.1 1.2 1.8 0.7 3.4 0 0.1-0.1 0.2-0.2 0.2z"/>
		</g>
		<g id="&lt;Group&gt;">
			<path id="&lt;Path&gt;" class="s2" d="m67.7 238.3q-0.1 0-0.2-0.1l-2.1-2.2c-0.1-0.1-0.1-0.3 0-0.4 0.1 0 0.3 0 0.4 0.1l2.1 2.2c0.1 0.1 0.1 0.2 0 0.3q-0.1 0.1-0.2 0.1z"/>
		</g>
		<g id="&lt;Group&gt;">
			<path id="&lt;Path&gt;" class="s2" d="m65.5 237.7c-0.2 0-0.3-0.1-0.3-0.2 0-0.1 0.1-0.3 0.2-0.3l1.5-0.2c0.1 0 0.2 0.1 0.3 0.2 0 0.1-0.1 0.3-0.2 0.3l-1.5 0.2q0 0 0 0z"/>
		</g>
		<g id="&lt;Group&gt;">
			<path id="&lt;Path&gt;" class="s2" d="m73.6 234.3c-0.1 0-0.2-0.1-0.2-0.2l-0.2-1.4c0-0.2 0.1-0.3 0.2-0.3 0.1 0 0.3 0.1 0.3 0.2l0.2 1.4c0 0.2-0.1 0.3-0.3 0.3q0 0 0 0z"/>
		</g>
		<g id="&lt;Group&gt;">
			<path id="&lt;Path&gt;" class="s2" d="m77.9 234c-0.2 0-0.3-0.1-0.3-0.2l-0.2-1.5c0-0.1 0.1-0.2 0.2-0.3 0.2 0 0.3 0.1 0.3 0.3l0.2 1.4c0 0.1-0.1 0.2-0.2 0.3q0 0 0 0z"/>
		</g>
		<g id="&lt;Group&gt;">
			<path id="&lt;Path&gt;" class="s2" d="m72.3 231.6q-0.1 0-0.1-0.1c-0.2 0-0.2-0.2-0.2-0.3 0.6-1 1.9-0.8 1.9-0.7 0.1 0 0.2 0.1 0.2 0.3 0 0.1-0.2 0.2-0.3 0.1 0 0-1-0.2-1.3 0.5q-0.1 0.2-0.2 0.2z"/>
		</g>
		<g id="&lt;Group&gt;">
			<path id="&lt;Path&gt;" class="s2" d="m76.8 230.9q-0.1 0-0.2-0.1c-0.1 0-0.1-0.2 0-0.3q0.3-0.5 0.8-0.5c0.7-0.1 1.3 0.4 1.3 0.5 0.1 0 0.1 0.2 0 0.3-0.1 0.1-0.2 0.1-0.3 0-0.2-0.1-0.6-0.4-1-0.3q-0.2 0-0.4 0.3-0.1 0.1-0.2 0.1z"/>
		</g>
		<g id="&lt;Group&gt;">
			<path id="&lt;Path&gt;" class="s1" d="m81 287.2q4.5-2 7-1.8c1.2 0 5.3 1.3 5.1 2.4q-0.1 1.1-4.7 1.2 10.4 1.2 11.5 2.6 1.3 1.8-1.8 1.6 2.7 1.6 1.8 2.3-1 0.7-3.2 0.8 3.4 1.1 0.7 2.4c-2.8 1.4-19.4 1.4-21.7-4.4q-1.2-2.9 5.3-7.1z"/>
		</g>
		<g id="&lt;Group&gt;">
			<path id="&lt;Path&gt;" class="s2" d="m98.1 293.4q0 0-7.9-0.7c-0.1-0.1-0.2-0.2-0.2-0.3 0-0.2 0.1-0.3 0.3-0.2l7.8 0.8c0.2 0 0.3 0.1 0.2 0.2 0 0.2-0.1 0.2-0.2 0.2z"/>
		</g>
		<g id="&lt;Group&gt;">
			<path id="&lt;Path&gt;" class="s2" d="m88.4 289.3q0 0 0-0.1l-2.2-0.7c-0.1-0.1-0.2-0.2-0.2-0.3 0.1-0.2 0.2-0.2 0.3-0.2l2.2 0.8c0.2 0 0.2 0.2 0.2 0.3q-0.1 0.2-0.3 0.2z"/>
		</g>
		<g id="&lt;Group&gt;">
			<path id="&lt;Path&gt;" class="s21" d="m86.2 284.4c-0.1 0-0.2-0.1-0.2-0.2l-0.3-16c0-0.1 0.2-0.2 0.3-0.2 0.2 0 0.2 0.1 0.2 0.2l0.3 16c0 0.1-0.2 0.2-0.3 0.2q0 0 0 0z"/>
		</g>
		<g id="&lt;Group&gt;">
			<path id="&lt;Path&gt;" class="s21" d="m65.6 283.5c-0.1 0-0.3-0.1-0.3-0.3v-3.7c0-0.1 0.1-0.2 0.2-0.2 0.2 0 0.3 0.1 0.3 0.2v3.7c0 0.2-0.1 0.3-0.2 0.3q0 0 0 0z"/>
		</g>
		<g id="&lt;Group&gt;">
			<path id="&lt;Path&gt;" class="s21" d="m73.1 248.4c-1.6 0-3.5-0.4-4.6-2-0.1-0.1-0.1-0.3 0.1-0.3 0.1-0.1 0.2-0.1 0.3 0 2 2.9 7.3 1.4 7.3 1.4 0.2-0.1 0.3 0 0.3 0.2 0.1 0.1 0 0.2-0.1 0.3-0.1 0-1.6 0.4-3.3 0.4z"/>
		</g>
		<g id="&lt;Group&gt;">
			<path id="&lt;Path&gt;" class="s1" d="m115.6 296.5c-0.4-0.4-0.8-0.9-1-1.5-0.7-1.8-1.9-7.5-0.1-8.7q1.7-1.1 2.4 2-0.1-2.6 1.8-2.1 1.5 0.5 1.6 2.2 0.2-2.8 2.2-1.3c2 1.5 2.7 7.4 2.1 9.4q-0.5 2-2.8-0.1-0.8 2.1-2 1.9-1.3-0.3-1.4-2.1-1.1 1.7-2.8 0.3z"/>
		</g>
		<g id="&lt;Group&gt;">
			<path id="&lt;Path&gt;" class="s2" d="m118.4 295.7c-0.1 0-0.2 0-0.3-0.2l-1-4.9c0-0.2 0.1-0.3 0.2-0.3 0.2-0.1 0.3 0 0.3 0.2l1 4.9c0.1 0.2 0 0.3-0.2 0.3q0 0 0 0z"/>
		</g>
		<g id="&lt;Group&gt;">
			<path id="&lt;Path&gt;" class="s2" d="m121.7 295.8c-0.1 0-0.2 0-0.3-0.2l-0.8-4.2c0-0.2 0.1-0.3 0.2-0.3 0.2-0.1 0.3 0 0.3 0.2l0.8 4.2c0.1 0.2 0 0.3-0.2 0.3q0 0 0 0z"/>
		</g>
		<g id="&lt;Group&gt;">
			<path id="&lt;Path&gt;" class="s22" d="m209 290.1l-4-29.1c-0.1-1 0.6-1.8 1.6-1.8h17.3c1 0 1.9 0.8 2 1.8l4 29.1c0.1 0.9-0.5 1.7-1.5 1.7h-17.4c-0.9 0-1.8-0.8-2-1.7z"/>
		</g>
		<g id="&lt;Group&gt;">
			<path id="&lt;Path&gt;" class="s13" d="m206.8 290.1l-4-29.1c-0.1-1 0.5-1.8 1.5-1.8h17.4c0.9 0 1.8 0.8 2 1.8l4 29.1c0.1 0.9-0.6 1.7-1.6 1.7h-17.3c-1 0-1.9-0.8-2-1.7z"/>
		</g>
		<g id="&lt;Group&gt;">
			<path id="&lt;Path&gt;" class="s6" d="m215.9 263.2h-5.9c-0.9 0-1.6-0.6-1.7-1.5l-0.2-2.5c-0.1-0.1 0-0.2 0.2-0.2 0.1 0 0.2 0.1 0.3 0.2l0.2 2.4c0.1 0.7 0.6 1.1 1.2 1.1h5.9c0.4 0 0.7-0.1 1-0.4 0.2-0.2 0.3-0.5 0.3-0.9l-0.2-2.1c0-0.1 0.1-0.2 0.2-0.2 0.2 0 0.3 0.1 0.3 0.2l0.2 2.1c0 0.4-0.1 0.9-0.5 1.3-0.3 0.3-0.8 0.5-1.3 0.5z"/>
		</g>
		<g id="&lt;Group&gt;">
			<path id="&lt;Path&gt;" class="s1" d="m227.2 269q3.4-0.6 5.4-0.1 2 0.5 6.7 4.3 1.3 2 1.3 5 0 3-1 4.1-2.8 2-5.8 2.4c-2.2 0.3-4.8 0.9-5.8-0.4-1-1.3-1.6-5.6-1.8-7-0.1-1.4-3-2.9-3.1-4.1q-0.1-1.6 4.1-1.5z"/>
		</g>
		<g id="&lt;Group&gt;">
			<path id="&lt;Path&gt;" class="s2" d="m231.1 272h-3.9c-0.1 0-0.3-0.2-0.3-0.3 0-0.1 0.2-0.2 0.3-0.2h3.9c0.1 0 0.2 0.1 0.2 0.2 0 0.1-0.1 0.3-0.2 0.3z"/>
		</g>
		<g id="&lt;Group&gt;">
			<path id="&lt;Path&gt;" class="s2" d="m64.7 234.9q-3-1.9-2.6-4.4 0.5-2.6 2.8-2.7 0.7-4.9 4.6-6.4 4.3-1.6 4.7 1.7 1.9-1.6 5.4-0.7c3.5 0.9 2.9 5.3-0.4 6.3q-3.2 1-4.3-1.2-0.7 2.1-2.2 2.9-1.5 0.8-3.9 0.3 1.3 2.7 0.7 3.6-0.6 0.9-1.3 0.3-1.8-0.7-3.5 0.3z"/>
		</g>
		<g id="&lt;Group&gt;">
			<path id="&lt;Path&gt;" class="s2" d="m76.8 239.4q0 0-0.1 0c-0.5-0.3-1.4-0.1-1.8 0-0.1 0-0.2 0-0.3-0.2 0-0.1 0-0.2 0.2-0.3 0 0 1.4-0.4 2.2 0 0.1 0.1 0.1 0.3 0 0.4q0 0.1-0.2 0.1z"/>
		</g>
		<g id="&lt;Group&gt;">
			<path id="&lt;Path&gt;" class="s1" d="m114.5 291.1q-5.3 1.8-6.3 0-1-1.8 5.7-2.7z"/>
		</g>
		<g id="&lt;Group&gt;">
			<path id="&lt;Compound Path&gt;" fill-rule="evenodd" class="s7" d="m87.9 318.2q-0.1 0-0.2-0.1-0.1-0.1-0.1-0.2c0.1-0.2 1.3-5.1 4-6.6q1.2-0.8 2.6-0.4 1.2 0.3 1.3 1.1c0.2 2-6.7 5.8-7.5 6.2q-0.1 0-0.1 0zm5.4-6.9q-0.7 0-1.5 0.4c-1.9 1.2-3.1 4.4-3.5 5.7 2.8-1.5 6.8-4.2 6.7-5.4q-0.1-0.4-0.9-0.6-0.4-0.1-0.8-0.1z"/>
		</g>
		<g id="&lt;Group&gt;">
			<path id="&lt;Path&gt;" class="s2" d="m110.8 61.2q4.5 8.8 2.9 12-1.8 3.6-6.8 3.6z"/>
		</g>
		<g id="&lt;Group&gt;">
			<path id="&lt;Path&gt;" class="s11" d="m235.6 95.8c1-0.9 30.1-5.7 32 26.9 1.9 31.1-31.2 59.7-70.1 49.3-11.6-3.1-15.2-16.9-11.4-27.5 4.2-11.5 19.3-16.2 30-22.3z"/>
		</g>
		<g id="&lt;Group&gt;">
			<g id="&lt;Group&gt;">
				<path id="&lt;Path&gt;" class="s1" d="m136.5 95.5q0.9-4 3-5.9c2.2-1.8 4.7-3 4.3-1.4q-0.4 1.7-1.9 4.4l3.9-1.1q2.5-1.2 4.4-1.7 1.9-0.5 2.4 0.9 1.9-0.5 2.7 0 0.8 0.5 0.2 1.7 2.7 0 1.7 2.1c-1 2-6.2 5.5-8.8 6.7q-2.5 1.2-8.3 2-7.3-3.4-3.6-7.7z"/>
			</g>
		</g>
		<g id="&lt;Group&gt;">
			<path id="&lt;Path&gt;" class="s2" d="m150.5 96.3q-0.1 0-0.1-0.1l-6.4-3.3c-0.1-0.1-0.1-0.2-0.1-0.4 0.1-0.1 0.3-0.1 0.4-0.1l6.3 3.4c0.1 0.1 0.2 0.2 0.1 0.3q-0.1 0.2-0.2 0.2z"/>
		</g>
		<g id="&lt;Group&gt;">
			<path id="&lt;Path&gt;" class="s2" d="m138.2 98.4c-0.1 0-0.2-0.1-0.2-0.2-0.1-0.2 0-0.3 0.2-0.3q2.8-0.8 3.6-2.4c0.5-1.1 0-2.2 0-2.2 0-0.1 0-0.2 0.1-0.3 0.2-0.1 0.3 0 0.4 0.1 0 0.1 0.5 1.3-0.1 2.6q-0.8 1.8-3.9 2.6 0 0.1-0.1 0.1z"/>
		</g>
		<g id="&lt;Group&gt;">
			<g id="&lt;Group&gt;">
				<path id="&lt;Path&gt;" class="s8" d="m103.9 87.5q5.4 4.7 15.6 7.4 7.3 2 16.7-2l8.8 12.1q-23.6 14.1-34.4 7-13.8-9-6.7-24.5z"/>
			</g>
		</g>
		<g id="&lt;Group&gt;">
			<path id="&lt;Path&gt;" class="s20" d="m242 159.4q-0.1-0.1-0.2-0.2c-0.1-0.1 0-0.2 0.1-0.3 10-6 14.1-15.1 14.1-15.2 0.1-0.1 0.2-0.2 0.3-0.1 0.2 0 0.2 0.2 0.2 0.3-0.1 0.1-4.2 9.3-14.4 15.4q0 0.1-0.1 0.1z"/>
		</g>
		<g id="&lt;Group&gt;">
			<path id="&lt;Path&gt;" class="s2" d="m238 73.1q8-1.2 9.9 4.5 2 5.7-1.4 15.3l-9.5-0.9z"/>
		</g>
		<g id="&lt;Group&gt;">
			<path id="&lt;Path&gt;" class="s23" d="m223.1 105.7l-11.2 39.1q-19.9-1.7-10-12.8 9.8-11.1 12.6-25.2z"/>
		</g>
		<g id="&lt;Group&gt;">
			<path id="&lt;Path&gt;" class="s24" d="m214.3 130.1q0.7-0.3-8 42l-9.8-0.9q-5-24.1-4.3-31.1 0.7-7 10.6-12.5 10.8 2.8 11.5 2.5z"/>
		</g>
		<g id="&lt;Group&gt;">
			<path id="&lt;Path&gt;" class="s23" d="m217.9 147.7l-1.8 27.1-10.9-1q-3.8-17.7-3.9-26.7-0.2-8.9 8.9-17.4z"/>
		</g>
		<g id="&lt;Group&gt;">
			<path id="&lt;Path&gt;" class="s2" d="m95.9 56.9q-12.9 13.7 3.1 19.1 11.6 3.9-3.1-19.1z"/>
		</g>
		<g id="&lt;Group&gt;">
			<path id="&lt;Path&gt;" class="s11" d="m126.5 122.3q36.2 44.7-2 51.4c-38.3 6.7-73.2-11.1-74-42.3-0.9-31.2 21.4-27.9 22.5-27.1z"/>
		</g>
		<g id="&lt;Group&gt;">
			<path id="&lt;Path&gt;" class="s1" d="m140.4 152.5l-0.6 7.3h-14.1v-8.3z"/>
		</g>
		<g id="&lt;Group&gt;">
			<path id="&lt;Path&gt;" class="s1" d="m115.3 155.9l-1.4 7.3-15.5-3.6 2.7-8.1z"/>
		</g>
		<g id="&lt;Group&gt;">
			<path id="&lt;Path&gt;" class="s8" d="m88.2 115.7l-0.6-35q15.1-4.7 24.5-0.2 9.4 4.5 11.9 30.7z"/>
		</g>
		<g id="&lt;Group&gt;">
			<path id="&lt;Path&gt;" class="s17" d="m118.1 109.8q20.3-5 25.9 3.6 5.6 8.6-2.2 41.4h-18.7z"/>
		</g>
		<g id="&lt;Group&gt;">
			<path id="&lt;Path&gt;" class="s4" d="m90.2 117.2q27.1-14.9 40-4.7 12.9 10.3-8.3 48.5l-25.5-7.5 8-14q-17.6-0.1-26.1-3.3-8.5-3.2-3.4-18.9z"/>
		</g>
		<g id="&lt;Group&gt;">
			<path id="&lt;Path&gt;" class="s16" d="m140.8 155.9q4.9 5.7 6 6.3c1.2 0.5 13 4.5 15.2 6.7 2.3 2.2 2.5 6.6 1.8 7q-0.6 0.4-39.4 0l-0.5-18.7z"/>
		</g>
		<g id="&lt;Group&gt;">
			<path id="&lt;Path&gt;" class="s8" d="m116.2 160.1q2 7.7 3.6 8.6c1.6 0.8 8.5 5.1 12.2 9q3.1 3.3 0 5.2h-21.6l-18.6-13.7 6.6-14.2z"/>
		</g>
		<g id="&lt;Group&gt;">
			<path id="&lt;Path&gt;" class="s13" d="m152 164.3c0.3 1.1-10.2 2.7-11.4 2.2q-1.2-0.5 4.2-6.7c1.2-0.1 7 3.4 7.2 4.5z"/>
		</g>
		<g id="&lt;Group&gt;">
			<path id="&lt;Path&gt;" class="s13" d="m123.9 171.2c0 1.1-10.5-0.3-11.5-1.1q-1.1-0.9 5.9-5.3c1.2 0.3 5.7 5.2 5.6 6.4z"/>
		</g>
		<g id="&lt;Group&gt;">
			<g id="&lt;Group&gt;">
				<g id="&lt;Group&gt;">
					<g id="&lt;Group&gt;">
						<path id="&lt;Path&gt;" class="s1" d="m101 73l6.5 2.3v2.8 2.8q-1 0.4-3.7-0.2-3.6-0.8-4.6-2.5l0.7-5.6z"/>
					</g>
				</g>
			</g>
		</g>
		<g id="&lt;Group&gt;">
			<g id="&lt;Group&gt;">
				<g id="&lt;Group&gt;">
					<g id="&lt;Group&gt;">
						<path id="&lt;Path&gt;" class="s2" d="m107.4 75.4l0.1 3.1c-1.5-0.3-5.4-1.5-6.4-4.8q-0.1-0.4-0.1-0.7z"/>
					</g>
				</g>
			</g>
		</g>
		<g id="&lt;Group&gt;">
			<g id="&lt;Group&gt;">
				<g id="&lt;Group&gt;">
					<g id="&lt;Group&gt;">
						<path id="&lt;Path&gt;" class="s1" d="m110.8 61.2q2.2 8.4 0.3 12.6c-1.9 4.2-5.8 2.9-8 1.7q-2.3-1.2-3.2-2.9-2.3 0.4-3.5-1.9c-1.2-2.3 0.1-4.5 1.4-4.9q1.4-0.3 2.8 0.8l-0.9-2.4q6.8-10.8 11.1-3z"/>
					</g>
				</g>
			</g>
		</g>
		<g id="&lt;Group&gt;">
			<path id="&lt;Path&gt;" class="s2" d="m109 71.1q-0.1 0-0.1 0c-0.2-0.1-0.2-0.2-0.2-0.3 0.7-1.4-0.1-3.1-0.1-3.2-0.1-0.1 0-0.2 0.1-0.3 0.1 0 0.3 0 0.3 0.1 0.1 0.1 1 2 0.2 3.6q-0.1 0.1-0.2 0.1z"/>
		</g>
		<g id="&lt;Group&gt;">
			<path id="&lt;Path&gt;" class="s2" d="m99.7 70.2q-0.1 0-0.2-0.1l-1.8-2.6c0-0.1 0-0.2 0.1-0.3 0.1-0.1 0.3 0 0.4 0.1l1.7 2.5c0.1 0.2 0.1 0.3 0 0.4q-0.1 0-0.2 0z"/>
		</g>
		<g id="&lt;Group&gt;">
			<path id="&lt;Path&gt;" class="s2" d="m99.1 69.3q0 0-1.5 0c-0.2 0-0.3-0.1-0.3-0.3 0-0.1 0.1-0.2 0.3-0.2q0 0 1.5 0c0.1 0 0.2 0.1 0.2 0.2 0 0.2-0.1 0.3-0.2 0.3z"/>
		</g>
		<g id="&lt;Group&gt;">
			<path id="&lt;Path&gt;" class="s13" d="m110.6 106.7q-0.1 0-0.1 0c-0.1-0.1-0.2-0.3-0.1-0.4 0 0 1.8-2.3 3.2-5.8 2.2-5.4 0-13.3 0-13.4 0-0.1 0-0.3 0.2-0.3 0.1-0.1 0.2 0 0.3 0.2 0.1 0.3 2.2 8.2 0 13.7-1.5 3.5-3.3 5.9-3.3 5.9q-0.1 0.1-0.2 0.1z"/>
		</g>
		<g id="&lt;Group&gt;">
			<path id="&lt;Path&gt;" class="s2" d="m105 64.6q-0.1 0-0.2 0c-0.1-0.1-0.1-0.2 0-0.4 0.7-0.9 1.9-0.4 2-0.4 0.1 0 0.2 0.2 0.1 0.3 0 0.1-0.2 0.2-0.3 0.2 0-0.1-1-0.4-1.4 0.2q-0.1 0.1-0.2 0.1z"/>
		</g>
		<g id="&lt;Group&gt;">
			<path id="&lt;Path&gt;" class="s2" d="m111.1 64.7q-0.1 0-0.2-0.1c-0.1-0.1-0.5-0.5-0.9-0.5q-0.2 0-0.5 0.2c-0.1 0.1-0.2 0.1-0.3 0-0.1-0.1-0.1-0.2-0.1-0.3q0.4-0.4 1-0.4c0.7 0 1.2 0.7 1.2 0.7 0.1 0.1 0.1 0.2 0 0.3q-0.1 0.1-0.2 0.1z"/>
		</g>
		<g id="&lt;Group&gt;">
			<path id="&lt;Path&gt;" class="s2" d="m110.3 68c-0.2 0-0.3-0.1-0.3-0.3v-1.5q0-0.1 0.1-0.1l0.7-0.6c0.1-0.1 0.2-0.1 0.3 0 0.1 0.1 0.1 0.2 0 0.3l-0.6 0.6v1.3c0 0.2-0.1 0.3-0.2 0.3z"/>
		</g>
		<g id="&lt;Group&gt;">
			<path id="&lt;Path&gt;" class="s2" d="m105.9 67.6c-0.2 0-0.3-0.1-0.3-0.2l0.1-1.5q0-0.1 0.1-0.2l0.9-0.7c0.1 0 0.3 0 0.4 0.1 0.1 0.1 0 0.3-0.1 0.3l-0.8 0.6-0.1 1.4c0 0.1-0.1 0.2-0.2 0.2z"/>
		</g>
		<g id="&lt;Group&gt;">
			<path id="&lt;Path&gt;" class="s2" d="m101.7 54.6c7.5-0.9 9.5 4.4 9.9 5.3q0.3 1-0.2 4.1-0.2-0.7-0.9-2.2-0.7-1.4-2.7-2.5 0.1 1.3-1.4 3.9-1.6 2.7-5.5 3.4c-5.6-1.6-10.6-10.7 0.8-12z"/>
		</g>
		<g id="&lt;Group&gt;">
			<path id="&lt;Path&gt;" class="s1" d="m99.5 102.1q0.3-0.2 1.8-0.7 1.4-0.5 6.4-0.1 4.4 0.6 8 2 3.7 1.5 3.2 3.1 2.3 1.3 1.5 2.3-0.9 1-4.6 0.4 4.7 1.3 2.9 2.5-1.8 1.2-7.9-0.7-8.9 4.1-12.2 1.2-3.3-2.9 0.9-10z"/>
		</g>
		<g id="&lt;Group&gt;">
			<path id="&lt;Path&gt;" class="s8" d="m101.3 100.8l3.7 14.6q-23.8 18.8-33.8 4.1c-10-14.7 8.6-36.8 16.4-38.8q7.8-2.1 3.8 21.6z"/>
		</g>
		<g id="&lt;Group&gt;">
			<path id="&lt;Compound Path&gt;" fill-rule="evenodd" class="s20" d="m104.4 139.7q-0.1 0-0.2 0-0.1-0.1-0.1-0.3c0.1-0.2 1.5-5.8 3.7-6.8q0.9-0.3 1.7 0.1 0.8 0.5 0.8 1.2c0 2.2-5.2 5.4-5.8 5.8q-0.1 0-0.1 0zm4.2-6.7q-0.3 0-0.6 0.1c-1.6 0.7-2.8 4.3-3.2 5.8 1.8-1.1 5-3.5 5-5q0-0.4-0.5-0.7-0.4-0.2-0.7-0.2z"/>
		</g>
		<g id="&lt;Group&gt;">
			<path id="&lt;Path&gt;" class="s13" d="m83.5 103.1q-0.2 0-0.2-0.2c-0.1-0.1 0-0.3 0.1-0.3 5.2-2 15.2-1.7 15.6-1.7 0.1 0 0.2 0.1 0.2 0.3 0 0.1-0.1 0.2-0.2 0.2-0.1 0-10.3-0.3-15.4 1.7q-0.1 0-0.1 0z"/>
		</g>
		<g id="&lt;Group&gt;">
			<path id="&lt;Compound Path&gt;" fill-rule="evenodd" class="s13" d="m91.2 101.6c-1.7-0.2-7.2-1-7.4-2.1-0.1-0.1-0.1-0.4 0.3-0.6 1.7-1.3 6.7 1.9 7.3 2.3 0.1 0 0.1 0.1 0.1 0.3q-0.1 0.1-0.3 0.1zm-6-2.5q-0.5 0-0.8 0.2c-0.1 0.1-0.2 0.1-0.2 0.1 0.1 0.4 2.7 1.1 5.9 1.6-1.5-0.9-3.6-1.9-4.9-1.9z"/>
		</g>
		<g id="&lt;Group&gt;">
			<path id="&lt;Path&gt;" class="s13" d="m107.9 81.3c-1.7 0-7.1-0.2-9.3-3 0-0.1 0-0.3 0.1-0.4 0.1-0.1 0.3 0 0.3 0.1 2.3 3 9.2 2.8 9.3 2.8 0.2 0 0.3 0.1 0.3 0.2 0 0.2-0.1 0.3-0.3 0.3q0 0-0.4 0z"/>
		</g>
		<g id="&lt;Group&gt;">
			<path id="&lt;Path&gt;" class="s2" d="m118.9 106.7q-0.1 0-0.1-0.1c-0.1 0-3.2-1.8-7.1-2.9-0.1 0-0.2-0.1-0.2-0.3 0.1-0.1 0.2-0.2 0.4-0.2 3.9 1.2 7.1 3 7.1 3 0.1 0.1 0.2 0.2 0.1 0.3q-0.1 0.2-0.2 0.2z"/>
		</g>
		<g id="&lt;Group&gt;">
			<path id="&lt;Path&gt;" class="s2" d="m116.2 109.2q-0.1 0-0.1 0c0 0-2.6-1.7-4.9-1.9-0.2-0.1-0.3-0.2-0.3-0.3 0-0.2 0.2-0.2 0.3-0.2 2.4 0.2 5.1 1.9 5.2 2 0.1 0 0.1 0.2 0 0.3q-0.1 0.1-0.2 0.1z"/>
		</g>
		<g id="&lt;Group&gt;">
			<path id="&lt;Path&gt;" class="s20" d="m75.4 160.1q0 0-0.1-0.1c-10.2-6.1-14.3-15.3-14.3-15.4-0.1-0.1 0-0.2 0.1-0.3 0.1 0 0.3 0 0.3 0.1 0.1 0.1 4.1 9.2 14.1 15.2 0.2 0.1 0.2 0.2 0.1 0.4q0 0.1-0.2 0.1z"/>
		</g>
		<g id="&lt;Group&gt;">
			<g id="&lt;Group&gt;">
				<path id="&lt;Path&gt;" class="s25" d="m192.4 170q0.8-3.7 2.8-3.8 1.9-0.1 4.5 4 7.6-0.3 8.1 0.2c0.5 0.6 0.2 12.2-0.3 12.4-0.6 0.2-31.7-0.6-33.1-0.8-1.4-0.2 0.8-6.2 3.6-7.2q2.8-1 5.8-0.9z"/>
			</g>
		</g>
		<g id="&lt;Group&gt;">
			<g id="&lt;Group&gt;">
				<path id="&lt;Path&gt;" class="s4" d="m201.9 171.6q0.5-3.7 2.4-4 1.8-0.3 4.7 3.6 7.3-0.9 7.8-0.4c0.5 0.5 1.2 12.1 0.7 12.3-0.5 0.2-30.6 2-32 1.9-1.4-0.1 0.2-6.2 2.9-7.4q2.6-1.2 5.5-1.4z"/>
			</g>
		</g>
		<g id="&lt;Group&gt;">
			<path id="&lt;Path&gt;" class="s13" d="m194.2 176.4c-0.1 0-0.2-0.1-0.2-0.2 0-0.2 0.1-0.3 0.2-0.3l4.2-0.2c0.2-0.1 0.3 0.1 0.3 0.2 0 0.1-0.1 0.3-0.2 0.3l-4.3 0.2q0 0 0 0z"/>
		</g>
		<g id="&lt;Group&gt;">
			<path id="&lt;Path&gt;" class="s13" d="m187.5 174.2q0 0-3.7-0.1c-0.1 0-0.2-0.1-0.2-0.2q0-0.2 0.2-0.3l3.7 0.1c0.2 0 0.3 0.2 0.3 0.3 0 0.1-0.1 0.2-0.3 0.2z"/>
		</g>
		<g id="&lt;Group&gt;">
			<g id="&lt;Group&gt;">
				<path id="&lt;Path&gt;" class="s20" d="m217.3 144.8l-7.3-0.1-13.5-13.1q5.6-5.9 21.4-12.5l6.4 2 2.3 2.8-1.6 1.5v0.1z"/>
			</g>
		</g>
		<g id="&lt;Group&gt;">
			<g id="&lt;Group&gt;">
				<path id="&lt;Path&gt;" class="s20" d="m236.5 142.6c-2.6 2.8-11.9 10.2-18.2 11.5l-12-13.8c0.9-1 1.8-1.8 2.5-2.4 6.6-5.8 15.7-16.1 16.6-17.1q0.1-0.1 0.1-0.1l1.8 1.3 1.8 1.2 12.7-3.5q2.8 14.4-5.3 22.9z"/>
			</g>
		</g>
		<g id="&lt;Group&gt;">
			<g id="&lt;Group&gt;">
				<path id="&lt;Path&gt;" class="s20" d="m212.3 107.5q1.9-6.6 3.9-9.4 3.2-4.1 9.4-7.1l-8.4 17.2q-3.5-0.2-4.9-0.7z"/>
			</g>
		</g>
		<g id="&lt;Group&gt;">
			<g id="&lt;Group&gt;">
				<path id="&lt;Path&gt;" class="s20" d="m216.2 123q-0.9-25 7.1-30.7 8.1-5.7 16.2 0.5l-3.9 33q-9.8 1.8-19.4-2.8z"/>
			</g>
		</g>
		<g id="&lt;Group&gt;">
			<g id="&lt;Group&gt;">
				<g id="&lt;Group&gt;">
					<g id="&lt;Group&gt;">
						<g id="&lt;Group&gt;">
							<path id="&lt;Path&gt;" class="s23" d="m235.6 85.3l-0.3 6q-1.2 1.7-4.7 1.8-2.7 0-3.4-1.4l0.9-5.2 6.4-1z"/>
						</g>
					</g>
				</g>
			</g>
		</g>
		<g id="&lt;Group&gt;">
			<g id="&lt;Group&gt;">
				<g id="&lt;Group&gt;">
					<g id="&lt;Group&gt;">
						<g id="&lt;Group&gt;">
							<path id="&lt;Path&gt;" class="s2" d="m234.5 85.5q0 0.3-0.2 0.6c-1.5 2.9-5.2 3.3-6.7 3.4l0.5-3z"/>
						</g>
					</g>
				</g>
			</g>
		</g>
		<g id="&lt;Group&gt;">
			<g id="&lt;Group&gt;">
				<g id="&lt;Group&gt;">
					<g id="&lt;Group&gt;">
						<g id="&lt;Group&gt;">
							<path id="&lt;Path&gt;" class="s23" d="m237.3 77.5l-1.2 2.2q1.5-0.9 2.7-0.3c1.2 0.6 1.9 2.9 0.4 4.8q-1.5 2-3.6 1.1-1.1 1.4-3.4 2.1c-2.4 0.7-6.2 1.2-7.2-3q-1-4.3 2.6-11.6 5.4-6.5 9.7 4.7z"/>
						</g>
					</g>
				</g>
			</g>
		</g>
		<g id="&lt;Group&gt;">
			<g id="&lt;Group&gt;">
				<path id="&lt;Path&gt;" class="s23" d="m223.8 125.3q6-2.6 8.3-5.1 2.3-2.6 3.2-7.2l11.9 3.4q-0.2 5.9-6 10.4-4.8 3.7-17 4.8z"/>
			</g>
		</g>
		<g id="&lt;Group&gt;">
			<g id="&lt;Group&gt;">
				<path id="&lt;Path&gt;" class="s20" d="m239.5 92.8q6.9 3.6 8.6 10.9 1.7 7.4 0.1 16l-15.1-3.4 3.3-14.1q0.6-3.1 1.9-6z"/>
			</g>
		</g>
		<g id="&lt;Group&gt;">
			<path id="&lt;Path&gt;" class="s2" d="m231.2 77.1q-0.1 0-0.2-0.1c-0.4-0.7-1.5-0.8-1.5-0.8-0.1-0.1-0.2-0.2-0.2-0.3 0-0.1 0.1-0.2 0.3-0.2 0 0 1.3 0.1 1.9 1.1 0 0.1 0 0.2-0.1 0.3q-0.1 0-0.2 0z"/>
		</g>
		<g id="&lt;Group&gt;">
			<path id="&lt;Path&gt;" class="s2" d="m226.1 76.8q-0.1 0-0.2 0c-0.1-0.1-0.1-0.3-0.1-0.4 0.5-0.7 1.4-0.9 1.4-0.9 0.1-0.1 0.3 0 0.3 0.1 0.1 0.2 0 0.3-0.1 0.3-0.1 0-0.8 0.3-1.1 0.8q-0.1 0.1-0.2 0.1z"/>
		</g>
		<g id="&lt;Group&gt;">
			<path id="&lt;Path&gt;" class="s2" d="m227.5 81.8c-0.1 0-0.2-0.1-0.2-0.2-0.1-1.5 0.8-3.2 0.8-3.3 0.1-0.1 0.2-0.2 0.4-0.1 0.1 0 0.1 0.2 0.1 0.3 0 0-0.9 1.7-0.8 3.1 0 0.1-0.1 0.2-0.3 0.2q0 0 0 0z"/>
		</g>
		<g id="&lt;Group&gt;">
			<path id="&lt;Path&gt;" class="s2" d="m236.2 82.9q-0.1 0-0.2-0.1c-0.1-0.1-0.1-0.3 0.1-0.4l2.4-1.9c0.1 0 0.3 0 0.4 0.1 0.1 0.1 0 0.2-0.1 0.3l-2.4 1.9q-0.1 0.1-0.2 0.1z"/>
		</g>
		<g id="&lt;Group&gt;">
			<path id="&lt;Path&gt;" class="s2" d="m238.6 83q0 0-0.1-0.1l-1.5-0.8c-0.1 0-0.1-0.2-0.1-0.3 0.1-0.1 0.2-0.2 0.4-0.1l1.4 0.8c0.2 0 0.2 0.2 0.1 0.3q0 0.1-0.2 0.2z"/>
		</g>
		<g id="&lt;Group&gt;">
			<path id="&lt;Path&gt;" class="s2" d="m236.1 79.7q-2.6-0.4-4.2-2.6-1.6-2.3-2.3-4.5-1.1 0.1-1.8 1-0.6 0.6-1.2 1.5 0-3 1.6-4.4 1.6-1.4 2.9-0.9 3.4-1.7 6.7 1.4 3.3 3.2 1.4 8.6-1.7-0.8-3.1-0.1z"/>
		</g>
		<g id="&lt;Group&gt;">
			<path id="&lt;Compound Path&gt;" fill-rule="evenodd" class="s13" d="m233.7 97.5q-0.2 0-0.3 0c-2.1-0.3-3.7-3.2-4.1-4.1-0.8 0.6-2.7 2-4 1.8q-0.5-0.1-0.7-0.6c-0.4-0.6 0.8-2.4 1.3-3.2q0.1-0.1 0.2-0.1 0.1 0 0.2 0.1c0 0 1.8 1.4 4.5 1.5q0.1 0 0.1 0c2.7 0 4.2-1.7 4.2-1.7q0.1-0.2 0.2-0.1 0.2 0 0.2 0.2c0 0.2 0.5 4.5-0.9 5.8q-0.4 0.4-0.9 0.4zm-3.9-4.2c0.4 0.9 1.8 3.4 3.7 3.7q0.5 0 0.8-0.3c0.8-0.8 0.8-3.4 0.8-4.8-0.7 0.5-2.1 1.5-4.3 1.5q-0.5-0.1-1-0.1zm-3.6-1.4c-0.8 1.1-1.3 2.3-1.2 2.5q0.2 0.2 0.4 0.3c0.9 0.2 2.6-0.9 3.4-1.6-1.3-0.3-2.2-0.9-2.6-1.2z"/>
		</g>
		<g id="&lt;Group&gt;">
			<path id="&lt;Path&gt;" class="s13" d="m232 115.8c-0.2 0-0.3-0.1-0.2-0.3l1-5.6c0.1-0.1 0.2-0.2 0.3-0.2 0.2 0 0.2 0.2 0.2 0.3l-1 5.6c-0.1 0.1-0.2 0.2-0.3 0.2z"/>
		</g>
		<g id="&lt;Group&gt;">
			<path id="&lt;Path&gt;" class="s20" d="m234 136.7c-3.8 0-5.4-3.5-5.4-3.6 0-0.1 0-0.2 0.1-0.3 0.1 0 0.3 0 0.3 0.2 0.1 0.1 2.1 4.4 6.9 3 0.1-0.1 0.2 0 0.2 0.1 0.1 0.1 0 0.3-0.1 0.3q-1.1 0.3-2 0.3z"/>
		</g>
		<g id="&lt;Group&gt;">
			<g id="&lt;Group&gt;">
				<path id="&lt;Path&gt;" class="s23" d="m229.8 127.6q-1.7 3.5-3.9 5.1c-2.3 1.6-7.4 2.2-9 1.5-0.9-0.5-0.1-5.1-0.6-5.4-0.6-0.2-2.2 0.6-3.2-0.3q-1.1-1 2.4-3.1 4.9-3.1 6.3-2.7 1.5 0.4 4.3 1.5z"/>
			</g>
		</g>
		<g id="&lt;Group&gt;">
			<path id="&lt;Path&gt;" class="s2" d="m216.3 129.1c-0.1 0-0.2-0.1-0.3-0.2 0-0.2 0.1-0.3 0.2-0.3l2-0.3c0.1 0 0.3 0 0.3 0.2 0 0.1-0.1 0.2-0.2 0.3l-2 0.3q0 0 0 0z"/>
		</g>
		<g id="&lt;Group&gt;">
			<path id="&lt;Path&gt;" class="s2" d="m230.3 80.2q-0.1 0-0.1 0c-0.1 0-0.2-0.2-0.2-0.3l0.4-1.5-0.7-0.1c-0.2 0-0.3-0.1-0.3-0.2 0-0.2 0.2-0.3 0.3-0.3l1 0.1q0.2 0 0.2 0.1 0.1 0.1 0.1 0.2l-0.5 1.8c0 0.1-0.1 0.2-0.2 0.2z"/>
		</g>
		<g id="&lt;Group&gt;">
			<path id="&lt;Path&gt;" class="s2" d="m226 79.6q0 0 0 0c-0.2 0-0.2-0.2-0.2-0.3l0.4-1.5-0.7-0.1c-0.1 0-0.2-0.1-0.2-0.3 0-0.1 0.1-0.2 0.3-0.2l0.9 0.1q0.1 0 0.2 0.1 0.1 0.1 0 0.2l-0.4 1.8c-0.1 0.1-0.2 0.2-0.3 0.2z"/>
		</g>
		<g id="&lt;Group&gt;">
			<path id="&lt;Path&gt;" class="s2" d="m228.8 84.2q-0.1 0-0.1-0.1c-0.7-0.4-1.3-0.1-1.3-0.1-0.2 0.1-0.3 0-0.3-0.1-0.1-0.2 0-0.3 0.1-0.4 0 0 0.8-0.3 1.7 0.2 0.2 0.1 0.2 0.2 0.1 0.3q-0.1 0.2-0.2 0.2z"/>
		</g>
		<g id="&lt;Group&gt;">
			<path id="&lt;Path&gt;" class="s13" d="m219 120.4q0 0-2.8-0.3c-0.2 0-0.3-0.1-0.3-0.2 0.1-0.2 0.2-0.3 0.3-0.3l2.8 0.3c0.2 0 0.3 0.1 0.2 0.3 0 0.1-0.1 0.2-0.2 0.2z"/>
		</g>
		<g id="&lt;Group&gt;">
			<path id="&lt;Compound Path&gt;" fill-rule="evenodd" class="s2" d="m107.6 73.5c-0.9 0-1.4-0.6-1.5-1-0.1-0.1-0.1-0.2 0.1-0.3 0 0 0.9-0.4 1.8 0 0.5 0.3 0.9 0.5 0.9 0.8-0.1 0.3-0.4 0.4-1 0.5q-0.2 0-0.3 0zm-0.9-0.9c0.2 0.2 0.5 0.5 1.1 0.4q0.3-0.1 0.4-0.1-0.1-0.1-0.4-0.2c-0.4-0.2-0.9-0.2-1.1-0.1z"/>
		</g>
		<g id="&lt;Group&gt;">
			<g id="&lt;Group&gt;">
				<path id="&lt;Path&gt;" class="s3" d="m49.5 123.8c5 6.5 6.3 13.9 3 16.4-3.4 2.6-10.1-0.6-15.1-7.1-5-6.5-6.3-13.9-2.9-16.4 3.3-2.6 10.1 0.6 15 7.1z"/>
			</g>
			<g id="&lt;Group&gt;">
				<path id="&lt;Path&gt;" class="s3" d="m39.7 156.7c-6.3-1.2-10.9-4.8-10.3-8 0.6-3.2 6.2-4.9 12.5-3.7 6.3 1.2 10.9 4.7 10.2 8-0.6 3.2-6.1 4.9-12.4 3.7z"/>
			</g>
			<g id="&lt;Group&gt;">
				<path id="&lt;Path&gt;" class="s26" d="m57.5 163q-0.1 0-0.1 0c-0.1 0-0.2-0.1-0.2-0.3 4-16.8-13.7-33.9-13.9-34.1-0.1-0.1-0.1-0.2 0-0.3 0.1-0.1 0.2-0.1 0.3 0 0.2 0.1 18.2 17.4 14.1 34.5 0 0.2-0.1 0.2-0.2 0.2z"/>
			</g>
			<g id="&lt;Group&gt;">
				<path id="&lt;Path&gt;" class="s3" d="m68.1 130.3c6.2-6.2 13.9-8.7 17.1-5.4 3.2 3.2 0.7 10.8-5.5 17-6.2 6.2-13.9 8.7-17.1 5.5-3.2-3.2-0.7-10.8 5.5-17.1z"/>
			</g>
			<g id="&lt;Group&gt;">
				<path id="&lt;Path&gt;" class="s26" d="m57.5 162c-0.2 0-0.3-0.1-0.3-0.2 1.4-8.3-14.1-11.3-14.3-11.4-0.1 0-0.2-0.1-0.2-0.3 0-0.1 0.2-0.2 0.3-0.2 0.7 0.2 16.2 3.2 14.7 11.9 0 0.2-0.1 0.2-0.2 0.2z"/>
			</g>
			<g id="&lt;Group&gt;">
				<path id="&lt;Path&gt;" class="s26" d="m58.5 160.3c-0.2 0-0.3-0.1-0.2-0.3 3.7-18.5 18.3-29.8 18.5-29.9 0.1-0.1 0.2 0 0.3 0.1 0.1 0.1 0.1 0.2 0 0.3-0.2 0.1-14.7 11.3-18.3 29.6-0.1 0.2-0.2 0.2-0.3 0.2z"/>
			</g>
			<g id="&lt;Group&gt;">
				<path id="&lt;Path&gt;" class="s15" d="m68.7 182.5h-14.2c-0.8 0-1.4-0.5-1.5-1.3l-2.2-20.7c-0.1-0.8 0.6-1.6 1.5-1.6h18.6c0.9 0 1.6 0.8 1.5 1.6l-2.2 20.7c-0.1 0.8-0.7 1.3-1.5 1.3z"/>
			</g>
			<g id="&lt;Group&gt;">
				<path id="&lt;Path&gt;" class="s14" d="m65.6 182.5h-14.3c-0.7 0-1.4-0.5-1.5-1.3l-2.1-20.7c-0.1-0.8 0.6-1.6 1.5-1.6h18.6c0.8 0 1.5 0.8 1.5 1.6l-2.2 20.7c-0.1 0.8-0.8 1.3-1.5 1.3z"/>
			</g>
		</g>
		<g id="&lt;Group&gt;">
			<path id="&lt;Path&gt;" class="s1" d="m363.5 153.3l0.1 12.8-1.1 5.1-14.5-3.5 0.7-12.6z"/>
		</g>
		<g id="&lt;Group&gt;">
			<path id="&lt;Path&gt;" class="s1" d="m400.1 151.1l1 12.8-0.8 5.1-14.7-2.5-0.2-12.6z"/>
		</g>
		<g id="&lt;Group&gt;">
			<path id="&lt;Path&gt;" class="s12" d="m429.6 93.4q33.5 41.9-5.1 46.5c-37.2 4.4-61.2-20.8-53.5-51 7.7-30.2 28.3-21.1 29-20z"/>
		</g>
		<g id="&lt;Group&gt;">
			<path id="&lt;Path&gt;" class="s12" d="m384.5 124.3q-0.1 0-0.2 0c-8.2-8.7-9.6-18.7-9.6-18.8 0-0.1 0.1-0.2 0.2-0.2 0.2-0.1 0.3 0 0.3 0.2 0 0.1 1.4 9.9 9.4 18.4 0.1 0.1 0.1 0.3 0 0.4q0 0-0.1 0z"/>
		</g>
		<g id="&lt;Group&gt;">
			<path id="&lt;Path&gt;" class="s12" d="m359.9 85.4c13.8 6.9 23.8 19.8 26.6 35 2.1 12-0.6 24.2-18.3 27.8-36.7 7.5-61.1-20.8-53.4-51 7.6-30.2 28.2-21 29-19.9z"/>
		</g>
		<g id="&lt;Group&gt;">
			<path id="&lt;Path&gt;" class="s7" d="m328.2 132.7q-0.1 0-0.2-0.1c-8.1-8.7-9.5-18.6-9.5-18.7-0.1-0.2 0-0.3 0.2-0.3 0.1 0 0.2 0.1 0.3 0.2 0 0.1 1.4 9.9 9.4 18.5 0.1 0.1 0.1 0.2 0 0.3q-0.1 0.1-0.2 0.1z"/>
		</g>
		<g id="&lt;Group&gt;">
			<path id="&lt;Path&gt;" class="s27" d="m480.6 178.1c-0.7 0.4-39.4 1.4-40.3 0.7-0.4-0.2-0.5-2.1-0.4-4.7 0-4.8 2.1-13.1 3.2-18.2q13.6-0.2 14.8 0.5 1.3 0.7 15.1 10.6 5.1 1.5 7.2 4.3c0.5 0.8 0.9 1.7 1 2.6 0.4 2-0.2 3.9-0.6 4.2z"/>
		</g>
		<g id="&lt;Group&gt;">
			<path id="&lt;Path&gt;" class="s13" d="m480.6 178.1c-0.7 0.4-39.4 1.4-40.3 0.7-0.4-0.2-0.5-2.1-0.4-4.7l41.3-0.2c0.4 2-0.2 3.9-0.6 4.2z"/>
		</g>
		<g id="&lt;Group&gt;">
			<path id="&lt;Path&gt;" class="s13" d="m469.2 164.6q0 0-11.4-0.1-0.1 0-0.2-0.1 0-0.2 0.1-0.3l5.2-4.1c0.1 0 0.3 0 0.4 0.1 0.1 0.1 0 0.3-0.1 0.3l-4.6 3.6 10.6 0.1c0.1 0 0.2 0.1 0.2 0.2 0 0.2-0.1 0.3-0.2 0.3z"/>
		</g>
		<g id="&lt;Group&gt;">
			<path id="&lt;Path&gt;" class="s5" d="m456.7 181.2c-0.7 0.5-41.5 0.4-42.5-0.4-0.3-0.3-0.4-2.3-0.3-5 0.3-5.1 2.7-13.8 4-19.2q14.3 0.3 15.6 1.1 1.3 0.7 15.6 11.6 5.4 1.8 7.4 4.8c0.6 0.9 0.9 1.8 1 2.7 0.4 2.2-0.3 4.1-0.8 4.4z"/>
		</g>
		<g id="&lt;Group&gt;">
			<path id="&lt;Path&gt;" class="s13" d="m456.7 181.2c-0.7 0.5-41.5 0.4-42.5-0.4-0.3-0.3-0.4-2.3-0.3-5l43.6 1c0.4 2.2-0.3 4.1-0.8 4.4z"/>
		</g>
		<g id="&lt;Group&gt;">
			<path id="&lt;Path&gt;" class="s13" d="m445.1 166.6q0 0-11.9-0.4-0.2 0-0.3-0.1 0-0.2 0.1-0.3l5.7-4.1c0.1-0.1 0.3-0.1 0.3 0 0.1 0.1 0.1 0.3 0 0.4l-5.1 3.7 11.2 0.3c0.2 0 0.3 0.1 0.3 0.3 0 0.1-0.1 0.2-0.3 0.2z"/>
		</g>
		<g id="&lt;Group&gt;">
			<path id="&lt;Path&gt;" class="s4" d="m366.5 91q29.5 10.9 33.7 16.4c3.6 4.8 8.2 51.1 7.4 52-0.9 0.9-26.7 1.2-27.8 0.4-1.1-0.7-6.5-34.8-8.1-34.9q-1.6-0.1-31.8-30.1z"/>
		</g>
		<g id="&lt;Group&gt;">
			<path id="&lt;Path&gt;" class="s4" d="m369 99.6q7.2 1 9.4 7.7c2.2 6.7-8.1 52.2-8.6 52.4-0.5 0.3-26-0.6-26.6-0.9q-0.7-0.3 5.2-39.2-9.3-4.5-10.2-8.9-0.9-4.4 0.2-16.2z"/>
		</g>
		<g id="&lt;Group&gt;">
			<path id="&lt;Compound Path&gt;" fill-rule="evenodd" class="s2" d="m348.7 119.9q-0.2 0-0.2-0.2c-0.1-0.9-0.9-8.5 0.5-9.8q0.3-0.3 0.7-0.2 0.3 0.1 0.6 0.5c1 1.8-1.1 8.7-1.4 9.5q0 0.2-0.2 0.2zm0.8-9.7q-0.1 0-0.2 0.1c-0.8 0.7-0.7 4.8-0.5 8 0.7-2.5 1.7-6.7 1-7.9-0.1-0.1-0.2-0.2-0.2-0.2q-0.1 0-0.1 0z"/>
		</g>
		<g id="&lt;Group&gt;">
			<path id="&lt;Path&gt;" class="s8" d="m431.4 89.5q27.4 13.1 30.5 18.5 3.1 5.4-0.3 49.3l-22.4 0.3-3.1-24.6-17-41.3z"/>
		</g>
		<g id="&lt;Group&gt;">
			<path id="&lt;Path&gt;" class="s8" d="m423.2 93.7q17.2 14.7 17.7 18.8 0.4 4.1-0.2 47.2l-25.9-1.2-0.5-37.8q-10.6-9.3-12.1-12.9-1.8-4.5 0.7-15.7z"/>
		</g>
		<g id="&lt;Group&gt;">
			<path id="&lt;Path&gt;" class="s13" d="m442.2 157.6c-0.1 0-0.2-0.1-0.2-0.2 0-0.4 2.6-40.5 1.6-45.2-0.6-3.2-12.3-14-12.4-14.1q-0.1-0.1-0.1-0.2 0.1-0.2 0.2-0.2l7-2.7c0.1-0.1 0.2 0 0.3 0.1 0 0.2 0 0.3-0.1 0.4l-6.7 2.5c1.9 1.7 11.7 11 12.3 14.1 1 4.8-1.5 43.6-1.6 45.3 0 0.1-0.1 0.2-0.3 0.2z"/>
		</g>
		<g id="&lt;Group&gt;">
			<path id="&lt;Compound Path&gt;" fill-rule="evenodd" class="s13" d="m414.4 123q0 0-0.1 0-0.1-0.1-0.1-0.3c0-0.1 0.4-3.9 2.2-5.1q0.8-0.6 1.9-0.2 1 0.3 1 0.9c0.2 1.7-4.2 4.4-4.7 4.7q-0.1 0-0.2 0zm3.1-5.3q-0.4 0-0.9 0.3c-1.2 0.8-1.7 3.2-1.8 4.3 1.8-1.1 4.1-3 4-3.9q0-0.4-0.6-0.6-0.4-0.1-0.7-0.1z"/>
		</g>
		<g id="&lt;Group&gt;">
			<path id="&lt;Path&gt;" class="s14" d="m382.1 180q0.5-19.9 3.5-19.4 3.1 0.4 6.2 3.3 7.1-3.8 10.1-1.7 3.1 2.1 4.9 6.6l14.3 7.5c2.6 1.4 4.4 4.1 4.5 7.1 0 0.6 0 1.2-0.1 1.6-0.5 1.2-26.6 0.5-38.1 0.1-2.9-0.1-5.3-2.3-5.3-5.1z"/>
		</g>
		<g id="&lt;Group&gt;">
			<path id="&lt;Path&gt;" class="s14" d="m377.2 184.3c0 1.7-7.2 3-12.1 2.9-10.5-0.2-18.4-4.7-19.4-7.2-1.1-2.6-0.1-14.1 1.4-17.3q1.5-3.2 7.2 3.1 7.1-5.6 9.9-3.7 2.7 1.9 6.7 12.5c1.7 1.8 6.4 7 6.3 9.7z"/>
		</g>
		<g id="&lt;Group&gt;">
			<path id="&lt;Path&gt;" class="s11" d="m601.2 66.2c0.7-1.1 21.3-10.2 29 20 7.7 30.2-16.3 55.4-53.5 51q-38.6-4.6-5.1-46.5z"/>
		</g>
		<g id="&lt;Group&gt;">
			<path id="&lt;Path&gt;" class="s12" d="m616.7 121.6q-0.1 0-0.1 0c-0.1-0.1-0.1-0.3 0-0.4 8-8.5 9.4-18.3 9.4-18.4 0-0.2 0.1-0.3 0.3-0.3 0.1 0.1 0.2 0.2 0.2 0.3 0 0.1-1.4 10.1-9.6 18.7q-0.1 0.1-0.2 0.1z"/>
		</g>
		<g id="&lt;Group&gt;">
			<path id="&lt;Path&gt;" class="s2" d="m594 35.1q7.2 0 8.4 8.8 1.2 8.9-1.1 21.2l-20.8-2.8 1.9-12.9z"/>
		</g>
		<g id="&lt;Group&gt;">
			<path id="&lt;Path&gt;" class="s1" d="m578 157.9l0.8 10.3-14.6 4.1-2.9-14.4z"/>
		</g>
		<g id="&lt;Group&gt;">
			<path id="&lt;Path&gt;" class="s1" d="m535.5 161l-3.3 9.8-15.1-1.9 3-14.4z"/>
		</g>
		<g id="&lt;Group&gt;">
			<g id="&lt;Group&gt;">
				<path id="&lt;Path&gt;" class="s4" d="m513.3 163.7q2.3-4.6 4.9-4.1 2.5 0.4 4.6 6.7 9.9 2 10.4 2.8c0.4 0.9-3.7 15.9-4.5 16-0.7 0-40.8-11-42.6-11.8-1.7-0.7 3-7.7 7-8.1q4-0.4 7.8 0.7z"/>
			</g>
		</g>
		<g id="&lt;Group&gt;">
			<path id="&lt;Path&gt;" class="s5" d="m510.5 157q15.4-42.7 27.5-50.9 9.9-6.7 20.6-7.6l-5.8 38.7-14.8 25.6z"/>
		</g>
		<g id="&lt;Group&gt;">
			<path id="&lt;Path&gt;" class="s1" d="m530.1 86.2l7.5-1.3q6.2 5.3 3.9 8.6-2.3 3.2-12.6 3.9z"/>
		</g>
		<g id="&lt;Group&gt;">
			<path id="&lt;Path&gt;" class="s22" d="m533.4 103.1l-16.6 5.1c-0.9 0.3-1.8-0.3-2-1.3l-4.7-28.9c-0.2-1 0.4-2 1.4-2.3l16.6-5.1c0.9-0.3 1.8 0.3 1.9 1.2l4.8 29c0.1 1-0.5 2-1.4 2.3z"/>
		</g>
		<g id="&lt;Group&gt;">
			<path id="&lt;Path&gt;" class="s11" d="m535.5 102.4l-16.6 5.1c-0.9 0.3-1.8-0.3-1.9-1.2l-4.8-29c-0.1-1 0.5-2 1.4-2.2l16.6-5.2c0.9-0.2 1.8 0.3 2 1.3l4.7 28.9c0.2 1-0.5 2-1.4 2.3z"/>
		</g>
		<g id="&lt;Group&gt;">
			<path id="&lt;Path&gt;" class="s6" d="m519.8 77.3q-0.5 0-0.9-0.3c-0.4-0.2-0.7-0.6-0.8-1.1l-0.5-2c0-0.1 0.1-0.3 0.2-0.3 0.2 0 0.3 0 0.3 0.2l0.4 2c0.1 0.4 0.3 0.6 0.6 0.8 0.3 0.2 0.7 0.2 1 0.1l5.7-1.7c0.6-0.2 0.9-0.8 0.8-1.4l-0.5-2.4c0-0.2 0.1-0.3 0.2-0.3 0.2-0.1 0.3 0 0.3 0.2l0.5 2.4c0.2 0.9-0.3 1.7-1.2 2l-5.6 1.7q-0.3 0.1-0.5 0.1z"/>
		</g>
		<g id="&lt;Group&gt;">
			<g id="&lt;Group&gt;">
				<path id="&lt;Path&gt;" class="s1" d="m540.8 84.5q17-2.7 22.1-4.6 5-2 12.5 8.5l-2.9 8.7q-10.9 1.1-21.9 0.2-6.3-0.6-11.5-3.2z"/>
			</g>
		</g>
		<g id="&lt;Group&gt;">
			<path id="&lt;Path&gt;" class="s1" d="m540.8 90.5q-5.1 0-7.2-7.4-5.1 0.5-5.1-1.1c0-1.6 4.6-3.8 6.9-2.4q2.3 1.4 5.4 4.9 5.1 6 0 6z"/>
		</g>
		<g id="&lt;Group&gt;">
			<path id="&lt;Path&gt;" class="s2" d="m539.8 90.2c-4.7 0-5.7-5.2-5.8-5.3 0-0.1 0.1-0.3 0.2-0.3 0.2 0 0.3 0.1 0.3 0.2 0.1 0.2 1 4.9 5.3 4.9q0.1 0 0.1 0c0.2 0 0.3 0.1 0.3 0.3 0 0.1-0.1 0.2-0.3 0.2q0 0-0.1 0z"/>
		</g>
		<g id="&lt;Group&gt;">
			<path id="&lt;Path&gt;" class="s4" d="m564.1 74.4l11.3 18.7q0.2 3.3-12.5 4.6-12.6 1.2-21.1-1.4l0.2-12.5q14.2-1.8 22.1-9.4z"/>
		</g>
		<g id="&lt;Group&gt;">
			<g id="&lt;Group&gt;">
				<path id="&lt;Path&gt;" class="s4" d="m558 80.7q6.5-6.1 8.9-9.6c2.4-3.5 6.2-8.5 11.5-11.7 5.2-3.2 18.3-4.8 27.3 1.1 9 5.8 13.1 13.7 14.7 22.2q1.5 8.5-3.4 14.2l-25 0.8-19.5-0.6q-6.2-12.9-14.5-16.4z"/>
			</g>
		</g>
		<g id="&lt;Group&gt;">
			<path id="&lt;Path&gt;" class="s13" d="m594 56.6l5 42.7-15.7-1.9 2.4-39.9z"/>
		</g>
		<g id="&lt;Group&gt;">
			<g id="&lt;Group&gt;">
				<g id="&lt;Group&gt;">
					<g id="&lt;Group&gt;">
						<g id="&lt;Group&gt;">
							<path id="&lt;Path&gt;" class="s1" d="m592.8 51.5l1.2-0.3-0.2 6.1q-1.3 1.7-5.3 1.9-3 0.2-2.8-0.4l-0.1-2.6-0.1-3.2v-0.2z"/>
						</g>
					</g>
				</g>
			</g>
		</g>
		<g id="&lt;Group&gt;">
			<g id="&lt;Group&gt;">
				<g id="&lt;Group&gt;">
					<g id="&lt;Group&gt;">
						<g id="&lt;Group&gt;">
							<path id="&lt;Path&gt;" class="s2" d="m585.5 52.9l7.3-1.4q0 0.3-0.2 0.6c-1.5 3.1-5 3.9-7 4.1l-0.1-3.2z"/>
						</g>
					</g>
				</g>
			</g>
		</g>
		<g id="&lt;Group&gt;">
			<g id="&lt;Group&gt;">
				<g id="&lt;Group&gt;">
					<g id="&lt;Group&gt;">
						<g id="&lt;Group&gt;">
							<path id="&lt;Path&gt;" class="s1" d="m595.6 42.3l-1.3 2.4q1.7-1 3.1-0.4c1.4 0.7 2.3 3.3 0.7 5.5q-1.6 2.3-4.1 1.4-1.2 1.6-3.8 2.5c-2.6 0.9-7 1.7-8.3-3.1q-1.3-4.8 2.4-13.3 6-7.7 11.3 5z"/>
						</g>
					</g>
				</g>
			</g>
		</g>
		<g id="&lt;Group&gt;">
			<g id="&lt;Group&gt;">
				<path id="&lt;Path&gt;" class="s20" d="m554.4 162.8q-11.4-47.5-5.2-58.5 6.1-11 47.3-8.4l14.5 1.2q5.2 16.6-4 21.5-7.3 3.8-29.6 7.7l5.9 36.5z"/>
			</g>
		</g>
		<g id="&lt;Group&gt;">
			<path id="&lt;Path&gt;" class="s2" d="m584.9 47.6c-0.1 0-0.2-0.1-0.3-0.2-0.5-1.7 0.7-3.5 0.8-3.6 0.1-0.1 0.2-0.1 0.3 0 0.1 0 0.2 0.2 0.1 0.3 0 0-1.1 1.7-0.7 3.2 0.1 0.1 0 0.2-0.1 0.3q-0.1 0-0.1 0z"/>
		</g>
		<g id="&lt;Group&gt;">
			<path id="&lt;Path&gt;" class="s2" d="m594.9 48.8q-0.1 0-0.2-0.1c-0.1-0.1-0.1-0.2 0-0.3l2.2-2.4c0.1-0.1 0.3-0.1 0.4 0 0.1 0.1 0.1 0.2 0 0.3l-2.2 2.4q-0.1 0.1-0.2 0.1z"/>
		</g>
		<g id="&lt;Group&gt;">
			<path id="&lt;Path&gt;" class="s2" d="m597.2 48.1q0 0-1.5-0.2c-0.2 0-0.3-0.1-0.2-0.3 0-0.1 0.1-0.2 0.2-0.2l1.6 0.2c0.1 0.1 0.2 0.2 0.2 0.3 0 0.2-0.1 0.2-0.3 0.2z"/>
		</g>
		<g id="&lt;Group&gt;">
			<path id="&lt;Path&gt;" class="s2" d="m590 41.6q-0.1 0-0.2-0.1c-0.4-0.8-1.4-0.6-1.4-0.5-0.2 0-0.3-0.1-0.3-0.2-0.1-0.2 0-0.3 0.2-0.3 0 0 1.4-0.3 1.9 0.7 0.1 0.2 0.1 0.3-0.1 0.4q0 0-0.1 0z"/>
		</g>
		<g id="&lt;Group&gt;">
			<path id="&lt;Path&gt;" class="s2" d="m585.2 40.9q-0.1 0-0.2-0.1-0.2-0.3-0.5-0.4c-0.5 0-1 0.4-1 0.4-0.1 0.1-0.3 0.1-0.3 0-0.1-0.1-0.1-0.2 0-0.3 0-0.1 0.7-0.6 1.4-0.6q0.5 0.1 0.8 0.6c0.1 0.1 0.1 0.3 0 0.4q-0.1 0-0.2 0z"/>
		</g>
		<g id="&lt;Group&gt;">
			<path id="&lt;Path&gt;" class="s8" d="m574.6 96.6c-0.1 0-0.2-0.1-0.2-0.2l0.2-17c0-0.1 0.1-0.2 0.2-0.2 0.2 0 0.3 0.1 0.3 0.2l-0.2 17c0 0.1-0.2 0.2-0.3 0.2z"/>
		</g>
		<g id="&lt;Group&gt;">
			<path id="&lt;Compound Path&gt;" fill-rule="evenodd" class="s13" d="m577.4 126.5q-0.1 0-0.1 0c-0.3-0.2-5.6-4.1-5.5-6.6q0-0.8 0.9-1.3 0.9-0.5 1.7-0.1c2.3 1.1 3.2 7.5 3.2 7.7q0.1 0.2-0.1 0.3 0 0-0.1 0zm-3.8-7.7q-0.3 0-0.6 0.2-0.7 0.4-0.7 1c-0.1 1.6 3 4.4 4.8 5.7-0.3-1.6-1.3-5.9-2.9-6.8q-0.3-0.1-0.6-0.1z"/>
		</g>
		<g id="&lt;Group&gt;">
			<path id="&lt;Path&gt;" class="s2" d="m584.1 44.2c-0.2-0.1-0.3-0.2-0.3-0.3l0.2-1.4-0.5-0.5c-0.1-0.1-0.1-0.2 0-0.3 0.1-0.2 0.2-0.2 0.3-0.1l0.7 0.6q0 0.1 0 0.2l-0.2 1.6c0 0.1-0.1 0.2-0.2 0.2z"/>
		</g>
		<g id="&lt;Group&gt;">
			<path id="&lt;Path&gt;" class="s2" d="m588.6 44.5c-0.2 0-0.3-0.1-0.3-0.2l0.2-1.4-0.7-0.5c-0.1-0.1-0.1-0.3 0-0.4 0.1-0.1 0.2-0.1 0.3 0l0.8 0.6q0.2 0 0.1 0.2l-0.2 1.5c0 0.1-0.1 0.2-0.2 0.2z"/>
		</g>
		<g id="&lt;Group&gt;">
			<path id="&lt;Compound Path&gt;" fill-rule="evenodd" class="s2" d="m587.1 50.3c-0.8 0-1.6-0.7-1.7-0.8q-0.1-0.1-0.1-0.2 0.1-0.2 0.2-0.2l2.9-0.6q0.1 0 0.2 0.1 0.1 0.1 0.1 0.2c-0.1 0.1-0.4 1.3-1.3 1.4q-0.2 0.1-0.3 0.1zm-0.9-0.9c0.3 0.2 0.8 0.4 1.1 0.4 0.3-0.1 0.5-0.4 0.7-0.7z"/>
		</g>
		<g id="&lt;Group&gt;">
			<path id="&lt;Compound Path&gt;" fill-rule="evenodd" class="s8" d="m564.7 81.9c-2.5 0-3.6-5-3.7-5.2q0-0.2 0.1-0.3 0.2-0.1 0.3 0c0.8 0.6 4.7 3.7 4.3 5 0 0.2-0.2 0.4-0.7 0.5q-0.2 0-0.3 0zm-3-4.6c0.5 1.6 1.6 4.1 3 4.1q0.1 0 0.2 0c0.1 0 0.3-0.1 0.4-0.2 0.1-0.6-1.9-2.5-3.6-3.9z"/>
		</g>
		<g id="&lt;Group&gt;">
			<g id="&lt;Group&gt;">
				<path id="&lt;Path&gt;" class="s4" d="m559.1 168.3q0.5-5 3.1-5.5 2.5-0.4 6.6 4.7 10-1.5 10.7-0.9c0.8 0.7 2.1 16.2 1.4 16.5-0.7 0.3-42.2 3.8-44.1 3.7-1.9-0.1 0.2-8.3 3.8-10.1q3.6-1.7 7.6-2z"/>
			</g>
		</g>
		<g id="&lt;Group&gt;">
			<path id="&lt;Path&gt;" class="s1" d="m573.8 97.1q1.1-0.6 5.3-0.2-5-0.9-3.7-2.6c1.3-1.8 8.2-0.8 9.7-2.1 2.8-2.3-0.9-1.2-2.4-1.6-1.6-0.4-2.9-1.1 0.6-3.1 1-0.5 2.3-1.2 3.5-1.7 2.3-1 4.9 0.1 5.7 2.5l2.4 7.3c-2 1.6-5.9 3.9-12.3 4.4-5.1 0.4-9.9-2.2-8.8-2.9z"/>
		</g>
		<g id="&lt;Group&gt;">
			<path id="&lt;Path&gt;" class="s2" d="m581.1 97.1c-1 0-2-0.2-2.9-0.7-0.1 0-0.2-0.2-0.1-0.3 0.1-0.1 0.2-0.2 0.4-0.1 1.9 1.1 5.1 0.3 5.1 0.3 0.1-0.1 0.3 0 0.3 0.1 0 0.2 0 0.3-0.2 0.3-0.1 0.1-1.2 0.4-2.6 0.4z"/>
		</g>
		<g id="&lt;Group&gt;">
			<path id="&lt;Path&gt;" class="s2" d="m585.9 91.5c-0.1 0-0.2-0.1-0.3-0.2 0-0.2 0.1-0.3 0.3-0.3l2.2-0.2c0.1 0 0.2 0.1 0.2 0.2 0.1 0.2 0 0.3-0.2 0.3l-2.2 0.2q0 0 0 0z"/>
		</g>
		<g id="&lt;Group&gt;">
			<path id="&lt;Path&gt;" class="s2" d="m594.3 44.7q-3.9-3.4-6-4.3-2.1-0.9-2.1-0.9v-2.7l-1 2.8-2.3 0.1q1-5.8 5.7-5.8c4.7-0.1 7.4 2 8.6 4.7q1.2 2.7 0.7 6.1-1.8-0.8-3.6 0z"/>
		</g>
		<g id="&lt;Group&gt;">
			<path id="&lt;Path&gt;" class="s4" d="m602.7 79.6q18.8-6.7 18 9.1-0.9 15.9-28.7 9l-1.5-12.8z"/>
		</g>
		<g id="&lt;Group&gt;">
			<path id="&lt;Path&gt;" class="s8" d="m597.6 81.9q-0.1 0-0.2-0.1c0-0.1 0-0.3 0.1-0.4 0.3-0.1 7.6-3.5 12.1-3.3 0.1 0 0.2 0.1 0.2 0.2 0 0.2-0.1 0.3-0.3 0.3q-0.1 0-0.3 0c-4.4 0-11.4 3.3-11.5 3.3q0 0-0.1 0z"/>
		</g>
		<g id="&lt;Group&gt;">
			<path id="&lt;Compound Path&gt;" fill-rule="evenodd" class="s8" d="m602.7 79.9q-0.1 0-0.2-0.1c0-0.1 0-0.3 0-0.3 0.4-0.5 3.7-4.5 5.2-4.5q0.4 0 0.6 0.3 0.4 0.4 0.2 0.8c-0.4 1.7-5.1 3.5-5.7 3.7q0 0.1-0.1 0.1zm5-4.4c-0.9 0-2.9 2.1-4.1 3.5 1.7-0.7 4.2-2 4.5-3q0-0.2-0.2-0.4c0-0.1-0.1-0.1-0.2-0.1z"/>
		</g>
		<g id="&lt;Group&gt;">
			<path id="&lt;Path&gt;" class="s2" d="m432.7 47.9v10.8l-26 1.2q-7.5-5.3-4.6-12 2.9-6.7 9.2-7.5z"/>
		</g>
		<g id="&lt;Group&gt;">
			<g id="&lt;Group&gt;">
				<path id="&lt;Path&gt;" class="s1" d="m417 46.7l6.8 1.6 0.4 3.2 0.4 3.3q-1 0.6-3.8 0.4-3.8-0.4-5-2.2v-6.5z"/>
			</g>
		</g>
		<g id="&lt;Group&gt;">
			<g id="&lt;Group&gt;">
				<path id="&lt;Path&gt;" class="s2" d="m423.8 48.3l0.4 3.2c-1.6-0.2-5.6-0.9-7-4.1q-0.2-0.4-0.2-0.7z"/>
			</g>
		</g>
		<g id="&lt;Group&gt;">
			<g id="&lt;Group&gt;">
				<path id="&lt;Path&gt;" class="s1" d="m425.3 33.5q3.4 8.1 2.1 12.6c-1.4 4.6-5.5 3.8-8 2.8q-2.4-0.9-3.6-2.4-2.3 0.7-3.8-1.5c-1.5-2.1-0.5-4.6 0.8-5.1q1.4-0.6 2.9 0.4l-1.2-2.4q5.4-11.8 10.8-4.4z"/>
			</g>
		</g>
		<g id="&lt;Group&gt;">
			<path id="&lt;Path&gt;" class="s2" d="m415.5 43.8q-0.1 0-0.2 0l-2.9-2.1c-0.1-0.1-0.1-0.3-0.1-0.4 0.1-0.1 0.3-0.1 0.4-0.1l2.9 2.2c0.1 0 0.1 0.2 0.1 0.3q-0.1 0.1-0.2 0.1z"/>
		</g>
		<g id="&lt;Group&gt;">
			<path id="&lt;Path&gt;" class="s2" d="m412.8 43.8c-0.1 0-0.2-0.1-0.2-0.2-0.1-0.2 0-0.3 0.1-0.3l2-0.5c0.1-0.1 0.2 0 0.3 0.2 0 0.1-0.1 0.2-0.2 0.3l-1.9 0.5q-0.1 0-0.1 0z"/>
		</g>
		<g id="&lt;Group&gt;">
			<path id="&lt;Path&gt;" class="s2" d="m425.1 42.8c-0.2-0.1-0.3-0.2-0.3-0.3 0.3-2-0.9-3-1-3.1-0.1 0-0.1-0.2 0-0.3 0.1-0.1 0.2-0.1 0.4 0 0 0 1.5 1.2 1.1 3.5 0 0.1-0.1 0.2-0.2 0.2z"/>
		</g>
		<g id="&lt;Group&gt;">
			<path id="&lt;Path&gt;" class="s2" d="m426.3 36.2q0 0-1.2-0.1c-0.2 0-0.3-0.1-0.3-0.3 0-0.1 0.2-0.2 0.3-0.2l1.2 0.1c0.2 0.1 0.3 0.2 0.3 0.3-0.1 0.1-0.2 0.2-0.3 0.2z"/>
		</g>
		<g id="&lt;Group&gt;">
			<path id="&lt;Path&gt;" class="s2" d="m420.8 37.3q-0.2 0-0.3-0.1c0-0.2 0-0.3 0.2-0.4l1.6-0.7c0.2-0.1 0.3 0 0.4 0.1 0 0.2 0 0.3-0.2 0.4l-1.6 0.7q-0.1 0-0.1 0z"/>
		</g>
		<g id="&lt;Group&gt;">
			<path id="&lt;Path&gt;" class="s1" d="m377.1 65.5q9.8 5.5 16.4 4.5 6.5-1.1-6.4 14-26.3 3-22.3-11 4-14 12.3-7.5z"/>
		</g>
		<g id="&lt;Group&gt;">
			<path id="&lt;Path&gt;" class="s1" d="m431 55.7q-4.5-0.9-2.9-8.7-1.8 1.1-2.4 0.6-0.6-0.5 0-1.3-0.6-1.4 0-2.5c0.6-1.2 3.7-4.2 5.2-4.4q1.6-0.2 4.7 10.9 0 6.3-4.6 5.4z"/>
		</g>
		<g id="&lt;Group&gt;">
			<path id="&lt;Path&gt;" class="s2" d="m425.9 46.3q-0.1-0.1-0.2-0.1c-0.1-0.2-0.1-0.3 0-0.4l3.4-2.6c0.1-0.1 0.3-0.1 0.4 0 0 0.1 0 0.3-0.1 0.3l-3.4 2.7q0 0.1-0.1 0.1z"/>
		</g>
		<g id="&lt;Group&gt;">
			<path id="&lt;Path&gt;" class="s2" d="m426.4 43.6q-0.1 0-0.2-0.1c-0.1-0.1-0.1-0.3 0-0.4l2.9-1.8c0.1-0.1 0.3-0.1 0.4 0.1 0 0.1 0 0.2-0.1 0.3l-2.9 1.9q0 0-0.1 0z"/>
		</g>
		<g id="&lt;Group&gt;">
			<path id="&lt;Path&gt;" class="s11" d="m426.6 78.1q7.1-6.2 6.1-10.8-1-4.6-3.8-9.5l6.7-7.9q10 11.8 12.6 22.8c2.7 11-0.5 16.5-8.2 15.4q-6.9-1-13.4-10z"/>
		</g>
		<g id="&lt;Group&gt;">
			<g id="&lt;Group&gt;">
				<path id="&lt;Path&gt;" class="s11" d="m402.3 71.7l11.2 12.7q-2.3-2-7.4-0.4-5.1 1.7-4.2 8-21.1-1.4-16.9-15.5 4.4-15 22.1-21.9z"/>
			</g>
		</g>
		<g id="&lt;Group&gt;">
			<g id="&lt;Group&gt;">
				<path id="&lt;Path&gt;" class="s11" d="m434.7 77.1q-0.8 3.2-0.8 3.8c0 0.7-0.8 8.3-1.3 9.6-0.5 1.3-5.1 5.1-14.8 4.4-9.8-0.6-16-1.8-17.5-3.4-1.5-1.7 0.5-31.7 3-34.6q2.4-3 9-3.2-0.5-1.6 0.9-2.3c1.3-0.6 5.9 1.5 8.4 1.7 2.4 0.1 3.4-0.7 4.4-0.5q1 0.1 1.3 2.3 3.4 2.1 6.2 9 2.8 7 1.2 13.2z"/>
			</g>
		</g>
		<g id="&lt;Group&gt;">
			<path id="&lt;Path&gt;" class="s1" d="m430.1 81.4q9.9 1.3 9 2.9-0.8 1.7-8.9 1.1 9.9 0 7.5 2.3-2.3 2.3-9.4 2.7l-4.1-3.3 2-6.1z"/>
		</g>
		<g id="&lt;Group&gt;">
			<path id="&lt;Path&gt;" class="s28" d="m432.7 79.6q-0.1 0-0.1-0.1c-0.2 0-0.2-0.2-0.1-0.3 0 0 2.3-4.5 2.2-9.7-0.1-5.1-4-10.5-4-10.5-0.1-0.1-0.1-0.3 0-0.4 0.1-0.1 0.3 0 0.4 0.1 0.1 0.2 4 5.6 4.1 10.8 0.1 5.3-2.3 9.9-2.3 9.9q-0.1 0.2-0.2 0.2z"/>
		</g>
		<g id="&lt;Group&gt;">
			<path id="&lt;Path&gt;" class="s1" d="m426 75.7q1.7-0.1 0 3 14.3 0 11.8 2.4c-1.3 1.2-5.8 0.7-6.4 1.8-0.7 1.1-1.5 7.1-3.1 7.5q-1.6 0.3-8.8-0.3v-10.2q4.7-4.2 6.5-4.2z"/>
		</g>
		<g id="&lt;Group&gt;">
			<path id="&lt;Path&gt;" class="s2" d="m423 45q-0.1 0-0.2-0.1l-1.1-1c-0.1 0-0.1-0.2-0.1-0.3 0.1-0.1 0.3-0.1 0.4 0l1.1 0.9c0.2 0.1 0.2 0.3 0.1 0.4q-0.1 0.1-0.2 0.1z"/>
		</g>
		<g id="&lt;Group&gt;">
			<path id="&lt;Path&gt;" class="s2" d="m422 39.8c-0.1 0-0.2-0.1-0.2-0.2l-0.4-1.5q0-0.1 0-0.2l0.4-0.7c0.1-0.2 0.2-0.2 0.4-0.1 0.1 0 0.1 0.2 0.1 0.3l-0.4 0.7 0.4 1.4c0 0.1-0.1 0.2-0.2 0.3q0 0-0.1 0z"/>
		</g>
		<g id="&lt;Group&gt;">
			<path id="&lt;Path&gt;" class="s2" d="m426.1 39.5c-0.1 0-0.2-0.1-0.2-0.2l-0.4-1.5q0-0.1 0-0.1l0.4-1c0.1-0.1 0.2-0.2 0.4-0.1 0.1 0 0.1 0.2 0.1 0.3l-0.4 0.9 0.4 1.4c0 0.1-0.1 0.3-0.2 0.3q0 0-0.1 0z"/>
		</g>
		<g id="&lt;Group&gt;">
			<path id="&lt;Path&gt;" class="s2" d="m426 78.9q-0.1 0-2.1 0c-0.1 0-0.2-0.1-0.2-0.2 0-0.2 0.1-0.3 0.2-0.3q0 0 2.1 0c0.1 0 0.2 0.1 0.2 0.3 0 0.1-0.1 0.2-0.2 0.2z"/>
		</g>
		<g id="&lt;Group&gt;">
			<path id="&lt;Path&gt;" class="s2" d="m411.3 42.4q-2-1-2.3-4.4-0.4-3.3 2-4.2 0.2-6.5 8-6 7.7 0.6 6.3 5.7l-1.2-1.4q0.3 0.3-1.1 3.1-1.5 2.7-6.2 4.4l0.7 2.8-1.8-2.1q-3.5-1.4-4.4 2.1z"/>
		</g>
		<g id="&lt;Group&gt;">
			<path id="&lt;Path&gt;" class="s28" d="m417 75.2q0 0-0.1 0c-0.1 0-11-3.7-18.9-2.1-0.1 0.1-0.2 0-0.3-0.2 0-0.1 0.1-0.2 0.2-0.3 8-1.6 19.1 2.1 19.2 2.2 0.1 0 0.2 0.1 0.1 0.3q0 0.1-0.2 0.1z"/>
		</g>
		<g id="&lt;Group&gt;">
			<path id="&lt;Compound Path&gt;" fill-rule="evenodd" class="s28" d="m406.3 72.9q0 0-0.1 0c-1.4-0.5-6-2.1-6.1-3.4 0-0.2 0.1-0.5 0.6-0.7 2.6-1.2 5.7 3.5 5.8 3.7q0.1 0.2 0 0.3-0.1 0.1-0.2 0.1zm-4.7-3.8q-0.4 0-0.7 0.1c-0.1 0.1-0.3 0.2-0.3 0.3 0 0.6 2.5 1.8 5.1 2.7-0.8-1.1-2.6-3.1-4.1-3.1z"/>
		</g>
		<g id="&lt;Group&gt;">
			<path id="&lt;Path&gt;" class="s28" d="m416.9 55c-1.9 0-4.5-1-4.7-1-0.1-0.1-0.2-0.2-0.1-0.4 0-0.1 0.2-0.2 0.3-0.1 0 0 2.9 1.1 4.8 1 0.1 0 0.2 0.1 0.2 0.2 0 0.2-0.1 0.3-0.2 0.3q-0.1 0-0.3 0z"/>
		</g>
		<g id="&lt;Group&gt;">
			<path id="&lt;Path&gt;" class="s20" d="m366.1 92.7q-6.5 3.4-16.2 0.7l-3.3-40.1 6.2-2.3 6.7 0.5 5.4 4.2q7.6 33.6 1.2 37z"/>
		</g>
		<g id="&lt;Group&gt;">
			<path id="&lt;Path&gt;" class="s19" d="m340 54.8c3-2.8 7.9-3.5 10.8-3.7q-0.7 19 0.3 30.6c0.6 6.7 0.9 11.3 1.1 14q-6.9 0.2-14.7 0-2-36.7 2.5-40.9z"/>
		</g>
		<g id="&lt;Group&gt;">
			<path id="&lt;Path&gt;" class="s19" d="m371.2 81.2q0 7.1-0.2 12.8 0.3-0.3-4.5 0.5c0-5.2-0.8-14.3-1.6-22q-1.1-9.9-5.4-21l-8.7-0.4c0.9-0.1 1.6-0.1 2-0.1q0.3 0 0.4 0 9.8 0.4 14.5 2.9 0.1 0 0.3 0.1c0.8 0.5 1.4 1.1 1.8 1.7 1.3 2.4 1.5 15.4 1.4 25.5z"/>
		</g>
		<g id="&lt;Group&gt;">
			<path id="&lt;Path&gt;" class="s19" d="m339.7 77.7q-5.4-0.5-9.2-0.5-3.7 0-9.9 1 1.8-8.4 7.4-15.8 6.5-8.7 17.5-10.4z"/>
		</g>
		<g id="&lt;Group&gt;">
			<path id="&lt;Path&gt;" class="s2" d="m350 44.1q-6.7-7-3.8-10.9 2.9-3.8 10.2-4.3 2.1-4.2 5.3-2.7 3.3 1.5 1.1 8.7z"/>
		</g>
		<g id="&lt;Group&gt;">
			<g id="&lt;Group&gt;">
				<path id="&lt;Path&gt;" class="s1" d="m352.4 46l7 2.1 0.1 3.4 0.2 3.4q-1.1 0.6-4 0.1-4-0.6-5-2.7l0.6-6.7z"/>
			</g>
		</g>
		<g id="&lt;Group&gt;">
			<g id="&lt;Group&gt;">
				<path id="&lt;Path&gt;" class="s2" d="m359.4 48.1l0.1 3.4c-1.6-0.3-5.7-1.4-6.9-4.9q-0.2-0.4-0.2-0.6z"/>
			</g>
		</g>
		<g id="&lt;Group&gt;">
			<g id="&lt;Group&gt;">
				<path id="&lt;Path&gt;" class="s1" d="m362.2 32.9q2.8 8.8 1 13.3c-1.7 4.6-6 3.4-8.4 2.3q-2.5-1.2-3.5-2.9-2.5 0.6-3.9-1.8c-1.4-2.4-0.1-4.9 1.3-5.3q1.4-0.5 3 0.7l-1.1-2.6q6.6-11.8 11.6-3.7z"/>
			</g>
		</g>
		<g id="&lt;Group&gt;">
			<path id="&lt;Path&gt;" class="s2" d="m351.1 42.8q-0.1 0-0.1-0.1l-2.9-2.4c-0.1-0.1-0.1-0.3 0-0.4 0.1-0.1 0.2-0.1 0.3 0l2.9 2.4c0.1 0.1 0.1 0.3 0 0.4q-0.1 0.1-0.2 0.1z"/>
		</g>
		<g id="&lt;Group&gt;">
			<path id="&lt;Path&gt;" class="s2" d="m348.4 42.5c-0.2 0-0.3-0.1-0.3-0.2 0-0.1 0.1-0.3 0.2-0.3l2.1-0.3c0.1-0.1 0.2 0 0.2 0.2 0.1 0.1 0 0.2-0.2 0.3l-2 0.3q0 0 0 0z"/>
		</g>
		<g id="&lt;Group&gt;">
			<path id="&lt;Path&gt;" class="s2" d="m361.2 42.5q0 0-0.1 0c-0.1 0-0.2-0.2-0.2-0.3 0.5-2-0.7-3.2-0.7-3.2-0.1-0.1-0.1-0.3 0-0.4 0.1-0.1 0.2-0.1 0.3 0 0.1 0.1 1.5 1.4 0.9 3.7 0 0.1-0.1 0.2-0.2 0.2z"/>
		</g>
		<g id="&lt;Group&gt;">
			<path id="&lt;Path&gt;" class="s2" d="m362.6 39.4c-0.2 0-0.3 0-0.3-0.2l-0.3-1.5c0-0.2 0.1-0.3 0.2-0.3 0.1-0.1 0.3 0 0.3 0.2l0.3 1.5c0 0.2-0.1 0.3-0.2 0.3q0 0 0 0z"/>
		</g>
		<g id="&lt;Group&gt;">
			<path id="&lt;Path&gt;" class="s2" d="m358.3 39.2c-0.1 0-0.2-0.1-0.3-0.2l-0.3-1.6c0-0.2 0.1-0.3 0.3-0.3 0.1 0 0.2 0 0.2 0.2l0.3 1.6c0.1 0.1 0 0.2-0.2 0.3q0 0 0 0z"/>
		</g>
		<g id="&lt;Group&gt;">
			<path id="&lt;Path&gt;" class="s2" d="m362.8 34.9q-0.7-1.4-2.3-1.6-1.7-0.1-2.8 1 0.5 2.8-1.9 4.2-2.4 1.3-4.1 0.7l-1.7-0.7-1-2.6 5.3-4.7 6.4-2.8 2.5 2.7z"/>
		</g>
		<g id="&lt;Group&gt;">
			<path id="&lt;Path&gt;" class="s22" d="m357.4 55.7c-4.1 0-6.7-2.8-6.8-2.9 0-0.1 0-0.2 0.1-0.3 0.1-0.1 0.2-0.1 0.3 0 0 0 3.5 3.7 8.4 2.4 0.2 0 0.3 0.1 0.3 0.2 0.1 0.2 0 0.3-0.2 0.3q-1.1 0.3-2.1 0.3z"/>
		</g>
		<g id="&lt;Group&gt;">
			<path id="&lt;Path&gt;" class="s2" d="m348.3 32.9q0.1-5.1 4.1-6.5 4.1-1.3 4 2.5z"/>
		</g>
		<g id="&lt;Group&gt;">
			<path id="&lt;Path&gt;" class="s1" d="m337 77.2h21.3l1.4 10.4q-25.1 9.1-32.9 4.7-7.8-4.4-4.6-14.3 2.4-0.8 14.8-0.8z"/>
		</g>
		<g id="&lt;Group&gt;">
			<path id="&lt;Path&gt;" class="s2" d="m363 36.1q0 0-1.3-0.2c-0.1-0.1-0.2-0.2-0.2-0.3 0-0.2 0.1-0.2 0.3-0.2l1.2 0.2c0.2 0 0.3 0.2 0.2 0.3 0 0.1-0.1 0.2-0.2 0.2z"/>
		</g>
		<g id="&lt;Group&gt;">
			<path id="&lt;Path&gt;" class="s2" d="m357.2 36.5q-0.2 0-0.3-0.2c0-0.1 0.1-0.3 0.2-0.3l1.8-0.6c0.1-0.1 0.3 0 0.3 0.1 0 0.2 0 0.3-0.2 0.4l-1.7 0.6q-0.1 0-0.1 0z"/>
		</g>
		<g id="&lt;Group&gt;">
			<path id="&lt;Path&gt;" class="s19" d="m369 54.7q3.3 3.4 6.6 6 3.3 2.5 5.3 4.5-1.5 5.5-3.8 12-1.9 5.1-3.1 10.4-7.9 0.6-8.6-4.5-0.7-5.2 3.6-28.4z"/>
		</g>
		<g id="&lt;Group&gt;">
			<path id="&lt;Path&gt;" class="s1" d="m357.8 77q5.7-4.1 7-4c1.2 0 6.1 1.1 6.4 2q0.3 0.9-4.2 2 2 1.9 3.8 2.6c1.8 0.7 7.2 0.2 7.7 1.5q0.5 1.3-1.4 1.2 2.3 1.2-0.4 2.7c-2.7 1.4-14.8 4.3-20.1 1.6q-5.4-2.7 1.2-9.6z"/>
		</g>
		<g id="&lt;Group&gt;">
			<path id="&lt;Path&gt;" class="s2" d="m371.3 83.7q-0.4 0-0.4 0c-0.2 0-0.3-0.1-0.3-0.2 0.1-0.2 0.2-0.3 0.3-0.3 0 0 3.2 0.2 6.1-1.1 0.1-0.1 0.2 0 0.3 0.1 0 0.2 0 0.3-0.1 0.4-2.4 1-5 1.1-5.9 1.1z"/>
		</g>
		<g id="&lt;Group&gt;">
			<path id="&lt;Path&gt;" class="s2" d="m367 77.3h-3.2c-0.1 0-0.2-0.2-0.2-0.3 0-0.1 0.1-0.2 0.2-0.2h3.2c0.1 0 0.2 0.1 0.2 0.2 0 0.1-0.1 0.3-0.2 0.3z"/>
		</g>
		<g id="&lt;Group&gt;">
			<path id="&lt;Path&gt;" class="s2" d="m360.8 44.5h-1.8c-0.2 0-0.3-0.1-0.3-0.3 0-0.1 0.1-0.2 0.3-0.2h1.8c0.2 0 0.3 0.1 0.3 0.2 0 0.2-0.1 0.3-0.3 0.3z"/>
		</g>
		<g id="&lt;Group&gt;">
			<path id="&lt;Path&gt;" class="s2" d="m434.1 82.3h-5.7c-0.2 0-0.3-0.1-0.3-0.2 0-0.1 0.1-0.3 0.3-0.3h5.7c0.1 0 0.2 0.2 0.2 0.3 0 0.1-0.1 0.2-0.2 0.2z"/>
		</g>
		<g id="&lt;Group&gt;">
			<path id="&lt;Path&gt;" class="s2" d="m434.1 85.9h-5.7c-0.2 0-0.3-0.1-0.3-0.2 0-0.1 0.1-0.3 0.3-0.3h5.7c0.1 0 0.2 0.2 0.2 0.3 0 0.1-0.1 0.2-0.2 0.2z"/>
		</g>
		<g id="&lt;Group&gt;">
			<path id="&lt;Path&gt;" class="s2" d="m375 137.5q-0.1 0-0.1 0c-0.1-0.1-0.2-0.2-0.2-0.3 0.1-0.2 5.3-20.9 3.8-26.8-1.5-5.9-13.1-12.2-13.2-12.2q-0.2-0.1-0.1-0.3 0-0.1 0.1-0.2l4.4-1.2c0.1 0 0.2 0.1 0.3 0.2 0 0.1-0.1 0.3-0.2 0.3l-3.7 1c2.3 1.4 11.5 6.8 12.9 12.3 1.5 6-3.6 26.1-3.8 27 0 0.1-0.1 0.2-0.2 0.2z"/>
		</g>
		<g id="&lt;Group&gt;">
			<path id="&lt;Path&gt;" class="s13" d="m403.9 171.5c-0.1 0-0.2-0.1-0.3-0.2 0-0.1 0.1-0.3 0.2-0.3l5.1-1.3c0.1 0 0.2 0.1 0.3 0.2 0 0.1-0.1 0.3-0.2 0.3l-5.1 1.3q0 0 0 0z"/>
		</g>
		<g id="&lt;Group&gt;">
			<path id="&lt;Path&gt;" class="s13" d="m367.9 173.4h-7.6c-0.1 0-0.2-0.1-0.2-0.3 0-0.1 0.1-0.2 0.2-0.2h7.6c0.1 0 0.2 0.1 0.2 0.2 0 0.2-0.1 0.3-0.2 0.3z"/>
		</g>
		<g id="&lt;Group&gt;">
			<path id="&lt;Path&gt;" class="s22" d="m339.8 77.3c-0.2-0.1-0.3-0.2-0.3-0.3l0.5-3.3c0-0.1 0.1-0.2 0.3-0.2 0.1 0 0.2 0.1 0.2 0.3l-0.5 3.2c0 0.2-0.1 0.3-0.2 0.3z"/>
		</g>
		<g id="&lt;Group&gt;">
			<path id="&lt;Path&gt;" class="s1" d="m580.1 299.1c-0.7 3.8-12.5 7.1-14.2 6.7q-1.6-0.4 0-1.7-1.6 0.9-3.2 0.8-1.7-0.1-0.9-2.2-0.7-1.4 0.4-4.7 1.2-3.3 14.5-7.5 4.1 4.7 3.4 8.6z"/>
		</g>
		<g id="&lt;Group&gt;">
			<path id="&lt;Path&gt;" class="s2" d="m561.8 299.9q-0.1 0-0.2-0.1c-0.1-0.1-0.1-0.2 0-0.3 1.5-2.3 6.1-3.7 6.2-3.7 0.2-0.1 0.3 0 0.4 0.1 0 0.2-0.1 0.3-0.2 0.3-0.1 0.1-4.6 1.4-6 3.6q-0.1 0.1-0.2 0.1z"/>
		</g>
		<g id="&lt;Group&gt;">
			<path id="&lt;Path&gt;" class="s2" d="m561.8 303q-0.1 0-0.2-0.1c-0.1-0.1 0-0.3 0.1-0.4 0.1-0.1 3.2-2.4 6.7-3.3 0.1 0 0.2 0.1 0.3 0.2 0 0.1-0.1 0.3-0.2 0.3-3.3 0.8-6.5 3.2-6.5 3.2q-0.1 0.1-0.2 0.1z"/>
		</g>
		<g id="&lt;Group&gt;">
			<path id="&lt;Path&gt;" class="s2" d="m565.9 304.4q-0.2 0-0.3-0.2c0-0.1 0-0.2 0.2-0.3l3-1.4c0.1-0.1 0.3 0 0.3 0.1 0.1 0.1 0 0.3-0.1 0.3l-3 1.5q-0.1 0-0.1 0z"/>
		</g>
		<g id="&lt;Group&gt;">
			<path id="&lt;Path&gt;" class="s1" d="m550.5 289.5q10.3 5.5 10.6 9 0.4 3.5-0.7 4.7 0.3 2.2-1.3 1.9-1.7-0.2-3-1.5 1.3 1.6-0.5 1.6c-1.7 0.1-10.8-4.2-10.5-8.1q0.2-3.9 5.4-7.6z"/>
		</g>
		<g id="&lt;Group&gt;">
			<path id="&lt;Path&gt;" class="s2" d="m561.2 300.4q-0.2 0-0.2-0.2c-0.9-2.4-5-4.8-5.1-4.8-0.1-0.1-0.1-0.3-0.1-0.4 0.1-0.1 0.2-0.1 0.4-0.1 0.1 0.1 4.3 2.6 5.2 5.2 0.1 0.1 0 0.2-0.1 0.3q0 0-0.1 0z"/>
		</g>
		<g id="&lt;Group&gt;">
			<path id="&lt;Path&gt;" class="s2" d="m560.4 303.5q-0.1 0-0.2-0.1c0-0.1-2.5-3.2-5.6-4.8-0.1 0-0.2-0.2-0.1-0.3 0.1-0.1 0.2-0.2 0.3-0.1 3.2 1.6 5.7 4.7 5.8 4.9 0.1 0.1 0.1 0.2 0 0.3q-0.1 0.1-0.2 0.1z"/>
		</g>
		<g id="&lt;Group&gt;">
			<path id="&lt;Path&gt;" class="s2" d="m556.1 303.9q-0.1 0-0.1-0.1l-2.7-2.1c-0.1-0.1-0.1-0.2 0-0.4 0.1-0.1 0.2-0.1 0.3 0l2.7 2.1c0.1 0.1 0.1 0.3 0 0.4q-0.1 0.1-0.2 0.1z"/>
		</g>
		<g id="&lt;Group&gt;">
			<path id="&lt;Path&gt;" class="s8" d="m584.2 251.9c7.2 2.2 16.4 13.4 15.5 27.9q-0.9 14.4-18.9 19.8l-11-9.3q8-40.4 14.4-38.4z"/>
		</g>
		<g id="&lt;Group&gt;">
			<path id="&lt;Path&gt;" class="s8" d="m544 298.4q-7.2-12.8 3-28.3 6.2-9.4 10.3 20.4z"/>
		</g>
		<g id="&lt;Group&gt;">
			<path id="&lt;Path&gt;" class="s13" d="m574.6 287.5q0 0-0.1-0.1c-0.1-0.1-0.1-0.2 0-0.3 0.3-0.4 8-10.4 13.1-13.4 0.1-0.1 0.3 0 0.4 0.1 0 0.1 0 0.3-0.1 0.3-5.1 3-13 13.2-13.1 13.3q0 0.1-0.2 0.1z"/>
		</g>
		<g id="&lt;Group&gt;">
			<path id="&lt;Compound Path&gt;" fill-rule="evenodd" class="s13" d="m580.2 280.9q0 0-0.1 0c-0.1 0-0.2-0.1-0.1-0.2 0-0.6 0.6-5.7 1.9-6.5q0.3-0.2 0.6-0.2 0.3 0.1 0.4 0.5c0.6 1.3-2.2 5.8-2.5 6.3q-0.1 0.1-0.2 0.1zm2.1-6.4q-0.1 0-0.2 0.1c-0.7 0.4-1.2 3.1-1.5 4.9 1-1.8 2.2-4.2 1.9-4.9q-0.1-0.1-0.1-0.1-0.1 0-0.1 0z"/>
		</g>
		<g id="&lt;Group&gt;">
			<path id="&lt;Path&gt;" class="s4" d="m390.8 271.6q18.4 10.5 19 11.1c0.7 0.6-1.8 15.1-3.8 15.1-1.1-0.1-38.1 1.2-38.8-16.4q-0.9-20.3 21.1-31.2z"/>
		</g>
		<g id="&lt;Group&gt;">
			<path id="&lt;Compound Path&gt;" fill-rule="evenodd" class="s2" d="m398.8 278.5q-0.1 0-0.1-0.1l-12.5-4.1c-1.8 0-7.7-0.3-8.1-1.6-0.1-0.2-0.1-0.5 0.4-0.9 2-1.6 7.6 1.9 7.9 2.1q0 0 12.4 4.1c0.2 0 0.2 0.1 0.2 0.3q-0.1 0.1-0.2 0.2zm-18.9-6.6q-0.7 0-1.1 0.3-0.3 0.2-0.2 0.4c0.2 0.5 3.4 1 6.7 1.2-1.5-0.8-3.8-1.9-5.4-1.9z"/>
		</g>
	</g>
</svg>