<svg version="1.2" xmlns="http://www.w3.org/2000/svg" viewBox="0 0 250 250" width="250" height="250">
	<title>Final_logo-ai</title>
	<defs>
		<clipPath clipPathUnits="userSpaceOnUse" id="cp1">
			<path d="m180.44 97.09c4.84 4.11 5.26 11.58 0.93 16.69-4.32 5.11-11.76 5.92-16.61 1.81-4.84-4.11-5.26-11.58-0.93-16.69 4.32-5.1 11.76-5.91 16.61-1.81z"/>
		</clipPath>
	</defs>
	<style>
		.s0 { fill: #ffffff } 
		.s1 { fill: #929d9b } 
		.s2 { fill: #2fac6f } 
		.s3 { fill: #2ca6da } 
		.s4 { fill: #4cc28d } 
		.s5 { fill: #ffcb37 } 
		.s6 { fill: #ffb531 } 
		.s7 { fill: #37bb7a } 
		.s8 { fill: #34bc84 } 
		.s9 { fill: #ff5e1f } 
		.s10 { fill: #34bdc7 } 
		.s11 { fill: #96dab9 } 
		.s12 { fill: #2291b5 } 
		.s13 { fill: #1c623c } 
		.s14 { fill: #fafdfc } 
		.s15 { fill: #171818 } 
		.s16 { opacity: .5;fill: #ffffff } 
	</style>
	<g id="Layer 1">
		<path id="&lt;Path&gt;" class="s0" d="m-198-287h823.2v823.2h-823.2z"/>
		<g id="&lt;Group&gt;">
			<g id="&lt;Group&gt;">
				<path id="&lt;Path&gt;" class="s1" d="m461.7 136.3v0.7q0-0.3 0-0.7z"/>
			</g>
		</g>
		<path id="&lt;Path&gt;" class="s2" d="m194.5 108.3q-0.3 0.4-0.6 0.9c0.5-0.1 0.6-0.5 0.6-0.9z"/>
		<path id="&lt;Compound Path&gt;" class="s3" d="m31.4 182.5c0.2-4.5-0.1-9.1 0.3-13.6 0.6-5.6 0-11.3 0.5-16.9 0.5-6.3-0.1-12.6 0.4-18.9 0.5-5.9 0.2-11.8 0.4-17.6q0.2-0.1 0.4-0.3 5.8 0.1 11.7 0.1c3.1 0.1 3.8 0.8 4 3.9 0.1 1.7-0.3 3.2-0.9 4.8-1.1 2.7-1.9 5.4-1.3 8.4 0.2 0.9 0.5 1.7 1 2.4 1.8 2.9 6.6 3.9 11.2 2.5 3.3-1.1 4.8-3.4 4.6-7.3-0.1-2.3-0.9-4.4-1.7-6.5-1.8-5 0.6-8.4 5.9-8.1 3.5 0.1 7 0.2 10.4 0 1.2 2.7 2.1 5.6 3.9 8 1 1.3 2 2.6 3.2 3.6 1.8 1.5 1.6 2.8-0.5 3.7-1.9 0.7-3.7 1.4-5.3 2.6-4 2.8-4.5 6.6-1.4 10.2 2.4 2.7 5.2 4.8 8.9 5.5 2.8 0.4 4.9-0.7 5.9-3.3 0.4-1.3 0.7-2.6 1.2-3.9 1.2-3.2 2.2-3.4 4.4-0.8 2.1 2.4 4.8 3.8 7.7 5.3 6.1 3.4 11.5 3.8 19.1 3.6 3.4-0.4 6.8-1.3 10.2-2 0 3.8 0 7.7 0 11.5 0 1.3 0.2 1.7 1.7 1.5 2-0.4 4.7-0.8 6.7-0.3 3.2 0.7 6.1 2.3 6.1 7.3 0.1 4-2.6 7-6.9 7.2-8.5 0.3-23.3-0.8-27.2-0.7-5.3 0.3-8.5-0.2-14.4 0.3-8.9 1.4-12.8 4.9-12.8 12.9 0 7.4-0.1 14.9 0 22.4 0 1.4-0.3 1.9-1.9 1.9q-11.7-0.1-23.4 0c-1.6 0-2-0.4-2-2 0.1-10 0-20 0-30.1 0-3.6-1.8-5.9-4.6-5.9-3 0-4.8 2.2-4.8 5.8q0 15.3 0 30.5c0 1.2 0 2-1.6 2-6.7-0.1-13.4-0.1-20-0.1"/>
		<path id="&lt;Compound Path&gt;" fill-rule="evenodd" class="s4" d="m162.2 149.2c-1.3-1.4-1.1-2.4-0.2-3.9 1.5-2.1 3.5-3.3 5.8-4.2 6.1-2.3 7.4-8.1 2.8-12.8-1.9-2-4.1-3.8-6.9-4.3-4.9-0.7-8.7 3-9.2 8.9-0.1 1.8-0.4 3.5-1.5 5-1.3 1.8-2.3 2-4 0.6-3.7-3.1-7.3-6.3-10.9-9.5-0.8-0.6-1.6-1.2-2.3-1.8-0.6-0.7-0.4-1.5-0.4-2.3 0-7.2 0-14.5 0-21.7 0-3.5-1.9-4.6-4.9-2.8-5.6 3.1-4.4 2.4-8.1 2.3-2.4-0.2-3.9-1.5-4.4-3.9-0.3-2-0.3-4.1 0.2-6.1 0.7-3.1 2.9-4.3 5.9-3.3 2 0.7 3.9 1.5 5.9 2 3.9 1.1 5.4-2.3 5.3-5.3-0.2-6.6 0.3-12.3 0.3-18.8 0-2.3 0.1-4.5 0.1-6.8q0.2 0 0.1 0c8.5-0.8 16.9-1.3 25.5-0.2 4.6 0.6 9.1 1.6 13.5 2.8 2.1 0.5 4.5 0.9 7 2.6 12.8 9.7 20 22.5 20.5 38.6 0.3 11.6 0.1 23.1 0.1 34.7 0 1.7 0 3.4 0.5 5.1 2 6.2 7.9 10.2 13.8 9.2 6.7-1 9.4-6.5 11.1-13 1.9-7.7 1.5-16.4 1.5-19.5 4.9 0.1 10-0.1 14.9-0.2 0 1.4 0.2 4.8 0.2 5.5-0.3 3.8 4.2 28-21.9 41-22.1 8.6-46.6 0.4-47.9-1.3-3-4.1-11.3-14.8-12.4-16.6zm19.6-37.1q0 0 0 0 0 0 0 0zm1.6-0.7c3.3-4 3.4-10.3-0.1-14.1-3.8-4.2-7.7-5-13-3.1q-0.7 0.3-1 0.9-8.3 4-7.5 11.7c0 0.4 0.2 0.7 0.3 1 0.6 6 7.2 10.1 13.4 8.4 2.3-0.3 3.9-1.9 5.6-3.3 0.5 0 0.6-0.4 0.7-0.8 0.6 0 1.1-0.2 1.6-0.7z"/>
		<path id="&lt;Compound Path&gt;" fill-rule="evenodd" class="s5" d="m174.5 168.8c0 13.8 0 27.6 0.1 41.4 0 1.5-0.4 2.1-2 2q-11.1-0.1-22.2 0c-1.6 0.1-2-0.5-2-2 0.1-6.7 0-13.4 0-20.1 0-3.3-1.6-5.2-4.3-5.1-2.6 0-4.1 1.9-4.1 5.1 0 6.8-0.1 13.5 0 20.3 0.1 1.6-0.4 2-2 2-6.4-0.1-12.8-0.1-19.2 0-2.1 0-2.7-0.5-2.7-2.7 0.1-10.8 0-21.6 0-32.4q0-0.4 0-0.8c0-0.6-0.1-1.5-0.1-2.1 3.4-0.1 24.2 0.8 28 0.3 5.4-0.8 6-5 6.1-7.8-0.6-3.9-2.9-5.6-6.1-6.3-2-0.5-4.7-0.1-6.7 0.3-1.5 0.2-1.7-0.2-1.7-1.5 0-3.8 0-7.7 0-11.5 0-6.9-0.3-14.7-0.2-21.6 0.8 1.3 1.9 2.1 2.7 2.7 3.6 3.2 7.2 6.4 10.9 9.5 1.7 1.4 2.7 1.2 4-0.6 1.1-1.5 1.4-3.2 1.5-5 0.5-5.9 4.3-9.6 9.2-8.9 2.8 0.5 5 2.3 6.9 4.3 4.6 4.7 3.3 10.5-2.8 12.8-2.3 0.9-4.3 2.1-5.8 4.2-0.9 1.5-1.1 2.5 0.2 3.9 1.2 1.8 1.9 2.6 3 4 3 4.1 6.4 8.5 9.4 12.6 0 1-0.1 2-0.1 3zm-10.7 38.4c0 1.3 2.2 0.7 3.4 0.7 1.1-0.1 3.1 0.8 3.1-0.8 0-1.5-2-0.2-3-0.8-1.2 0.6-3.4-0.8-3.5 0.9zm-3.9 0.7c0.4 0 0.9-0.1 0.9-0.7 0.1-0.5-0.3-0.7-0.8-0.7q-2.5-0.1-5-0.1c-0.5 0-0.9 0.2-0.9 0.7-0.1 0.7 0.4 0.8 1 0.8q1.1 0 2.3 0 0 0 0 0c0.8 0 1.7 0 2.5 0z"/>
		<path id="&lt;Path&gt;" class="s6" d="m27.5 115.1c-0.3-8.4-0.5-17.5 2.4-25.4 7.2-22.8 29.6-31.8 49.9-32.4 17.6-0.5 33.6-1.1 51.2-1.1 1.5 0 3.1 0.1 4.6 0.1q0.1 2.1 0.2 4.2 0 0-0.2 0c-5.4 0.5-10.8 1.1-16.2 1.6q-3.1 0.2-6.1 0.5c-8.9 0.6-17.7 0.4-26.6 0.4-7.1 0.1-14.1 1-21 2.7-7.7 3.1-15.6 6.7-21.6 12.7-2.2 2.1-3.7 3.9-5.1 6.5-3.4 6.4-4.6 13.3-5.3 20.4-0.3 3.3-0.2 6.6-0.3 9.9q-0.2 0.2-0.4 0.3c-1.9-0.4-3.7 0.3-5.5-0.4z"/>
		<path id="&lt;Path&gt;" class="s7" d="m229.3 166c-23.8 13.9-46.9 4.3-53.6 0.5 72.4 13.7 68-40.6 68.6-42.1 0.1 5.6 3.3 30.6-15 41.6z"/>
		<path id="&lt;Path&gt;" class="s8" d="m164.7 57.6c5.8 1.5 11.9 4 16.7 7.8-2.8-1.4-4.5-1.8-6.6-2.3-4.4-1.2-8.9-2.2-13.5-2.8-8.6-1.1-17-0.6-25.5 0.2q-0.1-2.1-0.2-4.2c9.8-0.3 19.5-1.1 29.1 1.3z"/>
		<path id="&lt;Compound Path&gt;" class="s9" d="m125.4 149.9c-6.7 0.7-13.6-0.5-19.7-3.9-2.9-1.5-5-2.6-7.1-5-2.2-2.6-3.2-2.4-4.4 0.8-0.5 1.3-0.8 2.6-1.2 3.9-1 2.6-3.1 3.7-5.9 3.3-3.7-0.7-6.5-2.8-8.9-5.5-3.1-3.6-2.6-7.4 1.4-10.2 1.6-1.2 3.4-1.9 5.3-2.6 2.1-0.9 2.3-2.2 0.5-3.7-1.2-1-2.2-2.3-3.2-3.6-2.3-2.8-3.6-5.9-3.9-8-1.1-5.3-1.6-10.6-0.6-16 2.7-15.3 14.3-27 29.4-30.4 9.4-2 18.9-2.7 28.5-1.7 0 6.5-0.5 12.8-0.3 19.4 0.1 3-1.1 6.2-5.3 4.7-2-0.5-3.9-1.3-5.9-2-3-1-5.2 0.2-5.9 3.3-0.5 2-0.5 4.1-0.2 6.1 0.5 2.4 2 3.7 4.4 3.9 3.6 0.2 3.4 0.1 8.1-2.3 3-1.8 4.9-0.7 4.9 2.8 0 7.2 0 14.5 0 21.7 0 0.8-0.1 1.1 0 2.1 0 6.9 0.2 14 0.2 20.9-3.4 0.7-6.8 1.6-10.2 2z"/>
		<path id="&lt;Path&gt;" class="s5" d="m67.9 115.4c-5.3-0.3-7.7 3.1-5.9 8.1 0.8 2.1 1.6 4.2 1.7 6.5 0.2 3.9-1.3 6.2-4.6 7.3-4.6 1.4-9.4 0.4-11.2-2.5-0.5-0.7-0.8-1.5-1-2.4-0.6-3 0.2-5.7 1.3-8.4 0.6-1.6 1-3.1 0.9-4.8-0.2-3.1-0.9-3.8-4-3.9q-5.9 0-11.7-0.1c0.1-3.3 0-6.6 0.3-9.9 0.7-7.1 1.9-14 5.3-20.4 1.4-2.6 6.9-13.3 26.7-19.2 6.9-1.7 13.9-2.6 21-2.7 8.9 0 43.3-2 49.1-2.5 0 2.3-0.2 4.5-0.2 6.8-9.6-1-19.1-0.3-28.5 1.7-15.1 3.4-26.7 15.1-29.4 30.4-1 5.4-0.5 10.7 0.6 16-3.4 0.2-6.9 0.1-10.4 0z"/>
		<path id="&lt;Path&gt;" class="s6" d="m27.5 113.5c0.2-5.3-3.1-6.4-8-4.6-2.2 0.8-4.3 1.5-6.6 1.6-3.8 0.3-6.2-1.2-7.2-4.5-1.5-4.6-0.5-9.5 2.4-11.3 0.8-0.4 1.5-0.7 2.4-0.9 3-0.7 5.4 0 8.1 1.1 1.5 0.6 3.1 1.5 4.9 1.7 3.2 0.4 4.7-0.4 5.5-3.7"/>
		<path id="&lt;Path&gt;" class="s10" d="m37.5 207.2c0 0.3-0.3 0.4-0.6 0.4q0-0.4 0-0.9c0.3 0 0.6 0.1 0.6 0.5z"/>
		<path id="&lt;Path&gt;" class="s11" d="m197.8 107.4c-0.1 0.8-0.2 10.9-1.2 11q-0.4-7.2-0.6-9.2c-0.4-7.3-2.2-11.2-4.5-16-3.3-6.8-5.5-8.9-11.8-12.9-3-1.8-10.4-3.8-10.1-7.9 0.3-3.4 2.5-5.1 5.8-4.2 2.5 0.6 4.4 2.1 6.4 3.6 7.3 5.7 11.8 12.9 14.3 21.9 1.3 4.7 1.7 10.8 1.7 13.7z"/>
		<path id="&lt;Path&gt;" class="s2" d="m181.8 112.1q-0.3 0.4-0.7 0.8c0.5-0.1 0.7-0.4 0.7-0.8z"/>
		<path id="&lt;Path&gt;" class="s10" d="m27.5 115.1l5.9 0.1z"/>
		<path id="&lt;Path&gt;" class="s12" d="m28.5 212.1l-1-97 5.9 0.1-2.5 96.9z"/>
		<g id="&lt;Group&gt;">
			<path id="&lt;Path&gt;" class="s13" d="m182.9 94.2c4.8 4.1 5.2 11.6 0.9 16.7-4.3 5.1-11.8 5.9-16.6 1.8-4.8-4.1-5.3-11.6-0.9-16.7 4.3-5.1 11.7-5.9 16.6-1.8z"/>
			<path id="&lt;Path&gt;" class="s14" d="m180.4 97.1c4.9 4.1 5.3 11.6 1 16.7-4.4 5.1-11.8 5.9-16.6 1.8-4.9-4.1-5.3-11.6-1-16.7 4.4-5.1 11.8-5.9 16.6-1.8z"/>
			<g id="&lt;Clip Group&gt;" clip-path="url(#cp1)">
				<path id="&lt;Path&gt;" class="s15" d="m172.5 105.4c4.3 3.5 4.2 10.6-0.2 15.7-4.3 5.1-11.2 6.3-15.4 2.8-4.2-3.6-4.1-10.6 0.2-15.8 4.3-5.1 11.2-6.3 15.4-2.7z"/>
			</g>
		</g>
		<rect id="&lt;Path&gt;" class="s14" x="163.3" y="206.2" width="7.4" height="1.9" rx="1.3"></rect>
		<rect id="&lt;Path&gt;" class="s14" x="153.4" y="206.2" width="7.4" height="1.9" rx="1.3"></rect>
		<rect id="&lt;Path&gt;" class="s14" x="129.2" y="206.2" width="7.4" height="1.9" rx="1.3"></rect>
		<rect id="&lt;Path&gt;" class="s14" x="119.2" y="206.2" width="7.4" height="1.9" rx="1.3"></rect>
		<rect id="&lt;Path&gt;" class="s14" x="76" y="206.2" width="7.4" height="1.9" rx="1.3"></rect>
		<rect id="&lt;Path&gt;" class="s14" x="66.1" y="206.2" width="7.4" height="1.9" rx="1.3"></rect>
		<rect id="&lt;Path&gt;" class="s14" x="41.9" y="206.2" width="7.4" height="1.9" rx="1.3"></rect>
		<rect id="&lt;Path&gt;" class="s14" x="31.9" y="206.2" width="7.4" height="1.9" rx="1.3"></rect>
		<path id="&lt;Path&gt;" class="s14" d="m169.4 165.9c-6.5 1.2-12.2-5.4-14.2-7.1-0.8-0.6 2.9-3.4 3.4-2.5q5.1 8.7 10.8 9.6z"/>
		<path id="&lt;Path&gt;" class="s16" d="m106.7 74.1q-36 14-17.9 48.9-6.4-29.1 17.9-48.9z"/>
		<g id="&lt;Group&gt;">
			<path id="&lt;Compound Path&gt;" class="s9" d="m574.1 185.8v19.1h-2.9v-8.4h-8.5v8.4h-3v-19.1h3v8.2h8.5v-8.2z"/>
			<path id="&lt;Compound Path&gt;" fill-rule="evenodd" class="s9" d="m591.7 198.5h-10.9q0.1 1.8 1.2 2.9 1.2 1.1 2.8 1.1 2.4 0 3.4-2.1h3.2q-0.6 2.1-2.3 3.4-1.7 1.3-4.3 1.3-2 0-3.6-1-1.7-0.9-2.6-2.7-0.9-1.8-0.9-4.1 0-2.3 0.9-4.1 0.9-1.7 2.5-2.7 1.6-1 3.7-1 2.1 0 3.6 1 1.6 0.9 2.5 2.6 0.9 1.7 0.9 3.9 0 0.8-0.1 1.5zm-3-2.5q0-1.8-1.2-2.8-1.1-1-2.8-1-1.5 0-2.6 1-1.1 1-1.3 2.8z"/>
			<path id="&lt;Compound Path&gt;" fill-rule="evenodd" class="s9" d="m595.3 193.2q0.9-1.7 2.4-2.7 1.6-1 3.4-1 1.7 0 3 0.7 1.2 0.7 2 1.8v-2.2h3v15.1h-3v-2.3q-0.8 1.1-2.1 1.8-1.3 0.7-2.9 0.7-1.9 0-3.4-1-1.5-1-2.4-2.8-0.9-1.8-0.9-4 0-2.3 0.9-4.1zm10.2 1.4q-0.6-1.1-1.6-1.8-1-0.6-2.2-0.6-1.1 0-2.1 0.6-1 0.6-1.6 1.8-0.6 1.1-0.6 2.7 0 1.5 0.6 2.7 0.6 1.2 1.6 1.8 1 0.6 2.1 0.6 1.2 0 2.2-0.6 1-0.6 1.6-1.8 0.6-1.1 0.6-2.7 0-1.5-0.6-2.7z"/>
			<path id="&lt;Compound Path&gt;" class="s9" d="m618.3 190.2q1.1-0.7 2.6-0.7v3.3h-0.8q-1.7 0-2.6 0.9-0.9 0.9-0.9 3.2v8h-3v-15.1h3v2.2q0.6-1.2 1.7-1.8z"/>
			<path id="&lt;Compound Path&gt;" class="s9" d="m627.7 192.3v8.4q0 0.8 0.4 1.2 0.4 0.4 1.3 0.4h1.8v2.6h-2.4q-2 0-3-1-1.1-1-1.1-3.2v-8.4h-1.7v-2.5h1.7v-3.8h3v3.8h3.5v2.5z"/>
		</g>
	</g>
	<g id="Layer 2">
	</g>
</svg>