<svg version="1.2" xmlns="http://www.w3.org/2000/svg" viewBox="0 0 500 250" width="500" height="250">
	<title>Final_logo-ai</title>
	<defs>
		<clipPath clipPathUnits="userSpaceOnUse" id="cp1">
			<path d="m126.12 106.86c3.23 2.73 3.51 7.71 0.62 11.12-2.88 3.4-7.84 3.94-11.07 1.21-3.23-2.74-3.51-7.72-0.63-11.13 2.89-3.4 7.85-3.94 11.08-1.2z"/>
		</clipPath>
	</defs>
	<style>
		.s0 { fill: #0c0c0c } 
		.s1 { fill: #929d9b } 
		.s2 { fill: #2fac6f } 
		.s3 { fill: #4cc28d } 
		.s4 { fill: #2ca6da } 
		.s5 { fill: #ffcb37 } 
		.s6 { fill: #ffb531 } 
		.s7 { fill: #37bb7a } 
		.s8 { fill: #34bc84 } 
		.s9 { fill: #ff5e1f } 
		.s10 { fill: #34bdc7 } 
		.s11 { fill: #96dab9 } 
		.s12 { fill: #2291b5 } 
		.s13 { fill: #1c623c } 
		.s14 { fill: #fafdfc } 
		.s15 { fill: #171818 } 
		.s16 { opacity: .5;fill: #ffffff } 
	</style>
	<g id="Layer 1">
		<path id="&lt;Compound Path&gt;" fill-rule="evenodd" class="s0" d="m230.2 116.1q3.5 0 6.8 1.5 3.2 1.5 5.7 4 2.5 2.5 4 5.7 1.5 3.2 1.5 6.8 0 1.9-1.5 3-1.4 1.1-3.6 1h-19.7q2.5 4.3 6.8 4.3 1.1 0 2-0.3 0.8-0.2 1.4-0.5 0.6-0.3 1.3-0.5 0.6-0.2 1.4-0.2 1.6 0.1 2.7 0.9 1.2 0.8 1.7 2 0.6 1.2 0.4 2.6-0.2 1.4-1.3 2.6-2 1.7-4.4 2.3-2.5 0.6-5.2 0.7-3.6 0.1-6.9-1.3-3.2-1.4-5.7-3.9-2.5-2.5-3.9-5.8-1.5-3.4-1.5-6.9 0-3.5 1.5-6.8 1.4-3.2 3.9-5.7 2.4-2.5 5.7-4 3.2-1.5 6.9-1.5zm6.7 13.8q-1.3-2.3-3-3.2-1.7-0.9-3.7-0.9-2.2 0-3.9 0.9-1.6 0.9-2.9 3.2z"/>
		<path id="&lt;Compound Path&gt;" fill-rule="evenodd" class="s0" d="m284.4 143.4q0 1-0.3 1.8-0.3 0.9-0.9 1.6-2.6 2.5-5.7 3.9-3.2 1.3-6.7 1.3-3.9 0-7.3-1.3-3.4-1.3-6-3.7-2.6-2.4-4.1-5.8-1.5-3.4-1.6-7.5v-24.4q0-2 1.5-3.3 1.6-1.4 3.6-1.4 2 0 3.4 1.5 1.4 1.4 1.6 3.6v24q0 1.7 0.6 3.2 0.6 1.5 1.8 2.7 1.1 1.2 2.6 1.9 1.5 0.6 3.3 0.6 1.9 0 3.3-0.5 1.4-0.5 2.4-1.5 1.6-1.4 3.5-1.4 1.8-0.1 3.5 1.4 0.7 0.7 1.1 1.6 0.3 0.8 0.4 1.7zm-9.8-17.9h-10v-9.9h10q2.2 0 3.5 1.5 1.4 1.5 1.4 3.5 0 1.9-1.5 3.4-1.5 1.5-3.4 1.5z"/>
		<path id="&lt;Compound Path&gt;" class="s0" d="m322.7 134.1v13.1q0 2-1.5 3.4-1.5 1.4-3.3 1.4c-1.8 0-2.9-0.6-4-2-0.3-0.5-0.4-1.8-0.4-2q-0.3-3.8 0-14.5c0-0.2 0-0.7 0-0.8-0.3-4.7-4-8.1-8.7-8.1-4.9 0-8.9 3.9-8.9 8.9 0 4 2.7 7.4 6.4 8.5q0.1 0 0.1 0 1.1 0.4 2.3 0.4 1 0 2-0.3 0.3-0.1 0.6-0.1 0.3-0.1 0.6-0.3c1-0.4-0.1 0 1-0.4 1.9-0.7 2.5 3.6 2.6 4.7 0.1 0.2 0.5 4.3-1.6 5.1-0.6 0.3-0.4 0.3-1.1 0.4q-1.9 0.5-4.1 0.5-5.5 0-9.9-3-4.4-3-6.5-7.7-0.8-1.8-1.2-3.5-0.4-1.8-0.4-3.7 0-2 0.4-3.8 0.4-1.7 1.2-3.4 2.1-4.8 6.5-7.8 4.4-3 9.9-3h1.1q0.5 0 1 0.1 3.4 0.4 6.3 1.9 2.9 1.6 5 4 2.1 2.4 3.4 5.5 1.2 3.1 1.2 6.5z"/>
		<path id="&lt;Compound Path&gt;" class="s0" d="m483.1 134.1v13.1q0 2-1.5 3.4-1.5 1.4-3.4 1.4c-1.7 0-2.9-0.6-3.9-2-0.3-0.5-0.4-1.8-0.4-2q-0.3-3.8 0-14.5c0-0.2 0-0.7-0.1-0.8-0.2-4.7-3.9-8.1-8.7-8.1-4.9 0-8.8 4-8.8 8.9 0 4 2.7 7.4 6.4 8.5q0 0 0 0 1.2 0.4 2.3 0.4 1.1 0 2-0.3 0.3 0 0.6-0.1 0.4-0.1 0.7-0.3c1-0.4-0.1 0 1-0.4 1.9-0.6 2.5 3.6 2.6 4.7 0 0.2 0.4 4.3-1.6 5.2-0.6 0.2-0.4 0.2-1.1 0.4q-1.9 0.4-4.1 0.4-5.5 0-9.9-3-4.4-3-6.5-7.7-0.8-1.8-1.2-3.5-0.4-1.8-0.4-3.7 0-2 0.4-3.8 0.4-1.7 1.2-3.4 2.1-4.8 6.5-7.8 4.4-3 9.9-3h1.1q0.5 0 1 0.1 3.3 0.4 6.3 1.9 2.9 1.6 5 4 2.1 2.4 3.3 5.5 1.3 3.1 1.3 6.5z"/>
		<path id="&lt;Compound Path&gt;" class="s0" d="m345 115.9q3.6 0 6.8 1.3 3.3 1.3 5.7 3.6 2.5 2.4 4 5.5 1.4 3.2 1.4 6.9v13.8q0 1.9-1.3 3.3-1.4 1.4-3.4 1.5-2 0-3.5-1.3-1.4-1.3-1.4-3.3v-13.4q0-1.7-0.6-3.2-0.7-1.5-1.8-2.6-1.2-1.1-2.7-1.8-1.5-0.7-3.3-0.7-1.6 0-3.1 0.7-1.5 0.6-2.6 1.6-1.1 1.1-1.8 2.6-0.6 1.4-0.6 3.1v13.5q0 1.9-1.5 3.3-1.5 1.5-3.4 1.5-2 0-3.4-1.4-1.5-1.3-1.5-3.2v-13.4q0.1-3.7 1.4-6.9 1.4-3.3 3.8-5.7 2.4-2.5 5.7-3.9 3.2-1.4 7.1-1.4z"/>
		<path id="&lt;Compound Path&gt;" fill-rule="evenodd" class="s0" d="m384.9 116q3.6 0 6.9 1.5 3.2 1.4 5.7 3.8 2.4 2.5 3.9 5.7 1.4 3.3 1.4 7.1 0 3.7-1.4 6.9-1.4 3.2-3.8 5.7-2.4 2.4-5.7 3.8-3.2 1.4-7 1.4-3.7 0-7-1.3-3.3-1.3-5.7-3.8-2.4-2.4-3.9-5.6-1.4-3.3-1.4-7.1 0-3.7 1.4-7 1.4-3.2 3.8-5.6 2.4-2.4 5.7-3.9 3.3-1.4 7.1-1.6zm0 9.8q-1.7 0-3.2 0.6-1.5 0.6-2.6 1.7-1.2 1.1-1.9 2.7-0.6 1.5-0.6 3.3 0 1.7 0.6 3.2 0.7 1.5 1.9 2.7 1.1 1.1 2.6 1.8 1.5 0.6 3.2 0.6 1.7 0 3.2-0.6 1.5-0.7 2.6-1.8 1.1-1.2 1.8-2.7 0.7-1.5 0.7-3.2-0.2-3.5-2.5-5.8-2.3-2.4-5.8-2.5z"/>
		<path id="&lt;Compound Path&gt;" class="s0" d="m411.7 116q1.9 0 3.4 1.3 1.5 1.3 1.5 3.3v13.4q0 1.7 0.6 3.2 0.7 1.5 1.8 2.6 1.1 1.1 2.6 1.7 1.5 0.7 3.3 0.7 1.6 0 3.1-0.6 1.5-0.6 2.7-1.6 1.1-1 1.8-2.5 0.7-1.4 0.7-3.1v-13.6q0-1.9 1.4-3.3 1.4-1.5 3.4-1.5 2 0 3.4 1.3 1.5 1.3 1.5 3.3v58.8q0 1.9-1.5 3.3-1.4 1.3-3.4 1.3-1.8 0-3.3-1.3-1.5-1.4-1.5-3.5v-29.3q-1.7 1.1-3.9 1.5-2.2 0.5-4.4 0.5-3.6 0-6.9-1.4-3.2-1.4-5.7-3.8-2.5-2.5-4-5.9-1.4-3.3-1.4-7.3v-12.7q0-1.9 1.4-3.3 1.3-1.5 3.4-1.5z"/>
		<g id="&lt;Group&gt;">
			<g id="&lt;Group&gt;">
				<path id="&lt;Path&gt;" class="s1" d="m313.6 133v0.5q0-0.3 0-0.5z"/>
			</g>
		</g>
		<path id="&lt;Path&gt;" class="s2" d="m135.5 114.3q-0.2 0.3-0.4 0.6c0.3-0.1 0.4-0.3 0.4-0.6z"/>
		<path id="&lt;Compound Path&gt;" class="s3" d="m193.7 104.8q3 0 5.7 1.2 2.7 1.2 4.7 3.3 2 2.1 3.2 4.8 1.2 2.7 1.4 5.8v27.3q0 2.1-1.5 3.6-1.5 1.4-3.5 1.4-2.1 0-3.6-1.4-1.4-1.5-1.4-3.6v-26.7q0-2.2-1.5-3.6-1.4-1.5-3.5-1.5-2.1 0-3.5 1.5-1.5 1.4-1.5 3.6v26.7q0 2.1-1.5 3.6-1.4 1.4-3.5 1.4-2.1 0-3.5-1.4-1.5-1.5-1.5-3.6v-26.7q0-2.2-1.4-3.6-1.5-1.5-3.6-1.5-2.1 0-3.5 1.5-1.5 1.4-1.5 3.6l-0.1 11.7c-1.3 11.1-4.5 13.7-7.4 15.8-1.1 0.8-2.5 0.6-2.5-0.8v-27.3q0-2.9 1.2-5.6 1.1-2.8 3.2-4.9 2-2 4.7-3.3 2.8-1.3 5.9-1.3 2.8 0 5.3 1.1 2.5 1 4.7 2.8 2.1-1.7 4.6-2.8 2.5-1.1 5.4-1.1z"/>
		<path id="&lt;Compound Path&gt;" class="s4" d="m26.7 163.8c0.2-3 0-6 0.3-9 0.3-3.8 0-7.6 0.3-11.4 0.3-4.2-0.1-8.4 0.3-12.5 0.3-4 0.1-7.9 0.2-11.8q0.1-0.1 0.3-0.1 3.9 0 7.8 0c2.1 0 2.6 0.5 2.7 2.6 0 1.1-0.3 2.2-0.7 3.2-0.7 1.8-1.2 3.6-0.8 5.6q0.2 0.9 0.6 1.6c1.2 1.9 4.5 2.6 7.5 1.6 2.2-0.7 3.2-2.2 3.1-4.8-0.1-1.5-0.6-2.9-1.1-4.4-1.2-3.3 0.4-5.5 3.9-5.4q3.5 0.2 7 0.1c0.7 1.8 1.3 3.7 2.5 5.3 0.7 0.9 1.3 1.7 2.2 2.4 1.1 1 1 1.8-0.4 2.4-1.2 0.5-2.5 1-3.5 1.8-2.6 1.9-3 4.4-0.9 6.8 1.5 1.8 3.4 3.2 5.9 3.6 1.8 0.4 3.2-0.4 3.9-2.2 0.3-0.8 0.5-1.7 0.8-2.5 0.8-2.2 1.5-2.3 3-0.6 1.4 1.6 3.2 2.5 5.1 3.6 4.1 2.2 7.7 2.5 12.7 2.3 2.3-0.2 4.6-0.8 6.8-1.3 0 2.6 0.1 5.1 0 7.7 0 0.8 0.2 1.2 1.2 1 1.3-0.3 3.1-0.5 4.5-0.2 2.1 0.4 4 1.5 4 4.9 0.1 2.6-1.7 4.6-4.6 4.7-5.7 0.3-15.5-0.5-18.1-0.4-3.6 0.2-5.7-0.1-9.6 0.2-6 0.9-8.6 3.3-8.6 8.6 0 5 0 9.9 0 14.9 0 1-0.2 1.3-1.2 1.3q-7.8-0.1-15.7 0c-1 0-1.3-0.3-1.3-1.3 0.1-6.7 0-13.4 0-20.1 0-2.4-1.1-3.9-3.1-3.9-1.9 0-3.1 1.4-3.1 3.8q0 10.2 0 20.4c0 0.8-0.1 1.3-1.1 1.3-4.5-0.1-8.9-0.1-13.4-0.1"/>
		<path id="&lt;Compound Path&gt;" fill-rule="evenodd" class="s3" d="m114 141.6c-0.9-0.9-0.8-1.6-0.1-2.6 0.9-1.4 2.2-2.2 3.8-2.8 4.1-1.6 4.9-5.4 1.9-8.5-1.3-1.4-2.8-2.6-4.7-2.9-3.2-0.5-5.7 2-6.1 5.9 0 1.2-0.2 2.4-1 3.4-0.8 1.2-1.5 1.3-2.6 0.4-2.5-2.1-4.9-4.3-7.3-6.4-0.5-0.4-1-0.8-1.6-1.2-0.4-0.4-0.2-1-0.2-1.5q0-7.2 0-14.5c0-2.3-1.3-3.1-3.3-1.8-3.7 2.1-2.9 1.6-5.3 1.5-1.7-0.1-2.7-1-3-2.6q-0.4-2 0.1-4.1c0.5-2 2-2.8 4-2.2 1.3 0.5 2.5 1 3.9 1.4 2.6 0.7 3.6-1.6 3.5-3.6-0.1-4.4 0.3-8.2 0.2-12.5 0-1.5 0.1-3 0.1-4.6q0.1 0.1 0.1 0.1c5.6-0.6 11.2-0.9 16.9-0.2 3.1 0.4 6.1 1.1 9.1 1.9 1.4 0.3 2.9 0.6 4.7 1.7 8.5 6.5 13.3 15 13.6 25.8 0.2 7.7 0 15.4 0 23.1 0.1 1.1 0.1 2.3 0.4 3.4 1.3 4.1 5.3 6.8 9.2 6.1 4.4-0.7 6.3-4.3 7.4-8.6 1.3-5.2 1-11 1-13 3.3 0 6.7-0.1 9.9-0.1 0.1 0.9 0.1 3.1 0.1 3.6-0.2 2.5 2.9 18.7-14.5 27.3-14.7 5.7-31.1 0.3-32-0.8-2-2.8-7.5-9.9-8.2-11.1zm13-24.8q0 0 0 0 0 0 0 0zm1.1-0.4c2.2-2.7 2.3-6.8-0.1-9.4-2.5-2.8-5.1-3.4-8.7-2.1q-0.4 0.2-0.6 0.6-5.6 2.7-5 7.8c0 0.3 0.1 0.5 0.2 0.7 0.4 4 4.8 6.8 8.9 5.6 1.6-0.2 2.6-1.3 3.8-2.2 0.3 0 0.4-0.3 0.4-0.5 0.4 0 0.8-0.2 1.1-0.5z"/>
		<path id="&lt;Compound Path&gt;" fill-rule="evenodd" class="s5" d="m122.2 154.7c0 9.2 0 18.4 0 27.5 0 1.1-0.2 1.4-1.3 1.4q-7.4-0.1-14.8 0c-1.1 0-1.3-0.3-1.3-1.4 0-4.4 0-8.9 0-13.3 0-2.2-1.1-3.5-2.9-3.5-1.7 0.1-2.7 1.3-2.7 3.5 0 4.5-0.1 9 0 13.5 0 1.1-0.3 1.3-1.4 1.3-4.2 0-8.5-0.1-12.8 0-1.4 0.1-1.8-0.3-1.8-1.8 0.1-7.2 0-14.4 0-21.6q0-0.2 0-0.5c0-0.4 0-1 0-1.4 2.3-0.1 16.1 0.5 18.6 0.2 3.6-0.6 4-3.3 4.1-5.2-0.4-2.6-1.9-3.8-4-4.2-1.4-0.3-3.2-0.1-4.5 0.2-1 0.2-1.2-0.2-1.2-1 0.1-2.6 0-5.1 0-7.7 0.1-4.6-0.2-9.7-0.1-14.3 0.5 0.8 1.3 1.3 1.8 1.7 2.4 2.1 4.8 4.3 7.3 6.4 1.1 0.9 1.8 0.8 2.6-0.4 0.8-1 1-2.2 1-3.4 0.4-3.9 2.9-6.4 6.1-5.9 1.9 0.3 3.4 1.5 4.7 2.9 3 3.1 2.2 6.9-1.9 8.5-1.6 0.6-2.9 1.4-3.8 2.8-0.7 1-0.8 1.7 0.1 2.6 0.8 1.2 1.2 1.7 1.9 2.6 2.1 2.8 4.3 5.7 6.3 8.5q0 1 0 2zm-7.1 25.6c-0.1 0.8 1.4 0.4 2.2 0.4 0.7 0 2.1 0.6 2.1-0.5 0-1-1.4-0.1-2-0.6-0.9 0.4-2.3-0.5-2.3 0.7zm-2.7 0.4c0.3 0 0.6-0.1 0.6-0.4 0.1-0.4-0.2-0.5-0.5-0.5q-1.7-0.1-3.4-0.1c-0.3 0-0.5 0.1-0.6 0.5 0 0.5 0.4 0.5 0.7 0.5q0.8 0 1.5 0 0 0 0 0 0.9 0 1.7 0z"/>
		<path id="&lt;Path&gt;" class="s6" d="m24.1 118.8c-0.2-5.5-0.3-11.6 1.7-16.9 4.8-15.2 19.7-21.2 33.2-21.6 11.7-0.3 22.4-0.7 34.1-0.7q1.6 0 3.2 0 0 1.5 0.1 2.9 0 0-0.2 0-5.4 0.5-10.8 1-2 0.2-4.1 0.3c-5.9 0.4-11.8 0.3-17.7 0.3-4.7 0.1-9.4 0.7-14 1.8-5.1 2.1-10.3 4.5-14.4 8.5-1.4 1.4-2.5 2.6-3.4 4.3-2.2 4.3-3.1 8.9-3.5 13.6-0.2 2.2-0.2 4.4-0.2 6.7q-0.2 0-0.3 0.1c-1.2-0.3-2.5 0.2-3.7-0.3z"/>
		<path id="&lt;Path&gt;" class="s7" d="m158.7 152.8c-15.9 9.3-31.3 2.9-35.7 0.3 48.2 9.2 45.3-27.1 45.7-28.1 0 3.8 2.2 20.5-10 27.8z"/>
		<path id="&lt;Path&gt;" class="s8" d="m115.6 80.5c3.9 1 8 2.7 11.2 5.2-1.9-0.9-3-1.2-4.4-1.5-3-0.8-6-1.5-9.1-1.9-5.7-0.7-11.3-0.4-16.9 0.2q-0.1-1.4-0.1-2.9c6.4-0.1 12.9-0.7 19.3 0.9z"/>
		<path id="&lt;Compound Path&gt;" class="s9" d="m89.4 142c-4.5 0.5-9-0.3-13.1-2.5-1.9-1.1-3.3-1.8-4.7-3.4-1.5-1.7-2.2-1.6-3 0.6-0.3 0.8-0.5 1.7-0.8 2.5-0.7 1.8-2.1 2.6-3.9 2.2-2.5-0.4-4.4-1.8-5.9-3.6-2.1-2.4-1.7-4.9 0.9-6.8 1-0.8 2.3-1.3 3.5-1.8 1.4-0.6 1.5-1.4 0.4-2.4-0.9-0.7-1.5-1.5-2.2-2.4-1.5-1.9-2.4-4-2.5-5.3-0.8-3.6-1.1-7.1-0.5-10.7 1.8-10.2 9.5-18 19.6-20.3 6.3-1.3 12.6-1.8 19-1.1 0.1 4.3-0.3 8.5-0.2 12.9 0.1 2-0.7 4.1-3.5 3.2-1.4-0.4-2.6-0.9-3.9-1.4-2-0.6-3.5 0.2-4 2.2q-0.5 2.1-0.1 4.1c0.3 1.6 1.3 2.5 3 2.6 2.3 0.1 2.2 0.1 5.3-1.5 2-1.3 3.3-0.5 3.3 1.8q0 7.3 0 14.5c0 0.5 0 0.7 0 1.4 0 4.6 0.2 9.3 0.1 13.9-2.2 0.5-4.5 1.1-6.8 1.3z"/>
		<path id="&lt;Path&gt;" class="s5" d="m51.1 119c-3.5-0.1-5.1 2.1-3.9 5.4 0.5 1.5 1 2.9 1.1 4.4 0.1 2.6-0.9 4.1-3.1 4.8-3 1-6.3 0.3-7.5-1.6q-0.4-0.7-0.6-1.6c-0.4-2 0.1-3.8 0.8-5.6 0.4-1 0.7-2.1 0.7-3.2-0.1-2.1-0.6-2.6-2.7-2.6q-3.9 0-7.8 0c0-2.3 0-4.5 0.2-6.7 0.4-4.7 1.3-9.3 3.5-13.6 0.9-1.7 4.6-8.8 17.8-12.8 4.6-1.1 9.3-1.7 14-1.8 5.9 0 28.9-1.3 32.8-1.6 0 1.5-0.2 3-0.2 4.5-6.4-0.7-12.7-0.2-19 1.1-10.1 2.3-17.8 10.1-19.6 20.3-0.6 3.6-0.3 7.1 0.5 10.7q-3.5 0.1-7-0.1z"/>
		<path id="&lt;Path&gt;" class="s6" d="m24.1 117.8c0.2-3.5-2-4.3-5.3-3.1-1.4 0.5-2.8 1-4.4 1.1-2.5 0.2-4.1-0.8-4.8-3-1-3.1-0.3-6.3 1.7-7.5 0.4-0.3 0.9-0.5 1.5-0.7 2-0.4 3.6 0.1 5.4 0.8 1 0.4 2.1 1 3.3 1.1 2.1 0.3 3.1-0.2 3.7-2.5"/>
		<path id="&lt;Path&gt;" class="s10" d="m30.8 180.2c0 0.2-0.2 0.3-0.4 0.3q0-0.3 0-0.6c0.2 0 0.4 0.1 0.4 0.3z"/>
		<path id="&lt;Path&gt;" class="s11" d="m137.7 113.7c0 0.6-0.2 7.3-0.8 7.4q-0.3-4.9-0.4-6.2c-0.3-4.9-1.5-7.4-3-10.6-2.2-4.6-3.7-6-7.9-8.6-2-1.3-6.9-2.6-6.7-5.3 0.2-2.2 1.7-3.4 3.9-2.8 1.6 0.4 2.9 1.4 4.2 2.4 4.9 3.8 7.9 8.6 9.6 14.6 0.8 3.1 1.1 7.2 1.1 9.1z"/>
		<path id="&lt;Path&gt;" class="s2" d="m127 116.8q-0.2 0.3-0.4 0.6c0.3-0.1 0.4-0.3 0.4-0.6z"/>
		<path id="&lt;Path&gt;" class="s10" d="m24.1 118.8l4 0.2z"/>
		<path id="&lt;Path&gt;" class="s12" d="m24.8 183.5l-0.7-64.7 4 0.2-1.7 64.5z"/>
		<g id="&lt;Group&gt;">
			<path id="&lt;Path&gt;" class="s13" d="m127.7 104.9c3.3 2.8 3.6 7.8 0.7 11.2-2.9 3.4-7.9 3.9-11.1 1.2-3.2-2.8-3.5-7.8-0.6-11.2 2.9-3.4 7.8-3.9 11-1.2z"/>
			<path id="&lt;Path&gt;" class="s14" d="m126.1 106.9c3.2 2.7 3.5 7.7 0.6 11.1-2.8 3.4-7.8 3.9-11 1.2-3.3-2.8-3.5-7.7-0.7-11.1 2.9-3.4 7.9-4 11.1-1.2z"/>
			<g id="&lt;Clip Group&gt;" clip-path="url(#cp1)">
				<path id="&lt;Path&gt;" class="s15" d="m120.9 112.4c2.8 2.3 2.7 7-0.2 10.4-2.9 3.4-7.5 4.3-10.3 1.9-2.8-2.4-2.7-7.1 0.2-10.5 2.8-3.4 7.5-4.2 10.3-1.8z"/>
			</g>
		</g>
		<rect id="&lt;Path&gt;" class="s14" x="114.7" y="179.6" width="4.9" height="1.3" rx="1.3"></rect>
		<rect id="&lt;Path&gt;" class="s14" x="108.1" y="179.6" width="4.9" height="1.3" rx="1.3"></rect>
		<rect id="&lt;Path&gt;" class="s14" x="92" y="179.6" width="4.9" height="1.3" rx="1.3"></rect>
		<rect id="&lt;Path&gt;" class="s14" x="85.3" y="179.6" width="4.9" height="1.3" rx="1.3"></rect>
		<rect id="&lt;Path&gt;" class="s14" x="56.5" y="179.6" width="4.9" height="1.3" rx="1.3"></rect>
		<rect id="&lt;Path&gt;" class="s14" x="49.9" y="179.6" width="4.9" height="1.3" rx="1.3"></rect>
		<rect id="&lt;Path&gt;" class="s14" x="33.7" y="179.6" width="4.9" height="1.3" rx="1.3"></rect>
		<rect id="&lt;Path&gt;" class="s14" x="27.1" y="179.6" width="4.9" height="1.3" rx="1.3"></rect>
		<path id="&lt;Path&gt;" class="s14" d="m118.8 152.7c-4.3 0.8-8.2-3.6-9.5-4.7-0.5-0.4 1.9-2.3 2.3-1.6q3.3 5.7 7.2 6.3z"/>
		<path id="&lt;Path&gt;" class="s16" d="m76.9 91.5q-24 9.3-11.9 32.6-4.2-19.4 11.9-32.6z"/>
		<g id="&lt;Group&gt;">
			<path id="&lt;Compound Path&gt;" class="s9" d="m191.5 166v12.7h-1.9v-8.7l-3.7 8.7h-1.4l-3.7-8.7v8.7h-1.9v-12.7h2.1l4.2 10 4.2-10z"/>
			<path id="&lt;Compound Path&gt;" fill-rule="evenodd" class="s9" d="m203.2 174.5h-7.2q0 1.2 0.8 1.9 0.8 0.7 1.9 0.7 1.6 0 2.2-1.4h2.2q-0.5 1.4-1.6 2.3-1.1 0.9-2.8 0.9-1.4 0-2.5-0.7-1.1-0.6-1.7-1.8-0.6-1.2-0.6-2.7 0-1.6 0.6-2.8 0.6-1.1 1.7-1.8 1.1-0.6 2.5-0.6 1.3 0 2.4 0.6 1 0.6 1.6 1.7 0.6 1.2 0.6 2.6 0 0.6-0.1 1.1zm-1.9-1.7q-0.1-1.2-0.8-1.9-0.8-0.7-1.9-0.7-1 0-1.8 0.7-0.7 0.7-0.8 1.9z"/>
			<path id="&lt;Compound Path&gt;" class="s9" d="m212.5 169q0.9 0.5 1.4 1.4 0.5 1 0.5 2.4v5.9h-1.9v-5.6q0-1.4-0.7-2.1-0.6-0.7-1.7-0.7-1.1 0-1.8 0.7-0.6 0.7-0.6 2.1v5.6h-2v-10.1h2v1.2q0.4-0.6 1.2-1 0.8-0.3 1.6-0.3 1.1 0 2 0.5z"/>
			<path id="&lt;Compound Path&gt;" class="s9" d="m219.7 170.3v5.6q0 0.6 0.2 0.8 0.3 0.3 0.9 0.3h1.2v1.7h-1.6q-1.3 0-2-0.7-0.7-0.6-0.7-2.1v-5.6h-1.2v-1.7h1.2v-2.5h2v2.5h2.3v1.7z"/>
			<path id="&lt;Compound Path&gt;" fill-rule="evenodd" class="s9" d="m225.9 178.2q-1.1-0.6-1.7-1.8-0.6-1.2-0.6-2.7 0-1.6 0.6-2.8 0.7-1.1 1.8-1.8 1.1-0.6 2.5-0.6 1.3 0 2.4 0.6 1.1 0.7 1.8 1.8 0.6 1.2 0.6 2.8 0 1.5-0.6 2.7-0.7 1.2-1.8 1.8-1.2 0.7-2.5 0.7-1.4 0-2.5-0.7zm3.9-1.5q0.7-0.4 1.1-1.2 0.4-0.7 0.4-1.8 0-1.1-0.4-1.9-0.4-0.7-1.1-1.1-0.6-0.4-1.4-0.4-0.7 0-1.4 0.4-0.6 0.4-1 1.1-0.4 0.8-0.4 1.9 0 1.6 0.8 2.5 0.8 0.9 2 0.9 0.7 0 1.4-0.4z"/>
			<path id="&lt;Compound Path&gt;" class="s9" d="m238.8 168.9q0.8-0.4 1.7-0.4v2.1h-0.5q-1.1 0-1.7 0.7-0.6 0.6-0.6 2.1v5.3h-2v-10.1h2v1.5q0.4-0.8 1.1-1.2z"/>
			<path id="&lt;Compound Path&gt;" class="s9" d="m242.9 166.9q-0.4-0.3-0.4-0.9 0-0.6 0.4-1 0.4-0.3 0.9-0.3 0.5 0 0.9 0.3 0.4 0.4 0.4 1 0 0.6-0.4 0.9-0.4 0.4-0.9 0.4-0.5 0-0.9-0.4zm-0.1 1.7h2v10.1h-2z"/>
			<path id="&lt;Compound Path&gt;" class="s9" d="m254.6 169q0.9 0.5 1.4 1.4 0.5 1 0.5 2.4v5.9h-1.9v-5.6q0-1.4-0.7-2.1-0.6-0.7-1.7-0.7-1.1 0-1.8 0.7-0.6 0.7-0.6 2.1v5.6h-2v-10.1h2v1.2q0.5-0.6 1.2-1 0.8-0.3 1.6-0.3 1.1 0 2 0.5z"/>
			<path id="&lt;Compound Path&gt;" fill-rule="evenodd" class="s9" d="m265.3 168.9q0.8 0.5 1.3 1.2v-1.5h2v10.3q0 1.4-0.5 2.4-0.6 1.1-1.6 1.7-1.1 0.7-2.5 0.7-2 0-3.3-1-1.2-0.9-1.4-2.6h1.9q0.3 0.8 1 1.3 0.7 0.5 1.8 0.5 1.2 0 1.9-0.8 0.7-0.8 0.7-2.2v-1.7q-0.5 0.7-1.3 1.2-0.9 0.5-2 0.5-1.2 0-2.3-0.7-1-0.7-1.6-1.9-0.6-1.2-0.6-2.7 0-1.5 0.6-2.7 0.6-1.1 1.6-1.8 1.1-0.6 2.3-0.6 1.1 0 2 0.4zm0.9 3q-0.4-0.8-1-1.2-0.7-0.4-1.5-0.4-0.7 0-1.4 0.4-0.6 0.4-1 1.1-0.5 0.8-0.5 1.8 0 1.1 0.5 1.9 0.4 0.7 1 1.2 0.7 0.4 1.4 0.4 0.8 0 1.5-0.4 0.6-0.4 1-1.2 0.4-0.8 0.4-1.8 0-1.1-0.4-1.8z"/>
			<path id="&lt;Compound Path&gt;" class="s9" d="m289.3 166v12.7h-2v-8.7l-3.7 8.7h-1.4l-3.6-8.7v8.7h-2v-12.7h2.1l4.2 10 4.3-10z"/>
			<path id="&lt;Compound Path&gt;" class="s9" d="m292.4 166.9q-0.4-0.3-0.4-0.9 0-0.6 0.4-1 0.4-0.3 0.9-0.3 0.5 0 0.9 0.3 0.3 0.4 0.3 1 0 0.6-0.3 0.9-0.4 0.4-0.9 0.4-0.5 0-0.9-0.4zm-0.1 1.7h2v10.1h-2z"/>
			<path id="&lt;Compound Path&gt;" class="s9" d="m304.1 169q0.9 0.5 1.4 1.4 0.5 1 0.5 2.4v5.9h-1.9v-5.6q0-1.4-0.7-2.1-0.6-0.7-1.7-0.7-1.1 0-1.8 0.7-0.6 0.7-0.6 2.1v5.6h-2v-10.1h2v1.2q0.5-0.6 1.2-1 0.8-0.3 1.6-0.3 1.1 0 2 0.5z"/>
			<path id="&lt;Compound Path&gt;" fill-rule="evenodd" class="s9" d="m308.9 170.9q0.6-1.1 1.6-1.8 1.1-0.6 2.3-0.6 1 0 1.9 0.4 0.9 0.4 1.4 1.2v-4.9h2v13.5h-2v-1.5q-0.5 0.7-1.3 1.2-0.9 0.5-2 0.5-1.2 0-2.3-0.7-1-0.7-1.6-1.9-0.6-1.2-0.6-2.7 0-1.5 0.6-2.7zm6.8 1q-0.4-0.8-1-1.2-0.7-0.4-1.5-0.4-0.7 0-1.4 0.4-0.6 0.4-1.1 1.1-0.4 0.8-0.4 1.8 0 1.1 0.4 1.9 0.5 0.7 1.1 1.2 0.7 0.4 1.4 0.4 0.8 0 1.5-0.4 0.6-0.4 1-1.2 0.4-0.8 0.4-1.8 0-1.1-0.4-1.8z"/>
			<path id="&lt;Compound Path&gt;" class="s9" d="m322.6 178.4q-0.9-0.4-1.4-1.1-0.5-0.8-0.6-1.7h2.1q0 0.7 0.5 1.1 0.6 0.4 1.4 0.4 0.8 0 1.3-0.3 0.4-0.4 0.4-0.9 0-0.6-0.5-0.8-0.5-0.3-1.6-0.6-1.1-0.3-1.8-0.6-0.6-0.3-1.1-0.9-0.5-0.6-0.5-1.6 0-0.8 0.4-1.5 0.5-0.6 1.3-1 0.9-0.4 2-0.4 1.6 0 2.6 0.9 1 0.8 1 2.3h-1.9q-0.1-0.7-0.6-1.1-0.4-0.4-1.2-0.4-0.8 0-1.2 0.3-0.4 0.4-0.4 0.9 0 0.4 0.3 0.6 0.2 0.3 0.6 0.5 0.4 0.1 1.2 0.4 1 0.3 1.7 0.6 0.7 0.3 1.2 0.8 0.4 0.6 0.5 1.6 0 0.9-0.5 1.5-0.4 0.7-1.3 1.1-0.8 0.4-1.9 0.4-1.1 0-2-0.5z"/>
			<path id="&lt;Compound Path&gt;" class="s9" d="m348.6 168.6l-3 10.1h-2.1l-1.9-7.4-1.9 7.4h-2.1l-3-10.1h2l2 8.1 2.1-8.1h2l2 8.1 1.9-8.1z"/>
			<path id="&lt;Compound Path&gt;" class="s9" d="m350.6 166.9q-0.4-0.3-0.4-0.9 0-0.6 0.4-1 0.4-0.3 0.9-0.3 0.5 0 0.9 0.3 0.3 0.4 0.3 1 0 0.6-0.3 0.9-0.4 0.4-0.9 0.4-0.5 0-0.9-0.4zm-0.1 1.7h2v10.1h-2z"/>
			<path id="&lt;Compound Path&gt;" class="s9" d="m357.8 170.3v5.6q0 0.6 0.2 0.8 0.3 0.3 0.9 0.3h1.2v1.7h-1.5q-1.4 0-2.1-0.7-0.7-0.6-0.7-2.1v-5.6h-1.1v-1.7h1.1v-2.5h2v2.5h2.3v1.7z"/>
			<path id="&lt;Compound Path&gt;" class="s9" d="m369.2 169q0.9 0.5 1.4 1.4 0.5 1 0.5 2.4v5.9h-2v-5.6q0-1.4-0.6-2.1-0.6-0.7-1.8-0.7-1.1 0-1.7 0.7-0.7 0.7-0.7 2.1v5.6h-1.9v-13.5h1.9v4.6q0.5-0.6 1.3-1 0.8-0.3 1.7-0.3 1.1 0 1.9 0.5z"/>
			<path id="&lt;Compound Path&gt;" class="s9" d="m388.6 166v12.7h-2v-5.5h-5.7v5.5h-1.9v-12.7h1.9v5.5h5.7v-5.5z"/>
			<path id="&lt;Compound Path&gt;" fill-rule="evenodd" class="s9" d="m400.3 174.5h-7.3q0.1 1.2 0.8 1.9 0.8 0.7 1.9 0.7 1.6 0 2.3-1.4h2.1q-0.4 1.4-1.6 2.3-1.1 0.9-2.8 0.9-1.4 0-2.4-0.7-1.1-0.6-1.7-1.8-0.6-1.2-0.6-2.7 0-1.6 0.6-2.8 0.5-1.1 1.6-1.8 1.1-0.6 2.5-0.6 1.4 0 2.4 0.6 1.1 0.6 1.7 1.7 0.6 1.2 0.6 2.6 0 0.6-0.1 1.1zm-2-1.7q0-1.2-0.8-1.9-0.7-0.7-1.9-0.7-1 0-1.7 0.7-0.7 0.7-0.9 1.9z"/>
			<path id="&lt;Compound Path&gt;" fill-rule="evenodd" class="s9" d="m402.7 170.9q0.6-1.1 1.6-1.8 1-0.6 2.3-0.6 1.1 0 1.9 0.4 0.9 0.5 1.4 1.2v-1.5h2v10.1h-2v-1.5q-0.5 0.7-1.4 1.2-0.9 0.5-2 0.5-1.2 0-2.2-0.7-1-0.7-1.6-1.9-0.6-1.2-0.6-2.7 0-1.5 0.6-2.7zm6.8 1q-0.4-0.8-1.1-1.2-0.6-0.4-1.4-0.4-0.8 0-1.4 0.4-0.7 0.4-1.1 1.1-0.4 0.8-0.4 1.8 0 1.1 0.4 1.9 0.4 0.7 1.1 1.2 0.6 0.4 1.4 0.4 0.8 0 1.4-0.4 0.7-0.4 1.1-1.2 0.4-0.8 0.4-1.8 0-1.1-0.4-1.8z"/>
			<path id="&lt;Compound Path&gt;" class="s9" d="m418 168.9q0.8-0.4 1.7-0.4v2.1h-0.5q-1.1 0-1.7 0.7-0.6 0.6-0.6 2.1v5.3h-2v-10.1h2v1.5q0.4-0.8 1.1-1.2z"/>
			<path id="&lt;Compound Path&gt;" class="s9" d="m424.3 170.3v5.6q0 0.6 0.2 0.8 0.3 0.3 0.9 0.3h1.2v1.7h-1.5q-1.4 0-2.1-0.7-0.7-0.6-0.7-2.1v-5.6h-1.1v-1.7h1.1v-2.5h2v2.5h2.3v1.7z"/>
		</g>
	</g>
	<g id="Layer 2">
	</g>
</svg>