<svg version="1.2" xmlns="http://www.w3.org/2000/svg" viewBox="0 0 1105 1280" width="1105" height="1280">
	<title>6917-ai</title>
	<style>
		.s0 { fill: #fdffff } 
		.s1 { fill: #dceaff } 
		.s2 { fill: #699dee } 
		.s3 { fill: #f8fcff } 
		.s4 { fill: #f99746 } 
		.s5 { fill: #2b478b } 
		.s6 { fill: #cde0fb } 
		.s7 { fill: #afcdfb } 
		.s8 { fill: #ffb27d } 
		.s9 { fill: #ed7d2b } 
		.s10 { fill: #233862 } 
		.s11 { fill: #2a4e96 } 
		.s12 { fill: #ed985f } 
		.s13 { fill: #1d2a49 } 
		.s14 { fill: #bc3f3f } 
		.s15 { fill: #a02e2e } 
		.s16 { fill: #1e3d70 } 
		.s17 { fill: #ed975d } 
		.s18 { fill: #a9453d } 
		.s19 { fill: #2c3a64 } 
		.s20 { fill: #163560 } 
		.s21 { fill: #b0d0ff } 
		.s22 { fill: #98baf4 } 
		.s23 { fill: #e8945b } 
		.s24 { fill: #ebf3fa } 
		.s25 { fill: #ffffff } 
		.s26 { opacity: .5;fill: #498bea } 
		.s27 { fill: #f0f7ff } 
		.s28 { opacity: .5;fill: #cde0fb } 
		.s29 { fill: #5994ec } 
		.s30 { fill: #498bea } 
	</style>
	<g id="‘лой_1">
		<path id="&lt;Path&gt;" class="s0" d="m0 0h1112v1280h-1112z"/>
		<g id="&lt;Group&gt;">
			<path id="&lt;Path&gt;" class="s1" d="m28 113h1050.1v1054.4h-1050.1z"/>
			<path id="&lt;Path&gt;" class="s2" d="m28 796.3h1050.1v371.1h-1050.1z"/>
			<path id="&lt;Path&gt;" class="s3" d="m323.9 226.7l-295.9-2.4v-43.2c27.1-8.9 66.8-13.7 108 9.9q78.4-10.4 136.4 9.1 38.7 13 51.5 26.6z"/>
			<ellipse id="&lt;Path&gt;" class="s3" cx="575.9" cy="221.2" rx="18.1" ry="22.6"/>
			<path id="&lt;Path&gt;" class="s3" d="m49 315.2q6.6-17.3 22.3-15.4 22.7-28.8 47-3.8 25.8-6.2 45 5.4 12.7 7.7 16.9 15.7z"/>
			<path id="&lt;Path&gt;" class="s3" d="m636.4 297.1q8.8-19.7 29.7-17.5 30.4-32.7 62.8-4.4 34.5-7 60 6.1 17 8.8 22.6 18z"/>
			<path id="&lt;Path&gt;" class="s3" d="m1078.1 170.2v41.8l-305.6-3.1q19.4-36.3 65.7-32.2 67.3-60.4 138.9-8.1 51.4-8.7 101 1.6z"/>
			<g id="&lt;Group&gt;">
				<path id="&lt;Path&gt;" class="s3" d="m100.4 738.9l420.3-15.8 496.5-32.8-490.2 102.9z"/>
				<g id="&lt;Group&gt;">
					<g id="&lt;Group&gt;">
						<path id="&lt;Path&gt;" class="s4" d="m468.9 275.6q-58-8.4-77.7-6.1c-19.6 2.2 2.9 42.5-17.8 43.1q-10 0.3-129.6 8.5l14.1-22.3-18.3-20.2q87.8-6 102.1-8.2c14.3-2.2-1.2-31.2 15.7-40.5q17-9.4 105.9 0.8z"/>
						<g id="&lt;Group&gt;">
							<path id="&lt;Path&gt;" class="s5" d="m499.8 500.5l-40.9-293.2c-0.2-1.4 0.5-2.7 1.6-2.9 1.1-0.3 2.1 0.6 2.3 2l41 291.8c0.2 1.4-3.8 3.4-4 2.3z"/>
						</g>
					</g>
					<path id="&lt;Path&gt;" class="s6" d="m715.4 774.6l-156.6 43.9-145.4-16.9 87.9-307.6z"/>
					<path id="&lt;Path&gt;" class="s7" d="m501.3 494l25.7 324.5-174.7-18.5z"/>
				</g>
			</g>
			<g id="&lt;Group&gt;">
				<path id="&lt;Path&gt;" class="s8" d="m943 271.4q-5.9-13.1 0-15.8c5.9-2.7 8.6-0.2 8.8 2.8q0.3 3-2.2 14.7z"/>
				<path id="&lt;Path&gt;" class="s4" d="m947.7 355.3c-10.8 2.4-20.7 3.6-29.6 3.8-8.5 0.3-16.1-0.3-22.8-1.3q-2.7-0.3-5.1-0.8-17.5-3.3-27.1-9.2 15.9-41.7 28.8-40.1c15.1 1.9 40.7 18.8 43.2 14.1q2.9-5.4 5.3-51.3 6.7-5.7 10.7 0.3 13.1 80.8-3.4 84.5z"/>
				<path id="&lt;Path&gt;" class="s9" d="m947.7 355.3c-10.8 2.4-20.7 3.6-29.6 3.8-8.5 0.3-16.1-0.3-22.8-1.3-4-15.9-6.9-32.2 1.2-22.4q14.3 17.3 51.2 19.9z"/>
				<path id="&lt;Path&gt;" class="s10" d="m876.1 689.1c1.7 9.4 11.8 13.6 17.6 14.8q5.7 1.1 5.7 6.3l-35.9 0.1q-2.8-1.8-1.6-18.3 12.4-12.3 14.2-2.9z"/>
				<path id="&lt;Path&gt;" class="s11" d="m888.2 491.4c-0.2 10.8-0.6 22-1.4 32-3.9 47.7-5.2 105.3-5.8 116.4q-0.9 19.3-4 50.1-6 7.2-17.8 3.7-9.8-44.3-12-91 0-1.2 0-2.3c-0.3-6.2-0.6-13.3-0.8-20.9q-1.8-51-3.8-126.8l45-13.2q1.1 24.9 0.6 52z"/>
				<path id="&lt;Path&gt;" class="s10" d="m846.4 579.4q-1.8-51-3.8-126.8l45-13.2q-32.5 121.9-41.2 140z"/>
				<path id="&lt;Path&gt;" class="s8" d="m779.9 449.8c-1.6 5-1.5 13.5-2.8 15-1.4 1.6-4.9 6.2-5.5 5.2-0.6-1 2.5-7.2 0.7-5.9-1.7 1.3-6.6 13.6-7.2 10.3-0.7-3.2 0.5-14 1.2-16.9q0.6-3 7.9-13.8 7.4 1.1 5.7 6.1z"/>
				<path id="&lt;Path&gt;" class="s10" d="m774.7 669.7l10.6 3q0.8 9.2 0.5 16.1c-0.3 6.9 1.5 14.4 6.5 15.7q5 1.4 2.9 5.8-10.5 0-13.3 0c-2.8 0-5.9-3.4-6.7-9.8-0.8-6.3-6.6-9.7-7.8-14.9q-1.3-5.2 5.1-12.5z"/>
				<path id="&lt;Path&gt;" class="s11" d="m880.5 453.8q-42.1 112.7-64.5 162.2-22.4 49.4-29.5 63.2-12.8-6.3-14-10.6 8.6-95.5 23.6-118.8c8.5-13.1 18.5-52.6 18.9-66.4q0.5-13.8 10.4-46.7z"/>
				<path id="&lt;Path&gt;" class="s4" d="m892.9 459.1q-16.8 14-40.5 12.7c-10.4-0.5-31.1-4.2-34.4-14.6-0.8-2.4-0.2-5.5 1-10.2 3-12.3 10.1-35.7 8-87.7q-0.3-7.2 0.2-13.6c2.3-25.6 14-40.7 25.3-45.7q27.7-12.1 36.9 4.7 12.2 12.1 14.1 37.3 3.6 50.5-10.6 117.1z"/>
				<path id="&lt;Path&gt;" class="s8" d="m876.1 265.1l7.4 9.8 7.8 10.3q-0.4 3.1-1.6 8.7c-0.5 2.3-0.4 2.1-1.2 5.3q1.3 4-1.4 4.8-13.8 2.8-26.5-6.9 13.4-8.6 15.5-32z"/>
				<path id="&lt;Path&gt;" class="s12" d="m883.5 274.9l8.2 7.7q-0.8 5.7-2 11.3-10.6-5.7-14.8-19.9z"/>
				<path id="&lt;Path&gt;" class="s8" d="m900 284.7q-24.2 3.8-25.9-14.8c-1.7-18.6-6-30.7 9.4-33.9 15.4-3.2 19.1 3.5 20.9 9.5 1.8 6.1 1.9 37.7-4.4 39.2z"/>
				<path id="&lt;Path&gt;" class="s13" d="m866.5 233c-0.2-0.3-0.7-0.6-1.9-0.7q1-0.7 2.2-0.7c0.3-1.9 1.2-5.3 3.9-6q-1.5 0.9-1.7 2.9c3.2-3.8 9.9-6.4 28.3-3.7 24.3 3.5 15.7 22.6 12.4 24.8-3.2 2.1-10.9-4.6-16.8-4.3-5.9 0.3-7.3 10.9-9.3 12.2-2.1 1.4-1.2-1.2-3.8-2.8-2.7-1.7-3.1 3.9-2.4 7.6q0.6 3.6-3.2 8.2 0 0-3.6-5.2c-3.6-5.2-6.5-26.6-4.6-31.1q0.2-0.6 0.5-1.2z"/>
				<g id="&lt;Group&gt;">
					<path id="&lt;Path&gt;" class="s11" d="m940.4 262.7l-41.1 0.4-0.3-7.7 41-4z"/>
					<path id="&lt;Path&gt;" class="s11" d="m971.4 264l-44.7 0.8-0.5-14.1 44.6-4.3z"/>
					<path id="&lt;Path&gt;" class="s10" d="m1001.6 265.1h-37.7l-0.7-18.9 37.6-4.3z"/>
					<path id="&lt;Path&gt;" class="s10" d="m999.9 265.8l-0.8-24.4c-0.1-1.5 0.8-2.7 2-2.8 1.1 0 2.1 1.1 2.2 2.6l0.9 24.3c0 1.5-0.9 2.7-2.1 2.8-1.1 0-2.1-1.1-2.2-2.5z"/>
					<path id="&lt;Path&gt;" class="s11" d="m899.2 264.8c-1.1 0-1.9-1-2-2.2l-0.2-6.4c-0.1-1.3 0.7-2.4 1.8-2.4 1-0.1 1.9 0.9 1.9 2.2l0.3 6.3c0 1.3-0.8 2.4-1.8 2.5z"/>
				</g>
				<path id="&lt;Path&gt;" class="s9" d="m819 447c3-12.3 10.1-35.7 8-87.7q-0.3-7.2 0.2-13.6 9.1-1 23 11.3-8.5 65.3-31.2 90z"/>
				<path id="&lt;Path&gt;" class="s4" d="m871 359.7c-17.3-3.1-63.4 26.9-66 34.4q-6.4 18.2-23.4 54.6-2.5 1.7-5.9 0.6-3.5-1.1-4.4-3.1 12.9-62.4 17.5-71.6c4.6-9.2 24.2-35.3 36.3-53.9q12.2-18.6 35.5-23.6 17.2 63.9 10.4 62.6z"/>
				<path id="&lt;Path&gt;" class="s8" d="m950.9 248.3q0.3 1.5-2.7 3.1-3 1.7-8-2.2 1.6-4 10.7-0.9z"/>
				<path id="&lt;Path&gt;" class="s14" d="m888 316q1.1 98.3-81.6 128.2l-13.9-2.9 7.9-19.5q72.6-23.6 82.9-104.3z"/>
				<path id="&lt;Path&gt;" class="s15" d="m884.6 304.6l3.4 3v8.4l-4.7 1.5-5-6.5v-6l3.4-0.4z"/>
				<path id="&lt;Path&gt;" class="s9" d="m881.7 304.6q-1.1 5.4-0.9 14.4-15.6-2.3-22.9-21.9 7.4-7.7 10.6-8.6 0.8 10.5 13.2 16.1z"/>
				<path id="&lt;Path&gt;" class="s9" d="m888.5 299.2q2.6 4.5 3.4 8.5 0.9 4-2.1 9.8-0.5-7.9-8.1-12.9 7-0.6 6.8-5.4z"/>
			</g>
			<g id="&lt;Group&gt;">
				<path id="&lt;Path&gt;" class="s8" d="m701.2 478.2q9.6-12.3 10.6-8 1.1 4.3-2.2 14.8l-7.6 2.6z"/>
				<path id="&lt;Path&gt;" class="s11" d="m702 487.6q-26.4 34.5-38.4 33.1c-6.3-0.8-15.5-4.2-23-8-6.8-3.5-12.1-7.2-12.6-9.6-0.7-2.8-1.6-22.1-2.3-38q-0.5-12-0.8-22.2 36.5 53.6 42.1 50 5.7-3.6 34.2-14.7z"/>
				<path id="&lt;Path&gt;" class="s16" d="m640.6 512.7c-6.8-3.5-12.1-7.2-12.6-9.6-0.7-2.8-1.6-22.1-2.3-38q12.5 8.8 14.9 47.6z"/>
				<path id="&lt;Path&gt;" class="s8" d="m602 404.7c0-0.8 19.2 9.6 19.8 9.9q0 0 0 0-0.3 3.9-0.5 11 0 1 0 2.2-0.1 6.2-3.1 14.7-13.1 6-23.1-9.5 6.9-9.3 6.9-28.3z"/>
				<path id="&lt;Path&gt;" class="s17" d="m621.8 414.6q0 0 0 0-0.3 3.9-0.5 11c-9.4-3.4-15.6-12-17.4-16.3-0.6-1.3 17.3 5.1 17.9 5.3z"/>
				<path id="&lt;Path&gt;" class="s8" d="m625.8 414q-21.8 5.8-24.5-11.3c-2.7-17-7.4-27.8 6.5-32.2 13.8-4.5 17.6 1.4 19.6 6.8 2 5.4 4.1 34.7-1.6 36.7z"/>
				<path id="&lt;Path&gt;" class="s18" d="m602 407.4c-0.3 0.2-5.1 1.9-13.6-20.4-1.3-3.5-2.1-11 1.2-17.5 3.4-6.6 14.9-11.5 24.5-13.5 9.6-2.1 11.8 4.7 14 11.5q2.2 7.2 8.9 13.2c-8.3 5.5-18.1-3-21.5-1.7-3.5 1.3-4.8 8-5.1 10.2-0.3 2.2-0.7 3.9-5 1.9-4.3-2-2.1 7.6-1.4 9.5q0.5 4.9-2 6.8z"/>
				<g id="&lt;Group&gt;">
					<path id="&lt;Path&gt;" class="s19" d="m543.3 845.2h-13.2c-2.7 0-5.8-3.5-6.6-9.8-0.7-6.3-6.4-9.8-7.6-15q-1.3-5.1 5-12.4l1.1-1.7 1.1-1.8 10.4 3.1q0.3 3.1 0.4 7c0.1 2.9 0.2 6.2 0.1 9.1-0.3 6.9 1.5 14.3 6.4 15.7q4.9 1.3 2.9 5.8z"/>
					<path id="&lt;Path&gt;" class="s19" d="m635 845.2h-34.9q-0.5-0.1-0.8-0.3c-2.3-1.4-1.6-12.6-1.3-16q0.1-0.7 0.1-1.1 12.3-12.2 14-2.8 0.1 0.4 0.2 0.8c2.1 8.8 11.6 12.8 17.1 13.9 4.2 0.9 5.3 4 5.6 5.5z"/>
					<path id="&lt;Path&gt;" class="s4" d="m628 593.5q-1.9 29.1-4.1 64c-3 47.5-6.6 105.8-6.9 116.9q-0.6 19.2-3.1 49.9-5.8 7.3-17.5 4.2-10.4-43.8-13.3-90.2-0.1-1.1-0.2-2.3-2.7-47.2-7-146.5z"/>
					<path id="&lt;Path&gt;" class="s9" d="m628 593.5q-1.9 29.1-4.1 64l-40.8 80.8q-0.1-1.1-0.2-2.3-2.7-47.2-7-146.5z"/>
					<path id="&lt;Path&gt;" class="s4" d="m619.5 597q-33.7 105.3-55.8 154.8-22.1 49.5-29 63.3-12.6-6.4-13.8-10.7 8.5-95.5 23.3-118.8c8.3-13.2 18.2-52.7 18.6-66.5q0.5-13.8 3-41.1z"/>
				</g>
				<path id="&lt;Path&gt;" class="s11" d="m636.3 496.8c-0.3 9-0.9 19-1.6 29.2q0 0.1 0 0.2-0.1 0.9-0.2 1.8-0.3 5-0.7 9.9-0.4 4.6-0.8 9.1-0.3 3.7-0.6 7.4l-0.1 0.3c0 0.9-0.1 1.9-0.2 2.8-2.2 23.2-4.4 41.6-4.8 41.9-0.4 0.3-0.9 0.5-1.4 0.4-4.9-0.9-19.5 0.1-31.4-3.4-10.1-2.9-18.7-8.2-27.8-15.2-1.2-0.9-3.9-3.4-3.7-5.2 0.3-1.9 0.8-4.8 1.3-8.3 0.7-4.3 1.6-9.6 2.5-15.8 0.9-6 1.8-12.8 2.6-20.3 0.7-7 1.4-14.5 1.9-22.5q0.4-6.9 1.1-13.7c1.2-11.7 3-22.9 5.4-32.7 4.4-18.4 12.7-30.2 20.3-35.5 1-0.7 4.2 1.5 9 5.5 4.5 3.8 7.9 5.4 12.5 5l5.3 5.2c4.8 7.3 9.9 16.9 11.1 30.4q0.1 1.6 0.2 3.2c0.3 5.6 0.3 12.5 0.1 20.3z"/>
				<path id="&lt;Path&gt;" class="s16" d="m632.1 557.5l-2.1 20.5q-30-11.1-48-70z"/>
				<path id="&lt;Path&gt;" class="s16" d="m634.7 526q0 0.1 0 0.2-0.1 0.9-0.2 1.8-0.3 5-0.7 9.9-1.9 1.1-3.4 1.8l-16.1-35.2 0.9-5q8.3 20.7 19.5 26.5z"/>
			</g>
			<g id="&lt;Group&gt;">
				<path id="&lt;Compound Path&gt;" class="s20" d="m283.3 349.9q6.8-4.4 12.3-1.6c20.9-3.1 27 27.4 26.7 37.9-0.3 10.5-1.2 21.8 8.1 35.4q27 39.4-29.5 41.1c-0.5-31.4-30.7-20-29.3-16.8-38.7 11.6-3.9-85.9 11.7-96z"/>
				<path id="&lt;Path&gt;" class="s21" d="m313.4 427.5q9.3 2.7 12.1 7.9c2.7 5.2 14.3 46.7 16.2 48q2 1.2 22.8-4.6 2.9 4.2 1.1 10.3-7.7 13.2-18 18.9 0 0 0 0c-3.6 2-7.6 3.1-11.6 2.3-8.5-1.5-15.2-9.4-19.6-16.3q-3.6-5.7-5.6-10.6z"/>
				<path id="&lt;Path&gt;" class="s22" d="m317.9 481.3c6.3-5 10.8 9.8 14.9 19.2 4.1 9.1 14.4 7.5 14.8 7.5-3.6 2-7.6 3.1-11.6 2.3-8.5-1.5-15.2-9.4-19.6-16.3-1-5.3-1.1-10.6 1.5-12.7z"/>
				<path id="&lt;Path&gt;" class="s10" d="m235.5 760.1l10.5 3q0.7 9.2 0.4 16c-0.3 6.9 1.6 14.2 6.5 15.6q5 1.3 2.9 5.7-10.4 0-13.2 0c-2.8 0-5.9-3.4-6.7-9.7-0.7-6.3-6.5-9.7-7.7-14.8q-1.2-5.2 5.1-12.4z"/>
				<path id="&lt;Path&gt;" class="s10" d="m299.8 777.9c1.7 9.3 11.8 13.5 17.5 14.6q5.7 1.2 5.7 6.3l-35.6 0.1q-2.8-1.7-0.5-32.3 11.2 2 12.9 11.3z"/>
				<path id="&lt;Path&gt;" class="s8" d="m261.6 546.9c7.3-20.5 11.8-26.4 10.9-32.8q-0.6-4.7 1.9-88.4c0.9-0.3 2.7-0.6 3.6-0.9 3-0.8 5.5-3.5 6.5-7.1 1.3-4.4 2.3-10.8 2.3-18.9l0.9 0.3 15.8 3.9q-0.4 6.2-0.4 12 0 0.1 0 0.2c0 5 2.6 9.5 6.5 10.9q2 0.8 3.8 1.4 5.8 20.6 6.9 41.9c1.1 21.2-10.6 30.4 0.1 72.9 10.8 43.3-62.9 16-58.8 4.6z"/>
				<path id="&lt;Path&gt;" class="s23" d="m303.5 403q-0.4 6.2-0.4 12c-8.8-0.3-13.5-10.4-15.4-15.9z"/>
				<path id="&lt;Path&gt;" class="s8" d="m306.4 408.5q-20.9 0.4-20.9-15.8c0-16.3-2.7-27.2 10.6-28.2 13.4-0.9 16 5.3 17 10.7 1.1 5.4-1.3 32.8-6.7 33.3z"/>
				<path id="&lt;Path&gt;" class="s20" d="m305.6 364.1q-5.7 19.1-14.5 21.9-8.7 2.9-12.5-0.1 6.7-6.7 8.1-18.3 14.6-12.5 18.9-3.5z"/>
				<path id="&lt;Path&gt;" class="s20" d="m312.5 366.2q4.8 7.3 0.5 20.3c0.4-6.2-1.1-11.2-2.8-15q-1.7-3.8-6-5.8 3.2-7.3 8.3 0.5z"/>
				<path id="&lt;Path&gt;" class="s24" d="m309.4 398q-0.9 2.5-3.2 2.6-2.9 0.2-4.3-2.2 3.2-1.7 7.5-0.4z"/>
				<path id="&lt;Path&gt;" class="s21" d="m274.4 425.7q22.1 22.5 39 1.8 5.8 12.8 9.6 31.4 3.7 18.5-5.7 51.4l-20.7 7.8-6.6-2-18.7-5.8q-2.4-1-4.5-7.1c-0.9-2.5-1.4-25.8-1.8-33.3q-0.5-11.2-5.5-7.2z"/>
				<path id="&lt;Path&gt;" class="s22" d="m294.3 513.2q-9-4.5-15.2-45.8 3.9 14.2 28.6 44-4.5 6.3-13.4 1.8z"/>
				<path id="&lt;Path&gt;" class="s22" d="m271.7 460q-3 29.1 26.4 53.1l-8.1 3-18.7-5.8q-2.4-1-4.5-7.1c-0.9-2.5-1.4-23-1.8-30.4z"/>
				<path id="&lt;Path&gt;" class="s9" d="m316 515.3q10.2 40 10.9 53.6c0.7 13.6-19.6 193.1-20.4 199.3q-0.8 5.9-6.7 9.7-2.7 2-6.5 0.6-5.3-1.9-7-4.1-8-128-3.1-173.8 5-45.7 5-85.3z"/>
				<path id="&lt;Path&gt;" class="s4" d="m308.8 518.1q6.5 34.1 2.5 42.7c-17 35.8-24.7 96.7-25.6 105.9-1.3 13-25.9 75.7-33.6 95.2-1.4 3.4-4.5 5.3-7.5 4.4-1.5-0.4-3.1-0.9-4.3-1.5q-3.6-1.6-4.8-4.7c0-54 11.4-87.3 14.5-104.6 3.1-17.3 3.9-79.6 5.4-97.4q1.5-17.7 17.1-44z"/>
				<path id="&lt;Path&gt;" class="s25" d="m309.6 398.1q0.1 2.1-3.1 2.4-3.8 0.3-4.2-1.7 4.2-2.2 7.3-0.7z"/>
				<path id="&lt;Path&gt;" class="s10" d="m317 519.4q-17.1 8-46.7-1.3-0.1-4 1-7.8 24.2 3.4 34 3.2 8.2-0.3 12.3-4.3 1.6 5-0.6 10.2z"/>
				<g id="&lt;Group&gt;">
					<path id="&lt;Compound Path&gt;" fill-rule="evenodd" class="s25" d="m307.7 524c-2.5 0-4.5-2.8-4.5-6.3 0-3.5 2-6.3 4.5-6.3 2.4 0 4.4 2.8 4.4 6.3 0 3.5-2 6.3-4.4 6.3zm3-6.3c0-2.5-1.4-4.5-3-4.5-1.7 0-3 2-3 4.5 0 2.4 1.3 4.4 3 4.4 1.6 0 3-2 3-4.4z"/>
				</g>
				<path id="&lt;Path&gt;" class="s8" d="m364.5 480.3q9.6-12.3 10.6-8 1 4.4-2.2 14.8l-7.7 2.6z"/>
			</g>
			<path id="&lt;Path&gt;" class="s26" d="m1078.1 1167.4h-1050.1v-264.6c84.6-148.8 285.1 18.4 337.3 48.6 52.2 30.3 174.2-25.9 222.3-52.8 87-48.6 142 13.9 179.6 29.6 37.7 15.8 55.9-42.2 113.3-74.3q57.5-32.1 197.6 62.3z"/>
			<g id="&lt;Group&gt;">
				<path id="&lt;Path&gt;" class="s27" d="m100.4 738.9l426.6 54.3 490.2-102.9-184.6 292h-527.3z"/>
				<path id="&lt;Path&gt;" class="s28" d="m832.6 982.3h-527.3l221.7-189.1z"/>
				<path id="&lt;Path&gt;" class="s6" d="m527 793.2l-221.7 189.1-204.9-243.4z"/>
			</g>
			<path id="&lt;Path&gt;" class="s29" d="m1078.1 1063.1h-1050.1v-83.6c84.6-148.8 285.1 18.4 337.3 48.7 52.2 30.2 174.2-26 222.3-52.9 87-48.6 142 13.9 179.6 29.6 37.7 15.8 55.9-42.2 113.3-74.3q57.5-32.1 197.6 62.4z"/>
			<g id="&lt;Group&gt;">
				<g id="&lt;Group&gt;">
					<path id="&lt;Path&gt;" class="s16" d="m141.5 927.6l-3.1-2.4 273.6-526.9 3 2.5z"/>
					<path id="&lt;Path&gt;" class="s4" d="m79.5 975.9l47.1-90c8.7-16.7 26.7-21.4 40-10.5l0.5 0.4c13.4 10.9 17.1 33.4 8.4 50l-47 90.1z"/>
				</g>
				<path id="&lt;Path&gt;" class="s8" d="m372 487.1q-3.6-8.7 0.5-15c4.2-6.3 7.2-2 7 2.6-0.2 4.5-3.4 11.2-7.5 12.4z"/>
				<path id="&lt;Path&gt;" class="s8" d="m329.7 536.4c0.7-0.1 1.5-0.9 2.4-1.3q0.6-0.3 1.6-0.3-0.5 1.4-0.9 2.5c1.9 0.3 4.5 1.2 7.9 4.6 0.7 0.6 1.1 1.6 1.2 2.7 0.1 1-0.2 2-1.5 2.1-2.5 0.3-1.6-0.3-5.2 0.1-3.5 0.4-7-1.2-8.3-4l-2.4-2.3 1.9-5.6q1.6 0.8 3.3 1.5z"/>
				<path id="&lt;Path&gt;" class="s21" d="m278.6 462.7c4.3 18.3 11.7 34.3 16.5 41.1 4.3 6 31.5 30.8 32.3 31.5q0.9 0.7-2.4 6.3-20.4-4.5-34.5-15.3c-14.1-10.9-40.2-51-37.4-72.6q2.8-21.6 21.5-28 0.3 21.2 4 37z"/>
			</g>
			<g id="&lt;Group&gt;">
				<g id="&lt;Group&gt;">
					<path id="&lt;Path&gt;" class="s16" d="m522.5 1003.4l-3.3-1.9 206.6-572.6 3.3 1.9z"/>
					<path id="&lt;Path&gt;" class="s4" d="m467.1 1062.8l35.6-97.9c6.6-18.1 23.8-26.2 38.3-18l0.6 0.4c14.5 8.2 20.9 29.7 14.3 47.8l-35.5 97.9z"/>
				</g>
				<path id="&lt;Path&gt;" class="s8" d="m709.7 484.9q-3.6-8.7 0.6-15c4.1-6.3 7.1-1.9 7 2.6-0.2 4.5-3.4 11.2-7.6 12.4z"/>
				<path id="&lt;Path&gt;" class="s8" d="m670 571.1c1-0.2 2.1-1.1 3.2-1.7q0.8-0.3 2-0.4-0.6 1.8-1.1 3.2c2.5 0.4 5.9 1.6 10.3 6 0.8 0.9 1.4 2.2 1.5 3.6 0.1 1.3-0.2 2.6-1.9 2.7-3.3 0.3-2.1-0.4-6.7 0.1-4.7 0.6-9.2-1.5-10.9-5.2l-3.1-3 2.6-7.2q2 1 4.1 1.9z"/>
				<path id="&lt;Path&gt;" class="s11" d="m625.9 525.7c5.7 7.9 40.1 43 41.3 43.9q1.1 1-3.3 8.2-26.4-5.8-44.8-19.9c-18.3-14.1-52.3-66.3-48.6-94.4q3.6-28.1 27.9-36.4 15.8 82.2 27.5 98.6z"/>
			</g>
			<path id="&lt;Path&gt;" class="s26" d="m1078.1 1167.4h-1050.1v-156.8c84.6-148.8 285.1 18.4 337.3 48.6 52.2 30.3 174.2-25.9 222.3-52.8 87-48.6 142 13.9 179.6 29.6 37.7 15.8 55.9-42.2 113.3-74.3q57.5-32.1 197.6 62.3z"/>
			<path id="&lt;Path&gt;" class="s30" d="m1078.1 1167.4h-1050.1v-72.6c115.1-161.1 272.2-7.9 324.3 14.6 52.2 22.6 182.9 4.8 223.6-19.7 66.9-40.4 153.7 22.5 191.3 34.3 37.7 11.7 55.9-31.5 113.3-55.4q57.5-24 197.6 46.5z"/>
		</g>
	</g>
</svg>