<svg version="1.2" xmlns="http://www.w3.org/2000/svg" viewBox="0 0 500 500" width="800" height="800">
	<title>356281-PB91PL-326-ai</title>
	<defs>
		<radialGradient id="g1" cx="213.9" cy="367.5" r="9.6" gradientUnits="userSpaceOnUse">
			<stop offset="0" stop-color="#ffbe35"/>
			<stop offset="1" stop-color="#ffbd35"/>
		</radialGradient>
		<radialGradient id="g2" cx="153.3" cy="313.5" r="10.2" gradientUnits="userSpaceOnUse">
			<stop offset="0" stop-color="#ffbe35"/>
			<stop offset="1" stop-color="#ffbd35"/>
		</radialGradient>
		<radialGradient id="g3" cx="345.1" cy="305" r="10.3" gradientUnits="userSpaceOnUse">
			<stop offset="0" stop-color="#ffbe35"/>
			<stop offset="1" stop-color="#ffbd35"/>
		</radialGradient>
		<radialGradient id="g4" cx="290.9" cy="365.4" r="8" gradientUnits="userSpaceOnUse">
			<stop offset="0" stop-color="#ffbe35"/>
			<stop offset="1" stop-color="#ffbd35"/>
		</radialGradient>
		<radialGradient id="g5" cx="212.8" cy="175.9" r="9.7" gradientUnits="userSpaceOnUse">
			<stop offset="0" stop-color="#ffbe35"/>
			<stop offset="1" stop-color="#ffbd35"/>
		</radialGradient>
		<radialGradient id="g6" cx="154.5" cy="232.3" r="10.3" gradientUnits="userSpaceOnUse">
			<stop offset="0" stop-color="#ffbe35"/>
			<stop offset="1" stop-color="#ffbd35"/>
		</radialGradient>
		<radialGradient id="g7" cx="249.9" cy="270.9" r="181.1" gradientUnits="userSpaceOnUse">
			<stop offset=".7" stop-color="#ffbe35"/>
			<stop offset="1" stop-color="#ff7a38"/>
		</radialGradient>
		<radialGradient id="g8" cx="346.6" cy="232.3" r="10.3" gradientUnits="userSpaceOnUse">
			<stop offset="0" stop-color="#ffbe35"/>
			<stop offset="1" stop-color="#ffbd35"/>
		</radialGradient>
		<radialGradient id="g9" cx="289.7" cy="174.3" r="7.9" gradientUnits="userSpaceOnUse">
			<stop offset="0" stop-color="#ffbe35"/>
			<stop offset="1" stop-color="#ffbd35"/>
		</radialGradient>
		<radialGradient id="g10" cx="213.6" cy="179.5" r="2.2" gradientUnits="userSpaceOnUse">
			<stop offset="0" stop-color="#ffbe35"/>
			<stop offset="1" stop-color="#ffbd35"/>
		</radialGradient>
		<radialGradient id="g11" cx="159.4" cy="234.3" r="2.3" gradientUnits="userSpaceOnUse">
			<stop offset="0" stop-color="#ffbe35"/>
			<stop offset="1" stop-color="#ffbd35"/>
		</radialGradient>
		<radialGradient id="g12" cx="287.4" cy="179.1" r="2" gradientUnits="userSpaceOnUse">
			<stop offset="0" stop-color="#ffbe35"/>
			<stop offset="1" stop-color="#ffbd35"/>
		</radialGradient>
		<radialGradient id="g13" cx="342.1" cy="233.7" r="2.4" gradientUnits="userSpaceOnUse">
			<stop offset="0" stop-color="#ffbe35"/>
			<stop offset="1" stop-color="#ffbd35"/>
		</radialGradient>
		<radialGradient id="g14" cx="341.5" cy="304" r="2.4" gradientUnits="userSpaceOnUse">
			<stop offset="0" stop-color="#ffbe35"/>
			<stop offset="1" stop-color="#ffbd35"/>
		</radialGradient>
		<radialGradient id="g15" cx="289.2" cy="360" r="1.2" gradientUnits="userSpaceOnUse">
			<stop offset="0" stop-color="#ffbe35"/>
			<stop offset="1" stop-color="#ffbd35"/>
		</radialGradient>
		<radialGradient id="g16" cx="159.6" cy="310.7" r="2.6" gradientUnits="userSpaceOnUse">
			<stop offset="0" stop-color="#ffbe35"/>
			<stop offset="1" stop-color="#ffbd35"/>
		</radialGradient>
		<radialGradient id="g17" cx="215.3" cy="362.6" r="2.4" gradientUnits="userSpaceOnUse">
			<stop offset="0" stop-color="#ffbe35"/>
			<stop offset="1" stop-color="#ffbd35"/>
		</radialGradient>
		<radialGradient id="g18" cx="210.9" cy="232.6" r="5.6" gradientUnits="userSpaceOnUse">
			<stop offset="0" stop-color="#ffbe35"/>
			<stop offset="1" stop-color="#ffbd35"/>
		</radialGradient>
		<radialGradient id="g19" cx="249" cy="215.2" r="5.4" gradientUnits="userSpaceOnUse">
			<stop offset="0" stop-color="#ffbe35"/>
			<stop offset="1" stop-color="#ffbd35"/>
		</radialGradient>
		<radialGradient id="g20" cx="288.4" cy="228.3" r="3.8" gradientUnits="userSpaceOnUse">
			<stop offset="0" stop-color="#ffbe35"/>
			<stop offset="1" stop-color="#ffbd35"/>
		</radialGradient>
		<radialGradient id="g21" cx="306" cy="269" r="3.9" gradientUnits="userSpaceOnUse">
			<stop offset="0" stop-color="#ffbe35"/>
			<stop offset="1" stop-color="#ffbd35"/>
		</radialGradient>
		<radialGradient id="g22" cx="288.3" cy="305.3" r="6.3" gradientUnits="userSpaceOnUse">
			<stop offset="0" stop-color="#ffbe35"/>
			<stop offset="1" stop-color="#ffbd35"/>
		</radialGradient>
		<radialGradient id="g23" cx="253.2" cy="323.5" r="5.3" gradientUnits="userSpaceOnUse">
			<stop offset="0" stop-color="#ffbe35"/>
			<stop offset="1" stop-color="#ffbd35"/>
		</radialGradient>
		<radialGradient id="g24" cx="213.5" cy="308.1" r="6.4" gradientUnits="userSpaceOnUse">
			<stop offset="0" stop-color="#ffbe35"/>
			<stop offset="1" stop-color="#ffbd35"/>
		</radialGradient>
		<radialGradient id="g25" cx="195.7" cy="273.1" r="5.5" gradientUnits="userSpaceOnUse">
			<stop offset="0" stop-color="#ffbe35"/>
			<stop offset="1" stop-color="#ffbd35"/>
		</radialGradient>
	</defs>
	<style>
		tspan { white-space:pre } 
		.s0 { fill: #f9dca7 } 
		.s1 { fill: url(#g1) } 
		.s2 { fill: url(#g2) } 
		.s3 { fill: url(#g3) } 
		.s4 { fill: url(#g4) } 
		.s5 { fill: url(#g5) } 
		.s6 { fill: url(#g6) } 
		.s7 { fill: url(#g7) } 
		.s8 { fill: url(#g8) } 
		.s9 { fill: url(#g9) } 
		.s10 { fill: url(#g10) } 
		.s11 { fill: url(#g11) } 
		.s12 { fill: url(#g12) } 
		.s13 { fill: url(#g13) } 
		.s14 { fill: url(#g14) } 
		.s15 { fill: url(#g15) } 
		.s16 { fill: url(#g16) } 
		.s17 { fill: url(#g17) } 
		.s18 { fill: url(#g18) } 
		.s19 { fill: url(#g19) } 
		.s20 { fill: url(#g20) } 
		.s21 { fill: url(#g21) } 
		.s22 { fill: url(#g22) } 
		.s23 { fill: url(#g23) } 
		.s24 { fill: url(#g24) } 
		.s25 { fill: url(#g25) } 
		.s26 { fill: none;stroke: #cc71b4;stroke-linecap: round;stroke-linejoin: round;stroke-width: .4 } 
		.s27 { fill: #cc71b4 } 
		.s28 { fill: #a59a89;stroke: #7c6e59;stroke-width: .9 } 
		.s29 { fill: #a59a89 } 
		.s30 { fill: #7c6e59 } 
		.s31 { fill: #c9c3b9 } 
		.s32 { fill: #918474 } 
		.s33 { fill: #317c7a } 
		.s34 { fill: #0c4946 } 
		.s35 { fill: #448c88 } 
		.s36 { fill: #5fa09b } 
		.s37 { fill: #286b68 } 
		.s38 { fill: #1a5b58 } 
		.s39 { fill: #b7ac98 } 
		.s40 { fill: #605240 } 
		.s41 { opacity: .3;fill: #0c4946 } 
		.s42 { opacity: .4;mix-blend-mode: multiply;fill: #918474 } 
		.s43 { fill: #918576 } 
		.t44 { font-size: 72px;line-height: 53px;fill: #000000;font-weight: 400;font-family: "Selima", "Selima" } 
		.t45 { font-size: 72px;line-height: 53px;fill: #317c7a;font-weight: 400;font-family: "Selima", "Selima" } 
	</style>
	<g id="BACKGROUND">
		<path id="&lt;Path&gt;" class="s0" d="m500.5 500h-501v-500h501z"/>
	</g>
	<g id="OBJECTS">
		<g id="&lt;Group&gt;" style="mix-blend-mode: multiply">
			<g id="&lt;Group&gt;">
				<path id="&lt;Compound Path&gt;" fill-rule="evenodd" class="s1" d="m209 379.9c-0.8 0-1.4-0.4-1.7-1.1-2.1-4.6-1.7-12.5 0.3-17.1 0.9-2 2.4-4.1 4.3-5.1 1.1-1.4 3.1-2 5-1.5 2.9 0.7 4.6 3.5 5 6.3 0.9 6.6-5.6 17.9-12.9 18.5zm10-16.4q0.8-4.8-3.2-4.1-1-0.6-1.9-0.5c-2.3 1.8-3.5 3.9-4.1 7.4-0.5 2.7-0.7 6.9 0.1 10 3.1-1.1 6.2-5.4 7.4-7.7 0.8-1.5 1.6-3.5 1.7-5.1z"/>
				<path id="&lt;Compound Path&gt;" fill-rule="evenodd" class="s2" d="m162.2 317.8c-5.4 2.9-12.7 2.6-18.5 1.3-0.5-0.1-0.8-0.3-1-0.6q-0.1 0.2-0.2 0.3c-0.5 0.6-1.8 0.2-1.5-0.6 2-7.8 16.9-20.6 24.5-12.1 3.5 4 1 9.5-3.3 11.7zm-0.9-10.6c-6.2-3.2-12.5 3.9-16.6 9 3.6 0.8 7.2 1 10.9 0.2 2.2-0.4 4.6-1 6.2-2.5 2.3-2.1 2.3-5.2-0.5-6.7z"/>
				<path id="&lt;Compound Path&gt;" fill-rule="evenodd" class="s3" d="m357.4 309.9c0.1 0.8-0.3 1.4-1 1.7-4.7 2.1-12.5 1.7-17.2-0.4-1.9-0.8-4-2.3-5-4.2-1.4-1.1-1.9-3.2-1.5-5.1 0.7-2.9 3.5-4.6 6.3-4.9 6.6-0.9 17.9 5.6 18.4 12.9zm-16.3-10q-4.8-0.9-4.1 3.2-0.6 1-0.5 1.8c1.8 2.3 3.9 3.6 7.4 4.2 2.7 0.4 6.9 0.6 10-0.1-1.1-3.1-5.4-6.2-7.7-7.4-1.5-0.8-3.4-1.6-5.1-1.7z"/>
				<path id="&lt;Compound Path&gt;" fill-rule="evenodd" class="s4" d="m295.3 356.5c2.8 5.4 2.5 12.7 1.2 18.6-0.1 0.4-0.3 0.7-0.6 0.9q0.2 0.1 0.3 0.2c0.6 0.5 0.2 1.8-0.6 1.6-7.8-2.1-20.6-17-12.1-24.6 4.1-3.5 9.5-1 11.8 3.3zm-10.7 0.9c-3.2 6.1 3.9 12.5 9 16.7 0.8-3.7 1-7.3 0.3-11-0.5-2.2-1-4.6-2.5-6.2-2.1-2.3-5.3-2.4-6.8 0.5z"/>
				<path id="&lt;Compound Path&gt;" fill-rule="evenodd" class="s5" d="m220.9 181.6c-0.2 2.8-1.8 5.7-4.7 6.5-1.9 0.6-3.9 0.1-5.1-1.2-1.9-1-3.5-3-4.5-4.9-2.2-4.5-3-12.4-1.1-17.1 0.3-0.7 0.9-1.1 1.7-1.1 7.2 0.2 14.3 11.2 13.7 17.8zm-4.9-7c-1.3-2.2-4.6-6.4-7.8-7.3-0.6 3.1-0.2 7.3 0.4 10 0.8 3.4 2.1 5.5 4.5 7.1q0.8 0.1 1.8-0.5 4.1 0.5 3-4.3c-0.2-1.6-1.1-3.5-1.9-5z"/>
				<path id="&lt;Compound Path&gt;" fill-rule="evenodd" class="s6" d="m167.2 239.5c-7.2 8.9-22.7-3.2-25.1-10.9-0.1-0.5 0.2-0.8 0.5-0.9q0 0 0 0c0-0.4 0.4-0.7 0.7-0.7 3.8-0.8 7.8-1.3 11.7-0.8 3 0 5.8 0.5 8.4 1.7 4.3 2.1 7.1 7.5 3.8 11.6zm-4-7.6c-1.8-1.5-4.2-1.9-6.4-2.3-3.7-0.5-7.3-0.1-10.9 0.8 4.4 4.9 11 11.7 17 8.2 2.8-1.6 2.7-4.8 0.3-6.7z"/>
				<path id="&lt;Compound Path&gt;" fill-rule="evenodd" class="s7" d="m429.9 268.5c-7.8 1.7-12.7 10.3-20.3 12.9-2.7 1-5.4 1.3-8 0.9 13.8 15.4 21.9 37.5 27.2 56.6 0.3 1.3-0.3 2.7-1.7 2.9-18.1 2.2-32.7 14-50 18.7-3.8 1-7.6 1.6-11.5 1.8 9.9 5.9 16.8 21.2 15.9 31.1-0.1 1.3-1.5 1.8-2.5 1.4-8-2.4-17.2 0.6-24.7-3.8-2.8-1.6-4.9-4-6.3-6.8q-0.1 2.2-0.4 4.3c-2.9 20-12.3 39.3-19.1 58.2-0.3 0.8-1.6 1.4-2.4 0.9-18.1-10.2-39.9-11.6-56.7-24.3q-0.9-0.7-1.8-1.4c1.8 9.6-7 21.9-10.6 29.6-0.8 1.5-2.9 1.5-3.6 0-3.4-8.3-11.7-13.7-13.8-22.5-0.6-2.5-0.7-5.1-0.3-7.6-15.3 15.4-38.9 24.3-59.1 29.9-1.3 0.3-2.7-0.3-2.9-1.7-2.2-18.1-14.1-32.6-18.8-49.9q-1.3-4.5-1.7-9.1c-6.5 9.2-18.7 9-29.5 12.2-1.6 0.5-3-1.2-2-2.6 5-7 1.7-15.8 5.9-23 1.6-2.8 3.8-4.9 6.3-6.4q-3.6-0.1-7.1-0.6c-20-2.8-39.4-12.1-58.2-18.9-0.9-0.3-1.5-1.6-1-2.4 10.2-18.1 11.4-39.9 24.2-56.8q2.1-2.7 4.5-5.2c-10.4 3-22.6-4.3-30.6-10.8-0.9-0.7-0.8-2.3 0.4-2.7 10.4-3.3 19.8-15.7 31.4-13q-1.7-1.7-3.3-3.6c-13.5-16.3-15.8-38-26.9-55.6-0.5-0.8 0.1-2.1 0.9-2.4 18.6-7.7 37.5-17.9 57.3-21.7q0.7-0.1 1.4-0.3c-3.2-1.8-5.9-5.1-7.6-7.9-4-7-3.6-14.6-3.6-22.3 0-1.1 1.2-1.6 1.8-0.9 7.6-2.4 16.8-0.2 24 2.8 2.7 1.1 6.6 2.7 9.5 5.1q0.3-3.7 1.1-7.3c4-17.4 15.1-32.5 16.5-50.7 0.2-1.4 1.5-2.1 2.8-1.8 19.3 4.4 41.7 11.5 57.7 24.6-2.8-11.1 3.8-22.6 13.5-28.9 0.6-0.4 1.3 0.2 1.1 0.8 8.2 4.8 19.1 19.7 15.2 29.9q1.4-1.4 2.9-2.6c16.2-13.6 37.9-16 55.5-27.1 0.8-0.5 2.1 0.1 2.4 0.9 7.8 18.5 18 37.4 21.9 57.2q0.3 1.8 0.6 3.6c5.5-8.9 19.2-9.6 28.5-11.6 1-0.3 1.7 0.8 1.7 1.6-0.8 9.7-3.9 24.5-12.3 31.7 4.1-0.1 8.3 0.4 12.3 1.3 17.5 3.9 32.6 15 50.8 16.3 1.4 0.1 2.1 1.5 1.8 2.8-4.2 19-11.2 41-23.8 56.9 2.2 0.3 4.5 1.1 6.5 1.9 7.3 2.8 13.6 7.2 19.4 12.5 1.1 1 0.6 2.5-0.8 2.9zm-72.1-8.2q-0.6 0-1 0.3c-4.9-4.7-10.9-8.7-17.3-11.6 3.2-0.3 6.4-1 9.5-2.2 3.4-1.3 6.5-3.1 9.2-5.4q2.6-0.8 5.3-1.2c4-0.6 6.5 0.6 6.7 4.8 0.1 1.4-0.1 3-0.8 4.2q-0.5 1.3-1.9 1.9-4.7 0.6-0.6-2.5c0.8 0.3 1.7-0.7 1.1-1.4-2.7-2.9-7.2 0.4-5.9 4 1.8 5 8.1 3.4 10.2-0.5 2.2-4.4 1.4-12.1-4.1-13.5-1.7-0.4-3.5-0.4-5.4-0.1 4.9-5.2 8.7-11.5 12.3-17.6 6.1 3 25.6-1.3 22.4-10-3.4-9-20.7-0.2-23.3 6.8-4.6-2-10.1-2.9-15.8-3q0.7-0.4 1.3-1c4.7-4.1 5.1-9.6 0-13.4-4-2.8-10-2.6-11.5 2.7-0.7 2.2-0.2 4.9 1.8 6.2 1.6 1 3.5 0.9 4.5-0.7 0.2-0.3 0-0.7-0.4-0.6q-5.3-0.5-3.6-4.2 0.8-1.5 2.3-2.2c2.1-0.8 4.3 0.4 5.9 1.7 4 3.3 1.1 7.4-2.3 9.7-1.4 0.9-2.9 1.6-4.5 2.1-4.1 0.5-8 1.3-11.4 2.5-7.3 2.7-13.1 7.8-17.9 13.9 3.5-6.9 5.5-14.7 6.9-22.6 0.5-0.5 0.9-0.9 1.3-1.3q0.8-1.1 1.7-2.1 0.4-0.6 0.9-1.1 0.3-0.4 0.7-0.8c13.1-9.1 27.7-12.2 43.5-8.1 10.8 2.8 21 7.4 32 9.5-5.1 12.5-9.8 26.3-17 37.6-7.9 12.2-20.7 18.2-34.8 19.2zm-25.4 74.3q-0.1-0.1-0.3-0.1c-0.5-7-2.2-13.8-4.9-20.2 3.7 3 7.8 5.5 12.5 6.9 5.8 1.8 13.1 2.5 20.1 1.8q0.7 0.1 1.3 0.2c2.8 0.5 6.7 1.3 8.7 3.5 2.7 3.1 0.7 7.2-2.7 8.7-1.4 0.6-3 0.9-4.5 0.8q-1.5-0.1-2.8-0.8-2.5-6.1 3.1-3.5c0.1 0.5 0.7 0.6 0.9 0.3 1.1-1.5 0.1-3.2-1.6-3.6-2.4-0.7-5 1-5.8 3.2-2.6 7 6.9 8.4 11.5 6.7 5.3-2 8.5-9.3 4-13.8-1.3-1.3-3-2.2-4.9-2.9 2.3-0.6 4.4-1.3 6.3-2.3 3 6.9 20.7 14.8 23.6 5.7 2.8-8.9-16.8-12.3-22.8-8.9-2.1-3.3-4.3-6.6-6.7-9.8 3.7 1.6 7.8 2.1 10.8-1 3.8-4 6.5-12.6 2-17-3.6-3.3-10.8-3.1-12.3 2.3-1.2 4.4 5.4 8.9 7.2 4 0.3-0.7-0.5-1.2-1.1-0.9q-2.8 2.3-3.1-3.6 1.3-1.3 3.1-1.4c1.7-0.2 3.6 0.7 4.6 2.1 1.8 2.6 0.7 6.1-0.5 8.7-1.4 3.2-3.2 5.7-7.1 5.1-2.4-0.4-4.8-1.4-7-2.5-4.7-5.3-10.2-9.8-17.3-12.1-2.6-0.8-5.3-1.4-8.1-1.6 6.1-3.1 11.7-7.3 16.7-12.2 14 0.3 26.9 5.8 35.2 17.5 7.8 10.9 13.1 24.5 18.8 36.7-10.9 2.6-20.8 7.7-31.5 11-16.1 5-31.4 2.3-45.4-7zm32.3 23.1q0.1 0.3 0.3 0.5-4.1 0.2-8.2-0.2c-0.4-3.5-1.1-6.8-1.3-10.3q3.9 0.6 7.8 0.5c0.4 3.2 0.6 6.4 1.4 9.5zm-18.5-7.5c-0.2-1.6-0.3-3.3-0.4-4.9q4 1.4 8.2 2.2c0 3.4 0.2 6.9 1.1 10.2q-4.3-0.6-8.5-2.1c0.4-1.7-0.2-3.6-0.4-5.4zm-12.7 18q-0.2 0-0.3 0-0.6-2.9-1.5-5.6c1.1 0.3 2.3 0.4 3.4 0.6 1.5 0.3 3.2 0.9 4.8 0.7q0.3-0.1 0.4-0.3c0.9 2.2 1.7 4.4 2.2 6.8-2.9-1.1-6.1-1.7-9-2.2zm9.4 4.2q0.6 3.3 0.7 6.7c-2.9-1.5-6.3-2.9-9.5-2.9q-0.2-3.3-0.7-6.4c3.2 0.6 6.3 1.8 9.5 2.6zm-106-43.4c-2.9 1.7-4 6.6-4.6 9.7-0.7 4.4-0.4 9 0.4 13.4 0.8 3.8 2.1 7.9 4 11.8q-0.5-0.5-1-1c-7.9-8.4-6.2-21.6-6-32.7q0.1-0.1 0.1-0.1c2.8-1.1 5.3-2.5 7.6-4-0.2 1.9 0.4 4 1.5 5.7 0.8 1.3 1.9 2.3 3.1 3.3-3.6 6.8-4.4 15.4-2.9 22.9 0.8 3.5 2.1 7.3 4 10.7q-1.5-1-2.9-2-0.6-0.9-1.2-1.8c-2.1-3.7-3.7-7.7-4.6-11.9-0.9-3.9-1.3-8-1-12.1 0.2-2.1 0.6-4.3 1.3-6.3 0.6-1.8 2-3.5 2.5-5.4 0-0.2-0.2-0.3-0.3-0.2zm-59.5 71.3c-5.1-16.1-2.4-31.4 6.8-45.4 0.2-0.3 0.3-0.6 0.2-0.9 7.2-0.8 14.2-2.3 20.7-4.9-3.3 3.8-6 8.1-7.5 13-1.6 5.4-2.3 12-1.9 18.4-1.7 2.8-3.9 6.8-7.5 5.8-1.8-0.6-3.1-2.2-3.9-3.9q-0.3-0.8-0.6-1.7-1-1.6 0.7-1.8 1.6-1.1 0.4 0.5c-0.3 0.4 0 1 0.6 1 3.3-0.1 3.2-4.8 0.4-5.8-4.3-1.5-5.6 3.8-4.9 6.8 0.9 4.1 3.9 8.1 8.5 8.1 2.7 0 5.2-2 6.8-4.5 0.6 3.9 1.7 7.6 3.2 10.8-6.8 3-14.7 20.7-5.6 23.6 8.9 2.8 12.2-16.9 8.9-22.8 3.1-2.1 6.3-4.2 9.4-6.5-0.5 1.8-0.6 3.7-0.2 5.2 1.7 5.2 7.6 4.8 11.2 1.9 2.9-2.3 4.7-8.3-0.1-9.7-4-1.3-6.7 4.9-2.6 5.3 1.2 0.1 1.6-1.2 0.8-1.9q2.4-0.3 1.9 1.3 0 1-0.8 1.7c-0.5 0.6-1.1 1.1-1.7 1.4-2.1 1.4-5.1 1.6-5.9-1.3-0.7-2.4 0.8-5.6 2.4-8 5.1-4.7 9.4-10.1 11.5-16.9q0.8-2.4 1.2-4.9c3.2 5.2 7.9 8.9 12.8 12.5q-0.1 0.2-0.1 0.5c-0.2 14.2-5.6 27.3-17.4 35.7-10.9 7.8-24.4 13.2-36.7 18.9-2.6-10.9-7.7-20.8-11-31.5zm24.3-39.2c2.9-7.5 8.5-13.1 14.6-18.1q2.2-1.6 4.2-3.4 1.2-0.9 2.4-1.9 0.7 2.2 1.4 4.5c0.2 4.9 1.2 9.8 2.3 14 0.1 4.6-0.6 9.2-2.3 13.6-4 10.3-13.4 17.1-22.4 23.1-3.8-9.3-3.7-23-0.2-31.8zm-111.4-19.6c7.9-11.3 10.8-25.4 18.4-37 7.7-11.9 19.1-20.5 33.2-21.2 5.8 4.1 13.5 6.6 19.1 8.8 6.3 2.4 15.2 5.8 22.9 5.4q-1.3 1-2.4 2.3c-10.3-4-22.3-7.9-32.8-2.6-6.1 3-11.1 8.9-14.9 15.2-2.2 2.4-5.2 4-8.1 4.4-4.4 0.6-5.7-2.4-5.2-6 0.3-1.8 0.5-3.1 2.2-4.1q1.2-1.2 2.9-0.6 2.8 0.2-0.2 3c-1.3-0.6-2.6 1.4-1.3 2.2 3.8 2.3 8.1-3.1 5.2-6.4-3.7-4.1-10.1-0.8-11.2 3.8-0.6 2.4-0.9 6.2 0.5 8.4 1.4 2.1 4.1 2.5 6.4 2.4 2.3-0.2 4.3-0.8 6-1.8q-1.4 2.8-2.4 5.4c-6.5-0.7-23.7-1.2-21.2 9.4 2.4 10.1 19.4-0.3 21.8-5.6q0.1-0.1 0.1-0.2 1.6 1 3.5 1.8c-2.1 1.1-3.9 3-4.6 5.3-2 5.9 3.1 11.7 8.9 12.3 5 0.4 10.3-4.7 7.1-9.6-1.2-1.9-3.6-2.9-5.8-2-2 0.7-3.5 3-2.4 5.1 0.3 0.6 1.4 0.9 1.7 0q0.2-0.7 0.4-1.3 1.2-3.1 4.4 0.1c0.3 2-0.9 3.9-2.7 4.6-3.1 1.2-6.8-0.9-8.3-3.6-1.5-2.7-0.7-6.1 1.9-8 1.3-1 2.9-1.3 4.4-1.3 3.1 0.7 6.2 1.1 9.2 1.6 5 0.7 10.4 1.1 15.3-0.5 2.5-0.9 4.7-2.2 6.7-4-1.5 5.7-2.2 11.6-2 17.4-20.9 15.3-54.9 6.8-76.7-3.1zm74.8 14.1q-2.4 2.7-5.2 4.6-0.3-3.5-0.9-6.8 2.4-1 4.6-2.2 0 0.2 0.1 0.4 0.5 1.3 1 2.6c0.1 0.4 0.2 0.9 0.4 1.4zm-3 17.4q0.8-3.4 2.3-6.8c3.3 0.2 6.8 0 10.1-0.3q-1.5 3.7-2.5 7.7c-3.3-0.2-6.6-0.6-9.9-0.6zm9.5 2.4q-0.5 2.5-0.7 5.2c-3.3-0.3-6.8-0.4-10.1-0.1q0.3-3.1 0.9-6.1c3.3 0.7 6.7 0.8 9.9 1zm-6.6-10.5q1.3-3 3.2-5.9 0.1-0.1 0.2-0.2c3.3 0 6.6-0.2 10-0.1q-1.8 2.6-3.1 5.5c-3.4 0-7 0.1-10.3 0.7zm4.6-7.7q0.6-0.7 1.2-1.5c0.2-0.3 0.3-0.7 0.4-1.1q5.2 0 10.4-0.4-1.1 1.4-2.1 2.8 0 0 0 0c-3.2-0.2-6.6-0.2-9.9 0.2zm18.1-69.9c-2.6 0.7-4.9 2.2-7.4 2.9q-0.8 0.2-1.5 0.4-4.8-0.7-9.4-2c5.3 0.1 10.6-1 15.4-3.7 2.8 2.4 5.9 4.1 9.7 4q-0.8 1.3-1.4 2.6-5.4 0.1-10.7-0.4c2.1-0.6 4.3-1.5 5.7-3 0.3-0.3 0-0.9-0.4-0.8zm-20.5-86.1c-0.2 5.6 0.7 11.4 2.4 17-2-1.6-4.3-2.9-6.8-3.6-5-1.4-10.4-0.7-15.3 0.2-2.6 0.6-5.4 1.1-8.1 1.8-2.8-0.5-6-1.8-6.9-3.7-1.5-3.3 1.8-8.7 4.9-9.9 2-0.8 4.9-0.4 5.7 1.9 0.8 2.3-1.3 4.7-3.5 3-0.5-0.3-1-0.1-1.1 0.4-0.4 1.9 1.5 3.1 3.3 3 2.2-0.2 3.8-2.3 4.2-4.4 0.9-5.9-6.2-8.5-10.7-6-4.4 2.5-8.7 11.3-3.7 15.2q1.5 1.2 3.2 2c-1.7 0.7-3.3 1.5-4.7 2.6q-0.1-0.1-0.1-0.3c-2.7-5.2-20.2-14.7-22.1-4.5-2 10.6 15.2 9.4 21.6 8.3q1.2 2.6 2.6 5.2c-2.6-0.9-5.7-0.8-8 0.4-4 2.2-6.2 7.6-3.5 11.7 2.3 3.4 8.7 5.6 11.4 1.4 2.4-3.7-3.3-7.1-4.3-3.1-0.2 0.6 0.7 1.1 1.2 0.7q0.7 0.3 1.3 0.6-0.9 0.6-1.8 1.1c-0.6 0.2-1.4 0-1.9-0.1q-1.5-0.4-2.5-1.4c-1.9-1.9-1.8-4.5-0.3-6.5 3.2-4.3 7.6-2 11.3 0 4.1 6.4 9.5 12.2 15.8 15 2.7 1.2 5.5 1.8 8.2 2-4.5 3.4-8.2 7.8-11.9 12.1-15.2 1-27.9-7.4-36.6-19.5-8.1-11.3-11.7-25.2-20.1-36.1 21.4-11 55.3-21.2 76.8-6.5zm-27.9-11.2c-1-3.1-1.9-6.3-3.4-9.2 2.9-0.2 5.9-0.2 8.7 0.1q0.4 2.4 0.7 4.8c0.2 1.5 0.3 3 0.6 4.5q-3.3-0.3-6.6-0.2zm14.8 1.4q-3.2-0.8-6.5-1.1c0-3-0.6-6.2-1.4-9.1q4.1 0.6 7.9 2c-0.2 2.7-0.1 5.5 0 8.2zm223.5 82.4c-1.7 0.4-3.6 0.7-5.3 1.3q-3.7-1.3-7.6-1.9 0.4-0.2 0.8-0.4 0.5 0.2 1.1 0.2c3.8-0.4 7.4-1.1 10.8-2.1q2.2 0.8 4.4 1.8c-1.5 0.3-2.9 0.8-4.2 1.1zm7.3 0.5q3.6 2 7 4.5c-1.5 0-3.1 0.6-4.4 0.9-1.5 0.3-3 0.6-4.4 1q-3.5-2.5-7.4-4.2 1.3-0.4 2.6-0.7c2-0.4 4.8-0.3 6.6-1.5zm-4.2-9.7q-0.1-0.3-0.4-0.4c-2.1-0.8-4.2-1.5-6.2-2.3-1-0.4-1.6 1.1-0.6 1.5q2.5 1 5.1 2-0.6 0.2-1.1 0.5-5.6-1.9-11.9-2.5c4.7-0.7 9.2-2.3 13.4-4.5 1.3 1 2.7 1.8 4.1 2.6 0.6 0.4 1.1 0.8 1.7 1.1q-2 1.1-4.1 2zm26.4-23.9q-1.4 2.6-3 4.9c-0.8-1.2-2.3-1.9-3.5-2.5-1.1-0.6-2.3-1.2-3.5-1.6q1.3-2 2.4-4c1.5 0.5 2.9 1 4.4 1.5 1.1 0.5 2.3 1.2 3.5 1.4q-0.1 0.1-0.3 0.3zm-74.8 97q2 1.6 4.1 3c0.1 1.5 0.3 3 0.4 4.5 0.1 1.9 0.2 3.9 0.3 5.9q-0.3-0.2-0.7-0.4c-1-0.9-2-1.8-3.2-2.6q-0.6-0.4-1.2-0.4-0.1-0.1-0.2-0.1 0.6-5 0.5-9.9zm-71.6 35.1q0-0.1 0-0.3c4-6 8.7-11.7 11.4-18.6q0.3-0.7 0.6-1.4c-1.1 5.9-0.9 11.9 1.9 17.5 1.8 3.6 4.6 6.9 8 9.8 0 0.3 0.1 0.7 0.5 0.9q1 0.6 2.2 1.2 2.7 1.9 5.5 3.6c2.7 2.2 4.6 4.9 4.3 8.4-0.3 3.7-4 6.3-7.6 6.1-1.7 0-3.3-0.6-4.2-2q-1-1.4-0.7-3.1 0.9-3.9 3.9-0.7c-0.3 1.2 1.4 1.4 1.9 0.5 1-1.9 0-4.1-2.1-4.7-2.2-0.6-4.5 0.7-5.7 2.6-3.1 5 1.6 10.4 6.8 10.6 6.3 0.3 11.9-5.1 10.8-11.5q-0.2-1.5-0.9-2.9 1.6 0.7 3.2 1.3c-0.8 6.5-1.3 23.8 9.3 21.3 10.1-2.4-0.2-19.5-5.6-21.9q-0.1 0-0.2-0.1c1.4-2 2.3-4.3 3-6.8 1 1.9 2.6 3.4 5 4 6.5 1.9 11.1-5.9 11.3-11.5 0.1-2.7-0.9-5.4-3.3-6.8-2.1-1.2-4.9-1.2-6.6 0.7-4.1 4.4 2.7 11.1 6.4 6.2 0.5-0.6-0.1-1.4-0.8-1.1-0.7 0.2-2.6 0.5-3.1-0.2-1-1.3-0.4-3.3 1.3-3.3 1.8-0.1 2.9 2 3.1 3.4 0.4 2.7-1.1 6.1-2.8 8-2.4 2.8-6 2.3-8-0.7-0.8-1.2-1.2-2.6-1.3-4.1 0.3-1.8 0.6-3.7 0.9-5.4 0.7-5 1.1-10.4-0.5-15.3-0.9-2.9-2.6-5.4-4.7-7.6 5.8 1.4 11.8 2 17.5 1.9 16.3 20.8 7.5 55.6-2.6 77.6-11.3-7.8-25.4-10.8-37-18.4-12.9-8.5-22.1-21.3-21.1-37.2zm6.6-40.7c1.2-1.4 2.2-3.1 2.8-4.9q0.2 0.6 0.7 1-0.1 0-0.1 0 0.8 4.2 0.8 8.2-0.3 4.9-1.5 9.5 0-0.8 0-1.6c-0.1-4-0.7-8.6-2.7-12.2zm-5 3.9c1.4-0.7 2.8-1.5 3.7-2.5q0.2-0.2 0.4-0.4c1 3.7 2.1 7.2 2.2 11.2 0.1 3.2-0.5 6.3-1.2 9.3q-0.6 1.4-1.2 2.7-0.8 1.6-1.8 3.3c0.5-2.1 0.9-4.1 1.1-6 0.6-5.9-0.3-12.3-3.2-17.6zm-1.2 57.2c-1.4 0-3 1.1-4.2 1.8-1.2 0.7-2.4 1.5-3.1 2.5 0.9-3.2 1.5-6.7 1.8-10.4q0.1 0.1 0.3 0.2c0.2 0 0.5-0.1 0.7-0.1q0.9-0.1 1.7-0.4c0.2-0.1 0.7-0.3 1.2-0.5 1.1 3.9 2.8 7.6 5 11-2.8 2.4-5.4 5.4-7.3 8.5-1.3-2.3-2.3-4.7-3.2-7.3 1.3-0.4 2.5-1.4 3.6-2.1 1.3-0.7 2.9-1.1 4-2.1 0.5-0.4 0.2-1.1-0.5-1.1zm-8.4-34.7c0-4.3 0.1-8.7-0.1-13 0.4-0.2 0.8-0.6 0.8-1.2 0.1-2.2 1.3-3.7 3-4.9 0.1 2.7 1.4 5.6 1.8 8.4 0.5 3.6 0.6 7.3 0.3 10.9-0.4 3.5-1.1 6.9-2.2 10.2-1 2.6-2.3 4.8-3.7 7.1 0.2-5.8 0.2-11.7 0.1-17.5zm-7.7 32.2c1.3 0.7 2.7 1.2 4 1.6 0.4 0.3 0.7 0.7 1.1 0.7q-0.4 1.4-0.7 2.7c-1.5-1.1-3.5-1.8-5.1-2.4q0 0 0 0 0.4-1.3 0.7-2.6zm-0.8-23.2c-1.7-3.1-3-6.4-3.7-9.9-1.5-7.6-0.1-14.6 2.5-21.7 1.7 1.2 3.4 2.4 4.8 3.8-4.3 10.5-3.2 23.6 1.8 33.9q-1.4-1.2-3-2.3c-0.9-1.2-1.7-2.4-2.4-3.8zm1.2 21.6q0.5-2.4 0.7-4.8c1.2 0.9 2.7 1.5 4.2 2q-0.1 2.2 0 4.3c-1.6-0.6-3.2-1.2-4.9-1.5zm0.8-5.9q0.2-1.8 0.1-3.6 2.2 1.6 4.3 3.5-0.1 0.1-0.1 0.3-0.1 0.4-0.1 0.9c-1.4-0.5-2.8-1-4.2-1.1zm0.6-25.7c-0.4-5.7 0.5-11.2 1.9-16.7 0.8 1 1.3 2.1 1.6 3.4 0.1 0.5 0.4 0.9 0.8 1.1-0.1 4.6 0.2 9.2 0.2 13.7 0 4.9-0.1 9.7-0.1 14.6-2.4-5.1-3.9-10.4-4.4-16.1zm0.7-22.1c-4-2.9-9.5-6.2-6.6-11.8q0-0.1 0-0.2c5.8-5.1 9.6-11.6 11.6-18.9q0.2 1.1 0.6 2.1c2.3 7.8 8.3 12.8 14.8 17-0.7 2.2-1.2 4.3-2.7 6.2-1.7 2.4-4 3.7-6.5 5-2.7 1.2-5.4 2.6-7 4.9-1.1-1.6-2.6-3-4.2-4.3zm-83-145.3q1.2 1.1 2.2 2.5c0.5 0.5 1.1 0.8 1.6 0.8q-0.4 1.8-0.7 3.6-1.6-1.1-3.4-2 0.2-0.2 0.2-0.6 0-2.2 0.1-4.3zm3.1-3.3q1.9 0.4 3.9 0.6c2.1 0.2 4.7 0.6 6.6-0.2q1.5 2 3.3 3.9 0.4 0.5 1 1.1c-4-0.5-7.9-0.9-11.8-1.2q0 0 0 0 0-0.1 0-0.1-0.1-0.6-0.5-1.2-1.2-1.6-2.5-2.9zm73.2-22q0 0.4 0.2 0.7-0.2 1.1-0.3 2.2-0.6 0.8-1.2 1.6c-3.3 3.7-6.7 7.2-9.2 11.4 0.7-6-3.8-12.3-6.9-17.2-2.5-4-6-10.3-2.3-14.7 1.8-2.2 5.2-3.1 7.8-2.1 1.4 0.5 2.6 1.6 3.1 2.9q0.5 1.7-0.1 3.3-1.1 3.2-3.5 0.2c0.3-0.9-0.9-1.7-1.4-0.9-1.2 1.8-0.6 4.2 1.5 4.9 2.4 0.8 4.7-1.2 5.6-3.2 2.6-6.2-3.9-11-9.6-9.8-7.2 1.5-8.8 9-6.6 15.2q0.1 0.5 0.4 1c-5.3-5.2-11.9-9.2-18.2-12.9 3-6.1-1.2-25.6-10-22.4-8.9 3.3-0.2 20.6 6.7 23.3-2.3 5.4-3.2 12.3-2.9 19.1-3.6-3.5-8.7-4.9-13.2-1.3-2.2 1.8-4 4.8-3.2 7.7 0.7 2.6 3.2 4.5 5.8 4.5 2.1 0 4.7-1.6 4.7-3.9 0.1-2.1-1.8-3.3-3.6-2.8-1.2 0.4-0.6 2.1 0.5 2q-0.1 2.7-2.4 1.6-0.5-0.3-1-0.6c-1.7-1.3-1.2-3.5 0-5 1.9-2.3 5-3.1 7.7-1.9 3 1.5 4.6 4.2 5.6 7.3q0.5 3.1 1.4 5.8 0 0.1 0.1 0.2c0.9 4.3 2.4 11.2 5.9 15.1-5.2-1.6-10.6-2.6-16-3.4 0-0.3-0.1-0.5-0.3-0.7q-1-0.9-2.1-1.8-0.1-0.2-0.2-0.4c-9.9-13.5-13.3-28.7-9-45 2.8-10.8 7.5-20.9 9.6-31.9 12.5 5.1 26.2 9.8 37.5 17.1 12.2 7.9 18.2 20.7 19.1 34.8zm-41.3-13.7c9.2 5.5 18.9 11.9 23.4 22 2.9 6.5 3.4 13.4 2.6 20.3-0.6 2.6-1.2 5.3-1.5 8.1q-0.5 1.8-1 3.7c-8.6-6.1-17.9-12.4-22.3-22.3q-0.9-2.1-1.6-4.6-0.3-1.3-0.6-2.6c-1.7-8-1.5-17.5 1-24.6zm-8 101.3c-1.5-0.8-3.2-1.4-4.9-2 2.2 0.1 4.4 0.4 6.6 0.9q0.2 0.1 0.3 0.1 0.6 2.3 1.6 4.3-0.2-0.1-0.5 0c-0.1-1.6-1.7-2.6-3.1-3.3zm1.9 3.3c-1.2 0.1-2.4 0.4-3.5 0.8 0-0.2 0-0.3-0.2-0.4-2.6-2.2-7.2-2.6-10.6-2.9-2.7-0.2-5.5 0-8.3 0.4 4.3-1.6 8.8-2.8 13.2-3.1 1.5 0.7 3 1.4 4.5 2 1.1 0.5 2.2 0.9 3.2 1.5 0.8 0.5 1.2 1.1 1.7 1.7zm0.3-9q-1.2-0.5-2.4-0.9-2.6-1.4-4.7-3-1.3-1.9-2.6-3.8-1-1.9-2-3.8 0.3 0.3 0.6 0.6c3.8 4.3 8.2 8.8 14.2 9.2q-1.5 0.7-3.1 1.7zm-10.8-12.5c-2.3-2.6-4.4-5.2-6.1-8.1q-0.3-0.7-0.6-1.3-0.4-1.8-0.7-3.5c4.1 7.8 11.8 14.4 20.1 16.3q0.1 0 0.2 0c0.1 2.1 0.7 4.4 2 6-6.4 0.1-10.9-4.9-14.9-9.4zm12.8 2.1c-5.4-2-10.1-4.5-14.1-8.7-2.9-3.1-5.1-6.6-6.7-10.4q-0.3-2.2-0.6-4.5c4.3 8.9 13 15.6 22.6 17.8-0.6 1.9-1.1 3.7-1.2 5.8q0 0 0 0zm1.6-7c-6.6-1.5-12.5-4.8-17-9.8-3.1-3.4-5.1-7.3-6.4-11.5q-0.1-1.9-0.3-3.8c4.2 10.4 13.8 18.5 24.6 21.4q-0.1 0.5-0.2 1-0.3 1.4-0.7 2.7zm-24-29q0-0.5-0.1-0.9c5.5 9.7 13.4 19.1 24.7 20.9q0.4 2 0.4 4c-12-3.2-21-12.5-25-24zm23.9 17.1q0.2 0.7 0.4 1.5c-12-1.9-18.5-12.4-24.6-21.9q0-0.4-0.1-0.9c4.4 2.3 8.8 4.6 12.8 7.7q3.4 2.6 6.4 5.7c1.6 1.7 3 3.6 4.5 5.4q0 0.1 0 0.2c0 0.9 0.3 1.7 0.6 2.3zm0.3-3.7c-2.6-4.1-6.8-7.6-10.4-10.5-4.2-3.3-9.1-6.3-14.3-7.9q0 0 0-0.1c6.3 1.3 12 3.3 17.1 7.5 5.1 4.1 8.2 9.3 11.6 14.7-0.7-0.2-1.2-0.6-1.6-1.2q-0.3-0.9-0.5-1.8c-0.3-0.9-1.2-1.1-1.9-0.7zm3.1 14.4c0.8-2.7 0.7-5.4 0.2-8 1 0.4 2 0.6 3 0.7 5 0.7 13.5 1 16.8 5.6q0 0.1 0.1 0.1c-0.2 4.6 0.3 9.1 2.1 13.3 1.2 2.9 2.8 5.5 4.8 7.9-8.4-4.2-17.6-6.5-26.1-4.4-5.1-3.3-2.1-10.6-0.9-15.2zm15.5-17.7c-0.5-0.8-1.1-1.8-1.7-2.7 3 2.3 5.7 5 8.1 8.2q-0.7 2.7-1.2 5.4c-1.4-3.8-3.1-7.4-5.2-10.9zm-4.4-4.7c1.8 2.1 3.1 5 4.3 7.1 1.6 3 3 6.1 4.1 9.3-1.3-0.8-2.8-1.4-4.3-1.9-0.9-2.7-2.5-5.2-4-7.7-1.5-2.5-3.1-5-4.9-7.3-1.2-1.4-2.4-2.8-3.9-4.1q4.6 2 8.7 4.6zm2.4 14.1q-0.5-0.2-1-0.3-1.9-0.5-3.8-0.9c-4.2-7.5-9.5-16-16.9-20.8q3.2 0.7 6.4 1.7c7 4.9 11.8 12.4 15.3 20.3zm-6.6-1.4q-0.4-0.1-0.9-0.2c-1-0.1-2.2-0.1-3.3-0.3-3.7-9.3-12.9-18.7-23.1-22.1q4.2 0.5 8.3 1.2c8.5 4.5 14.1 12.8 19 21.4zm-35.4 7.5c1.6 6.1 4.2 11.9 8.3 16.5q-2.3 1-4.8 2c-3.5 0.5-6.9 1.5-10.1 2.9-5.5 0.9-11 0.5-16-2.8-8-5.2-13.1-14.6-18.5-22.3 9.6-0.3 18.6-5.9 28.6-4.2 5.1 0.8 9.1 3.9 12.5 7.9zm-8.8 31.3q0.5-0.3 0.9-0.5 2.8-1 5.6-1.6c3.3-0.6 6.8-0.8 10.1-0.4 3.2 0.3 6.1 1.7 9.1 2.1q-0.9 0.4-1.7 0.9c-1.3 0.7-2.4 1.6-3.4 2.6-10.3-2.5-22.7-0.9-32.1 4.9 3.5-3.1 7.4-5.8 11.5-8zm-1.8 5c6.9-2.1 14.3-2.4 21.3-0.7-1.4 1.4-2.7 2.9-4 4.3-2.6-0.9-5.9-0.8-8.5-0.8-3.5 0-7.1 0.5-10.5 1.3-5.1 1.2-10.4 3.2-14.9 6.2q0.7-0.9 1.4-1.7c4.5-3.7 9.4-6.8 15.2-8.6zm21.2 3c3.3-3.7 8.6-8.7 13.8-7.2 4.9 7.1 14.4 11.1 23.5 13-9 2.6-17.4 7.1-23 14.2q-0.2 0-0.3 0c-9.4 0.9-14.7-8.5-21.9-13.5 3.1-1.3 5.6-3.8 7.9-6.5zm52.8 7.1q1.2 0 2.5-0.1-1.4 0.6-2.7 1.3-2.4 1.1-4.7 2.4c-2.3 1.3-3.2 2.1-6 2-1.4-0.1-2.6-0.2-3 1.4-0.6 2.1 1.5 3.1 3.1 3.5 0.6 0.1 1.2-0.4 1.4-0.9q0.4-0.6 0.4-1.2 0.3-0.1 0.6-0.2c1.8-0.5 3.5-1.9 5.1-2.9 3.9-2.3 7.9-3.9 12-5.6q0.1 0 0.2 0c-5.9 5.7-11.4 11.4-19 15.3-9.5 5-18.7 5.8-28.9 4.9 9.7-13.5 23.8-18.3 39-19.9zm-4.4-14.5q0 0-0.1 0 0-0.1 0-0.2c-1.6-2.9-5.7-1.3-5.2 1.8q0.1 0.4 0.3 0.6 0.1 0.5 0.5 1c1.3 1.3 3.1 0.7 4-0.5 1.3 0.6 2.7 1.3 3 1.4 1.7 1 3.4 2.1 5.1 3.1 1.7 1 3.3 1.9 5.1 2.6q-1.2 0-2.3 0.1c-3.1 0.1-6.2 0.3-9.4 0.7-3.9 0-7.7-0.3-11.5-1.1-11.8-2.4-19.2-8.6-25.1-18.5 19.8-7.2 35.2 4.2 49.3 17.1-4.8-2.3-8.8-5.9-13.7-8.1zm3.9-7.4c-5.2-5.1-9.7-11-10.5-18.5-0.6-4.9 0.3-9.7 1.2-14.5 4.9 1.8 9.9 5.4 13.6 9.8 2.2 3.4 3.9 7.2 5.1 11.1 1.5 5 1.8 10 1.8 15.2q0.1 0.5 0.1 1-0.3-0.4-0.5-0.8c-1.2-1.9-2.6-5.1-4.4-6.8 0.1-1.9-1.7-3.7-3.7-3-0.9 0.3-1.5 1.2-1.5 2.1q0 0.1 0 0.3c-0.4 0.8-0.4 1.8 0.4 2.6 1.1 1.3 2.6 1.1 3.7 0.1 0.5 1.1 0.9 2.3 1.2 2.8q1.2 2.1 2.3 4.1 1.4 2.4 2.8 4.8 0 0.1 0 0.2c-3.9-3.5-7.8-6.9-11.6-10.5zm-2.5-58.1c0.2 3.7 0.5 8.6 2.4 12q-0.5 0.5-0.9 1-0.8 1.1-1.4 2.4c-2.1-4.7-3.1-9.9-2.8-15.1q0.9-3.6 2.5-7.1 0.3-0.7 0.6-1.4c-0.4 2.7-0.5 5.5-0.4 8.2zm7 7.8c-1.3 1-2.5 2-3.6 3.1-0.3-1.2-0.7-2.3-0.9-3.5q-0.9-3.6-1.1-7.3c-0.2-4.1 0.3-8 1-11.9q1.3-2.2 2.8-4.2 0.3-0.4 0.7-0.8c-1.1 3.2-1.2 6.9-1.2 10 0 4.7 0.4 10.2 2.3 14.6zm21.5-21.4q1.6 1.8 3 3.5 0 0 0 0.1c0.5 4.9 0.3 9.6-0.8 14.4q-0.6 3-1.5 6-0.5 1.5-1 3 0 0 0 0-0.5-0.7-1-1.4-0.4-0.5-0.9-1c3.3-7.7 4.1-16.5 2.2-24.6zm4.1 5q0.3 0.3 0.5 0.7 1.5 2.1 2.5 4.1c0.6 4 0.2 8.1-0.7 12.1-0.8 3.6-2.4 7.3-3.3 10.9q-1-2.1-2.3-4.2c1.5-3.6 2.4-8 3.1-11.7 0.7-3.9 1-8 0.2-11.9zm4.6 8.1c2.1 5.5 2.3 11 0.4 17.7-0.5 1.8-1.1 3.3-0.8 4.9q-1.6 1-3.2 2.2-0.5-1.6-1.2-3.1c1-2 1.6-4.2 2.2-6.3 0.9-2.8 1.6-5.6 2.1-8.4 0.4-2.4 0.6-4.7 0.5-7zm-12 10.4c-0.9-0.8-1.8-1.6-2.7-2.4 1.2-2.4 1.5-5.5 1.8-8.1 0.4-3.4 0.4-6.8 0.1-10.2-0.2-3.3-0.9-6.6-2-9.7 1.3 1.8 2.8 3.4 4.3 5 2.1 8.4 1.8 17.2-1.5 25.4zm-1.2-37.5q-0.3-0.4-0.5-0.9c-1.1-2.2-1.8-4.6-2.5-6.9q0.1-0.4 0-0.8c-0.3-4.4-1.2-8.4-2.5-12.2q0.2-0.9 0.5-1.8c1.5 4.1 3.7 7.9 6.1 11.5-1 3.6-1.4 7.4-1.1 11.1zm-3.1-2.6q-1-1.8-1.8-3.6 0.3-0.1 0.7-0.2 0.4 1.9 1.1 3.8zm-1.6 5.2c2.2 4.9 3.6 10.1 3.9 15.6q0.2 4.1-0.3 8.3c-0.3 2.5-1.1 5.1-1.3 7.7-1.1-1-2.2-2.1-3.1-3.2q0.1-0.1 0.2-0.3c4.1-9.5 3.4-23.6-1.7-32.7q0-0.1 0-0.2 0.4 0.6 0.8 1.3c0.3 1.2 0.9 2.4 1.5 3.5zm0.3 11.1c0.3 5.6-0.8 10.7-1.9 16.1-0.9-1.4-1.4-2.9-1.3-4.5q0-0.1 0-0.3c-0.1-0.6-0.4-1-0.9-1.1 0.2-4.3 0.1-8.6 0.5-12.9 0.3-3.5 0.8-7.1 0.9-10.6 1.3 4.4 2.5 8.7 2.7 13.3zm-5.1-2.2c-0.3 4.2-0.8 8.7-0.5 12.9-0.2 0.3-0.3 0.6-0.3 0.9 0 2.1-0.7 3.8-1.8 5.3-2.6-9.2-1.1-18.7 1.1-27.9q1.5-1.7 2.7-3.6c-0.5 4.1-0.8 8.3-1.2 12.4zm0.6-19.3c-0.8 2.2-1.9 4.2-3.1 6.1q-0.1-2.4-0.4-4.7c1.4-2.3 2.7-4.6 3.8-7q0 2.4 0.3 4.9-0.4 0.2-0.6 0.7zm-3.9-1.3q-0.6-2.8-1.5-5.6c1.4-2.2 2.5-4.6 3.4-7q1.1 2.8 2 5.7c-1.4 2.3-2.7 4.6-3.9 6.9zm0 14c-1.3 4.1-1.9 8.4-2 12.6q-0.1 4.3 0.4 8.6c0.2 1.9 0.4 4.1 1.3 5.9-0.9 0.9-1.9 1.7-2.9 2.6-0.8-4.5-1.9-8.7-2-13.3-0.1-3.8 0-8.3 1.3-12.1q2-2.2 3.9-4.3zm-12 39.4q0.1 0.2 0.3 0.3c-0.6 1.6-0.9 3.3-0.9 5q-0.8-0.5-1.6-0.9c-1-5.3-1.3-10.7-0.6-15.9 0.2 3.9 1.1 7.7 2.8 11.5zm14.3 21.4c-1.4-2.5-3.8-5.6-6.7-8.4-1.7-2.1-3.5-4.1-5.5-5.7-0.2-2.5 0-5 1.2-7.4 1.6-3.2 4.4-5.2 7.1-7.5 2.3-1.8 4.3-3.9 5.5-6.3 1.7 3 4.6 5.3 7.1 7.8 4.3 4.5 7.2 9.8 8.8 15.7-4.9 3.9-9.5 8.5-12.2 13.8q-1.4 2.7-2.3 5.7c-0.7-2.8-1.7-5.4-3-7.7zm4.6 18.4q0.1-1.5 0.3-3.1c1.2-8.5 4.7-15.4 11.2-21.2 2.9-2.6 6-4.8 8.5-7.6q0.4 0.4 0.8 0.5c7.4 19.4-4.5 33.4-17.7 46 1.9-5.3 3.7-10.6 5.6-16q0.5 0.1 1-0.1c1.7-0.5 2.5-2.4 2-4-0.6-1.6-2.7-2.3-4.2-1.5-0.8 0.4-1.3 1.2-1.4 2.2q0 0.3 0 0.6 0 0.3 0 0.5 0 0.3 0.1 0.6c-2 5.5-3.9 10.9-5.8 16.4q0 0 0-0.1-0.4-3.5-0.6-7 0.3-3 0.2-6.2zm68.8-59.4q-0.2 0.2-0.3 0.4c-5.7 0.8-11.8 1.4-17.6 2.5 2.9-2.8 5.2-6 6.3-9.9 1-3.9 0.9-8 0.3-12.1 0.4-2.9 0.7-5.8 3.2-8 1.8-1.6 5.2-2.2 6.8 0.2 0.8 1.2 0.5 2.7 0 3.9q-0.3 0.9-0.8 1.7-2.1 0.8-1.7-0.8c0.6 0 1.2-0.6 0.9-1.1-1.7-3.4-6.5 1.1-3.2 4.2 4.7 4.5 9.3-2.2 8.7-6.9-0.6-5.1-6.8-7.1-10.9-4.9-1.9 1-3.3 2.7-4.4 4.7-1-4.8-2.3-9.8-5.1-13.6q0.1 0 0.2-0.1c5.3-2.6 14.8-20.2 4.5-22.1-10.6-2-9.3 15.2-8.3 21.7-4 1.8-8.3 4.2-12.3 7.1 1.5-4.3 1.1-9.7-2.9-12.2-4.1-2.7-11.1 0.5-11.4 5.5-0.1 2.2 1.2 4.6 3.5 5 2.1 0.3 4.2-1 4.3-3.1 0-0.7-0.8-1.1-1.2-0.5q-4.3 1.7-3.2-1.3-0.2-1.3 0.7-1.9c0.7-0.8 2-1.3 3-1.5 3-0.5 4.5 2.3 4.8 4.8 0.6 4.7-2.5 7.6-5.4 10.7-4.6 4.9-6.6 11.7-7.1 18.3-2-2.7-5-5-7-6.7-1.8-1.5-3.3-3-4.7-4.7q0.1-0.1 0.1-0.3c-1.8-15.9 6.7-29.1 19.3-38.2 11.2-8.1 25.1-11.7 36-20.1 11.5 22.1 22.2 57.8 4.9 79.3zm18.6 69.4c-5-0.2-11.7 0.3-16.1 3.1-1.3-1-2.4-2.2-3.5-3.4 1.9-0.1 3.8-1.1 5.6-1.7q3.6-1 7.3-1.6c3-0.4 6.9-0.9 10.3-0.3 3.8 2 7.3 4.4 10.7 7.4-4.4-2.2-9.5-3.2-14.3-3.5zm15.5 5.7c-2.7-0.2-5.4-0.1-8-0.2-6.3-0.1-12.9-0.5-19.2 0.3-0.1-0.3-0.4-0.5-0.7-0.6-1.1-0.4-2-0.8-2.8-1.4 2.1-0.6 4.2-1.4 6.4-1.8 2.9-0.6 5.8-0.7 8.8-0.6 5.6 0.3 10.5 2 15.5 4.3zm-30.1 74.7q-3.5-4-7.1-7.9c-4.1-4.5-8.1-9.3-12.7-13.3 0-0.3 0-0.6-0.1-0.9-0.7-1.3-1-2.7-1-4 2.7 1.6 5.5 3 8 5 3 2.3 5.7 5 8 7.9 4.3 5.3 6.6 11 8.6 17.3-1.2-1.4-2.5-2.7-3.7-4.1zm2.2 5c-5.5-2.4-10.5-5.4-14.9-9.5-2.5-2.3-4.8-4.9-6.8-7.6-1.8-2.5-3.1-5.7-5.1-8 1-0.2 2-0.1 3 0.1 0.4 0.1 0.8 0 1.1-0.2 3.8 4.7 8.3 8.9 12.3 13.3q3.3 3.5 6.5 7.1c1.3 1.6 2.6 3.2 3.9 4.8zm-52.3-67.9c-4.1-1.5-8.2-3.2-12.4-4.5q1.5 0 2.9 0c3.7 0.1 7.5 0.3 11.3 0.3 13 1.4 24.7 5.8 31.4 17.1-5 1.1-9.7 2.4-15 1.9-6.6-0.6-13-3.2-18.6-6.8-4.1-2.5-7.8-5.6-11.4-8.8q-0.8-0.9-1.7-1.8c3.6 1.7 7.5 3 11.2 4.5-0.1 2.1 2.4 4.8 5.1 2.5 3-2.4-0.6-6.1-2.8-4.4zm34.3 16.3q-0.2 0.6-0.4 1.2 0.2 0.1 0.5 0.2c4.4 3.9 8 8.4 11.1 13.2-2.2-1.9-4.6-3.6-7.1-5.1-1.7-1.1-4.2-3.1-6.4-3.1-0.1-1.5-0.5-3.2-1.2-4.5q1.8-0.7 3.5-1.9zm4.1-2.4c-1.1-2.8-2.7-5.2-4.5-7.4q0.6 0 1.1-0.1c0.7 2.9 5.7 4.3 8.1 5.1 2.3 0.7 5.1 1.4 7.8 1.5-4 0.9-8.2 1.2-12.5 0.9zm-7.8-10.8c-4.5-4-10.3-6.8-16.6-8.7 2-0.5 4-1.1 5.8-2.1 5.8-2.9 9.9-7.9 13.2-13.5 3.8-1.2 7.2 1.9 9.7 4.9 2 2.2 3.9 4.3 6.4 5.7-2.3 2.5-2.8 6.4-5.2 9-2 2.2-4.6 3.7-7.5 4.4-1.9 0.4-3.9 0-5.8 0.3zm-27.2-57.5q0.1 0 0.1-0.1 0 0 0.1 0c1.7-1.2 3.3-2.5 5.3-3.4 2.8-1.1 5.8-1.6 8.8-1.3 2.6 0.3 5.2 1.1 7.8 1 1.4-0.1 2.7-0.3 4.1-0.6-1.1 2.5-1.5 5.1-1.6 7.9-0.2 5.3 0.6 10.5-3.7 14.4q-0.2 0.3-0.4 0.6c-7.3-1.2-15.4-1.6-21.8 0.9 2.6-6.4 3.6-13.1 1.3-19.4zm26.1 17.1c2.4 0.2 4.8-0.5 7-1.5 1.6-0.7 3.3-1.5 4.9-2.4q-1.4 1.9-3.1 3.6c-1.2 0.3-2.3 1.5-3.5 2-1.4 0.6-2.8 0.9-4.3 1q-1.3-0.3-2.6-0.6c0.6-0.5 1.1-1.3 1.6-2.1zm11.1 5.5q-1.3 0.1-2.7 0.3 0 0 0-0.1 2.4-1.9 4.4-4.1-0.6 1-1.2 2.1c-0.4 0.4-0.6 1.1-0.5 1.8zm-3.8 3.6q2.7 0 5.5 0.1-1.3 0.5-2.6 1c-1.7 0.8-4 1.7-5 3.4q-0.2 0-0.3 0 1.2-2.3 2.4-4.5zm3.1 2.3c1.9-0.9 3.9-1.4 6-1.9q3.2 0.4 6.3 0.9c-4.3 0.7-8.6 2.5-11.9 4.7q-0.5-0.3-1.1-0.6c-1.1-0.5-2.4-0.9-3.6-0.9 1.5-0.6 2.8-1.6 4.3-2.2zm-1.9-15.2c-2.6 1.4-5.2 2.3-8 2.7 0.4-1.2 0.7-2.6 0.9-3.6q0.1-0.4 0.1-0.8c3.3-0.5 6.7-2.3 9.4-3.8 2.2-1.1 4.5-2.5 6.5-4.2q-1.4 3.4-3.4 6.5c-1.8 1.1-3.6 2.2-5.5 3.2zm23.8 18.3q-4.5 0.4-9 1.6c-2.4 0.6-6 1.3-7.8 3.2-1.2-1.3-2.4-2.5-3.8-3.6 2.7-1.4 5.4-2.6 8.5-3.3 2.6-0.6 5.2-0.6 7.9-0.7q3.9 1.1 7.5 2.7-1.6 0-3.3 0.1zm-17.7-10.9c6.1-8.6 12.3-17.9 22.2-22.3 8.6-3.9 22.4-4.7 31.8-1.4-5.5 9.3-11.8 19-21.9 23.5-10.3 4.6-21.7 3.3-32.1 0.2zm-4.4-14.2c-2.7 1.5-5.8 2.4-8.6 3.8q0.1-1.5 0.1-3c4.7-1.6 9.5-4.5 13.4-7.5 2-1.6 4.1-3.6 5.7-5.8q-0.9 3.4-2.1 6.6c-2.9 1.9-5.5 4.2-8.5 5.9zm3.5-7.6c-3.7 2.9-8.1 4.7-12 7q-0.1-1.1-0.1-2.2c6.2-2.3 11.8-7.5 15.9-12.2 2-2.4 4-5.2 5.7-8.1q-0.5 2.7-1.1 5.5c-2.5 3.7-4.8 7.1-8.4 10zm2.2-7.9c-2.2 2.6-4.6 4.9-7.2 6.9-2.3 1.7-4.7 3-7 4.4 0-1.3 0.2-2.6 0.5-3.8 2.2-1 4.2-3.1 6-4.6q4-3.6 7.5-7.6c3.1-3.6 6.8-8 9-12.6q-0.2 1.7-0.5 3.5c-2.2 4.9-4.5 9.6-8.3 13.8zm-11.4 1.9c6.2-6.2 12.3-12.7 18.4-19.1-0.7 1.2-1.4 2.4-2.1 3.5q-3 4.3-6.4 8.3-3 3.5-6.4 6.7c-1.5 1.4-3.5 2.7-5.1 4.2q0.5-1.2 1.4-2.2c0.3-0.5 0.4-1 0.2-1.4zm-0.7-0.7c-0.3-0.2-0.8-0.3-1.2-0.2q-1.8 0.5-3.6 0.8c2.2-5.4 4.9-10.2 9.2-14.4 2.3-2.1 4.9-4 7.6-5.5 1.3-0.7 2.7-1.2 4-1.7q2.3-0.4 4.4-0.8c-6.9 7.1-14.2 14.1-20.4 21.8zm3.5-14.7c-4.2 4.1-8.1 9.6-9.6 15.5-1.7 0.3-3.5 0.3-5.4 0.1q-0.5-0.1-1-0.1c0.9-4.3 4-8.9 6.5-12.3 2.8-3.8 5.9-5.9 9.8-8q3.6-0.5 7.1-0.9c-2.8 1.7-5.3 3.7-7.4 5.7zm-10.2 2.2c-1.7 2.2-3 4.7-4.4 7.1-1 1.9-2.2 3.9-2.4 6-2.1-0.2-4.2-0.3-6.4 0q-1 0.2-2.1 0.5c2.3-4.2 4.6-8.2 8.1-11.7q2.7-2.7 5.8-4.9c1.6-1.2 3.5-2.1 5.2-3.1q1.4-0.2 2.8-0.4c-2.6 1.7-4.9 4.2-6.6 6.5zm-8 1c-3.6 3.6-6.9 8.1-8.6 13-1.7 0.5-3.5 1.3-4.9 2.3 1.6-4 3.4-7.7 6.2-11.1q2.7-3.4 6-6.2c1.5-1.2 3.2-2.2 4.8-3.3q1.9-0.5 3.8-0.9c-2.8 1.8-5.3 4.1-7.3 6.2zm1.6-8.5c-4.9 1.5-9.5 3.5-13.3 6.5-4.2-9.8-8.8-21.6-2.4-31.4 5.2-8 14.6-13.1 22.3-18.6 0.3 9.7 5.9 18.6 4.3 28.7-1 6.2-5.5 11-10.9 14.8zm-18.7 21.6c1.3-4.6 3.5-8.1 6.3-10.8 2-1 4.1-2.1 6.3-3.2-1.3 1.3-2.6 2.7-3.6 4-3.2 3.9-5.9 8.7-7.2 13.6q-0.3 0.3-0.6 0.7-0.8-1.7-2-3.4c0.3-0.2 0.6-0.5 0.8-0.9zm10.1 27.7c7.3-0.8 14.6 1.1 21.5 3-5.8 11.4-12.2 20.2-26.4 21.3q-3.3 0.2-6.6 0.3c-4.6-0.5-9-0.7-13.1-0.8q6.9-2.9 13.8-6 0 0.1 0.1 0.1c1 1 2.5 1.1 3.6 0.3 1.2-0.9 1.2-2.3 1.8-3.5 0.3-0.7-0.1-1.7-0.8-2q-0.9-0.4-1.8-0.7c-0.9-0.3-1.6 0.1-2 0.8q-0.1 0.2-0.2 0.4-0.6 0.3-1.1 0.8-0.2 0.4-0.4 0.8-7.4 3.3-14.8 6.6 0.3-0.3 0.5-0.5c4.3-4.1 9-9.6 12.7-15.6 4-2.7 7.9-4.7 13.2-5.3zm-30 140.2q0.1-0.2 0.1-0.3c0.9-2.4 2-4.6 3.2-6.8-0.1 2.8 0.3 5.6 0.9 8.4-0.4 0.1-0.7 0.2-0.9 0.3q-0.8 0.3-1.7 0.6c-0.3 0.1-0.5 0.1-0.8 0.2q0 0.1 0 0.1 0-0.4 0-0.8c0-0.7-0.3-1.3-0.8-1.7zm2.4-13.3c1.3-3.3 2.1-6.7 2.5-10.1 0.5-3.8 0.5-7.6 0-11.3-0.4-3.1-0.9-7.4-2.9-10 1.3-0.8 2.9-1.6 4.3-2.3 2.2 5.5 3.3 11 2.7 17-0.3 2.9-0.9 5.8-2 8.5-0.6 1.7-1.5 3.3-2.4 4.9q-1.1 1.6-2.2 3.3zm13.5-49.1c-8.3-5.3-14.7-11.5-15.7-22.4-0.6-5.8-0.3-11.6-0.7-17.3 0.9 3.1 2.1 6.2 3.2 9.1q-0.1 0.1-0.1 0.3c-2.5 5.7 7 4.6 4.6 0.4-0.6-1.1-1.4-1.4-2.1-1.4-1.7-4.6-3-9.4-4.6-14.1q1.4 1.4 2.8 2.6 1.5 1.4 3.2 2.8 2.7 3.3 5.1 6.8c4.4 6.5 6.7 13 6.1 21-0.4 4.1-1.1 8.1-1.8 12.2zm0.7-32.9c9.2 5.5 20 9.6 29.4 7.3 0.6 1.5 1.4 2.8 1.3 4.7 0 2.6-1.1 5.2-1.9 7.7-0.7 2.6-1.1 5.3-0.5 7.9-3.1 0.1-5.9 1.5-9.1 2.2-5.3 1.1-10.1-1.2-13.8-4.8 0.1-1.7 0-3.4-0.4-5.1 0.2-4.1-0.1-8.1-1.2-11.9-0.9-2.8-2.2-5.5-3.8-8zm22.8 50c1.3 1.4 2.9 3.1 4.7 4.7q-0.4-0.1-0.7-0.2c-4.5-1.8-8.3-4.2-11.9-6.8-1.2-1.4-2.2-3-3.1-4.8-1.7-3.8-2.3-7.9-3.2-11.9 1.6 1 3.5 1.7 5.4 2q0 0.1 0 0.3c1.3 6.2 4.7 12 8.8 16.7zm-11.7-5.4c-2.2-1.7-4.3-3.6-6.6-5.4 0.1-1 0.1-1.9 0.2-2.9q0.3-4.1 0.5-8.2 1.2 1.4 2.7 2.4c-0.1 0.1-0.2 0.2-0.2 0.4 0.3 4.2 1.2 9.4 3.4 13.7zm-7 4c0.7-1.4 0.6-3 0.1-4.6q1.3 1.8 2.9 3.4c-0.4 0.1-0.8 0.4-1.1 1-0.8 2.1-1.7 4.3-2.4 6.6q0.5-3.2 0.5-6.4zm4.9 1.9q1.9 0.8 3.8 1.7c3.1 2.1 6.6 3.9 10.2 5.4 5.3 3.5 9.7 7.9 10.9 13.9 2.1 9.9-3.1 19.1-3 28.8-7.9-5.1-17.5-9.8-23.1-17.5-7.1-9.8-2.6-22.2 1.2-32.3zm21.6 4.8c-2.5-1.8-4.8-3.9-6.8-6.2-4.1-4.7-6.7-10.1-8.8-16q2.6 0.3 5.2-0.3c2.7 11.8 13.9 22.3 26 25.6q-7-0.2-13.8-2.1-0.9-0.5-1.8-1zm3.1-5c-6.1-4.7-9.6-10.9-12.6-17.7q0 0 0 0c1.9-0.6 3.6-1.4 5.5-1.7 0.5 3.1 3 6.3 4.8 8.8 2.2 3 4.7 5.7 7.4 8.2 4.8 4.3 10.5 7.8 16.6 10q-0.5 0.1-1 0.2c-7.6-1.2-14.5-2.9-20.7-7.8zm22.9 2.2c-1.6-5.5-4.7-10.7-8-15.1-4.3-5.4-10.7-11.6-17.5-13.8 0.2-1.7 0.7-3.3 1.2-5 7 3.3 13.2 8 17.6 14.4 2.4 3.4 4.2 7.1 5.5 10.9 0.5 1.6 0.9 3.2 1.2 4.9q0.1 1.8 0 3.7zm-5.6-20.3c-4.5-6.4-10.9-11.9-18.4-14.5 0.5-1.5 0.9-2.9 1.1-4.4q0.1-0.7 0.1-1.5c2 1.1 4.2 2 6.1 3.3 2.8 1.7 5.4 3.7 7.7 5.9q1.2 1.2 2.2 2.4c2.8 5.3 4.7 11 5.8 16.8-1.3-2.9-2.9-5.6-4.6-8zm-0.6-16.5c-1.9-2.9-4-5.6-6.3-8.2q2.8-0.9 5.6-1.7 3.6-0.4 7.1-1.4c6.4-0.9 12.9-0.6 19.2 1.9 10.2 4 17 13.4 22.9 22.4-9.2 3.8-23 3.6-31.8 0.2-6.8-2.7-12-7.7-16.7-13.2zm7.1-16c-3.5-0.5-6.9-0.2-10.4-1-2.7-0.6-7.8-1.9-9.6-4.4 1.9-0.4 3.8-1.1 5.3-1.8 0 0.1 0 0.3 0.2 0.4 6.6 4 15.3 4.5 22.7 2.5q1.2-0.3 2.4-0.7c-3.4 2-6.9 3.7-10.6 5zm7.9-5.6c-7.6 2-14.8 0.9-22-2q0.5-0.2 1-0.5c1.3-0.8 2.5-1.9 3.5-3.1 5.5 3.9 14.7 3.2 20.8 1.7 4.2-1 8.7-3 12.5-5.8q-2.9 2.8-6 5.3-0.1 0.1-0.3 0.2c-3 1.9-6.2 3.3-9.5 4.2zm2.9-5.2c-6.5 1.6-13.5 1.4-19.7-1.1q0.5-0.6 0.9-1.3c0.6-0.9 1-2 1.4-3.1 6.3 1.1 13.1 1.5 19.5 1 3.7-0.3 7.9-1 11.5-2.5-4 3.1-8.3 5.6-13.6 7zm9-7.2c-2.8 0.8-5.8 1.2-8.7 1.4-5.9 0.3-11.6-0.5-17.4-0.7 0.6-1.7 1.4-3.3 2.9-4.1 0.3-0.2 0.6-0.6 0.7-1 5.3 0.4 10.6 0.1 15.9 0.2q3.8 0.1 7.6 0.2c2.2 0.1 4.6-0.1 6.7 0.6q0.1 0.2 0.3 0.3c-2.7 1.1-5.1 2.4-8 3.1zm27.7-53c1.7-1.4 3-3.2 4.7-4.4 2.2-1.5 4.7-2.8 7.3-3.5 1.7-0.4 8.4-1.6 5.4 4.1-1.4 2.5-8.1 3.5-10.6 3.8-2.2 0.2-4.6-0.2-6.8 0zm-45.9-15.8c0.6-3.8 1.1-7.6 1.6-11.2q0 0 0 0 0.3-0.2 0.5-0.4c1.2-0.8 2.2-1.7 3.1-2.7q0.8-0.6 1.6-1.1c-0.1 0.4-0.2 0.7-0.2 0.8-1.3 3.9-2.3 7.8-3.3 11.7-1 0.7-2 1.5-2.9 2.5q-0.2 0.2-0.4 0.4zm26-12.5q-3 0.5-6 1.3c0.6-1 0.5-2.8 0.7-3.8q0.5-3.4 1.1-6.9 2.8-0.6 5.7-1c-0.4 1.4-0.4 2.9-0.6 4.3-0.3 1.9-0.9 3.8-1 5.6q0 0.3 0.1 0.5zm-7.1-2c-0.2 1.2-0.7 2.6 0 3.6q-3 1-5.9 2.4c1-3.7 1.5-7.5 2.1-11.2q2.5-1 5.1-1.7-0.7 3.4-1.3 6.9zm-7.4 5.7c-0.1 0.3 0.2 0.6 0.5 0.8q-3.5 1.7-6.7 4 0.8-2.8 1.4-5.7 0.5-2 1-4 0.2-1.1 0.4-2.1 0 0 0-0.1 0.1 0 0.1-0.1c0.1-0.1 0.1-0.2 0-0.2q2.7-1.6 5.4-2.9c-0.9 3.4-1.7 6.8-2.1 10.3zm-2.9-19.1q-2.6 1.1-5.4 2.1c-1 0.4-2.4 0.6-3.5 1.1q0.6-2.4 1.1-4.8c0.9-0.5 5.4-2.4 6-2.6 1.1-0.6 2.4-1.2 3.5-1.8q-0.6 3.1-1.7 6zm-5 3.8q2.1-0.7 4.1-1.6c-1.9 4-4.6 7.7-8.5 10.8-0.6 0.5-0.8 1.1-0.8 1.7q-2.3 0.6-4.9 1c2.4-3.2 4.2-6.8 5.5-10.5 1.5 0.1 3.2-0.9 4.6-1.4zm-33.7-38.1c0.1-2.9 0.2-7 3.5-8.1 5.5-1.8 2.4 7.1 1.3 9.4-1.4 2.7-3.5 5-4.9 7.6 0.3-2.9 0.1-5.9 0.1-8.9zm-42.3 12.5c-2.2-3.6-4.1-7.4-6.2-11.2q1.2-3.4 3-6.5c0.4 2.2 1.2 4.3 1.9 6.4 0.8 2.1 1.5 5.1 3.1 6.9q-1 2.2-1.8 4.4zm-8.5-11.1c-2.1-4.9-4.9-9.3-8.2-13.3 0-1.7 0.2-3.3 1.3-4.9 1.7-2.6 4.8-3.9 7.7-2.8 2.7 0.9 4.5 3.3 5 6 0.2 0.7 0.3 1.5 0.7 2-2.8 4-5.1 8.4-6.5 13zm-8-5.3q1.7 2.9 3.1 5.9c-1 2.4-2.1 4.6-3.4 6.9q-1.1-2.8-2.5-5.3c1.1-2.4 2.1-5 2.8-7.5zm-3.9 5.5q-1.5-2.4-3.3-4.6c1-2.6 1.6-5.5 2-8.2q2.3 2.7 4.3 5.8c-1.2 2.2-2.2 4.6-3 7zm-40.3 5.4c-1.3-1.7-3.1-3-4.3-4.7-1.5-2.2-2.8-4.8-3.5-7.3-0.4-1.7-1.6-8.5 4.1-5.4 2.6 1.4 3.5 8.1 3.8 10.6 0.2 2.2-0.3 4.5-0.1 6.8zm-20.4 39.7c-1.8-0.3-3.6 0-5.4-0.1-1.8-0.2-3.6-0.5-5.5-0.7q-2.7-4.3-4.4-8.8c3.4 1.3 7.2 0.6 10.8 1.5q1.8 4.3 4.5 8.1zm-16.1-11.7q-1.5-4.5-2.1-9.2c3.4 1.2 7.1 2.1 10.6 2.7q0.8 4.2 2.3 8.2c-3.6-0.5-7.6 0.2-10.8-1.7zm1.9 14.6c-0.3 1.9-0.4 3.8-0.2 5.7q-3.3-1.6-6.9-2.5c0-2.6 0-5.3-0.2-7.9 2.6 1.1 5 2.7 7.3 4.7zm-34.6 33.3c-3-0.3-6-0.1-8.9-0.2-2.9 0-7-0.2-8.1-3.4-1.8-5.5 7.1-2.4 9.4-1.3 2.7 1.3 4.9 3.5 7.6 4.9zm5.3 43.2c-1.7 0.3-3 1.6-4.5 2.6-1.5 1.2-3.1 2.4-4.7 3.6q-4-0.9-7.7-2.6c1.8-1.1 3.4-2.4 5-3.6 1.4-1.1 3.3-2 4.2-3.5 4.8 2.5 10.1 4.1 15.5 4.3-2.3 1.9-4.3 4.2-6.5 6.3q-4.3 0.3-8.3-0.4 1.9-1.3 3.7-2.6c1.4-1 3-1.8 3.9-3.4 0.1-0.3-0.2-0.8-0.6-0.7zm-15-8.3q2.8 2.2 5.8 4c-1.5 0.6-2.9 2.1-4.1 3.1-1.7 1.3-3.5 2.6-5.1 4q-3.8-2-7.2-4.7c1.8-0.8 3.6-1.9 5.3-2.9 1.7-1 4.2-1.8 5.3-3.5zm5.3 16.7c-5 0.9-9.7 2.8-14 5.4q-0.2-0.3-0.6-0.5c-2.5-1.2-6.7-3.8-3.2-6.7 1.7-1.4 3.9-2.2 6-2.8 3.7 2.1 7.7 3.7 11.8 4.6zm-7.9 4.7c1.7 1.3 3.4 2.4 5 3.7 1.2 1 2.3 2.4 3.7 3.3-2.8 1.5-5.4 3.2-7.8 5.2-1.7-1.8-4.4-3-6.4-4.3-1.2-0.8-2.4-1.7-3.8-2.1 2.9-2.3 6-4.3 9.3-5.8zm6.1 2.4c-1.4-1.1-2.9-2.2-4.5-3q3.6-1.5 7.6-2.1c1 1.4 2.1 2.7 3.3 4.1 0.8 0.9 1.5 2.2 2.5 2.9q-2.4 0.8-4.8 1.9c-0.9-1.6-2.7-2.7-4.1-3.8zm7.3-2.2c-0.9-1-1.8-2.1-2.8-3.2q4-0.5 8.3-0.1c0.9 2.2 2.3 4.1 4 5.8q-3.4 0.3-6.7 1.2c-0.4-1.4-1.8-2.5-2.8-3.7zm9.1-6.5q-0.2-0.1-0.3 0-0.7 0.1-1.4 0.1c2.3-1.8 4.7-3.5 6.7-5.6q0.2-0.2 0.2-0.5 0.5 0 1 0c-1.9 2.1-4 4.1-6.2 6zm21.2-4.4c3.3-0.7 6.7-1.1 10.1-1.2 2.5-0.1 5.1 0.5 7.7 0.7-1.6 1.3-3.3 2.3-5.4 2.8q-0.2-0.2-0.6-0.2c-9.6 0.8-19.8 2.3-28.9 5.7 5.4-3.3 10.7-6.3 17.1-7.8zm10.4 3.8c0 0.5 0.3 1 0.8 1.2 1.3 0.6 2.5 1.5 3.7 2.5-2.4 0.4-4.7 1.7-7 2.4q-3.8 1.1-7.7 1.6-4.3 0.6-8.7 0.5c-0.5 0-1.5 0-2.7 0q-2.6-1.6-5.1-3.4c8.9-2 17.6-4 26.7-4.8zm-13.5 9.4c3.3-0.2 6.6-0.7 9.9-1.6 2.9-0.7 6.6-1.5 8.9-3.5 1.5 1.3 2.9 2.8 4.3 4.2-7.9 4-16.8 5-25.2 3q-2-0.9-3.9-2 3 0.1 6-0.1zm24 0.1c1 1.1 2 2.1 3.1 3.1-6.1 3-12.7 3.8-19.3 3.1-2.1-0.7-4.2-1.5-6.2-2.4 7.6 1.2 15.5-0.1 22.4-3.8zm12.4 16.1c2.1-0.2 4.2-0.3 6.3-0.3q1.7 0.3 3.4 0.4c-0.2 0.3-0.5 0.7-0.7 1.1 0.1-0.4-0.2-0.9-0.8-0.8-7 1.6-14.1 5.5-19.1 11 2.8-5 6.3-9.5 10.9-11.4zm8.5 1.7q0.1 0 0.2-0.1c-1.2 2-2 4.1-2.7 6.1q0 0.1-0.1 0.2c-7.1 3.5-15.7 8-21.7 14.2 0.7-1.6 1.4-3.4 2.2-5.2 5.5-7.5 12.6-13.1 22.1-15.2zm-2.8 27.2q-6.1 7.4-13.3 13.7-3.4 3-7 5.7c-2.3 1.7-5 3.1-7.1 5q0.4-1.2 0.6-2.4c6.9-11.6 16.6-21.4 28.2-28.4 0.1 1.7-0.1 3.4-1.3 4.9-0.4 0.5-0.4 1-0.1 1.5zm-0.2-13.4c-9.8 3.8-19.8 11.2-24.9 20.9 0.4-3.5 1-6.9 2.1-10.3 1.7-2.3 3.6-4.4 5.9-6.4 5.1-4.2 11-7.3 16.9-10.2-0.4 2-0.4 4 0 6zm-17.9 13.5c5.2-5.4 11.5-9 18.2-12.1 0.4 1.4 0.8 2.8 1.1 4.2-11.2 6.6-20.6 15.7-27.5 26.6 0.4-2.4 0.6-4.8 0.8-7.2 1.8-4.2 4.2-8.1 7.4-11.5zm-8-9.7q-0.6 1.3-1.1 2.7c-3.2 4.4-7.3 8-12.5 9.1-10 2.1-19.2-3.1-28.9-2.9 5.1-7.9 9.8-17.6 17.5-23.2 9.5-6.9 21.6-2.8 31.6 0.9-2.9 4.2-5 9.2-6.6 13.4zm7 33.5q-3.3 0.3-6.6 0.6c2-1 3.7-2.4 5.4-3.7q4.1-2.9 7.9-6.2c4.8-4.2 9.3-8.9 13.3-13.9 0.4 0.1 0.7 0.1 1.1-0.2 0.9-0.8 1.9-1.4 3-1.7-1.9 6.5-5.5 12.3-10.4 16.9-4.1 3.9-8.7 6.1-13.7 8.2zm14.6-7.2c5.1-4.7 8.9-10.8 10.7-17.6 0.1-0.2 0-0.4-0.2-0.6 1.5-0.3 3.1-0.3 4.7-0.2-2.8 9.8-6.9 18.3-15.3 23.8-3.2 0.7-6.4 1-9.7 1.4 3.7-1.7 7.1-4.2 9.8-6.8zm16.4-18.3c1.6 0.1 3.3 0.3 4.9 0.4-0.6 7.6-3.5 14.6-9.1 19.4q-2.3 1.1-4.8 2-2 0.7-4 1.2c7.1-5.2 10.9-14.8 13-23zm13-1.4c0.7-0.5 1.4-1 1.9-1.7q0.5 2.5 1.1 4.9-2.2 3.2-4.6 6c1.1-3 1.6-6.2 1.6-9.1q0-0.1 0-0.1zm-5.1 12.9c-2.6 2.4-5.3 4.5-8.3 6.3 4-4.7 6-11.1 6.4-17.4q0.7 0 1.3 0c1.4-0.2 3-0.5 4.4-1.1-0.3 4.6-1.7 8.4-3.8 12.2zm6.8-36c-1.5 5.6-1.3 11.6-0.5 17.6-4.1 5.3-9.1 4.2-15.2 3.9-2.4-0.1-4.7 0.1-6.8 0.8 0.5-3.3-0.9-6.7-1.5-10.2-0.9-4.6 1.3-11 5.1-14.7 7.7-0.2 15.7-2.8 22.8-6.8-1.7 2.9-3 6.1-3.9 9.4zm6.6-5.9c1.8-3.7 4.2-7 6.8-10.1 3.2-2.7 6.1-5.7 8.5-8.7q0.3-0.3 0.7-0.6c-1 2-1.7 4.3-2.4 6.1q-2.4 6.1-4.8 12.3c-0.9-0.1-1.7 0.4-2.2 1.3q-0.2 0.1-0.3 0.2c-0.5 0.6-0.4 1.4 0 2 0.5 1.3 2.2 2.2 3.7 2.3 0.7 0 1.5-0.3 1.8-1 0.4-1.3 0.3-2.4-0.2-3.2q2.2-5.7 4.4-11.5 1-2.7 1.9-5.4c1 6.8 1.7 13.6 0.9 20.4-1.5 12.5-9 22.5-20.2 27.8 0.2-3.3-0.7-6.5-1.3-10-1.6-7.7-0.8-14.8 2.7-21.9zm11.9 100.8c1.8 0.8 3.3 2 5 2.9q-0.9 2.8-2.1 5.5c-1.6-1.2-3.3-2.3-5-3.3q0 0 0 0 1.2-2.5 2.1-5.1zm4.6 15.3c1.6-2.7 3.1-5.6 4.2-8.7 1.4 4 3.5 7.8 6.1 11.2-0.4 2.7-2.2 5.1-5.1 5.2-3 0-6.5-3.4-5-6.5 0.2-0.4 0.1-0.9-0.2-1.2zm9.8-2.4c2.4-3 4.7-5.9 7.3-8.8q1.4 2 3 3.9c-1.4 1.1-2.2 3-3.1 4.6-1.1 1.8-2.4 3.7-3.3 5.7q-0.3-0.4-0.6-0.8 0-0.1 0-0.1c-0.1-0.6-0.5-1-1-1.1q-1.3-1.7-2.3-3.4zm76.4-52.3c-1.1-0.2-2.3-0.1-3.5-0.2-0.9-0.1-1.9-0.3-2.8-0.5q-1.2-2-2.5-4 1.9-0.1 3.8-0.4c0.1 0.5 0.3 1 0.9 1.5q2.3 1.6 4.1 3.6zm-31.7 36.1c1.5 2.6 3.7 4.7 5.2 7.4 1.2 2.2 4.7 11-0.8 9.4-3.3-0.9-3.7-5-3.9-7.9-0.2-3-0.1-6-0.5-8.9zm26.3-35q0.9 0.2 1.7 0.3c1.4 0.2 3.1 0.4 4.5-0.1q0.1-0.1 0.2-0.2 2.6 3 4.2 6.4c-1.3-0.7-3-0.8-4.5-1-1.3-0.2-2.7-0.6-4-0.6q-0.9-2.4-2.1-4.8zm9.8-4.1c0.1-3.3-0.1-7-0.7-10.4q2.9 1.7 6 2.9-0.1 2.7 0.2 5.3c0.1 1.6 0.1 3.5 0.6 5.1q-3.1-1.2-6.1-2.9zm36.7-33.5c2.2 0.1 4.5-0.5 6.8-0.3 2.5 0.1 9.1 0.8 10.7 3.3 3.3 5.5-3.5 4.7-5.2 4.3-2.6-0.5-5.2-1.7-7.4-3.1-1.9-1.2-3.3-2.9-4.9-4.2zm14.2-32.1q-2.5-2.6-5.3-4.7 1.7-0.4 3.4-0.7c1.6-0.4 3.6-0.4 4.8-1.4q0.1-0.1 0.1-0.1 2.8 2.2 5.3 4.9-0.1 0-0.2 0c-2.7 0.6-5.5 1.1-8.1 2zm1.3-13.6q-3.5-2.6-7.5-4.6 3.4-1.5 6.4-3.5c2.5 0.2 5.2 0.3 6 3.1 0.5 1.6 0 3.2-1.4 4.2-1.1 0.7-2.2 0.7-3.5 0.8zm-4.7-11.3c-0.7-0.8-1.7-1.1-2.6-1.6-1.1-0.7-2.2-1.4-3.4-2q3.4-1.9 6.4-4.4c-0.1 0.2 0 0.4 0.2 0.6 1.7 1.2 3.5 2.4 5.3 3.4q-2.8 2.2-5.9 4zm1.5-8.6q-0.2-0.1-0.4-0.1 1.8-1.6 3.5-3.4 2.2 0.9 4.2 2c0.8 0.5 1.6 1.1 2.4 1.6q-1.8 1.7-3.7 3.3c-2-1.1-4.1-2.1-6-3.4zm8-3q-1.9-0.9-4-1.5 0.2-0.2 0.3-0.3 2.1-2.6 4-5.4c1.1 0.5 2.2 1 3.3 1.6 1.2 0.7 2.4 1.8 3.7 2.1q-2 2.8-4.4 5.3c-0.8-0.8-1.9-1.3-2.9-1.8zm12.1-11.1c-1.1-0.9-2.6-1.2-3.9-1.6q-2-0.7-4.1-1.2 1.8-3.3 3.4-6.9c2.5 0.9 5.1 1.8 7.8 2.5q0.3 0 0.5-0.1-1.7 3.7-3.7 7.3zm4.1-8.1c0-0.3-0.2-0.6-0.5-0.7-2.5-0.8-5.1-1.5-7.7-2.1q1.6-3.8 3.1-7.7 2 0.7 4 1.1c1.5 0.4 3.3 1 4.8 0.7q-1.7 4.4-3.7 8.7zm4.2-9.9c-1.3-0.9-3.1-0.8-4.6-1.1q-2.1-0.4-4.2-0.8 1-2.6 2-5.1c1.7 0.3 3.4 0.4 5.1 0.5 1.3 0 2.7 0.2 4 0.1q-1.1 3.2-2.3 6.4zm2.9-8.2c-1.7-0.2-3.5 0-5.2-0.1-1.3-0.1-2.6-0.1-3.9-0.2q0.9-2.4 1.9-4.8c2.9 0.2 5.9 0 8.8-0.1q-0.8 2.6-1.6 5.2zm2.1-6.9c-3 0.2-6 0.2-8.9 0.6q0.9-2 1.7-3.9 0.2-0.5 0.1-0.9c1.4-0.4 2.8-1.2 3.7-1.6 1.6-0.7 3.7-1.6 5.6-2.7q-1 4.3-2.2 8.5zm-7.8-12.6c3 0.9 6.2 1.6 9.4 2-1.3 0.8-2.6 1.7-3.8 2.3-1.9 1-3.9 2.1-5.9 2.7q-0.4-0.2-0.8-0.3-1.5-0.3-3-0.6c1-1.1 1.8-2.4 2.6-3.6 0.5-0.8 1-1.7 1.5-2.5zm-1.6-0.5c-0.6 0.8-1.1 1.7-1.7 2.5-0.8 1.2-1.8 2.4-2.6 3.7q-2.8-0.7-5.5-1.5c1.1-0.7 1.6-2.1 2.3-3.2 0.7-1.1 1.4-2.2 2-3.4q2.7 1.1 5.5 1.9zm-7-2.4c-0.8 1.1-1.5 2.3-2.2 3.4-0.7 1.1-1.6 2.1-1.6 3.4q-2.3-0.7-4.6-1.5c1.5-2.2 2.7-4.7 3.9-7.1q2.2 0.9 4.5 1.8zm-5.9-2.4c-1.4 2.4-2.9 4.7-4 7.2q-2.9-1-5.7-2c1.3-2.4 2.2-5.2 3.2-7.9q3.2 1.4 6.5 2.7zm-7.7-3.2c-1.2 2.6-2.6 5.2-3.4 8q-2.1-0.7-4.2-1.3c1.4-2.6 2.3-5.7 3.3-8.5q2.2 0.9 4.3 1.8zm-6.2-2.5q0.3 0.1 0.6 0.2c-1.2 2.8-2.6 5.7-3.3 8.5q-3.3-0.9-6.5-1.6c0.9-1.1 1.2-2.8 1.7-4.1 0.5-1.7 1.2-3.3 1.7-4.9q2.9 0.8 5.8 1.9zm-19.5-4.2q6.2 0.3 12.6 2c-0.8 1.6-1.5 3.3-2.2 4.9-0.5 1.4-1.2 2.8-1.1 4.2q-3-0.6-6-0.9 0 0 0.1-0.1c1-0.9 1-2.2 1.4-3.5 0.4-1.7 1.1-3.4 1.3-5.1 0.2-0.7-0.7-0.8-1-0.3-0.9 1.5-1.3 3.3-1.8 5-0.4 1.2-1 2.5-0.6 3.7q0.1 0.2 0.3 0.3-2.2-0.2-4.5-0.2c0.8-3.2 1.1-6.7 1.5-9.9q0-0.1 0-0.1zm-1.5-0.1c-0.7 3.3-1.5 6.8-1.7 10.1q-2.3 0.1-4.6 0.4c0.6-1.7 0.8-3.5 1-5.3 0.2-1.6 0.6-3.3 0.3-5q2.5-0.2 5-0.2zm-17.8-22.6c6-8.5 16.8-9.6 26.4-11.5-0.8 7.3-2.3 14.5-6.2 20.8-3 4.7-6.7 7.4-11 10q-0.1 0-0.2 0c0.9-1.5 1.4-3.2 2-4.7 0.8-2.4 1-5-0.7-7.1-1.6-1.9-4.2-2.6-6.6-2.3-1.2 0.2-2.8 0.9-4 1.8q0.2-3.3 0-6.7 0.2-0.1 0.3-0.3zm-0.6 10c2.9-1.1 6.3-4 8.7-0.5 2.1 3-1.8 8.5-3.7 10.8-3.2 0.9-6.3 2.1-9.3 3.6 2.3-4.3 3.7-9 4.3-13.9zm-4.6 0.1c-2.2 0.8-4.3 2.1-6.5 3-0.7 0.4-1.9 0.7-3 1.2q0.3-2.2 0.5-4.4c3.2-1.6 6.5-3.6 9.4-5.7q0 3-0.4 5.9zm0.4-7.9c-3.2 1.8-6.3 3.9-9.3 6q0.2-4.1-0.2-8.3c1.6 0.1 3.2-1.5 4.4-2.3 1.5-0.8 3-1.6 4.4-2.5q0.6 3.5 0.7 7.1zm-0.9-8.5c-1.6 0.6-3.1 1.5-4.6 2.3-1.1 0.6-3.2 1.4-4.1 2.6q-0.3-3.3-0.8-6.5c1.3-0.1 2.6-1.2 3.7-1.8 1.5-0.8 3-1.6 4.4-2.5q0.8 2.9 1.4 5.9zm-1.8-7.5q0 0.1 0.1 0.3c-1.7 0.6-3.3 1.5-4.8 2.4-1.1 0.5-2.4 1-3.3 1.8q-0.3-2.1-0.8-4.2 3.7-2.1 7.7-3.8 0.6 1.7 1.1 3.5zm-1.6-5q-3.9 1.5-7.6 3.6-0.6-2.3-1.2-4.5c1.2-0.7 2.2-1.7 3.3-2.5q1.7-1.4 3.4-2.8 1.1 3.1 2.1 6.2zm-2.7-7.6q-0.1 0-0.2 0.1-1.8 1.4-3.6 2.8c-0.9 0.7-1.9 1.4-2.8 2.2q-0.7-2.5-1.6-4.9c2.3-1.3 4.5-3.6 6.2-5.8q1 2.8 2 5.6zm-2.6-7.1c-1.2 1.1-2.3 2.3-3.5 3.4-0.8 0.8-1.8 1.5-2.7 2.2q-1-2.8-2.1-5.5c2.2-1.8 4.1-3.9 5.8-6.1q1.3 3 2.5 6zm-3.1-7.5c-1.8 2.2-3.8 4.1-5.9 6q-1.2-2.9-2.5-5.6c0.9-1.1 1.6-2.5 2.4-3.6 1-1.3 2-2.6 3-3.9q1.5 3.6 3 7.1zm-8.1-19.5q2.3 5.6 4.6 11.2-2 1.9-3.7 4.1c-0.7 0.9-1.5 1.8-2.1 2.8q-1.3-2.5-2.5-4.8c0.7-1.6 1.1-3.4 1.6-5.1 0.8-2.3 1.5-4.6 2-6.9 0.2-0.7-0.9-0.9-1.1-0.3-1 2.3-1.8 4.7-2.5 7.1-0.4 1.1-0.9 2.3-1.2 3.5-0.6-0.4-1.3-0.4-1.9 0q-1.6 1.3-3.3 2.5 0-2.2 0-4.4c0-1.5 0.4-3.3-0.5-4.6q0-0.1 0-0.1c3.6-1.4 7.2-3.1 10.6-5zm-11.1 5.2c-0.9 1.4-0.6 3.5-0.6 5.1-0.1 1.7-0.2 3.3-0.2 5q-2.8 1.8-5.7 3.4c-0.2-1.8-0.4-3.7-0.4-5.6-0.1-1.7 0.3-3.6-0.1-5.4q3.6-1.2 7-2.5zm-8.1 2.9c-0.4 1.5-0.3 3.3-0.3 4.8q0 3.3 0.4 6.6-3.5 1.9-7 3.6c-0.2-4-0.4-8.3-1.2-12.2 2.7-1 5.4-1.9 8.1-2.8zm-9.3 3.2c-0.1 4.1 0.4 8.5 0.8 12.6q-2.6 1.3-5.2 2.6c0-2-0.8-4.2-1.2-6.2-0.3-2.2-0.4-4.5-1-6.6q3.3-1.3 6.6-2.4zm-7.6 2.8c-0.2 2.2 0.3 4.6 0.6 6.8 0.3 2 0.5 4.4 1.5 6.2q-3.2 1.6-6.3 3.5c0-2.3-0.9-4.7-1.4-6.9-0.5-2-1-4.1-1.6-6.1q-0.1 0-0.1 0c2.4-1.3 4.9-2.4 7.3-3.5zm-9.5 4.7q0.6-0.3 1.2-0.7c0.1 0.7 0.4 1.6 0.4 1.8q0.4 2 0.8 4c0.5 2.3 0.8 4.9 1.7 7q0.1 0.2 0.3 0.3c-2.4 1.4-4.6 3-6.8 4.8v-0.1c0.1-0.3-0.2-0.4-0.4-0.3 0.2-0.1-2.4-10.9-2.9-12.9q2.7-2.1 5.7-3.9zm-6.8 4.7c0.4 3.3 1.2 6.6 1.9 9.8 0.2 1.2 0.3 3.3 1.7 3.3q-1.8 1.6-3.5 3.3-1.1 1.1-2 2.3c-1.5-4.4-2.6-8.9-4.1-13.2q2.8-2.9 6-5.5zm-3.2 19.9q0 0.1 0.1 0.2-2.5 3.2-4.4 6.8c-0.6-2-1.9-3.9-2.5-5.7-0.9-2.4-1.6-4.9-2.6-7.3 1.6-2.6 3.5-5 5.6-7.3 0.8 4.5 2.3 9 3.8 13.3zm-29.4-31.1c2.2-5.8 6.6-10.3 10.3-15.1 3.6 4 7.3 8 10 12.7 3.5 6 3.7 11.6 2.3 18.1-0.1 0.5 0.2 0.9 0.6 1.1q-0.3 0.2-0.5 0.5c-1.1-5.4-6.7-9.6-12.2-8.2-3.1 0.8-6.5 4.2-7.5 7.7q-1.5-1.5-3.1-3c-0.2-4.7-1.7-9.1 0.1-13.8zm-3.8 16q1.8 1.6 3.5 3.4c-0.3 0.1-0.5 0.3-0.6 0.7-0.4 2.5-1 4.8-1.8 7.1q-1.3-1.5-2.8-2.9c0.7-0.9 0.9-2.3 1.2-3.4 0.3-1.6 0.5-3.2 0.5-4.8q0-0.1 0-0.1zm-0.8-0.8c-0.3 0-0.6 0.2-0.7 0.7q-0.2 2.2-0.7 4.5c-0.2 0.9-0.6 1.8-0.8 2.8q-0.1-0.1-0.1-0.1-2-1.7-4.1-3.1c0.6-2.9 1-5.8 1.5-8.7q2.6 1.9 4.9 3.9zm-12.4 0.7c0.8-2.8 0.7-5.9 0.5-8.8q1.1 0.5 2.1 1.1 1.9 1.1 3.7 2.3-0.1 0.1-0.2 0.4c-0.5 2.7-1 5.4-1.5 8.1q-2.3-1.5-4.7-2.8 0.1-0.2 0.1-0.3zm-1-9.7c0.1 3.1-0.4 6.1-0.5 9.2q-2.9-1.5-6-2.9c0.5-3.1 0.1-6.6-0.3-9.6q0 0 0 0 3.5 1.6 6.8 3.3zm-7.8-3.8c-0.2 0.1-0.3 0.4-0.3 0.6 0.1 2.9-0.1 5.9 0.1 8.8q-2.2-1-4.5-1.9c0.1-3.2 0.1-6.4-0.2-9.6q2.5 1 4.9 2.1zm-14.1-5.6q0.3 2.1 0.6 4.2c0.2 1.8-0.1 4 0.9 5.5 0.2 0.3 0.6 0.2 0.8-0.1 0.8-1.6 0.1-3.9-0.1-5.6q-0.2-1.7-0.5-3.4 3.1 1.1 6.2 2.3c-0.4 3.1-0.3 6.4-0.1 9.5-4.4-1.7-8.7-3.4-13-5.1-0.7-3.2-1.2-6.4-1.9-9.6q3.5 1.1 7.1 2.3zm-8.7-2.8c0.3 3.2 1 6.4 1.7 9.4q-2.8-1.1-5.6-2.4c-0.5-0.2-1-0.1-1.4 0q-2.2-3.9-4.5-7.8c-0.4-0.5-0.7-1.3-1.1-2q5.5 1.3 10.9 2.8zm-11.3-0.5c0.5 1 0.9 1.9 1.1 2.3q1.8 3.2 3.6 6.5 0 0.1 0.2 0.2-0.1 0.1-0.1 0.3-0.4 2-0.9 4c-1.3-0.7-2.5-1.4-3.8-2.3-0.8-0.5-1.6-1.1-2.4-1.6 1-3.1 1.7-6.2 2.3-9.4zm-2.7 10.9c0.8 0.7 1.7 1.3 2.6 1.9q1.7 1.2 3.6 2.3-0.9 3.4-2 6.7c-2.2-0.8-4.3-1.8-6.3-3.1-0.3-0.1-0.6-0.1-0.8-0.1 1-2.5 2-5.1 2.9-7.7zm-3.4 9q0.1 0.1 0.2 0.2c2.2 1.4 4.4 2.6 6.8 3.5q-0.9 2.9-1.9 5.8c-2.8-0.7-5.3-1.6-8-2.7q1.5-3.4 2.9-6.8zm-6.9 16.6c1.1-2.9 2.3-5.8 3.5-8.6 2.4 1.5 5.1 2.7 7.8 3.3q-1.1 3.4-2.2 6.8c-0.7-0.2-1.5-0.3-2.2-0.5-1.9-0.5-3.7-1.3-5.5-1.9-0.5-0.2-0.9 0.4-0.5 0.7 1.7 1.4 3.7 2.2 5.7 2.9 0.6 0.2 1.3 0.4 2 0.6q-0.9 3.1-1.6 6.2c-1.4-0.3-2.8-0.4-4.1-0.7-1.8-0.5-3.5-1-5.2-1.7q0.9-3.5 2.3-7.1zm-2.7 8.7c2.8 1.3 6.3 2.7 9.3 2.8q-0.4 2.4-0.7 4.9-0.1 1-0.1 2c-3.3-0.6-6.5-1.5-9.8-2.5q0.4-3.6 1.3-7.2zm-1.4 8.6c3 1.7 6.4 2.7 9.8 3.1q0 3.9 0.6 7.8c-3.4-0.9-7-1.7-10.4-2q-0.4-4.4 0-8.9zm1 26.4c-3.2-1.8-6.7-3-10.4-3.8q0 0-0.1-0.1c-2.7-1.7-6.2-3.3-5.3-7.3 1-4.4 7-5.7 10.4-3.3q0.4 0.3 0.8 0.3c0.8 4.9 2.3 9.7 4.6 14.2zm-35.8-18.6c-1.6-4.9-1-10.1-2.3-14.9 10.7 1.6 25.8 1.7 32.7 11.7q0.1 2.2 0.3 4.3c-4.3-2.5-11-0.1-12.9 4.4-1.1 2.6-0.4 6.1 1.5 8.4q-2.5-0.2-5-0.1c-6.7-3.2-11.9-6.2-14.3-13.8zm10.2 18.7c0.9 3 2.2 6 3.2 9.1q-3.8 0.2-7.6 0.7c0-0.6-0.3-1.1-0.6-1.8q-0.6-1.5-1.2-3c-0.4-1.1-0.9-2.6-1.5-3.8q3.8-0.8 7.7-1.2zm-12.1 2.4q1.4-0.4 2.8-0.8c0.3 1.4 1.2 2.9 1.6 4q0.5 1.3 1.1 2.7c0.3 0.6 0.4 1.2 0.8 1.7q-3.3 0.6-6.6 1.3c-0.3-1.2-1.1-2.5-1.6-3.6-0.6-1.4-1.3-2.8-2-4.1q2-0.7 3.9-1.2zm-5.3 1.6c0.6 1.5 1.2 2.9 1.8 4.4 0.5 0.9 0.8 2.3 1.5 3.3q-3.1 0.8-6.1 1.7c-0.5-1.1-1.3-2.1-1.8-3-0.8-1.3-1.6-2.7-2.6-3.9q3.6-1.3 7.2-2.5zm-8.5 3c0.7 1.4 1.6 2.8 2.4 4.1 0.4 0.8 0.8 1.9 1.4 2.9q-2.4 0.8-4.8 1.6c-1.1-2.4-2.7-5-4.8-6.4q2.9-1.1 5.8-2.2zm-6.8 2.6q0 0 0 0.1c0.7 1.3 1.8 2.4 2.6 3.6q0.9 1.4 1.6 2.9-2.6 1-5.1 2-2.7-3-5.4-6.1 3.2-1.3 6.3-2.5zm-7.6 3.1q2.6 3.1 5.3 6.2-3.3 1.4-6.2 2.9-3.2-2.9-6.5-5.7-0.2-0.1-0.3-0.2 3.8-1.7 7.7-3.2zm-9.1 3.7c0.3 0.3 0.5 0.6 0.8 0.8q1.1 1.1 2.3 2.3 1.7 1.6 3.4 3.2-2 1-3.9 2.1-0.4 0.2-0.6 0.7c-1-0.6-2.1-1.1-2.9-1.5-2.6-1.3-5-2.6-7.3-4.2q4.1-1.7 8.2-3.4zm-9.1 4.7c1.2 1 2.5 1.9 3.9 2.7 1.4 0.7 2.7 1.4 4.1 2.1 1 0.6 2.8 1.2 3.9 2.1q1.4 1.9 2.7 3.9c-1.1-0.4-2.3-0.6-3.6-0.7-2.2-0.1-4.4-0.3-6.6-0.6-1.3-3.2-2.7-6.4-4.4-9.5zm5.1 11.2c3.5 1.2 7.8 0.3 11.1 2.1q1 1.6 1.9 3.2c-3.5 0.5-7 1.4-10.4 2.1q-1.2-3.7-2.6-7.4zm3.1 8.9c3.5-0.6 7.1-1.1 10.6-2q0.1 0 0.1 0c1.6 2.8 3 5.8 4.4 8.7q-0.2-0.2-0.6-0.1-3.7 0.5-7.4 1.2c-1.4 0.2-2.9 0.4-4.2 0.8-1-2.8-1.9-5.7-2.9-8.6zm3.4 10c1.3 0 2.6-0.3 3.9-0.5q3.7-0.5 7.4-1.1c0.6-0.1 0.8-0.5 0.8-1q1.4 2.9 2.8 5.8-2.7 0.8-5.5 1.7c-2.2 0.6-4.6 1.1-6.7 2q-1.4-3.4-2.7-6.9zm6.7 14.8q-1.9-3.3-3.4-6.7c2.1-0.1 4.3-0.8 6.4-1.4q3.1-0.8 6.1-1.8 1.6 2.9 3.4 5.8c-1.8 0.5-3.6 1.6-5.2 2.3-2.2 1-4.5 1.9-6.7 2.8q-0.3-0.5-0.6-1zm1.4 2.2c2.2-0.6 4.4-1.4 6.5-2.3 1.8-0.7 4-1.4 5.5-2.6q1.7 2.5 3.5 4.9c-3.7 1.9-7.4 3.9-11 6.1q-2.4-2.9-4.5-6.1zm5.5 7.2c3.7-1.7 7.3-3.7 10.9-5.7q0.1-0.1 0.2-0.2 1.5 1.7 3.1 3.3 1.2 1.1 2.5 2.2c-1.7 0.3-3.2 1.7-4.6 2.5-2.1 1.2-4.3 2.3-6.2 3.8q-3.2-2.7-5.9-5.9zm-27.4 18.8c9.7-4.6 17.9-15.4 29.5-12.2q0.5 0.1 0.8-0.1 2.8 2.5 5.9 4.5c-3.1 0.9-6.5 2.5-7.5 5.3-1.2 3.7 2.1 6.3 5 7.9q-0.6 0.5-1.2 0.9c-12.1 4.9-22.5 0.9-32.5-6.3zm32.4 9.5c3.4 1.9 6.3 5.3 9.9 6.7q-1.6 1.4-3 2.9-1.1 1.2-2 2.3-0.1-0.2-0.5-0.4c-3.6-1.3-7.6-3.5-11.5-4.3 2.2-2.6 4.5-5.1 7.1-7.2zm-8.1 8.4c3.5 2.3 8.1 3.4 11.8 4.8q0.1 0.1 0.1 0.1-2.1 2.7-3.8 5.5c-1.9-1.5-4.5-2.1-6.7-3-1.7-0.6-3.4-1.3-5.2-1.8q1.8-2.9 3.8-5.6zm-5.7 9q0.5-1.1 1.2-2.2c1.7 0.9 3.5 1.5 5.2 2.2 2.2 0.9 4.4 2.2 6.7 2.6q-1.8 3.2-3.4 6.5c-1.6-0.8-3.5-1.3-5.2-1.8q-3.5-1.2-6.9-2.3 1.1-2.6 2.4-5zm-3 6.3q3.4 1.3 6.8 2.5c1.7 0.6 3.4 1.5 5.2 1.8q-1.5 3.3-2.9 6.6-0.2-0.2-0.5-0.3-3.5-0.9-6.9-1.8c-1.5-0.4-3-1-4.5-0.9 0.9-2.7 1.8-5.3 2.8-7.9zm-3.1 8.9c1.2 0.9 2.9 1.1 4.3 1.5q3.5 1 6.9 2 0.2 0 0.3 0-1.3 3.1-2.7 6.1 0 0-0.1 0c-3.6-0.8-7.2-1.7-10.9-2q1.1-3.8 2.2-7.6zm-2.5 8.8c3.4 1.1 7.1 1.7 10.6 2.4q-1.7 3.6-3.7 7.1c-3.1-0.3-6.3-0.9-9.5-0.8 0.9-2.9 1.8-5.8 2.6-8.7zm-3 10.1c2.9 0.6 6 0.7 9 1q-1.3 2-2.7 4c-0.3 0.4-0.3 0.8-0.3 1.1-3.3 0.7-6.6 2.2-9.7 3.6 1.4-3.2 2.6-6.4 3.7-9.7zm-5 12.3q0.1-0.1 0.2-0.3 2.8-1.4 5.8-2.6c1.9-0.7 3.9-1.3 5.8-2.1q0.1 0 0.1 0.1 2.3 1.1 4.9 2.3c-1.6 1.1-3.1 2.2-4.7 3.2-1.4 0.8-2.9 1.5-4.3 2.2q-3.9-1.4-7.8-2.8zm9.8 3.5c3.1-1.2 6.3-3.3 8.6-5.4q2.6 1.1 5.3 2.2c-0.8 0.7-1.3 1.6-1.9 2.4q-1.5 2.1-2.9 4.1-4.6-1.6-9.1-3.3zm17.1 6.1q-3.3-1.1-6.5-2.2 1.3-1.9 2.6-3.7c0.7-0.9 1.5-1.9 1.9-2.9q2.6 0.9 5.3 1.8c-1.2 2.3-2.6 4.6-3.3 7q0 0 0 0zm6.6 2.2q-2.6-0.8-5.3-1.7c1.5-2.1 2.5-4.6 3.5-7q2.1 0.7 4.3 1.3c-0.9 1.9-1.5 4-2.1 6-0.1 0.4-0.3 0.9-0.4 1.4zm9.8 2.9q-4.1-1.1-8.2-2.4 0.1-0.1 0.1-0.3 0.4-1.6 0.9-3.2c0.4-1.4 0.9-2.7 1.4-4q4.1 1.1 8.4 1.9c-0.7 1.2-1.2 2.5-1.6 3.8-0.5 1.3-1 2.8-1 4.2zm10.7-2.5c-0.2 1.6-0.6 3.2-0.5 4.8q-3-0.5-5.9-1.2-1.5-0.4-3-0.8c0.6-1.3 0.8-2.9 1.2-4.3 0.5-1.2 1-2.5 1.4-3.7q3.7 0.6 7.4 1c-0.3 1.4-0.4 2.8-0.6 4.2zm37.3-7.1q-0.2 0.2-0.3 0.3 0-0.1-0.1-0.3-0.5-1.3-1.1-2.6-0.2-0.4-0.5-0.5 1.3-0.7 2.4-1.5 0.1 0.6 0.2 1.1-0.3 1-0.7 2c-0.2 0.5-0.2 1.1 0.1 1.5zm-39.3-28.1c-2.6 1.5-4.7 3.8-7.4 5.3-2.2 1.2-11 4.7-9.4-0.8 0.9-3.3 5-3.7 7.9-3.9 2.9-0.2 5.9-0.2 8.9-0.6zm30.8 35.7c-2.8 1.7-5.9 2.9-9.1 3.7 0.2-3 0.4-6 0.5-9q4.2-0.7 8-2.1 0.2 3.7 0.6 7.4zm-10.8 4.1q-4.1 0.8-8.3 0.9c0.2-2.9 0.4-5.8 1-8.6 0.1-0.4 0-0.6-0.2-0.7q4.2-0.1 8.3-0.7c-0.2 2.9-0.5 5.9-0.8 8.8q0 0.2 0 0.3zm-17.1 0.4c0.6-1.7 0.5-3.6 0.7-5.3 0.1-1.2 0.3-2.5 0.4-3.8q3.8 0.3 7.5 0.3-0.2 0.1-0.3 0.4c-0.6 2.9-1.1 5.9-1 8.9q-3.7 0-7.3-0.5zm26.1 19.3c-3.7 4.9-7.3 9.2-13.6 11.1-4 1.2-8.3 1.7-12.4 2.5 1.4-3 1.7-6.2 2-9.8 0.6-8.4 3.4-14.3 10.8-18.2q1.2-0.2 2.4-0.3c-3.3 3.3-5.2 7.9-0.1 10.7 2.6 1.6 6 1.6 8.9 0.4 0.7-0.3 1.6-0.8 2.3-1.3q-0.2 2.4-0.3 4.9zm1.1-9.8c-1.3 0.9-2.2 2.2-3.7 2.9-1.6 0.8-3.5 1.2-5.3 0.7-5.9-1.4-1.5-6.8 1.5-9.4 3.8-0.9 7.5-2.4 10.8-4.4-1.5 3.3-2.6 6.7-3.3 10.2zm3.1 6.8c3.3 0.4 6.8 0.4 10.1 0.3q-0.1 2.2-0.1 4.4c-1.9 0.8-3.7 1.8-5.5 2.7-1.4 0.6-2.8 1.1-4.2 1.4q-0.5-4.4-0.3-8.8zm0.6 10.7c1.3-0.2 2.5-0.7 3.6-1.2 2-1 4-1.9 5.9-3q0.2 1.7 0.4 3.3 0.1 0.9 0.3 1.7c-3 1.8-5.9 3.8-8.8 5.7q-0.9-3.3-1.4-6.5zm1.9 8c2.8-1.9 5.7-3.8 8.5-5.7q0.6 2.9 1.5 5.8c-2.8 1.5-5.6 3.4-8.1 5.4q-1.1-2.8-1.9-5.5zm2.9 7.8q-0.2-0.4-0.3-0.8c2.6-1.8 5.2-3.7 7.7-5.7q0.9 2.9 2 5.8c-1.5 0.7-2.8 2.1-4 3.2-1 0.9-2.1 1.7-3.1 2.6q-1.2-2.5-2.3-5.1zm3 6.6c1.3-1.1 2.6-2.3 3.8-3.4 1-0.9 2.2-1.7 3-2.8q0.9 2.3 1.9 4.6-2 2.4-4.1 4.6c-0.6 0.7-1.4 1.4-2.1 2.2q-1.3-2.6-2.5-5.2zm3.2 6.6c0.8-0.7 1.6-1.6 2.4-2.4q1.9-2 3.7-4.2 1 2.6 2 5.1-2.2 1.9-4.2 4c-0.6 0.5-1.3 1.2-1.9 1.9q-1-2.2-2-4.4zm4.8 10.8q-1-2.4-2-4.7c0.7-0.6 1.2-1.5 1.8-2.2q1.9-2.1 4-3.9 1 2.5 1.9 5.1c-2.3 1.4-4.3 3.5-5.7 5.7zm2.8 8.3q-0.9-3.3-2.1-6.5c1-1.4 2-2.9 3.2-4.2 0.7-0.7 1.5-1.4 2.2-2.1q0.9 2.7 1.5 5.4c-2.1 1.9-3.7 4.8-4.8 7.4zm7.7 3.9q-3.2 1-6.4 1.9-0.3-1.6-0.7-3.2 0.1-0.1 0.2-0.3c0.8-2 1.7-3.9 2.9-5.7 0.5-0.8 1.1-1.5 1.6-2.2 0.4 0.9 1.4 1.7 2.5 1.3-0.4 2.4-0.4 5.1-0.6 7.4 0 0.4 0.2 0.7 0.5 0.8zm13-39.8c-0.2 2.5-0.8 9.2-3.3 10.7-5.5 3.4-4.7-3.4-4.3-5.2 0.5-2.6 1.7-5.2 3.1-7.4 1.1-1.8 2.9-3.2 4.1-4.9-0.1 2.2 0.5 4.5 0.4 6.8zm-12.1 39.5q0-0.1 0-0.3c0.2-2.6 0.7-5.5 0.5-8.3q2.2-1 4.4-2 0.1 2.1 0.4 4.1c0.2 1.2 0.2 3 1.3 3.6 0.2 0.2 0.5 0.1 0.6-0.1 0.6-1.1-0.2-2.7-0.4-3.9q-0.4-2.2-0.6-4.3 1.8-0.9 3.7-1.7c0.2 1.4 0.5 2.7 0.8 4 0.4 1.2 0.7 3.5 2 4 0.2 0.1 0.5 0 0.6-0.3 0.5-1.2-0.6-2.8-1-4-0.5-1.4-0.9-2.8-1.3-4.2q2.8-1.2 5.6-2.5c0.7 2.8 1.6 5.6 2.8 8.2q0 0.1 0.1 0.2c-6.3 2.9-12.9 5.4-19.5 7.5zm37-16.9c-5.2 3.3-10.6 6.2-16.1 8.8q-0.1-0.1-0.1-0.2c-0.8-2.7-1.9-5.4-3.1-8q3-1.4 6.1-2.9 0.6 1.8 1.2 3.6c0.5 1.3 0.8 3.3 1.9 4.1 0.4 0.2 0.8 0 0.9-0.4 0.3-1.4-0.8-3-1.4-4.2-0.5-1.2-1-2.4-1.6-3.6q2.8-1.4 5.5-2.9c0.9 2.4 1.7 4.7 2.8 7 0.4 0.9 1.6 0.4 1.4-0.5-0.8-2.5-1.9-4.8-3.1-7.1q2.9-1.7 5.7-3.6c0.8 1.1 3 5.4 3.9 7.1q-1.9 1.5-4 2.8zm5.2-3.7q-1.6-2.8-3.3-5.6c-0.2-0.3-0.5-0.8-0.9-1.2q3.1-2.2 5.7-4.7c0.9 0.9 1.9 1.7 2.8 2.5 0.8 0.8 1.7 1.9 2.8 2.2q-3.2 3.7-7.1 6.8zm8-7.8c-0.5-1-1.8-1.8-2.7-2.5-0.9-0.7-1.8-1.5-2.7-2.2q2-2 3.7-4.1c1.6 1.4 3.3 3 5 4.4q-1.5 2.3-3.3 4.4zm-1-9.9q1.9-2.5 3.3-5.2c1.6 1.3 3.3 2.6 5 3.7q-1.4 2.9-3 5.5c-1.7-1.4-3.5-2.7-5.3-4zm17.6 40.5c-2.3-4-5.4-7.3-8.2-11.1-5.2-7.1-5.1-14.1-1.2-21.1 0.7 2.9 3.6 5.4 6.6 5.9 3.6 0.6 7.1-1.7 8.4-5q0.7 0.7 1.3 1.5c5.1 9.4-1.9 20.7-6.9 29.8zm13.7-26.9q-3.1-2.6-5.8-5.6c1.4-1.9 2.5-4 3.7-6.1 0.8-1.4 2-2.9 2.5-4.5q1.1 1.2 2.2 2.3 1.7 1.6 3.4 2.9c-1.1 1.8-2 3.6-3 5.4-1 1.8-2.5 3.6-3 5.6zm1 0.8c1.4-1.2 2.2-3.2 3.1-4.8 1.1-2 2.2-4 3.1-6.1q2.1 1.6 4.3 3c-2.4 3.3-4.5 7.2-6.3 10.9q-2.2-1.4-4.2-3zm9.3 6.1q-1.8-1-3.6-2.1c2.2-3.6 4.4-7.4 6-11.2q3.1 1.8 6.2 3.3c-0.8 2.2-1.6 4.5-2.4 6.7-0.7 1.7-1.9 3.5-1.8 5.4q-2.2-0.9-4.4-2.1zm5.1 2.5c1.6-1.4 2-3.8 2.7-5.7 0.8-2.1 1.5-4.1 2.1-6.2q2.5 1.2 4.9 2.3c-1.7 3.7-3.4 7.7-4.5 11.6q-2.6-1-5.2-2zm12.8 4.4q-3.1-0.9-6.2-1.9c1.8-3.6 3.2-7.7 4.4-11.6q2.8 1.3 5.6 2.5c-1.4 3.4-2.5 7.1-3.8 10.6q0 0.2 0 0.4zm1.5 0.4q0 0 0.1-0.2c1.2-3.5 2.6-7 3.6-10.6q2.1 0.9 4.1 1.9-0.8 2.3-1.3 4.7c-0.4 1.7-1.1 3.6-0.5 5.2 0.1 0.3 0.5 0.4 0.7 0.1 0.9-1.3 0.8-3.1 1.2-4.7 0.3-1.6 0.7-3.1 1.1-4.7q2.6 1.3 5.2 2.8c-0.9 2.8-2 6.2-1.7 9.2-4.1-1.3-8.3-2.4-12.5-3.7zm13.9 4.1c0.3-1.3 0.3-2.8 0.5-4.2q0.4-2.3 1-4.7 2 1.2 4 2.6 0 0.2 0 0.3c0.8 2.5 1.8 4.8 3 7.1 0.4 0.7 0.9 1.7 1.5 2.7-3.3-1.5-6.6-2.7-10-3.8zm13.1 5.3q0 0 0 0c-0.1-1.8-2.1-3.7-2.9-5.2q-1.7-2.8-2.9-5.9c0.4-0.2 0.7-0.4 0.9-0.8q1-2 2-4.2c1.6 2.5 4.1 4.6 6.4 6.6q-1.8 4.8-3.5 9.5zm4.1-11.4c-2.1-1.9-4.1-4.2-6.4-6q1-2.2 2-4.6c2 1.8 4.2 3.7 6.6 4.7q-1.1 3-2.2 5.9zm2.9-7.7c-1.2-0.7-2.5-1.4-3.6-2.2q-1.6-1-3.1-2.3 1.3-3.4 2.5-7c1.1 0.9 2.5 1.5 3.7 2.2q1.5 0.9 3.1 2-1.3 3.7-2.6 7.3zm3.2-9.3c-2.1-1.5-4.6-3-6.9-3.5 1.5-5 2.9-10.3 3.8-15.7 2.2 1.8 5.1 3.2 7.7 4.5-1.4 4.9-2.9 9.9-4.6 14.7zm5.7-19.1q-0.3 1.3-0.6 2.6c-2.5-1.5-5.2-3.1-8-3.9q0.7-4.3 1-8.5c1.4 0.5 2.8 1 4.1 1.6 1.6 0.6 3.1 1.6 4.7 2.2q-0.5 3-1.2 6zm1.5-7.7c-2.5-1.8-6-3-9-3.6q0.2-3.6 0.1-7.2c3 1.4 6.3 2.4 9.4 3.8q-0.1 3.5-0.5 7zm4.4-15.9c-0.8-5-2.4-9.9-5.1-14.2 3.3 1.4 6.7 2.5 10.2 3.3 0 0.5 0.4 1.2 1.1 1.1q0.2 0 0.3 0c1.4 2 1.2 4.5 0.2 7-1 2.6-4.5 5-6.7 2.8zm30.4 18.6c-4.6-0.9-9-0.6-13.7-0.9-8.8-0.7-13.9-5.6-16.1-13.9q-0.1 0-0.1-0.1 0-0.3-0.1-0.6 0.6 0.3 1.2 0.4c2.8 0.5 5.2-0.8 6.8-3 1.5-2.1 2.6-6.4 2-9.7 10.7 2.9 19.7 16.9 20 27.8zm-12.1-32.7c0.2-0.1 0.3-0.3 0.3-0.6-0.1-3.1-0.8-6.3-1.3-9.3q2.3-0.1 4.5-0.5 1.7-0.2 3.4-0.5c0.4 1.8 0.8 3.6 1.2 5.4 0.3 1.2 0.3 3 1.5 3.6 0.2 0.1 0.4 0 0.5-0.1 0.9-1.1-0.1-3-0.5-4.3q-0.6-2.5-1.3-5 3-0.6 5.9-1.5c0.9 2.9 1.9 5.9 2.9 8.8-5.8 2.3-11.5 3.6-17.1 4zm20.2-5.2q-0.8 0.3-1.5 0.6c-1-2.9-2-5.8-3.1-8.7q2.7-0.9 5.4-1.9c0.4 1.4 0.9 2.8 1.5 4.2 0.4 1.3 0.8 2.9 1.6 4.1q-2 0.9-3.9 1.7zm5.5-2.5c-0.4-1.3-1.2-2.7-1.7-3.9-0.6-1.3-1.3-2.7-2-4 2.7-1 5.4-2.1 8.1-3.2 0.3 1.4 0.9 2.8 1.4 4q0.5 1.4 1 2.7c0.1 0.4 0.2 0.7 0.4 1q-3.6 1.7-7.2 3.4zm8.8-4.2q-0.1-0.2-0.3-0.6-0.5-1.5-1.1-2.9c-0.5-1.2-1-2.7-1.7-3.9q3-1.2 6.1-2.2c1.1 2.3 2.3 4.5 3.3 6.8q-3.2 1.3-6.3 2.8zm8-3.5c-0.9-2.3-2.1-4.7-3.6-6.6q2.5-0.8 5.2-1.5c0.6 1.1 1.4 2.1 2.1 3.1 0.6 0.9 1.1 2.2 2.1 2.8q-3 1-5.8 2.2zm15.8-4.8c-3 0.5-5.9 1.3-8.7 2.2 0-1.3-1.3-2.4-2-3.4q-1-1.3-2-2.5 0.5-0.1 1-0.2c0.5-0.1 1-0.4 1.3-0.8 3.3 1.5 6.8 2.7 10.2 3.8q0.1 0.5 0.2 0.9zm-3.9-12.4c-2.4-0.3-4.8-0.3-7.2-0.4-1.2-0.1-1.4 1.7-0.3 1.8 2.5 0.1 4.9 0.3 7.4 0.4q0.4-0.1 0.7-0.3 1.3 3.9 2.5 7.8c-3-1-6.1-2.2-9.2-2.9q0-0.3-0.1-0.6c-1.7-3.4-3.3-6.9-4.9-10.5 3.2-0.2 6.3-0.1 9.5 0.1q0.8 2.3 1.6 4.6zm-2.3-6.4c-3-0.4-6.2-0.3-9.1 0.1q-0.2 0-0.3 0.1-1.1-2.5-2.2-4.9 2-0.3 4.1-0.7c1.6-0.2 3.3-0.3 4.9-0.9q1.3 3.1 2.6 6.3zm-3.3-7.9c-1.5 0.1-3 0.5-4.4 0.8q-2.3 0.4-4.6 0.9-1.3-3-2.7-5.9c1.4-0.2 2.7-0.4 4.1-0.6 1.6-0.2 3.3-0.3 5-0.6q1.3 2.7 2.6 5.4zm-9.5-17.7q3.3 5.2 6 10.6c-1.6 0-3.2 0.3-4.7 0.6-1.4 0.2-2.8 0.4-4.2 0.9q-1.2-2.5-2.5-4.9c2.5-0.3 5.1-0.8 7.3-1.9 0.9-0.4 0.4-1.7-0.6-1.4-2.5 0.7-4.9 1.5-7.5 1.9q-1.6-2.8-3.4-5.5c1.5-0.3 3-0.7 4.5-1.1 1.1-0.3 2.8-0.5 3.8-1.1q0.7 0.9 1.3 1.9zm-2.5-3.6c-0.8 0.2-1.8 0.7-2.6 0.9-1.8 0.6-3.6 1.1-5.3 1.8q-1.8-2.5-3.8-4.8c2.4-0.5 4.9-1.2 7.2-1.7 0.5-0.1 0.7-0.5 0.7-0.9q2 2.2 3.8 4.7zm-4.3-11q-1.7-1.6-3.4-3.1c2.8-1.2 4.9-4.5 4.5-7.3-0.4-3.5-2.8-5.5-5.8-6.1q4.3-3.3 8-7.3c4.1 0.2 7.4 0.7 11.6 2.6 4.8 2.3 9.3 5.1 13.3 8.5-9.9 4.1-15.9 16-28.2 12.7z"/>
				<path id="&lt;Compound Path&gt;" fill-rule="evenodd" class="s8" d="m340.9 240.4c-2.7-0.2-5.6-1.8-6.5-4.6-0.5-1.9-0.1-4 1.2-5.1 1-2 3-3.6 4.9-4.5 4.5-2.3 12.4-3.1 17.1-1.2 0.7 0.2 1.2 0.9 1.1 1.6-0.1 7.3-11.1 14.4-17.8 13.8zm7-4.9c2.3-1.3 6.4-4.6 7.4-7.8-3.2-0.6-7.4-0.2-10.1 0.4-3.4 0.8-5.5 2.1-7.1 4.5q-0.1 0.8 0.5 1.8-0.4 4.1 4.3 3c1.6-0.2 3.6-1.1 5-1.9z"/>
				<path id="&lt;Compound Path&gt;" fill-rule="evenodd" class="s9" d="m294.4 183c-2 4.4-7.3 7.2-11.5 3.8-8.9-7.1 3.1-22.6 10.8-25 0.9-0.3 1.3 0.9 0.7 1.5q-0.1 0.1-0.2 0.2 0.1 0.1 0.1 0.1c0.2 0.2 0.4 0.5 0.5 0.8 1.6 5.8 2.3 13.1-0.4 18.6zm-1.7-6.5c0.6-3.7 0.2-7.3-0.8-10.9-4.8 4.4-11.7 11-8.2 17 1.7 2.8 4.8 2.7 6.8 0.2 1.4-1.7 1.9-4.1 2.2-6.3z"/>
				<path id="&lt;Path&gt;" class="s10" d="m215.9 180.4c-0.5 1.3-2.1 1.9-3.3 1.4-1.3-0.5-1.8-2.1-1.4-3.3 0.5-1.3 2.1-1.8 3.4-1.4 1.3 0.5 1.8 2.1 1.3 3.3z"/>
				<path id="&lt;Path&gt;" class="s11" d="m161.8 235.3c-0.5 1.3-2.1 1.9-3.4 1.4-1.4-0.5-1.9-2.1-1.5-3.5 0.6-1.3 2.2-1.9 3.5-1.4 1.4 0.6 1.9 2.2 1.4 3.5z"/>
				<path id="&lt;Path&gt;" class="s12" d="m289.3 180.3c-0.5 0.8-1.7 1.3-2.6 0.8-0.2 0-0.4-0.1-0.6-0.2-0.4-0.4-0.7-0.9-0.7-1.5-0.1-0.5 0.1-1.1 0.4-1.5 0.7-1 2-1.1 2.9-0.5 1 0.6 1.3 2 0.6 2.9z"/>
				<path id="&lt;Path&gt;" class="s13" d="m344.6 234.7c-0.5 1.4-2.2 1.9-3.5 1.4-1.4-0.5-2-2.1-1.5-3.5 0.5-1.4 2.2-1.9 3.5-1.4 1.4 0.5 1.9 2.2 1.5 3.5z"/>
				<path id="&lt;Path&gt;" class="s14" d="m344 305c-0.3 0.8-1.1 1.8-2.1 1.8q0.2-0.1 0.4-0.1c-2 0.6-4.1-1.1-3.5-3.2 0.2-1 1.1-1.8 2.2-1.9 0.8-0.1 2 0.3 2.4 1l-0.3-0.2c0.8 0.7 1.1 1.6 0.9 2.6z"/>
				<path id="&lt;Path&gt;" class="s15" d="m289.2 361.7c-0.9-0.2-1.5-1.1-1.3-2 0.3-0.9 1-1.2 1.8-1.2 2 0.2 1.5 3.4-0.5 3.2z"/>
				<path id="&lt;Path&gt;" class="s16" d="m162.2 311.6l-0.2 0.3c-0.5 1.5-2.2 2-3.6 1.5-1.4-0.5-2-2.2-1.5-3.6l0.2-0.3c0.5-1.5 2.2-2 3.6-1.5 1.4 0.5 2 2.2 1.5 3.6z"/>
				<path id="&lt;Path&gt;" class="s17" d="m217.8 363.6c-0.6 1.4-2.3 2-3.6 1.5-1.4-0.6-2-2.2-1.5-3.6 0.6-1.4 2.3-1.9 3.6-1.4 1.4 0.5 2 2.2 1.5 3.5z"/>
				<path id="&lt;Path&gt;" class="s18" d="m216.8 235c-0.6 1.5-2.1 2.9-3.5 3.5-1.5 0.6-3.3 0.5-4.8-0.1-3.3-1.2-4.5-5.1-3.4-8.2 0.6-1.5 2.1-2.9 3.5-3.4 1.5-0.6 3.3-0.6 4.8 0 3.3 1.3 4.5 5.1 3.4 8.2z"/>
				<path id="&lt;Path&gt;" class="s19" d="m254.6 217.5c-0.5 1.4-1.9 2.8-3.3 3.3-1.5 0.6-3.1 0.5-4.6 0-3.1-1.3-4.3-4.9-3.2-8 0.5-1.4 1.9-2.7 3.3-3.3 1.5-0.5 3.1-0.5 4.6 0.1 3.1 1.2 4.3 4.9 3.2 7.9z"/>
				<path id="&lt;Path&gt;" class="s20" d="m290.8 222.6c-7.5-2.9-12.4 8.6-4.9 11.5 7.5 2.9 12.4-8.6 4.9-11.5z"/>
				<path id="&lt;Path&gt;" class="s21" d="m308.4 263.2c-7.5-2.9-12.3 8.6-4.8 11.6 7.5 2.9 12.4-8.7 4.8-11.6z"/>
				<path id="&lt;Path&gt;" class="s22" d="m294.4 307.8c-0.6 1.6-2.1 3-3.7 3.6-1.5 0.7-3.4 0.6-4.9 0-1.7-0.7-2.9-2.1-3.6-3.7-0.7-1.5-0.5-3.4 0-4.9 0.6-1.6 2.2-3 3.7-3.6 1.6-0.6 3.4-0.6 5 0 1.6 0.7 2.8 2.1 3.5 3.7 0.7 1.6 0.6 3.4 0 4.9z"/>
				<path id="&lt;Path&gt;" class="s23" d="m258.7 325.8c-0.5 1.4-1.9 2.7-3.3 3.3-1.4 0.6-3.1 0.5-4.5-0.1-3.2-1.2-4.4-4.8-3.3-7.8 0.5-1.5 2-2.8 3.4-3.3 1.4-0.6 3.1-0.5 4.5 0 3.1 1.2 4.3 4.9 3.2 7.9z"/>
				<path id="&lt;Path&gt;" class="s24" d="m219.6 310.7c-0.5 1.6-2.1 3-3.6 3.6-1.6 0.7-3.5 0.6-5.1 0-1.7-0.7-2.9-2.1-3.6-3.7-0.7-1.6-0.5-3.4 0.1-5 0.5-1.6 2.1-3 3.6-3.7 1.6-0.6 3.5-0.5 5.1 0.1 1.7 0.6 2.9 2.1 3.6 3.7 0.7 1.6 0.5 3.4-0.1 5z"/>
				<path id="&lt;Path&gt;" class="s25" d="m201.4 275.5c-0.6 1.5-2 2.8-3.5 3.4-1.4 0.6-3.1 0.5-4.6-0.1-3.2-1.2-4.4-5-3.3-8 0.5-1.5 2-2.8 3.4-3.4 1.5-0.6 3.2-0.5 4.6 0.1 3.3 1.2 4.5 4.9 3.4 8z"/>
			</g>
			<path id="&lt;Path&gt;" class="s26" d="m104.7 284q0 0 0 0"/>
			<path id="&lt;Path&gt;" class="s27" d="m339.8 410c-1.7-0.1-3.1-1.4-4.5-2.3-1.8-1.2-3.6-2.4-5.2-3.7-0.4-0.4 0-1.3 0.6-1q0.5 0.2 1 0.5 0.2 0.1 0.4 0.1 0.1 0.1 0.2 0.2 1.8 0.9 3.5 1.9c1.5 0.9 3.6 1.8 4.6 3.4 0.2 0.4-0.1 1-0.6 0.9z"/>
		</g>
		<g id="&lt;Group&gt;">
			<path id="&lt;Path&gt;" class="s28" d="m223.6 409l-0.2-5.2"/>
			<g id="&lt;Group&gt;">
				<g id="&lt;Group&gt;">
					<path id="&lt;Path&gt;" class="s29" d="m185.1 299.4q-12.9-7.5-16.1-20-3.2-12.5 9.2-10.3"/>
					<path id="&lt;Path&gt;" class="s30" d="m178.2 269.1c-1.9 0.2-3.7 0.6-5.1 1.4-1.5 0.7-2.3 1.8-2.5 3.1-0.5 2.6 0.7 6 2 9 1.4 3 3.3 5.8 5.5 8.6 2.1 2.8 4.5 5.4 7 8.2-3.6-1-6.9-3.1-9.8-5.6-2.9-2.5-5.3-5.7-6.9-9.3q-1.2-2.7-1.7-5.7c-0.3-2-0.4-4.2 0.5-6.4 0.5-1.1 1.3-2.1 2.2-2.8 1-0.7 2-1 3-1.2 1.1-0.2 2.1-0.2 3 0q1.5 0.2 2.8 0.7z"/>
				</g>
				<g id="&lt;Group&gt;">
					<path id="&lt;Path&gt;" class="s31" d="m173.8 270.1c-1.1 0.6-1.9 1.5-2.2 2.5-0.1 0.3-0.2 0.5-0.3 0.8v0.7 0.9c0 0.2 0 0.5 0.1 0.8 0.4 2.1 1.4 4.2 2.6 6.3 0.2 0.5 0.5 1.1 0.8 1.6l0.9 1.5q0.5 0.8 0.9 1.6 0.5 0.7 1 1.5c1.2 2.1 2.6 4.2 3.8 6.4-2-1.5-3.9-3.1-5.6-5.1q-1.2-1.4-2.3-2.9l-1.1-1.6c-0.3-0.5-0.6-1.1-0.9-1.7-1.3-2.2-2.2-4.7-2.3-7.5 0-0.3 0-0.7 0.1-1 0-0.4 0.1-0.7 0.1-1.1l0.4-1c0.1-0.3 0.4-0.6 0.6-0.9 0.9-1.1 2.2-1.8 3.4-1.8z"/>
				</g>
			</g>
			<g id="&lt;Group&gt;">
				<g id="&lt;Group&gt;">
					<path id="&lt;Path&gt;" class="s29" d="m319.3 270q14.8-3.1 11.6 9.4-3.2 12.5-16.1 20"/>
					<path id="&lt;Path&gt;" class="s30" d="m319.3 270c1.8-0.8 3.7-1.2 5.7-1.3q1.6 0 3.2 0.4c1.1 0.3 2.2 0.9 3.1 1.8 0.9 0.9 1.5 2.1 1.8 3.2 0.3 1.2 0.3 2.4 0.3 3.5-0.2 2.2-0.7 4.2-1.5 6.1-1.6 3.8-4 7.2-7 9.8q-2.2 2-4.7 3.5c-1.7 1-3.5 1.9-5.4 2.4 2.6-2.9 5.1-5.6 7.3-8.5 2.2-2.9 4.1-5.8 5.5-9 1.3-3.1 2.5-6.7 1.1-8.8-0.7-1-2.2-1.9-3.9-2.3-1.7-0.5-3.6-0.7-5.5-0.8z"/>
				</g>
				<g id="&lt;Group&gt;">
					<path id="&lt;Path&gt;" class="s32" d="m323.4 271c1.3-0.3 2.7-0.3 4 0.2 0.7 0.3 1.3 0.7 1.8 1.3 0.6 0.5 0.9 1.2 1.1 2 0.5 1.5 0.3 2.9 0.1 4.3-0.3 1.3-0.8 2.6-1.4 3.8-1.1 2.3-2.6 4.5-4.2 6.4q-2.5 3-5.5 5.3c1.1-2.3 2.4-4.4 3.7-6.6 1.2-2.1 2.4-4.2 3.5-6.4 1-2.1 1.9-4.3 1.7-6.3-0.1-1-0.5-1.9-1.5-2.6-0.8-0.7-2-1.1-3.3-1.4z"/>
				</g>
			</g>
			<g id="&lt;Group&gt;">
				<path id="&lt;Path&gt;" class="s33" d="m283.8 334.7q2.6-0.1 3.6 3l11.1 48.9q0 0 1.5 1.5c1.5 1.5 7.5 9.8 9.9 12.4 2.3 2.6 13.4 7.9 16.4 25.7 3 17.9-15.7 22.1-20 23.4-4.2 1.2-26.2 3.1-31.8 2.4-5.6-0.7-13.3-1.6-16.8-1.8-16-0.7-39.9 7.8-54.8 4.3-7.7-1.8-20.7-5.1-17-26.9q3.7-21.8 17.3-38.1l13.7-18.6q33.3-3.7 62.5-42 5.5 1.5 4.4 5.8z"/>
				<path id="&lt;Compound Path&gt;" fill-rule="evenodd" class="s34" d="m279.3 328.6q0.4 0 0.7 0.1l0.5 0.2q0.5 0.1 1 0.3c0.7 0.4 1.3 0.8 1.8 1.3 0.5 0.6 0.9 1.3 1.1 2q0.2 0.7 0.3 1.4 0.3 0 0.7 0.2 0.7 0.3 1.3 0.8 0.6 0.5 1 1.1c0.3 0.4 0.5 0.8 0.7 1.4l3.3 12.2 3.3 12.1q3.1 11.7 6 23.4l1.2 1.1c0.7 0.7 1.1 1.3 1.6 1.9l2.9 3.6 2.9 3.5 1.4 1.7 0.7 0.8 0.3 0.4c0.1 0.1 0.3 0.3 0.3 0.3 0.1 0.1 0.3 0.3 0.6 0.5l0.8 0.6 1.9 1.4c1.2 1.1 2.4 2.1 3.6 3.3 2.3 2.4 4.4 5 6 8 1.6 2.9 2.8 6 3.7 9.1 0.4 1.6 0.7 3.2 1 4.8 0.2 1.7 0.3 3.5 0.2 5.3-0.2 3.6-1.4 7.3-3.6 10.2-2.1 3-5 5.2-7.9 6.9-3 1.6-6.1 2.7-9.1 3.6l-2.2 0.6-1.4 0.3-1.2 0.2q-2.4 0.4-4.7 0.6c-6.1 0.7-12.1 1.1-18.3 1.2q-2.3 0.1-4.7 0c-0.8 0-1.6 0-2.5-0.1-0.8-0.1-1.5-0.2-2.3-0.3l-8.9-1.3q-2.2-0.3-4.4-0.5c-1.4-0.1-2.8-0.2-4.3-0.2-2.9 0-5.8 0.1-8.8 0.4-5.9 0.6-11.9 1.5-17.9 2.2-3 0.4-6.1 0.7-9.1 1-3.1 0.2-6.1 0.3-9.2 0.2-1.6-0.1-3.1-0.2-4.6-0.5-0.8-0.1-1.6-0.3-2.3-0.4l-2.3-0.6c-2.9-0.8-5.9-1.8-8.6-3.6-2.6-1.8-4.8-4.4-6-7.4-1.3-3-1.8-6.2-1.8-9.3-0.1-3.1 0.2-6.2 0.7-9.3q0.8-4.5 2.1-9c1.7-6 4-11.7 6.9-17.2q2.2-4.1 4.8-8 0.7-1 1.3-1.9l0.8-1 0.3-0.5 0.3-0.4 2.7-3.6c3.5-4.9 7.1-9.7 10.7-14.5l0.8-1.1 1.2-0.1q4.5-0.5 8.9-1.8 4.5-1.2 8.7-3.1c2.9-1.2 5.6-2.7 8.4-4.2q4-2.3 7.9-5 3.9-2.7 7.7-5.7c2.5-1.9 4.9-4 7.3-6.1 2.4-2.1 4.7-4.3 7-6.5q1.7-1.7 3.4-3.4l1.6-1.7 0.9-0.9 0.4-0.5 0.2-0.2 0.1-0.1v-0.1c0.1 0 0.2-0.1 0.2-0.1zm5.4 5.3q-0.5-0.1-0.9 0l0.8 1q0.1-0.5 0.1-1zm16.3 51.2l-0.5-0.5 0.8 1.4q-0.2-0.4-0.3-0.9zm-21.4-55.8v-0.1l0.1-0.1c0 0.1-0.1 0.1-0.2 0.1q0.1 0 0.1 0.1zm0.1-0.2q0 0 0 0zm-0.2 0.3l-0.2 0.2-0.3 0.5-0.7 1-1.4 1.9q-1.5 2-3 3.9c-2.1 2.5-4.2 4.9-6.4 7.3-2.2 2.3-4.6 4.6-7 6.8q-3.5 3.3-7.4 6.3-3.9 3.1-8 5.7-4.2 2.7-8.7 4.9c-3 1.4-6.1 2.7-9.3 3.7q-4.2 1.3-8.6 1.9c-3.3 4.6-6.6 9.2-10 13.7l-2.7 3.7-0.4 0.5-0.3 0.4-0.7 0.8q-0.7 0.8-1.3 1.7c-1.7 2.4-3.4 4.8-4.9 7.3-3 5.1-5.7 10.4-7.8 15.9-2 5.5-3.6 11.3-3.8 17.1-0.1 2.9 0.2 5.8 1.2 8.5 1 2.6 2.9 4.9 5.2 6.5q1.7 1.2 3.8 2c1.3 0.6 2.7 1 4.1 1.4l2.2 0.5c0.7 0.1 1.4 0.3 2.2 0.4q2.1 0.3 4.4 0.3c5.9 0.1 11.8-0.8 17.7-1.9 5.9-1.1 11.8-2.5 17.9-3.4 3-0.5 6.1-0.9 9.2-1.1 1.6-0.1 3.2-0.1 4.8 0q2.3 0.1 4.6 0.3 4.5 0.4 9 0.9c0.7 0.1 1.6 0.2 2.2 0.2 0.6 0.1 1.3 0.1 2 0.1q2.2 0 4.4-0.2c5.9-0.3 11.9-0.9 17.8-1.6q2.2-0.3 4.3-0.7l1-0.2 0.8-0.2 2.2-0.7c2.7-0.8 5.3-1.8 7.6-3.2 2.3-1.3 4.2-3 5.6-4.9 1.4-2 2.2-4.2 2.3-6.7 0.1-1.2 0-2.4-0.2-3.7-0.2-1.3-0.5-2.8-0.9-4.1q-1-4-2.9-7.6-1.9-3.6-4.7-6.6-1.4-1.5-3-2.9l-1.7-1.4-0.9-0.8c-0.4-0.3-0.7-0.5-1.1-1-0.3-0.2-0.3-0.4-0.5-0.5l-0.4-0.5-0.7-0.9-1.4-1.9-2.8-3.6-2.6-3.6c-0.5-0.6-1-1.2-1.3-1.6l-1.5-1.6-0.6-0.6-0.2-0.7c-1.6-8.3-3.3-16.5-4.8-24.7l-2.3-12.3-2.3-12.4c0-0.2-0.2-0.6-0.3-0.8q-0.3-0.5-0.6-0.9-0.3-0.3-0.7-0.5c-0.3-0.2-0.6-0.2-0.9-0.2l-1-0.2 0.2-0.8c0.2-0.5 0.2-1.1 0.1-1.7q-0.2-0.8-0.7-1.5-0.5-0.8-1.3-1.3-0.4-0.2-0.9-0.4l-0.4-0.2q-0.1-0.1-0.2-0.1zm-61 44.1q0.3-0.4 0.7-0.9l-2 1.1q0.6-0.1 1.3-0.2zm67.8-35.6q0 0 0 0.1v-0.1zm0 0.1q0 0 0 0z"/>
			</g>
			<path id="&lt;Path&gt;" class="s35" d="m202.3 395q-5.9 50.4 93.2 53.8-39.1-2.3-51.9-0.2c-13.4 2.1-40.4 13.3-54.1-1.9q-11.6-12.8 12.8-51.7z"/>
			<path id="&lt;Path&gt;" class="s36" d="m207.6 393.1q-50.2 62.1 11.3 56.9-30.2-15.6-11.3-56.9z"/>
			<path id="&lt;Path&gt;" class="s37" d="m311.3 404.5q29 29.3-2 40.9-52.2 19.4-85.7-15.4 53.3 4.1 78.9-34.3z"/>
			<path id="&lt;Path&gt;" class="s38" d="m319.3 436.9q-15.8 16.8-42.3 8.9 45-1.8 33.8-38.3c14.1 13.8 13.3 24.2 8.5 29.4z"/>
			<path id="&lt;Path&gt;" class="s36" d="m226.7 398.1l-2.8-10.8q33.2-14 62.2-50.6-15 36.1-59.4 61.4z"/>
			<path id="&lt;Path&gt;" class="s36" d="m219.6 373q30.1-7.2 54.5-36.2-22.1 36.2-55.9 39.2z"/>
			<g id="&lt;Group&gt;">
				<path id="&lt;Path&gt;" class="s34" d="m286.1 335.9c-0.3 0.7-0.6 1.2-1 1.8-0.3 0.6-0.7 1.2-1 1.8-0.7 1.1-1.4 2.2-2.2 3.2-1.5 2.2-3.2 4.2-4.8 6.2-3.4 4-7.1 7.6-11 11.1l-2.9 2.5c-0.9 0.9-2 1.7-3 2.5-2 1.6-4.1 3.1-6.1 4.6-2.1 1.5-4.3 2.9-6.4 4.4l-6.5 4 6.2-4.5c2-1.6 4-3.2 6-4.8 1.9-1.7 3.8-3.3 5.7-5.1 0.9-0.8 1.8-1.7 2.7-2.6l2.7-2.7c3.5-3.7 6.8-7.5 9.8-11.6 1.5-2 2.9-4.1 4.2-6.2 0.6-1.1 1.2-2.2 1.8-3.2 0.3-0.6 0.6-1.1 0.8-1.7 0.2-0.5 0.5-1.1 0.7-1.6 0.5-1.2 1.8-1.8 3-1.4 1.2 0.5 1.9 1.9 1.4 3.1q0 0.1-0.1 0.2z"/>
			</g>
			<path id="&lt;Path&gt;" class="s29" d="m275 333q-26.2 30.4-55.5 35.8l-1.8 10.3-7.4 5.1 6.5-50.5 2.8-2.6z"/>
			<g id="&lt;Group&gt;">
				<path id="&lt;Path&gt;" class="s39" d="m251.2 150.9c84.2 0 86.9 74 75.4 104-3.7 9.7-6.9 12.4-8.2 40.8q-1.3 27.3-22.5 31.6-43.8 11.1-79.5 2.4c-29.8-7.2-34.9-35.6-35.4-44.4-0.6-8.8-6.5-24.5-8.5-32.6-19-76.3 46.5-101.8 78.7-101.8z"/>
				<path id="&lt;Compound Path&gt;" fill-rule="evenodd" class="s30" d="m172.2 252.7q-2.2-8.5-3.2-17.3-0.5-4.4-0.6-8.8c0-3 0.1-6 0.3-8.9 0.5-5.9 1.6-11.9 3.5-17.6 1.8-5.7 4.5-11.1 7.8-16.2 6.7-10.1 16.2-18.4 26.7-24.3 5.3-3 10.9-5.4 16.7-7.3 5.7-1.9 11.7-3.3 17.7-4.2 3-0.4 6.1-0.6 9.2-0.7 1.5 0 3 0.1 4.5 0.1q2.3 0 4.5 0.2c6 0.3 12.1 1.1 18 2.5 3 0.7 5.9 1.6 8.8 2.6q4.3 1.5 8.5 3.4c5.5 2.7 10.7 6.1 15.3 10.1 4.7 4.1 8.7 8.8 12 14 3.3 5.1 5.9 10.7 7.7 16.5 1.9 5.8 3 11.8 3.5 17.8 0.6 6 0.6 12 0 17.9-0.6 6-1.7 11.9-3.4 17.6-0.9 2.9-2 5.7-3.2 8.4-1.2 2.7-2.4 5.3-3.3 8-0.8 2.8-1.5 5.6-1.9 8.4q-0.7 4.3-1.1 8.7-0.5 4.4-0.6 8.7c-0.2 2.9-0.3 5.9-0.7 8.9-0.9 5.9-3 11.9-6.7 16.7-3.7 5-8.8 8.8-14.8 10.8-0.3 0.1-0.8 0.3-1.1 0.4l-1.1 0.2-2.2 0.6q-2.1 0.5-4.3 1-4.3 1-8.7 1.8-8.7 1.6-17.6 2.4c-11.8 1.1-23.9 1.2-35.8-0.5-2.9-0.5-5.9-1-8.8-1.7-2.9-0.6-6-1.6-8.8-2.8-5.8-2.3-11-5.9-15.2-10.4-4.2-4.5-7.4-9.8-9.6-15.4q-1.6-4.3-2.6-8.6-1-4.4-1.3-8.9c-0.1-1.5-0.2-2.9-0.4-4.3-0.1-1.5-0.4-2.9-0.7-4.3-0.6-2.9-1.3-5.7-2.1-8.5-0.8-2.9-1.7-5.7-2.5-8.5-0.8-2.8-1.7-5.6-2.4-8.5zm0.6-0.1c1.5 5.6 3.4 11.2 5.2 16.8 0.8 2.8 1.7 5.6 2.4 8.5q0.5 2.1 0.9 4.3c0.3 1.5 0.5 3 0.6 4.4 0.8 5.8 2.5 11.4 5 16.5 2.4 5.1 5.8 9.8 9.9 13.6 4 3.8 8.9 6.7 14.1 8.6 2.6 0.9 5.2 1.6 8.1 2.1 2.8 0.6 5.6 1.1 8.4 1.4 11.4 1.5 23 1.6 34.6 0.9q8.6-0.5 17.3-1.6 4.3-0.5 8.6-1.2 2.2-0.4 4.3-0.8l2.1-0.4 1.1-0.2c0.4-0.1 0.7-0.2 1-0.2 5.2-1.5 10.1-4.7 13.7-9 3.6-4.3 5.8-9.8 6.7-15.4 0.5-2.8 0.6-5.7 0.7-8.7q0.2-2.2 0.3-4.4 0.2-2.2 0.4-4.4 0.3-4.4 1-8.8c0.5-2.9 1-5.9 1.9-8.7 0.8-2.9 2-5.7 3.1-8.4 1.1-2.7 2-5.4 2.7-8.2 1.5-5.5 2.3-11.3 2.6-17 0.5-11.5-1.1-23.1-4.9-33.8-1.9-5.3-4.4-10.4-7.5-15-3.2-4.7-6.9-8.9-11.2-12.5-8.5-7.2-19.1-11.8-30.1-14.1q-4.2-0.9-8.4-1.4c-2.8-0.4-5.6-0.6-8.5-0.8q-2.1-0.1-4.3-0.2c-1.4 0-2.8-0.1-4.2 0-2.8 0-5.6 0.2-8.4 0.6-11.2 1.4-22.2 4.9-32.2 10.1-5.1 2.6-9.8 5.7-14.3 9.2-4.4 3.6-8.4 7.6-11.9 12.1-7 8.9-11.5 19.9-13.1 31.4q-0.6 4.3-0.7 8.7-0.1 4.3 0.2 8.7c0.4 5.8 1.5 11.6 2.8 17.3z"/>
			</g>
			<g id="&lt;Group&gt;">
				<path id="&lt;Path&gt;" class="s34" d="m219.6 426.3c5.3 3.9 10.9 6.9 16.7 8.8 5.9 1.9 11.9 2.5 17.9 2 3-0.3 6-1 8.9-1.8 1.5-0.4 3-0.8 4.4-1.4 0.7-0.3 1.5-0.5 2.2-0.8l2.1-1c5.8-2.4 11.3-5.7 16.9-9.1-4.1 5.2-9 9.6-14.8 13.1l-2.2 1.3c-0.7 0.4-1.5 0.7-2.2 1.1-1.5 0.8-3.1 1.4-4.7 2-3.2 1.1-6.6 1.9-10 2.2-6.9 0.7-14-0.5-20.1-3.5-3.1-1.5-6-3.3-8.5-5.5-2.5-2.2-4.9-4.6-6.6-7.4z"/>
			</g>
			<path id="&lt;Path&gt;" class="s32" d="m254.6 153.4q112.5 10.5 68.4 107.1 2-24.2-16.2-36.2c-14.8-9.9-24.6-1-32.2 5.6-3.4 3-10.6 11.7-22.6 11.7-11.9 0-20.5-8.6-24.1-12.1-6.2-5.9-17.9-16-33.1-8.5q-16.4 8.1-17.4 46.3c-31.7-87.9 43-117.1 77.2-113.9z"/>
			<g id="&lt;Group&gt;">
				<path id="&lt;Path&gt;" class="s40" d="m199.1 284.4q0.9-0.7 2-1.3c0.7-0.4 1.4-0.8 2.2-1.1q0.6-0.2 1.3-0.3 0.3 0 0.5 0c0.1 0 0.4 0.1 0.7 0.1q0.1 0.1 0.3 0.2l0.2 0.1 0.3 0.1 2 1.2c2.4 1.3 4.8 2.1 7.3 2.6 2.5 0.5 5.2 0.6 8 0.6 2.8 0.1 5.7-0.1 9 0-2.5 2.1-5.3 3.6-8.4 4.4-3 0.9-6.4 1.2-9.7 0.5-3.3-0.6-6.5-2.3-8.8-4.6-0.6-0.6-1.2-1.2-1.5-1.7l-0.1-0.1c0 0-0.1-0.1-0.1-0.1q0.1 0 0.1 0.1c0.1 0 0.2-0.1 0.2-0.1q-0.1 0-0.1-0.1-0.4-0.1-0.9-0.1c-1.3-0.2-2.9-0.2-4.5-0.4z"/>
			</g>
			<g id="&lt;Group&gt;">
				<path id="&lt;Path&gt;" class="s40" d="m220 257.5l-4.8 1.5q-2.3 0.7-4.3 1.5c-1.4 0.6-2.8 1.2-4.1 2-1.5 0.7-2.8 1.6-4.5 2.4 0.5-1.8 1.3-3.4 2.6-4.8 1.3-1.3 2.8-2.4 4.6-3.1 1.7-0.7 3.5-1 5.3-1 1.8 0.1 3.7 0.5 5.2 1.5z"/>
			</g>
			<g id="&lt;Group&gt;">
				<path id="&lt;Path&gt;" class="s40" d="m282.8 258.7c1.5-1 3.4-1.4 5.2-1.4 1.8-0.1 3.6 0.3 5.3 1 1.8 0.7 3.3 1.7 4.6 3.1 1.2 1.3 2.1 3 2.5 4.7-1.6-0.8-2.9-1.7-4.4-2.4-1.3-0.8-2.7-1.4-4.1-1.9q-2.1-0.9-4.3-1.6z"/>
			</g>
			<g id="&lt;Group&gt;">
				<path id="&lt;Path&gt;" class="s40" d="m238.7 310.4c2.1 0.7 4 1.3 5.9 1.7q2.8 0.7 5.6 0.8c1.8 0 3.6-0.1 5.5-0.6 0.9-0.1 1.8-0.5 2.8-0.7 1-0.3 2-0.7 3.1-1q-0.5 0.7-1 1.3c-0.4 0.5-0.7 0.9-1.1 1.3-0.9 0.6-1.8 1.4-2.8 1.9-2 1.1-4.3 1.6-6.6 1.5-2.3 0-4.6-0.6-6.6-1.7-1.9-1.1-3.7-2.6-4.8-4.5z"/>
			</g>
			<g id="&lt;Group&gt;">
				<path id="&lt;Path&gt;" class="s40" d="m302.8 284.4c-1.6 0.2-3.2 0.2-4.5 0.4q-0.5 0-0.9 0.1 0 0.1-0.1 0.1c0 0 0.1 0.1 0.2 0.1q0-0.1 0.1-0.1c0 0 0 0.1-0.1 0.1l-0.1 0.1c-0.3 0.5-0.9 1.1-1.5 1.7-2.3 2.3-5.5 4-8.8 4.6-3.3 0.7-6.7 0.4-9.7-0.5-3.1-0.8-5.9-2.3-8.3-4.4 3.2-0.1 6.1 0.1 8.9 0 2.8 0 5.5-0.1 8-0.6 2.5-0.5 4.9-1.3 7.3-2.6l2-1.2 0.3-0.1 0.2-0.1q0.2-0.1 0.4-0.2c0.2 0 0.5-0.1 0.6-0.1q0.3 0 0.5 0 0.8 0.1 1.3 0.3c0.8 0.3 1.6 0.7 2.2 1.1q1.1 0.6 2 1.3z"/>
			</g>
			<path id="&lt;Path&gt;" class="s32" d="m222.1 364.6q24.6-9.3 51.2-31l1.7-0.6q-26.2 30.6-54.5 35.6v-2.1z"/>
			<g id="&lt;Group&gt;">
				<circle id="&lt;Path&gt;" class="s40" cx="250.4" cy="260.3" r="4.7"/>
			</g>
			<g id="&lt;Group&gt;">
				<path id="&lt;Path&gt;" class="s40" d="m240.3 295.8c0 0.5 0.2 1 0.4 1.3 0.2 0.3 0.5 0.5 0.8 0.5 0.5 0 1.3-0.2 2-0.5l0.6-0.2 0.8 0.7c0.8 0.7 1.8 1.4 2.8 1.9q1.4 0.9 2.8 1c0.9 0 1.8-0.1 2.8-0.5 0.9-0.5 1.9-1.1 2.9-1.9l0.5-0.4h0.2c0.3 0 0.7 0.1 0.9 0q0.5 0 0.8-0.2c0.2-0.1 0.4-0.3 0.4-0.6 0.1-0.3 0-0.7-0.1-1.1 0.3 0.3 0.6 0.6 0.7 1 0.2 0.4 0.2 1-0.1 1.5-0.3 0.5-0.8 0.7-1.2 1-0.4 0.2-0.8 0.3-1.3 0.4l0.8-0.4c-0.7 1.3-1.6 2.5-2.9 3.4-1.2 1-2.9 1.6-4.6 1.5-1.8-0.1-3.3-0.8-4.6-1.6-1.2-1-2.2-2-3-3.3l1.4 0.5q-0.8 0.1-1.7-0.1c-0.5 0-1.2-0.2-1.7-0.6-0.6-0.5-1-1.2-0.9-1.8 0-0.6 0.2-1.1 0.5-1.5z"/>
			</g>
			<g id="&lt;Group&gt;">
				<path id="&lt;Path&gt;" class="s34" d="m315.7 420.9c2.1 3.3 2.6 7.7 1.3 11.7-1.3 4-4.5 7.3-8 9.2-3.5 2.1-7.4 3.2-11.2 3.9-3.9 0.6-7.7 0.7-11.6 0.3 3.7-1.2 7.4-2.1 10.9-3.2 3.5-1.1 7-2.4 10-4.2 3-1.7 5.7-4.1 7.2-7.1 1.5-3 2-6.8 1.4-10.6z"/>
			</g>
			<g id="&lt;Group&gt;">
				<path id="&lt;Path&gt;" class="s34" d="m203.4 401.6c-1.6 4.7-3 9.4-3.8 14.2-0.8 4.7-1 9.5-0.1 14 0.8 4.6 3 8.7 6.2 12.1 3.3 3.3 7.5 5.9 12 8.1-4.9-0.7-9.8-2.7-13.9-6-4.1-3.3-7.1-8.2-8-13.4-1-5.3-0.5-10.6 1-15.5 1.4-4.9 3.6-9.5 6.6-13.5z"/>
			</g>
			<g id="&lt;Group&gt;">
				<path id="&lt;Path&gt;" class="s34" d="m240.6 423.7q3.6 2.5 7.4 3.6c2.6 0.7 5.1 0.9 7.7 0.7l1.9-0.3c0.7-0.1 1.3-0.3 2-0.5l0.9-0.2 1-0.3q0.9-0.4 1.9-0.7c1.3-0.5 2.6-1 3.9-1.5 1.3-0.6 2.6-1.3 4-1.8-0.9 1.2-1.9 2.2-3 3.3q-1.7 1.4-3.6 2.7-1 0.5-2 1.1l-1 0.5-1.1 0.3q-1.1 0.4-2.2 0.7l-2.3 0.4c-3.1 0.3-6.4-0.2-9.2-1.7-2.7-1.4-5.1-3.6-6.3-6.3z"/>
			</g>
			<g id="&lt;Group&gt;">
				<path id="&lt;Path&gt;" class="s31" d="m249 329.9c-8.5 0.9-17.3 0.8-25.8-1-8.5-1.7-16.8-5.3-23.7-11-6.8-5.7-12-13.4-15-21.8-0.8-2.1-1.4-4.2-1.9-6.4-0.2-1.1-0.4-2.3-0.6-3.3q-0.2-1.6-0.5-3.1c-0.7-4.2-1.6-8.3-2.6-12.4l0.2 0.4c-1.2-2.5-2.1-4.9-3-7.4q-1.3-3.8-2.3-7.6c-1.4-5.1-2.5-10.3-3.1-15.6-1.3-10.5-1.1-21.3 1.4-31.6 1.3-5.2 3.1-10.2 5.5-14.9 2.4-4.8 5.4-9.2 8.8-13.2 6.8-8.1 15.4-14.4 24.7-19-8.7 5.6-16.8 12.3-22.9 20.4-6.2 8.2-10.4 17.6-12.4 27.5-2.1 9.9-2.1 20.2-0.7 30.2 0.7 5.1 1.8 10.1 3.1 15 1.4 4.8 3.1 9.7 5.1 14.2l0.1 0.3 0.1 0.2c1 4.2 1.8 8.4 2.5 12.7q0.3 1.6 0.5 3.3c0.2 1.1 0.3 2 0.5 3q0.6 3 1.6 5.9c2.6 7.8 7.2 14.9 13.3 20.4 6.1 5.6 13.7 9.4 21.8 11.7 8.2 2.3 16.7 3 25.3 3.1z"/>
			</g>
			<path id="&lt;Path&gt;" class="s41" d="m280.1 366.6q3.9-0.7 25.7 23 0.1 10-3.1 28.2-3.3 18.2-9 9.6-6.1 13.1-9.1-4.2 7.5-9.5 0 0-7.5 9.5-6.4-4.9-12.8 6-7-11.5 10.3-19.2 7.6-48.4"/>
			<g id="&lt;Group&gt;">
				<path id="&lt;Path&gt;" class="s29" d="m320 270.1c-0.3 3.2-0.8 6.2-1.1 9.3-0.5 3.1-0.9 6.2-1.1 9.1q-0.1 1.2-0.1 2.2c0 0.3 0 0.7 0 0.9l0.1 0.6q0 0.4 0 0.7c0.1 1.7 0 3.3-0.1 5-0.4 3.2-1.2 6.4-2.4 9.5-1.2 3.1-2.9 6-4.9 8.6-2.1 2.6-4.6 4.9-7.4 6.6-5.6 3.5-12.2 4.9-18.4 4.6 6-1.6 11.7-3.9 16.3-7.6 2.3-1.8 4.3-3.9 6-6.3 1.6-2.3 3-4.9 4-7.6 1.1-2.7 1.8-5.5 2.3-8.4 0.2-1.5 0.4-2.9 0.4-4.3q0-0.3 0-0.5v-0.6c0-0.5 0-1 0.1-1.4 0.1-0.9 0.2-1.7 0.4-2.5 0.6-3.1 1.5-6.1 2.5-9.1 1-3 2.1-5.9 3.4-8.8z"/>
			</g>
			<g id="&lt;Group&gt;">
				<g id="&lt;Group&gt;">
					<g id="&lt;Group&gt;">
						<path id="&lt;Path&gt;" class="s29" d="m289.7 342q16.2 22.8 10.6 65.6c-4.2 32.1-6.2 16.9-6.7 11.1q-0.1-0.9 0 0-6.9 27-6.9-2.7-9 21.3-6.7-2 0-3.3 0.5-5.9-2 5.9-4 7.4c-1.6 1.2-4.4 1.5 1-14.4q7.9-23.5 2.5-44"/>
						<path id="&lt;Path&gt;" class="s30" d="m289.9 341.9c4.8 6.7 7.7 14.6 9.9 22.6 2.1 8 3.1 16.3 3.2 24.6 0.2 8.2-0.6 16.6-2 24.7q-0.5 3-1.1 6.1c-0.4 2-0.8 4-1.6 6.1-0.2 0.6-0.4 1.1-0.8 1.7-0.1 0.2-0.2 0.4-0.5 0.6-0.2 0.2-0.6 0.5-1.2 0.5q-0.5 0-0.8-0.2c-0.2-0.1-0.4-0.2-0.5-0.3-0.3-0.3-0.4-0.5-0.5-0.6-0.4-0.7-0.5-1.3-0.7-1.8q-0.2-0.8-0.3-1.6-0.3-1.6-0.5-3.2l-0.1-1.5-0.1-0.8v-0.4c-2.2 0.2 3-0.3 2.4-0.2v0.1 0.1 0.1 0.3 0.2c-0.6 2.2-1.3 4.3-2.2 6.5-0.4 1-0.8 2.1-1.4 3.2-0.3 0.5-0.6 1-1.2 1.5-0.2 0.2-0.3 0.3-0.6 0.4-0.2 0.1-0.6 0.2-0.9 0.1-0.7-0.2-0.9-0.6-1.1-0.9-0.6-1.3-0.7-2.4-0.8-3.6q-0.2-1.7-0.3-3.4-0.1-3.4 0-6.8l0.9 0.2q-1.1 2.6-2.5 5c-0.4 0.8-0.9 1.6-1.5 2.4-0.2 0.4-0.5 0.8-0.9 1.2q-0.3 0.2-0.7 0.4c-0.3 0.2-0.7 0.3-1.1 0.1-0.7-0.4-0.8-1-1-1.5q-0.1-0.7-0.2-1.4-0.2-1.5-0.1-2.9 0-2.8 0.2-5.6v0.1c-0.1-2 0-4 0.3-6.1l1.7 0.5c-0.4 1.5-0.9 2.8-1.6 4.2q-0.5 1.1-1.1 2.1c-0.4 0.6-0.9 1.4-1.8 1.9-0.4 0.3-0.9 0.6-1.8 0.6-0.4-0.1-0.9-0.4-1.2-0.7-0.3-0.3-0.4-0.6-0.5-0.9-0.3-1.1-0.2-1.9-0.2-2.7 0.1-1.6 0.4-3 0.8-4.5 0.7-2.9 1.6-5.7 2.5-8.5 1-2.7 1.7-5.5 2.4-8.3 1.2-5.6 1.9-11.3 2.1-17.1 0.2-5.8-0.1-11.6-1.1-17.4h0.3c0.9 2.8 1.4 5.7 1.8 8.6q0.7 4.4 0.8 8.8c0.1 5.9-0.4 11.8-1.5 17.6-0.6 3-1.3 5.8-2.2 8.7-0.9 2.8-1.8 5.5-2.5 8.3-0.4 1.3-0.7 2.7-0.9 4.1 0 0.6 0 1.3 0.1 1.6 0 0.1 0 0.1 0 0.1-0.1 0-0.2-0.1-0.3-0.1-0.2 0 0 0 0.2-0.1 0.4-0.3 0.8-0.7 1.2-1.3q0.6-0.8 1.1-1.7c0.6-1.2 1.2-2.6 1.7-3.9l1.8 0.5c-0.4 1.8-0.6 3.8-0.7 5.7-0.2 1.9-0.5 3.7-0.5 5.5q-0.1 1.4 0 2.8 0.1 0.6 0.2 1.3c0.1 0.4 0.3 0.8 0.4 0.8 0.1 0.1 0.4-0.1 0.7-0.3 0.3-0.3 0.6-0.7 0.9-1q0.8-1.1 1.4-2.3 1.4-2.5 2.4-5l0.9-2.1 0.1 2.3c0 2.2 0.1 4.5 0.3 6.7q0.1 1.7 0.3 3.3c0.2 1.1 0.4 2.2 0.9 3 0.1 0.2 0.2 0.2 0 0.1-0.1 0-0.1 0.1 0-0.1 0.3-0.3 0.6-0.7 0.8-1.2 0.4-0.9 0.8-2 1.2-3 0.6-2.1 1.2-4.3 1.7-6.4v0.4l-0.1-0.2v-0.1-0.1c-0.5 0.1 4.6-0.5 2.4-0.2l0.1 0.4 0.1 0.7 0.2 1.5q0.2 1.5 0.5 3 0.2 0.7 0.4 1.3c0.1 0.5 0.3 0.9 0.4 1.1 0 0 0 0.1 0 0-0.1 0-0.3-0.2-0.7-0.2-0.3 0-0.5 0.2-0.5 0.2 0 0 0 0 0-0.1 0.1-0.2 0.3-0.6 0.5-1 0.6-1.8 1-3.8 1.3-5.8q0.5-3 1-6c0.5-4 1.1-8.1 1.4-12.1 0.3-4 0.6-8.1 0.6-12.1 0-8.1-0.7-16.2-2.3-24.2q-1.2-5.9-3.2-11.7c-1.3-3.8-2.9-7.6-4.9-11.2z"/>
					</g>
					<path id="&lt;Path&gt;" class="s30" d="m291.1 423.6l2.7-11.1 0.9 6z"/>
				</g>
				<path id="&lt;Path&gt;" class="s30" d="m281.2 409.1l-1.7-1 2.7-4.6-0.9 5"/>
			</g>
			<path id="&lt;Path&gt;" class="s41" d="m225.7 368.7q-1.4 21 9 40.2 5.7 17.5-7.1 11.5 1.2 14.4-6.3 4.9-7.5-9.5 0 0-3.1 17.3-9.2 4.2-5.1 9.1-8.4-9.1-3.3-18.2-3.8-30.8 22-21.6 25.8-20.9z"/>
			<g id="&lt;Group&gt;">
				<g id="&lt;Group&gt;">
					<g id="&lt;Group&gt;">
						<path id="&lt;Path&gt;" class="s29" d="m225.8 357.1q-8.9 21.3 1.8 44.9c6.9 15.3 2.5 15.6 1 14.4q-2-1.5-4.1-7.3 0.5 2.6 0.5 5.8 2.3 23.4-6.7 2 0 29.8-6.8 2.7 0-0.8 0 0c-0.6 5.8-2.9 21-6.8-11q-6.9-56.3 12.6-75.5"/>
						<path id="&lt;Path&gt;" class="s30" d="m217.4 333.3c-2.8 3.4-4.8 7.6-6.5 11.7-1.6 4.2-2.8 8.6-3.7 13-1.8 8.8-2.5 17.8-2.5 26.8 0.1 9 0.9 17.9 2 26.9q0.4 3.4 0.9 6.7c0.4 2.2 0.7 4.4 1.3 6.5q0.2 0.8 0.5 1.5 0.1 0.3 0.2 0.6 0.1 0.1 0.1 0.1c0 0 0 0-0.2-0.1-0.2-0.1-0.7-0.1-0.8 0.1-0.2 0.1-0.2 0.1-0.2 0.1 0.1-0.1 0.2-0.3 0.3-0.5 0.1-0.4 0.3-0.9 0.4-1.4q0.4-1.6 0.6-3.2l0.3-1.7 0.1-0.8q0-0.2 0.1-0.4v-0.1c4.8 0.5 1.3 0.2 2.4 0.3v0.1l-0.1 0.2v-0.4c0.5 2.2 1.1 4.3 1.8 6.4 0.3 1.1 0.7 2.1 1.1 3.1 0.3 0.4 0.5 0.9 0.8 1.1 0.1 0.2 0.2 0.1 0 0.2-0.2 0 0 0 0.1-0.2 0.4-0.7 0.6-1.9 0.8-2.9q0.2-1.7 0.4-3.4c0.2-2.2 0.2-4.4 0.3-6.7v-2.2l0.9 2q1.1 2.6 2.4 5 0.6 1.2 1.4 2.3c0.3 0.4 0.6 0.7 0.9 1 0.3 0.3 0.6 0.4 0.7 0.3 0.1 0 0.3-0.4 0.4-0.8q0.2-0.6 0.2-1.3 0.1-1.3 0-2.7c0-1.9-0.2-3.7-0.5-5.5v-0.1c-0.1-1.9-0.2-3.9-0.6-5.7l1.7-0.4c0.5 1.3 1.1 2.7 1.8 3.9 0.4 0.7 0.7 1.3 1.1 1.8 0.4 0.5 0.9 1 1.2 1.1 0.1 0.1 0.3 0.1 0.3 0 0 0 0 0 0.1-0.1 0.1-0.3 0.2-0.9 0.2-1.5-0.1-1.3-0.5-2.7-0.9-4.1-0.9-2.8-2.1-5.5-3.2-8.3-1.2-2.8-2.2-5.7-3-8.7-1.4-5.9-1.9-12.1-1.5-18.2q0.3-4.6 1.4-9c0.7-2.9 1.5-5.9 2.8-8.6l0.2 0.1c-1.8 5.7-2.5 11.7-2.7 17.6-0.1 5.9 0.7 11.8 2.2 17.5q1.2 4.3 3 8.3c0.5 1.3 1.2 2.7 1.8 4.2q0.9 2.1 1.5 4.3c0.5 1.5 0.9 3 0.9 4.8 0 0.8 0 1.7-0.5 2.8-0.3 0.5-0.9 1.1-1.7 1.3-0.7 0.1-1.3 0-1.8-0.2q-0.4-0.2-0.8-0.5c-0.1-0.1-0.3-0.3-0.5-0.5q-0.4-0.5-0.8-1c-0.4-0.7-0.8-1.4-1.1-2.1-0.7-1.4-1.2-2.9-1.7-4.3l1.7-0.5c0.3 2 0.4 4 0.4 6v-0.1q0.1 2.8 0.2 5.7 0 1.4-0.2 2.8 0 0.7-0.2 1.4c-0.2 0.5-0.3 1.1-1 1.5-0.4 0.2-0.8 0.1-1.1 0q-0.4-0.2-0.7-0.5c-0.3-0.4-0.6-0.7-0.9-1.1-0.6-0.8-1.1-1.6-1.5-2.4q-1.4-2.5-2.5-5.1l0.9-0.2q0.1 3.4 0 6.8-0.1 1.7-0.2 3.4c-0.2 1.2-0.2 2.3-0.9 3.6-0.1 0.3-0.4 0.8-1.1 1-0.3 0-0.7 0-0.9-0.1-0.3-0.2-0.4-0.3-0.6-0.4-0.5-0.6-0.8-1.1-1.1-1.6-0.6-1.1-1.1-2.1-1.5-3.2-0.9-2.1-1.6-4.3-2.2-6.5v-0.1-0.3-0.2-0.1-0.1c1.1 0.1-2.5-0.2 2.4 0.3q0 0.2 0 0.4l-0.1 0.9-0.2 1.7c-0.1 1.2-0.3 2.3-0.5 3.5-0.2 0.6-0.3 1.2-0.5 1.8-0.2 0.4-0.3 0.7-0.6 1.1-0.1 0.2-0.3 0.4-0.7 0.7-0.2 0.1-0.5 0.2-0.8 0.2-0.3 0.1-0.7 0-0.9-0.1-0.5-0.2-0.6-0.5-0.8-0.7q-0.3-0.3-0.4-0.5-0.3-0.5-0.5-1-0.3-0.9-0.6-1.7c-0.6-2.3-1.1-4.6-1.5-6.8q-0.6-3.4-1-6.8c-0.7-4.5-1.1-9.1-1.5-13.6q-0.5-6.9-0.4-13.8c0.2-9.1 1.1-18.3 3.4-27.2 1.2-4.5 2.7-8.8 4.6-13q1.4-3.1 3.3-6c1.2-2 2.5-3.8 4.2-5.5z"/>
					</g>
					<path id="&lt;Path&gt;" class="s30" d="m210.4 419.4l0.8-5.9 2.7 11z"/>
				</g>
				<path id="&lt;Path&gt;" class="s30" d="m223.7 409.4l-0.8-4.9 2.6 4.6-1.6 1"/>
			</g>
			<path id="&lt;Path&gt;" class="s42" d="m218.2 332.6q26.5 7.6 66-0.7l1.4 1.7q-42 16.9-70.4 1.1z"/>
			<g id="&lt;Group&gt;">
				<path id="&lt;Path&gt;" class="s36" d="m288.4 342.5q-5.7 13-17.5 23.6"/>
				<path id="&lt;Path&gt;" class="s34" d="m290.6 343.4c-1.3 2.4-2.7 4.4-4.2 6.5q-2.2 3.1-4.7 5.9-2.5 2.9-5.2 5.5c-1.8 1.7-3.7 3.3-5.6 4.8 1.6-1.8 3.3-3.6 4.7-5.6q2.3-3 4.2-6.1 1.9-3.1 3.6-6.3c1.1-2.2 2.1-4.5 2.9-6.6 0.4-1.3 1.8-1.9 3-1.5 1.2 0.5 1.9 1.8 1.4 3.1q-0.1 0.1-0.1 0.3z"/>
			</g>
			<g id="&lt;Group&gt;">
				<path id="&lt;Path&gt;" class="s31" d="m217.6 333.8c-1.9 3.4-3.3 7-4.5 10.7-0.7 1.8-1.2 3.6-1.7 5.5-0.5 1.8-1 3.7-1.4 5.6-1.7 7.5-2.6 15.1-3 22.8-0.1 1.9-0.3 3.8-0.3 5.7v5.8l-0.1 2.9 0.1 2.9q0.2 2.9 0.2 5.8c0.1 1.9 0.3 3.8 0.4 5.7l0.4 5.8c0.4 3.9 0.8 7.7 1.1 11.6-0.9-3.8-1.7-7.6-2.5-11.4-0.5-3.8-1.2-7.7-1.6-11.6-0.7-7.7-1.1-15.6-0.5-23.4l0.1-2.9 0.4-2.9 0.3-3q0.1-1.4 0.4-2.9c0.4-1.9 0.7-3.8 1.1-5.7q0.6-2.9 1.4-5.8c0.5-1.8 1.1-3.7 1.7-5.6 0.7-1.8 1.3-3.7 2.2-5.4 1.6-3.6 3.4-7.1 5.8-10.2z"/>
			</g>
			<g id="&lt;Group&gt;">
				<path id="&lt;Path&gt;" class="s43" d="m290.1 343.6c3.4 5.9 5.6 12.4 7.3 18.9 1.7 6.6 2.8 13.4 3.2 20.2 0.3 6.8 0.3 13.7-0.6 20.4-0.3 3.4-1.1 6.7-1.7 10.1l-0.2 1.2-0.3 1.2-0.7 2.5q-0.7 2.4-1.4 4.9 0.3-2.6 0.6-5.1c0.2-1.6 0.6-3.3 0.7-5l0.4-5c0.1-0.8 0.2-1.6 0.3-2.5l0.1-2.5 0.2-5 0.1-5c0-0.8 0-1.7 0-2.5l-0.1-2.5c-0.1-1.7-0.1-3.4-0.2-5l-0.4-5c-0.1-1.7-0.4-3.3-0.5-5-0.2-1.6-0.5-3.3-0.7-4.9-0.3-1.7-0.6-3.3-0.9-5-1.3-6.5-2.9-13.1-5.2-19.4z"/>
			</g>
		</g>
		<g id="&lt;Group&gt;">
			<path id="&lt;Path&gt;" class="s0" d="m333.7 111.3h-177.4v-45.6h177.4z"/>
			<g id="&lt;Group&gt;">
				<text id="mind is
everything
" style="transform: matrix(1,0,0,1,249.716,69.333)" >
					<tspan x="-93.5" y="0" class="t44">mind is
</tspan>
					<tspan x="-132.8" y="53" class="t44">everything
</tspan>
				</text>
				<text id="mind is
everything
" style="transform: matrix(1,0,0,1,249.716,69.333)" >
					<tspan x="-93.5" y="0" class="t45">mind is
</tspan>
					<tspan x="-132.8" y="53" class="t45">everything
</tspan>
				</text>
			</g>
		</g>
	</g>
</svg>