<svg version="1.2" xmlns="http://www.w3.org/2000/svg" viewBox="0 0 600 500" width="600" height="500">
	<title>Wavy_Med-08_Single-09-ai</title>
	<defs>
		<linearGradient id="g1" x1="439.3" y1="219.6" x2="256.8" y2="460.9" gradientUnits="userSpaceOnUse">
			<stop offset="0" stop-color="#ffc444"/>
			<stop offset="1" stop-color="#f36f56"/>
		</linearGradient>
		<linearGradient id="g2" x1="258.3" y1="137.6" x2="484" y2="153.2" gradientUnits="userSpaceOnUse">
			<stop offset="0" stop-color="#ff9085"/>
			<stop offset="1" stop-color="#fb6fbb"/>
		</linearGradient>
		<linearGradient id="g3" x1="485.8" y1="292.8" x2="356.9" y2="435.7" gradientUnits="userSpaceOnUse">
			<stop offset="0" stop-color="#ffc444"/>
			<stop offset="1" stop-color="#f36f56"/>
		</linearGradient>
		<linearGradient id="g4" x1="177.1" y1="76.4" x2="301.4" y2="76.4" gradientUnits="userSpaceOnUse">
			<stop offset="0" stop-color="#444b8c"/>
			<stop offset="1" stop-color="#26264f"/>
		</linearGradient>
		<linearGradient id="g5" x1="269.6" y1="131.5" x2="431.4" y2="321.6" gradientUnits="userSpaceOnUse">
			<stop offset="0" stop-color="#ff9085"/>
			<stop offset="1" stop-color="#fb6fbb"/>
		</linearGradient>
		<linearGradient id="g6" x1="180.5" y1="201.7" x2="255.2" y2="103.2" gradientUnits="userSpaceOnUse">
			<stop offset="0" stop-color="#aa80f9"/>
			<stop offset="1" stop-color="#6165d7"/>
		</linearGradient>
		<linearGradient id="g7" x1="164.7" y1="246" x2="235.2" y2="152.9" gradientUnits="userSpaceOnUse">
			<stop offset="0" stop-color="#444b8c"/>
			<stop offset="1" stop-color="#26264f"/>
		</linearGradient>
		<linearGradient id="g8" x1="417.3" y1="427.6" x2="430.2" y2="427.6" gradientUnits="userSpaceOnUse">
			<stop offset="0" stop-color="#311944"/>
			<stop offset="1" stop-color="#6b3976"/>
		</linearGradient>
		<linearGradient id="g9" x1="427.3" y1="435.4" x2="423.3" y2="394.4" gradientUnits="userSpaceOnUse">
			<stop offset="0" stop-color="#ffc444"/>
			<stop offset="1" stop-color="#f36f56"/>
		</linearGradient>
		<linearGradient id="g10" x1="426.6" y1="338.7" x2="456.3" y2="338.7" gradientUnits="userSpaceOnUse">
			<stop offset="0" stop-color="#aa80f9"/>
			<stop offset="1" stop-color="#6165d7"/>
		</linearGradient>
		<linearGradient id="g11" x1="426.6" y1="338.7" x2="456.3" y2="338.7" gradientUnits="userSpaceOnUse">
			<stop offset="0" stop-color="#aa80f9"/>
			<stop offset="1" stop-color="#6165d7"/>
		</linearGradient>
		<linearGradient id="g12" x1="470.6" y1="429.8" x2="483.5" y2="429.8" gradientUnits="userSpaceOnUse">
			<stop offset="0" stop-color="#311944"/>
			<stop offset="1" stop-color="#6b3976"/>
		</linearGradient>
		<linearGradient id="g13" x1="477.7" y1="431" x2="474.1" y2="393.7" gradientUnits="userSpaceOnUse">
			<stop offset="0" stop-color="#ffc444"/>
			<stop offset="1" stop-color="#f36f56"/>
		</linearGradient>
		<linearGradient id="g14" x1="449.8" y1="333.6" x2="483.9" y2="333.6" gradientUnits="userSpaceOnUse">
			<stop offset="0" stop-color="#aa80f9"/>
			<stop offset="1" stop-color="#6165d7"/>
		</linearGradient>
		<linearGradient id="g15" x1="410.5" y1="268.7" x2="434.1" y2="268.7" gradientUnits="userSpaceOnUse">
			<stop offset="0" stop-color="#aa80f9"/>
			<stop offset="1" stop-color="#6165d7"/>
		</linearGradient>
		<linearGradient id="g16" x1="430.2" y1="266" x2="431.3" y2="255.6" gradientUnits="userSpaceOnUse">
			<stop offset="0" stop-color="#ffc444"/>
			<stop offset="1" stop-color="#f36f56"/>
		</linearGradient>
		<linearGradient id="g17" x1="432.3" y1="270.8" x2="425.7" y2="253.7" gradientUnits="userSpaceOnUse">
			<stop offset="0" stop-color="#311944"/>
			<stop offset="1" stop-color="#6b3976"/>
		</linearGradient>
		<linearGradient id="g18" x1="426.7" y1="256.2" x2="425.4" y2="280.6" gradientUnits="userSpaceOnUse">
			<stop offset="0" stop-color="#ffc444"/>
			<stop offset="1" stop-color="#f36f56"/>
		</linearGradient>
		<linearGradient id="g19" x1="430.3" y1="271" x2="423.9" y2="254.5" gradientUnits="userSpaceOnUse">
			<stop offset="0" stop-color="#311944"/>
			<stop offset="1" stop-color="#6b3976"/>
		</linearGradient>
		<linearGradient id="g20" x1="429.9" y1="259.3" x2="430.2" y2="261.9" gradientUnits="userSpaceOnUse">
			<stop offset="0" stop-color="#ffc444"/>
			<stop offset="1" stop-color="#f36f56"/>
		</linearGradient>
		<linearGradient id="g21" x1="431.2" y1="254.8" x2="425.7" y2="442.9" gradientUnits="userSpaceOnUse">
			<stop offset="0" stop-color="#444b8c"/>
			<stop offset="1" stop-color="#26264f"/>
		</linearGradient>
		<linearGradient id="g22" x1="426.9" y1="249.6" x2="421.2" y2="447" gradientUnits="userSpaceOnUse">
			<stop offset="0" stop-color="#444b8c"/>
			<stop offset="1" stop-color="#26264f"/>
		</linearGradient>
		<linearGradient id="g23" x1="390.4" y1="246.6" x2="387.5" y2="345.9" gradientUnits="userSpaceOnUse">
			<stop offset="0" stop-color="#aa80f9"/>
			<stop offset="1" stop-color="#6165d7"/>
		</linearGradient>
		<linearGradient id="g24" x1="401.5" y1="247.3" x2="398.5" y2="350.1" gradientUnits="userSpaceOnUse">
			<stop offset="0" stop-color="#aa80f9"/>
			<stop offset="1" stop-color="#6165d7"/>
		</linearGradient>
		<linearGradient id="g25" x1="410.4" y1="251.8" x2="407.7" y2="342.5" gradientUnits="userSpaceOnUse">
			<stop offset="0" stop-color="#ffc444"/>
			<stop offset="1" stop-color="#f36f56"/>
		</linearGradient>
		<linearGradient id="g26" x1="407" y1="251.7" x2="404.2" y2="345.7" gradientUnits="userSpaceOnUse">
			<stop offset="0" stop-color="#ffc444"/>
			<stop offset="1" stop-color="#f36f56"/>
		</linearGradient>
		<linearGradient id="g27" x1="403.8" y1="252" x2="401" y2="347.6" gradientUnits="userSpaceOnUse">
			<stop offset="0" stop-color="#ffc444"/>
			<stop offset="1" stop-color="#f36f56"/>
		</linearGradient>
		<linearGradient id="g28" x1="399.9" y1="253.9" x2="397.1" y2="349.5" gradientUnits="userSpaceOnUse">
			<stop offset="0" stop-color="#ffc444"/>
			<stop offset="1" stop-color="#f36f56"/>
		</linearGradient>
		<linearGradient id="g29" x1="430.2" y1="293.8" x2="429.8" y2="308.9" gradientUnits="userSpaceOnUse">
			<stop offset="0" stop-color="#ff9085"/>
			<stop offset="1" stop-color="#fb6fbb"/>
		</linearGradient>
		<linearGradient id="g30" x1="430.5" y1="292.2" x2="430.2" y2="304.3" gradientUnits="userSpaceOnUse">
			<stop offset="0" stop-color="#ff9085"/>
			<stop offset="1" stop-color="#fb6fbb"/>
		</linearGradient>
		<linearGradient id="g31" x1="432" y1="290.6" x2="431.6" y2="302.3" gradientUnits="userSpaceOnUse">
			<stop offset="0" stop-color="#ff9085"/>
			<stop offset="1" stop-color="#fb6fbb"/>
		</linearGradient>
		<linearGradient id="g32" x1="431.8" y1="287.1" x2="431.4" y2="299.7" gradientUnits="userSpaceOnUse">
			<stop offset="0" stop-color="#ff9085"/>
			<stop offset="1" stop-color="#fb6fbb"/>
		</linearGradient>
		<linearGradient id="g33" x1="341.3" y1="245.4" x2="373.5" y2="245.5" gradientUnits="userSpaceOnUse">
			<stop offset="0" stop-color="#e38ddd"/>
			<stop offset="1" stop-color="#9571f6"/>
		</linearGradient>
		<linearGradient id="g34" x1="340.3" y1="244.9" x2="369.8" y2="244.9" gradientUnits="userSpaceOnUse">
			<stop offset="0" stop-color="#e38ddd"/>
			<stop offset="1" stop-color="#9571f6"/>
		</linearGradient>
		<linearGradient id="g35" x1="336.6" y1="244.2" x2="366.5" y2="244.2" gradientUnits="userSpaceOnUse">
			<stop offset="0" stop-color="#e38ddd"/>
			<stop offset="1" stop-color="#9571f6"/>
		</linearGradient>
		<linearGradient id="g36" x1="334.7" y1="245.2" x2="362.3" y2="245.2" gradientUnits="userSpaceOnUse">
			<stop offset="0" stop-color="#e38ddd"/>
			<stop offset="1" stop-color="#9571f6"/>
		</linearGradient>
		<linearGradient id="g37" x1="321.8" y1="260.6" x2="413" y2="260.7" gradientUnits="userSpaceOnUse">
			<stop offset="0" stop-color="#ff9085"/>
			<stop offset="1" stop-color="#fb6fbb"/>
		</linearGradient>
		<linearGradient id="g38" x1="322.7" y1="261" x2="414.6" y2="261.1" gradientUnits="userSpaceOnUse">
			<stop offset="0" stop-color="#ff9085"/>
			<stop offset="1" stop-color="#fb6fbb"/>
		</linearGradient>
		<linearGradient id="g39" x1="324.5" y1="262.8" x2="416" y2="262.9" gradientUnits="userSpaceOnUse">
			<stop offset="0" stop-color="#ff9085"/>
			<stop offset="1" stop-color="#fb6fbb"/>
		</linearGradient>
		<linearGradient id="g40" x1="326.6" y1="264.2" x2="417.2" y2="264.3" gradientUnits="userSpaceOnUse">
			<stop offset="0" stop-color="#ff9085"/>
			<stop offset="1" stop-color="#fb6fbb"/>
		</linearGradient>
		<linearGradient id="g41" x1="429.4" y1="264.7" x2="475.8" y2="264.7" gradientUnits="userSpaceOnUse">
			<stop offset="0" stop-color="#aa80f9"/>
			<stop offset="1" stop-color="#6165d7"/>
		</linearGradient>
		<linearGradient id="g42" x1="413.5" y1="324.3" x2="401.9" y2="312.1" gradientUnits="userSpaceOnUse">
			<stop offset="0" stop-color="#ffc444"/>
			<stop offset="1" stop-color="#f36f56"/>
		</linearGradient>
		<linearGradient id="g43" x1="175.9" y1="434.6" x2="184.5" y2="434.6" gradientUnits="userSpaceOnUse">
			<stop offset="0" stop-color="#444b8c"/>
			<stop offset="1" stop-color="#26264f"/>
		</linearGradient>
		<linearGradient id="g44" x1="177" y1="441.3" x2="175" y2="428.1" gradientUnits="userSpaceOnUse">
			<stop offset="0" stop-color="#311944"/>
			<stop offset="1" stop-color="#893976"/>
		</linearGradient>
		<linearGradient id="g45" x1="142" y1="436.2" x2="149.9" y2="436.2" gradientUnits="userSpaceOnUse">
			<stop offset="0" stop-color="#444b8c"/>
			<stop offset="1" stop-color="#26264f"/>
		</linearGradient>
		<linearGradient id="g46" x1="141.4" y1="441.5" x2="141.2" y2="429.3" gradientUnits="userSpaceOnUse">
			<stop offset="0" stop-color="#311944"/>
			<stop offset="1" stop-color="#893976"/>
		</linearGradient>
		<linearGradient id="g47" x1="145.1" y1="446" x2="155.5" y2="362.7" gradientUnits="userSpaceOnUse">
			<stop offset="0" stop-color="#444b8c"/>
			<stop offset="1" stop-color="#26264f"/>
		</linearGradient>
		<linearGradient id="g48" x1="145.1" y1="446.1" x2="155.6" y2="362.2" gradientUnits="userSpaceOnUse">
			<stop offset="0" stop-color="#444b8c"/>
			<stop offset="1" stop-color="#26264f"/>
		</linearGradient>
		<linearGradient id="g49" x1="154.2" y1="325" x2="193.3" y2="349.8" gradientUnits="userSpaceOnUse">
			<stop offset="0" stop-color="#444b8c"/>
			<stop offset="1" stop-color="#26264f"/>
		</linearGradient>
		<linearGradient id="g50" x1="201.5" y1="245.4" x2="193.4" y2="341.6" gradientUnits="userSpaceOnUse">
			<stop offset="0" stop-color="#aa80f9"/>
			<stop offset="1" stop-color="#6165d7"/>
		</linearGradient>
		<linearGradient id="g51" x1="120" y1="306.2" x2="153.4" y2="255.2" gradientUnits="userSpaceOnUse">
			<stop offset="0" stop-color="#aa80f9"/>
			<stop offset="1" stop-color="#6165d7"/>
		</linearGradient>
		<linearGradient id="g52" x1="161.3" y1="244.1" x2="153.4" y2="337.9" gradientUnits="userSpaceOnUse">
			<stop offset="0" stop-color="#aa80f9"/>
			<stop offset="1" stop-color="#6165d7"/>
		</linearGradient>
		<linearGradient id="g53" x1="178.6" y1="247.2" x2="165.4" y2="272.2" gradientUnits="userSpaceOnUse">
			<stop offset="0" stop-color="#311944"/>
			<stop offset="1" stop-color="#893976"/>
		</linearGradient>
		<linearGradient id="g54" x1="165" y1="265.6" x2="167.4" y2="248.7" gradientUnits="userSpaceOnUse">
			<stop offset="0" stop-color="#444b8c"/>
			<stop offset="1" stop-color="#26264f"/>
		</linearGradient>
		<linearGradient id="g55" x1="162" y1="261.2" x2="160.1" y2="256.2" gradientUnits="userSpaceOnUse">
			<stop offset="0" stop-color="#311944"/>
			<stop offset="1" stop-color="#893976"/>
		</linearGradient>
		<linearGradient id="g56" x1="152.3" y1="310.5" x2="144.8" y2="320.5" gradientUnits="userSpaceOnUse">
			<stop offset="0" stop-color="#311944"/>
			<stop offset="1" stop-color="#893976"/>
		</linearGradient>
		<linearGradient id="g57" x1="232.3" y1="248" x2="225.1" y2="333.2" gradientUnits="userSpaceOnUse">
			<stop offset="0" stop-color="#aa80f9"/>
			<stop offset="1" stop-color="#6165d7"/>
		</linearGradient>
		<linearGradient id="g58" x1="235.3" y1="270.4" x2="190.1" y2="238.9" gradientUnits="userSpaceOnUse">
			<stop offset="0" stop-color="#311944"/>
			<stop offset="1" stop-color="#893976"/>
		</linearGradient>
	</defs>
	<style>
		.s0 { fill: #ffffff } 
		.s1 { fill: #f4f7fa } 
		.s2 { fill: url(#g1) } 
		.s3 { opacity: .5;mix-blend-mode: soft-light;fill: #f4f7fa } 
		.s4 { fill: url(#g2) } 
		.s5 { fill: url(#g3) } 
		.s6 { fill: #97a6b7 } 
		.s7 { fill: #d8dee8 } 
		.s8 { opacity: .7;fill: #ffffff } 
		.s9 { opacity: .3;mix-blend-mode: multiply;fill: #97a6b7 } 
		.s10 { fill: url(#g4) } 
		.s11 { opacity: .5;mix-blend-mode: soft-light;fill: #ffffff } 
		.s12 { fill: url(#g5) } 
		.s13 { fill: url(#g6) } 
		.s14 { fill: url(#g7) } 
		.s15 { fill: url(#g8) } 
		.s16 { fill: url(#g9) } 
		.s17 { fill: url(#g10) } 
		.s18 { opacity: .3;mix-blend-mode: multiply;fill: url(#g11) } 
		.s19 { fill: url(#g12) } 
		.s20 { fill: url(#g13) } 
		.s21 { fill: url(#g14) } 
		.s22 { opacity: .1;mix-blend-mode: multiply;fill: url(#g15) } 
		.s23 { fill: url(#g16) } 
		.s24 { fill: url(#g17) } 
		.s25 { fill: url(#g18) } 
		.s26 { fill: url(#g19) } 
		.s27 { fill: url(#g20) } 
		.s28 { fill: url(#g21) } 
		.s29 { opacity: .3;mix-blend-mode: multiply;fill: url(#g22) } 
		.s30 { fill: url(#g23) } 
		.s31 { fill: url(#g24) } 
		.s32 { fill: url(#g25) } 
		.s33 { fill: url(#g26) } 
		.s34 { fill: url(#g27) } 
		.s35 { fill: url(#g28) } 
		.s36 { fill: url(#g29) } 
		.s37 { fill: url(#g30) } 
		.s38 { fill: url(#g31) } 
		.s39 { fill: url(#g32) } 
		.s40 { fill: url(#g33) } 
		.s41 { fill: url(#g34) } 
		.s42 { fill: url(#g35) } 
		.s43 { fill: url(#g36) } 
		.s44 { fill: url(#g37) } 
		.s45 { fill: url(#g38) } 
		.s46 { fill: url(#g39) } 
		.s47 { fill: url(#g40) } 
		.s48 { opacity: .1;mix-blend-mode: multiply;fill: url(#g41) } 
		.s49 { fill: url(#g42) } 
		.s50 { fill: url(#g43) } 
		.s51 { fill: url(#g44) } 
		.s52 { fill: url(#g45) } 
		.s53 { fill: url(#g46) } 
		.s54 { fill: url(#g47) } 
		.s55 { fill: url(#g48) } 
		.s56 { fill: url(#g49) } 
		.s57 { fill: url(#g50) } 
		.s58 { opacity: .3;mix-blend-mode: multiply;fill: url(#g51) } 
		.s59 { fill: url(#g52) } 
		.s60 { fill: url(#g53) } 
		.s61 { fill: url(#g54) } 
		.s62 { fill: url(#g55) } 
		.s63 { fill: url(#g56) } 
		.s64 { fill: url(#g57) } 
		.s65 { fill: url(#g58) } 
	</style>
	<g id="Background">
		<g id="&lt;Group&gt;">
			<g id="&lt;Group&gt;">
				<path id="&lt;Path&gt;" class="s0" d="m-29-54h665v582.2h-665z"/>
			</g>
		</g>
	</g>
	<g id="Illustration">
		<g id="&lt;Group&gt;">
			<path id="&lt;Path&gt;" class="s1" d="m362 445.1c-30.2 8-65.3 11.9-96.6 9.5-46-3.6-94.2-24.1-132.6-47.3-42.9-26-44-66.7-42.1-110.3 1.1-25.1-2.9-50.3-8.9-74.7-9.2-37.5-1.6-76.9 21.1-109.2 22.7-32.3 58.6-54.8 99.6-62.3q69-12.7 139-4.4c92.2 9.5 138.8 99.7 150.2 173.1 11.4 73.5 23.9 184.7-129.7 225.6z"/>
			<g id="&lt;Group&gt;">
				<g id="&lt;Group&gt;">
					<path id="&lt;Path&gt;" class="s2" d="m267.7 379.7c-19.4-3.5-24.2-45.1-24.8-51-1.5-14.8-3.4-33.1 7.3-48.6 15.5-22.5 41.8-16.6 48.1-35.2 3.9-11.5-5.7-15-6.1-36.9-0.1-6.3-0.6-28.9 15.3-47.3 11.3-13 25.6-17.8 33.2-19.7 2.5-6.3 5.4-15.8 5.3-27.3-0.1-18.6-7.7-25.8-3.7-35.6 4.5-11.3 20.6-17.2 32.8-17.1 32.7 0.3 50.6 43.4 51.8 46.4 3.1 7.9 13.2 33 1.7 51.3-9.1 14.4-24.5 13.3-26.8 25.1-2.4 11.9 12.3 16.5 15.7 34.5 3 15.4-3.5 33.8-15 44.2-19.3 17.2-42.8 3.4-53.1 17.8-12 16.6 12.2 46.1 1.5 56-10.1 9.5-36.7-12.7-49.6-1.6-9.4 7.9-0.7 23.9-13.3 36.7-0.8 0.8-10.2 10.1-20.3 8.3z"/>
					<path id="&lt;Path&gt;" class="s3" d="m369.3 70.8c12.4 2.9 18.2 40.2 11.6 72.2-4.5 22-10.9 22.4-27.5 59.7-22.4 50.5-14 57.6-30.3 75.3-22.4 24.2-45.3 18.6-57.6 41.9-8.3 15.8-5.9 33.7-2.3 46.8-4.6-7.1-11.8-20.2-13.8-37.9-1.3-11.6-3.6-32.5 8.4-45.2 14.4-15.3 35.7-4.1 45.6-18.3 5.6-8 0.6-14.2-0.7-41.7-1.3-27.7-2-41.6 5.5-53.4 13.4-21.1 37.5-12.5 45.7-30.8 8.5-19-13.1-37.5-1.9-56.8 3.7-6.2 11.2-13.2 17.3-11.8z"/>
				</g>
				<g id="&lt;Group&gt;">
					<path id="&lt;Path&gt;" class="s4" d="m258.6 382.1c-11.6-2-18-30.5-15.5-52.6 1-8.6 1.9-17.1 8.1-24.9 10.6-13.1 22.7-7.3 32-17.9 13.6-15.6-3.4-38.9 9.8-51.6 9.6-9.4 21.9 0.3 33.4-9.8 13.4-11.7 5.3-32 16.8-37.2 6.7-3 11.2 3.1 29.3 1.8 7.1-0.5 10.6-0.8 13.8-2.7 11.4-6.9 5.9-22.4 15-31.9 10-10.4 31.7-7.3 44.6-1.6 23.1 10.4 33.5 36.3 33.8 56.9 0.1 4.4 0.1 33.1-20.5 48.4-14.9 11-35.1 10.7-38.4 10.7-12.7-0.3-15.2-4-19.8-1.3-13 7.7 5.2 40.4-11.5 61.3-6.8 8.5-18.4 13.8-28.7 14.2-16.7 0.8-23.8-11.2-32.7-7.1-11.4 5.3-4.5 27.9-17.1 34.5-8.8 4.7-15.6-4.8-30.6-0.9-13.3 3.6-14.9 12.9-21.8 11.7z"/>
					<path id="&lt;Path&gt;" class="s3" d="m261 310c12.6-14.2 30.1-5.9 39.5-19.5 10.8-15.7-5.6-37.2 4.9-46.6 8.8-7.8 23.1 4.2 33.1-3.9 11.6-9.5 0.2-32.3 11.6-40 5.1-3.4 8.2 0.6 26.7-0.8 12.8-0.9 19.2-1.4 23.4-5.5 7.8-7.7 0.5-18.4 9-28.6 7-8.3 17.8-8.5 18.3-8.5 12.9 0 24.3 11.7 25.9 23.1 1.9 13.1-9.5 23.7-18.1 31.5-28.6 26-48.8 14.5-72.5 36.7-17.6 16.3-7.9 23.8-28.8 44.9-18.4 18.5-28.9 16-48.6 36.6-18.1 18.8-20.9 33.1-26.2 31.8-7.6-1.9-13.1-34.5 1.8-51.2z"/>
				</g>
				<g id="&lt;Group&gt;">
					<path id="&lt;Path&gt;" class="s5" d="m296.1 326.8c10.6-9 27.6 3.8 36.6-5.7 7.2-7.6-1.4-18.3 4.7-40.5 2.2-8.2 4.8-17.7 13.4-24.1 10.4-7.6 26.7-8.6 37.1-1.7 10.5 6.9 8.2 17.3 18.6 21.6 8.4 3.6 12.4-2 22.4 0 12.2 2.4 25.5 14.7 26.9 30.3 1.6 18.6-14.8 34.1-29 37.2-13.6 2.9-18.9-7-30.1-3.1-16.3 5.7-13.4 29.9-27.7 34.1-12.8 3.7-20.3-14-38-12-16 1.8-20.3 17.5-28.8 15.2-12.3-3.3-19.4-39.9-6.1-51.3z"/>
					<path id="&lt;Path&gt;" class="s3" d="m306.4 332.8c11.5-8.6 30.1 5.4 38.2-3.1 3.1-3.3 2.1-7.1 2.1-16.6 0-10.2-0.2-43.8 13.4-50.6 7-3.4 15.9 0.9 22.7 4.2 14.1 6.7 13.2 14.5 24.8 18.5 12.4 4.4 19.2-2.4 25.9 3.1 6.2 5.3 8.2 18 3.1 23.8-8.8 9.9-30.4-9.8-52.7 0-16 7-12.3 20.3-30 26.9-14.2 5.3-21.8-1.4-35.1 6.2-11.6 6.6-14.5 16.7-17.6 15.5-3.9-1.6-4.5-20.7 5.2-27.9z"/>
				</g>
			</g>
			<g id="&lt;Group&gt;">
				<path id="&lt;Path&gt;" class="s6" d="m354.4 125.6v252.8c0 4.1-3.4 7.8-7.6 8.2l-229.9 22.6c-5.4 0.5-12.3-0.8-12.3-7.3v-287c0-4.7 4.8-10.3 10.2-10.1l232 12.9c4.2 0.2 7.6 3.7 7.6 7.9z"/>
				<path id="&lt;Path&gt;" class="s7" d="m358.2 123.4v254.7c0 4.2-3.3 7.9-7.5 8.4l-232.6 22.9c-5.3 0.6-9.7-2.8-9.7-7.6v-289.2c0-4.8 4.4-8.4 9.7-8.1l232.6 10.9c4.2 0.2 7.5 3.8 7.5 8z"/>
				<path id="&lt;Path&gt;" class="s8" d="m118.1 405.5c-2.9 0.3-5.2-1.5-5.2-4.1v-288.6c0-2.6 2.3-4.5 5.2-4.4l232.6 10.5c2.2 0.1 4.1 2.1 4.1 4.3v255.3c0 2.2-1.9 4.3-4.1 4.5z"/>
				<path id="&lt;Path&gt;" class="s0" d="m335.7 376.1l-198.9 18.4v-266.2l198.9 7.2z"/>
				<path id="&lt;Path&gt;" class="s9" d="m256.1 136.8l-79.5 0.9 1.8-17.2c0.1-2.2 1.8-4.1 4-4.4l13.5-2c1.6-0.2 3-1.2 3.7-2.7l1.4-3 35.2 2.1z"/>
				<path id="&lt;Compound Path&gt;" fill-rule="evenodd" class="s10" d="m301.6 141c0.2 1.3-0.9 2.6-2.2 2.5l-120.9-3.8c-1.5-0.1-2.3-1.5-1.6-2.8l8.4-16c1-2 3.3-3.3 5.5-3.2l14 0.6c6.2 0.3 12-3.9 13.6-9.7l3.5-13.4c0.7-2.5 3.2-4.2 5.8-4.1l4.3 0.3c2.2 0.1 4.5-1 5.8-3 0.5-0.8 0.8-1.6 0.9-2.4 0.9-5.5 6.2-9.7 11.8-9.3 5.7 0.4 9.6 5.1 8.8 10.5-0.5 3.1 1.6 5.8 4.8 6l4.2 0.3c2.5 0.1 4.3 2.1 4.2 4.5l-0.5 13.2c-0.2 5.7 4 10.2 9.8 10.4l12.7 0.6c2.1 0.1 3.7 1.4 4.1 3.4zm-49.3-55.7c0.2-1.6-0.9-3-2.6-3.1-1.6-0.1-3.2 1.2-3.4 2.8-0.3 1.6 0.9 3 2.5 3.1 1.7 0.1 3.2-1.1 3.5-2.8z"/>
				<path id="&lt;Compound Path&gt;" fill-rule="evenodd" class="s6" d="m302.3 141.4c0.2 1.3-0.9 2.5-2.2 2.5l-120.9-3.9c-1.5 0-2.3-1.4-1.6-2.7l8.4-16c1-2 3.3-3.3 5.6-3.2l13.9 0.6c6.2 0.2 12-3.9 13.6-9.7l3.6-13.4c0.6-2.5 3.1-4.3 5.7-4.1l4.3 0.2c2.3 0.2 4.6-1 5.9-3 0.4-0.7 0.7-1.5 0.8-2.3 0.9-5.5 6.2-9.7 11.9-9.3 5.6 0.3 9.5 5 8.7 10.5-0.5 3.1 1.7 5.8 4.8 6l4.2 0.2c2.5 0.2 4.3 2.1 4.2 4.6l-0.5 13.2c-0.2 5.6 4.1 10.1 9.8 10.4l12.7 0.5c2.1 0.1 3.7 1.5 4.1 3.4zm-49.3-55.6c0.2-1.6-0.9-3-2.6-3.1-1.6-0.1-3.2 1.1-3.4 2.7-0.3 1.6 0.9 3 2.6 3.1 1.6 0.1 3.2-1.1 3.4-2.7z"/>
				<g id="&lt;Group&gt;">
					<g id="&lt;Group&gt;">
						<path id="&lt;Path&gt;" class="s7" d="m237.1 368.4l-85.9 7.2v-4.3l85.9-7z"/>
						<path id="&lt;Path&gt;" class="s7" d="m237.1 375.8l-85.9 7.5v-4.3l85.9-7.3z"/>
					</g>
					<g id="&lt;Group&gt;">
						<path id="&lt;Path&gt;" class="s7" d="m323.7 361.1l-78.3 6.6v-4.1l78.3-6.4z"/>
						<path id="&lt;Path&gt;" class="s7" d="m323.7 368.2l-78.3 6.8v-4l78.3-6.7z"/>
					</g>
				</g>
				<g id="&lt;Group&gt;">
					<path id="&lt;Path&gt;" class="s11" d="m289.1 143.5l-109.9-3.5c-1.5 0-2.3-1.4-1.6-2.7l8.4-16c1-2 3.3-3.3 5.6-3.2l13.9 0.6c6.2 0.2 12-3.9 13.6-9.7l3-11.2c2.2 1.5 4.4 2.3 6.4 2.6 5.5 0.8 9.8-1.9 14.6 1.2 7.4 4.8 2.5 14.9 9.7 22.6 6.8 7.2 15 2.7 25.8 9.1 4.2 2.5 7.7 6 10.5 10.2z"/>
				</g>
				<g id="&lt;Group&gt;">
					<path id="&lt;Path&gt;" class="s12" d="m234 353.1v-26.4c0-2.6-2.9-4.2-5.4-2.9-8.9 4.5-22 8.2-32.3 10.7-9.2 2.3-18.6-1.5-22.5-9.2l-0.9-1.6c-1.9-3.7-1.3-8.1 1.5-11.5 1.7-2.1 1.9-4.8 0.5-6.9l-3-4.6c-1.2-1.7-0.7-4 1-5.4l2.2-1.7-2.4-0.5c-2-0.4-3.3-2-3.2-3.8l0.4-9.8-10.5-0.2c-3.1-0.1-5.4-2.3-5.4-5v-0.9l17.4-27.8c1.5-2.5 1-5.6-1.4-7.4-2.3-1.8-3.5-4.5-3.1-7.2 0.5-3 1.5-7.7 4-14.4 2-5.4 3.1-11.4 3.6-16.9 1.3-11.7 9.2-21.8 20.5-26.9 19.5-8.7 37.6-12.8 53-14.5 30-3.4 58.1 13.8 67.1 40.7 6.7 20 6.8 36.3 5.8 46.4-0.6 6.4-3.5 12.5-8.2 17.3-8.5 8.6-12.4 20.6-10.4 32.2l11.2 52.2z"/>
					<path id="&lt;Path&gt;" class="s13" d="m214.3 229.3c-8.2-1.8-10.6 1.5-17.3-1-8-3-14-11-15-19-1.5-11.4 7.5-19.9 13.7-25.7 14.1-13.3 31.3-16.4 36.3-17.2 6.8-1.2 35.9-5 58.9 14.1 16 13.3 19.9 30.1 21 35.1 1.5 7.3 6.5 30-6.4 39-7.6 5.2-19.9 4.6-27.7 0.1-5.7-3.3-4.5-5.6-10.2-8.9-11.2-6.5-19.1 1.7-32.5-3.4-10.6-4-9.6-10.8-20.8-13.1z"/>
					<path id="&lt;Compound Path&gt;" fill-rule="evenodd" class="s14" d="m347 366.2q-1.4 0-2.9-0.1c-14.7-0.6-29.3-6.3-40-15.6-11.7-10.2-17.9-23.8-17.3-38.4 0.4-9.8 4.1-17.2 7.4-23.7 3.8-7.7 7.2-14.3 3.7-22.6-0.2-0.5-0.5-1.2-0.9-2.1-2.6-6-8-18.4-7.1-23.5 0.6-3.1 2.5-4.7 2.5-4.7l0.1-0.1c0.8-0.5 1.6-0.8 2.4-1q0.7-0.2 1.2-0.5c3.2-1.3 5.3-5.3 4.8-9.3-0.4-3.4-2.3-6.7-5.6-10q1.8 2 2.5 4.3c1.2 3.7 0 8.8-4 10.6-1.2 0.6-2.5 0.7-3.9 0.5q1.1 1.1 1.9 2.3 0.3 0.6 0.4 1.1 0.2 1.8-2.1 2.5c-2.3 0.7-4.8 1-7.2 0.8-0.7 0.5-1.4 0.9-2.3 1-2.8 0.4-5.2-1.6-6.8-5.6q-1.7-4.3-2.1-8-0.3-0.1-0.5-0.3c-1.5 0.7-3 1-4.6 1.1q-0.4 2.8-1.4 5.4c-0.2 0.5-0.6 0.9-1.2 1-0.6 0.1-1.2-0.1-1.5-0.5-0.3-0.4-0.7-0.5-1.2-0.4-0.4 0.1-0.7 0.4-0.8 0.8-1 4.3-3.2 6.7-6.4 6.9q-1.2 0.2-2.7-0.2c-5.5-1.5-10.3-6.2-12.3-12.2-4 1.9-8.5 2.2-12.4 0.8-5.1-1.8-8.8-6.7-9.2-11.9-2.5 2-6.4 2-9.1 0.5-2.9-1.7-5.1-4.9-6.1-9.2-0.8-3.1-0.7-6 0.1-8.4 2.1-6 8.9-8.9 13.8-10.5 4.2-1.4 7.4-1.5 9.8-0.5 0.2-0.7 0.7-1.4 1.3-1.8 11.2-8.3 27.1-9.6 39.5-3q1.5 0.8 2.7 1.6 1-0.5 2-0.7c5.6-1.3 11.8 2.3 16.5 9.9 3.9 6.1 5 11.2 3.5 15.6q-0.4 1.3-1.1 2.4 0.2 0.2 0.5 0.4 0.8-0.1 1.6 0c1.6 0.4 2.8 1.4 3.8 2.5 3.6 3.6 5.7 7.3 6.1 11 0.7 5.4-2.4 9.6-5.7 11q-0.6 0.2-1.3 0.4c-0.7 0.3-1.4 0.5-2 0.9-0.2 0.1-1.5 1.4-1.9 3.8-0.9 4.6 4.6 17.2 6.9 22.6 0.4 0.9 0.8 1.6 1 2.1 3.7 9 0.2 15.9-3.9 23.9-3.2 6.4-6.8 13.6-7.2 23.1-1.2 30.8 28.1 51.2 55.9 52.4 19.7 0.9 24.5-6.8 25.2-13.4l1.5 0.2c-0.9 9.6-9.4 14.8-23.9 14.8zm-106.5-141.2c1.8 5.6 6.2 10 11.3 11.4q1.2 0.3 2.2 0.2c2.5-0.2 4.1-2.1 5-5.8 0.3-0.9 1-1.7 2-1.9 1-0.2 2 0.1 2.6 0.9q0.1 0 0.1 0 0.1 0 0.1-0.1 0.9-2.4 1.3-4.9-0.6 0-1.1-0.2c-1.4-0.3-2.7-0.9-3.8-1.6q-1.8 0.4-3.5 1.1l-0.9 0.3-0.1-0.9c-0.2-1.6-0.2-3.3 0-4.9q-0.4 0.1-0.8 0.2-1.9 1-4.3 1.9-3.6 1.3-6.7 1.7-0.3 0.2-0.6 0.5-1.3 1.2-2.8 2.1zm37.5 10.5c0.6 0.5 1.3 0.7 2 0.7q-0.2-0.1-0.5-0.1-0.8-0.3-1.5-0.6zm6.1-0.3c1.9 0 3.8-0.2 5.6-0.7 1-0.4 1-0.7 1-0.9q-0.1-0.2-0.2-0.4c-0.9-1.4-2-2.5-3.2-3.4q-0.2 0.7-0.4 1.3l-0.3 0.8-0.7-0.3q-0.6-0.2-1.2-0.4 0.2 0.9 0.1 1.8-0.1 1.2-0.7 2.2zm-7.2-7.6q-0.3 0.6-0.5 1.2c-0.3 0.9-0.6 1.8-0.4 2.6 0.4 2 2.8 2.9 3.9 3.2q1.2 0.3 2.5 0.5c0.5-0.6 0.8-1.4 0.9-2.2q0.1-1.2-0.4-2.4-3.3-1.4-6-2.9zm7.2 1.7q0.8 0.3 1.5 0.6 0.2-0.6 0.3-1.1-0.9-0.6-1.9-1.3c-1.8-1.1-3.6-2.3-5.1-3.8q0 0 0 0-0.1 0.2-0.3 0.4 0.2 0.1 0.4 0.2c2.5 1.4 4.2 3.1 5.1 5zm-10.7-3.9q0.4 2.1 1.1 4.3 0.2-0.7 0.5-1.4 0.2-0.8 0.5-1.5-1.1-0.7-2.1-1.4zm14.4 2.3q0.4 0.2 0.9 0.4c1.6 0.6 3.2 0.6 4.5 0 3.1-1.4 4.1-5.6 3.2-8.7-1-3.1-3.6-5.4-5.9-6.9q-1.1 0.2-2.3 1.1c0.7 4.6 0.6 9.4-0.4 14.1zm-10.3-1.5q1.9 1 4 2-1.2-1.4-3.3-2.6-0.1-0.1-0.3-0.2-0.2 0.4-0.4 0.8zm9.4-11.3c-2.5 2.7-3.3 6.5-2.1 9.4 0.4 0.9 0.9 1.7 1.6 2.3 0.8-3.8 0.9-7.8 0.5-11.7zm-67.6-3.9l-0.2 1.6c-0.6 5.2 3 10.6 8.1 12.5 3.6 1.3 7.8 0.9 11.4-0.9q-0.2-1-0.4-2-1-0.2-2-0.5c-6-2.2-9.4-8.2-10.5-14q-0.9 1-2 1.8c-1.3 0.8-2.8 1.5-4.4 1.5zm60.4 11.4q0.1 0.1 0.3 0.2c1.1 1.1 2.3 2 3.7 2.9q-0.2-0.3-0.3-0.6c-0.8-2-0.8-4.4-0.2-6.7q-0.4 0.5-0.9 1-1.4 1.5-2.6 3.2zm-6.4 1q1.3 1.1 2.9 2 0.1-0.4 0.3-0.7-1.5-0.7-3.2-1.3zm-33.5-0.9q0.1 0.5 0.2 1 0.7-0.5 1.4-1-0.8 0-1.6 0zm34.3-0.4q1.6 0.5 3.2 1.2 0.2-0.4 0.5-0.8-0.9-1.1-1.6-2.4-0.4 0.5-0.8 0.9-0.6 0.6-1.3 1.1zm-7.2 0.2q-0.1 0.5-0.1 1 1.6-0.1 3.1-0.6 0 0 0 0-1.5-0.3-3-0.4zm-4.4 0.2q0.9 0.4 1.8 0.6 0.5 0.1 1 0.2 0-0.5 0-1-1.4 0.1-2.8 0.2zm-5.4-2.3q-0.1 1 0 2.1 0.8-0.3 1.5-0.5-0.8-0.8-1.5-1.6zm13.5 1q0.5 0.1 0.9 0.2 0.1-2.1 0.6-3.9c0.4-1.7 1.1-3.2 2.1-4.5-0.1-1.6 0.1-3.3 0.5-4.9 0.7-2.3 2.2-4.8 4.6-5.5-0.3-1.6-1-3.2-2.1-4.7q-0.2-0.3-0.5-0.6c-0.4 2.3-1.6 4.4-3.9 5.8-1.3 0.9-2.7 1.2-4.2 1.2-0.7 3-1.9 5.6-3.4 7.8q0.7 1.9 1.2 4 0.9 1.5 2.1 2.9 1 1.2 2.1 2.2zm-13.1-3c0.8 1.1 1.8 2.2 3 3.1q2.4-0.5 4.8-0.5 0-2.1-0.4-4.2-0.7-1.2-1.3-2.5-1.1 1.2-2.4 2.1-1.7 1.3-3.7 2zm19.7 0.6q0.7 1.2 1.5 2.4 1.1-1.6 2.5-3.1c0.9-0.9 1.8-1.8 2.8-2.7 0.9-0.8 1.8-1.6 2.6-2.5q-0.3-1.4-0.6-2.7 0 0 0-0.1-1.6-0.5-3-0.5-1.2 0-2.2 0.3-0.1 0.2-0.1 0.4c-0.6 3.3-1.8 6.2-3.5 8.5zm-37.6 2.1q1.7 0.2 3.6 0 1.7-1.8 2.9-4.1-0.3-0.2-0.6-0.4c-2.4-2.1-3.6-5-4.2-7.7-1.6 4.1-2.1 8.3-1.7 12.2zm34.9-5.4q-0.6 1.2-0.9 2.4-0.4 1.4-0.5 3 0.6-0.4 1.2-1 0.6-0.6 1.1-1.3-0.6-1.5-0.9-3.1zm-7.6 5.3q0.6 0 1.2 0.1-0.4-0.4-0.8-0.9-0.2-0.3-0.5-0.6 0.1 0.7 0.1 1.4zm-39.9-14.6c0.9 7.5 5.4 12.5 9.7 14q0.6 0.2 1.3 0.4c-0.4-4.5 0.4-9.2 2.4-13.8q0.3-0.5 0.6-1-0.1-1.3-0.1-2.3 0.3-5.9 3-9-0.3-0.3-0.7-0.6-0.9 0.2-1.7 0.4c-4.6 1.6-9 4.9-12.7 9.5q-0.4 0.6-0.8 1.2-0.5 0.6-1 1.2zm20.4 11.4q-0.8 1.6-1.9 3 2.2-0.5 4.6-1.4 0.6-0.2 1.1-0.4c-1.3-0.2-2.6-0.6-3.8-1.2zm0.7-1.4c1.8 1 4 1.4 6.3 1.1q0.2-0.2 0.5-0.3c-1-1.8-1.7-3.5-2.1-4.9q-0.5-1.3-0.9-2.6-1.1 1.2-2.4 2.1-0.5 2.4-1.4 4.6zm27.7-2.7q0.1 1.8 0.7 3.6c1.2-1.9 2-4 2.5-6.4-1.2 0.7-2.3 1.6-3.2 2.8zm-22.7-5.3c0.4 1.1 0.7 2.3 1.1 3.4 0.5 1.3 1.1 2.9 2 4.5q0.1 0 0.2-0.1c0.6-1.9 1.7-3.8 3-5.3 0.4-0.5 1.1-1.4 2.3-1.4q0.1-0.4 0.2-0.8-0.5-2.6-0.2-5.2c-0.8-2.8-2.5-5.4-5-7.2q-0.5-0.4-1-0.7c0.7 1.8 0.9 4 0.5 6-0.4 2.4-1.5 4.8-3.1 6.8zm9.4 3.1q-1.1 2.3-3.1 4.3 0.5-0.3 0.9-0.6 1.4-1.1 2.6-2.5-0.2-0.6-0.4-1.2zm-20-5.1c0.3 2.9 1.2 6.6 4 9q0.1 0.1 0.2 0.2 0.7-1.7 1.1-3.4l-0.5-1q0.4-0.2 0.8-0.4 0.3-2.3 0.2-4.8c-0.1-0.7-0.4-1.5-0.9-1.9q-0.8-0.6-1.7-0.4c-1 0.3-2.3 1.3-3.2 2.7zm-22.8-18.5q-1.4 0.2-3 0.8c-4.6 1.5-10.9 4.1-12.8 9.5-0.8 2.2-0.8 4.7-0.1 7.5 0.5 2.3 1.9 6.3 5.4 8.3 2.6 1.4 6.8 1.1 8.5-1.7l0.7-1.1c-0.9-0.1-1.8-0.4-2.6-0.9-1.2-0.9-2-2.2-2.5-3.3-1.5-2.8-3.5-8.2-1.2-13 1.4-2.9 4.2-5.1 7.6-6.1zm41 23.8q-0.1 0.1-0.1 0.2-0.8 0.8-1.4 1.8 0.9-0.9 1.5-2zm27-0.6q0.1 0.3 0.2 0.6 0.1-0.2 0.3-0.4-0.3-0.1-0.5-0.2zm-8.2-6.7c-1.7 0.6-2.8 2.6-3.3 4.3q-0.4 1.3-0.4 2.7c1-1 2.3-1.8 3.6-2.4 0.2-1.3 0.3-2.9 0.1-4.6zm-15.8 5.7q0.4 0.3 0.7 0.7c1.2-1.9 2.1-4.1 2.7-6.5q-1.3-0.3-2.5-1.1-0.6-0.5-1.1-1.2-0.2 0.7-0.3 1.4c0.5 1.8 0.5 3.6 0.2 5.4q0.2 0.6 0.3 1.3zm23.5-0.9q0.9 0.3 1.8 0.8 0.6-1 1-2.2c1.4-3.9 0.3-8.6-3.3-14.3-1.6-2.6-7.5-10.9-14.8-9.2q-0.5 0.1-0.9 0.3 3 2.4 4.6 5.3c0.8 1.7 1.3 3.7 1.3 5.7q0.9 0.7 1.6 1.6c1.2 1.7 2 3.6 2.3 5.4 3.1 0.1 5.3 3.2 6.4 6.6zm-62.1-20.6q-1.8 0-3.5 0.4c-3.7 0.7-6.7 2.8-8.1 5.6-2 4.3-0.2 9.2 1.1 11.7 0.5 1 1.2 2.1 2.1 2.7 0.8 0.5 1.7 0.7 2.6 0.7l0.2-0.3v0.3c1.2-0.2 2.4-0.6 3.3-1.3 1-0.7 1.8-1.6 2.6-2.5q-0.1-1.2-0.1-2.4c0-5.5 1.7-10.6 4.8-14.4q-0.6-0.1-1.3-0.2l0.8 0.7-2.5-0.4q-0.7-0.1-1-0.5-0.5-0.1-1-0.1zm21.1 13.5q1.2 0 2.1 0.8c0.9 0.7 1.4 1.8 1.5 3q0.1 1.9 0 3.7 0.9-0.7 1.6-1.6c-1.2-3.8-2.4-7.8-4.9-10.8q-0.7-0.8-1.4-1.5-2.4 2.8-2.6 8.1 0 0.1 0 0.2c0.8-0.9 1.8-1.5 2.9-1.8q0.4-0.1 0.8-0.1zm36.8 6.2q0 0 0 0 1.1 0 2.4 0.3c-0.9-2-2.3-4.2-4.4-4.4 0.2 1.5 0.1 3 0 4.3q1-0.2 2-0.2zm-36.8-13.7q0.8 0.8 1.5 1.6c2.4 3 3.7 6.7 4.9 10.3 1-1.5 1.8-3.3 2.1-5.2 0.5-2.5 0-5.3-1.8-6.9-1.5-0.5-3.1-0.8-4.8-0.8q-1 0.3-1.8 0.9-0.1 0.1-0.1 0.1zm-14.4-5.1c-3.1 3.5-4.9 8.5-5 14q0 0.3 0 0.6 0.4-0.5 0.8-1c3.9-4.9 8.6-8.4 13.5-10q0.1-0.1 0.3-0.1-3.8-2.2-9.4-3.5-0.1 0-0.2 0zm37.4 5.4c0.4 2.9 0.2 5.6-0.1 7.5q-0.1 0.3-0.1 0.6c1-0.1 2.1-0.4 3-1 2.1-1.3 3.1-3.4 3.3-5.7-1.1-0.8-2.5-1.3-3.9-1.5q-1.2-0.1-2.2 0.1zm-5.2 5.1c0.4 0.7 0.9 1.4 1.6 1.9q0.8 0.7 1.8 0.9 0.1-0.3 0.1-0.7c0.3-1.7 0.6-4.2 0.2-6.7q-0.6 0.2-1.1 0.6-1.5 1.3-2.5 3.8 0 0.1-0.1 0.2zm-10.3-7q2.1 0.8 3.9 2c2 1.5 3.6 3.4 4.6 5.6q0.1-0.2 0.2-0.5c-0.7-1.8-0.7-4-0.2-6.5 0.4-1.7 1.2-3.6 2.3-5.4-2.5-2.6-6.3-4.2-11.5-4.9-8.2-1-15.3 0.8-19.9 4.9 4.2 1 7.6 2.4 10.4 4.2q2.2-0.4 4.4-0.4c1.2-0.3 2.4-0.3 3.6 0q1.3 0.3 2.2 1zm11.8-3.5c-0.8 1.4-1.4 3-1.7 4.4-0.3 1-0.5 2.4-0.4 3.7q1-1.7 2.3-2.8 0.8-0.6 1.7-1c-0.4-1.5-1-3-1.9-4.3zm5 3.7q0.5 0 1.1 0.1c1.3 0.1 2.6 0.6 3.7 1.2-0.1-1.4-0.5-2.7-1.1-3.9q-1.5-2.9-4.8-5.3c-1.2 0.7-2.2 1.7-3 2.8 1.3 1.6 2 3.4 2.5 5.3q0.8-0.2 1.6-0.2zm-43.1-6c1.4 0.1 2.7 0.4 3.9 0.6q0 0 0 0c4.9-4.9 12.8-7.1 21.9-6 5.4 0.7 9.5 2.4 12.2 5.1 0.7-0.9 1.6-1.8 2.6-2.5q-0.9-0.6-1.9-1.1c-11.9-6.3-27.2-5.1-37.9 2.9-0.4 0.2-0.6 0.7-0.8 1z"/>
				</g>
			</g>
			<g id="&lt;Group&gt;">
				<path id="&lt;Path&gt;" class="s15" d="m430.5 432.6c-1 1.1-6.4 0.9-9.1 1.1-2.7 0.1-7-0.1-4.9-1.3q2.1-1.2 11-4.5c2.2-0.1 4 3.6 3 4.7z"/>
				<path id="&lt;Path&gt;" class="s16" d="m431.5 425.5l-1.8 3.5c-0.2 0.5-0.7 0.7-1.3 0.6l-0.6-0.1c-0.6-0.1-1-0.8-0.9-1.4l0.8-3.7z"/>
				<path id="&lt;Path&gt;" class="s17" d="m456.2 341.5c2 2.4 1.1 5.4-3.2 21-5.3 19.5-6.2 23.8-7 27.5-1.8 9-1.3 9.5-2.7 14.5-2.8 10.2-7.6 17.8-11.3 22.6q-2.7-0.5-5.4-1.1c3.1-13.6 4.1-24.9 4.4-32.8 0.4-11.3-0.5-17.6 1-29.1 1.3-9.9 3.6-17.8 5.4-23.1 5.3-1.6 15.2-3.9 18.8 0.5z"/>
				<path id="&lt;Path&gt;" class="s18" d="m453 362.5c-5.3 19.5-6.2 23.8-7 27.5-1.8 9-1.3 9.5-2.7 14.5-2.8 10.2-7.6 17.8-11.3 22.6q-2.7-0.5-5.4-1.1 0.4-1.8 0.8-3.5c8.1-7.4 10.7-14.1 11.4-19.1 1-7.4-2-11.6 0-22.6 1.4-8.2 3.9-10.4 5.3-16.1 1.5-5.6 1.7-13.6-3.1-24.7 5.3-1.2 12.3-2 15.2 1.5 2 2.4 1.1 5.4-3.2 21z"/>
				<path id="&lt;Path&gt;" class="s19" d="m483.8 434.7c-1 1.2-6.4 1-9.1 1.1-2.7 0.2-7-0.1-4.9-1.3q2.1-1.2 11-4.4c2.2-0.2 4 3.5 3 4.6z"/>
				<path id="&lt;Path&gt;" class="s20" d="m482.6 426.6v4.8q-1.1 0.5-2.7 0-2.6-4-2.1-4.3 1.6-1.1 4.8-0.5z"/>
				<path id="&lt;Path&gt;" class="s21" d="m463.2 334c6.1 0.9 8.9 6.4 9.2 7-4.8 20.5-1.8 33.9 2.1 42.5 2.7 5.9 6.5 11 8.7 20.5 2.2 9.7 1.5 18.3 0.5 24.2q-3.2 0.2-6.5 0.5c-5.3-14.4-10.1-25.7-13.4-33.3-5.8-13.3-9.4-20.3-11.9-31.8-1.9-9-2.2-16.6-2.1-21.5 2.4-5.7 8.1-8.9 13.4-8.1z"/>
				<path id="&lt;Path&gt;" class="s0" d="m410.5 286.6c2 3.9 16.3-13.9 21.5-17.2q6.5-4 3.3 25.3l-17.3 12.9z"/>
				<path id="&lt;Path&gt;" class="s22" d="m410.5 286.6c2 3.9 16.3-13.9 21.5-17.2q6.5-4 3.3 25.3l-17.3 12.9z"/>
				<path id="&lt;Path&gt;" class="s0" d="m432.6 265.1c2.1-1.6 4.6-2 5.3-2.1 1.3-0.2 3.8-0.4 7.6 1q8.7 3.4 14.5 11.3c2.9 3.9 4.6 7.6 9.7 27.5 3.5 13.5 2.2 10.1 6.5 28 3.9 16.8 5.4 21.6 2.6 24.2-3.2 3-10.1 1.1-16.1-0.5-7.3-2-7.3-3.9-12.4-4.9-11.1-2.2-18.2 5.6-21.5 2.7-2.5-2.3 1-7.6 3.2-18.8 2.3-11.3 1.5-20.2 0.6-31.8-0.6-6.3-1.6-14.4-3.8-23.7-1-5.2 0.4-10.2 3.8-12.9z"/>
				<path id="&lt;Path&gt;" class="s23" d="m433.6 259.2q2.7 3.8 5.4 4.3c2.7 0.5-7 2.2-8 5.9q0.3-2.5 1-3.7c0.3-0.5 0.4-1.1 0.1-1.6l-1.1-2.7z"/>
				<g id="&lt;Group&gt;">
					<path id="&lt;Path&gt;" class="s24" d="m427.3 256.3c-0.8-1.1-0.9-3.1 0.1-4.3 0.9-1.1 2.2-1.3 3-1.4 2.3-0.2 5.2 0.7 6.2 2.9 0.6 1.2-0.7 3.9-0.9 4.3-0.2 0.6-0.6 0.7-1 1.1-0.5 0.6-1.4 1.5-2.8 3-0.1-0.5-0.2-1-0.5-1.6-0.1-0.2-0.5-1.1-1.1-1.8-1.2-1.5-2.2-1.1-3-2.2z"/>
					<path id="&lt;Path&gt;" class="s25" d="m433.9 260.6q-1.5 2.5-4.5 2.3c-2.8-0.2-3.2-6.2-1.4-7.5 0.6-0.5 1.7-0.6 2.7-0.4 0.5 0.2 0.7 0.4 1.6 0.7 0.9 0.2 1.1 0.1 1.3 0.3 0.4 0.3 0.6 0.9 0.1 2.7 0.5-0.5 1.1-0.7 1.5-0.5 0.1 0 0.3 0.1 0.4 0.3 0.4 0.7-0.3 1.6-1.7 2.1z"/>
					<path id="&lt;Path&gt;" class="s26" d="m435.6 257.2q-0.1 0.1-0.3 0.5c-0.5 0.7-1 0.9-1.4 1.3-0.7 0.8-0.1 1.5-0.7 2.6-0.7 1.1-1.9 1.5-2.3 1.7-0.5 0.2-1.9 0.6-2.9-0.1-1-0.7-1.4-2.2-1-3.7 0.5 0 1.1-0.2 2-0.1 1.3 0.2 1.6 0.7 2.4 0.6 1.4-0.1 2.7-1.8 2.7-3.1-0.1-0.7-0.5-1.2-0.3-1.3 0.2-0.1 1.1 0.8 1.8 1.6z"/>
					<path id="&lt;Path&gt;" class="s27" d="m428 260.1q0.6 0.3 1.6 0.2 0.1 0 0.1 0.1c0 0.1-0.6 0.5-1.2 0.3-0.4-0.1-0.8-0.5-0.7-0.6 0 0 0.1 0 0.2 0z"/>
				</g>
				<g id="&lt;Group&gt;">
					<path id="&lt;Path&gt;" class="s28" d="m413.2 260.6c2 2 21 21.2 16.1 48.4-4.8 26.9-28.6 38.4-32.8 40.4-19.9 9.1-45.6 7.2-63-8.2-12.1-10.7-19.4-27.2-18.8-42 0.2-4.2 1-8 1.6-11.3 1.9-9.1 4.3-20.8 11.9-29 7.2-7.8 16.5-9.7 24.2-11.3 9.3-1.9 39.4-8 60.8 13z"/>
					<path id="&lt;Path&gt;" class="s29" d="m424.6 323.1c-8.7 16.9-24.7 24.7-28.1 26.3-19.9 9.1-45.6 7.2-63-8.2-12.1-10.7-19.4-27.2-18.8-42 0.2-4.2 1-8 1.6-11.3 1.9-9.1 4.3-20.8 11.9-29 7.1-7.7 16.3-9.7 24-11.3-6.4 6.6-7.5 11.4-7 14.8 1.7 12.9 26.1 12.4 34.9 31.8 6.9 15-2.7 26.4 3.7 33.4 4.4 4.7 15.2 6 40.8-4.5z"/>
					<path id="&lt;Path&gt;" class="s30" d="m389.5 266.7c-0.8 9.4-3.8 18.8-7.1 27.6-3.2 8.5-7.1 16.8-11.8 24.6-4.2 7-8.9 13.8-14.7 19.6-3.6 3.7-9.5 9.3-15.2 7.3-0.8-0.3-0.4-1.5 0.3-1.2 6.3 2.2 13.3-5.9 16.9-10.1 10.9-12.6 18.8-27.9 24.3-43.5 2.9-8.1 5.7-16.7 6.2-25.3 0.2-3.3 0.1-6.7-0.2-10-0.3-3.2-1-6.9-3.6-9-0.2-0.1 0-0.5 0.3-0.3 2.6 1.9 3.6 5 4.1 8.1 0.6 4 0.8 8.2 0.5 12.2z"/>
					<path id="&lt;Path&gt;" class="s31" d="m400 272.8c-0.1 18.9-9.9 35.2-19.9 50.5-4.7 7.3-9.9 14.7-16.4 20.5-5.3 4.8-11.8 8.4-18.5 5.7q-0.3 0-0.4-0.2-0.8-0.3-1.7-0.9c-0.3-0.2-0.3-0.4-0.2-0.6h-0.1c-0.3-0.5 0.3-1.2 0.7-0.7 0.3 0.3 2.8-0.5 3.2-0.6 1.4-0.4 2.9-1.2 4.2-2 2.1-1.1 4-2.6 5.7-4.2 3.6-3.1 6.8-6.7 9.8-10.4 6.3-7.6 11.6-16.1 16-24.9 4.3-8.9 7.6-18.5 9.2-28.3 0.7-5 1.2-10.3 0.7-15.4-0.5-5-2.5-9.6-4.2-14.3-0.1-0.2 0.2-0.3 0.3-0.1 4.5 8.2 5.6 16.4 4.7 25.6-1.5 16-8 31.3-16.4 44.7-4.3 6.9-9.1 13.4-14.7 19.2-2.6 2.7-5.3 5.4-8.4 7.5-1.7 1.2-3.7 2.3-5.7 3.2-1.1 0.4-2.3 0.6-3.4 0.9q0.5 0.3 1.1 0.5c9.9-1.3 17.9-9.2 23.8-16.7 6.5-8.1 11.7-17.3 16.2-26.7 4.6-9.6 9-19.8 9.6-30.6 0.2-5.3-0.4-10.6-1.6-15.8-0.6-2.7-1.5-5.3-2.7-7.8-0.8-1.5-1.4-2-1.3-3.8 0-0.3 0.5 0.3 0.5 0.6 0.2 2.2 1.9 3.4 2.8 5.5 0.9 2.1 1.5 4.4 2 6.6 0.9 4.5 1.4 9.2 1.3 13.8-0.2 8.6-3 16.5-6.3 24.3-3.3 7.9-7.1 15.6-11.6 22.9-4.3 7-9.1 13.8-15.2 19.5-4.1 3.8-9.5 7.8-15.3 8.9 8 1.5 15.6-6.1 20.6-12 5.4-6.2 9.9-13 14.2-20 4.7-7.4 9.1-14.7 12.1-23 2.8-7.6 4.5-15.7 4.2-23.8-0.2-4.7-1-9.2-2.9-13.6q-1.3-2.8-2.8-5.5c-0.8-1.4-1.4-2.5-2.5-3.6-0.3-0.3 0.3-0.3 0.5 0 1.5 1.3 2.1 2.3 3.1 4 1.2 2 2.3 4 3.2 6.1 1.9 4.7 2.5 10 2.5 15z"/>
					<path id="&lt;Path&gt;" class="s32" d="m406.7 342.6c-8.1-2.3-15.2-7.2-21.6-12.6-11.6-9.7-20.9-21.9-28.4-35-4.2-7.2-7.8-14.9-10.6-22.8-1.3-3.8-2.5-7.7-3.4-11.6-0.8-3.5-0.5-7.2-1.5-10.6-0.2-0.4 0.5-0.6 0.6-0.2 0.6 1.8 0.6 3.6 0.8 5.4 0.3 2.7 1 5.3 1.7 7.9 1.3 4.7 3 9.4 4.8 14 3.9 9.4 8.8 18.4 14.5 26.9 5.4 7.9 11.5 15.4 18.6 22 7.1 6.6 15.4 12.8 24.8 15.5 0.7 0.2 0.4 1.3-0.3 1.1z"/>
					<path id="&lt;Path&gt;" class="s33" d="m403.6 344.7c-1.1-0.4-2.1-0.3-3.2-0.5-1.3-0.3-2.5-1.1-3.7-1.8-2.3-1.4-4.6-2.9-6.7-4.7-3.6-3-6.9-6.4-10.1-9.7-6.7-6.9-13.1-14.1-18.7-21.9-5.5-7.8-10.3-16.2-14.1-24.9-4.2-9.6-6.1-20.9-6.5-31.3-0.1-0.4-0.7-0.4-0.7 0-0.7 32.7 20.7 60.7 42.7 82.6 3.1 3 6.2 6 9.7 8.5 1.8 1.3 3.7 2.5 5.7 3.5 1.8 0.9 3.4 0.7 5.3 1.3 0.7 0.2 1-0.8 0.3-1.1z"/>
					<path id="&lt;Path&gt;" class="s34" d="m400.1 347.8c-8.2-2.8-14.3-8.8-20.3-14.8-11-11.2-21.7-23.1-29.5-37-7.6-13.6-12.9-30-12-45.7 0-0.4 0.6-0.4 0.6 0 0.7 10.2 2 20 5.4 29.7 3.3 9.4 8.1 18.1 13.8 26.2 5.7 8 12.2 15.3 18.9 22.3 6.9 7.1 13.8 14.9 23.4 18.2 0.7 0.2 0.4 1.3-0.3 1.1z"/>
					<path id="&lt;Path&gt;" class="s35" d="m396 349.7c-7.5-4.3-13.9-10.5-20.3-16.2-11.3-9.9-21.2-21.9-27.9-35.5-3.5-7.1-6.3-14.5-8.7-22-1.2-3.9-2.3-7.8-2.9-11.8-0.5-4.1 0.3-7.9 0.3-11.9 0-0.5 0.6-0.5 0.7 0 0.3 2.6-0.3 5.3-0.2 8 0.1 2.8 0.6 5.6 1.2 8.3 1.1 4.7 2.7 9.4 4.4 14 3.4 9.2 7.4 18 12.8 26.1 5.2 7.9 11.5 15.1 18.5 21.6 3.3 3.1 6.8 6 10.3 9 3.9 3.4 7.9 6.8 12.4 9.4 0.6 0.4 0 1.4-0.6 1z"/>
					<path id="&lt;Path&gt;" class="s36" d="m428.9 308.9h-0.5c-0.4 0-0.6-0.4-0.5-0.7-3.3-2.9-7.5-4.5-11.6-6q-6.9-2.6-14.2-4.2c-9.9-2.3-20-4-30.1-4.9-9.8-0.8-19.9-0.7-29.7 0.2-5.3 0.5-10.6 1.2-15.7 2.8-4.3 1.4-8.6 2.9-12.9 4.4-0.3 0.2-0.4-0.3-0.1-0.4 2.2-1 4.1-2 6.4-2.7 2.4-0.8 4.8-1.7 7.3-2.5 4.8-1.5 10-2.1 15-2.6 10.5-1 21.2-1.1 31.8-0.1 10.1 1 20.4 2.7 30.3 5.1q7.4 1.9 14.6 4.7c3.7 1.5 7.3 3.2 10.3 5.9 0.4 0.4 0.1 1-0.4 1z"/>
					<path id="&lt;Path&gt;" class="s37" d="m429.8 303.8c-0.2 0.4-0.4 0.4-0.8 0.4-0.8 0.1-0.8-1.1 0-1.1-1.3 0-2.1-0.7-3.2-1.3-1.2-0.6-2.4-1.1-3.7-1.6q-3-1.1-6.1-1.9c-4.6-1.3-9.3-2.3-13.9-3.2-10.1-2-20.2-3.3-30.4-4-19.4-1.2-39.7-0.8-57.7 7.1-0.4 0.1-0.6-0.3-0.3-0.5 17.6-9.2 39.6-8.9 59-7.7 10.3 0.7 20.6 2.1 30.7 4.2 5.3 1.1 10.7 2.2 15.9 3.8 3.7 1.2 7.5 2.5 10.4 5.1 0.2 0.2 0.3 0.5 0.1 0.7z"/>
					<path id="&lt;Path&gt;" class="s38" d="m430.4 302.5c-6-5.9-15.6-7.2-23.5-8.8-10.6-2.1-21.2-3.4-32-4-10.3-0.6-20.7-0.7-31 0-10 0.7-20.6 1.9-29.6 6.7-0.3 0.2-0.6-0.3-0.3-0.5 7.4-4.7 16.2-6 24.8-6.9 17.3-1.8 35.1-1.1 52.3 1q11.8 1.5 23.4 4.2c5.9 1.4 12.2 3.1 16.7 7.5 0.5 0.5-0.3 1.3-0.8 0.8z"/>
					<path id="&lt;Path&gt;" class="s39" d="m430.3 299.9c-1.7-1.4-3.3-2.8-5.2-3.9-2.3-1.2-4.9-1.8-7.4-2.5-4.7-1.4-9.6-2.4-14.5-3.2-10.4-1.8-21.1-2.3-31.6-3.3-10.6-0.9-21.5-1.9-32-0.4-4.9 0.8-9.7 1.7-14.4 3.2-3.2 1.1-7.6 1.5-10.3 3.4-0.3 0.2-0.6-0.2-0.4-0.5 1.9-1.8 4.9-2.1 7.3-2.9 4.5-1.4 8.8-2.9 13.5-3.7 3.9-0.5 7.8-1.2 11.7-1.4 4.2-0.1 8.4 0.2 12.6 0.4 8.9 0.5 17.8 1.6 26.7 2.1 8.2 0.5 16.2 1.7 24.2 3.3 4.1 0.9 8.1 2 12.1 3.3 3.2 1.1 5.6 3 8.3 5.1 0.6 0.4 0 1.4-0.6 1z"/>
					<g id="&lt;Group&gt;">
						<path id="&lt;Path&gt;" class="s40" d="m373.6 246.2c-3.6 2.4-5.7 6.6-7.5 10.3-1.9 3.7-3.8 7.5-5.6 11.3-4.5 9.4-7.8 19.2-10.6 29.3-2.8 10.1-5 20.4-6.3 30.9-0.3 3-0.8 6.1-1.1 9.1-0.3 2.5-1.3 7.3 0.6 9.4 0.5 0.5-0.4 1.4-0.9 0.8-1.4-1.6-1.2-4.1-1.2-6 0.1-2.9 0.5-5.8 0.9-8.6 2.4-16.9 5.7-33.2 11.1-49.4 2.8-8.1 6.5-15.7 10.4-23.3 2.5-4.9 4.9-11.4 9.9-14.2 0.3-0.2 0.5 0.3 0.3 0.4z"/>
						<path id="&lt;Path&gt;" class="s41" d="m369.8 245.7c-2.7 2-4.4 5.7-6 8.6-2.1 4-4.1 8.2-5.7 12.4-3.3 8.2-5.6 16.9-8.4 25.2-2.9 8.8-5.1 17.8-6.7 26.8-1.7 8.9-3.7 18.5-1.9 27.5 0.1 0.7-1 1-1.2 0.3-1.8-8.9 0.2-18.3 1.8-27.1 1.7-9.7 4.1-19.3 7.2-28.7 3-8.8 5.4-18.1 9.2-26.6 1.9-4.2 3.8-8.4 6.1-12.3 1.4-2.3 2.9-5.2 5.4-6.5 0.2-0.2 0.4 0.2 0.2 0.4z"/>
						<path id="&lt;Path&gt;" class="s42" d="m366.6 244.7c-1.9 4.3-4.7 8.1-7 12-2.4 3.9-4.4 7.9-6.1 12.2-3 7.9-5.8 16.1-7.8 24.3-2.2 8.6-4.3 17.4-5.8 26.1-0.7 4.1-1 8.2-1.6 12.3-0.7 4.2-1.7 8.5-0.5 12.7 0.2 0.7-0.9 1-1.1 0.3-1-3.4-0.6-6.9-0.1-10.4 0.7-4.2 1.1-8.4 1.8-12.6 1.4-9.3 3.7-18.6 5.9-27.7 2.2-8.8 5.2-17.8 8.6-26.2 3.2-8.2 8.1-16.1 13.4-23.1 0.1-0.2 0.4 0 0.3 0.1z"/>
						<path id="&lt;Path&gt;" class="s43" d="m362.4 245.9c-1.7 3.6-4.7 6.4-6.6 9.9-2 3.5-3.6 7.3-5.2 11-3.5 8.2-5.5 16.7-7.9 25.3-4.6 16.7-10.9 34.6-6.8 51.9 0.2 0.7-0.8 1-1 0.3-2.7-7.9-1.5-17.3-0.1-25.4 1.5-8.9 4.1-17.5 6.5-26.1 2.4-8.6 4.3-17 7.8-25.1 1.7-4.1 3.5-8.2 5.6-12 2-3.7 5-6.5 7.2-10.1 0.2-0.3 0.6 0 0.5 0.3z"/>
					</g>
					<g id="&lt;Group&gt;">
						<path id="&lt;Path&gt;" class="s44" d="m413 261.4c-2.4 4.3-4.5 8.6-7.5 12.6-2.9 3.8-6 7.5-9.4 11-6.8 7.2-14.5 13.7-22.8 19.1-8.6 5.6-17.9 10.8-27.4 14.7-4.5 1.9-9 4.2-13.6 5.8-2.4 0.9-4.8 1.4-7.2 2.2-1 0.3-2.2 0.9-3.3 0.5-0.7-0.3-0.4-1.5 0.3-1.2 1.4 0.5 4.8-1.1 6.1-1.4 2.4-0.7 4.8-1.5 7.2-2.6 4.5-1.9 9.2-3.7 13.6-5.9 8.5-4.2 17-8.6 24.9-13.8 8.1-5.4 15.5-11.8 22.2-18.8 3.5-3.7 6.8-7.5 9.8-11.7 2.5-3.4 4.2-7.5 6.8-10.8 0.1-0.2 0.5 0.1 0.3 0.3z"/>
						<path id="&lt;Path&gt;" class="s45" d="m414.6 261.8c-2 4.4-3.8 9-6.4 13.2-2.5 3.9-5.4 7.7-8.6 11.2-6.4 7.2-13.8 13.6-22.1 18.7-8.8 5.5-18.3 10.4-27.7 15-4.6 2.2-9.2 4.5-14 6-2.4 0.8-4.8 1.4-7.2 2.1-1.8 0.6-3.6 1.3-5.6 1.3-0.7 0-0.7-1.2 0-1.2 2.4 0 4.7-1 6.9-1.7 2.2-0.6 4.4-1.1 6.5-1.9 5-1.7 9.9-4.1 14.6-6.4 8.8-4.4 17.7-8.9 26-14.1 8.2-5.1 15.5-11.4 21.9-18.6 3.3-3.7 6.4-7.5 9-11.7 2.4-3.9 4-8.2 6.4-12.1 0.1-0.3 0.5-0.1 0.3 0.2z"/>
						<path id="&lt;Path&gt;" class="s46" d="m416.1 263.6c-1.1 1.1-1.6 4.5-2.1 5.9-0.7 2-1.6 3.8-2.7 5.7-2.2 3.6-4.9 6.9-7.7 10.2-11.2 13.2-24.9 22.7-40.1 30.6-7.6 4-15.4 7.5-23.2 10.9-3.4 1.4-6.9 2.9-10.4 4.2-1.5 0.5-4 1.6-5.6 0.5-0.6-0.4 0-1.4 0.6-1 1.3 0.9 4-0.4 5.3-0.9q3-1.2 5.9-2.4 7.8-3.1 15.4-6.6c9.2-4.2 18.2-8.9 26.7-14.4 8.8-5.6 16.6-12.3 23.4-20.2 3.5-3.9 6.9-8.1 9.6-12.6 1.4-2.3 2.3-4.8 3.2-7.4 0.3-0.9 0.6-2.2 1.3-2.9 0.3-0.2 0.6 0.2 0.4 0.4z"/>
						<path id="&lt;Path&gt;" class="s47" d="m417.3 265c-1.8 8.2-6.2 15.9-11.3 22.5-9.4 12.2-22.2 22.2-35.9 29.2-7.9 4.1-16.2 7.9-24.2 11.7-3.7 1.7-7.4 3.5-11.3 4.7-2.4 0.7-5.5 2-8 1.4-0.7-0.2-0.4-1.3 0.3-1.1 2 0.5 4.5-0.6 6.5-1.2 2.7-0.7 5.2-1.8 7.8-3 4.7-2.1 9.2-4.3 13.8-6.6 9.2-4.4 18.4-8.4 26.8-14.2 15.7-10.8 29.1-25.2 34.9-43.6 0.1-0.4 0.7-0.2 0.6 0.2z"/>
					</g>
				</g>
				<path id="&lt;Path&gt;" class="s48" d="m464.3 354.9q-0.8-0.2-1.6-0.4c-7.3-2-7.3-3.9-12.4-4.9-11.1-2.2-18.2 5.6-21.5 2.7-2.5-2.3 1-7.6 3.2-18.8 2.3-11.3 1.5-20.2 0.6-31.8-0.6-6.3-1.6-14.4-3.8-23.7-0.5-2.6-0.4-5.2 0.2-7.4 2.9-2.6 7.9-6.1 13.5-5.5 10.7 1.3 15.9 16.6 17.2 24.8 1.1 6.7-0.4 8.6-0.5 15.6-0.3 24.3 17.9 36.8 12.9 45.2-1 1.6-3 3.4-7.8 4.2z"/>
				<g id="&lt;Group&gt;">
					<path id="&lt;Path&gt;" class="s49" d="m416.4 320q-5.4 0.6-7.5-1.1c-2.2-1.6-1.6-2.1 1.1-1.6q2.7 0.6 3.7 0c-1-1.6-1-3.7 0.6-1.1q1.6 2.7 2.1 2.7z"/>
					<path id="&lt;Path&gt;" class="s0" d="m431 313c8.7-7.8 8.6-24.2 8.6-26.4-0.1-5.7-1.3-9.9 1.6-13.4 1.7-2.1 4.7-3.7 7.5-3.2 6.8 1.1 9 14.4 9.2 15.6 2.3 14.8-6 36.4-22.6 39.8-8.4 1.7-15.9-1.8-20-4.3q0.6-1.6 1.1-3.2c8.3-0.2 12.6-3.1 14.6-4.9z"/>
				</g>
			</g>
			<g id="&lt;Group&gt;">
				<path id="&lt;Path&gt;" class="s50" d="m181.8 437.5c1.4 1.2 2.9 2.6 2.8 3.1-0.1 0.5-1.1 0.6-4.2-0.7-2.1-0.8-3.4-1.8-4.1-2.3-0.2-0.2-0.4-0.5-0.4-0.9q0-1.2 0.7-1.8 3.9 1.4 5.2 2.6z"/>
				<path id="&lt;Path&gt;" class="s51" d="m179 430.5q-0.4 1.8 0.4 5.9-1.7 1.1-2.9 0 0.1-1.6-0.9-6.2z"/>
				<path id="&lt;Path&gt;" class="s52" d="m147.8 439.8c1.1 1.3 2.5 2.9 2.3 3.4-0.2 0.5-1.2 0.4-4-1.2-2-1.2-3.2-2.3-3.8-2.9-0.2-0.2-0.3-0.6-0.3-0.9q0.2-1.2 1-1.8 3.6 2 4.8 3.4z"/>
				<path id="&lt;Path&gt;" class="s53" d="m144.9 432.6q-0.4 1.7 0.4 5.9-1.7 1-2.9 0 0.1-1.7-0.9-6.3z"/>
				<path id="&lt;Path&gt;" class="s54" d="m187.5 335.1c0.3 13.6 0.1 28.3-0.8 43.8-1.1 19.4-3.2 37.4-5.7 53.8-1 0.3-2.2 0.5-3.7 0.5-1.1 0-2-0.2-2.7-0.3-0.4-2-1.1-4.9-1.9-8.5-1.6-6.5-2-7.3-2.4-9.6-2-9.2 0.6-11.8-0.7-21.3-0.3-2.1-0.4-1.9-3.2-12-3.5-12.6-5.2-18.8-6-23.6-2.2-12.9-3.3-19.4 0.3-23.3 4.7-5.2 15.7-4.4 26.8 0.5z"/>
				<path id="&lt;Path&gt;" class="s55" d="m181.4 429.7q-0.2 1.5-0.4 3c-1 0.3-2.2 0.5-3.7 0.5-1.1 0-2-0.2-2.7-0.3-0.4-2-1.1-4.9-1.9-8.5-1.6-6.5-2-7.3-2.4-9.6-2-9.2 0.6-11.8-0.7-21.3-0.3-2.1-0.4-1.9-3.2-12-3.5-12.6-5.2-18.8-6-23.6-2.2-12.9-3.3-19.4 0.3-23.3 3.9-4.3 11.9-4.5 20.9-1.7-8 11.3-9.1 20-8.5 25.9 0.9 8.7 5.4 12.5 4.7 23.8-0.4 6-1.8 7.9-1.3 14.4 0.6 7.1 2.5 7.9 2.5 14.2 0.1 7.3-2.6 9.4-1.1 13.7 0.7 2 2 3.5 3.5 4.8z"/>
				<path id="&lt;Path&gt;" class="s56" d="m172.8 334.1c-5.5 14.9-10.8 31.5-15.6 49.6-4.6 17.6-8 34.2-10.6 49.5-0.7 0.3-2 0.8-3.8 0.8-1.5 0-2.7-0.5-3.3-0.8-1.8-4.4-3.7-10.3-4.7-17.3-0.7-4.4-1.5-9.3-0.9-15.6 0.8-8.3 3.1-9.6 4.1-17.9 0.8-6.1-0.2-7.3-0.4-16.2-0.4-13.8-0.6-21 2.8-25.9 7.4-10.5 28.9-6.9 32.4-6.2z"/>
				<path id="&lt;Path&gt;" class="s57" d="m135.4 272.5c2.4-2.5 10.5-10.4 23.8-12.3 13.6-2 23.8 3.4 26.7 5.1 5.8 12.7 5.7 21.9 4.5 28-0.8 3.7-1.7 5.1-2.1 9.7-0.7 7.9 1.3 11.4 3 21.5 0.5 3 3.5 19.9-0.1 21.2-2 0.8-3.5-3.9-9.1-5.1-3.9-0.7-5.2 1.1-10.2 0.7-4.6-0.4-4.8-2.1-8.6-2.6-5.9-0.9-8.1 2.9-19.5 6.4-5.7 1.7-10 3-12.1 0.9-1.3-1.4-1.3-3.7-0.2-8.6 2.3-10 5.3-13.9 7.4-19.9 2.2-6.7 1.9-12 1.4-21.1-0.6-9.2-2.6-17.3-4.9-23.9z"/>
				<path id="&lt;Path&gt;" class="s58" d="m191.2 345.7c-2 0.8-3.5-3.9-9.1-5.1-3.9-0.7-5.2 1.1-10.2 0.7-4.6-0.4-4.8-2.1-8.6-2.6-5.9-0.9-8.1 2.9-19.5 6.4-5.7 1.7-10 3-12.1 0.9-1.3-1.4-1.3-3.7-0.2-8.6 2.3-10 5.3-13.9 7.4-19.9 2.2-6.7 1.9-12 1.4-21.1-0.4-6.1-1.4-11.8-2.7-16.8q0.1 0.2 0.4 0.5c3.5 4.4 9.8 1.5 16.5 6.9 5.6 4.6 7.2 11.4 7.6 13.4 2.5 10.5-3 16.3 0.5 19.9 3.7 3.9 11.1-1.7 16.5 2.6 4.4 3.5 2 9 6 13 1.4 1.3 3.8 2.6 7.8 2.8 0.1 3.6-0.3 6.5-1.7 7z"/>
				<path id="&lt;Path&gt;" class="s59" d="m137.9 317.6c-1 0-14.4-1.2-19.6-11.6-5.5-10.8 2.6-22.3 5-25.8 9.4-13.6 31.4-21.8 35-17.6 2.7 3-5.2 14-8.8 18.9-6.5 8.9-13.5 9.3-15.1 15.6-0.7 3-0.3 7.7 5.8 15q-1.2 2.8-2.3 5.5z"/>
				<g id="&lt;Group&gt;">
					<path id="&lt;Path&gt;" class="s60" d="m164.5 251.9c-0.9 1.9-1.6 4.3-0.5 5.9 1.6 2.6 6.4 1.7 6.7 3 0.2 1.2-3.3 3.4-7 4.1-6.3 1.3-12.4-1.6-12.3-2.5 0-0.4 1.3-0.1 3.5-1.1 0.9-0.4 3.1-1.4 4.3-3.6 1.3-2.5 0.7-5.3 0.3-6.5 1.2 1 3.8-0.3 5 0.7z"/>
					<g id="&lt;Group&gt;">
						<path id="&lt;Path&gt;" class="s61" d="m164.4 253.7c-0.4 0.8-0.6 1.6-0.6 1.9q-0.2 0.8-0.2 1.5c-1.4-1.1-2.2-1.8-2.7-2.2-0.4-0.3-0.8-0.4-1-0.9-0.3-0.4-1.7-2.5-1.4-3.8 0.5-2.1 2.8-3.4 4.7-3.6 0.7 0 1.8-0.1 2.7 0.7 0.9 1 1.2 2.8 0.7 4-0.5 1.1-1.4 0.9-2.2 2.4z"/>
						<path id="&lt;Path&gt;" class="s62" d="m160.1 254.6c0-0.2 0.2-0.3 0.2-0.3 0.4-0.3 0.9-0.2 1.4 0.2-0.7-1.6-0.6-2.2-0.4-2.5 0.2-0.2 0.4-0.2 1.1-0.5 0.7-0.4 0.8-0.6 1.2-0.8 0.8-0.4 1.7-0.5 2.3-0.2 1.6 0.9 2.2 6.5 0 7.1q-2.5 0.7-4.1-1.3c-1.3-0.3-1.9-1-1.7-1.7z"/>
					</g>
				</g>
				<path id="&lt;Path&gt;" class="s63" d="m139.4 314q2.1-2.3 3.9-1.9 1.8 0.5 4.1 2.7 0 2.1-1.7 1.5-1.7-0.6-7.3 0.1z"/>
				<path id="&lt;Path&gt;" class="s64" d="m173.6 260.9c3.5 0.2 8.7 1 13.9 3.9 7.5 4.4 7.6 9.2 13.9 11.3 6.5 2.3 14.1-0.3 19.1-4.3 3.9-3.2 5.7-7.1 6.5-9.1q1.9 0.4 3.9 0.8c-0.1 4.1-1.1 13.3-7.8 20-13.2 13.2-41.7 9.6-49.1-4.8-3.2-6.2-1.8-13.3-0.4-17.8z"/>
				<path id="&lt;Path&gt;" class="s65" d="m226.7 261.8q-1.2-2.3-0.5-2.6c0.7 0 1.4 1.2 1.8 2.1 0.3 0.6 1 0.8 1.6 0.5 2-1.2 4.7-1.5 6.3-1.7 0.7 0 1.2 0.8 0.8 1.3q-2.6 3.3-7.2 3.8c-2.2 0.1-2.4-2.6-2.8-3.4z"/>
			</g>
		</g>
	</g>
</svg>