<svg version="1.2" xmlns="http://www.w3.org/2000/svg" viewBox="0 0 600 500" width="600" height="500">
	<title>10172-ai</title>
	<style>
		.s0 { fill: #ffffff } 
		.s1 { fill: #f7cc7f } 
		.s2 { fill: #50bfa5 } 
		.s3 { fill: #07345a } 
		.s4 { fill: #f47458 } 
		.s5 { fill: #355389 } 
		.s6 { fill: #5184ce } 
		.s7 { fill: #466eb6 } 
		.s8 { opacity: .3;mix-blend-mode: multiply;fill: #184655 } 
		.s9 { fill: #184655 } 
		.s10 { fill: #cce6ff } 
		.s11 { fill: #e9ffff } 
		.s12 { opacity: .6;fill: #9bc1f9 } 
		.s13 { opacity: .3;mix-blend-mode: multiply;fill: #9bc1f9 } 
		.s14 { fill: #13375b } 
		.s15 { fill: #9bc1f9 } 
		.s16 { fill: #96d9c9 } 
		.s17 { fill: #a34b3d } 
		.s18 { fill: #b75742 } 
		.s19 { fill: #f7a491 } 
		.s20 { fill: #e0973f } 
		.s21 { fill: #dd513a } 
		.s22 { fill: #0e2e35 } 
		.s23 { fill: #e25a44 } 
		.s24 { fill: #f38b80 } 
		.s25 { opacity: .5;fill: #f47458 } 
		.s26 { fill: #f48c7f } 
		.s27 { opacity: .6;fill: #c5ddf9 } 
		.s28 { mix-blend-mode: soft-light;fill: #ffffff } 
		.s29 { opacity: .5;mix-blend-mode: multiply;fill: #50bfa5 } 
		.s30 { fill: #f8a492 } 
	</style>
	<g id="Layer 1">
		<g id="&lt;Group&gt;">
			<g id="&lt;Group&gt;">
				<path id="&lt;Path&gt;" class="s0" d="m0 0h600v500h-600z"/>
			</g>
		</g>
		<g id="&lt;Group&gt;">
			<path id="&lt;Compound Path&gt;" fill-rule="evenodd" class="s1" d="m491.8 97c30.1 7.6 48.3 38.3 40.7 68.4-7.7 30-38.3 48.3-68.4 40.6-30.1-7.6-48.3-38.3-40.7-68.3 7.7-30.1 38.3-48.4 68.4-40.7zm-26.1 95.1c22.5 6.8 46.1-5.9 52.9-28.4 6.7-22.4-6-46.1-28.4-52.8-22.5-6.8-46.1 5.9-52.9 28.4-6.7 22.4 6 46.1 28.4 52.8z"/>
			<path id="&lt;Compound Path&gt;" fill-rule="evenodd" class="s1" d="m392 112.6c1.3-1.3 2.8-1 7-0.2 5.1 1 10.1 2.1 15.3 3 0.9 0.2 2.4-0.3 3-1 3.8-4.7 7.4-9.5 11.3-14.1 1.1-1.4 1.5-2.3 0.8-4-2.6-5.8-5-11.7-7.4-17.5-0.4-1-0.8-1.9-1.4-3.6 8.3-4.4 16.6-8.7 25.1-13.1 4.2 6.4 8.2 12.1 12 18 1.3 2.1 2.4 2.8 5.1 2.3 5.4-0.9 11-1.2 16.5-1.9 0.9-0.1 2-0.9 2.4-1.6 2.6-5.9 5.2-11.8 7.4-17.8 1.1-2.9 2.6-3.5 5.3-2.7 1.1 0.3 2.2 0.3 3.3 0.4q7.1 2.2 14.2 4.3c0.4 0.3 0.9 0.7 1.4 0.9 5.2 2.2 4.5 1.5 3.5 6.8-1.2 6.4-2.6 12.7-3.7 18.3 6.3 5.2 12.1 10 18.2 15.1 7.2-3 14.7-6.2 22.2-9.3 5.9 7.7 10 16 13.2 25-6.3 4.2-12.5 8.3-18.6 12.3-1.2 0.8-1.7 1.4-1.4 3 0.9 6.1 1.6 12.3 2.1 18.5 0.1 1.8 0.7 2.4 2.2 3 6 2.5 12 5.1 18 7.6 1.5 0.6 2.2 1.3 1.9 3.1-1.1 8.2-3.9 15.8-7.4 23.2-0.7 1.5-1.6 1.4-3 1.1-6.2-1.3-12.4-2.4-18.6-3.8-1.8-0.4-2.7-0.1-3.9 1.5-4.1 5.6-8.6 11-13.2 16.9 2.7 6.5 5.8 13.9 8.8 21.3-7.7 6-16 10.5-25.1 13.5-4.5-6.9-8.9-13.6-12.9-19.7-6.8 0.5-13.1 1.1-19.4 1.3-2.4 0.1-3.5 0.8-4.3 3-2.3 5.8-4.8 11.6-7.2 17.3-0.5 1.2-0.8 2.8-2.7 2.2q-11.8-3.7-23.6-7.3c-1.6-0.5-2-1.6-1.6-3.3 1.4-6.3 2.5-12.6 3.9-18.9 0.6-2.4-0.3-3.4-2.1-4.8-4.3-3.3-8.6-6.7-12.6-10.5-1.7-1.6-2.7-1.8-4.7-0.9-6.6 3-13.2 5.7-19.7 8.4-4.1-4.1-11.8-18.9-13.4-25.4 6.1-4 12.3-8.1 18.5-12 1.6-1 1.8-1.9 1.6-3.7-0.7-5.6-1-11.3-1.6-16.9-0.1-0.9-0.9-2.2-1.8-2.6-5.3-2.3-10.6-4.4-16-6.6-3-1.1-4.2-1.6-4.5-3zm35.9 68.7c8 13.4 20.7 22.9 35.7 26.7 15.1 3.8 30.8 1.5 44.2-6.4 13.3-8 22.8-20.6 26.7-35.7 3.8-15.1 1.5-30.8-6.4-44.2-8-13.3-20.7-22.8-35.8-26.6-15-3.9-30.7-1.6-44.1 6.3-13.4 8-22.8 20.7-26.7 35.8-3.8 15.1-1.5 30.7 6.4 44.1z"/>
		</g>
		<path id="&lt;Compound Path&gt;" fill-rule="evenodd" class="s2" d="m57.9 196.4c0.1-1.5 1.2-2.2 4.1-3.8 3.6-2.1 7.3-4.1 10.9-6.2 0.7-0.4 1.3-1.5 1.3-2.3-0.1-4.8-0.5-9.6-0.6-14.5 0-1.4-0.2-2.1-1.5-2.8-4.6-2.2-9.2-4.5-13.7-6.7-0.8-0.4-1.5-0.8-2.8-1.5 2.8-7 5.5-14 8.3-21.1 6 1.6 11.4 3 16.8 4.6 1.9 0.6 3 0.4 4.3-1.3 2.8-3.4 6.1-6.5 9.1-9.8 0.5-0.5 0.7-1.6 0.5-2.3-1.5-4.9-3-9.9-4.8-14.7-0.9-2.3-0.3-3.5 1.8-4.4 0.8-0.3 1.5-1 2.2-1.5q5.4-2.4 10.9-4.8c0.4-0.1 0.9-0.1 1.3-0.2 4.4-1.4 3.5-1.5 5.7 2.3 2.6 4.5 5.2 9.1 7.4 13 6.5-0.1 12.6-0.3 19-0.4 2.7-5.6 5.7-11.4 8.6-17.3 7.6 1.6 14.4 4.5 21.1 8.3-1.6 5.8-3.2 11.5-4.8 17.2-0.3 1.1-0.3 1.7 0.7 2.5 3.8 3.3 7.5 6.7 11 10.2 1 1 1.7 1.1 2.9 0.7 5-1.7 10-3.3 15-4.9 1.2-0.4 2-0.4 2.8 0.9 3.6 5.5 5.9 11.6 7.7 18 0.3 1.2-0.3 1.7-1.3 2.2-4.4 2.5-8.8 5.1-13.3 7.5-1.3 0.7-1.7 1.3-1.6 2.9 0.5 5.6 0.6 11.2 0.9 17.2 5.1 2.6 10.8 5.5 16.6 8.3-1.6 7.8-4.2 14.8-8.2 21.5-6.3-1.8-12.6-3.6-18.2-5.2-3.8 3.9-7.3 7.5-11.1 11-1.4 1.3-1.7 2.3-1 4.1 1.7 4.7 3.2 9.5 4.7 14.2 0.3 1 1 2.1-0.5 2.8q-9.1 4-18.1 7.9c-1.3 0.6-2.1 0.1-2.7-1.1-2.5-4.5-5.2-9-7.6-13.6-0.9-1.7-2-1.9-3.8-1.8-4.4 0.3-8.8 0.5-13.2 0.3-1.8-0.1-2.6 0.3-3.3 2-2.4 5.2-5.1 10.3-7.6 15.4-4.6-0.4-17.1-5.3-21.4-8.4 1.6-5.7 3.1-11.4 4.9-17.1 0.4-1.4 0-2-1-3-3.4-3-6.5-6.3-9.8-9.4-0.6-0.5-1.8-0.9-2.5-0.7-4.4 1.4-8.8 2.9-13.2 4.5-2.4 0.8-3.4 1.2-4.3 0.5zm57.9 22.8c11.9 4 24.6 3.1 35.7-2.5 11.2-5.6 19.5-15.3 23.5-27.1 3.9-11.9 3-24.6-2.6-35.8-5.6-11.1-15.2-19.4-27.1-23.4-11.8-3.9-24.5-3-35.7 2.6-11.2 5.6-19.5 15.2-23.4 27.1-4 11.8-3.1 24.5 2.5 35.7 5.6 11.2 15.3 19.5 27.1 23.4z"/>
		<path id="&lt;Path&gt;" class="s1" d="m120.7 87.5l1.8-3.3-1.7-3.3c-0.2-0.4 0.1-0.8 0.6-0.8l3.6 0.7 2.6-2.6c0.3-0.3 0.9-0.1 0.9 0.3l0.5 3.7 3.3 1.7c0.4 0.2 0.4 0.7 0 0.9l-3.4 1.6-0.6 3.7c0 0.4-0.6 0.6-0.8 0.2l-2.6-2.7-3.7 0.6c-0.4 0.1-0.7-0.4-0.5-0.7z"/>
		<path id="&lt;Compound Path&gt;" fill-rule="evenodd" class="s3" d="m314.9 102.9l1.5-2.4-1.2-0.5c-0.2-0.1-0.4-0.4-0.3-0.7 0.1-0.3 0.5-0.4 0.7-0.3l1.4 0.6 1.4-2.2-1.3-0.6c-0.3-0.1-0.4-0.4-0.3-0.6 0.1-0.3 0.4-0.4 0.7-0.3l1.5 0.6 1.5-2.6c0.2-0.2 0.4-0.3 0.7-0.2l0.2 0.1c0.3 0.1 0.4 0.5 0.3 0.8l-1.5 2.4 2.1 0.8 1.6-2.5c0.2-0.2 0.4-0.3 0.7-0.2l0.2 0.1c0.3 0.1 0.4 0.5 0.3 0.8l-1.5 2.4 1.2 0.4c0.3 0.2 0.4 0.5 0.3 0.7-0.1 0.3-0.4 0.4-0.7 0.3l-1.4-0.6-1.3 2.3 1.3 0.5c0.2 0.1 0.4 0.4 0.3 0.7-0.1 0.2-0.4 0.4-0.7 0.3l-1.5-0.6-1.6 2.6c-0.1 0.2-0.4 0.3-0.7 0.2l-0.2-0.1c-0.3-0.1-0.4-0.5-0.3-0.8l1.6-2.4-2.2-0.9-1.6 2.6c-0.2 0.2-0.4 0.3-0.7 0.2l-0.2-0.1c-0.3-0.1-0.4-0.5-0.3-0.8zm5.5-1.9l1.4-2.3-2.2-0.8-1.3 2.2z"/>
		<path id="&lt;Compound Path&gt;" fill-rule="evenodd" class="s4" d="m308.1 145.5c2.2 0.2 4.4 0.4 6.6 0.6 0.4 0 1-0.3 1.2-0.6 1.4-2.1 2.7-4.3 4.2-6.5 0.4-0.6 0.5-1 0.1-1.6-1.3-2.4-2.6-4.8-3.9-7.1-0.2-0.4-0.4-0.8-0.7-1.5 3.3-2.2 6.6-4.4 9.9-6.6 2.1 2.5 4.1 4.7 5.9 7 0.7 0.9 1.2 1.1 2.3 0.8 2.2-0.7 4.6-1 6.9-1.6 0.3 0 0.8-0.4 0.9-0.8 0.8-2.6 1.7-5.2 2.3-7.8 0.4-1.3 1-1.6 2.2-1.4 0.4 0.1 0.9 0 1.4 0q3 0.6 6.1 1.2c0.2 0.1 0.4 0.3 0.7 0.3 2.3 0.7 1.9 0.5 1.7 2.7-0.2 2.8-0.4 5.5-0.7 7.9 2.9 1.9 5.6 3.7 8.4 5.6 2.9-1.6 5.9-3.3 8.9-4.9 2.9 2.9 5 6.3 6.7 9.9-2.5 2.1-4.9 4.1-7.3 6.1-0.4 0.3-0.6 0.6-0.4 1.2q1 3.9 1.7 7.8c0.1 0.7 0.4 1 1 1.1 2.7 0.8 5.4 1.6 8 2.4 0.7 0.2 1 0.5 1 1.3-0.2 3.5-1 6.8-2.1 10.1-0.2 0.6-0.7 0.7-1.2 0.6-2.7-0.3-5.4-0.5-8.1-0.8-0.8-0.1-1.1 0.1-1.6 0.8-1.4 2.6-3.1 5-4.8 7.7 1.5 2.7 3.1 5.7 4.7 8.7-3 2.8-6.2 5.1-10 6.8-2.2-2.7-4.4-5.4-6.3-7.7-2.9 0.5-5.5 1-8.1 1.4-1 0.1-1.5 0.5-1.7 1.4-0.7 2.6-1.5 5.1-2.3 7.7-0.1 0.5-0.2 1.2-1 1q-5.2-1-10.3-2c-0.7-0.2-0.9-0.6-0.8-1.3 0.3-2.7 0.5-5.5 0.8-8.2 0.1-1-0.3-1.4-1.1-1.9-2-1.2-4-2.5-5.8-3.9-0.8-0.6-1.2-0.6-2.1-0.1-2.6 1.5-5.3 2.9-7.9 4.4-1.9-1.6-5.8-7.4-6.8-10.1 2.4-2 4.8-4 7.3-5.9 0.6-0.5 0.6-0.9 0.5-1.7-0.6-2.3-0.9-4.7-1.4-7-0.1-0.4-0.5-0.9-0.9-1-2.3-0.8-4.7-1.4-7.1-2.1-1.3-0.4-1.8-0.5-2-1.1l2.1-10.9c0.5-0.6 1.1-0.6 2.9-0.4zm17.4 9.6c-1.8 9.8 4.6 19.2 14.4 21 9.7 1.9 19.2-4.5 21-14.3 1.8-9.8-4.6-19.2-14.4-21.1-9.7-1.8-19.2 4.6-21 14.4z"/>
		<path id="&lt;Path&gt;" class="s5" d="m237.4 81.7l2.8 5-6.5-0.7z"/>
		<g id="&lt;Group&gt;">
			<path id="&lt;Path&gt;" class="s4" d="m258 141.8c0.2 1.9 1.8 3.6 3.7 3.7 1.6 0.1 3-1 3.5-2.5 0.5-1.5 0.1-3.3-1.5-4-2.8-1.3-4.4 4.1-2 4.2 0.3 0 0.6-0.1 0.8-0.2 0.1-0.1 0.1-0.2 0.4-0.6 0.1-0.3 0.5-0.3 0.6 0 0.6 1-0.9 1.8-1.7 1.8-2.4 0-3.1-3.3-0.9-5.5 2.3-2.4 6.6 0.7 5.2 4.6-0.8 2-2.7 3.4-4.9 3-2.1-0.3-3.9-2.3-3.7-4.5 0-0.4 0.5-0.4 0.5 0z"/>
		</g>
		<g id="&lt;Group&gt;">
			<g id="&lt;Group&gt;">
				<path id="&lt;Path&gt;" class="s2" d="m375.7 60.7l2 0.9q3.2-0.8 3.6-1.4c0.3-0.6 0.5-2.1 1-2.1 0.4 0 1.3 0.2 1.4 1.3 0.1 0.8-1.2 2.9-1.1 3.1 0.1 0.2 1.2 0.7 2.1 1.1 0.5 0.2 0.8 0.7 0.9 1.3 0 0.4-0.2 0.7-0.6 0.9l-0.6 0.1 0.1 0.6c0.1 0.5-0.2 0.9-0.6 1l-0.5 0.1 0.2 0.4c0.1 0.5-0.2 1-0.7 1.1h-0.4v0.1c0.1 0.5-0.2 0.9-0.7 0.9l-0.4 0.1-5.1-2.2q-0.7-0.3-1.3-0.9l-1.7-1.1c-0.2-0.1-0.2-0.3-0.1-0.5l2-4.5c0.1-0.3 0.3-0.4 0.5-0.3z"/>
			</g>
		</g>
		<rect id="&lt;Path&gt;" class="s6" x="279.8" y="153" width="48" height="24.4" rx="32.7"></rect>
		<path id="&lt;Path&gt;" class="s7" d="m332.5 393.8l37.4 17.1v3.8h-132v-3.8l37.1-17.1z"/>
		<path id="&lt;Path&gt;" class="s7" d="m275 320.6h57.5v73.2h-57.5z"/>
		<path id="&lt;Path&gt;" class="s7" d="m129.2 343.6v-165.2c0-7.8 6.4-14.2 14.2-14.2h320.3c7.8 0 14.2 6.4 14.2 14.2v165.2z"/>
		<path id="&lt;Path&gt;" class="s8" d="m237.9 410.9h132v3.8h-132z"/>
		<path id="&lt;Path&gt;" class="s8" d="m275 385.2h57.5v8.6h-57.5z"/>
		<path id="&lt;Path&gt;" class="s6" d="m477.9 343.6v26.4c0 5.5-3.7 10-8.2 10h-332.3c-4.5 0-8.2-4.5-8.2-10v-26.4z"/>
		<circle id="&lt;Path&gt;" class="s9" cx="304.1" cy="159.5" r="3.2"/>
		<path id="&lt;Path&gt;" class="s10" d="m137.4 336.4v-157.5c0-4.2 3.5-7.5 7.7-7.5h316.9c4.2 0 7.7 3.3 7.7 7.5v157.5z"/>
		<path id="&lt;Path&gt;" class="s11" d="m152 184.1h199.7v139.4h-199.7z"/>
		<path id="&lt;Path&gt;" class="s6" d="m152 184.1h199.7v16.3h-199.7z"/>
		<path id="&lt;Path&gt;" class="s12" d="m422.8 219h13.6v105.5h-13.6z"/>
		<path id="&lt;Path&gt;" class="s12" d="m403.8 251.1h13.6v73.4h-13.6z"/>
		<path id="&lt;Path&gt;" class="s12" d="m442.1 241.8h13.6v82.7h-13.6z"/>
		<path id="&lt;Path&gt;" class="s12" d="m384.7 238.6h13.7v85.9h-13.7z"/>
		<path id="&lt;Path&gt;" class="s12" d="m365.7 264h13.6v60.5h-13.6z"/>
		<g id="&lt;Group&gt;">
			<path id="&lt;Path&gt;" class="s13" d="m422.8 243.3h13.6v81.2h-13.6z"/>
			<path id="&lt;Path&gt;" class="s13" d="m403.8 268h13.6v56.5h-13.6z"/>
			<path id="&lt;Path&gt;" class="s13" d="m442.1 260.9h13.6v63.6h-13.6z"/>
			<path id="&lt;Path&gt;" class="s13" d="m384.7 258.4h13.7v66.1h-13.7z"/>
			<path id="&lt;Path&gt;" class="s13" d="m365.7 278h13.6v46.5h-13.6z"/>
		</g>
		<path id="&lt;Path&gt;" class="s12" d="m158.9 207.1h184.3v23.7h-184.3z"/>
		<path id="&lt;Path&gt;" class="s12" d="m224.6 237.5h118.6v6.1h-118.6z"/>
		<path id="&lt;Path&gt;" class="s6" d="m158.9 237.5h58.4v70h-58.4z"/>
		<path id="&lt;Path&gt;" class="s12" d="m224.6 250.3h118.6v6.1h-118.6z"/>
		<path id="&lt;Path&gt;" class="s12" d="m224.6 288.6h118.6v6.1h-118.6z"/>
		<path id="&lt;Path&gt;" class="s12" d="m224.6 301.4h118.6v6.1h-118.6z"/>
		<path id="&lt;Path&gt;" class="s1" d="m75.6 262.6l110.8-0.2c1.6 0 3 1.4 3 3l0.3 146c0 1.7-1.4 3.1-3 3.1l-110.9 0.2c-1.6 0-3-1.4-3-3l-0.3-146.1c0-1.6 1.4-3 3.1-3z"/>
		<path id="&lt;Path&gt;" class="s0" d="m78.6 266.8l104.7-0.1 0.3 142.7-104.7 0.2z"/>
		<path id="&lt;Path&gt;" class="s14" d="m153.7 265l-46.3 0.1v-4.6c0-0.6 0.5-1.1 1.1-1.1l44-0.1c0.6 0 1.2 0.5 1.2 1.1z"/>
		<path id="&lt;Compound Path&gt;" fill-rule="evenodd" class="s14" d="m130.5 267.6c-3.8 0-6.9-3.1-6.9-6.9 0-3.8 3.1-6.9 6.9-6.9 3.9 0 7 3.1 7 6.9 0 3.8-3.1 6.9-7 6.9zm4.5-6.9c0-2.5-2-4.4-4.5-4.4-2.4 0-4.4 1.9-4.4 4.4 0 2.5 2 4.5 4.4 4.5 2.5 0 4.5-2 4.5-4.5z"/>
		<g id="&lt;Group&gt;">
			<path id="&lt;Path&gt;" class="s5" d="m153.7 260.4v4.6c0 3.2-2.6 5.8-5.8 5.8h-34.8c-3.1 0-5.7-2.5-5.7-5.7l46.3-0.1v-4.6c0-0.4-0.3-0.8-0.8-1 0.5 0.2 0.8 0.6 0.8 1z"/>
			<path id="&lt;Path&gt;" class="s15" d="m108.5 259.4c-0.4 0-0.7 0.2-0.9 0.5 0.2-0.3 0.5-0.5 0.9-0.5z"/>
			<path id="&lt;Path&gt;" class="s15" d="m107.4 260.2q0.1-0.1 0.1-0.2 0 0.1-0.1 0.2z"/>
		</g>
		<g id="&lt;Group&gt;">
			<path id="&lt;Compound Path&gt;" fill-rule="evenodd" class="s9" d="m171.3 308.8h-14.9v-14.9h14.9zm-14.3-0.6h13.7v-13.7h-13.7z"/>
		</g>
		<g id="&lt;Group&gt;">
			<path id="&lt;Compound Path&gt;" fill-rule="evenodd" class="s9" d="m171.4 333.5l-14.9 0.1-0.1-14.9 14.9-0.1zm-14.2-0.5l13.6-0.1v-13.6h-13.7z"/>
		</g>
		<g id="&lt;Group&gt;">
			<path id="&lt;Compound Path&gt;" fill-rule="evenodd" class="s9" d="m171.4 358.3h-14.9v-14.9h14.9zm-14.3-0.6h13.7l-0.1-13.7-13.6 0.1z"/>
		</g>
		<g id="&lt;Group&gt;">
			<path id="&lt;Compound Path&gt;" fill-rule="evenodd" class="s9" d="m171.4 383l-14.8 0.1-0.1-14.9h14.9zm-14.3-0.6h13.7v-13.7h-13.7z"/>
		</g>
		<path id="&lt;Path&gt;" class="s15" d="m86.5 294.3l63.7-0.1v2.2l-63.7 0.1z"/>
		<path id="&lt;Path&gt;" class="s15" d="m86.5 300.4l63.7-0.1v2.1l-63.7 0.1z"/>
		<path id="&lt;Path&gt;" class="s15" d="m86.5 306.5l63.7-0.1v2.1l-63.7 0.1z"/>
		<path id="&lt;Path&gt;" class="s15" d="m86.5 319.9l63.7-0.1v2.2l-63.7 0.1z"/>
		<path id="&lt;Path&gt;" class="s15" d="m86.5 326l63.7-0.1v2.1l-63.7 0.2z"/>
		<path id="&lt;Path&gt;" class="s15" d="m86.5 332.1l63.7-0.1v2.1l-63.6 0.1z"/>
		<path id="&lt;Path&gt;" class="s15" d="m86.6 344.2l63.7-0.1v2.1l-63.7 0.1z"/>
		<path id="&lt;Path&gt;" class="s15" d="m86.6 350.3l63.7-0.1v2.1l-63.7 0.1z"/>
		<path id="&lt;Path&gt;" class="s15" d="m86.6 356.3l63.7-0.1v2.2l-63.7 0.1z"/>
		<path id="&lt;Path&gt;" class="s15" d="m86.6 368.5l63.7-0.1v2.1l-63.7 0.1z"/>
		<path id="&lt;Path&gt;" class="s15" d="m86.6 374.5l63.7-0.1v2.2l-63.7 0.1z"/>
		<path id="&lt;Path&gt;" class="s15" d="m86.6 380.6l63.7-0.1v2.1l-63.7 0.1z"/>
		<path id="&lt;Path&gt;" class="s15" d="m86.7 396.3l73.4-0.1v2.1l-73.4 0.1z"/>
		<path id="&lt;Path&gt;" class="s15" d="m86.7 401.5l87.9-0.2v2.2l-87.9 0.1z"/>
		<g id="&lt;Group&gt;">
			<path id="&lt;Path&gt;" class="s4" d="m163.8 306.3l-4.6-7.9 1.6-1 2.7 4.6 4.4-10.5 1.8 0.8z"/>
		</g>
		<g id="&lt;Group&gt;">
			<path id="&lt;Path&gt;" class="s4" d="m163.8 331.4l-4.6-7.9 1.7-1 2.7 4.6 4.3-10.5 1.8 0.8z"/>
		</g>
		<g id="&lt;Group&gt;">
			<path id="&lt;Path&gt;" class="s4" d="m163.9 380.5l-4.6-8 1.7-0.9 2.6 4.6 4.4-10.5 1.8 0.7z"/>
		</g>
		<path id="&lt;Path&gt;" class="s4" d="m165.3 350.9l3.8 3.7-1.3 1.3-3.9-3.7-3.8 3.8-1.3-1.4 3.8-3.7-3.8-3.8 1.3-1.3 3.8 3.7 3.8-3.7 1.4 1.3z"/>
		<path id="&lt;Path&gt;" class="s13" d="m108.8 369.7c5.2 5.2 8.1 12 8.1 19.4 0 7.3-2.8 14.2-8 19.4q-0.5 0.5-1.1 1h-5.2c6.7-4.3 11.1-11.9 11.1-20.4 0-13.4-10.9-24.3-24.3-24.2-3.8 0-7.4 0.9-10.6 2.4v-3.5c3.3-1.4 6.9-2.1 10.6-2.1 7.3 0 14.2 2.8 19.4 8z"/>
		<path id="&lt;Path&gt;" class="s13" d="m109.5 389.1c0 11-9 20-20 20-3.9 0-7.5-1.1-10.6-3v-1.9c3 2.1 6.6 3.3 10.6 3.3 10.1 0 18.4-8.3 18.4-18.4 0-10.2-8.3-18.4-18.5-18.4-3.9 0-7.6 1.3-10.6 3.4v-1.9c3.1-1.9 6.7-3.1 10.6-3.1 11 0 20 9 20.1 20z"/>
		<g id="&lt;Group&gt;">
			<path id="&lt;Compound Path&gt;" class="s9" d="m108.7 287.3v-7.1h-2.8v-0.6h6.6v0.6h-2.9v7.1z"/>
			<path id="&lt;Compound Path&gt;" class="s9" d="m119.7 286.7v0.6h-5.7v-7.7h5.5v0.6h-4.6v2.7h3.4v0.6h-3.4v3.2z"/>
			<path id="&lt;Compound Path&gt;" class="s9" d="m120.6 285.5l0.8-0.3q0.4 0.8 1 1.2 0.6 0.4 1.5 0.4 0.9 0 1.5-0.4 0.5-0.4 0.5-1.1 0-0.5-0.3-0.9-0.4-0.3-1.3-0.6-0.4-0.2-1.2-0.4-0.8-0.2-1-0.3-0.7-0.3-1-0.7-0.3-0.3-0.3-0.9 0-1 0.7-1.5 0.8-0.6 2-0.6 1.2 0 1.9 0.5 0.8 0.4 1.2 1.4l-0.8 0.2q-0.4-0.7-0.9-1.1-0.6-0.3-1.4-0.3-0.8 0-1.3 0.3-0.5 0.4-0.5 1 0 0.5 0.3 0.8 0.4 0.3 1 0.5 0.3 0 0.8 0.2 1.4 0.4 1.8 0.6 0.7 0.3 1 0.8 0.2 0.4 0.2 0.9 0 1-0.7 1.6-0.8 0.7-2.2 0.7-1.2 0-2-0.5-0.8-0.5-1.3-1.5z"/>
			<path id="&lt;Compound Path&gt;" class="s9" d="m130.5 287.3v-7.1h-2.8v-0.6h6.6v0.6h-2.9v7.1z"/>
			<path id="&lt;Compound Path&gt;" class="s9" d="m136 279.6h0.9v7.7h-0.9z"/>
			<path id="&lt;Compound Path&gt;" class="s9" d="m140.4 280.1v7.2h-0.8v-7.7h1.4l4.6 6.5v-6.5h0.9v7.7h-1z"/>
			<path id="&lt;Compound Path&gt;" class="s9" d="m154.6 286.4q-0.5 0.6-1.1 0.8-0.7 0.3-1.5 0.3-1.8 0-2.8-1.1-0.9-1-0.9-2.9 0-2 1-3 0.9-1.1 2.7-1.1 1.3 0 2 0.6 0.8 0.5 1.2 1.7l-0.9 0.2q-0.3-1-0.9-1.4-0.5-0.5-1.5-0.5-1.3 0-2 0.9-0.7 0.9-0.7 2.5 0 1.7 0.8 2.6 0.7 0.8 2.1 0.8 1 0 1.7-0.5 0.6-0.5 0.6-1.3v-0.8h-2.3v-0.6h3.3v3.7h-0.8z"/>
		</g>
		<g id="&lt;Group&gt;">
			<g id="&lt;Group&gt;">
				<g id="&lt;Group&gt;">
					<path id="&lt;Path&gt;" class="s2" d="m268.8 93.6q0.4-0.3 7.5-1.1l13.6 0.4-18.5 6.8-6.1 3.5 2-7.9q1.1-1.4 1.5-1.7z"/>
					<path id="&lt;Path&gt;" class="s16" d="m261.9 89.7l28 3.2-22.6 2.4z"/>
					<path id="&lt;Path&gt;" class="s16" d="m275.3 104.4l-6.6-6.8 21.2-4.7z"/>
				</g>
				<g id="&lt;Group&gt;">
					<g id="&lt;Group&gt;">
						<path id="&lt;Compound Path&gt;" class="s15" d="m224.8 119.4q0.3-1 0.6-1.9 0.3-0.8 0.7-1.7l0.6 0.3q-0.4 0.8-0.7 1.7-0.3 0.8-0.5 1.8-0.1 0.2-0.2 0.5l-0.6-0.2q0.1-0.2 0.1-0.5zm3.7-7.2q1.3-1.7 3-3.2l0.4 0.5q-1.6 1.5-2.9 3.1zm21.1 1.2q-0.1-0.1-0.1-0.1l0.4-0.5q0 0 0.1 0 0 0 0 0.1c0.4 0.1 1.3 0.2 1.9 0q0.7-0.4 1.2-1.1l0.6 0.3c-0.4 0.7-0.9 1.1-1.5 1.4-0.8 0.3-2 0.2-2.4 0q-0.1-0.1-0.2-0.1zm-14.7-7q1.8-1.2 3.8-2.2l0.3 0.6q-2 1-3.7 2.1zm12.6 1.6q0.1-1 0.5-1.9 0.2-0.6 0.4-1.1l0.6 0.3q-0.2 0.5-0.4 1-0.3 0.9-0.4 1.7-0.1 0.7 0 1.3h-0.7q-0.1-0.6 0-1.3zm3.6-3l-0.1-0.1 0.4-0.5c1.3 0.8 2.3 2.1 2.8 3.4l-0.7 0.2c-0.4-1.2-1.3-2.3-2.4-3zm-8.3-1.9c0.8-0.1 2.2-0.4 2.9-0.3q0.8 0 1.5 0.2l-0.1 0.6q-0.7-0.1-1.5-0.2c-0.4 0-1.4 0.1-2.7 0.3zm8.4-1.5q1.6-1.5 3.6-2.4l0.3 0.6q-1.9 0.9-3.5 2.3z"/>
					</g>
					<g id="&lt;Group&gt;">
						<path id="&lt;Path&gt;" class="s15" d="m258.9 97.8q1.2-0.2 2.3-0.2v0.7q-1.1 0-2.2 0.1z"/>
					</g>
				</g>
			</g>
			<g id="&lt;Group&gt;">
				<path id="&lt;Path&gt;" class="s17" d="m209.6 108.3c0.4 0 1.5 0.4 3.1 3.4q2.1 3.9 5.1 15.6l-8.9 3.3-1.2-2.5-1.9-18.7q3.7-1.1 3.8-1.1z"/>
				<path id="&lt;Path&gt;" class="s18" d="m197.8 106.6c2.6 0 8.9 0.8 11.8 1.7q2.2 18.5-1.9 32.6-0.9 3.1 0.8 13l-26.5-0.3q3.2-24 2-27.8-1.2-3.9-1.2-17.4 0.1 0 5.9-1c2.7-0.5 6.4-0.8 9.1-0.8z"/>
				<path id="&lt;Path&gt;" class="s19" d="m194.8 188.3q0.6 6.7 1.6 8.6c1.1 1.8 0 5-0.1 5.5 0 0.4-2.2 1-5.8 0.6-3.5-0.3-3.4-1.1-3.1-2.5 0.3-1.3 2.1-2.9 2.2-4.2q0.1-1.2-1-5.7z"/>
				<path id="&lt;Path&gt;" class="s20" d="m205.5 148.3q18.2-1 22.3 1.5 4.1 2.5-2.9 14.6-12.7-0.6-37.6 0.8c-5.9 0.4-6.4-15.3-5.3-16.6q1.1-1.3 23.5-0.3z"/>
				<path id="&lt;Path&gt;" class="s21" d="m190.1 203.6c-3.6-0.4-3.2-2.2-2.9-3.5 0.2-0.9 1.2-1.9 1.9-2.8 0.3 0.2 0.8 0.7 2.4 1.2 1.6 0.4 3.8-0.5 5.3-1.1 0.5 1.9 0.5 4.3 0.5 4.6-0.1 0.5-3.6 2-7.2 1.6z"/>
				<path id="&lt;Path&gt;" class="s1" d="m192.1 161.4q0.7 5.5 4.3 33l-8.3 1q-10.3-35.8-9.8-41.3 0.5-5.5 4.4-6 7.5-1.3 9.4 13.3z"/>
				<path id="&lt;Path&gt;" class="s19" d="m182.5 110.5c2.5-0.9 3.7 21.3 4 30.5 4.4 0.4 12 0 13.9-0.1 0.9-0.1 3-0.9 3.8-1 1-0.1 1.8-0.2 2.2-0.1 0.2 0 4.8 1.9 5.1 2.3 0.5 0.5 1.8 1.8 1.6 2.4q-0.2 0.5-2.5-1.6l-1.1-0.6c1.4 1.4 4 3.2 3.7 3.8-0.4 0.6-2.8-1.2-4.5-2.4 1.4 1.3 3.3 3.7 2.8 4.1-0.3 0.3-2.4-2.5-4.6-3.3-0.9-0.2-1.7 0.6-2.3 0.7-0.5 0-1.2 0.2-1.7 0.1l-2.4-0.7c-0.8 0-0.8 0.5-1.7 0.7-0.9 0.2-2.5 0.4-3.7 0.7-7.1 1.7-9.4 2.5-11.6 2.5-6.5 0-6.9-35.8-1-38z"/>
				<path id="&lt;Path&gt;" class="s17" d="m177.8 131.4c-0.5-9.4-0.4-21 4.9-22.9 2-0.8 5.7 3.9 5 23.1-2.8 0.2-6.9 0.4-9.9-0.2z"/>
				<path id="&lt;Path&gt;" class="s19" d="m220.1 194.8q-1.2 2.1-0.2 3.9c0.9 1.8 5.9 4.5 6.4 5.4q0.6 1 0.4 1.7l-14.9-3.7 1.2-4.4 1.4-3.1z"/>
				<path id="&lt;Path&gt;" class="s21" d="m227.2 203.3c0.4 0.4 1 0.9 1.6 1.5 0.8 1 0 1.7-1.2 1.5l-15.4-3.8c-0.7-0.2-1.1-0.9-0.9-1.6 0.4-1.2 1-3 1.4-3.1 0.6-0.3 0.5 0 2.1 1.3q1.7 1.3 5.8 0.6 5.4 2.6 6.6 3.6z"/>
				<path id="&lt;Path&gt;" class="s1" d="m218.7 152.7c1.2-2.5 3.8-5.7 8.6-3.8 4.5 1.9 5.7 6.4 4.3 11.1-1.5 4.7-10.8 32.1-11.1 35.9l-7.5 0.1q1.4-21.8 1.7-27c0.3-5.1 1.9-12 4-16.3z"/>
				<path id="&lt;Path&gt;" class="s9" d="m232.3 129.7l-7.7 17.3c-0.5 1-1.5 1.6-2.5 1.6h-39.2c-0.4 0-0.7-0.3-0.7-0.7 0-0.4 0.3-0.7 0.7-0.7h13.8l7.6-18.8c0.3-0.6 0.9-1 1.5-1h25c1.2 0 2 1.2 1.5 2.3z"/>
				<g id="&lt;Group&gt;">
					<path id="&lt;Path&gt;" class="s0" d="m217.4 138.3c-0.2 0.9-0.9 1.4-1.7 1.3-0.7-0.2-1.2-1-1-1.8 0.2-0.9 0.9-1.4 1.6-1.3 0.8 0.2 1.2 1 1.1 1.8z"/>
				</g>
				<g id="&lt;Group&gt;">
					<path id="&lt;Path&gt;" class="s22" d="m203.7 99.5q0 0.1-1.8-3.8-5.1 6.6-5.2 6.8c-0.2 0.2-6.1 1.3-6.7-9.3-0.6-9.3 2.3-7.9 3.9-9.6 1.4-1.5 3.8-1.6 5.2-1.4 0.6 0.1 1.7 0.5 2.5 0.9q1 0.6 2.2 0.9c9 3.1-0.1 15.3-0.1 15.5z"/>
					<path id="&lt;Path&gt;" class="s19" d="m199.3 103.3l0.5 3.7q1.2 5.5-0.3 6.5-1.5 1.1-6.2-6.6l0.5-9.6z"/>
					<path id="&lt;Path&gt;" class="s4" d="m193.8 97.3l5.5 6 0.4 3.2c-2-0.8-4.9-2.8-6.1-6.1z"/>
					<path id="&lt;Path&gt;" class="s19" d="m199 86.9c3.1-0.5 5.9 2 5.8 5.1 0 1.3-0.1 3-0.4 4.8-0.7 4.4-3.7 8.2-5.6 7.9-2-0.3-7-4.1-6.1-10.3 0.6-3.9 3.1-7 6.3-7.5z"/>
					<path id="&lt;Path&gt;" class="s19" d="m194.1 95.1c-0.2 1-1 1.6-1.7 1.5-0.8-0.1-1.3-1-1.2-2 0.2-0.9 1-1.6 1.8-1.5 0.7 0.2 1.2 1 1.1 2z"/>
					<path id="&lt;Path&gt;" class="s22" d="m192.2 91.3q0.9-3 1-3.2 0.1-0.3 3.1-2.7 3.8 0 4.1 0c0.4 0 7.9 4.7 3.9 3.3-4-1.4-7.2 1.9-8.1 3.5q-0.9 1.5-3.2 0.9z"/>
				</g>
				<path id="&lt;Path&gt;" class="s0" d="m197.3 99.5l4.4 0.8q-0.5 1.7-2.4 1.4-2.3-0.4-2-2.2z"/>
			</g>
		</g>
		<g id="&lt;Group&gt;">
			<path id="&lt;Path&gt;" class="s19" d="m253 399.4q-1.6 2.6-1.8 7.6c-0.1 2-0.5 3.5-1.1 4.7-0.9 2.1-3.2 3.2-5.4 2.6-0.7-0.3-0.4-0.3-0.7-1-0.6-1.4-1.1-3.9-0.2-5.6 0.5-1 1.3-1.8 1.8-2.4q1.4-1.8 2.2-7.3z"/>
			<path id="&lt;Path&gt;" class="s19" d="m276.3 401.7q0.1 5.5 1.1 6.6c0.6 0.7 1.3 1.4 2 1.8 0.3 0.2 1.1 0.7 1.3 0.8 3.2 1.5 4.1 2 5.1 2.8 0.6 0.4 1.1 0.9 0.3 0.9l-14.1-0.2q-0.6-0.2-1.1-1.3c-0.6-1 0.6-3.2 0.8-4.3q0.4-2-0.1-8.3z"/>
			<path id="&lt;Path&gt;" class="s23" d="m282.7 317.6q1.7 10.1 0.6 16.7-1.2 6.7-6.8 68.3l-6.2 0.3q-1.3-25.7-1.1-29.3 0.2-3.6 2.1-9.6l-0.6-20.7 7.8-27.3z"/>
			<path id="&lt;Path&gt;" class="s4" d="m281.9 313.1l-2.9 17.1-11.4 33.3-14.4 36.8-6.2-1.3q2.7-14.7 3.4-20.3c0.7-5.7 5.3-12.4 6.5-16.7 2.3-8.1 0.3-26.9 1.4-33q1.2-6.2 6.1-13.6z"/>
			<path id="&lt;Path&gt;" class="s1" d="m249.7 412.7c-0.7 1.2-1.8 1.9-3.1 1.9-1.3-0.1-2.9-0.1-3.5-1.3-0.6-1.4-0.2-3.9 0.7-5.6 1.1 1.5 3.4 3.5 6.8 2.9q-0.4 1.2-0.9 2.1z"/>
			<path id="&lt;Path&gt;" class="s1" d="m287.4 414c0.3 0.2 0.1 0.7-0.3 0.7-2.6-0.1-11.7-0.2-15.1-0.3-0.4 0-0.9-0.2-1.2-1.2-0.3-0.9 0.2-2.3 0.6-3.4 1.6 0.6 4.3 1.3 8 0.3 0.3 0.2 7.4 3.1 8 3.9z"/>
			<path id="&lt;Path&gt;" class="s24" d="m301.3 299.4c-1.5 0.3-2.7-0.3-5 1-2.3 1.3-16.2 8.7-18.8 7.1-0.9-0.5-3.1-11.7-4-15.1 1.9-1 4.3 0.3 6.1-0.8 0.3 1.1 2.7 7 2.9 8.1 3.2-0.5 12.6-3.3 13.1-3.5 0.4-0.1 2.8-5.7 3.4-5.2 0.5 0.5-1.3 3.1-0.6 3.5 0.7 0.4 7.6-2.5 7.5-1.9 0 1.2-4.1 2-4 2.5 0 0.5 4.2-1.3 4.6-0.5 0.4 0.8-4.1 1.3-4.2 1.8-0.1 0.4 4.2 0.1 3.9 1-0.2 0.5-3.9 0.2-3.8 0.8 0.1 0.6 2.8 1.3 2.6 1.9-0.3 0.5-2.2-1-3.7-0.7z"/>
			<path id="&lt;Path&gt;" class="s22" d="m273.9 280c-3.2 3.7-24.8 22.1-33.7 1-3.7-8.6-1.6-13.9 3.9-17.2 3.1-1.9 6.5-2.4 10.2-2.9 11.8-1.7 10-9.6 18.4-8.6 3 0.4 5.6 2 7.1 4.8 1.8 3.5 1.1 6.7 0.4 9.9-0.4 2-3 9.3-6.3 13z"/>
			<path id="&lt;Path&gt;" class="s1" d="m275.9 279c0.9 1 4.8 11.3 5.3 13.8q0.4 2.6 0.1 29.9-4.4 2.8-21-0.5 4.9-9.8 4.4-13.3c-0.5-3.5-7.2-25.9-4.6-28.6q2.6-2.8 6.8-3.3 8.1 1 9 2z"/>
			<path id="&lt;Path&gt;" class="s19" d="m274.8 268.3q-0.3 1.7-0.7 3.7-0.2 1.2-0.5 2.3c-0.2 1.4-0.5 2.7-0.7 3.7-0.1 0.5 2 5.3 0.9 5.5-3.9 0.7-7.9-4.8-7-6.5 0.8-1.4 1.9-6.5 2.2-8.1q0-0.3 0.1-0.5z"/>
			<path id="&lt;Path&gt;" class="s25" d="m269 268.9q0-0.3 0.1-0.5l5.7-0.1q-0.3 1.7-0.7 3.7-0.2 1.1-0.5 2.3c-0.8-0.1-1.8-0.6-2.7-1.4-1-0.9-1.7-1.9-2.1-3.1q0.1-0.5 0.2-0.9z"/>
			<path id="&lt;Path&gt;" class="s19" d="m278.2 265c-0.6 4.4-4.8 8.6-9 4.9-4.3-3.7-2.4-10.5-0.7-12.7q1.7-2.2 4-2.5c6.2-0.2 6.3 5.8 5.7 10.3z"/>
			<path id="&lt;Path&gt;" class="s19" d="m279.5 263.9c-0.3 1.1-1 1.8-1.6 1.6-0.6-0.2-0.9-1.2-0.6-2.3 0.3-1 1-1.7 1.6-1.6 0.6 0.2 0.8 1.2 0.6 2.3z"/>
			<path id="&lt;Path&gt;" class="s22" d="m275.2 254.7q-5.6 6.4-8.2 6.6-2.6 0.3-2.9 3.8 0.9-7.9 3.5-9.5 2.6-1.5 7.6-0.9z"/>
			<path id="&lt;Path&gt;" class="s19" d="m267.9 262.9c0.2 1.1-0.2 2.2-1 2.3-0.7 0.2-1.5-0.6-1.7-1.8-0.2-1.1 0.2-2.2 1-2.3 0.7-0.2 1.5 0.6 1.7 1.8z"/>
			<path id="&lt;Path&gt;" class="s9" d="m267.8 295.1l17.9 2.6c0.5 0.1 0.9 0.6 0.8 1.2l-3.5 23.8c-0.1 0.5-0.6 0.9-1.1 0.8l-17.9-2.6c-0.5-0.1-0.9-0.6-0.8-1.1l3.5-23.8c0.1-0.6 0.6-1 1.1-0.9z"/>
			<path id="&lt;Path&gt;" class="s14" d="m281 297.1l-7.8-1.2 0.1-0.8c0-0.1 0.1-0.1 0.2-0.1l7.5 1.1c0.1 0 0.1 0.1 0.1 0.2z"/>
			<path id="&lt;Compound Path&gt;" fill-rule="evenodd" class="s14" d="m278.4 295.9c-0.1 0.7-0.7 1.1-1.4 1-0.6-0.1-1.1-0.7-1-1.3 0.1-0.7 0.7-1.1 1.4-1 0.6 0.1 1.1 0.7 1 1.3zm-0.4 0c0-0.5-0.3-0.8-0.7-0.9-0.4-0.1-0.8 0.2-0.9 0.6 0 0.5 0.3 0.8 0.7 0.9 0.4 0.1 0.8-0.2 0.9-0.6z"/>
			<path id="&lt;Path&gt;" class="s5" d="m281.1 296.3l-0.1 0.8c-0.1 0.5-0.6 0.9-1.1 0.8l-5.9-0.9c-0.5-0.1-0.9-0.6-0.8-1.1l7.8 1.2 0.1-0.8q0-0.1-0.1-0.2 0.1 0.1 0.1 0.2z"/>
			<path id="&lt;Path&gt;" class="s0" d="m273.4 268.8q-1.8-0.1-1.8-1.6h4q0 1.6-2.2 1.6z"/>
			<path id="&lt;Path&gt;" class="s19" d="m255.3 301.2l6.4 0.7q-0.1 5.5 0 6.1 11.1 3.1 15.7 3.9 2.2-1.2 3-1.6c0.9-0.3 3.2-0.7 3.7-0.8 0.5-0.1 0.3 0.5-0.1 0.7-0.5 0.2-1.6 0.7-1.9 1.3q0.9 0.1 1.4-0.1c0.5-0.2 1.1-0.6 1.1-0.9 0-0.2 0.2-0.8 0.3-0.8 0.1 0 0.1 0.2 0.2 0.4q0 0.3 0.1 0.6c0.1 0.3 0.2 0.8 0.2 1 0.1 0.6-0.2 1.9-0.2 2.4-0.1 0.9-0.4 1.3-0.9 1.6-0.7 0.2-1.5 0.4-2.7 0.5-2.2 0.3-4.3-0.4-5.2-0.5q-0.8-0.1-14.9-1.5-5.6-0.8-6-1.7-0.4-1-0.2-11.3z"/>
			<path id="&lt;Path&gt;" class="s1" d="m263.3 281.2c3.6 4.9 4.2 11.3 1.8 16.9l-3.5 9.2-6.8 1.2q0.5-19.9 2.2-23.9 1.8-4.2 3.9-5.1c0.6-0.4 1.4 0.4 2.4 1.7z"/>
		</g>
		<path id="&lt;Path&gt;" class="s12" d="m367.7 184.1h28.8v28.7h-28.8z"/>
		<path id="&lt;Path&gt;" class="s12" d="m401.6 184.1h56.1v3.9h-56.1z"/>
		<path id="&lt;Path&gt;" class="s12" d="m401.6 192.4h37.8v3.9h-37.8z"/>
		<path id="&lt;Path&gt;" class="s12" d="m401.6 200.6h50.4v4h-50.4z"/>
		<g id="&lt;Group&gt;">
			<path id="&lt;Path&gt;" class="s19" d="m468.9 299.6c-3 3.8-6.3 9.5-7.2 9.1q-1-0.4-15.4-16.9c-0.8-0.9-6-5.1-6.2-5.5-0.3-0.4 1.9-3.3 2-2.2q0 1 3.2 2 1.1-0.2 0.8-0.7c-0.1-0.2-1.7-1.3-0.8-1.5 0.9-0.2 2.8 1 2.8 1.6 0.1 0.6 1.1 4.1 1.2 4.4l11.2 8.9q6.4-13.4 6.3-14.8c-0.1-1.4 9-5.4 10.2-4.5 3.6 3-5.1 16.3-8.1 20.1z"/>
			<path id="&lt;Path&gt;" class="s26" d="m510.8 395.5q1.5 2.2 3 3.2c1.5 1 2.6 2 2.8 2.5 0.4 1-0.8 4.3-1.3 5.8-0.3 1-1.4 7.9-2.3 7.9-2.9 0.2-7.3 0.3-7.9-0.3-0.8-0.8 1.6-1.3 2.4-2 0.8-0.7 0.7-8.3 0.6-9.1q0-0.7-2-2.6z"/>
			<path id="&lt;Path&gt;" class="s19" d="m485.6 405.4q1.7 5 1.7 5c0.2 0.8 0.7 2.8 0.7 3.5 0 2.7-12.3-2.3-9.5-3.5 0.2-0.1 1-1 1.1-1.9q0.1-1.4-1-3.2z"/>
			<g id="&lt;Group&gt;">
				<path id="&lt;Path&gt;" class="s2" d="m485.5 317.1l-5.3 32.4-1.9 16 8.3 41.1-7.7 0.9q-14.4-34-15.8-40.7c-0.5-2.7 2.4-31.1 2.4-45.7q0-0.1 0.9-9.1z"/>
				<path id="&lt;Path&gt;" class="s16" d="m492.5 320l1.4 8.5 4 35.1 15.3 34.2q-2.2 5-5.3 5.7l-24.3-35.2-15-45 0.5-10z"/>
			</g>
			<path id="&lt;Path&gt;" class="s18" d="m468 270.3c1.4-1.9 3.7-2.8 5.5-3.2 0.6-0.2 1 6.4 1 11.5q0 4.3-0.5 13.1l-10.7-1.1q-0.1-13.6 4.7-20.3z"/>
			<path id="&lt;Path&gt;" class="s4" d="m473.3 267.1c1.7-0.5 10.9-0.4 13.3-0.1 2.8 0.2 5.4 0.9 7.6 1.6 1.7 0.5 1.1 18.3 0.6 21q-0.8 4-0.1 33.8-10.9 7.8-30.5-1.7 4.1-42.4 4.4-44 0.9-6.5 4.7-10.6z"/>
			<path id="&lt;Path&gt;" class="s4" d="m517.6 400.3q0.3 0.5-2.2 6.6-0.5 2.5-1.7 8.2h-9.5q-0.1-1 0-1.3c0.4-1 2.7-1.5 3.2-1.6q1.8-0.7 6.3-13.5 3.7 1 3.9 1.6z"/>
			<path id="&lt;Path&gt;" class="s4" d="m468.7 414.8c-0.9-1.5 3.9-2.5 9.8-4.4q2.9 0.8 4.4 1 1.4 0.2 4.4-1l1.4 4.4z"/>
			<g id="&lt;Group&gt;">
				<path id="&lt;Path&gt;" class="s19" d="m461.7 308.7c0 0-0.2-0.1-0.3-0.2 0.4-4.2 0.3-8.2-1-9.6 0.1 0 0.3-0.6 0.6-1.3 1.6 1.2 2.3 4.3 2 9.4 0 0.3-0.1 0.6-0.2 1-0.5 0.5-0.8 0.8-1.1 0.7z"/>
			</g>
			<path id="&lt;Path&gt;" class="s19" d="m484 258.8l1.3 8.3q-4.7 9.9-7.4 9.1-2.3-0.8-0.9-9.5 1.2-4.8 0.9-7.1-0.4-2.4 6.1-0.8z"/>
			<path id="&lt;Path&gt;" class="s4" d="m477.9 259.6q-0.4-2.4 6.1-0.8l0.1 0.6q-0.3 0.7-0.7 1.2c-1.5 1.6-3.7 2.5-5.7 2.6 0.2-1.3 0.3-2.7 0.2-3.6z"/>
			<g id="&lt;Group&gt;">
				<path id="&lt;Path&gt;" class="s19" d="m485.1 246.9c0.1 0 1.4 9.5-1 12.2-2.5 2.6-7.2 3.5-8.9 1.4-1.9-2.3-1.8-12.6 2-15.3q3.8-2.7 7.9 1.7z"/>
				<path id="&lt;Path&gt;" class="s22" d="m478.6 240.1c3 0.6 4.9 2.4 5.6 3.2 1.3 0.1 3.1 0.9 5 4 2.3 3.8 0.6 8-2.1 10.1q-2.7 2-2.6 4.4l-0.5-1.2c-0.3-0.9-0.4-1.9-0.3-2.9 0.1-0.6 0.2-1.2 0.4-1.8 0.7-1.4-1.3-2.3-1.9-3.4-0.5-0.9-0.5-2.9-1.2-4.4l-0.8-1.1q-1.9-1.5-3.8-1.1c-1.8 0.4-1.6-6.6 2.2-5.8z"/>
				<ellipse id="&lt;Path&gt;" class="s19" cx="483.5" cy="254.2" rx="1.2" ry="2.1"/>
			</g>
			<path id="&lt;Path&gt;" class="s0" d="m476.3 258.2q-1.6-0.1-1.7-1.5l3.7 0.2q0 1.5-2 1.3z"/>
			<g id="&lt;Group&gt;">
				<path id="&lt;Path&gt;" class="s22" d="m448.1 278.7q1.3-1.3 2.5-2.7l16.1 15.7c1 1 0.6 2.9-0.8 4.3-1.4 1.5-3.3 1.9-4.3 0.9l-16.1-15.7q1.3-1.2 2.6-2.5z"/>
				<path id="&lt;Path&gt;" class="s27" d="m389.4 221.3c15.6-16.1 41.4-16.3 57.6-0.5 16.1 15.8 16.5 41.5 0.8 57.6-15.6 16-41.4 16.3-57.6 0.5-16.1-15.8-16.5-41.6-0.8-57.6z"/>
				<path id="&lt;Path&gt;" class="s28" d="m447.9 278c-6.7 7.1-15.8 11.7-25.9 12.6l-44-44.8q0-0.1 0-0.2c1.1-10.2 5.8-19.2 12.8-25.7z"/>
				<path id="&lt;Path&gt;" class="s28" d="m418.2 209.1l40.8 41.4q0 1.8-0.2 3.7c-0.7 5.8-2.5 11.2-5.2 16l-55-56c5.9-3.3 12.6-5.1 19.6-5.1z"/>
				<path id="&lt;Compound Path&gt;" fill-rule="evenodd" class="s9" d="m385.5 217.6c17.8-18.2 46.9-18.4 65.2-0.6 18.2 17.8 18.7 47 0.9 65.1-17.7 18.2-46.8 18.4-65.1 0.6-18.2-17.8-18.7-47-1-65.1zm62.3 60.8c15.7-16.1 15.3-41.8-0.8-57.6-16.2-15.8-42-15.6-57.6 0.5-15.7 16-15.3 41.8 0.8 57.6 16.2 15.8 42 15.5 57.6-0.5z"/>
				<path id="&lt;Compound Path&gt;" fill-rule="evenodd" class="s29" d="m387.5 219.5c16.7-17 44.1-17.3 61.2-0.5 17.2 16.7 17.6 44.1 0.9 61.2-16.6 17-44 17.2-61.1 0.5-17.2-16.8-17.6-44.1-1-61.2zm60.3 58.9c15.7-16.1 15.3-41.8-0.8-57.6-16.2-15.8-42-15.6-57.6 0.5-15.7 16-15.3 41.8 0.8 57.6 16.2 15.8 42 15.5 57.6-0.5z"/>
				<path id="&lt;Path&gt;" class="s9" d="m507.5 347.9l-46.5-45.1c-2.6-2.5-2.7-6.6-0.2-9.2l2.5-2.6c2.5-2.6 6.6-2.7 9.2-0.2l46.5 45.1c2.6 2.5 2.7 6.6 0.2 9.2l-2.5 2.6c-2.5 2.6-6.6 2.7-9.2 0.2z"/>
			</g>
			<path id="&lt;Path&gt;" class="s30" d="m514.1 322.7c-0.2 1.6 0.4 3.1 0.4 4.5 0 1.4 0.8 4.1 0.3 4.4q-0.2 0.3-0.5 0c-0.3-0.2-0.7-3.1-0.9-3.2q-0.1-0.1-0.1 0.2 0.6 3.8 0.4 4.3c-0.3 0.5-0.7 0.4-0.9 0.1-0.2-0.3-0.4-3.7-0.7-3.7q-0.2-0.1-0.1 0.5 0.7 4.2 0.3 4.8c-0.4 0.4-0.7 0.1-0.9-0.5-0.2-0.5-0.6-4.5-0.8-4.7q-0.3-0.2-0.2 0.4 0.4 4.4 0.3 4.7c-0.1 0.3-0.5 0.4-0.8-0.1-0.3-0.6-0.8-3.7-0.9-4-0.1-0.3-0.5-3-0.7-3.1-0.1-0.1-0.4 1.5-0.9 2.3-0.2 0.4-0.5 0.9-0.9 1-0.4 0.1-0.7-0.3-0.5-0.7 0.1-0.2 0.3-0.6 0.3-0.8 0.1-0.3 0.2-0.9 0.3-1.4 0.1-0.6 0.3-1.5 0.4-1.9 0.1-0.4 0.9-1.7 1.4-2.4 0.4-0.5 0.8-1.1 1.1-1.8q0.2-0.5 0.5-1.2-0.4-1.8-1.1-4.8-3.8-16.7-4.1-17.6l-10.5-14 5.4-7.3q10.9 15.6 11.3 16.5c0.4 1.1 2.8 25.8 3.1 28.7q0 0.1 0 0.3c0 0.1 0 0.4 0 0.5z"/>
			<path id="&lt;Path&gt;" class="s4" d="m508.2 286.6l-9.3 6.2q-5.3-7.8-8.1-10.6c-3.6-3.5 1.3-14.2 3.6-13.6q5.1 1.4 13.8 18z"/>
		</g>
		<path id="&lt;Path&gt;" class="s22" d="m62.4 414h465.1v2.8h-465.1z"/>
	</g>
</svg>