<svg version="1.2" xmlns="http://www.w3.org/2000/svg" viewBox="0 0 600 550" width="600" height="550">
	<title>19197471-ai</title>
	<defs>
		<linearGradient id="g1" x1="524.4" y1="447.2" x2="74.3" y2="447.2" gradientUnits="userSpaceOnUse">
			<stop offset="0" stop-color="#b37cff"/>
			<stop offset="1" stop-color="#f895e7"/>
		</linearGradient>
		<linearGradient id="g2" x1="92.4" y1="443.6" x2="524.9" y2="443.6" gradientUnits="userSpaceOnUse">
			<stop offset="0" stop-color="#b37cff"/>
			<stop offset="1" stop-color="#f895e7"/>
		</linearGradient>
		<linearGradient id="g3" x1="161.4" y1="387.8" x2="144.4" y2="319.5" gradientUnits="userSpaceOnUse">
			<stop offset="0" stop-color="#b37cff"/>
			<stop offset="1" stop-color="#f895e7"/>
		</linearGradient>
		<linearGradient id="g4" x1="82.5" y1="331.9" x2="202.3" y2="542.7" gradientUnits="userSpaceOnUse">
			<stop offset="0" stop-color="#a737d5"/>
			<stop offset="1" stop-color="#ef497a"/>
		</linearGradient>
		<linearGradient id="g5" x1="440.2" y1="387.8" x2="457.3" y2="319.5" gradientUnits="userSpaceOnUse">
			<stop offset="0" stop-color="#b37cff"/>
			<stop offset="1" stop-color="#f895e7"/>
		</linearGradient>
		<linearGradient id="g6" x1="519.2" y1="331.9" x2="399.3" y2="542.7" gradientUnits="userSpaceOnUse">
			<stop offset="0" stop-color="#a737d5"/>
			<stop offset="1" stop-color="#ef497a"/>
		</linearGradient>
		<linearGradient id="g7" x1="418.9" y1="224.3" x2="432.7" y2="552.9" gradientUnits="userSpaceOnUse">
			<stop offset="0" stop-color="#fdf53f"/>
			<stop offset="1" stop-color="#d93c65"/>
		</linearGradient>
		<linearGradient id="g8" x1="416.5" y1="153.6" x2="429.8" y2="469.7" gradientUnits="userSpaceOnUse">
			<stop offset="0" stop-color="#fdf53f"/>
			<stop offset="1" stop-color="#d93c65"/>
		</linearGradient>
		<linearGradient id="g9" x1="342.6" y1="308.9" x2="437" y2="404.3" gradientUnits="userSpaceOnUse">
			<stop offset="0" stop-color="#cb236d"/>
			<stop offset="1" stop-color="#4c246d"/>
		</linearGradient>
		<linearGradient id="g10" x1="368.3" y1="414" x2="381.3" y2="414" gradientUnits="userSpaceOnUse">
			<stop offset="0" stop-color="#f9b776"/>
			<stop offset="1" stop-color="#f47960"/>
		</linearGradient>
		<linearGradient id="g11" x1="359.2" y1="236.3" x2="361.2" y2="253.6" gradientUnits="userSpaceOnUse">
			<stop offset="0" stop-color="#cb236d"/>
			<stop offset="1" stop-color="#4c246d"/>
		</linearGradient>
		<linearGradient id="g12" x1="352.8" y1="415.1" x2="380.5" y2="415.1" gradientUnits="userSpaceOnUse">
			<stop offset="0" stop-color="#f9b776"/>
			<stop offset="1" stop-color="#f47960"/>
		</linearGradient>
		<linearGradient id="g13" x1="395.3" y1="407.3" x2="413.1" y2="442.3" gradientUnits="userSpaceOnUse">
			<stop offset="0" stop-color="#2b3582"/>
			<stop offset="1" stop-color="#150e42"/>
		</linearGradient>
		<linearGradient id="g14" x1="341.2" y1="253.5" x2="343" y2="269.6" gradientUnits="userSpaceOnUse">
			<stop offset="0" stop-color="#cb236d"/>
			<stop offset="1" stop-color="#4c246d"/>
		</linearGradient>
		<linearGradient id="g15" x1="392.6" y1="384" x2="408.9" y2="419.6" gradientUnits="userSpaceOnUse">
			<stop offset="0" stop-color="#52f0c0"/>
			<stop offset="1" stop-color="#9f71fb"/>
		</linearGradient>
		<linearGradient id="g16" x1="380.9" y1="391.5" x2="379.4" y2="381.9" gradientUnits="userSpaceOnUse">
			<stop offset="0" stop-color="#f9b776"/>
			<stop offset="1" stop-color="#f47960"/>
		</linearGradient>
		<linearGradient id="g17" x1="382" y1="367.6" x2="391.7" y2="374.2" gradientUnits="userSpaceOnUse">
			<stop offset="0" stop-color="#f9b776"/>
			<stop offset="1" stop-color="#f47960"/>
		</linearGradient>
		<linearGradient id="g18" x1="339" y1="316.6" x2="428" y2="406.4" gradientUnits="userSpaceOnUse">
			<stop offset="0" stop-color="#cb236d"/>
			<stop offset="1" stop-color="#4c246d"/>
		</linearGradient>
		<linearGradient id="g19" x1="381.1" y1="371.7" x2="390.2" y2="377.9" gradientUnits="userSpaceOnUse">
			<stop offset="0" stop-color="#f9b776"/>
			<stop offset="1" stop-color="#f47960"/>
		</linearGradient>
		<linearGradient id="g20" x1="391.7" y1="404.8" x2="417.6" y2="404.8" gradientUnits="userSpaceOnUse">
			<stop offset="0" stop-color="#f9b776"/>
			<stop offset="1" stop-color="#f47960"/>
		</linearGradient>
		<linearGradient id="g21" x1="384" y1="448.5" x2="388" y2="423.4" gradientUnits="userSpaceOnUse">
			<stop offset="0" stop-color="#53d8ff"/>
			<stop offset="1" stop-color="#3840f7"/>
		</linearGradient>
		<linearGradient id="g22" x1="379.9" y1="449.2" x2="384.3" y2="421.3" gradientUnits="userSpaceOnUse">
			<stop offset="0" stop-color="#53d8ff"/>
			<stop offset="1" stop-color="#3840f7"/>
		</linearGradient>
		<linearGradient id="g23" x1="374.5" y1="448.3" x2="379" y2="420.4" gradientUnits="userSpaceOnUse">
			<stop offset="0" stop-color="#53d8ff"/>
			<stop offset="1" stop-color="#3840f7"/>
		</linearGradient>
		<linearGradient id="g24" x1="394.6" y1="410.4" x2="376.8" y2="416.2" gradientUnits="userSpaceOnUse">
			<stop offset="0" stop-color="#2b3582"/>
			<stop offset="1" stop-color="#150e42"/>
		</linearGradient>
		<linearGradient id="g25" x1="383.2" y1="406.7" x2="370.3" y2="420.4" gradientUnits="userSpaceOnUse">
			<stop offset="0" stop-color="#2b3582"/>
			<stop offset="1" stop-color="#150e42"/>
		</linearGradient>
		<linearGradient id="g26" x1="330.8" y1="410.8" x2="417.2" y2="410.8" gradientUnits="userSpaceOnUse">
			<stop offset="0" stop-color="#9cfffb"/>
			<stop offset="1" stop-color="#9bfffa"/>
		</linearGradient>
		<linearGradient id="g27" x1="335.8" y1="412.6" x2="352.7" y2="412.6" gradientUnits="userSpaceOnUse">
			<stop offset="0" stop-color="#9cfffb"/>
			<stop offset="1" stop-color="#9bfffa"/>
		</linearGradient>
		<linearGradient id="g28" x1="337.8" y1="412.6" x2="354.6" y2="412.6" gradientUnits="userSpaceOnUse">
			<stop offset="0" stop-color="#9cfffb"/>
			<stop offset="1" stop-color="#9bfffa"/>
		</linearGradient>
		<linearGradient id="g29" x1="397.2" y1="412.6" x2="414.1" y2="412.6" gradientUnits="userSpaceOnUse">
			<stop offset="0" stop-color="#9cfffb"/>
			<stop offset="1" stop-color="#9bfffa"/>
		</linearGradient>
		<linearGradient id="g30" x1="399.2" y1="412.6" x2="416.1" y2="412.6" gradientUnits="userSpaceOnUse">
			<stop offset="0" stop-color="#9cfffb"/>
			<stop offset="1" stop-color="#9bfffa"/>
		</linearGradient>
		<clipPath clipPathUnits="userSpaceOnUse" id="cp1">
			<path d="m196.56 188.02h208.78v109.67l-105.59 70.84-111.98-75.29z"/>
		</clipPath>
		<linearGradient id="g31" x1="377.3" y1="292.5" x2="250.1" y2="466.8" gradientUnits="userSpaceOnUse">
			<stop offset="0" stop-color="#53d8ff"/>
			<stop offset="1" stop-color="#3840f7"/>
		</linearGradient>
		<linearGradient id="g32" x1="354.7" y1="200.1" x2="331.1" y2="447.3" gradientUnits="userSpaceOnUse">
			<stop offset="0" stop-color="#53d8ff"/>
			<stop offset="1" stop-color="#3840f7"/>
		</linearGradient>
		<linearGradient id="g33" x1="470.6" y1="295.9" x2="471.1" y2="295.9" gradientUnits="userSpaceOnUse">
			<stop offset="0" stop-color="#9cfffb"/>
			<stop offset="1" stop-color="#9bfffa"/>
		</linearGradient>
		<linearGradient id="g34" x1="470.8" y1="300.6" x2="471.3" y2="300.6" gradientUnits="userSpaceOnUse">
			<stop offset="0" stop-color="#9cfffb"/>
			<stop offset="1" stop-color="#9bfffa"/>
		</linearGradient>
		<linearGradient id="g35" x1="470.6" y1="305.4" x2="471.2" y2="305.4" gradientUnits="userSpaceOnUse">
			<stop offset="0" stop-color="#9cfffb"/>
			<stop offset="1" stop-color="#9bfffa"/>
		</linearGradient>
		<linearGradient id="g36" x1="470" y1="310.1" x2="470.7" y2="310.1" gradientUnits="userSpaceOnUse">
			<stop offset="0" stop-color="#9cfffb"/>
			<stop offset="1" stop-color="#9bfffa"/>
		</linearGradient>
		<linearGradient id="g37" x1="469" y1="314.8" x2="469.9" y2="314.8" gradientUnits="userSpaceOnUse">
			<stop offset="0" stop-color="#9cfffb"/>
			<stop offset="1" stop-color="#9bfffa"/>
		</linearGradient>
		<linearGradient id="g38" x1="467.7" y1="319.4" x2="468.7" y2="319.4" gradientUnits="userSpaceOnUse">
			<stop offset="0" stop-color="#9cfffb"/>
			<stop offset="1" stop-color="#9bfffa"/>
		</linearGradient>
		<linearGradient id="g39" x1="466.2" y1="323.9" x2="467.3" y2="323.9" gradientUnits="userSpaceOnUse">
			<stop offset="0" stop-color="#9cfffb"/>
			<stop offset="1" stop-color="#9bfffa"/>
		</linearGradient>
		<linearGradient id="g40" x1="464.3" y1="328.2" x2="465.5" y2="328.2" gradientUnits="userSpaceOnUse">
			<stop offset="0" stop-color="#9cfffb"/>
			<stop offset="1" stop-color="#9bfffa"/>
		</linearGradient>
		<linearGradient id="g41" x1="462.1" y1="332.4" x2="463.5" y2="332.4" gradientUnits="userSpaceOnUse">
			<stop offset="0" stop-color="#9cfffb"/>
			<stop offset="1" stop-color="#9bfffa"/>
		</linearGradient>
		<linearGradient id="g42" x1="459.7" y1="336.3" x2="461.1" y2="336.3" gradientUnits="userSpaceOnUse">
			<stop offset="0" stop-color="#9cfffb"/>
			<stop offset="1" stop-color="#9bfffa"/>
		</linearGradient>
		<linearGradient id="g43" x1="457" y1="340.1" x2="458.6" y2="340.1" gradientUnits="userSpaceOnUse">
			<stop offset="0" stop-color="#9cfffb"/>
			<stop offset="1" stop-color="#9bfffa"/>
		</linearGradient>
		<linearGradient id="g44" x1="454" y1="343.7" x2="455.8" y2="343.7" gradientUnits="userSpaceOnUse">
			<stop offset="0" stop-color="#9cfffb"/>
			<stop offset="1" stop-color="#9bfffa"/>
		</linearGradient>
		<linearGradient id="g45" x1="450.8" y1="347" x2="452.7" y2="347" gradientUnits="userSpaceOnUse">
			<stop offset="0" stop-color="#9cfffb"/>
			<stop offset="1" stop-color="#9bfffa"/>
		</linearGradient>
		<linearGradient id="g46" x1="447.5" y1="350" x2="449.4" y2="350" gradientUnits="userSpaceOnUse">
			<stop offset="0" stop-color="#9cfffb"/>
			<stop offset="1" stop-color="#9bfffa"/>
		</linearGradient>
		<linearGradient id="g47" x1="443.9" y1="352.7" x2="445.9" y2="352.7" gradientUnits="userSpaceOnUse">
			<stop offset="0" stop-color="#9cfffb"/>
			<stop offset="1" stop-color="#9bfffa"/>
		</linearGradient>
		<linearGradient id="g48" x1="440.1" y1="355.1" x2="442.2" y2="355.1" gradientUnits="userSpaceOnUse">
			<stop offset="0" stop-color="#9cfffb"/>
			<stop offset="1" stop-color="#9bfffa"/>
		</linearGradient>
		<linearGradient id="g49" x1="436.1" y1="357.1" x2="438.3" y2="357.1" gradientUnits="userSpaceOnUse">
			<stop offset="0" stop-color="#9cfffb"/>
			<stop offset="1" stop-color="#9bfffa"/>
		</linearGradient>
		<linearGradient id="g50" x1="432.1" y1="358.8" x2="434.3" y2="358.8" gradientUnits="userSpaceOnUse">
			<stop offset="0" stop-color="#9cfffb"/>
			<stop offset="1" stop-color="#9bfffa"/>
		</linearGradient>
		<linearGradient id="g51" x1="427.9" y1="360.1" x2="430.2" y2="360.1" gradientUnits="userSpaceOnUse">
			<stop offset="0" stop-color="#9cfffb"/>
			<stop offset="1" stop-color="#9bfffa"/>
		</linearGradient>
		<linearGradient id="g52" x1="423.6" y1="361" x2="426" y2="361" gradientUnits="userSpaceOnUse">
			<stop offset="0" stop-color="#9cfffb"/>
			<stop offset="1" stop-color="#9bfffa"/>
		</linearGradient>
		<linearGradient id="g53" x1="419.3" y1="361.6" x2="421.8" y2="361.6" gradientUnits="userSpaceOnUse">
			<stop offset="0" stop-color="#9cfffb"/>
			<stop offset="1" stop-color="#9bfffa"/>
		</linearGradient>
		<linearGradient id="g54" x1="415" y1="361.8" x2="417.5" y2="361.8" gradientUnits="userSpaceOnUse">
			<stop offset="0" stop-color="#9cfffb"/>
			<stop offset="1" stop-color="#9bfffa"/>
		</linearGradient>
		<linearGradient id="g55" x1="410.7" y1="361.6" x2="413.2" y2="361.6" gradientUnits="userSpaceOnUse">
			<stop offset="0" stop-color="#9cfffb"/>
			<stop offset="1" stop-color="#9bfffa"/>
		</linearGradient>
		<linearGradient id="g56" x1="406.5" y1="361.2" x2="408.9" y2="361.2" gradientUnits="userSpaceOnUse">
			<stop offset="0" stop-color="#9cfffb"/>
			<stop offset="1" stop-color="#9bfffa"/>
		</linearGradient>
		<linearGradient id="g57" x1="402.2" y1="360.5" x2="404.7" y2="360.5" gradientUnits="userSpaceOnUse">
			<stop offset="0" stop-color="#9cfffb"/>
			<stop offset="1" stop-color="#9bfffa"/>
		</linearGradient>
		<linearGradient id="g58" x1="398" y1="359.5" x2="400.5" y2="359.5" gradientUnits="userSpaceOnUse">
			<stop offset="0" stop-color="#9cfffb"/>
			<stop offset="1" stop-color="#9bfffa"/>
		</linearGradient>
		<linearGradient id="g59" x1="393.9" y1="358.2" x2="396.3" y2="358.2" gradientUnits="userSpaceOnUse">
			<stop offset="0" stop-color="#9cfffb"/>
			<stop offset="1" stop-color="#9bfffa"/>
		</linearGradient>
		<linearGradient id="g60" x1="389.8" y1="356.7" x2="392.2" y2="356.7" gradientUnits="userSpaceOnUse">
			<stop offset="0" stop-color="#9cfffb"/>
			<stop offset="1" stop-color="#9bfffa"/>
		</linearGradient>
		<linearGradient id="g61" x1="385.7" y1="355" x2="388.2" y2="355" gradientUnits="userSpaceOnUse">
			<stop offset="0" stop-color="#9cfffb"/>
			<stop offset="1" stop-color="#9bfffa"/>
		</linearGradient>
		<linearGradient id="g62" x1="381.8" y1="353.1" x2="384.2" y2="353.1" gradientUnits="userSpaceOnUse">
			<stop offset="0" stop-color="#9cfffb"/>
			<stop offset="1" stop-color="#9bfffa"/>
		</linearGradient>
		<linearGradient id="g63" x1="377.9" y1="351" x2="380.3" y2="351" gradientUnits="userSpaceOnUse">
			<stop offset="0" stop-color="#9cfffb"/>
			<stop offset="1" stop-color="#9bfffa"/>
		</linearGradient>
		<linearGradient id="g64" x1="374.2" y1="348.7" x2="376.6" y2="348.7" gradientUnits="userSpaceOnUse">
			<stop offset="0" stop-color="#9cfffb"/>
			<stop offset="1" stop-color="#9bfffa"/>
		</linearGradient>
		<linearGradient id="g65" x1="370.5" y1="346.2" x2="372.9" y2="346.2" gradientUnits="userSpaceOnUse">
			<stop offset="0" stop-color="#9cfffb"/>
			<stop offset="1" stop-color="#9bfffa"/>
		</linearGradient>
		<linearGradient id="g66" x1="366.9" y1="343.6" x2="369.3" y2="343.6" gradientUnits="userSpaceOnUse">
			<stop offset="0" stop-color="#9cfffb"/>
			<stop offset="1" stop-color="#9bfffa"/>
		</linearGradient>
		<linearGradient id="g67" x1="363.4" y1="340.8" x2="365.7" y2="340.8" gradientUnits="userSpaceOnUse">
			<stop offset="0" stop-color="#9cfffb"/>
			<stop offset="1" stop-color="#9bfffa"/>
		</linearGradient>
		<linearGradient id="g68" x1="360" y1="337.9" x2="362.3" y2="337.9" gradientUnits="userSpaceOnUse">
			<stop offset="0" stop-color="#9cfffb"/>
			<stop offset="1" stop-color="#9bfffa"/>
		</linearGradient>
		<linearGradient id="g69" x1="356.6" y1="334.9" x2="358.9" y2="334.9" gradientUnits="userSpaceOnUse">
			<stop offset="0" stop-color="#9cfffb"/>
			<stop offset="1" stop-color="#9bfffa"/>
		</linearGradient>
		<linearGradient id="g70" x1="353.3" y1="331.8" x2="355.6" y2="331.8" gradientUnits="userSpaceOnUse">
			<stop offset="0" stop-color="#9cfffb"/>
			<stop offset="1" stop-color="#9bfffa"/>
		</linearGradient>
		<linearGradient id="g71" x1="350.1" y1="328.6" x2="352.4" y2="328.6" gradientUnits="userSpaceOnUse">
			<stop offset="0" stop-color="#9cfffb"/>
			<stop offset="1" stop-color="#9bfffa"/>
		</linearGradient>
		<linearGradient id="g72" x1="346.9" y1="325.4" x2="349.2" y2="325.4" gradientUnits="userSpaceOnUse">
			<stop offset="0" stop-color="#9cfffb"/>
			<stop offset="1" stop-color="#9bfffa"/>
		</linearGradient>
		<linearGradient id="g73" x1="343.8" y1="322.1" x2="346.1" y2="322.1" gradientUnits="userSpaceOnUse">
			<stop offset="0" stop-color="#9cfffb"/>
			<stop offset="1" stop-color="#9bfffa"/>
		</linearGradient>
		<linearGradient id="g74" x1="340.8" y1="318.7" x2="343.1" y2="318.7" gradientUnits="userSpaceOnUse">
			<stop offset="0" stop-color="#9cfffb"/>
			<stop offset="1" stop-color="#9bfffa"/>
		</linearGradient>
		<linearGradient id="g75" x1="337.8" y1="315.3" x2="340.1" y2="315.3" gradientUnits="userSpaceOnUse">
			<stop offset="0" stop-color="#9cfffb"/>
			<stop offset="1" stop-color="#9bfffa"/>
		</linearGradient>
		<linearGradient id="g76" x1="334.8" y1="311.8" x2="337.1" y2="311.8" gradientUnits="userSpaceOnUse">
			<stop offset="0" stop-color="#9cfffb"/>
			<stop offset="1" stop-color="#9bfffa"/>
		</linearGradient>
		<linearGradient id="g77" x1="331.8" y1="308.3" x2="334.1" y2="308.3" gradientUnits="userSpaceOnUse">
			<stop offset="0" stop-color="#9cfffb"/>
			<stop offset="1" stop-color="#9bfffa"/>
		</linearGradient>
		<linearGradient id="g78" x1="328.9" y1="304.8" x2="331.2" y2="304.8" gradientUnits="userSpaceOnUse">
			<stop offset="0" stop-color="#9cfffb"/>
			<stop offset="1" stop-color="#9bfffa"/>
		</linearGradient>
		<linearGradient id="g79" x1="326" y1="301.3" x2="328.3" y2="301.3" gradientUnits="userSpaceOnUse">
			<stop offset="0" stop-color="#9cfffb"/>
			<stop offset="1" stop-color="#9bfffa"/>
		</linearGradient>
		<linearGradient id="g80" x1="323.1" y1="297.8" x2="325.4" y2="297.8" gradientUnits="userSpaceOnUse">
			<stop offset="0" stop-color="#9cfffb"/>
			<stop offset="1" stop-color="#9bfffa"/>
		</linearGradient>
		<linearGradient id="g81" x1="320.1" y1="294.3" x2="322.4" y2="294.3" gradientUnits="userSpaceOnUse">
			<stop offset="0" stop-color="#9cfffb"/>
			<stop offset="1" stop-color="#9bfffa"/>
		</linearGradient>
		<linearGradient id="g82" x1="317.2" y1="290.8" x2="319.5" y2="290.8" gradientUnits="userSpaceOnUse">
			<stop offset="0" stop-color="#9cfffb"/>
			<stop offset="1" stop-color="#9bfffa"/>
		</linearGradient>
		<linearGradient id="g83" x1="314.2" y1="287.4" x2="316.6" y2="287.4" gradientUnits="userSpaceOnUse">
			<stop offset="0" stop-color="#9cfffb"/>
			<stop offset="1" stop-color="#9bfffa"/>
		</linearGradient>
		<linearGradient id="g84" x1="311.2" y1="283.9" x2="313.6" y2="283.9" gradientUnits="userSpaceOnUse">
			<stop offset="0" stop-color="#9cfffb"/>
			<stop offset="1" stop-color="#9bfffa"/>
		</linearGradient>
		<linearGradient id="g85" x1="308.2" y1="280.6" x2="310.5" y2="280.6" gradientUnits="userSpaceOnUse">
			<stop offset="0" stop-color="#9cfffb"/>
			<stop offset="1" stop-color="#9bfffa"/>
		</linearGradient>
		<linearGradient id="g86" x1="305.1" y1="277.2" x2="307.5" y2="277.2" gradientUnits="userSpaceOnUse">
			<stop offset="0" stop-color="#9cfffb"/>
			<stop offset="1" stop-color="#9bfffa"/>
		</linearGradient>
		<linearGradient id="g87" x1="301.9" y1="274" x2="304.3" y2="274" gradientUnits="userSpaceOnUse">
			<stop offset="0" stop-color="#9cfffb"/>
			<stop offset="1" stop-color="#9bfffa"/>
		</linearGradient>
		<linearGradient id="g88" x1="298.7" y1="270.8" x2="301.2" y2="270.8" gradientUnits="userSpaceOnUse">
			<stop offset="0" stop-color="#9cfffb"/>
			<stop offset="1" stop-color="#9bfffa"/>
		</linearGradient>
		<linearGradient id="g89" x1="295.5" y1="267.7" x2="297.9" y2="267.7" gradientUnits="userSpaceOnUse">
			<stop offset="0" stop-color="#9cfffb"/>
			<stop offset="1" stop-color="#9bfffa"/>
		</linearGradient>
		<linearGradient id="g90" x1="292.1" y1="264.7" x2="294.6" y2="264.7" gradientUnits="userSpaceOnUse">
			<stop offset="0" stop-color="#9cfffb"/>
			<stop offset="1" stop-color="#9bfffa"/>
		</linearGradient>
		<linearGradient id="g91" x1="288.7" y1="261.8" x2="291.2" y2="261.8" gradientUnits="userSpaceOnUse">
			<stop offset="0" stop-color="#9cfffb"/>
			<stop offset="1" stop-color="#9bfffa"/>
		</linearGradient>
		<linearGradient id="g92" x1="285.2" y1="259" x2="287.7" y2="259" gradientUnits="userSpaceOnUse">
			<stop offset="0" stop-color="#9cfffb"/>
			<stop offset="1" stop-color="#9bfffa"/>
		</linearGradient>
		<linearGradient id="g93" x1="281.7" y1="256.4" x2="284.1" y2="256.4" gradientUnits="userSpaceOnUse">
			<stop offset="0" stop-color="#9cfffb"/>
			<stop offset="1" stop-color="#9bfffa"/>
		</linearGradient>
		<linearGradient id="g94" x1="278" y1="253.9" x2="280.5" y2="253.9" gradientUnits="userSpaceOnUse">
			<stop offset="0" stop-color="#9cfffb"/>
			<stop offset="1" stop-color="#9bfffa"/>
		</linearGradient>
		<linearGradient id="g95" x1="274.3" y1="251.6" x2="276.8" y2="251.6" gradientUnits="userSpaceOnUse">
			<stop offset="0" stop-color="#9cfffb"/>
			<stop offset="1" stop-color="#9bfffa"/>
		</linearGradient>
		<linearGradient id="g96" x1="270.5" y1="249.4" x2="273" y2="249.4" gradientUnits="userSpaceOnUse">
			<stop offset="0" stop-color="#9cfffb"/>
			<stop offset="1" stop-color="#9bfffa"/>
		</linearGradient>
		<linearGradient id="g97" x1="266.6" y1="247.4" x2="269.1" y2="247.4" gradientUnits="userSpaceOnUse">
			<stop offset="0" stop-color="#9cfffb"/>
			<stop offset="1" stop-color="#9bfffa"/>
		</linearGradient>
		<linearGradient id="g98" x1="262.6" y1="245.5" x2="265.2" y2="245.5" gradientUnits="userSpaceOnUse">
			<stop offset="0" stop-color="#9cfffb"/>
			<stop offset="1" stop-color="#9bfffa"/>
		</linearGradient>
		<linearGradient id="g99" x1="258.6" y1="243.8" x2="261.2" y2="243.8" gradientUnits="userSpaceOnUse">
			<stop offset="0" stop-color="#9cfffb"/>
			<stop offset="1" stop-color="#9bfffa"/>
		</linearGradient>
		<linearGradient id="g100" x1="254.5" y1="242.2" x2="257.1" y2="242.2" gradientUnits="userSpaceOnUse">
			<stop offset="0" stop-color="#9cfffb"/>
			<stop offset="1" stop-color="#9bfffa"/>
		</linearGradient>
		<linearGradient id="g101" x1="250.4" y1="240.8" x2="253.1" y2="240.8" gradientUnits="userSpaceOnUse">
			<stop offset="0" stop-color="#9cfffb"/>
			<stop offset="1" stop-color="#9bfffa"/>
		</linearGradient>
		<linearGradient id="g102" x1="246.3" y1="239.6" x2="248.9" y2="239.6" gradientUnits="userSpaceOnUse">
			<stop offset="0" stop-color="#9cfffb"/>
			<stop offset="1" stop-color="#9bfffa"/>
		</linearGradient>
		<linearGradient id="g103" x1="242.1" y1="238.5" x2="244.8" y2="238.5" gradientUnits="userSpaceOnUse">
			<stop offset="0" stop-color="#9cfffb"/>
			<stop offset="1" stop-color="#9bfffa"/>
		</linearGradient>
		<linearGradient id="g104" x1="237.9" y1="237.6" x2="240.6" y2="237.6" gradientUnits="userSpaceOnUse">
			<stop offset="0" stop-color="#9cfffb"/>
			<stop offset="1" stop-color="#9bfffa"/>
		</linearGradient>
		<linearGradient id="g105" x1="233.6" y1="236.9" x2="236.3" y2="236.9" gradientUnits="userSpaceOnUse">
			<stop offset="0" stop-color="#9cfffb"/>
			<stop offset="1" stop-color="#9bfffa"/>
		</linearGradient>
		<linearGradient id="g106" x1="229.3" y1="236.3" x2="232.1" y2="236.3" gradientUnits="userSpaceOnUse">
			<stop offset="0" stop-color="#9cfffb"/>
			<stop offset="1" stop-color="#9bfffa"/>
		</linearGradient>
		<linearGradient id="g107" x1="225.1" y1="235.9" x2="227.8" y2="235.9" gradientUnits="userSpaceOnUse">
			<stop offset="0" stop-color="#9cfffb"/>
			<stop offset="1" stop-color="#9bfffa"/>
		</linearGradient>
		<linearGradient id="g108" x1="220.8" y1="235.6" x2="223.5" y2="235.6" gradientUnits="userSpaceOnUse">
			<stop offset="0" stop-color="#9cfffb"/>
			<stop offset="1" stop-color="#9bfffa"/>
		</linearGradient>
		<linearGradient id="g109" x1="216.5" y1="235.6" x2="219.2" y2="235.6" gradientUnits="userSpaceOnUse">
			<stop offset="0" stop-color="#9cfffb"/>
			<stop offset="1" stop-color="#9bfffa"/>
		</linearGradient>
		<linearGradient id="g110" x1="212.2" y1="235.6" x2="214.9" y2="235.6" gradientUnits="userSpaceOnUse">
			<stop offset="0" stop-color="#9cfffb"/>
			<stop offset="1" stop-color="#9bfffa"/>
		</linearGradient>
		<linearGradient id="g111" x1="207.9" y1="235.9" x2="210.6" y2="235.9" gradientUnits="userSpaceOnUse">
			<stop offset="0" stop-color="#9cfffb"/>
			<stop offset="1" stop-color="#9bfffa"/>
		</linearGradient>
		<linearGradient id="g112" x1="203.7" y1="236.3" x2="206.3" y2="236.3" gradientUnits="userSpaceOnUse">
			<stop offset="0" stop-color="#9cfffb"/>
			<stop offset="1" stop-color="#9bfffa"/>
		</linearGradient>
		<linearGradient id="g113" x1="199.4" y1="236.9" x2="202.1" y2="236.9" gradientUnits="userSpaceOnUse">
			<stop offset="0" stop-color="#9cfffb"/>
			<stop offset="1" stop-color="#9bfffa"/>
		</linearGradient>
		<linearGradient id="g114" x1="195.2" y1="237.6" x2="197.8" y2="237.6" gradientUnits="userSpaceOnUse">
			<stop offset="0" stop-color="#9cfffb"/>
			<stop offset="1" stop-color="#9bfffa"/>
		</linearGradient>
		<linearGradient id="g115" x1="191" y1="238.6" x2="193.6" y2="238.6" gradientUnits="userSpaceOnUse">
			<stop offset="0" stop-color="#9cfffb"/>
			<stop offset="1" stop-color="#9bfffa"/>
		</linearGradient>
		<linearGradient id="g116" x1="186.9" y1="239.8" x2="189.4" y2="239.8" gradientUnits="userSpaceOnUse">
			<stop offset="0" stop-color="#9cfffb"/>
			<stop offset="1" stop-color="#9bfffa"/>
		</linearGradient>
		<linearGradient id="g117" x1="182.8" y1="241.2" x2="185.3" y2="241.2" gradientUnits="userSpaceOnUse">
			<stop offset="0" stop-color="#9cfffb"/>
			<stop offset="1" stop-color="#9bfffa"/>
		</linearGradient>
		<linearGradient id="g118" x1="178.8" y1="242.8" x2="181.2" y2="242.8" gradientUnits="userSpaceOnUse">
			<stop offset="0" stop-color="#9cfffb"/>
			<stop offset="1" stop-color="#9bfffa"/>
		</linearGradient>
		<linearGradient id="g119" x1="174.9" y1="244.7" x2="177.3" y2="244.7" gradientUnits="userSpaceOnUse">
			<stop offset="0" stop-color="#9cfffb"/>
			<stop offset="1" stop-color="#9bfffa"/>
		</linearGradient>
		<linearGradient id="g120" x1="171.1" y1="246.8" x2="173.4" y2="246.8" gradientUnits="userSpaceOnUse">
			<stop offset="0" stop-color="#9cfffb"/>
			<stop offset="1" stop-color="#9bfffa"/>
		</linearGradient>
		<linearGradient id="g121" x1="167.4" y1="249.3" x2="169.7" y2="249.3" gradientUnits="userSpaceOnUse">
			<stop offset="0" stop-color="#9cfffb"/>
			<stop offset="1" stop-color="#9bfffa"/>
		</linearGradient>
		<linearGradient id="g122" x1="164" y1="252" x2="166.2" y2="252" gradientUnits="userSpaceOnUse">
			<stop offset="0" stop-color="#9cfffb"/>
			<stop offset="1" stop-color="#9bfffa"/>
		</linearGradient>
		<linearGradient id="g123" x1="160.7" y1="255" x2="162.8" y2="255" gradientUnits="userSpaceOnUse">
			<stop offset="0" stop-color="#9cfffb"/>
			<stop offset="1" stop-color="#9bfffa"/>
		</linearGradient>
		<linearGradient id="g124" x1="157.7" y1="258.3" x2="159.7" y2="258.3" gradientUnits="userSpaceOnUse">
			<stop offset="0" stop-color="#9cfffb"/>
			<stop offset="1" stop-color="#9bfffa"/>
		</linearGradient>
		<linearGradient id="g125" x1="155" y1="261.9" x2="156.9" y2="261.9" gradientUnits="userSpaceOnUse">
			<stop offset="0" stop-color="#9cfffb"/>
			<stop offset="1" stop-color="#9bfffa"/>
		</linearGradient>
		<linearGradient id="g126" x1="152.6" y1="265.8" x2="154.4" y2="265.8" gradientUnits="userSpaceOnUse">
			<stop offset="0" stop-color="#9cfffb"/>
			<stop offset="1" stop-color="#9bfffa"/>
		</linearGradient>
		<linearGradient id="g127" x1="150.6" y1="270" x2="152.2" y2="270" gradientUnits="userSpaceOnUse">
			<stop offset="0" stop-color="#9cfffb"/>
			<stop offset="1" stop-color="#9bfffa"/>
		</linearGradient>
		<linearGradient id="g128" x1="148.9" y1="274.3" x2="150.4" y2="274.3" gradientUnits="userSpaceOnUse">
			<stop offset="0" stop-color="#9cfffb"/>
			<stop offset="1" stop-color="#9bfffa"/>
		</linearGradient>
		<linearGradient id="g129" x1="147.6" y1="278.8" x2="149" y2="278.8" gradientUnits="userSpaceOnUse">
			<stop offset="0" stop-color="#9cfffb"/>
			<stop offset="1" stop-color="#9bfffa"/>
		</linearGradient>
		<linearGradient id="g130" x1="146.7" y1="283.5" x2="148" y2="283.5" gradientUnits="userSpaceOnUse">
			<stop offset="0" stop-color="#9cfffb"/>
			<stop offset="1" stop-color="#9bfffa"/>
		</linearGradient>
		<linearGradient id="g131" x1="146.1" y1="288.2" x2="147.4" y2="288.2" gradientUnits="userSpaceOnUse">
			<stop offset="0" stop-color="#9cfffb"/>
			<stop offset="1" stop-color="#9bfffa"/>
		</linearGradient>
		<linearGradient id="g132" x1="145.9" y1="293" x2="147.1" y2="293" gradientUnits="userSpaceOnUse">
			<stop offset="0" stop-color="#9cfffb"/>
			<stop offset="1" stop-color="#9bfffa"/>
		</linearGradient>
		<linearGradient id="g133" x1="146" y1="297.8" x2="147.2" y2="297.8" gradientUnits="userSpaceOnUse">
			<stop offset="0" stop-color="#9cfffb"/>
			<stop offset="1" stop-color="#9bfffa"/>
		</linearGradient>
		<linearGradient id="g134" x1="146.5" y1="302.6" x2="147.7" y2="302.6" gradientUnits="userSpaceOnUse">
			<stop offset="0" stop-color="#9cfffb"/>
			<stop offset="1" stop-color="#9bfffa"/>
		</linearGradient>
		<linearGradient id="g135" x1="147.3" y1="307.3" x2="148.6" y2="307.3" gradientUnits="userSpaceOnUse">
			<stop offset="0" stop-color="#9cfffb"/>
			<stop offset="1" stop-color="#9bfffa"/>
		</linearGradient>
		<linearGradient id="g136" x1="148.4" y1="311.9" x2="149.8" y2="311.9" gradientUnits="userSpaceOnUse">
			<stop offset="0" stop-color="#9cfffb"/>
			<stop offset="1" stop-color="#9bfffa"/>
		</linearGradient>
		<linearGradient id="g137" x1="149.9" y1="316.4" x2="151.4" y2="316.4" gradientUnits="userSpaceOnUse">
			<stop offset="0" stop-color="#9cfffb"/>
			<stop offset="1" stop-color="#9bfffa"/>
		</linearGradient>
		<linearGradient id="g138" x1="151.8" y1="320.7" x2="153.3" y2="320.7" gradientUnits="userSpaceOnUse">
			<stop offset="0" stop-color="#9cfffb"/>
			<stop offset="1" stop-color="#9bfffa"/>
		</linearGradient>
		<linearGradient id="g139" x1="154" y1="324.8" x2="155.7" y2="324.8" gradientUnits="userSpaceOnUse">
			<stop offset="0" stop-color="#9cfffb"/>
			<stop offset="1" stop-color="#9bfffa"/>
		</linearGradient>
		<linearGradient id="g140" x1="156.6" y1="328.7" x2="158.3" y2="328.7" gradientUnits="userSpaceOnUse">
			<stop offset="0" stop-color="#9cfffb"/>
			<stop offset="1" stop-color="#9bfffa"/>
		</linearGradient>
		<linearGradient id="g141" x1="159.5" y1="332.2" x2="161.3" y2="332.2" gradientUnits="userSpaceOnUse">
			<stop offset="0" stop-color="#9cfffb"/>
			<stop offset="1" stop-color="#9bfffa"/>
		</linearGradient>
		<linearGradient id="g142" x1="162.8" y1="335.4" x2="164.6" y2="335.4" gradientUnits="userSpaceOnUse">
			<stop offset="0" stop-color="#9cfffb"/>
			<stop offset="1" stop-color="#9bfffa"/>
		</linearGradient>
		<linearGradient id="g143" x1="166.3" y1="338.2" x2="168.1" y2="338.2" gradientUnits="userSpaceOnUse">
			<stop offset="0" stop-color="#9cfffb"/>
			<stop offset="1" stop-color="#9bfffa"/>
		</linearGradient>
		<linearGradient id="g144" x1="170" y1="340.7" x2="171.9" y2="340.7" gradientUnits="userSpaceOnUse">
			<stop offset="0" stop-color="#9cfffb"/>
			<stop offset="1" stop-color="#9bfffa"/>
		</linearGradient>
		<linearGradient id="g145" x1="173.9" y1="342.7" x2="175.8" y2="342.7" gradientUnits="userSpaceOnUse">
			<stop offset="0" stop-color="#9cfffb"/>
			<stop offset="1" stop-color="#9bfffa"/>
		</linearGradient>
		<linearGradient id="g146" x1="177.9" y1="344.4" x2="179.8" y2="344.4" gradientUnits="userSpaceOnUse">
			<stop offset="0" stop-color="#9cfffb"/>
			<stop offset="1" stop-color="#9bfffa"/>
		</linearGradient>
		<linearGradient id="g147" x1="182.1" y1="345.7" x2="184" y2="345.7" gradientUnits="userSpaceOnUse">
			<stop offset="0" stop-color="#9cfffb"/>
			<stop offset="1" stop-color="#9bfffa"/>
		</linearGradient>
		<linearGradient id="g148" x1="186.3" y1="346.5" x2="188.2" y2="346.5" gradientUnits="userSpaceOnUse">
			<stop offset="0" stop-color="#9cfffb"/>
			<stop offset="1" stop-color="#9bfffa"/>
		</linearGradient>
		<linearGradient id="g149" x1="190.6" y1="347" x2="192.5" y2="347" gradientUnits="userSpaceOnUse">
			<stop offset="0" stop-color="#9cfffb"/>
			<stop offset="1" stop-color="#9bfffa"/>
		</linearGradient>
		<linearGradient id="g150" x1="194.9" y1="347" x2="196.8" y2="347" gradientUnits="userSpaceOnUse">
			<stop offset="0" stop-color="#9cfffb"/>
			<stop offset="1" stop-color="#9bfffa"/>
		</linearGradient>
		<linearGradient id="g151" x1="199.2" y1="346.6" x2="201" y2="346.6" gradientUnits="userSpaceOnUse">
			<stop offset="0" stop-color="#9cfffb"/>
			<stop offset="1" stop-color="#9bfffa"/>
		</linearGradient>
		<linearGradient id="g152" x1="203.5" y1="345.7" x2="205.2" y2="345.7" gradientUnits="userSpaceOnUse">
			<stop offset="0" stop-color="#9cfffb"/>
			<stop offset="1" stop-color="#9bfffa"/>
		</linearGradient>
		<linearGradient id="g153" x1="207.6" y1="344.4" x2="209.3" y2="344.4" gradientUnits="userSpaceOnUse">
			<stop offset="0" stop-color="#9cfffb"/>
			<stop offset="1" stop-color="#9bfffa"/>
		</linearGradient>
		<linearGradient id="g154" x1="211.7" y1="342.7" x2="213.3" y2="342.7" gradientUnits="userSpaceOnUse">
			<stop offset="0" stop-color="#9cfffb"/>
			<stop offset="1" stop-color="#9bfffa"/>
		</linearGradient>
		<linearGradient id="g155" x1="215.6" y1="340.6" x2="217.1" y2="340.6" gradientUnits="userSpaceOnUse">
			<stop offset="0" stop-color="#9cfffb"/>
			<stop offset="1" stop-color="#9bfffa"/>
		</linearGradient>
		<linearGradient id="g156" x1="219.3" y1="338.2" x2="220.5" y2="338.2" gradientUnits="userSpaceOnUse">
			<stop offset="0" stop-color="#9cfffb"/>
			<stop offset="1" stop-color="#9bfffa"/>
		</linearGradient>
		<linearGradient id="g157" x1="447.3" y1="301.4" x2="477.8" y2="429.1" gradientUnits="userSpaceOnUse">
			<stop offset="0" stop-color="#53d8ff"/>
			<stop offset="1" stop-color="#3840f7"/>
		</linearGradient>
		<linearGradient id="g158" x1="470.6" y1="479.1" x2="471.1" y2="463.8" gradientUnits="userSpaceOnUse">
			<stop offset="0" stop-color="#7c27dd"/>
			<stop offset="1" stop-color="#2b41d9"/>
		</linearGradient>
		<linearGradient id="g159" x1="492" y1="444.6" x2="466" y2="465" gradientUnits="userSpaceOnUse">
			<stop offset="0" stop-color="#53d8ff"/>
			<stop offset="1" stop-color="#3840f7"/>
		</linearGradient>
		<linearGradient id="g160" x1="472.2" y1="440.6" x2="473.9" y2="455.8" gradientUnits="userSpaceOnUse">
			<stop offset="0" stop-color="#f9b776"/>
			<stop offset="1" stop-color="#f47960"/>
		</linearGradient>
		<linearGradient id="g161" x1="443.6" y1="451.1" x2="474.7" y2="475.5" gradientUnits="userSpaceOnUse">
			<stop offset="0" stop-color="#53d8ff"/>
			<stop offset="1" stop-color="#3840f7"/>
		</linearGradient>
		<linearGradient id="g162" x1="461.9" y1="488.8" x2="461.4" y2="473.4" gradientUnits="userSpaceOnUse">
			<stop offset="0" stop-color="#7c27dd"/>
			<stop offset="1" stop-color="#2b41d9"/>
		</linearGradient>
		<linearGradient id="g163" x1="455.8" y1="442.5" x2="457.4" y2="456.6" gradientUnits="userSpaceOnUse">
			<stop offset="0" stop-color="#f9b776"/>
			<stop offset="1" stop-color="#f47960"/>
		</linearGradient>
		<linearGradient id="g164" x1="478.3" y1="441.3" x2="476.4" y2="379.9" gradientUnits="userSpaceOnUse">
			<stop offset="0" stop-color="#2c759e"/>
			<stop offset="1" stop-color="#051042"/>
		</linearGradient>
		<linearGradient id="g165" x1="469.8" y1="299.4" x2="498.9" y2="421.2" gradientUnits="userSpaceOnUse">
			<stop offset="0" stop-color="#53d8ff"/>
			<stop offset="1" stop-color="#3840f7"/>
		</linearGradient>
		<linearGradient id="g166" x1="473.3" y1="334.9" x2="466.3" y2="334.9" gradientUnits="userSpaceOnUse">
			<stop offset="0" stop-color="#f9b776"/>
			<stop offset="1" stop-color="#f47960"/>
		</linearGradient>
		<linearGradient id="g167" x1="475" y1="290.7" x2="505.8" y2="419.7" gradientUnits="userSpaceOnUse">
			<stop offset="0" stop-color="#53d8ff"/>
			<stop offset="1" stop-color="#3840f7"/>
		</linearGradient>
		<linearGradient id="g168" x1="469.9" y1="386.5" x2="481.1" y2="396" gradientUnits="userSpaceOnUse">
			<stop offset="0" stop-color="#f9b776"/>
			<stop offset="1" stop-color="#f47960"/>
		</linearGradient>
		<linearGradient id="g169" x1="449" y1="350.1" x2="442.9" y2="354.8" gradientUnits="userSpaceOnUse">
			<stop offset="0" stop-color="#2b3582"/>
			<stop offset="1" stop-color="#150e42"/>
		</linearGradient>
		<linearGradient id="g170" x1="440.6" y1="341.7" x2="441" y2="348.3" gradientUnits="userSpaceOnUse">
			<stop offset="0" stop-color="#f9b776"/>
			<stop offset="1" stop-color="#f47960"/>
		</linearGradient>
		<linearGradient id="g171" x1="460.2" y1="336.8" x2="469" y2="353.3" gradientUnits="userSpaceOnUse">
			<stop offset="0" stop-color="#f9b776"/>
			<stop offset="1" stop-color="#f47960"/>
		</linearGradient>
		<linearGradient id="g172" x1="473.6" y1="328.7" x2="461.3" y2="326.7" gradientUnits="userSpaceOnUse">
			<stop offset="0" stop-color="#2b3582"/>
			<stop offset="1" stop-color="#150e42"/>
		</linearGradient>
		<linearGradient id="g173" x1="479.3" y1="344.6" x2="473.4" y2="336.2" gradientUnits="userSpaceOnUse">
			<stop offset="0" stop-color="#f9b776"/>
			<stop offset="1" stop-color="#f47960"/>
		</linearGradient>
		<linearGradient id="g174" x1="413.2" y1="412.4" x2="403.9" y2="457.9" gradientUnits="userSpaceOnUse">
			<stop offset="0" stop-color="#53d8ff"/>
			<stop offset="1" stop-color="#3840f7"/>
		</linearGradient>
		<linearGradient id="g175" x1="339.5" y1="340.6" x2="358.5" y2="368.7" gradientUnits="userSpaceOnUse">
			<stop offset="0" stop-color="#53d8ff"/>
			<stop offset="1" stop-color="#3840f7"/>
		</linearGradient>
		<linearGradient id="g176" x1="394.3" y1="330.8" x2="395.2" y2="350.3" gradientUnits="userSpaceOnUse">
			<stop offset="0" stop-color="#53d8ff"/>
			<stop offset="1" stop-color="#3840f7"/>
		</linearGradient>
		<linearGradient id="g177" x1="219.9" y1="342.5" x2="159.5" y2="341.1" gradientUnits="userSpaceOnUse">
			<stop offset="0" stop-color="#2b3582"/>
			<stop offset="1" stop-color="#150e42"/>
		</linearGradient>
		<linearGradient id="g178" x1="140.3" y1="405" x2="259.4" y2="564.6" gradientUnits="userSpaceOnUse">
			<stop offset="0" stop-color="#53d8ff"/>
			<stop offset="1" stop-color="#3840f7"/>
		</linearGradient>
		<linearGradient id="g179" x1="208" y1="348" x2="209.1" y2="421.6" gradientUnits="userSpaceOnUse">
			<stop offset="0" stop-color="#53d8ff"/>
			<stop offset="1" stop-color="#3840f7"/>
		</linearGradient>
		<linearGradient id="g180" x1="153" y1="447.2" x2="110.7" y2="493.3" gradientUnits="userSpaceOnUse">
			<stop offset="0" stop-color="#2b3582"/>
			<stop offset="1" stop-color="#150e42"/>
		</linearGradient>
		<linearGradient id="g181" x1="133.1" y1="442.8" x2="136.5" y2="442.8" gradientUnits="userSpaceOnUse">
			<stop offset="0" stop-color="#f9b776"/>
			<stop offset="1" stop-color="#f47960"/>
		</linearGradient>
		<linearGradient id="g182" x1="115.6" y1="440" x2="123" y2="396.7" gradientUnits="userSpaceOnUse">
			<stop offset="0" stop-color="#2b3582"/>
			<stop offset="1" stop-color="#150e42"/>
		</linearGradient>
		<linearGradient id="g183" x1="141.4" y1="436.3" x2="99.7" y2="481.6" gradientUnits="userSpaceOnUse">
			<stop offset="0" stop-color="#2b3582"/>
			<stop offset="1" stop-color="#150e42"/>
		</linearGradient>
		<linearGradient id="g184" x1="120.8" y1="441.9" x2="123.7" y2="441.9" gradientUnits="userSpaceOnUse">
			<stop offset="0" stop-color="#f9b776"/>
			<stop offset="1" stop-color="#f47960"/>
		</linearGradient>
		<linearGradient id="g185" x1="112.1" y1="438.5" x2="120.5" y2="389.7" gradientUnits="userSpaceOnUse">
			<stop offset="0" stop-color="#2b3582"/>
			<stop offset="1" stop-color="#150e42"/>
		</linearGradient>
		<linearGradient id="g186" x1="104.3" y1="362.3" x2="156.2" y2="325" gradientUnits="userSpaceOnUse">
			<stop offset="0" stop-color="#fdf53f"/>
			<stop offset="1" stop-color="#d93c65"/>
		</linearGradient>
		<linearGradient id="g187" x1="147.2" y1="333.8" x2="164.6" y2="333.8" gradientUnits="userSpaceOnUse">
			<stop offset="0" stop-color="#f9b776"/>
			<stop offset="1" stop-color="#f47960"/>
		</linearGradient>
		<linearGradient id="g188" x1="159.5" y1="340.5" x2="147" y2="369.1" gradientUnits="userSpaceOnUse">
			<stop offset="0" stop-color="#f9b776"/>
			<stop offset="1" stop-color="#f47960"/>
		</linearGradient>
		<linearGradient id="g189" x1="163.3" y1="330.9" x2="167.9" y2="323.9" gradientUnits="userSpaceOnUse">
			<stop offset="0" stop-color="#f9b776"/>
			<stop offset="1" stop-color="#f47960"/>
		</linearGradient>
		<linearGradient id="g190" x1="102.4" y1="362.6" x2="156.2" y2="323.9" gradientUnits="userSpaceOnUse">
			<stop offset="0" stop-color="#fdf53f"/>
			<stop offset="1" stop-color="#d93c65"/>
		</linearGradient>
		<linearGradient id="g191" x1="126" y1="341.3" x2="134.7" y2="341.3" gradientUnits="userSpaceOnUse">
			<stop offset="0" stop-color="#f9b776"/>
			<stop offset="1" stop-color="#f47960"/>
		</linearGradient>
		<linearGradient id="g192" x1="133.7" y1="344.9" x2="124.4" y2="339.2" gradientUnits="userSpaceOnUse">
			<stop offset="0" stop-color="#f9b776"/>
			<stop offset="1" stop-color="#f47960"/>
		</linearGradient>
		<linearGradient id="g193" x1="114.9" y1="-525.6" x2="114.5" y2="-564.8" gradientUnits="userSpaceOnUse">
			<stop offset="0" stop-color="#2b3582"/>
			<stop offset="1" stop-color="#150e42"/>
		</linearGradient>
		<linearGradient id="g194" x1="133.2" y1="344" x2="124.9" y2="339" gradientUnits="userSpaceOnUse">
			<stop offset="0" stop-color="#f9b776"/>
			<stop offset="1" stop-color="#f47960"/>
		</linearGradient>
		<linearGradient id="g195" x1="119.8" y1="394" x2="106.4" y2="383.2" gradientUnits="userSpaceOnUse">
			<stop offset="0" stop-color="#f9b776"/>
			<stop offset="1" stop-color="#f47960"/>
		</linearGradient>
		<linearGradient id="g196" x1="128.5" y1="387.3" x2="122.4" y2="391.9" gradientUnits="userSpaceOnUse">
			<stop offset="0" stop-color="#2b3582"/>
			<stop offset="1" stop-color="#150e42"/>
		</linearGradient>
		<linearGradient id="g197" x1="123.6" y1="383.9" x2="120.7" y2="386.1" gradientUnits="userSpaceOnUse">
			<stop offset="0" stop-color="#f9b776"/>
			<stop offset="1" stop-color="#f47960"/>
		</linearGradient>
	</defs>
	<style>
		.s0 { fill: #ffffff } 
		.s1 { opacity: .3;fill: url(#g1) } 
		.s2 { opacity: .5;fill: url(#g2) } 
		.s3 { fill: url(#g3) } 
		.s4 { fill: url(#g4) } 
		.s5 { fill: #f0f0f0 } 
		.s6 { fill: url(#g5) } 
		.s7 { fill: url(#g6) } 
		.s8 { fill: url(#g7) } 
		.s9 { fill: url(#g8) } 
		.s10 { fill: url(#g9) } 
		.s11 { fill: url(#g10) } 
		.s12 { fill: url(#g11) } 
		.s13 { fill: url(#g12) } 
		.s14 { fill: url(#g13) } 
		.s15 { fill: url(#g14) } 
		.s16 { fill: url(#g15) } 
		.s17 { fill: url(#g16) } 
		.s18 { fill: url(#g17) } 
		.s19 { fill: url(#g18) } 
		.s20 { fill: url(#g19) } 
		.s21 { fill: url(#g20) } 
		.s22 { fill: url(#g21) } 
		.s23 { fill: url(#g22) } 
		.s24 { fill: url(#g23) } 
		.s25 { fill: url(#g24) } 
		.s26 { fill: url(#g25) } 
		.s27 { fill: url(#g26) } 
		.s28 { fill: url(#g27) } 
		.s29 { fill: url(#g28) } 
		.s30 { fill: url(#g29) } 
		.s31 { fill: url(#g30) } 
		.s32 { fill: url(#g31) } 
		.s33 { fill: url(#g32) } 
		.s34 { fill: url(#g33) } 
		.s35 { fill: url(#g34) } 
		.s36 { fill: url(#g35) } 
		.s37 { fill: url(#g36) } 
		.s38 { fill: url(#g37) } 
		.s39 { fill: url(#g38) } 
		.s40 { fill: url(#g39) } 
		.s41 { fill: url(#g40) } 
		.s42 { fill: url(#g41) } 
		.s43 { fill: url(#g42) } 
		.s44 { fill: url(#g43) } 
		.s45 { fill: url(#g44) } 
		.s46 { fill: url(#g45) } 
		.s47 { fill: url(#g46) } 
		.s48 { fill: url(#g47) } 
		.s49 { fill: url(#g48) } 
		.s50 { fill: url(#g49) } 
		.s51 { fill: url(#g50) } 
		.s52 { fill: url(#g51) } 
		.s53 { fill: url(#g52) } 
		.s54 { fill: url(#g53) } 
		.s55 { fill: url(#g54) } 
		.s56 { fill: url(#g55) } 
		.s57 { fill: url(#g56) } 
		.s58 { fill: url(#g57) } 
		.s59 { fill: url(#g58) } 
		.s60 { fill: url(#g59) } 
		.s61 { fill: url(#g60) } 
		.s62 { fill: url(#g61) } 
		.s63 { fill: url(#g62) } 
		.s64 { fill: url(#g63) } 
		.s65 { fill: url(#g64) } 
		.s66 { fill: url(#g65) } 
		.s67 { fill: url(#g66) } 
		.s68 { fill: url(#g67) } 
		.s69 { fill: url(#g68) } 
		.s70 { fill: url(#g69) } 
		.s71 { fill: url(#g70) } 
		.s72 { fill: url(#g71) } 
		.s73 { fill: url(#g72) } 
		.s74 { fill: url(#g73) } 
		.s75 { fill: url(#g74) } 
		.s76 { fill: url(#g75) } 
		.s77 { fill: url(#g76) } 
		.s78 { fill: url(#g77) } 
		.s79 { fill: url(#g78) } 
		.s80 { fill: url(#g79) } 
		.s81 { fill: url(#g80) } 
		.s82 { fill: url(#g81) } 
		.s83 { fill: url(#g82) } 
		.s84 { fill: url(#g83) } 
		.s85 { fill: url(#g84) } 
		.s86 { fill: url(#g85) } 
		.s87 { fill: url(#g86) } 
		.s88 { fill: url(#g87) } 
		.s89 { fill: url(#g88) } 
		.s90 { fill: url(#g89) } 
		.s91 { fill: url(#g90) } 
		.s92 { fill: url(#g91) } 
		.s93 { fill: url(#g92) } 
		.s94 { fill: url(#g93) } 
		.s95 { fill: url(#g94) } 
		.s96 { fill: url(#g95) } 
		.s97 { fill: url(#g96) } 
		.s98 { fill: url(#g97) } 
		.s99 { fill: url(#g98) } 
		.s100 { fill: url(#g99) } 
		.s101 { fill: url(#g100) } 
		.s102 { fill: url(#g101) } 
		.s103 { fill: url(#g102) } 
		.s104 { fill: url(#g103) } 
		.s105 { fill: url(#g104) } 
		.s106 { fill: url(#g105) } 
		.s107 { fill: url(#g106) } 
		.s108 { fill: url(#g107) } 
		.s109 { fill: url(#g108) } 
		.s110 { fill: url(#g109) } 
		.s111 { fill: url(#g110) } 
		.s112 { fill: url(#g111) } 
		.s113 { fill: url(#g112) } 
		.s114 { fill: url(#g113) } 
		.s115 { fill: url(#g114) } 
		.s116 { fill: url(#g115) } 
		.s117 { fill: url(#g116) } 
		.s118 { fill: url(#g117) } 
		.s119 { fill: url(#g118) } 
		.s120 { fill: url(#g119) } 
		.s121 { fill: url(#g120) } 
		.s122 { fill: url(#g121) } 
		.s123 { fill: url(#g122) } 
		.s124 { fill: url(#g123) } 
		.s125 { fill: url(#g124) } 
		.s126 { fill: url(#g125) } 
		.s127 { fill: url(#g126) } 
		.s128 { fill: url(#g127) } 
		.s129 { fill: url(#g128) } 
		.s130 { fill: url(#g129) } 
		.s131 { fill: url(#g130) } 
		.s132 { fill: url(#g131) } 
		.s133 { fill: url(#g132) } 
		.s134 { fill: url(#g133) } 
		.s135 { fill: url(#g134) } 
		.s136 { fill: url(#g135) } 
		.s137 { fill: url(#g136) } 
		.s138 { fill: url(#g137) } 
		.s139 { fill: url(#g138) } 
		.s140 { fill: url(#g139) } 
		.s141 { fill: url(#g140) } 
		.s142 { fill: url(#g141) } 
		.s143 { fill: url(#g142) } 
		.s144 { fill: url(#g143) } 
		.s145 { fill: url(#g144) } 
		.s146 { fill: url(#g145) } 
		.s147 { fill: url(#g146) } 
		.s148 { fill: url(#g147) } 
		.s149 { fill: url(#g148) } 
		.s150 { fill: url(#g149) } 
		.s151 { fill: url(#g150) } 
		.s152 { fill: url(#g151) } 
		.s153 { fill: url(#g152) } 
		.s154 { fill: url(#g153) } 
		.s155 { fill: url(#g154) } 
		.s156 { fill: url(#g155) } 
		.s157 { fill: url(#g156) } 
		.s158 { fill: url(#g157) } 
		.s159 { fill: url(#g158) } 
		.s160 { fill: url(#g159) } 
		.s161 { fill: url(#g160) } 
		.s162 { fill: url(#g161) } 
		.s163 { fill: url(#g162) } 
		.s164 { fill: url(#g163) } 
		.s165 { fill: url(#g164) } 
		.s166 { fill: url(#g165) } 
		.s167 { fill: url(#g166) } 
		.s168 { fill: url(#g167) } 
		.s169 { fill: url(#g168) } 
		.s170 { fill: url(#g169) } 
		.s171 { fill: url(#g170) } 
		.s172 { fill: url(#g171) } 
		.s173 { fill: url(#g172) } 
		.s174 { fill: url(#g173) } 
		.s175 { fill: url(#g174) } 
		.s176 { fill: url(#g175) } 
		.s177 { fill: url(#g176) } 
		.s178 { opacity: .6;fill: #ffffff } 
		.s179 { fill: url(#g177) } 
		.s180 { fill: url(#g178) } 
		.s181 { opacity: .5;fill: #ffffff } 
		.s182 { fill: url(#g179) } 
		.s183 { fill: url(#g180) } 
		.s184 { fill: url(#g181) } 
		.s185 { fill: url(#g182) } 
		.s186 { fill: url(#g183) } 
		.s187 { fill: url(#g184) } 
		.s188 { fill: url(#g185) } 
		.s189 { fill: url(#g186) } 
		.s190 { fill: url(#g187) } 
		.s191 { fill: url(#g188) } 
		.s192 { fill: url(#g189) } 
		.s193 { fill: url(#g190) } 
		.s194 { fill: url(#g191) } 
		.s195 { fill: url(#g192) } 
		.s196 { fill: url(#g193) } 
		.s197 { fill: url(#g194) } 
		.s198 { fill: url(#g195) } 
		.s199 { fill: url(#g196) } 
		.s200 { fill: url(#g197) } 
	</style>
	<g id="Background">
		<path id="&lt;Path&gt;" class="s0" d="m0 0h600v584h-600z"/>
	</g>
	<g id="Illustration">
		<g id="&lt;Group&gt;">
			<g id="&lt;Group&gt;">
				<path id="&lt;Path&gt;" class="s1" d="m73.1 274.9c-1.4-21.1 11-42.1 22.5-58 11.9-16.5 29.8-24 48.7-19.8 18.3 4.1 36 16.9 55.2 10.5 18.2-6 26.1-26.6 42.3-35.9 17.5-10 41.1-11.3 60.3-8.4 42.6 6.4 68.9 52.5 115.2 38.7 16.5-4.9 32.2-15.2 49.9-14.1 16.8 1.1 31.5 12.6 42.5 25.7 10.3 12.5 18.3 27.8 16.2 44.9-3.4 27.2-29.5 43.2-28 72.3 1.1 22 12.7 42.6 8.4 64.9-7 36.1-41.7 42.9-70.6 36.6-26.4-5.8-52.1-18-79.4-17.3-26.8 0.6-52.2 11-77.5 18.9-36.5 11.5-74.4 14.2-112.3 12.4-22.5-1.1-53.3-8.1-60.7-34.4-8.4-30.2 10.9-63-7.7-91-6.4-9.7-14.8-18.4-20-28.7-2.7-5.3-4.6-10.9-5-17.3z"/>
				<path id="&lt;Path&gt;" class="s2" d="m521.3 282.4c-5 10.8-13.1 19.8-19.2 29.9-17.9 29.1 0.7 63.2-7.5 94.6-7.1 27.3-36.7 34.7-58.3 35.8-36.4 1.8-72.8-1-107.9-12.9-24.3-8.2-48.7-19-74.4-19.7-26.3-0.7-51 12-76.3 18-27.9 6.6-61.2-0.5-67.9-38-4.2-23.2 7-44.6 8.1-67.5 1.4-30.2-23.7-46.9-26.9-75.1-2.1-17.9 5.6-33.8 15.5-46.7 10.5-13.6 24.7-25.7 40.9-26.8 16.9-1.2 32 9.6 47.9 14.7 44.5 14.4 69.7-33.6 110.7-40.3 18.5-3 41.2-1.6 57.9 8.8 15.6 9.6 23.2 31 40.7 37.3 18.5 6.6 35.4-6.7 53-10.9 18.2-4.4 35.5 3.4 46.9 20.5 11 16.6 23 38.5 21.6 60.4-0.4 6.6-2.2 12.5-4.8 17.9z"/>
			</g>
			<g id="&lt;Group&gt;">
				<g id="&lt;Group&gt;">
					<path id="&lt;Path&gt;" class="s3" d="m194 440c-11.3 2.5-25.7-11.2-30.4-26.2-4.8-15.5 4-21.9 3.9-43.3 0-24.3-11.4-28-18.9-60.8-1.7-7.4-11.5-50.1 0.7-58.2 11.2-7.4 42.8 13.9 48.3 41.1 3.9 19.5-8.3 27.6-3.6 50.2 4.1 19.9 14.8 20.2 18.9 39.3 5 23.3-4.1 54.6-18.9 57.9z"/>
					<path id="&lt;Path&gt;" class="s0" d="m192.2 445.7c3-26-2.9-66.3-8.4-95.5-6-31.7-12.7-57.5-12.8-57.8l0.9-0.3c0.1 0.3 6.9 26.1 12.9 57.9 5.5 29.2 11.4 69.7 8.4 95.8z"/>
				</g>
				<g id="&lt;Group&gt;">
					<path id="&lt;Path&gt;" class="s4" d="m128.8 401.1c0-11.1 10.2-16.2 8.1-27.6-1.8-9.8-10.2-10.3-15.7-20.8-8.4-16.2-3.2-43.1 6.7-46.8 9.4-3.4 25.5 13.5 32.3 31.3 7.9 21 0.5 37.1 10.5 45.7 7.9 6.7 16.1-0.1 21.8 6.4 8.4 9.6 3.3 39.1-11.5 47.7-19.6 11.4-52.3-16.1-52.2-35.9z"/>
					<path id="&lt;Path&gt;" class="s0" d="m172.4 444.2c-19.7-45.3-25.5-97.8-25.5-98.3-0.1-0.4 0.2-0.7 0.5-0.8 0.3 0 0.6 0.2 0.7 0.6 0 0.5 5.8 52.8 25.4 97.9 0.2 0.4 0.1 0.8-0.2 0.9q-0.2 0.1-0.3 0.1c-0.2 0-0.4-0.1-0.6-0.4z"/>
					<path id="&lt;Path&gt;" class="s5" d="m132.5 359.1c-11.4-16.2-12.1-28.4-10.8-35.8 1.6-8 5.7-12.1 5.9-12.3 0.1-0.1 0.3-0.1 0.4 0.1 0.1 0.1 0.1 0.3 0 0.4-0.1 0.1-4.2 4.1-5.7 11.9-2.5 13.2 4.4 26.5 10.6 35.3 0.1 0.2 0.1 0.4 0 0.5q-0.1 0.1-0.2 0.1-0.1 0-0.2-0.2z"/>
					<path id="&lt;Path&gt;" class="s5" d="m182.2 433c-0.2-0.1-0.2-0.3-0.1-0.4 9.4-15.3 12.6-27.1 9.6-35-2.7-6.9-9.4-8.1-9.4-8.2-0.2 0-0.3-0.2-0.3-0.3 0.1-0.2 0.2-0.3 0.4-0.3 0 0 7 1.4 9.8 8.6 3.1 8.1-0.1 20.1-9.6 35.6q-0.1 0.1-0.3 0.1-0.1 0-0.1-0.1z"/>
				</g>
			</g>
			<g id="&lt;Group&gt;">
				<g id="&lt;Group&gt;">
					<path id="&lt;Path&gt;" class="s6" d="m388.7 382.1c4.1-19.1 14.8-19.4 18.9-39.3 4.7-22.6-7.5-30.7-3.6-50.2 5.6-27.2 37.1-48.5 48.4-41.1 12.1 8.1 2.3 50.8 0.6 58.2-7.5 32.8-18.8 36.5-18.9 60.8-0.1 21.4 8.7 27.8 3.9 43.3-4.6 15-19.1 28.7-30.4 26.2-14.8-3.3-23.9-34.6-18.9-57.9z"/>
					<path id="&lt;Path&gt;" class="s0" d="m408.5 445.8c-3.1-26.1 2.8-66.6 8.4-95.8 5.9-31.8 12.7-57.6 12.8-57.9l0.9 0.3c0 0.3-6.8 26.1-12.8 57.8-5.5 29.2-11.4 69.5-8.4 95.5z"/>
				</g>
				<g id="&lt;Group&gt;">
					<path id="&lt;Path&gt;" class="s7" d="m420.6 437c-14.8-8.6-19.9-38.1-11.4-47.7 5.7-6.5 13.8 0.3 21.7-6.4 10.1-8.6 2.7-24.7 10.6-45.7 6.7-17.8 22.8-34.7 32.3-31.3 9.8 3.7 15 30.6 6.6 46.8-5.5 10.5-13.9 11-15.7 20.8-2.1 11.4 8.1 16.5 8.1 27.6 0.1 19.8-32.6 47.3-52.2 35.9z"/>
					<path id="&lt;Path&gt;" class="s0" d="m428.6 444.6q-0.1 0-0.2-0.1c-0.3-0.1-0.5-0.5-0.3-0.9 19.6-45.1 25.4-97.4 25.5-97.9 0-0.4 0.3-0.6 0.6-0.6 0.4 0.1 0.6 0.4 0.6 0.8-0.1 0.5-5.9 53-25.6 98.3-0.1 0.3-0.3 0.4-0.6 0.4z"/>
					<path id="&lt;Path&gt;" class="s5" d="m468.9 359.3q-0.1 0-0.1-0.1c-0.2-0.1-0.2-0.3-0.1-0.5 6.2-8.8 13.1-22.1 10.6-35.3-1.5-7.8-5.6-11.8-5.6-11.9-0.2-0.1-0.2-0.3-0.1-0.4 0.1-0.2 0.3-0.2 0.4-0.1 0.2 0.2 4.4 4.3 5.9 12.3 1.4 7.4 0.6 19.6-10.7 35.8q-0.1 0.2-0.3 0.2z"/>
					<path id="&lt;Path&gt;" class="s5" d="m419.3 433.1q-0.1 0-0.2-0.1c-9.6-15.5-12.8-27.5-9.7-35.6 2.8-7.2 9.8-8.6 9.9-8.6 0.1 0 0.3 0.1 0.3 0.3 0 0.1-0.1 0.3-0.3 0.3 0 0.1-6.7 1.3-9.4 8.2-3 7.9 0.2 19.7 9.6 35 0.1 0.1 0.1 0.3 0 0.4q-0.1 0.1-0.2 0.1z"/>
				</g>
			</g>
			<g id="&lt;Group&gt;">
				<path id="&lt;Path&gt;" class="s8" d="m421.6 286.4v138.1c0 10.1-8.1 18.4-17.9 18.4h-208.2c-9.8 0-17.9-8.3-17.9-18.4v-138.1z"/>
				<path id="&lt;Path&gt;" class="s9" d="m421.8 286.5l-61.1 41-61.1 41.1-61.1-41.1-61.1-41 61.1-41.2 52.9-35.6c5.1-3.5 11.3-3.5 16.4 0l52.9 35.6z"/>
				<g id="&lt;Group&gt;" style="mix-blend-mode: soft-light">
					<g id="&lt;Group&gt;">
						<path id="&lt;Path&gt;" class="s0" d="m182.4 436.9q-0.1 0-0.3-0.1c-0.1-0.2-0.2-0.5 0-0.7l76.2-95.5c0.2-0.2 0.4-0.2 0.6 0 0.2 0.1 0.2 0.4 0.1 0.6l-76.3 95.5q-0.1 0.2-0.3 0.2z"/>
					</g>
					<g id="&lt;Group&gt;">
						<path id="&lt;Path&gt;" class="s0" d="m416.8 436.9q-0.2 0-0.3-0.2l-76.3-95.5c-0.1-0.2-0.1-0.5 0.1-0.6 0.2-0.2 0.4-0.2 0.6 0l76.2 95.5c0.1 0.2 0.1 0.5 0 0.7q-0.2 0.1-0.3 0.1z"/>
					</g>
				</g>
			</g>
			<g id="&lt;Group&gt;">
				<g id="&lt;Group&gt;">
					<g id="&lt;Group&gt;">
						<path id="&lt;Path&gt;" class="s10" d="m380 371.6q-2.5-3.3 0.9-5.4c3.4-2 8.8 0.2 9.5 4.6 0.6 4.4 4 1.8 5.5 0.8 1.5-0.9 5.6-2.2 6.7 2.8 0.4 2-0.1 4.5 0.6 6.4 1.1 2.5 4.6 1.9 6.5 2.8 2.4 1.3 3.7 3.7 2.4 6.6-1.9 4.4-5.8 7.2-3.7 11 2.1 3.8-6.4 12.4-9.3 4.5-2.9-8-7.4-6.7-11-7.2-3.7-0.5-5.5-4-4.5-7.5 1-3.6-0.3-5.7-1.7-7.3-1.4-1.5-5.9-8-1.9-12.1z"/>
						<g id="&lt;Group&gt;">
							<path id="&lt;Path&gt;" class="s11" d="m381.3 423.8l-6.6 0.3q2.3 2.8 2.2 6.8l0.1 8.9c0 1.1 0.7 2 1.6 2.3l1.1 0.4-2.7 8.4h-4.2l1.6-1.7 0.9-4.5c0.1-0.6 0.1-1.3-0.2-1.8-5-10.3-6.5-20.8-6.9-24.1-0.1-0.6 0.2-1.3 0.7-1.6q3.1-2.3 5.8-2.8z"/>
							<path id="&lt;Path&gt;" class="s12" d="m373.3 450.2q2 0.7 3.1-0.1 1.1-0.8 2.2-8 1.8-0.1 2 0.5 0 3.1-3.1 9.2c-2.2 1.2-6.7 0.4-6.3-0.1q0.6-0.8 2.1-1.5z"/>
							<path id="&lt;Path&gt;" class="s13" d="m380.5 424.3q-0.1-0.1-7.2-1 0.3 2.4-0.5 5.7-0.7 3.3-11.1 17.7l1.1 3.8q-5.1 2-10 0.7l6.8-4.5q6.3-24.1 10.2-28.4l7.1-2.7z"/>
							<path id="&lt;Path&gt;" class="s14" d="m396.4 410.2q4.1 6.8 4.4 9.9c0.4 3.1-1.1 4.4-5.4 4.6q-4.3 0.2-15.7 0.2l-9.8-9.3q7.1-2.9 9-3.7 1.8-0.8 17.5-1.7z"/>
							<path id="&lt;Path&gt;" class="s15" d="m362.4 449.2q1.1 1.3 0.3 2.7-9.3 1.9-11.8 1 0.5-1.3 3.4-2.8l-0.3 0.2c-0.2 0.2-0.1 0.7 0.3 0.6 1.9-0.1 5.7-0.5 8.1-1.7z"/>
						</g>
						<path id="&lt;Path&gt;" class="s16" d="m385.3 409.3q-4.7-5-7.1-8.4c-1.3-1.8-1.6-4.1-1.1-6.3 1.1-4.1 3-8.2 3.2-8.9q0.3-1 5.6-0.9 10.5 7.6 14.6 20.4l-4.6 1.7q-2.7-5.2-5.5-8.4 4.7 6.9 4.9 9.7z"/>
						<path id="&lt;Path&gt;" class="s17" d="m383.3 379.4l2.3 5.5c-1.3 1-4.3 0.8-4.4 0.7-0.1-0.1-1.5-5.2-1.6-5.4z"/>
						<path id="&lt;Path&gt;" class="s18" d="m385.4 378.4c-2.5 2.6-4.9 2.6-6.5 2.4-1.6-0.3-2.9-2.2-1.2-6.2q1.7-4.1 4.2-5.2c3.3-1.4 6.1 6.4 3.5 9z"/>
						<path id="&lt;Path&gt;" class="s19" d="m383.7 376.2q1.9-5.9-2.8-6l-1.1 0.9q-1.7-3.3 1.1-4.9c2.8-1.5 7.1-0.2 8.3 4.1 1.2 4.3 0.5 7-1.5 9.1q-2 2-2.9-0.3 1.1-1.9 0.7-2.9-0.5-1.1-1.5 0.2z"/>
						<path id="&lt;Path&gt;" class="s20" d="m384.2 376.9q1-3.1 2.3-1.9c1.3 1.3-1.1 2.9-2 3.4z"/>
						<path id="&lt;Path&gt;" class="s21" d="m375.6 409.7l3.5-3.7 4.9 2.2q4.8 0.9 7.5 0 2.8-0.8 2.8-0.8l6.2-2.2 1 3.1c0.3 0.8 0 1.7-0.6 2.2-0.5 0.4-1.2 0.9-1.6 1.1q-0.8 0.4-20.2-0.3z"/>
					</g>
					<g id="&lt;Group&gt;" style="mix-blend-mode: soft-light">
						<path id="&lt;Path&gt;" class="s0" d="m401.1 376.6h-0.2q0.2-2.2-0.7-3.1c-1.2-1-3.6-0.2-5.8 0.6-1.1 0.3-2.1 0.7-2.8 0.7q-0.9 0.1-1.4-0.4c-0.5-0.7-0.5-1.8-0.5-1.8h0.2c0 0-0.1 1 0.5 1.6q0.4 0.5 1.2 0.5c0.7-0.1 1.7-0.4 2.8-0.8 2.2-0.8 4.7-1.6 5.9-0.5q1 0.9 0.8 3.2z"/>
					</g>
					<g id="&lt;Group&gt;" style="mix-blend-mode: soft-light">
						<path id="&lt;Path&gt;" class="s0" d="m406.2 398.8c-0.4-1.8 0.7-3.3 1.9-5.1 0.9-1.2 1.9-2.6 2.4-4.3q0.4-1.3-0.2-2.3c-1.1-2-4.9-2.6-4.9-2.6v-0.2c0.2 0 3.9 0.6 5.1 2.7q0.6 1.1 0.2 2.4c-0.6 1.8-1.6 3.2-2.5 4.5-1.2 1.7-2.2 3.1-1.8 4.8z"/>
					</g>
				</g>
				<g id="&lt;Group&gt;">
					<path id="&lt;Path&gt;" class="s22" d="m387.4 429.2h1.8v22.2h-1.8z"/>
					<path id="&lt;Path&gt;" class="s23" d="m396.4 451.9h-16.2c0-0.8 0.6-1.4 1.2-1.4h13.8c0.7 0 1.2 0.6 1.2 1.4z"/>
					<rect id="&lt;Path&gt;" class="s24" x="378.5" y="424.3" width="20.3" height="6.4" rx="9.6"></rect>
				</g>
				<g id="&lt;Group&gt;">
					<path id="&lt;Path&gt;" class="s25" d="m388.9 411.5q-0.1 0-0.1 0h-20.3c-0.5 0-0.9-0.5-0.9-1 0-0.6 0.4-1.1 0.9-1.1l20.3 0.1c0.5 0 0.9 0.4 0.9 1 0 0.5-0.3 1-0.8 1z"/>
					<path id="&lt;Path&gt;" class="s26" d="m350.3 391h16.9c1.2 0 2.4 0.8 2.9 2l7.8 18.5h-21c-0.8 0-1.5-0.6-1.8-1.4l-6.1-17.1c-0.4-1 0.3-2 1.3-2z"/>
				</g>
				<g id="&lt;Group&gt;">
					<path id="&lt;Path&gt;" class="s27" d="m416.8 414.7c-0.1 0.5-0.5 0.9-0.9 0.9h-83c-0.5 0-1-0.3-1.2-0.8l-0.9-2.1c-0.1-0.3-0.1-0.7 0.1-1 0.1-0.2 0.4-0.4 0.8-0.4h84.7c0.3 0 0.5 0.1 0.7 0.3 0.1 0.2 0.2 0.5 0.2 0.7z"/>
					<g id="&lt;Group&gt;">
						<path id="&lt;Path&gt;" class="s28" d="m336.4 456.1q-0.1 0-0.3-0.1c-0.3-0.2-0.5-0.7-0.4-1.1l15.6-41.3c0.2-0.5 0.6-0.7 1-0.5 0.4 0.2 0.6 0.7 0.4 1.1l-15.6 41.4c-0.1 0.3-0.4 0.5-0.7 0.5z"/>
						<path id="&lt;Path&gt;" class="s29" d="m354 456.1c-0.3 0-0.6-0.2-0.7-0.5l-15.6-41.4c-0.1-0.4 0-0.9 0.4-1.1 0.4-0.2 0.8 0 1 0.5l15.6 41.3c0.1 0.4 0 0.9-0.4 1.1q-0.1 0.1-0.3 0.1z"/>
						<path id="&lt;Path&gt;" class="s30" d="m397.9 456.1q-0.2 0-0.3-0.1c-0.4-0.2-0.6-0.7-0.4-1.1l15.6-41.3c0.1-0.5 0.6-0.7 1-0.5 0.3 0.2 0.5 0.7 0.3 1.1l-15.6 41.4c-0.1 0.3-0.4 0.5-0.6 0.5z"/>
						<path id="&lt;Path&gt;" class="s31" d="m415.4 456.1c-0.3 0-0.5-0.2-0.7-0.5l-15.6-41.4c-0.1-0.4 0.1-0.9 0.4-1.1 0.4-0.2 0.9 0 1 0.5l15.6 41.3c0.2 0.4 0 0.9-0.4 1.1q-0.1 0.1-0.3 0.1z"/>
					</g>
				</g>
			</g>
			<g id="&lt;Clip Group&gt;" clip-path="url(#cp1)">
				<g id="&lt;Group&gt;">
					<g id="&lt;Group&gt;">
						<path id="&lt;Path&gt;" class="s0" d="m400 247.3v132.9h-200.8v-154.3c0-3.4 2.5-6.3 5.5-6.3h170.8z"/>
						<path id="&lt;Path&gt;" class="s32" d="m399.9 247.3l-22.4 0.3c-0.6 0-1.1-0.3-1.5-0.8-0.4-0.4-0.5-1.1-0.5-1.7v-25.3z"/>
					</g>
					<g id="&lt;Group&gt;">
						<path id="&lt;Compound Path&gt;" fill-rule="evenodd" class="s33" d="m343.9 301.4q0 8.7-2.5 15.9-2.5 7.2-7.1 11.3-4.5 4.1-10.6 4.1-4 0-7.1-2.1-3.1-2.2-4.4-5.7h-0.9q-5.8 7.8-14.9 7.8-9.6 0-15.1-6.4-5.6-6.4-5.6-17.6 0-12.8 7.3-20.6 7.3-7.8 19-7.8 4.7 0 10.3 1 5.6 1 9.2 2.4l-1.2 29.6q0 8.4 4.1 8.4 3.5 0 5.5-5.7 2.1-5.6 2.1-14.8 0-9.7-3.6-17.1-3.7-7.5-10.3-11.4-6.6-4-15-4-11 0-19.1 5.1-8.1 5-12.4 14.4-4.3 9.5-4.3 21.9 0 16.6 8 25.6 8 8.9 23.2 8.9 5.8 0 12.7-1.4 6.9-1.5 13.5-4.2v11.6q-11.6 5.5-25.7 5.5-20.7 0-32.2-12.1-11.5-12.1-11.5-33.6 0-14.9 5.9-27.1 5.9-12.1 16.7-19.1 10.9-6.9 25.1-6.9 11.9 0 21.3 5.5 9.4 5.4 14.5 15.4 5.1 10.1 5.1 23.2zm-55.6 7.5q0 12.8 9.4 12.8 4.8 0 7.4-3.9 2.5-3.8 3.1-12.4l0.7-13.4q-2.8-0.7-6.3-0.7-6.7 0-10.5 4.8-3.8 4.7-3.8 12.8z"/>
					</g>
				</g>
			</g>
			<g id="&lt;Group&gt;">
				<g id="&lt;Group&gt;">
					<path id="&lt;Compound Path&gt;" fill-rule="evenodd" class="s0" d="m426.4 247.2c-0.2-23.4 16.7-42.7 37.7-43 7.8-0.1 15.3 2.4 21.7 7.2l2.2-2.5c0.2-0.3 0.7-0.4 1-0.3 0.4 0.1 0.7 0.4 0.8 0.9l3.8 15.3c0.1 0.5 0 0.9-0.2 1.2-0.3 0.4-0.7 0.5-1.1 0.4l-13.9-4.1c-0.4-0.1-0.7-0.4-0.8-0.8-0.1-0.5 0-0.9 0.3-1.2l2.5-2.8c-4.9-3.3-10.5-5-16.2-4.9-16.9 0.2-30.4 15.7-30.2 34.5 0.2 18.7 14 33.8 30.9 33.6 8.1-0.1 15.6-3.7 21.3-10 5.7-6.4 8.9-14.8 9-23.8 0-0.6 0.4-1.4 1.1-1.4h5.3c0.3 0 0.6 0.2 0.8 0.4v0.1c0.3 0.3 0.3 0.8 0.3 1 0 11.2-4 21.7-11.1 29.7-7.1 7.9-16.5 12.4-26.6 12.5-21 0.3-38.4-18.6-38.6-42zm66.5-22q0-0.1-0.1-0.1l-3.8-15.4q0-0.2-0.2-0.2-0.1-0.1-0.2 0.1l-2.7 3-0.3-0.2c-6.3-4.9-13.8-7.4-21.5-7.3-20.6 0.3-37.1 19.2-36.9 42.1 0.3 22.9 17.2 41.4 37.8 41.1 9.8-0.1 19.1-4.5 26-12.3 7-7.8 10.8-18.1 10.9-29 0-0.1 0-0.3-0.1-0.4-0.1-0.1-0.2-0.2-0.2-0.2l-5.3 0.1c-0.1 0-0.3 0.2-0.3 0.4-0.1 9.2-3.4 17.9-9.2 24.4-5.8 6.6-13.6 10.2-21.9 10.3-17.3 0.3-31.6-15.2-31.8-34.5-0.2-19.3 13.8-35.2 31.1-35.4 6-0.1 11.9 1.8 17 5.3l0.5 0.3-3.2 3.6q-0.1 0.1-0.1 0.3 0.1 0.2 0.2 0.3l13.9 4q0.1 0 0.3-0.1 0.1-0.1 0.1-0.2z"/>
				</g>
				<g id="&lt;Group&gt;">
					<path id="&lt;Compound Path&gt;" class="s0" d="m452.9 255.1h-11v-2.6l4-4.4q1.7-2.1 2.3-2.8 0.5-0.8 0.7-1.5 0.3-0.6 0.3-1.3 0-1.1-0.6-1.6-0.5-0.5-1.4-0.5-0.9 0-1.7 0.5-0.9 0.4-1.8 1.3l-1.8-2.4q1.1-1.1 1.9-1.6 0.8-0.4 1.7-0.7 0.9-0.2 2-0.2 1.5 0 2.6 0.6 1.1 0.6 1.7 1.7 0.7 1.1 0.7 2.4 0 1.3-0.4 2.3-0.4 1.1-1.2 2.2-0.8 1.1-2.8 3.2l-2 2.1v0.2h6.8z"/>
					<path id="&lt;Compound Path&gt;" fill-rule="evenodd" class="s0" d="m465.8 251.4h-1.9v3.7h-3.2v-3.7h-6.7v-2.5l6.9-11.3h3v11h1.9zm-5.1-2.9v-3q0-0.7 0.1-2.1 0-1.5 0-1.7-0.4 1-1 1.9l-2.9 4.9z"/>
					<path id="&lt;Compound Path&gt;" class="s0" d="m475.2 237.6l-5.9 17.5h-3l5.9-17.5z"/>
					<path id="&lt;Compound Path&gt;" class="s0" d="m477.7 255.1l5.9-14.4h-7.7v-3.1h11.3v2.3l-6 15.2z"/>
				</g>
			</g>
			<g id="&lt;Group&gt;">
				<path id="&lt;Path&gt;" class="s34" d="m470.6 296.6c0-0.1 0.1-0.2 0.2-0.2 0.1-0.1 0.2 0 0.2 0.2l0.1 1.4c0.1 0.2 0 0.3-0.2 0.3-0.1 0-0.2-0.1-0.2-0.2v-0.1l-0.1-1.4z"/>
				<path id="&lt;Path&gt;" class="s35" d="m470.8 301.4c0-0.2 0.1-0.3 0.3-0.3 0.1 0 0.2 0.1 0.2 0.3v1.4c0 0.2-0.1 0.3-0.2 0.3-0.2 0-0.3-0.1-0.3-0.3v-1.4z"/>
				<path id="&lt;Path&gt;" class="s36" d="m470.7 306.1c0-0.1 0.1-0.2 0.2-0.2 0.2 0 0.3 0.1 0.3 0.3l-0.1 1.4c0 0.2-0.2 0.3-0.3 0.3-0.2 0-0.3-0.2-0.3-0.3h0.1l0.1-1.5z"/>
				<path id="&lt;Path&gt;" class="s37" d="m470.2 310.8c0-0.1 0.1-0.2 0.3-0.2 0.1 0 0.2 0.2 0.2 0.4l-0.2 1.4c0 0.2-0.2 0.3-0.3 0.2-0.2 0-0.3-0.2-0.3-0.3l0.3-1.4z"/>
				<path id="&lt;Path&gt;" class="s38" d="m469.3 315.5c0.1-0.2 0.2-0.3 0.4-0.2 0.1 0 0.2 0.2 0.2 0.4l-0.3 1.4c-0.1 0.2-0.2 0.3-0.4 0.2-0.2 0-0.3-0.2-0.2-0.4l0.3-1.4z"/>
				<path id="&lt;Path&gt;" class="s39" d="m468.1 320.1c0.1-0.2 0.3-0.3 0.4-0.2 0.2 0 0.3 0.2 0.3 0.4l-0.5 1.4c0 0.2-0.2 0.3-0.4 0.2-0.2-0.1-0.2-0.3-0.2-0.5l0.4-1.3z"/>
				<path id="&lt;Path&gt;" class="s40" d="m466.6 324.5c0.1-0.2 0.3-0.3 0.5-0.2 0.2 0.1 0.3 0.3 0.2 0.5l-0.5 1.4c-0.1 0.2-0.3 0.3-0.5 0.2-0.2-0.1-0.2-0.3-0.2-0.5l0.5-1.4z"/>
				<path id="&lt;Path&gt;" class="s41" d="m464.9 328.9c0.1-0.2 0.3-0.3 0.5-0.2 0.1 0.1 0.2 0.3 0.1 0.5l-0.6 1.3c-0.1 0.2-0.3 0.3-0.5 0.2-0.2-0.1-0.2-0.4-0.1-0.6l0.6-1.2z"/>
				<path id="&lt;Path&gt;" class="s42" d="m462.8 333c0.1-0.2 0.3-0.3 0.5-0.1 0.2 0.1 0.3 0.4 0.2 0.6l-0.7 1.2c-0.1 0.2-0.4 0.3-0.6 0.1-0.1-0.1-0.2-0.4-0.1-0.6l0.7-1.2z"/>
				<path id="&lt;Path&gt;" class="s43" d="m460.5 337c0.1-0.2 0.3-0.3 0.5-0.1 0.2 0.1 0.3 0.4 0.1 0.6l-0.7 1.2c-0.2 0.2-0.4 0.2-0.6 0.1-0.2-0.2-0.2-0.4-0.1-0.7l0.7-1.1z"/>
				<path id="&lt;Path&gt;" class="s44" d="m457.9 340.7c0.1-0.2 0.4-0.2 0.6 0 0.2 0.1 0.2 0.5 0 0.7l-0.8 1.1c-0.2 0.2-0.4 0.2-0.6 0-0.2-0.1-0.2-0.5-0.1-0.7l0.8-1.1z"/>
				<path id="&lt;Path&gt;" class="s45" d="m455 344.3c0.2-0.2 0.5-0.2 0.7 0 0.1 0.2 0.1 0.5 0 0.7l-0.9 1c-0.2 0.2-0.5 0.2-0.7 0-0.2-0.2-0.2-0.5 0-0.7l0.9-1z"/>
				<path id="&lt;Path&gt;" class="s46" d="m451.9 347.5c0.2-0.1 0.5-0.1 0.7 0.1 0.2 0.2 0.2 0.6 0 0.8l-1 0.9c-0.2 0.2-0.5 0.2-0.7 0-0.2-0.3-0.1-0.6 0.1-0.8l0.9-0.9z"/>
				<path id="&lt;Path&gt;" class="s47" d="m448.6 350.5c0.3-0.1 0.6-0.1 0.7 0.2 0.2 0.2 0.2 0.6-0.1 0.7l-1 0.9c-0.2 0.2-0.5 0.1-0.7-0.1-0.2-0.3-0.1-0.6 0.1-0.8l1-0.8z"/>
				<path id="&lt;Path&gt;" class="s48" d="m445.1 353.2c0.3-0.1 0.6 0 0.8 0.2 0.1 0.3 0 0.7-0.2 0.8l-1.1 0.8c-0.3 0.2-0.6 0.1-0.7-0.2-0.2-0.3-0.1-0.6 0.1-0.8h0.1l1-0.8z"/>
				<path id="&lt;Path&gt;" class="s49" d="m441.5 355.6c0.2-0.1 0.5 0 0.7 0.3 0.1 0.3 0 0.6-0.2 0.8l-1.2 0.6c-0.3 0.2-0.6 0.1-0.7-0.2-0.2-0.3-0.1-0.7 0.2-0.8v-0.1l1.2-0.6z"/>
				<path id="&lt;Path&gt;" class="s50" d="m437.6 357.6c0.3-0.1 0.6 0 0.7 0.3 0.1 0.3 0 0.7-0.3 0.8l-1.2 0.6c-0.3 0.1-0.6-0.1-0.7-0.4-0.1-0.3 0-0.6 0.3-0.8l1.2-0.5z"/>
				<path id="&lt;Path&gt;" class="s51" d="m433.6 359.2c0.3-0.1 0.6 0.1 0.7 0.4 0.1 0.4 0 0.7-0.3 0.8l-1.3 0.5c-0.3 0.1-0.6-0.1-0.7-0.5-0.1-0.3 0.1-0.6 0.4-0.7l1.2-0.5z"/>
				<path id="&lt;Path&gt;" class="s52" d="m429.5 360.5c0.4-0.1 0.7 0.1 0.7 0.5 0.1 0.3-0.1 0.7-0.4 0.7l-1.3 0.4c-0.3 0.1-0.6-0.2-0.7-0.5 0-0.4 0.2-0.7 0.5-0.8l1.2-0.3z"/>
				<path id="&lt;Path&gt;" class="s53" d="m425.4 361.4c0.3 0 0.6 0.2 0.6 0.6 0.1 0.3-0.1 0.7-0.5 0.7l-1.2 0.2c-0.4 0.1-0.7-0.2-0.7-0.5-0.1-0.4 0.2-0.7 0.5-0.8l1.3-0.2z"/>
				<path id="&lt;Path&gt;" class="s54" d="m421.2 362c0.3 0 0.6 0.2 0.6 0.6 0 0.4-0.2 0.7-0.5 0.7l-1.3 0.1c-0.4 0.1-0.7-0.2-0.7-0.6 0-0.3 0.2-0.7 0.6-0.7l1.2-0.1z"/>
				<path id="&lt;Path&gt;" class="s55" d="m416.9 362.2c0.3 0 0.6 0.3 0.6 0.7 0 0.4-0.2 0.7-0.6 0.7h-1.3c-0.3 0-0.6-0.3-0.6-0.7 0-0.3 0.3-0.6 0.6-0.6l1.3-0.1z"/>
				<path id="&lt;Path&gt;" class="s56" d="m412.7 362.2c0.3 0 0.6 0.3 0.5 0.7 0 0.4-0.3 0.7-0.6 0.7l-1.3-0.1c-0.4 0-0.6-0.4-0.6-0.7 0-0.4 0.3-0.7 0.7-0.7l1.2 0.1z"/>
				<path id="&lt;Path&gt;" class="s57" d="m408.4 361.8c0.4 0.1 0.6 0.4 0.6 0.8-0.1 0.4-0.4 0.7-0.7 0.6l-1.3-0.2c-0.4 0-0.6-0.3-0.6-0.7 0.1-0.4 0.4-0.7 0.7-0.7l1.3 0.2z"/>
				<path id="&lt;Path&gt;" class="s58" d="m404.2 361.2c0.3 0 0.6 0.4 0.5 0.8 0 0.4-0.4 0.6-0.7 0.6l-1.3-0.3c-0.4 0-0.6-0.4-0.5-0.8 0-0.4 0.4-0.7 0.7-0.6l1.3 0.3z"/>
				<path id="&lt;Path&gt;" class="s59" d="m400 360.2c0.4 0.1 0.6 0.5 0.5 0.9-0.1 0.4-0.4 0.7-0.8 0.6l-1.2-0.3c-0.4-0.1-0.6-0.5-0.5-0.9 0-0.4 0.4-0.7 0.8-0.6l1.2 0.3z"/>
				<path id="&lt;Path&gt;" class="s60" d="m395.9 359.1c0.3 0.1 0.6 0.5 0.5 0.9-0.2 0.4-0.5 0.6-0.9 0.5l-1.2-0.4c-0.4-0.1-0.6-0.5-0.5-0.9 0.1-0.4 0.5-0.6 0.8-0.5h0.1l1.2 0.4z"/>
				<path id="&lt;Path&gt;" class="s61" d="m391.8 357.7c0.4 0.1 0.6 0.5 0.4 0.9-0.1 0.4-0.5 0.7-0.8 0.5l-1.2-0.4h-0.1c-0.3-0.2-0.5-0.6-0.4-1 0.1-0.4 0.5-0.6 0.9-0.5l1.2 0.5z"/>
				<path id="&lt;Path&gt;" class="s62" d="m387.8 356.1c0.4 0.1 0.5 0.6 0.4 1-0.1 0.4-0.5 0.5-0.9 0.4l-1.2-0.5c-0.4-0.2-0.5-0.7-0.4-1.1 0.2-0.4 0.6-0.5 0.9-0.4l1.2 0.6z"/>
				<path id="&lt;Path&gt;" class="s63" d="m383.9 354.2c0.3 0.2 0.5 0.7 0.3 1.1-0.1 0.3-0.5 0.5-0.9 0.3l-1.2-0.5c-0.3-0.2-0.5-0.7-0.3-1.1 0.1-0.4 0.6-0.6 0.9-0.4l1.2 0.6z"/>
				<path id="&lt;Path&gt;" class="s64" d="m380 352.2c0.4 0.2 0.5 0.7 0.4 1-0.2 0.4-0.7 0.6-1 0.4l-1.2-0.7c-0.3-0.2-0.5-0.7-0.3-1 0.2-0.4 0.6-0.6 1-0.4l1.1 0.7z"/>
				<path id="&lt;Path&gt;" class="s65" d="m376.3 349.9c0.3 0.3 0.5 0.7 0.3 1.1-0.2 0.4-0.7 0.6-1 0.3l-1.2-0.7c-0.3-0.2-0.4-0.7-0.2-1.1 0.2-0.4 0.6-0.5 1-0.3l1.1 0.7z"/>
				<path id="&lt;Path&gt;" class="s66" d="m372.6 347.5c0.4 0.3 0.5 0.8 0.2 1.1-0.2 0.4-0.6 0.5-1 0.3l-1.1-0.8c-0.3-0.2-0.4-0.7-0.2-1.1 0.2-0.4 0.7-0.5 1-0.2l1.1 0.7z"/>
				<path id="&lt;Path&gt;" class="s67" d="m369 345c0.4 0.2 0.4 0.7 0.2 1.1-0.2 0.4-0.7 0.5-1 0.2l-1.1-0.8c-0.3-0.2-0.4-0.8-0.2-1.1 0.3-0.4 0.7-0.5 1-0.3h0.1l1 0.8z"/>
				<path id="&lt;Path&gt;" class="s68" d="m365.5 342.2c0.3 0.3 0.4 0.8 0.2 1.2-0.3 0.4-0.7 0.4-1.1 0.2l-1-0.9c-0.3-0.2-0.4-0.8-0.2-1.1 0.3-0.4 0.7-0.5 1.1-0.2l1 0.8z"/>
				<path id="&lt;Path&gt;" class="s69" d="m362.1 339.4c0.3 0.3 0.4 0.8 0.1 1.2-0.2 0.3-0.7 0.4-1 0.1l-1-0.9h-0.1c-0.3-0.2-0.3-0.8-0.1-1.1 0.3-0.4 0.7-0.5 1.1-0.2l1 0.9z"/>
				<path id="&lt;Path&gt;" class="s70" d="m358.7 336.5c0.4 0.2 0.4 0.8 0.1 1.1-0.2 0.4-0.7 0.4-1 0.1l-1-0.9c-0.3-0.3-0.4-0.8-0.1-1.1 0.2-0.4 0.7-0.4 1-0.2l1 1z"/>
				<path id="&lt;Path&gt;" class="s71" d="m355.5 333.4c0.3 0.3 0.3 0.8 0 1.2-0.2 0.3-0.7 0.4-1 0.1l-1-1c-0.3-0.3-0.4-0.8-0.1-1.2 0.3-0.3 0.8-0.3 1.1 0l0.9 0.9z"/>
				<path id="&lt;Path&gt;" class="s72" d="m352.2 330.3c0.3 0.3 0.4 0.8 0.1 1.1-0.3 0.4-0.8 0.4-1.1 0.1l-0.9-1c-0.3-0.3-0.4-0.8-0.1-1.1 0.3-0.4 0.8-0.4 1.1-0.1l0.9 1z"/>
				<path id="&lt;Path&gt;" class="s73" d="m349.1 327c0.3 0.4 0.3 0.9 0 1.2-0.3 0.4-0.7 0.4-1.1 0.1l-0.9-1c-0.3-0.3-0.3-0.9 0-1.2 0.3-0.4 0.7-0.4 1 0l1 0.9z"/>
				<path id="&lt;Path&gt;" class="s74" d="m346 323.7c0.3 0.4 0.3 0.9 0 1.3-0.3 0.3-0.8 0.3-1.1 0l-0.9-1c-0.3-0.4-0.3-0.9 0-1.2 0.3-0.4 0.8-0.4 1.1-0.1l0.9 1z"/>
				<path id="&lt;Path&gt;" class="s75" d="m342.9 320.4c0.3 0.3 0.3 0.9 0 1.2-0.3 0.3-0.7 0.3-1 0l-1-1c-0.3-0.3-0.3-0.9 0-1.2 0.3-0.4 0.8-0.4 1.1 0l0.9 1z"/>
				<path id="&lt;Path&gt;" class="s76" d="m339.9 317c0.3 0.3 0.3 0.9 0 1.2-0.3 0.3-0.8 0.3-1.1 0l-0.9-1c-0.3-0.4-0.3-0.9 0-1.3 0.3-0.3 0.8-0.3 1.1 0.1l0.9 1z"/>
				<path id="&lt;Path&gt;" class="s77" d="m336.9 314.8c-0.3 0.3-0.8 0.3-1.1 0l-0.9-1.1c-0.3-0.3-0.2-0.9 0.1-1.2 0.3-0.3 0.8-0.3 1.1 0l0.9 1.1c0.2 0.3 0.2 0.9-0.1 1.2z"/>
				<path id="&lt;Path&gt;" class="s78" d="m334 311.3c-0.3 0.3-0.8 0.3-1.1 0l-0.9-1.1c-0.3-0.3-0.3-0.9 0-1.2 0.3-0.3 0.8-0.3 1.1 0l0.9 1.1c0.3 0.3 0.3 0.9 0 1.2z"/>
				<path id="&lt;Path&gt;" class="s79" d="m331 307.8c-0.3 0.4-0.8 0.3-1.1 0l-0.9-1.1c-0.3-0.3-0.2-0.9 0.1-1.2 0.3-0.3 0.8-0.3 1.1 0l0.9 1.1c0.3 0.3 0.2 0.9-0.1 1.2z"/>
				<path id="&lt;Path&gt;" class="s80" d="m328.1 304.3c-0.3 0.4-0.8 0.3-1.1 0l-0.9-1.1c-0.3-0.3-0.3-0.9 0.1-1.2 0.3-0.3 0.8-0.3 1.1 0l0.9 1.1c0.2 0.3 0.2 0.9-0.1 1.2z"/>
				<path id="&lt;Path&gt;" class="s81" d="m325.2 300.8c-0.3 0.4-0.8 0.3-1.1 0l-0.9-1.1c-0.3-0.3-0.3-0.9 0-1.2 0.4-0.4 0.9-0.3 1.2 0l0.8 1.1c0.3 0.3 0.3 0.9 0 1.2z"/>
				<path id="&lt;Path&gt;" class="s82" d="m322.3 297.3c-0.4 0.4-0.9 0.3-1.2 0l-0.8-1.1c-0.3-0.3-0.3-0.9 0-1.2 0.3-0.4 0.8-0.3 1.1 0l0.9 1.1c0.3 0.3 0.3 0.9 0 1.2z"/>
				<path id="&lt;Path&gt;" class="s83" d="m319.3 293.8c-0.3 0.4-0.8 0.4-1.1 0l-0.9-1c-0.3-0.4-0.3-1 0.1-1.3 0.3-0.3 0.8-0.3 1.1 0l0.9 1.1c0.3 0.3 0.3 0.9-0.1 1.2z"/>
				<path id="&lt;Path&gt;" class="s84" d="m316.4 290.4c-0.3 0.3-0.8 0.3-1.2 0v-0.1l-0.8-1c-0.4-0.3-0.3-0.9 0-1.3 0.3-0.3 0.8-0.3 1.1 0.1l0.9 1c0.3 0.4 0.3 0.9 0 1.3z"/>
				<path id="&lt;Path&gt;" class="s85" d="m313.4 286.9c-0.3 0.4-0.8 0.4-1.1 0l-0.9-1c-0.4-0.4-0.4-0.9 0-1.3 0.3-0.3 0.8-0.3 1.1 0l0.9 1.1c0.3 0.3 0.3 0.9 0 1.2z"/>
				<path id="&lt;Path&gt;" class="s86" d="m310.4 283.5c-0.3 0.4-0.8 0.4-1.2 0l-0.9-1c-0.3-0.3-0.3-0.9 0-1.2 0.3-0.4 0.8-0.4 1.2-0.1l0.9 1.1c0.3 0.3 0.3 0.9 0 1.2z"/>
				<path id="&lt;Path&gt;" class="s87" d="m307.3 280.2c-0.3 0.4-0.8 0.4-1.1 0l-1-1c-0.3-0.3-0.3-0.9 0-1.3 0.3-0.3 0.8-0.3 1.2 0l0.9 1c0.3 0.4 0.3 0.9 0 1.3z"/>
				<path id="&lt;Path&gt;" class="s88" d="m304.2 275.6c0.3 0.4 0.3 0.9 0 1.3-0.3 0.4-0.8 0.4-1.1 0.1v-0.1l-1-0.9c-0.3-0.4-0.3-0.9 0-1.3 0.3-0.4 0.8-0.4 1.1-0.1l1 1z"/>
				<path id="&lt;Path&gt;" class="s89" d="m301 272.4c0.3 0.3 0.3 0.9 0 1.3-0.3 0.3-0.8 0.4-1.1 0l-1-0.9c-0.3-0.3-0.3-0.9 0-1.3 0.2-0.4 0.8-0.4 1.1-0.1l1 1z"/>
				<path id="&lt;Path&gt;" class="s90" d="m297.7 269.2c0.3 0.4 0.4 0.9 0.1 1.3-0.3 0.4-0.8 0.5-1.1 0.1l-1-0.9c-0.4-0.3-0.4-0.9-0.1-1.3 0.3-0.3 0.8-0.4 1.1-0.1l1 0.9z"/>
				<path id="&lt;Path&gt;" class="s91" d="m294.4 266.2c0.3 0.3 0.4 0.9 0.1 1.3-0.3 0.4-0.8 0.4-1.1 0.1l-1-0.9c-0.4-0.3-0.5-0.9-0.2-1.2 0.3-0.4 0.8-0.5 1.2-0.2l1 0.9z"/>
				<path id="&lt;Path&gt;" class="s92" d="m291 263.3c0.3 0.3 0.4 0.8 0.1 1.2-0.2 0.4-0.7 0.5-1.1 0.2l-1-0.9c-0.4-0.3-0.5-0.8-0.2-1.2 0.3-0.4 0.8-0.5 1.1-0.2l1.1 0.9z"/>
				<path id="&lt;Path&gt;" class="s93" d="m287.5 260.4c0.3 0.3 0.4 0.9 0.2 1.3-0.3 0.4-0.8 0.5-1.1 0.2h-0.1l-1-0.8c-0.4-0.3-0.5-0.9-0.2-1.3 0.2-0.4 0.7-0.5 1.1-0.2l1.1 0.8z"/>
				<path id="&lt;Path&gt;" class="s94" d="m283.9 257.7c0.4 0.3 0.5 0.9 0.2 1.3-0.2 0.4-0.7 0.5-1.1 0.2l-1.1-0.8c-0.3-0.2-0.4-0.8-0.2-1.2 0.2-0.4 0.7-0.5 1.1-0.2l1.1 0.7z"/>
				<path id="&lt;Path&gt;" class="s95" d="m280.2 255.2c0.4 0.2 0.5 0.8 0.3 1.2-0.2 0.4-0.7 0.6-1.1 0.3l-1.1-0.7c-0.4-0.3-0.5-0.8-0.3-1.2 0.2-0.5 0.7-0.6 1.1-0.4l1.1 0.8z"/>
				<path id="&lt;Path&gt;" class="s96" d="m276.5 252.8c0.4 0.2 0.5 0.8 0.3 1.2-0.2 0.4-0.7 0.6-1.1 0.3l-1.1-0.7c-0.4-0.2-0.5-0.7-0.3-1.2 0.2-0.4 0.6-0.5 1-0.3l1.2 0.7z"/>
				<path id="&lt;Path&gt;" class="s97" d="m272.6 250.5c0.4 0.3 0.6 0.8 0.4 1.2-0.2 0.4-0.7 0.6-1.1 0.4l-1.1-0.6c-0.4-0.3-0.6-0.8-0.4-1.2 0.2-0.4 0.7-0.6 1.1-0.4l1.1 0.6z"/>
				<path id="&lt;Path&gt;" class="s98" d="m268.8 248.4c0.3 0.2 0.5 0.8 0.3 1.2-0.1 0.4-0.6 0.6-1 0.4l-1.2-0.6c-0.4-0.2-0.5-0.7-0.4-1.1 0.2-0.5 0.7-0.6 1.1-0.4l1.2 0.5z"/>
				<path id="&lt;Path&gt;" class="s99" d="m264.8 246.5c0.4 0.2 0.6 0.7 0.4 1.2-0.1 0.4-0.6 0.6-1 0.4l-1.2-0.5c-0.4-0.2-0.6-0.7-0.4-1.2 0.1-0.4 0.6-0.6 1-0.4l1.2 0.5z"/>
				<path id="&lt;Path&gt;" class="s100" d="m260.8 244.7c0.4 0.2 0.6 0.7 0.4 1.2-0.1 0.4-0.6 0.6-1 0.5l-1.2-0.5c-0.4-0.2-0.6-0.7-0.4-1.1 0.1-0.5 0.6-0.7 1-0.6l1.2 0.5z"/>
				<path id="&lt;Path&gt;" class="s101" d="m256.7 243.1c0.4 0.2 0.6 0.7 0.5 1.1-0.1 0.5-0.6 0.7-1 0.6l-1.2-0.5c-0.4-0.1-0.6-0.6-0.5-1.1 0.1-0.4 0.6-0.7 1-0.5l1.2 0.4z"/>
				<path id="&lt;Path&gt;" class="s102" d="m252.6 241.7c0.4 0.1 0.6 0.6 0.5 1.1-0.1 0.4-0.5 0.7-0.9 0.5h-0.1l-1.2-0.4c-0.4-0.1-0.6-0.6-0.5-1 0.1-0.5 0.5-0.8 0.9-0.6l1.3 0.4z"/>
				<path id="&lt;Path&gt;" class="s103" d="m248.4 240.4c0.4 0.1 0.7 0.6 0.6 1-0.1 0.5-0.5 0.8-1 0.7l-1.2-0.4c-0.4-0.1-0.7-0.6-0.6-1 0.1-0.5 0.6-0.8 1-0.7l1.2 0.4z"/>
				<path id="&lt;Path&gt;" class="s104" d="m244.2 239.3c0.4 0.1 0.7 0.5 0.6 1-0.1 0.4-0.5 0.7-0.9 0.6l-1.3-0.3c-0.4-0.1-0.6-0.5-0.6-1 0.1-0.4 0.5-0.7 1-0.6l1.2 0.3z"/>
				<path id="&lt;Path&gt;" class="s105" d="m240 238.3c0.4 0.1 0.7 0.5 0.6 1-0.1 0.5-0.5 0.8-0.9 0.7l-1.3-0.3c-0.4-0.1-0.7-0.5-0.6-1 0.1-0.4 0.5-0.7 0.9-0.6l1.3 0.2z"/>
				<path id="&lt;Path&gt;" class="s106" d="m235.7 237.5c0.4 0.1 0.7 0.5 0.7 1-0.1 0.4-0.5 0.8-0.9 0.7l-1.3-0.2c-0.4-0.1-0.7-0.5-0.6-1 0-0.4 0.4-0.8 0.8-0.7l1.3 0.2z"/>
				<path id="&lt;Path&gt;" class="s107" d="m231.4 236.9c0.5 0 0.8 0.5 0.7 0.9 0 0.5-0.4 0.8-0.8 0.8l-1.3-0.2c-0.4 0-0.7-0.5-0.7-0.9 0.1-0.5 0.4-0.8 0.8-0.8l1.3 0.2z"/>
				<path id="&lt;Path&gt;" class="s108" d="m227.1 236.4c0.4 0.1 0.8 0.5 0.7 0.9 0 0.5-0.4 0.8-0.8 0.8l-1.3-0.1c-0.4 0-0.7-0.4-0.7-0.9 0.1-0.5 0.4-0.8 0.8-0.8l1.3 0.1z"/>
				<path id="&lt;Path&gt;" class="s109" d="m222.8 236.2c0.4 0 0.8 0.4 0.7 0.8 0 0.5-0.3 0.8-0.7 0.8h-1.3c-0.4 0-0.8-0.4-0.8-0.9 0.1-0.5 0.4-0.8 0.8-0.8l1.3 0.1z"/>
				<path id="&lt;Path&gt;" class="s110" d="m218.5 236c0.4 0 0.7 0.4 0.7 0.9 0 0.4-0.3 0.8-0.7 0.8h-1.3c-0.4 0-0.7-0.4-0.7-0.8 0-0.5 0.3-0.9 0.7-0.9h1.3z"/>
				<path id="&lt;Path&gt;" class="s111" d="m214.2 236.1c0.4 0 0.7 0.3 0.8 0.8 0 0.5-0.4 0.8-0.8 0.9h-1.3c-0.4 0-0.7-0.3-0.7-0.8 0-0.5 0.3-0.8 0.7-0.9h1.3z"/>
				<path id="&lt;Path&gt;" class="s112" d="m209.9 236.3c0.4 0 0.7 0.3 0.8 0.8 0 0.4-0.3 0.8-0.7 0.9l-1.3 0.1c-0.4 0-0.8-0.3-0.8-0.8 0-0.4 0.3-0.8 0.7-0.9l1.3-0.1z"/>
				<path id="&lt;Path&gt;" class="s113" d="m205.6 236.7c0.4 0 0.7 0.3 0.8 0.8 0 0.4-0.3 0.8-0.7 0.9l-1.3 0.1c-0.4 0.1-0.7-0.3-0.8-0.7 0-0.5 0.3-0.9 0.7-0.9l1.3-0.2z"/>
				<path id="&lt;Path&gt;" class="s114" d="m201.3 237.3c0.4 0 0.7 0.3 0.8 0.7 0.1 0.5-0.2 0.9-0.6 0.9l-1.3 0.2c-0.4 0.1-0.8-0.2-0.8-0.6-0.1-0.5 0.2-0.9 0.6-1l1.3-0.2z"/>
				<path id="&lt;Path&gt;" class="s115" d="m197 238.1c0.4-0.1 0.8 0.2 0.9 0.6 0 0.5-0.2 0.9-0.6 1l-1.3 0.3c-0.4 0-0.8-0.3-0.9-0.7 0-0.4 0.2-0.9 0.6-0.9l1.3-0.3z"/>
				<path id="&lt;Path&gt;" class="s116" d="m192.8 239.1c0.4-0.1 0.8 0.1 0.8 0.6 0.1 0.4-0.1 0.8-0.5 0.9l-1.3 0.4c-0.4 0.1-0.7-0.2-0.8-0.6-0.1-0.5 0.1-0.9 0.5-1l1.3-0.3z"/>
				<path id="&lt;Path&gt;" class="s117" d="m188.6 240.2c0.4-0.1 0.8 0.2 0.9 0.6 0.1 0.4-0.1 0.9-0.5 1l-1.3 0.4c-0.4 0.1-0.8-0.1-0.9-0.6-0.1-0.4 0.1-0.9 0.5-1l1.3-0.4z"/>
				<path id="&lt;Path&gt;" class="s118" d="m184.4 241.6c0.4-0.1 0.8 0.1 0.9 0.5 0.2 0.5 0 0.9-0.4 1.1l-1.2 0.4c-0.4 0.2-0.8-0.1-0.9-0.5-0.2-0.4 0-0.9 0.4-1l1.2-0.5z"/>
				<path id="&lt;Path&gt;" class="s119" d="m180.4 243.3c0.3-0.2 0.7 0 0.9 0.4 0.1 0.4-0.1 0.9-0.4 1v0.1l-1.2 0.5c-0.4 0.1-0.8-0.1-0.9-0.5-0.2-0.4 0-0.8 0.3-1l1.3-0.5z"/>
				<path id="&lt;Path&gt;" class="s120" d="m176.4 245.2c0.3-0.2 0.7 0 0.9 0.4 0.2 0.3 0 0.8-0.3 1l-1.2 0.6c-0.4 0.2-0.8 0-0.9-0.4-0.2-0.4-0.1-0.8 0.3-1l1.2-0.6z"/>
				<path id="&lt;Path&gt;" class="s121" d="m172.5 247.3c0.3-0.2 0.7 0 0.9 0.3 0.2 0.4 0.1 0.9-0.2 1.1h-0.1l-1.1 0.7c-0.3 0.2-0.7 0.1-0.9-0.3-0.2-0.4-0.1-0.8 0.3-1l1.1-0.8z"/>
				<path id="&lt;Path&gt;" class="s122" d="m168.8 249.8c0.3-0.2 0.7-0.1 0.9 0.2 0.2 0.4 0.1 0.8-0.2 1.1l-1.1 0.7v0.1c-0.3 0.2-0.7 0.1-0.9-0.3-0.2-0.3-0.2-0.8 0.2-1l1.1-0.8z"/>
				<path id="&lt;Path&gt;" class="s123" d="m165.2 252.5c0.3-0.2 0.7-0.1 0.9 0.2 0.2 0.3 0.2 0.8-0.1 1l-1 0.9c-0.3 0.3-0.8 0.2-1-0.1-0.2-0.4-0.2-0.8 0.1-1.1l1.1-0.9z"/>
				<path id="&lt;Path&gt;" class="s124" d="m161.8 255.6c0.3-0.3 0.7-0.2 0.9 0.1 0.3 0.3 0.3 0.7 0 1l-1 1c-0.3 0.2-0.7 0.2-0.9-0.1-0.3-0.3-0.2-0.8 0-1l1-1z"/>
				<path id="&lt;Path&gt;" class="s125" d="m158.7 259c0.2-0.3 0.6-0.4 0.9-0.1 0.3 0.3 0.3 0.8 0 1v0.1l-0.9 1c-0.2 0.3-0.6 0.3-0.9 0-0.3-0.2-0.3-0.7 0-1l0.9-1z"/>
				<path id="&lt;Path&gt;" class="s126" d="m155.8 262.6c0.2-0.3 0.6-0.4 0.9-0.1 0.3 0.2 0.3 0.7 0.1 1l-0.8 1.1c-0.2 0.3-0.6 0.4-0.9 0.2-0.3-0.3-0.3-0.7-0.1-1l0.8-1.2z"/>
				<path id="&lt;Path&gt;" class="s127" d="m153.3 266.6c0.2-0.4 0.6-0.5 0.8-0.3 0.3 0.2 0.4 0.7 0.3 1h-0.1l-0.6 1.2c-0.2 0.4-0.6 0.5-0.9 0.3-0.3-0.2-0.4-0.7-0.2-1l0.7-1.2z"/>
				<path id="&lt;Path&gt;" class="s128" d="m151.1 270.8c0.2-0.4 0.5-0.5 0.9-0.3 0.3 0.1 0.4 0.5 0.2 0.9l-0.5 1.3c-0.2 0.3-0.6 0.5-0.9 0.3-0.3-0.2-0.4-0.6-0.3-0.9l0.6-1.3z"/>
				<path id="&lt;Path&gt;" class="s129" d="m149.3 275.2c0.2-0.4 0.5-0.5 0.8-0.4 0.3 0.1 0.5 0.5 0.4 0.9l-0.5 1.3c-0.1 0.4-0.5 0.6-0.8 0.4-0.3-0.1-0.4-0.5-0.3-0.8l0.4-1.4z"/>
				<path id="&lt;Path&gt;" class="s130" d="m147.9 279.8c0.1-0.4 0.5-0.6 0.8-0.5 0.3 0.1 0.5 0.5 0.4 0.8v0.1l-0.4 1.3c-0.1 0.4-0.4 0.6-0.7 0.5-0.3-0.1-0.5-0.5-0.4-0.8l0.3-1.4z"/>
				<path id="&lt;Path&gt;" class="s131" d="m146.9 284.5c0.1-0.4 0.4-0.6 0.7-0.6 0.3 0.1 0.5 0.5 0.5 0.8l-0.3 1.4c0 0.4-0.3 0.6-0.7 0.6-0.3-0.1-0.5-0.4-0.4-0.8l0.2-1.4z"/>
				<path id="&lt;Path&gt;" class="s132" d="m146.2 289.3c0.1-0.4 0.4-0.7 0.7-0.6 0.3 0 0.5 0.3 0.5 0.7l-0.1 1.4c-0.1 0.4-0.4 0.6-0.7 0.6-0.3 0-0.5-0.3-0.5-0.7l0.1-1.4z"/>
				<path id="&lt;Path&gt;" class="s133" d="m145.9 294.1c0-0.4 0.3-0.7 0.6-0.6 0.3 0 0.6 0.3 0.6 0.6v1.4 0.1c0 0.3-0.3 0.6-0.6 0.6-0.3 0-0.6-0.3-0.6-0.7v-1.4z"/>
				<path id="&lt;Path&gt;" class="s134" d="m146 298.9c0-0.3 0.2-0.6 0.5-0.7 0.3 0 0.6 0.3 0.6 0.6v0.1l0.1 1.4c0 0.3-0.2 0.6-0.5 0.7-0.3 0-0.6-0.3-0.6-0.6l-0.1-1.5z"/>
				<path id="&lt;Path&gt;" class="s135" d="m146.4 303.7c0-0.3 0.2-0.6 0.5-0.7 0.3 0 0.6 0.2 0.6 0.5v0.1l0.2 1.4c0.1 0.3-0.1 0.6-0.4 0.7-0.3 0-0.6-0.2-0.7-0.5l-0.2-1.5z"/>
				<path id="&lt;Path&gt;" class="s136" d="m147.2 308.5c0-0.3 0.1-0.7 0.4-0.8 0.3 0 0.6 0.2 0.7 0.5l0.3 1.4c0.1 0.3-0.1 0.7-0.4 0.7-0.3 0.1-0.6-0.1-0.7-0.4l-0.3-1.4z"/>
				<path id="&lt;Path&gt;" class="s137" d="m148.4 313.1c-0.1-0.3 0.1-0.6 0.3-0.7 0.3-0.1 0.6 0 0.7 0.4l0.4 1.3c0.1 0.3 0 0.7-0.3 0.8-0.3 0.1-0.6-0.1-0.7-0.4l-0.4-1.4z"/>
				<path id="&lt;Path&gt;" class="s138" d="m149.9 317.7c-0.1-0.3 0-0.7 0.3-0.8 0.3-0.1 0.6 0 0.7 0.3l0.5 1.3c0.1 0.3 0 0.7-0.3 0.8-0.2 0.1-0.5 0-0.7-0.3l-0.5-1.3z"/>
				<path id="&lt;Path&gt;" class="s139" d="m151.8 322c-0.1-0.3 0-0.6 0.2-0.8 0.3-0.1 0.6 0 0.7 0.3l0.6 1.2c0.2 0.3 0.1 0.6-0.2 0.8-0.2 0.2-0.5 0.1-0.7-0.2l-0.6-1.3z"/>
				<path id="&lt;Path&gt;" class="s140" d="m154.1 326.1c-0.2-0.2-0.1-0.6 0.1-0.7 0.2-0.2 0.5-0.1 0.7 0.1l0.7 1.2c0.2 0.3 0.1 0.6-0.1 0.8-0.2 0.2-0.5 0.1-0.7-0.2l-0.7-1.1z"/>
				<path id="&lt;Path&gt;" class="s141" d="m156.7 330c-0.2-0.2-0.2-0.6 0-0.8 0.2-0.1 0.5-0.1 0.7 0.1l0.9 1.1c0.1 0.2 0.1 0.6-0.1 0.8-0.2 0.2-0.5 0.1-0.7-0.1l-0.8-1.1z"/>
				<path id="&lt;Path&gt;" class="s142" d="m159.6 333.6c-0.2-0.2-0.2-0.6 0-0.8 0.2-0.2 0.5-0.2 0.7 0l0.9 1c0.2 0.2 0.2 0.5 0 0.7-0.1 0.2-0.4 0.3-0.6 0.1l-1-1z"/>
				<path id="&lt;Path&gt;" class="s143" d="m162.9 336.8c-0.2-0.2-0.2-0.5-0.1-0.8 0.2-0.2 0.4-0.2 0.6 0h0.1l1 0.8c0.2 0.2 0.2 0.5 0 0.7-0.1 0.3-0.4 0.3-0.6 0.1l-1-0.8z"/>
				<path id="&lt;Path&gt;" class="s144" d="m166.4 339.6c-0.2-0.2-0.3-0.5-0.1-0.7 0.1-0.2 0.4-0.3 0.6-0.2v0.1l1.1 0.7c0.2 0.2 0.2 0.5 0.1 0.7-0.1 0.2-0.4 0.3-0.6 0.1l-1.1-0.7z"/>
				<path id="&lt;Path&gt;" class="s145" d="m170.2 342c-0.3-0.1-0.3-0.4-0.2-0.6 0.1-0.3 0.3-0.4 0.5-0.2l1.2 0.6c0.2 0.1 0.3 0.4 0.2 0.6-0.1 0.3-0.4 0.4-0.6 0.3l-1.1-0.7z"/>
				<path id="&lt;Path&gt;" class="s146" d="m174.1 344c-0.2-0.1-0.3-0.3-0.2-0.6 0-0.2 0.3-0.3 0.5-0.2l1.2 0.5c0.2 0.1 0.3 0.4 0.2 0.6-0.1 0.2-0.3 0.4-0.5 0.3l-1.2-0.6z"/>
				<path id="&lt;Path&gt;" class="s147" d="m178.1 345.7c-0.2-0.1-0.3-0.3-0.2-0.6 0.1-0.2 0.3-0.3 0.5-0.3l1.2 0.5c0.2 0 0.3 0.3 0.3 0.5-0.1 0.2-0.3 0.4-0.5 0.3l-1.2-0.4z"/>
				<path id="&lt;Path&gt;" class="s148" d="m182.3 346.9c-0.2 0-0.3-0.3-0.3-0.5 0.1-0.2 0.3-0.3 0.5-0.3l1.2 0.3h0.1c0.2 0.1 0.3 0.3 0.2 0.5 0 0.2-0.2 0.3-0.4 0.3l-1.3-0.3z"/>
				<path id="&lt;Path&gt;" class="s149" d="m186.6 347.8c-0.2-0.1-0.3-0.3-0.3-0.5 0-0.2 0.2-0.4 0.4-0.3l1.3 0.2c0.2 0 0.3 0.2 0.3 0.4-0.1 0.2-0.2 0.4-0.4 0.3l-1.3-0.1z"/>
				<path id="&lt;Path&gt;" class="s150" d="m190.9 348.2c-0.2 0-0.3-0.2-0.3-0.4 0-0.2 0.1-0.4 0.3-0.4l1.3 0.1c0.2 0 0.3 0.2 0.3 0.4 0 0.2-0.1 0.4-0.3 0.3h-1.3z"/>
				<path id="&lt;Path&gt;" class="s151" d="m195.2 348.2c-0.2 0-0.3-0.1-0.3-0.3 0-0.2 0.1-0.4 0.3-0.4h1.3c0.2 0 0.3 0.1 0.3 0.3 0 0.2-0.1 0.4-0.3 0.4h-1.3z"/>
				<path id="&lt;Path&gt;" class="s152" d="m199.5 347.9c-0.1 0-0.3-0.1-0.3-0.3 0-0.2 0.1-0.4 0.2-0.4h0.1l1.2-0.2c0.2 0 0.3 0.1 0.4 0.3 0 0.2-0.1 0.3-0.3 0.4l-1.3 0.2z"/>
				<path id="&lt;Path&gt;" class="s153" d="m203.8 347.1c-0.2 0-0.3-0.1-0.4-0.3 0-0.1 0.1-0.3 0.3-0.4l1.2-0.3c0.2 0 0.3 0.1 0.4 0.3 0 0.1-0.1 0.3-0.2 0.4l-1.3 0.3z"/>
				<path id="&lt;Path&gt;" class="s154" d="m208 345.9c-0.2 0-0.3-0.1-0.4-0.2 0-0.2 0.1-0.4 0.2-0.4l1.2-0.4c0.2-0.1 0.3 0 0.4 0.2 0 0.1-0.1 0.3-0.2 0.3l-1.2 0.5z"/>
				<path id="&lt;Path&gt;" class="s155" d="m212 344.2c-0.1 0.1-0.3 0-0.3-0.1-0.1-0.2 0-0.3 0.1-0.4l1.2-0.5c0.1-0.1 0.3 0 0.3 0.1 0.1 0.1 0 0.3-0.1 0.4l-1.2 0.5z"/>
				<path id="&lt;Path&gt;" class="s156" d="m215.9 342.2c-0.1 0.1-0.2 0-0.3-0.1-0.1-0.2 0-0.3 0.1-0.4l1.1-0.7c0.2 0 0.3 0 0.4 0.1 0 0.2 0 0.3-0.1 0.4l-1.2 0.7z"/>
				<path id="&lt;Path&gt;" class="s157" d="m219.6 339.7c-0.1 0.1-0.2 0.1-0.3-0.1 0-0.1 0-0.2 0.1-0.3l0.8-0.6c0.1-0.1 0.2-0.1 0.3 0 0.1 0.1 0.1 0.3 0 0.4l-0.9 0.6z"/>
			</g>
			<g id="&lt;Group&gt;">
				<g id="&lt;Group&gt;">
					<path id="&lt;Compound Path&gt;" fill-rule="evenodd" class="s0" d="m158.9 260.2c-0.5 0-1-0.3-1.2-0.9l-1.8-5.8q-3.9-1.1-7.3-3.3l-4.9 2.8c-0.5 0.2-1.1 0.1-1.5-0.3l-5.1-5.6c-0.4-0.4-0.5-1.1-0.3-1.7l2.4-5.5c-1.4-2.5-2.4-5.2-3-8l-5.3-1.9c-0.5-0.2-0.8-0.8-0.9-1.4v-8c0-0.6 0.3-1.2 0.9-1.4l5.2-2c0.6-2.9 1.6-5.5 2.9-8.1l-2.5-5.5c-0.2-0.5-0.1-1.2 0.3-1.6l5-5.7c0.4-0.5 1-0.6 1.5-0.3l5 2.6q3.3-2.3 7.1-3.4l1.8-5.8c0.2-0.6 0.7-1 1.2-1h7.2q0 0 0 0c0.5 0 1 0.3 1.2 0.9l1.9 5.8q3.8 1.1 7.2 3.3l4.9-2.8c0.5-0.2 1.1-0.1 1.5 0.3l5.1 5.6c0.4 0.4 0.5 1.1 0.3 1.7l-2.4 5.5q2.1 3.8 3.1 8l5.2 1.9c0.5 0.2 0.9 0.8 0.9 1.4v8c0 0.6-0.3 1.2-0.8 1.4l-5.2 2q-1 4.3-3 8.1l2.5 5.5c0.2 0.5 0.2 1.2-0.2 1.6l-5.1 5.7c-0.4 0.5-1 0.6-1.5 0.3l-4.9-2.6q-3.4 2.3-7.2 3.4l-1.8 5.8c-0.1 0.6-0.6 1-1.2 1h-7.2q0 0 0 0zm-10.2-12.1l0.4 0.3c2.4 1.6 4.9 2.7 7.6 3.4l0.4 0.1 2.1 6.5 6.7-0.1 1.9-6.5 0.5-0.1c2.6-0.7 5.1-1.9 7.5-3.5l0.4-0.3 5.5 2.9 4.7-5.3-2.7-6.1 0.2-0.5c1.4-2.6 2.5-5.4 3.1-8.4l0.1-0.5 5.8-2.3-0.1-7.4-5.8-2.2-0.1-0.5c-0.7-2.9-1.8-5.8-3.2-8.3l-0.3-0.5 2.7-6.2-4.8-5.2-5.5 3.1-0.4-0.3c-2.3-1.6-4.9-2.7-7.5-3.4l-0.5-0.1-2.1-6.5-6.6 0.1-2 6.5-0.4 0.1c-2.7 0.7-5.2 1.9-7.5 3.5l-0.4 0.3-5.6-2.9-4.7 5.3 2.8 6.1-0.3 0.5c-1.4 2.6-2.4 5.4-3 8.4l-0.1 0.5-5.9 2.3 0.1 7.4 5.9 2.2 0.1 0.5c0.6 2.9 1.7 5.8 3.1 8.3l0.3 0.5-2.7 6.2 4.8 5.2zm13.4-3.6c-4.7 0.1-9.2-2-12.7-5.7-3.4-3.8-5.3-8.9-5.4-14.2 0-5.4 1.8-10.5 5.2-14.3 3.4-3.9 8-6 12.8-6.1q1.9 0 3.8 0.5c0.5 0.1 0.7 0.6 0.7 1.1-0.1 0.5-0.6 0.8-1 0.7q-1.7-0.4-3.5-0.4c-4.4 0-8.5 2-11.6 5.5-3.1 3.4-4.7 8.1-4.7 12.9 0 4.9 1.8 9.5 4.9 13 3.1 3.4 7.3 5.3 11.7 5.2 4.4 0 8.5-2 11.6-5.5 3-3.4 4.7-8.1 4.7-13-0.1-3.3-0.9-6.5-2.4-9.3-0.3-0.5-0.1-1 0.2-1.3 0.4-0.3 0.9-0.1 1.2 0.3 1.7 3.1 2.6 6.7 2.6 10.3 0.1 5.4-1.8 10.5-5.2 14.3-3.4 3.9-7.9 6-12.7 6q-0.1 0.1-0.2 0zm-6.1-48.5z"/>
					<path id="&lt;Compound Path&gt;" fill-rule="evenodd" class="s0" d="m162.3 232.3c-1.3 0-2.6-0.4-3.7-1.1-1.6-1.1-2.8-2.8-3.3-4.9-0.5-2-0.2-4.2 0.8-6 0.9-1.9 2.5-3.2 4.3-3.7 3.9-1.2 7.8 1.4 8.8 5.7 0.5 2 0.2 4.2-0.7 6-1 1.9-2.6 3.2-4.4 3.7q-0.9 0.3-1.8 0.3zm-1.4-14c-1.5 0.5-2.7 1.5-3.4 2.9-0.8 1.4-1 3.1-0.6 4.7 0.4 1.5 1.3 2.9 2.6 3.7 1.2 0.8 2.7 1.1 4.2 0.7 1.4-0.5 2.6-1.5 3.3-2.9 0.8-1.4 1-3.1 0.6-4.7-0.8-3.2-3.8-5.2-6.7-4.4z"/>
				</g>
				<g id="&lt;Group&gt;">
					<path id="&lt;Compound Path&gt;" fill-rule="evenodd" class="s0" d="m131 290.2c-0.2 0-0.5-0.2-0.7-0.4l-1.5-2.3q-1.8 0.1-3.5-0.3l-1.9 1.9c-0.2 0.3-0.6 0.3-0.9 0.1l-3.1-1.7c-0.3-0.2-0.5-0.6-0.4-1l0.3-2.8q-1.3-1.4-2.2-3.1h-2.6c-0.3 0-0.7-0.3-0.8-0.7l-1-3.7c-0.1-0.4 0-0.8 0.3-1l2.1-1.7q-0.1-2 0.3-3.9l-1.8-2.1c-0.2-0.3-0.3-0.7-0.1-1.1l1.6-3.4c0.2-0.3 0.5-0.5 0.9-0.5l2.5 0.4q1.2-1.4 2.7-2.5l0.1-2.8c0-0.4 0.3-0.8 0.6-0.9l3.3-1.2c0.3-0.1 0.7 0.1 0.9 0.4l1.5 2.3q1.8-0.1 3.6 0.3l1.8-1.9c0.3-0.3 0.7-0.4 1-0.2l3.1 1.8c0.3 0.2 0.5 0.6 0.4 1l-0.4 2.8q1.4 1.3 2.3 3l2.5 0.1c0.4 0 0.7 0.3 0.8 0.7l1.1 3.6c0.1 0.4 0 0.9-0.3 1.1l-2.1 1.7q0.1 2-0.3 3.9l1.7 2.1c0.3 0.3 0.3 0.7 0.2 1.1l-1.6 3.4c-0.2 0.3-0.5 0.5-0.9 0.5l-2.5-0.5q-1.2 1.5-2.8 2.6v2.8c0 0.4-0.3 0.8-0.6 0.9l-3.3 1.1q-0.1 0.1-0.3 0.1zm-1.6-4.1l1.8 2.6 2.7-0.9 0.1-3.3 0.3-0.2q1.7-1.1 3-2.7l0.2-0.3 2.9 0.5 1.3-2.9-2-2.4 0.1-0.3q0.5-2.2 0.4-4.3l-0.1-0.4 2.4-1.9-0.9-3.1-2.9-0.1-0.2-0.3q-1-1.9-2.4-3.3l-0.3-0.3 0.4-3.2-2.5-1.5-2.2 2.2-0.3-0.1q-1.9-0.5-3.8-0.3h-0.4l-1.7-2.6-2.8 0.9v3.3l-0.3 0.2q-1.7 1.1-3 2.7l-0.2 0.3-2.9-0.5-1.4 2.9 2 2.4v0.3q-0.5 2.1-0.4 4.3v0.4l-2.3 1.9 0.8 3.1 3 0.1 0.1 0.3q1 1.9 2.5 3.3l0.3 0.3-0.5 3.2 2.6 1.5 2.1-2.3 0.4 0.1q1.9 0.6 3.8 0.4zm-1.2-3.2c-3.8 0-7.4-2.7-8.5-7-1.5-5.2 1.1-10.8 5.8-12.4q0.9-0.4 1.9-0.5c0.3 0 0.6 0.3 0.6 0.7 0.1 0.3-0.2 0.7-0.5 0.7q-0.8 0.1-1.6 0.4c-4.1 1.4-6.3 6.2-5.1 10.7 1.3 4.5 5.6 7 9.7 5.6 4-1.4 6.3-6.2 5-10.7-0.4-1.5-1.2-2.8-2.2-3.8-0.3-0.3-0.3-0.7-0.1-1 0.3-0.3 0.7-0.3 0.9-0.1 1.2 1.2 2.1 2.8 2.6 4.5 1.5 5.2-1.2 10.8-5.9 12.4q-1.3 0.5-2.6 0.5zm2.7 5.9q0 0 0 0zm-7.9-0.7q0 0 0 0zm-3.1-1.8q0 0 0 0zm22-7.1q0 0 0 0zm-0.4-13q0 0 0 0zm-25.7-2.3q0 0 0 0zm20.6-4.4q0 0 0 0zm-13.9-1.9q0 0 0 0zm-0.6 0zm3.6-0.7q0 0 0 0z"/>
				</g>
			</g>
			<g id="&lt;Group&gt;">
				<path id="&lt;Path&gt;" class="s158" d="m460.4 361.1c-0.8 4.7-3.8 9.6-5.8 12.3-1.2 1.8-3.3 2.7-5.3 2.4q-10.7-1.8-9.3-24.1h3.8q3.8 21.6 5.3 12.7 1.6-9 6.4-14 4.2 3.3 4.9 10.7z"/>
				<path id="&lt;Path&gt;" class="s159" d="m471.9 453.7q0-0.1 0-0.1c-0.2-1 0.5-2.7 1.5-6.1l1.7-0.2q3.7 2 4.6 6 0 0.1 0 0.2c-3.4 0.4-6.4 0.3-7.8 0.2z"/>
				<path id="&lt;Path&gt;" class="s160" d="m479.7 453.5c0 0.3-0.2 0.6-0.5 0.7-1.4 0.2-4.7 0.6-6.8 0.1-0.2-0.1-0.4-0.3-0.5-0.6 1.4 0.1 4.4 0.2 7.8-0.2z"/>
				<path id="&lt;Path&gt;" class="s161" d="m476.6 444.3l-0.8 4.1c-0.1 0.3-0.3 0.5-0.5 0.5-0.3 0.1-0.8 0.1-1.2 0-0.4 0-0.7-0.5-0.6-1l0.5-3.6z"/>
				<path id="&lt;Path&gt;" class="s162" d="m456.9 453.6c1.9 0 2.9-0.3 3.4-0.5q0 0.3 0 0.6c0 0.3-0.2 0.5-0.4 0.5l-10.3-0.1c-0.3 0-0.5-0.4-0.4-0.8 1.4 0.1 4.8 0.4 7.7 0.3z"/>
				<path id="&lt;Path&gt;" class="s163" d="m449.2 453.3q0.1 0 0.1-0.1c0.9-1.4 3.2-4.2 7.8-5.4l2.2-0.1q1 1.9 1 5.4c-0.5 0.2-1.5 0.5-3.4 0.5-2.9 0.1-6.3-0.2-7.7-0.3z"/>
				<path id="&lt;Path&gt;" class="s164" d="m459.7 444c0 0.2-0.3 2.9-0.4 4-0.1 0.3-0.2 0.5-0.4 0.5-0.4 0-1 0.1-1.6 0-0.2-0.1-0.5-0.4-0.5-0.8v-4.3z"/>
				<path id="&lt;Path&gt;" class="s165" d="m475.1 390q3.5 34.9 1.6 56.7-2.4 0-3.6-0.5-3.6-34-4.8-43.8c0-0.4-0.5-0.4-0.6 0-1.4 8.2-7.2 40.3-7.8 43.4q-2 0.9-3.6 0 3.2-46.6 5.5-54.9z"/>
				<path id="&lt;Path&gt;" class="s166" d="m480.6 363q-2 3.5-5.5 27-4.3 2.7-13.3 0.9-2.3-8.3-5.5-27l-0.7-13.5q11.7-3.5 26.5-0.9 0.4 4.4-1.5 13.5z"/>
				<path id="&lt;Path&gt;" class="s167" d="m471.7 335.3l1.6 13.5q-4.1 2.1-7-0.1l0.6-7.9z"/>
				<path id="&lt;Path&gt;" class="s168" d="m482.1 349.5q23.1 27.9-4.1 38.6v-2.2q10.2-9.6 2.4-22.6 1-12.4 1.7-13.8z"/>
				<path id="&lt;Path&gt;" class="s169" d="m478.2 387.9c-1.1 0.4-3.9-0.5-5.1 0q-1.1 0.4-1.9-1.3 0-1.3 1.6-2.2 1.5-0.9 5 1.7 0.8 0 0.4 1.8z"/>
				<g id="&lt;Group&gt;">
					<path id="&lt;Path&gt;" class="s170" d="m439.8 337.7l5 1.8c0.6 0.2 1 0.9 1 1.8l-0.2 9.2c0 1.4-1 2.7-2 2.4l-4-1.5c-0.4-0.2-0.7-0.6-0.7-1.2v-11.5c-0.1-0.6 0.4-1.2 0.9-1z"/>
				</g>
				<path id="&lt;Path&gt;" class="s171" d="m438.9 349.5q-1.6-5.5-0.8-6.4c0.8-1 2.4-3.5 2.5-1.4 0.1 2.1 1 11.2-1.7 7.8z"/>
				<g id="&lt;Group&gt;">
					<path id="&lt;Path&gt;" class="s172" d="m469.4 332.2l0.3 10.3-5.3 1.2q-1.8-10.5-1.8-10.6 0.4-2.7 6.8-0.9z"/>
					<path id="&lt;Path&gt;" class="s173" d="m465 333.5c-1.3 0.8-3.9 1.4-4.5-0.3-0.6-1.7-0.3-4.7 2.2-5.1 1.3-0.2 1.9 0.5 2.3 1.3 0.2 0.4 0.6 0.5 1 0.3 0.2-0.1 0.4 0 0.5 0 0.3 0.2 0.7 0.2 1-0.1 0.6-0.7 1.6-1.4 2.9-0.7 1.3 0.7 1.2 1.9 1 2.7-0.2 0.4 0 0.9 0.4 1.1 1.6 0.6 1.4 2.1 1.1 2.8q-0.1 0.3-0.4 0.5c-0.6 0.2-1.7 0.8-1.8 1.9-0.2 1.1-0.1 5.1-0.1 6.5 0 0.4-0.1 0.7-0.4 0.8-1.5 1-3.5 1.7-4.6 2-0.3 0.1-0.8-0.1-0.9-0.5-0.6-1.7-0.9-3.7-1.1-4.7-0.1-0.5 0.2-1 0.6-1 0.8-0.2 1.8 0.1 2.9 0.5 1.2 0.4 1.5-1 1.6-1.4q0-0.1 0-0.2l-0.5-5.3c-0.1-0.3-0.2-0.6-0.4-0.7-0.6-0.4-1.8-1-2.8-0.4z"/>
					<path id="&lt;Path&gt;" class="s174" d="m470.6 339.7q-0.7-3 0.3-3.7c1.1-0.7 2.6-0.3 2.2 1.9q-0.5 2.8-2.5 1.8z"/>
				</g>
				<path id="&lt;Path&gt;" class="s0" d="m460.1 331.4q-0.1 0-0.1 0c-0.9-2.1 1.2-3.8 1.2-3.8q0.1 0 0.1 0 0.1 0.1 0 0.2c0 0-2 1.6-1.1 3.5q0 0.1-0.1 0.1 0 0 0 0z"/>
			</g>
			<g id="&lt;Group&gt;">
				<g id="&lt;Group&gt;">
					<path id="&lt;Path&gt;" class="s175" d="m422.2 338v19c0 1.6-0.8 2.8-1.9 2.8h-62.2c-0.9 0-1.6 0.9-1.8 2.1l-1.2 6.7c-0.1 0.8-0.9 0.9-1.2 0.1l-1.4-5.6c-0.3-1.1-1-1.8-1.8-1.8h-2.6c-1.1 0-1.9-1.3-1.9-2.8v-19.6c0-1.6 0.8-2.8 1.8-2.8l72.3-0.9c1.1-0.1 1.9 1.2 1.9 2.8z"/>
					<g id="&lt;Group&gt;">
						<ellipse id="&lt;Path&gt;" class="s176" cx="355.8" cy="347.6" rx="7.6" ry="8.7"/>
						<g id="&lt;Group&gt;">
							<path id="&lt;Path&gt;" class="s0" d="m358.6 344.1c0 1.5-1.2 3.2-2.6 3.2-1.4 0-2.5-1.7-2.5-3.2 0-1.6 1.1-2.7 2.5-2.7 1.4 0 2.6 1.1 2.6 2.7z"/>
							<path id="&lt;Path&gt;" class="s0" d="m351.4 352.1l-0.3-1c-0.2-0.9 0.3-1.8 1-2.1 2.7-1 5.3-1.1 7.8-0.1 0.8 0.4 1.2 1.3 0.9 2.1l-0.3 1.2c-0.2 0.7-0.8 1.2-1.4 1.2h-6.2c-0.7 0-1.3-0.5-1.5-1.3z"/>
						</g>
					</g>
					<g id="&lt;Group&gt;">
						<path id="&lt;Path&gt;" class="s0" d="m416.3 349.9c0 0.9-0.7 1.6-1.5 1.6h-45.5c-0.8 0-1.5-0.7-1.5-1.6 0-0.9 0.7-1.7 1.5-1.7h45.5c0.8 0 1.5 0.8 1.5 1.7z"/>
						<path id="&lt;Path&gt;" class="s0" d="m394.8 355.2c0 0.8-0.6 1.5-1.4 1.5h-23.8c-0.7 0-1.3-0.7-1.3-1.5 0-0.9 0.6-1.5 1.3-1.5h23.8c0.8 0 1.4 0.6 1.4 1.5z"/>
						<path id="&lt;Path&gt;" class="s0" d="m416.3 355.2c0 0.8-0.6 1.5-1.3 1.5h-17.2c-0.8 0-1.4-0.7-1.4-1.5 0-0.9 0.6-1.5 1.4-1.5h17.2c0.7 0 1.3 0.6 1.3 1.5z"/>
					</g>
					<rect id="&lt;Path&gt;" class="s177" x="367.6" y="339.6" width="26.7" height="4.4" rx="9.1"></rect>
				</g>
			</g>
			<g id="&lt;Group&gt;">
				<path id="&lt;Path&gt;" class="s178" d="m288.1 187.7c0.8 1.4 1.2 3.2 2.1 4.5 1.7 2.4 7.2 2.7 9.5 3.3 1.8 0.4 3.7 0.8 5.1 2.7 4.3 6.3-5.7 6.5-8.1 6.5-16-0.3-48.5 4-48.5-1.9 0-5.8 3.6 0.7 8.3-7.9 3.9-7 10.9-1.6 16-4.4 2.9-1.5 4.6-5.4 7.7-6.4 2.9-0.9 5.8 0.3 7.8 3.5q0 0 0.1 0.1z"/>
				<path id="&lt;Path&gt;" class="s178" d="m346.8 175.6c0.5 0.8 0.7 1.9 1.2 2.7 1 1.4 4.4 1.6 5.8 1.9 1.1 0.3 2.2 0.5 3 1.7 2.6 3.7-3.4 3.9-4.8 3.8-9.7-0.1-29.2 2.4-29.2-1.1 0-3.4 2.2 0.4 5-4.7 2.3-4.2 6.5-1 9.6-2.6 1.7-1 2.8-3.3 4.7-3.9 1.7-0.6 3.4 0.2 4.6 2.1q0 0 0.1 0.1z"/>
			</g>
			<g id="&lt;Group&gt;">
				<g id="&lt;Group&gt;">
					<path id="&lt;Path&gt;" class="s179" d="m218.8 348.2c0 16.8-0.1 74.5-1 94.9-0.1 2.2-1.5 3.9-3.1 3.9-8.3 0.2-38.4 0.3-51.9-0.8-2.7-0.2-4.9-3.2-4.9-6.8 0.1-17.6 0.4-67 2.3-89.6 0.3-2.7 2-4.8 4-5 9-1 39.3-3.1 50.9-1.8 2.1 0.2 3.7 2.5 3.7 5.2z"/>
					<path id="&lt;Path&gt;" class="s180" d="m215 353.3c0.2 13.5 0.7 58.4-0.1 75-0.1 2.4-1.6 4.4-3.4 4.5-7.7 0.4-33.9 1-45.1-0.4-2-0.3-3.5-2.5-3.6-5.1-0.3-13.8-1.1-55.7-0.4-72.1 0.2-2.6 1.8-4.7 3.8-4.9 8.3-0.7 36.1-2.4 45.6-1.4 1.8 0.1 3.2 2 3.2 4.4z"/>
					<g id="&lt;Group&gt;" style="opacity: .3">
						<path id="&lt;Path&gt;" class="s0" d="m212 357.2c0.2 12 0.6 51.8 0 66.5-0.1 2.1-1.5 3.8-3.1 3.9-6.8 0.4-30 0.9-39.9-0.4-1.8-0.2-3.2-2.1-3.2-4.5-0.3-12.2-1-49.2-0.3-63.8 0.1-2.3 1.5-4.1 3.3-4.3 7.3-0.7 32-2.1 40.4-1.3 1.6 0.1 2.8 1.8 2.8 3.9z"/>
					</g>
					<path id="&lt;Path&gt;" class="s181" d="m198.5 345.5c0 0.5-0.3 0.9-0.7 1-1.9 0-7.4 0.3-9.8 0.4-0.5 0-0.9-0.5-0.8-1.2v-0.1c0.1-0.4 0.4-0.7 0.7-0.7 1.7-0.2 6.7-0.6 10-0.4 0.4 0.1 0.7 0.5 0.6 1z"/>
				</g>
				<g id="&lt;Group&gt;">
					<ellipse id="&lt;Path&gt;" class="s182" cx="188.8" cy="390.9" rx="19.3" ry="21.5"/>
					<path id="&lt;Path&gt;" class="s0" d="m200.1 399.9q-0.6 0.7-1.3 1.3c-3.2 2.2-9.2 0.8-14.6-3.7-5.3-4.5-8.3-10.6-7.2-14.6q0.2-0.9 0.7-1.6c0.6-1 1.7-1.6 2.7-1.6 1.1 0 2.1 0.5 2.8 1.5l0.9 1.3c0.9 1.2 0.9 2.9 0.1 4.1l-1.1 1.7q-0.1-0.1-0.1 0 0 0 0 0c0.5 2 1.8 4 3.7 5.6 2 1.6 4.2 2.4 6.1 2.3l1.3-1.8c0.7-1.1 2-1.5 3.1-1l1.4 0.6c1 0.5 1.7 1.4 2 2.6 0.3 1.1 0.1 2.3-0.5 3.3z"/>
				</g>
				<g id="&lt;Group&gt;">
					<path id="&lt;Path&gt;" class="s0" d="m165.8 443.3c-3.2 0-5.9-3-5.9-6.6v-11.2c0-0.1 0.1-0.2 0.2-0.2 0.1 0 0.2 0.1 0.2 0.2v11.2c0 3.4 2.5 6.1 5.5 6.1 0.1 0 0.2 0.1 0.2 0.2 0 0.2-0.1 0.3-0.2 0.3z"/>
				</g>
			</g>
			<g id="&lt;Group&gt;">
				<g id="&lt;Group&gt;">
					<path id="&lt;Path&gt;" class="s183" d="m135.3 445.4l10.5 5.4c0.3 0.2 0.5 0.4 0.6 0.7 0.1 0.4-0.1 0.7-0.5 0.8-2.3 0.1-8.6-0.2-11.6-0.3-0.9-0.1-1.5-0.9-1.5-1.9q0.2-2.5 0.6-5z"/>
					<path id="&lt;Path&gt;" class="s184" d="m135.8 443.2l0.7 3.3q-1.2 1.1-3.1 0.1l-0.3-3z"/>
					<path id="&lt;Path&gt;" class="s185" d="m133.3 387.1c-0.1 0.8-0.7 39.2 3 56.4 0 0.3-0.1 0.6-0.3 0.7-0.6 0.2-1.7 0.6-3 0.7-0.4 0-0.8-0.3-0.9-0.8-1.1-4-6.1-24-6.8-43.1q-0.7-21.3 0-0.7l0.5-13.2z"/>
					<path id="&lt;Path&gt;" class="s186" d="m123.7 446.6c1.3 1.5 1.7 3.6 1.8 4.8 0.1 0.6-0.3 1.2-0.9 1.2-1.2 0-2.7-0.2-3.7-0.3-0.5 0-0.9-0.6-0.8-1.2q0.6-3.4 1.2-4.7z"/>
					<path id="&lt;Path&gt;" class="s187" d="m123.4 442.4l0.3 4.9q-1.4 0.4-2.2-0.2l-0.7-4.5z"/>
					<path id="&lt;Path&gt;" class="s188" d="m133.6 386.2l-0.4 6.9-5.4 4.3c-0.5 0.4-0.8 0.9-0.9 1.5-2.8 11.4-2.5 40.4-2.7 45.1 0 0.4-0.2 0.7-0.5 0.8-0.9 0.3-1.8 0.2-2.4 0.1-0.3-0.1-0.6-0.4-0.7-0.7-1.2-5.8-4.9-35.7-1.8-55.9z"/>
					<g id="&lt;Group&gt;">
						<path id="&lt;Path&gt;" class="s189" d="m147.2 348.2c0.4 2.3 1.5 6 3.8 9-3 1.8-6.6 3.2-11 3.9q-5.5 20.5-6.6 27.9-7.9 3.3-14.9 1.2-2.2-20.2 0.5-37.7 9.9-2.8 19-2.6c2.7 0 6-0.6 9.2-1.7z"/>
						<path id="&lt;Path&gt;" class="s190" d="m151 357.2c-2.3-3-3.4-6.7-3.8-9 7.1-2.4 14.1-7.5 15.4-13.8q1.2-0.5 2 0.7-1.7 14.6-13.6 22.1z"/>
					</g>
					<g id="&lt;Group&gt;">
						<path id="&lt;Path&gt;" class="s191" d="m164.4 335.4c0.1 0.3-1 0.8-1.6-0.5 0-0.7-0.4-3.5 0-4q1.8-2.8 5.4-6.3 0.6 0.7 0.1 1.3l-1.7 2c0.3 0.8 0.8 1.4 1 2.3 0.1 0.6 0 1.4-0.3 2-0.3 0.6-0.7 1.4-1.1 2q-0.7 1.2-1.8 1.2z"/>
						<path id="&lt;Path&gt;" class="s192" d="m166 330.4q-0.4 0.6-0.9 3.6l-1.4-1.8 0.5-1.5 1.6-1.5c0.3 0.2 0.5 0.5 0.2 1.2z"/>
					</g>
					<path id="&lt;Path&gt;" class="s193" d="m116.2 369.2c-2.8-1.6-5.5-2.1-7.1-2.2q1.4-8.1 9.9-14.5l3.4 9.8q-4.9 3.7-6.2 6.9z"/>
					<path id="&lt;Path&gt;" class="s194" d="m134.7 341.7l-1 8c0 0.5-0.3 0.9-0.6 1.1-3.4 2.5-6.2 1.1-7 0.6-0.2-0.1-0.2-0.3-0.2-0.4l2.9-9.3z"/>
					<g id="&lt;Group&gt;">
						<path id="&lt;Path&gt;" class="s195" d="m135.1 333.1q3.1 6.7 2.7 9.3c-0.4 2.7-4.3 2.5-7.7 0.3l-2.4-7.1z"/>
						<path id="&lt;Path&gt;" class="s196" d="m129.8 339.5c-0.1 0-0.2 0.2-0.1 0.3l0.9 2.9c0 0.2-0.1 0.4-0.3 0.4-2.1-0.3-4-2.5-4.4-3.1q-0.1-0.1-0.2 0c-0.5 0-2.3 0.2-2.3-1.5-0.1-1.3 0.5-1.7 1-1.9 0.2-0.1 0.2-0.3 0.1-0.5-0.4-0.4-0.8-1.4-0.2-3 0.9-2 2.6-1.9 3.3-1.7 0.2 0 0.3-0.1 0.3-0.3 0-0.6 0.2-1.8 1.6-2.5 1.6-0.8 2.7 0.5 3.1 1.1 0.1 0.2 0.3 0.2 0.4 0 2.6-3.7 4.2 1 3.6 2.8-0.7 1.9-3.7 2.8-5.7 3.3q-2 0.6-1.4 1c0.1 0.7 0.6 1.6 0.8 2 0.1 0.2 0.1 0.4-0.1 0.4z"/>
						<path id="&lt;Path&gt;" class="s197" d="m131.3 340.9c-1.1 0.6-3.3-0.1-3.1-1.5q0.1-1.5 2.4 0.2z"/>
					</g>
					<path id="&lt;Path&gt;" class="s198" d="m116.2 369.2q-3.8 8.6 3.2 12.9l-1.9 1.8q-14.1-2.2-8.3-16.8 2.9-1.8 7 2.1z"/>
				</g>
				<g id="&lt;Group&gt;">
					<g id="&lt;Group&gt;">
						<path id="&lt;Path&gt;" class="s199" d="m119.3 374.8l5 1.8c0.6 0.3 1 0.9 1 1.8l-0.2 9.2c0.1 1.5-1 2.7-2 2.4l-4-1.5c-0.4-0.2-0.6-0.6-0.6-1.2l-0.1-11.5c0-0.6 0.5-1.2 0.9-1z"/>
					</g>
					<path id="&lt;Path&gt;" class="s200" d="m118 385.7c-0.1-0.1-1-2-0.8-4.6 0.3-2.5-0.2-3.6 0.9-3.5 1 0.1 1.9 0.3 1.8 1.5-0.1 1.3 0.2 9.2-1.9 6.6z"/>
				</g>
			</g>
		</g>
	</g>
</svg>